<?xml version="1.0" encoding="UTF-8" standalone="no"?>
<!-- Created with Inkscape (http://www.inkscape.org/) -->

<svg
   xmlns:dc="http://purl.org/dc/elements/1.1/"
   xmlns:cc="http://creativecommons.org/ns#"
   xmlns:rdf="http://www.w3.org/1999/02/22-rdf-syntax-ns#"
   xmlns:svg="http://www.w3.org/2000/svg"
   xmlns="http://www.w3.org/2000/svg"
   xmlns:sodipodi="http://sodipodi.sourceforge.net/DTD/sodipodi-0.dtd"
   xmlns:inkscape="http://www.inkscape.org/namespaces/inkscape"
   width="297mm"
   height="210mm"
   viewBox="0 0 297 210"
   version="1.1"
   id="svg5522"
   inkscape:version="0.92.1 r15371"
   sodipodi:docname="all-near-xN.svg">
  <defs
     id="defs5516" />
  <sodipodi:namedview
     id="base"
     pagecolor="#ffffff"
     bordercolor="#666666"
     borderopacity="1.0"
     inkscape:pageopacity="0.0"
     inkscape:pageshadow="2"
     inkscape:zoom="0.98994949"
     inkscape:cx="573.36"
     inkscape:cy="388.98112"
     inkscape:document-units="mm"
     inkscape:current-layer="layer1"
     showgrid="false"
     inkscape:window-width="1920"
     inkscape:window-height="1046"
     inkscape:window-x="-11"
     inkscape:window-y="-11"
     inkscape:window-maximized="1" />
  <metadata
     id="metadata5519">
    <rdf:RDF>
      <cc:Work
         rdf:about="">
        <dc:format>image/svg+xml</dc:format>
        <dc:type
           rdf:resource="http://purl.org/dc/dcmitype/StillImage" />
        <dc:title></dc:title>
      </cc:Work>
    </rdf:RDF>
  </metadata>
  <g
     inkscape:label="Layer 1"
     inkscape:groupmode="layer"
     id="layer1"
     transform="translate(0,-87)">
    <path
       style="opacity:1;fill:#000000;fill-opacity:1;fill-rule:nonzero;stroke:#000000;stroke-width:0.1;stroke-linecap:round;stroke-linejoin:round;stroke-miterlimit:4;stroke-dasharray:none;stroke-dashoffset:0;stroke-opacity:1;paint-order:markers fill stroke"
       id="path6067"
       d="m 26.515036,185.94951 c 0.246798,-0.003 0.493866,0.007 0.740354,-0.007 0.369089,-0.0286 0.738323,-0.0545 1.107885,-0.0762 0.442018,-0.0433 0.883507,-0.0911 1.325951,-0.13015 0.534861,-0.0436 1.067507,-0.1102 1.601624,-0.16219 0.629171,-0.0486 1.256154,-0.11988 1.883965,-0.18295 0.698487,-0.0592 1.396074,-0.12595 2.093508,-0.1964 0.755197,-0.0657 1.508098,-0.15379 2.262063,-0.23178 0.816176,-0.083 1.634239,-0.14515 2.452706,-0.20029 0.841404,-0.056 1.683644,-0.0977 2.526017,-0.13581 0.836901,-0.0338 1.672193,-0.0984 2.508123,-0.15 0.864938,-0.054 1.730655,-0.0937 2.59652,-0.12913 0.920596,-0.0345 1.839905,-0.0966 2.759768,-0.14634 0.976561,-0.0523 1.953739,-0.0916 2.931062,-0.12641 1.030468,-0.0357 2.061223,-0.0619 3.092019,-0.0858 1.064802,-0.0128 2.128567,-0.0607 3.192446,-0.10355 1.095336,-0.0446 2.191055,-0.0788 3.286842,-0.10995 1.08398,-0.0268 2.167885,-0.0619 3.252224,-0.0675 1.046189,0.002 2.092317,0.0157 3.138451,0.0258 1.012494,0.0241 2.02452,0.0644 3.036742,0.0977 0.954294,0.0314 1.908775,0.0566 2.863294,0.08 0.883441,0.0213 1.766977,0.0385 2.650532,0.0543 0.835846,0.005 1.670828,0.0321 2.505739,0.07 0.789202,0.0373 1.578624,0.0695 2.368164,0.0986 0.75242,0.027 1.505014,0.0486 2.257645,0.0687 0.709366,0.0187 1.418836,0.0333 2.128327,0.0464 0.694941,0.0156 1.390049,-0.0106 2.084742,-0.028 0.723881,-0.0186 1.447855,-0.033 2.171856,-0.0459 0.746246,-0.0131 1.492546,-0.0226 2.238853,-0.0316 0.753243,-0.009 1.506509,-0.0153 2.259778,-0.0213 0.786167,-0.006 1.572344,-0.0104 2.358524,-0.0144 0.830967,0.006 1.661274,-0.0142 2.49167,-0.042 0.90886,-0.0321 1.81792,-0.0579 2.72705,-0.0808 0.97708,-0.0243 1.95431,-0.0412 2.93156,-0.0567 1.01485,-0.006 2.02898,-0.034 3.04311,-0.0705 1.03725,-0.039 2.07473,-0.0713 3.1123,-0.10004 1.04839,-0.0286 2.09695,-0.0502 3.14555,-0.0697 1.04857,-0.0192 2.09722,-0.0336 3.14588,-0.047 1.02768,-0.0129 2.0554,-0.0227 3.08312,-0.0317 1.00333,-0.009 2.00668,-0.0153 3.01003,-0.0214 0.98342,-0.006 1.96684,-0.0103 2.95027,-0.0145 0.97585,-0.004 1.95172,-0.007 2.92758,-0.01 0.96704,-0.003 1.93409,-0.005 2.90113,-0.007 0.95947,-0.005 1.91907,0.005 2.87843,-0.0122 0.95167,-0.0246 1.9032,-0.0542 2.85486,-0.0794 0.96189,-0.025 1.92392,-0.0441 2.88597,-0.0614 0.96331,-0.0169 1.92667,-0.0299 2.89005,-0.0416 0.94158,-0.0113 1.88319,-0.02 2.8248,-0.0281 0.90419,-0.004 1.80771,-0.0461 2.71123,-0.078 0.89657,-0.0321 1.79338,-0.057 2.69022,-0.0799 0.87874,-0.0195 1.75733,-0.0348 2.63547,-0.0735 0.86929,-0.0412 1.73872,-0.0793 2.60833,-0.11326 0.82723,-0.0466 1.65385,-0.10315 2.48095,-0.15204 0.80636,-0.0469 1.61323,-0.0839 2.42022,-0.11801 0.77039,-0.0286 1.53921,-0.0887 2.30846,-0.13827 0.76086,-0.0485 1.52229,-0.0871 2.28391,-0.12135 0.76162,-0.0311 1.52324,-0.0554 2.28416,-0.10104 0.77863,-0.0503 1.55766,-0.0938 2.33696,-0.13215 0.79651,-0.039 1.59348,-0.0673 2.3905,-0.0934 0.81953,-0.0263 1.63926,-0.0455 2.45902,-0.063 0.84948,-0.0178 1.69904,-0.0307 2.54862,-0.0425 0.87412,-0.0118 1.74827,-0.0206 2.62243,-0.0286 0.86067,-0.008 1.72135,-0.0138 2.58203,-0.0193 0.83482,-0.005 1.66964,-0.009 2.50447,-0.013 0.80457,0.0106 1.60875,0.0401 2.41301,0.0638 0.76757,0.0227 1.53526,0.0407 2.30299,0.057 0.74265,0.018 1.48505,0.0316 2.22785,0.0193 0.73847,-0.0131 1.47665,-0.0422 2.21527,-0.0423 0.7261,0.008 1.45207,0.0251 2.17808,0.0387 0.73262,0.0138 1.46529,0.0242 2.19798,0.0335 0.76715,0.009 1.53432,0.0164 2.3015,0.0228 0.78273,0.006 1.56548,0.0112 2.34823,0.0154 0.8001,0.004 1.6002,0.007 2.40031,0.0104 0.79893,0.003 1.59786,0.005 2.39679,0.007 0.77778,0.002 1.55556,0.003 2.33335,0.005 0.75959,-0.001 1.51885,-0.002 2.27809,0.0231 0.72629,0.0276 1.45259,0.0549 2.17903,0.0786 0.718,0.0231 1.43617,0.0409 2.15436,0.0569 0.71864,0.019 1.43771,0.0199 2.1561,0.0468 0.70492,0.0336 1.40964,0.0709 2.11464,0.10279 0.69759,0.0314 1.39548,0.055 2.09344,0.0765 0.70234,0.0213 1.40484,0.0373 2.10736,0.0519 0.70575,0.0144 1.41156,0.0252 2.11739,0.035 0.69975,0.01 1.39952,0.017 2.0993,0.0237 0.69544,0.007 1.3909,0.0114 2.08635,0.016 0.694,0.004 1.388,0.008 2.082,0.0108 0.68419,0.003 1.36838,0.005 2.05257,0.007 0.67812,-5.3e-4 1.35588,-2.6e-4 2.03357,0.0249 0.65512,0.0285 1.31029,0.0555 1.96558,0.0797 0.63169,0.0206 1.26316,0.0376 1.89392,0.0783 0.57354,0.0352 1.14632,0.0874 1.7207,0.10665 0.27935,-0.0181 0.5881,0.0488 0.86193,-0.0348 -0.16119,0.0275 -0.27582,0.30835 -0.31144,0.51805 0.007,0.24908 0.255,0.40715 0.004,0.26297 -0.21031,-0.11851 -0.43535,-0.20463 -0.65611,-0.30065 -0.29467,-0.1262 -0.59524,-0.2391 -0.8975,-0.34582 -0.33292,-0.12422 -0.66341,-0.25362 -0.97364,-0.42784 -0.28241,-0.181 -0.55742,-0.44506 -0.51606,-0.8233 0.0149,-0.13643 0.10056,-0.2554 0.15084,-0.38309 0.27572,-0.31007 0.64107,-0.32576 1.02314,-0.31206 0.32507,0.0185 0.64688,0.0721 0.96603,0.13449 0.3978,0.0765 0.7864,0.19206 1.16705,0.32938 0.41018,0.15494 0.76769,0.39677 1.07068,0.71056 0.34559,0.39585 0.38088,0.85342 0.23871,1.33901 -0.17971,0.45719 -0.5211,0.81115 -0.8686,1.14609 -0.38186,0.36251 -0.79356,0.69195 -1.20273,1.02279 -0.0602,0.0506 -0.12035,0.10109 -0.18052,0.15163 -2.17156,1.82223 -3.03057,0.79855 -0.85901,-1.02368 v 0 c 0.0664,-0.0557 0.13288,-0.11141 0.19932,-0.16712 0.3796,-0.3069 0.76213,-0.61179 1.11711,-0.94729 0.1957,-0.18726 0.40027,-0.37687 0.53093,-0.6176 0.0169,0.0175 0.0919,0.0853 0.0411,7.9e-4 -0.13076,-0.17583 -0.35317,-0.26806 -0.54442,-0.35949 -0.31548,-0.11646 -0.6395,-0.20951 -0.96966,-0.27421 -0.25465,-0.0515 -0.512,-0.0936 -0.77144,-0.11055 -0.38248,-0.033 -0.0686,0.0354 0.11136,-0.22088 0.11738,-0.34436 0.1684,-0.30294 0.0418,-0.64917 -0.0194,-0.0529 -0.14664,-0.17119 -0.10991,-0.12845 0.008,0.009 0.0185,0.0148 0.0278,0.0222 0.23702,0.14085 0.50188,0.2243 0.756,0.32805 0.33232,0.11787 0.66301,0.2418 0.98694,0.38116 0.27022,0.11895 0.54593,0.22599 0.80182,0.37529 0.32059,0.19282 0.57957,0.39546 0.64819,0.79104 -0.0581,0.51079 -0.24729,0.76135 -0.74704,0.8856 -0.39001,0.0738 -0.78675,0.0779 -1.18269,0.0624 -0.5877,-0.021 -1.17388,-0.0711 -1.76069,-0.10863 -0.61845,-0.0401 -1.23764,-0.0559 -1.85701,-0.0765 -0.65545,-0.0242 -1.31079,-0.0512 -1.96606,-0.0797 -0.66241,-0.0248 -1.3249,-0.0242 -1.98773,-0.024 -0.68479,-0.002 -1.36958,-0.004 -2.05437,-0.007 -0.69495,-0.003 -1.3899,-0.006 -2.08484,-0.0108 -0.69678,-0.005 -1.39355,-0.01 -2.0903,-0.016 -0.70177,-0.007 -1.40352,-0.014 -2.10525,-0.0237 -0.70884,-0.01 -1.41768,-0.0207 -2.12644,-0.0352 -0.70701,-0.0146 -1.414,-0.0307 -2.12084,-0.0522 -0.70436,-0.0217 -1.40867,-0.0456 -2.11267,-0.0772 -0.70174,-0.0317 -1.40321,-0.0688 -2.10486,-0.10239 -0.71143,-0.0273 -1.42361,-0.0267 -2.13529,-0.0462 -0.72275,-0.0161 -1.44547,-0.034 -2.16803,-0.0573 -0.72645,-0.0236 -1.45276,-0.0509 -2.17906,-0.0786 -0.74552,-0.0243 -1.49109,-0.0234 -2.23697,-0.0224 -0.77812,-0.001 -1.55624,-0.003 -2.33436,-0.005 -0.79943,-0.002 -1.59887,-0.004 -2.3983,-0.007 -0.80091,-0.003 -1.60182,-0.006 -2.40272,-0.0104 -0.78403,-0.004 -1.56806,-0.009 -2.35208,-0.0154 -0.76915,-0.006 -1.53829,-0.0134 -2.30741,-0.0229 -0.73541,-0.009 -1.4708,-0.0198 -2.20614,-0.0337 -0.71775,-0.0135 -1.43545,-0.0304 -2.15328,-0.0385 -0.73114,-5.3e-4 -1.46185,0.0301 -2.19284,0.0422 -0.75962,0.0125 -1.51882,-8e-4 -2.27828,-0.0194 -0.77138,-0.0164 -1.54272,-0.0345 -2.31394,-0.0573 -0.78916,-0.0232 -1.57825,-0.052 -2.3677,-0.0632 -0.83399,0.004 -1.66797,0.008 -2.50195,0.013 -0.85942,0.005 -1.71884,0.0115 -2.57824,0.0193 -0.8721,0.008 -1.74419,0.0168 -2.61624,0.0286 -0.8462,0.0117 -1.69239,0.0246 -2.53849,0.0423 -0.81469,0.0174 -1.62936,0.0365 -2.44382,0.0626 -0.78972,0.0259 -1.57939,0.0539 -2.36861,0.0925 -0.77455,0.0381 -1.54883,0.0814 -2.32271,0.13137 -0.76755,0.046 -1.53578,0.0709 -2.30404,0.10208 -0.753,0.0339 -1.50581,0.072 -2.25807,0.11994 -0.77909,0.0502 -1.55775,0.11097 -2.338,0.13985 -0.79949,0.0337 -1.59887,0.0704 -2.39773,0.11686 -0.836,0.0494 -1.67149,0.10688 -2.50766,0.15335 -0.86741,0.0339 -1.73464,0.0719 -2.60173,0.11299 -0.88632,0.039 -1.77309,0.0548 -2.66002,0.0744 -0.89254,0.0228 -1.78503,0.0476 -2.67729,0.0795 -0.91543,0.0323 -1.83087,0.0747 -2.74699,0.0788 -0.94,0.008 -1.88,0.0167 -2.81997,0.028 -0.96074,0.0116 -1.92147,0.0246 -2.88214,0.0415 -0.9583,0.0173 -1.91659,0.0363 -2.87473,0.0612 -0.95549,0.0253 -1.91085,0.0551 -2.86635,0.0797 -0.96647,0.0171 -1.93315,0.007 -2.89973,0.0124 -0.96664,0.002 -1.93328,0.004 -2.89991,0.007 -0.97527,0.003 -1.95054,0.006 -2.92581,0.01 -0.98258,0.004 -1.96517,0.008 -2.94775,0.0144 -1.00213,0.006 -2.00425,0.0128 -3.00635,0.0214 -1.02594,0.009 -2.05187,0.0188 -3.07777,0.0317 -1.04606,0.0134 -2.0921,0.0278 -3.13807,0.0469 -1.04454,0.0195 -2.08905,0.0409 -3.13339,0.0694 -1.03387,0.0287 -2.06766,0.0608 -3.10121,0.0997 -1.02311,0.0369 -2.04624,0.065 -3.07007,0.0712 -0.9731,0.0154 -1.9462,0.0323 -2.91913,0.0564 -0.90545,0.0228 -1.81083,0.0485 -2.71601,0.0804 -0.843062,0.0282 -1.686054,0.0483 -2.529691,0.0427 -0.784871,0.004 -1.569741,0.008 -2.354601,0.0143 -0.751478,0.006 -1.50295,0.0125 -2.254401,0.0213 -0.743701,0.009 -1.4874,0.0184 -2.231043,0.0314 -0.720752,0.0128 -1.441479,0.0272 -2.162115,0.0457 -0.714091,0.0179 -1.428601,0.0445 -2.14295,0.0282 -0.713134,-0.0132 -1.426244,-0.0278 -2.139257,-0.0466 -0.757187,-0.0202 -1.51434,-0.042 -2.271315,-0.0691 -0.793308,-0.0293 -1.586497,-0.0616 -2.379464,-0.0991 -0.822701,-0.0374 -1.645452,-0.0638 -2.469079,-0.0688 -0.886513,-0.0159 -1.773004,-0.0331 -2.659403,-0.0545 -0.958221,-0.0236 -1.916407,-0.0488 -2.874399,-0.0803 -1.001909,-0.0329 -2.003624,-0.0726 -3.005789,-0.097 -1.039577,-0.0101 -2.079148,-0.0232 -3.118778,-0.0258 -1.073904,0.005 -2.147375,0.0408 -3.220927,0.067 -1.090514,0.031 -2.180963,0.065 -3.271028,0.1094 -1.071483,0.0432 -2.142857,0.0912 -3.215266,0.10428 -1.025295,0.0238 -2.05055,0.0498 -3.075517,0.0853 -0.969095,0.0344 -1.938046,0.0735 -2.906387,0.12529 -0.925685,0.0501 -1.850813,0.11255 -2.777241,0.14717 -0.856629,0.0351 -1.713114,0.0743 -2.568827,0.12771 -0.843277,0.0521 -1.685914,0.11719 -2.530176,0.15118 -0.832548,0.0376 -1.664967,0.0788 -2.496558,0.13416 -0.802552,0.054 -1.604711,0.11485 -2.405017,0.19622 -0.755026,0.0781 -1.508985,0.16631 -2.265236,0.2321 -0.697687,0.0705 -1.395521,0.13736 -2.094264,0.19648 -0.6292,0.0632 -1.257578,0.13463 -1.888138,0.18336 -0.538157,0.0523 -1.074812,0.11961 -1.613739,0.16331 -0.455395,0.0401 -0.909656,0.0908 -1.364834,0.133 -0.373349,0.0219 -0.746308,0.0487 -1.119233,0.0769 -0.269018,0.0123 -0.538117,0.009 -0.807384,0.009 -2.834823,0 -2.834823,-1.33635 0,-1.33635 z"
       inkscape:connector-curvature="0" />
    <path
       style="opacity:1;fill:#000000;fill-opacity:1;fill-rule:nonzero;stroke:#000000;stroke-width:0.1;stroke-linecap:round;stroke-linejoin:round;stroke-miterlimit:4;stroke-dasharray:none;stroke-dashoffset:0;stroke-opacity:1;paint-order:markers fill stroke"
       id="path6069"
       d="m 129.47746,182.49122 c -0.037,0.29511 -0.0537,0.59222 -0.071,0.88898 -0.0272,0.5058 -0.0435,1.01211 -0.0584,1.5184 -0.0169,0.58573 -0.029,1.17159 -0.04,1.75746 1.3e-4,0.28782 0.009,0.57552 0.0177,0.86318 0.0812,2.83366 -1.25462,2.87193 -1.3358,0.0383 v 0 c -0.009,-0.30878 -0.0187,-0.6176 -0.0179,-0.92657 0.0111,-0.59068 0.0233,-1.18136 0.0404,-1.77191 0.0154,-0.51905 0.032,-1.03812 0.0601,-1.55667 0.0195,-0.33392 0.0389,-0.66824 0.0821,-1.00013 0.4009,-2.80633 1.72382,-2.61734 1.32291,0.18899 z"
       inkscape:connector-curvature="0" />
    <path
       style="opacity:1;fill:#000000;fill-opacity:1;fill-rule:nonzero;stroke:#000000;stroke-width:0.1;stroke-linecap:round;stroke-linejoin:round;stroke-miterlimit:4;stroke-dasharray:none;stroke-dashoffset:0;stroke-opacity:1;paint-order:markers fill stroke"
       id="path6071"
       d="m 125.7515,199.40748 c 0.0405,0.23314 0.11866,0.45366 0.21044,0.67084 0.16339,0.36553 0.37908,0.70372 0.5992,1.03694 0.2883,0.42556 0.59739,0.83679 0.92374,1.2338 0.3517,0.4266 0.7188,0.83968 1.09082,1.24856 0.1893,0.21037 0.38742,0.41246 0.58163,0.61825 1.9455,2.06185 0.97354,2.97897 -0.97196,0.91712 v 0 c -0.19974,-0.21172 -0.40354,-0.41959 -0.59816,-0.63608 -0.38732,-0.42577 -0.76927,-0.85614 -1.13551,-1.3003 -0.35493,-0.43343 -0.69291,-0.88084 -1.00608,-1.34553 -0.26583,-0.40354 -0.52373,-0.81452 -0.71721,-1.25873 -0.13284,-0.32199 -0.24444,-0.65079 -0.29982,-0.99588 -0.40091,-2.80633 0.92201,-2.99532 1.32291,-0.18899 z"
       inkscape:connector-curvature="0" />
    <path
       style="opacity:1;fill:#000000;fill-opacity:1;fill-rule:nonzero;stroke:#000000;stroke-width:0.1;stroke-linecap:round;stroke-linejoin:round;stroke-miterlimit:4;stroke-dasharray:none;stroke-dashoffset:0;stroke-opacity:1;paint-order:markers fill stroke"
       id="path6073"
       d="m 130.05865,199.42409 c -0.1507,0.16781 -0.26867,0.36121 -0.38633,0.55283 -0.23709,0.3907 -0.45468,0.79308 -0.68105,1.19015 -0.28676,0.53295 -0.58292,1.06052 -0.88861,1.58283 -0.32827,0.5695 -0.66237,1.13576 -1.00509,1.69669 -0.22912,0.37066 -0.46499,0.73695 -0.69981,1.104 -1.52775,2.38793 -2.65343,1.66774 -1.12568,-0.72019 v 0 c 0.2299,-0.35933 0.46088,-0.71786 0.68524,-1.0807 0.33846,-0.55364 0.66796,-1.11279 0.99208,-1.67494 0.30323,-0.51783 0.59619,-1.04131 0.88093,-1.56953 0.23384,-0.41018 0.45868,-0.82581 0.70415,-1.22913 0.17267,-0.27964 0.35062,-0.5588 0.57923,-0.79695 2.00452,-2.00452 2.94946,-1.05958 0.94494,0.94494 z"
       inkscape:connector-curvature="0" />
    <path
       style="opacity:1;fill:#000000;fill-opacity:1;fill-rule:nonzero;stroke:#000000;stroke-width:0.1;stroke-linecap:round;stroke-linejoin:round;stroke-miterlimit:4;stroke-dasharray:none;stroke-dashoffset:0;stroke-opacity:1;paint-order:markers fill stroke"
       id="path6077"
       d="m 134.83867,207.42557 c 0.0439,0.28714 0.0623,0.57587 0.0637,0.86607 -2.7e-4,0.37315 -0.009,0.74556 -0.0388,1.11753 -0.0251,0.29854 -0.0519,0.59713 -0.0977,0.89329 -0.12389,0.65818 -0.2584,0.40881 -1.36356,0.13916 -0.0276,-0.007 -0.0435,-0.2314 -0.0549,-0.34851 8e-4,-0.26629 0.0234,-0.53198 0.0375,-0.79782 0.0346,-0.34463 0.0782,-0.68824 0.11243,-1.03294 0.0176,-0.37705 0.0454,-0.74559 0.15594,-1.10826 0.14511,-0.42223 0.43261,-0.684 0.85067,-0.82369 0.33387,-0.0782 0.65828,-0.0116 0.97682,0.0932 0.33649,0.11932 0.62623,0.32748 0.91297,0.53427 0.30329,0.22374 0.59427,0.46419 0.87964,0.71029 0.25928,0.21239 0.5159,0.42969 0.79958,0.6092 0.1359,0.0679 0.29887,0.19179 0.46172,0.15669 -0.0114,-0.0329 -0.08,0.0361 -0.075,-0.0479 0.0891,-0.22235 0.11261,-0.4609 0.13863,-0.69679 0.0369,-0.36748 0.0242,-0.73817 0.0209,-1.10699 -0.0143,-0.45458 -0.001,-0.90836 0.0211,-1.36236 0.0279,-0.32237 0.0122,-0.16573 0.0464,-0.46999 0.31949,-2.81676 1.64733,-2.66615 1.32783,0.15061 v 0 c -0.0291,0.25422 -0.0159,0.12573 -0.0395,0.38549 -0.0212,0.42806 -0.0338,0.85575 -0.0196,1.28438 0.004,0.42238 0.0161,0.84668 -0.0291,1.26736 -0.0459,0.40561 -0.10633,0.81284 -0.29051,1.18265 -0.24651,0.42002 -0.58484,0.72702 -1.09695,0.74986 -0.43003,-0.0113 -0.8262,-0.13149 -1.1885,-0.36885 -0.33452,-0.2172 -0.64576,-0.46612 -0.95106,-0.72245 -0.25505,-0.22117 -0.51638,-0.43593 -0.78732,-0.63733 -0.17677,-0.12748 -0.35054,-0.26344 -0.55242,-0.3499 -0.0618,-0.0208 -0.17024,-0.0566 -0.21304,-0.0698 0.0486,-0.0284 0.17502,-0.17704 0.0802,-0.063 -0.0947,0.26898 -0.0642,0.55578 -0.0996,0.83544 -0.0323,0.32438 -0.0707,0.648 -0.10776,0.97184 -0.0116,0.21739 -0.0252,0.43465 -0.0377,0.65198 -0.0784,0.003 -1.10938,-0.33402 -1.24608,0.11731 -1.5e-4,5.3e-4 0.001,2e-4 0.002,2.6e-4 0.003,-0.0134 0.006,-0.0269 0.008,-0.0403 0.0419,-0.26311 0.0622,-0.52908 0.086,-0.79427 0.0273,-0.33456 0.0336,-0.66952 0.0345,-1.00517 -2.6e-4,-0.22856 -0.0153,-0.45549 -0.0503,-0.68167 -0.40091,-2.80633 0.92201,-2.99532 1.32291,-0.18899 z"
       inkscape:connector-curvature="0" />
    <path
       style="opacity:1;fill:#000000;fill-opacity:1;fill-rule:nonzero;stroke:#000000;stroke-width:0.1;stroke-linecap:round;stroke-linejoin:round;stroke-miterlimit:4;stroke-dasharray:none;stroke-dashoffset:0;stroke-opacity:1;paint-order:markers fill stroke"
       id="path6079"
       d="m 156.75477,180.43135 c 0.0424,0.32784 0.0624,0.65799 0.0821,0.98779 0.0387,0.53281 0.0366,1.06635 0.0277,1.60004 -0.0122,0.61345 -0.0238,1.22691 -0.0339,1.84039 -0.007,0.40211 -0.0154,0.80406 -0.01,1.2062 0.0371,2.83458 -1.29917,2.85206 -1.33623,0.0175 v 0 c -0.005,-0.41532 0.002,-0.83044 0.01,-1.24572 0.0101,-0.61355 0.0217,-1.22708 0.0339,-1.84059 0.008,-0.49987 0.0114,-0.99951 -0.0255,-1.49855 -0.0174,-0.29311 -0.0348,-0.58653 -0.071,-0.87806 -0.4009,-2.80633 0.92201,-2.99531 1.32292,-0.18898 z"
       inkscape:connector-curvature="0" />
    <path
       style="opacity:1;fill:#000000;fill-opacity:1;fill-rule:nonzero;stroke:#000000;stroke-width:0.1;stroke-linecap:round;stroke-linejoin:round;stroke-miterlimit:4;stroke-dasharray:none;stroke-dashoffset:0;stroke-opacity:1;paint-order:markers fill stroke"
       id="path6081"
       d="m 89.654302,182.49122 c -0.03081,0.29445 -0.07111,0.58768 -0.107616,0.88148 -0.05751,0.47194 -0.09546,0.94594 -0.130025,1.42002 -0.03292,0.52115 -0.07336,1.04227 -0.08279,1.56449 -0.05523,2.83429 -1.391322,2.80825 -1.336095,-0.026 v 0 c 0.0113,-0.54599 0.0502,-1.09089 0.08608,-1.63572 0.03627,-0.4967 0.07627,-0.99331 0.136708,-1.48775 0.03759,-0.30182 0.07851,-0.60306 0.11082,-0.90548 0.400905,-2.80633 1.723822,-2.61734 1.322917,0.18899 z"
       inkscape:connector-curvature="0" />
    <path
       style="opacity:1;fill:#000000;fill-opacity:1;fill-rule:nonzero;stroke:#000000;stroke-width:0.1;stroke-linecap:round;stroke-linejoin:round;stroke-miterlimit:4;stroke-dasharray:none;stroke-dashoffset:0;stroke-opacity:1;paint-order:markers fill stroke"
       id="path6083"
       d="m 66.951015,181.8701 c 0,0.3015 0,0.603 0,0.9045 0,0.44898 0,0.89795 0,1.34693 -0.01154,0.46153 0.01857,0.92204 0.04509,1.38248 0.162923,2.83014 -1.171215,2.90694 -1.334137,0.0768 v 0 c -0.02798,-0.48601 -0.05865,-0.97216 -0.0473,-1.45929 0,-0.44898 0,-0.89795 0,-1.34693 0,-0.3015 0,-0.603 0,-0.9045 0,-2.83483 1.336347,-2.83483 1.336347,0 z"
       inkscape:connector-curvature="0" />
    <path
       style="opacity:1;fill:#000000;fill-opacity:1;fill-rule:nonzero;stroke:#000000;stroke-width:0.1;stroke-linecap:round;stroke-linejoin:round;stroke-miterlimit:4;stroke-dasharray:none;stroke-dashoffset:0;stroke-opacity:1;paint-order:markers fill stroke"
       id="path6085"
       d="m 185.35261,180.16408 c 0.0413,0.2951 0.0619,0.59251 0.0818,0.88966 0.0276,0.43546 0.0444,0.8715 0.0603,1.30751 0.0209,0.46687 0.0196,0.93463 0.0474,1.40113 0.005,0.074 0.0108,0.14805 0.0163,0.22207 0.20614,2.82732 -1.12667,2.92449 -1.33281,0.0972 v 0 c -0.006,-0.0807 -0.0117,-0.16134 -0.0176,-0.242 -0.0269,-0.47609 -0.0291,-0.95312 -0.0488,-1.42956 -0.0154,-0.42265 -0.0316,-0.84535 -0.0583,-1.26748 -0.0175,-0.26366 -0.0352,-0.52762 -0.0713,-0.78952 -0.40091,-2.80633 0.92201,-2.99532 1.32292,-0.18899 z"
       inkscape:connector-curvature="0" />
    <path
       style="opacity:1;fill:#000000;fill-opacity:1;fill-rule:nonzero;stroke:#000000;stroke-width:0.1;stroke-linecap:round;stroke-linejoin:round;stroke-miterlimit:4;stroke-dasharray:none;stroke-dashoffset:0;stroke-opacity:1;paint-order:markers fill stroke"
       id="path6087"
       d="m 129.30253,177.47748 c 0.21076,-0.14897 0.42809,-0.28801 0.64228,-0.43191 0.2943,-0.19651 0.59682,-0.37992 0.89926,-0.56347 0.3586,-0.20883 0.72337,-0.40657 1.0895,-0.60183 0.3878,-0.1985 0.77925,-0.3896 1.17092,-0.58035 0.42887,-0.2032 0.86224,-0.39661 1.30367,-0.57094 0.46276,-0.1955 0.93669,-0.36105 1.4165,-0.50898 0.49611,-0.15024 1.00228,-0.26261 1.51021,-0.36424 0.52211,-0.10388 1.04939,-0.17697 1.57741,-0.24276 0.5722,-0.0805 1.14977,-0.0991 1.7265,-0.11711 0.59803,-0.0277 1.19631,-0.007 1.79426,0.01 0.63178,0.0319 1.2624,0.08 1.89185,0.14222 0.64649,0.067 1.29161,0.15092 1.93492,0.24372 0.6437,0.0939 1.2825,0.21845 1.91931,0.35053 0.6166,0.13763 1.22791,0.29828 1.83669,0.4669 0.59088,0.15813 1.17071,0.35329 1.75397,0.53665 0.59649,0.1899 1.18036,0.41846 1.74703,0.68409 2.5648,1.20748 1.99559,2.41654 -0.56921,1.20906 v 0 c -0.51118,-0.24191 -1.04031,-0.44525 -1.57867,-0.61834 -0.56873,-0.17886 -1.13406,-0.36939 -1.71019,-0.5237 -0.58037,-0.16112 -1.16336,-0.31392 -1.75104,-0.44617 -0.61023,-0.1266 -1.2223,-0.24635 -1.83914,-0.33643 -0.6234,-0.0904 -1.24872,-0.1711 -1.87521,-0.23645 -0.59859,-0.0592 -1.19826,-0.10492 -1.79901,-0.1363 -0.57117,-0.0165 -1.14264,-0.037 -1.7139,-0.01 -0.53547,0.0167 -1.07185,0.0322 -1.6031,0.10753 -0.49559,0.0616 -0.99055,0.12976 -1.48062,0.22709 -0.46373,0.0925 -0.92596,0.19445 -1.37902,0.33104 -0.44724,0.13734 -0.88844,0.29257 -1.31951,0.475 -0.40948,0.16103 -0.81076,0.34149 -1.20868,0.52917 -0.37698,0.18352 -0.7537,0.36745 -1.12715,0.55804 -0.34431,0.18359 -0.68742,0.36932 -1.02499,0.56509 -0.2856,0.1733 -0.57148,0.34611 -0.84939,0.53167 -0.21531,0.14361 -0.43271,0.28387 -0.64418,0.43318 -2.35871,1.57248 -3.09999,0.46057 -0.74127,-1.11191 z"
       inkscape:connector-curvature="0" />
    <path
       style="opacity:1;fill:#000000;fill-opacity:1;fill-rule:nonzero;stroke:#000000;stroke-width:0.1;stroke-linecap:round;stroke-linejoin:round;stroke-miterlimit:4;stroke-dasharray:none;stroke-dashoffset:0;stroke-opacity:1;paint-order:markers fill stroke"
       id="path6089"
       d="m 141.28397,164.41179 c -0.16456,0.2059 -0.36082,0.38234 -0.5502,0.56447 -0.27205,0.25112 -0.55255,0.4928 -0.83553,0.73145 -0.14669,0.1404 -0.34523,0.2679 -0.40566,0.47314 0.0195,0.0541 0.0225,-0.0578 0.0221,-0.0785 0.10654,0.0543 0.22023,0.11339 0.32758,0.17048 0.22527,0.12495 0.46864,0.2087 0.71423,0.28312 2.71104,0.82852 2.32047,2.10652 -0.39057,1.278 v 0 c -0.32763,-0.10078 -0.65143,-0.21594 -0.95259,-0.38202 -0.30077,-0.16102 -0.60544,-0.31627 -0.80772,-0.60406 -0.22993,-0.37618 -0.30507,-0.77278 -0.14063,-1.19517 0.17742,-0.38604 0.43799,-0.70312 0.77224,-0.96702 0.26105,-0.21962 0.5191,-0.44281 0.77076,-0.67318 0.18335,-0.17592 0.37,-0.34813 0.531,-0.54565 2.00452,-2.00452 2.94946,-1.05957 0.94493,0.94495 z"
       inkscape:connector-curvature="0" />
    <path
       style="opacity:1;fill:#000000;fill-opacity:1;fill-rule:nonzero;stroke:#000000;stroke-width:0.1;stroke-linecap:round;stroke-linejoin:round;stroke-miterlimit:4;stroke-dasharray:none;stroke-dashoffset:0;stroke-opacity:1;paint-order:markers fill stroke"
       id="path6091"
       d="m 147.21016,163.23161 c -0.11177,0.006 -0.20498,0.0419 -0.29926,0.0994 -0.0968,0.0647 -0.14095,0.17184 -0.18206,0.27617 -0.0418,0.12594 -0.0602,0.24937 -0.0194,0.37664 0.0345,0.1281 0.13243,0.19937 0.22224,0.28807 0.28919,0.29352 0.37615,0.65319 0.30751,1.05253 -0.0641,0.29609 -0.24807,0.53708 -0.40639,0.78766 -0.14456,0.20457 -0.28581,0.4136 -0.37119,0.65048 -0.0828,0.21728 -0.0747,0.4471 -0.0497,0.67423 0.0305,0.20836 0.12455,0.38918 0.24997,0.55482 0.11027,0.12047 0.24947,0.19553 0.40806,0.22896 0.21894,0.0264 0.43737,-0.0271 0.64729,-0.0845 0.16737,-0.0573 0.086,-0.0258 0.24442,-0.0942 2.61825,-1.08673 3.13054,0.14753 0.51229,1.23426 v 0 c -0.27724,0.11248 -0.13779,0.0617 -0.4182,0.15269 -0.4436,0.1131 -0.89785,0.18846 -1.35123,0.0771 -0.44569,-0.13707 -0.83956,-0.35843 -1.12835,-0.73524 -0.255,-0.3644 -0.44454,-0.76001 -0.49462,-1.2078 -0.0377,-0.4363 -0.0283,-0.87437 0.13574,-1.2877 0.12667,-0.31209 0.28466,-0.60814 0.48687,-0.87869 0.0642,-0.10096 0.14688,-0.24922 0.22289,-0.32531 0.0149,0.0527 0.0668,0.20569 0.0651,0.15093 -0.277,-0.27411 -0.50637,-0.57655 -0.59107,-0.96645 -0.0738,-0.40329 -0.0563,-0.79741 0.10208,-1.18098 0.17119,-0.3799 0.40511,-0.71293 0.77664,-0.92166 0.29263,-0.15037 0.59775,-0.25398 0.93038,-0.2578 2.83482,0 2.83482,1.33635 0,1.33635 z"
       inkscape:connector-curvature="0" />
    <path
       style="opacity:1;fill:#000000;fill-opacity:1;fill-rule:nonzero;stroke:#000000;stroke-width:0.1;stroke-linecap:round;stroke-linejoin:round;stroke-miterlimit:4;stroke-dasharray:none;stroke-dashoffset:0;stroke-opacity:1;paint-order:markers fill stroke"
       id="path6093"
       d="m 113.17875,182.48044 c 0.0778,0.28061 0.12638,0.56799 0.17095,0.85537 0.0365,0.2428 0.0629,0.48692 0.0883,0.73108 0.29262,2.81968 -1.03659,2.95762 -1.32921,0.13794 v 0 c -0.023,-0.22205 -0.0467,-0.44407 -0.0797,-0.66491 -0.0358,-0.23243 -0.0738,-0.46505 -0.13521,-0.69236 -0.77879,-2.72575 0.50614,-3.09287 1.28493,-0.36712 z"
       inkscape:connector-curvature="0" />
    <path
       style="opacity:1;fill:#000000;fill-opacity:1;fill-rule:nonzero;stroke:#000000;stroke-width:0.1;stroke-linecap:round;stroke-linejoin:round;stroke-miterlimit:4;stroke-dasharray:none;stroke-dashoffset:0;stroke-opacity:1;paint-order:markers fill stroke"
       id="path6095"
       d="m 90.548446,178.81383 c 0.218418,-0.15298 0.440269,-0.30019 0.666022,-0.44219 0.349462,-0.20289 0.710261,-0.38505 1.067681,-0.57324 0.435322,-0.2234 0.875557,-0.43743 1.321342,-0.63914 0.51003,-0.22739 1.025226,-0.44291 1.541476,-0.65574 0.600297,-0.23606 1.205124,-0.46028 1.816894,-0.6648 0.703688,-0.22925 1.418635,-0.41844 2.134989,-0.60291 0.812059,-0.21246 1.63658,-0.36993 2.46364,-0.51046 0.90592,-0.14597 1.81079,-0.29657 2.72254,-0.40153 0.99382,-0.10404 1.99124,-0.16735 2.98854,-0.22646 1.07449,-0.0712 2.15049,-0.0982 3.22698,-0.11208 1.12533,-0.003 2.25014,0.0287 3.37364,0.0912 1.11786,0.0661 2.23308,0.17053 3.34722,0.28189 1.07726,0.11059 2.14898,0.26514 3.2188,0.43154 0.9507,0.15671 1.89635,0.34286 2.83875,0.54314 0.68554,0.1416 1.36431,0.31316 2.03679,0.507 2.72356,0.78641 2.35284,2.0703 -0.37072,1.2839 v 0 c -0.64167,-0.18563 -1.28979,-0.34843 -1.94404,-0.48378 -0.91829,-0.19542 -1.83986,-0.37657 -2.76619,-0.52979 -1.04574,-0.16269 -2.0933,-0.31408 -3.14631,-0.42229 -1.09467,-0.10943 -2.19039,-0.2122 -3.28872,-0.27733 -1.09297,-0.0611 -2.18723,-0.0915 -3.28199,-0.0892 -1.05587,0.0136 -2.11125,0.0398 -3.16516,0.10984 -0.97288,0.0576 -1.94587,0.11918 -2.9154,0.22012 -0.88794,0.10132 -1.76877,0.25022 -2.65107,0.39136 -0.79026,0.13404 -1.57815,0.28409 -2.354047,0.4871 -0.686075,0.17667 -1.370967,0.35711 -2.045033,0.57634 -0.582896,0.19434 -1.158711,0.40875 -1.730835,0.63274 -0.502487,0.20708 -1.003925,0.41683 -1.500394,0.638 -0.421598,0.19028 -0.837446,0.39328 -1.249241,0.60391 -0.327173,0.17216 -0.656839,0.33972 -0.978628,0.5219 -0.215741,0.1357 -0.427715,0.27638 -0.636254,0.42291 -2.358713,1.57247 -3.099985,0.46056 -0.741272,-1.11191 z"
       inkscape:connector-curvature="0" />
    <path
       style="opacity:1;fill:#000000;fill-opacity:1;fill-rule:nonzero;stroke:#000000;stroke-width:0.1;stroke-linecap:round;stroke-linejoin:round;stroke-miterlimit:4;stroke-dasharray:none;stroke-dashoffset:0;stroke-opacity:1;paint-order:markers fill stroke"
       id="path6097"
       d="m 104.08089,166.05624 c -0.22195,0.17152 -0.44061,0.3473 -0.66493,0.51581 -0.26877,0.20477 -0.55716,0.38343 -0.80618,0.61285 -0.0388,-0.0193 -0.15584,0.23222 -0.0934,0.15474 0.0105,-0.14806 -0.014,-0.12559 0.0966,-0.0161 0.12272,0.10598 0.27376,0.16879 0.4224,0.22887 0.28408,0.0961 0.56559,0.19974 0.85222,0.28833 2.70745,0.84017 2.31139,2.11648 -0.39606,1.27631 v 0 c -0.32498,-0.10118 -0.64527,-0.21653 -0.96623,-0.32947 -0.31863,-0.13333 -0.62894,-0.28969 -0.87553,-0.53772 -0.25721,-0.27289 -0.46954,-0.5691 -0.46877,-0.96264 0.0383,-0.43111 0.20688,-0.7993 0.53263,-1.09365 0.28314,-0.25297 0.59409,-0.46808 0.90095,-0.69091 0.20632,-0.15411 0.40639,-0.31648 0.61077,-0.473 2.17777,-1.81481 3.03327,-0.7882 0.85551,1.02661 z"
       inkscape:connector-curvature="0" />
    <path
       style="opacity:1;fill:#000000;fill-opacity:1;fill-rule:nonzero;stroke:#000000;stroke-width:0.1;stroke-linecap:round;stroke-linejoin:round;stroke-miterlimit:4;stroke-dasharray:none;stroke-dashoffset:0;stroke-opacity:1;paint-order:markers fill stroke"
       id="path6101"
       d="m 112.2373,163.98659 c -0.2244,0.0979 -0.4366,0.22045 -0.64984,0.34003 -0.27256,0.15517 -0.53365,0.33145 -0.77516,0.53162 -0.19033,0.15698 -0.32627,0.35333 -0.42119,0.57894 -0.0344,0.0953 -0.0409,0.19346 0.0106,0.28254 0.0653,0.0936 0.16066,0.15811 0.25464,0.21971 0.24361,0.12568 0.48293,0.25161 0.70231,0.41721 0.33502,0.27162 0.45427,0.62392 0.41747,1.04452 -0.0465,0.28679 -0.21031,0.52295 -0.37233,0.75547 -0.14017,0.19019 -0.29983,0.36454 -0.42513,0.56526 -0.0639,0.11148 -0.1007,0.22866 -0.0929,0.35722 0.014,0.0434 0.0547,0.0627 0.0895,0.0907 0.12391,0.0822 0.2773,0.12007 0.41926,0.16172 0.23974,0.0542 0.48393,0.0747 0.72902,0.0794 0.3041,0.012 0.60391,-0.0422 0.90278,-0.0899 0.19742,-0.0419 0.095,-0.0197 0.30708,-0.0669 2.76745,-0.61438 3.05707,0.69021 0.28962,1.30459 v 0 c -0.25067,0.0556 -0.12189,0.0281 -0.38641,0.082 -0.37801,0.0602 -0.7578,0.12104 -1.14218,0.1062 -0.36442,-0.009 -0.72848,-0.0427 -1.08234,-0.13493 -0.35978,-0.10876 -0.71724,-0.23831 -0.99164,-0.50721 -0.2799,-0.29947 -0.47029,-0.64063 -0.47055,-1.06206 0.0177,-0.37059 0.10169,-0.72335 0.30286,-1.04068 0.13838,-0.21357 0.29508,-0.41191 0.45481,-0.60971 0.0496,-0.0711 0.11598,-0.16217 0.15016,-0.20945 0.004,0.0704 0.0403,0.24326 0.0797,0.22794 -0.18736,-0.1623 -0.44272,-0.22181 -0.63973,-0.37131 -0.32825,-0.23157 -0.61489,-0.50428 -0.76089,-0.88879 -0.13075,-0.4235 -0.14267,-0.84634 0.0354,-1.26154 0.1896,-0.4093 0.43996,-0.77809 0.79369,-1.06517 0.30406,-0.24669 0.62607,-0.47147 0.96796,-0.66307 0.2316,-0.12983 0.46249,-0.26246 0.70574,-0.36965 2.53554,-1.26777 3.13318,-0.0725 0.59763,1.19526 z"
       inkscape:connector-curvature="0" />
    <path
       style="opacity:1;fill:#000000;fill-opacity:1;fill-rule:nonzero;stroke:#000000;stroke-width:0.1;stroke-linecap:round;stroke-linejoin:round;stroke-miterlimit:4;stroke-dasharray:none;stroke-dashoffset:0;stroke-opacity:1;paint-order:markers fill stroke"
       id="path6103"
       d="m 102.21597,183.29303 c -0.035,0.22618 -0.05,0.45311 -0.0503,0.68167 -0.003,0.2004 0.0212,0.39986 0.0404,0.59898 0.27169,2.82177 -1.05851,2.94985 -1.3302,0.12808 v 0 c -0.0234,-0.24321 -0.0506,-0.4869 -0.0465,-0.73164 0.002,-0.2902 0.0198,-0.57893 0.0637,-0.86608 0.40091,-2.80633 1.72382,-2.61734 1.32292,0.18899 z"
       inkscape:connector-curvature="0" />
    <path
       style="opacity:1;fill:#000000;fill-opacity:1;fill-rule:nonzero;stroke:#000000;stroke-width:0.1;stroke-linecap:round;stroke-linejoin:round;stroke-miterlimit:4;stroke-dasharray:none;stroke-dashoffset:0;stroke-opacity:1;paint-order:markers fill stroke"
       id="path6105"
       d="m 173.32548,181.23315 c 0.0387,0.2822 0.0657,0.56566 0.0751,0.8503 -0.009,0.35613 -0.002,0.71108 0.0149,1.0668 0.0126,0.25371 0.004,0.13196 0.0256,0.36533 0.25663,2.82318 -1.07423,2.94416 -1.33086,0.12098 v 0 c -0.0255,-0.28878 -0.016,-0.14809 -0.0296,-0.422 -0.0175,-0.36501 -0.0265,-0.72957 -0.016,-1.09497 -0.004,-0.23355 -0.0335,-0.4658 -0.0622,-0.69745 -0.4009,-2.80633 0.92201,-2.99531 1.32292,-0.18899 z"
       inkscape:connector-curvature="0" />
    <path
       style="opacity:1;fill:#000000;fill-opacity:1;fill-rule:nonzero;stroke:#000000;stroke-width:0.1;stroke-linecap:round;stroke-linejoin:round;stroke-miterlimit:4;stroke-dasharray:none;stroke-dashoffset:0;stroke-opacity:1;paint-order:markers fill stroke"
       id="path6107"
       d="m 61.729045,180.35403 c -0.144224,0.2017 -0.274074,0.41236 -0.386823,0.63312 -0.140304,0.28653 -0.237287,0.59092 -0.319921,0.89823 -0.11361,0.40123 -0.161804,0.81378 -0.199202,1.22763 -0.05265,0.50155 -0.02585,1.00555 -0.0021,1.50779 0.03726,0.56541 0.132842,1.12497 0.239419,1.68084 0.120525,0.59243 0.284715,1.17413 0.473842,1.74796 0.176014,0.52097 0.386543,1.02735 0.652039,1.5089 0.04191,0.0677 0.08382,0.13532 0.125727,0.20298 1.484318,2.41516 0.3458,3.11488 -1.138517,0.69971 v 0 c -0.05312,-0.087 -0.106239,-0.17392 -0.159356,-0.26089 -0.302049,-0.55471 -0.549535,-1.1341 -0.749475,-1.73358 -0.205933,-0.62855 -0.386318,-1.26522 -0.516834,-1.91412 -0.117864,-0.61802 -0.22292,-1.24016 -0.26171,-1.8689 -0.02653,-0.56359 -0.05259,-1.12906 0.0062,-1.69179 0.04497,-0.49118 0.106416,-0.98062 0.240435,-1.45684 0.108871,-0.39767 0.236577,-0.79122 0.422,-1.16077 0.137231,-0.26398 0.289071,-0.51946 0.462452,-0.76154 1.572477,-2.35872 2.684386,-1.61744 1.111909,0.74127 z"
       inkscape:connector-curvature="0" />
    <path
       style="opacity:1;fill:#000000;fill-opacity:1;fill-rule:nonzero;stroke:#000000;stroke-width:0.1;stroke-linecap:round;stroke-linejoin:round;stroke-miterlimit:4;stroke-dasharray:none;stroke-dashoffset:0;stroke-opacity:1;paint-order:markers fill stroke"
       id="path6109"
       d="m 196.79719,179.15004 c 0.10582,0.21804 0.2143,0.43489 0.3168,0.65474 0.17014,0.32898 0.30349,0.67397 0.42134,1.0245 0.13317,0.40857 0.22482,0.82865 0.30723,1.24985 0.0968,0.46005 0.14207,0.92659 0.1712,1.39499 0.025,0.51197 -0.009,1.02129 -0.0724,1.52894 -0.0726,0.55197 -0.24336,1.08305 -0.43105,1.60493 -0.17262,0.48166 -0.38102,0.94961 -0.60869,1.4075 -0.0379,0.0701 -0.0758,0.14026 -0.11369,0.21039 -1.35179,2.49176 -2.52641,1.85452 -1.17463,-0.63724 v 0 c 0.0309,-0.0566 0.0617,-0.11319 0.0926,-0.16979 0.20593,-0.41097 0.39182,-0.83241 0.54766,-1.26504 0.1557,-0.42838 0.29922,-0.86439 0.36195,-1.31753 0.0538,-0.42502 0.0842,-0.85077 0.0645,-1.27967 -0.0252,-0.41022 -0.063,-0.81867 -0.149,-1.22146 -0.0709,-0.36436 -0.14894,-0.72799 -0.26289,-1.08176 -0.10095,-0.30338 -0.21768,-0.60078 -0.36566,-0.88477 -0.0969,-0.20863 -0.19911,-0.41463 -0.30049,-0.62095 -1.26777,-2.53554 -0.0725,-3.13317 1.19527,-0.59763 z"
       inkscape:connector-curvature="0" />
    <path
       style="opacity:1;fill:#000000;fill-opacity:1;fill-rule:nonzero;stroke:#000000;stroke-width:0.1;stroke-linecap:round;stroke-linejoin:round;stroke-miterlimit:4;stroke-dasharray:none;stroke-dashoffset:0;stroke-opacity:1;paint-order:markers fill stroke"
       id="path6111"
       d="m 214.21652,181.32765 c 0,0.25796 0,0.51591 0,0.77387 0.01,0.37659 -0.0217,0.75203 -0.0478,1.12732 -0.0241,0.34015 -0.0426,0.68063 -0.0598,1.02118 -0.14278,2.83123 -1.47743,2.76392 -1.33465,-0.0673 v 0 c 0.0176,-0.34908 0.0367,-0.69809 0.0613,-1.04676 0.024,-0.3444 0.0547,-0.68882 0.0446,-1.03444 0,-0.25796 0,-0.51591 0,-0.77387 0,-2.83482 1.33634,-2.83482 1.33634,0 z"
       inkscape:connector-curvature="0" />
    <path
       style="opacity:1;fill:#000000;fill-opacity:1;fill-rule:nonzero;stroke:#000000;stroke-width:0.1;stroke-linecap:round;stroke-linejoin:round;stroke-miterlimit:4;stroke-dasharray:none;stroke-dashoffset:0;stroke-opacity:1;paint-order:markers fill stroke"
       id="path6113"
       d="m 227.58119,182.03496 c 0.0374,0.27118 0.0602,0.54406 0.0813,0.81689 0.0273,0.36743 0.0448,0.73549 0.0607,1.10356 0.005,0.0548 0.009,0.10968 0.0141,0.16452 0.23327,2.8252 -1.09854,2.93517 -1.33182,0.10996 v 0 c -0.006,-0.0723 -0.0116,-0.14459 -0.0174,-0.21688 -0.0152,-0.35294 -0.0319,-0.70587 -0.0579,-1.0582 -0.0188,-0.24407 -0.0388,-0.48821 -0.0718,-0.73086 -0.4009,-2.80633 0.92202,-2.99532 1.32292,-0.18899 z"
       inkscape:connector-curvature="0" />
    <path
       style="opacity:1;fill:#000000;fill-opacity:1;fill-rule:nonzero;stroke:#000000;stroke-width:0.1;stroke-linecap:round;stroke-linejoin:round;stroke-miterlimit:4;stroke-dasharray:none;stroke-dashoffset:0;stroke-opacity:1;paint-order:markers fill stroke"
       id="path6115"
       d="m 120.67219,182.12946 c 0,0.28205 0,0.5641 0,0.84615 0,0.38132 0,0.76265 0,1.14397 0,2.83482 -1.33635,2.83482 -1.33635,0 v 0 c 0,-0.38132 0,-0.76265 0,-1.14397 0,-0.28205 0,-0.5641 0,-0.84615 0,-2.83482 1.33635,-2.83482 1.33635,0 z"
       inkscape:connector-curvature="0" />
    <path
       style="opacity:1;fill:#000000;fill-opacity:1;fill-rule:nonzero;stroke:#000000;stroke-width:0.1;stroke-linecap:round;stroke-linejoin:round;stroke-miterlimit:4;stroke-dasharray:none;stroke-dashoffset:0;stroke-opacity:1;paint-order:markers fill stroke"
       id="path6117"
       d="m 71.185804,183.11483 c -0.06141,0.22731 -0.09944,0.45993 -0.135213,0.69236 -0.04377,0.31546 -0.0527,0.6367 -0.04353,0.95487 0.01114,0.23307 0.005,0.11457 0.01852,0.35551 0.15843,2.83039 -1.175829,2.90508 -1.334259,0.0747 v 0 c -0.01471,-0.2633 -0.0079,-0.1306 -0.02021,-0.3981 -0.0082,-0.39731 7.93e-4,-0.79741 0.05883,-1.19108 0.04458,-0.28738 0.09317,-0.57476 0.170953,-0.85537 0.778788,-2.72575 2.063715,-2.35863 1.28493,0.36712 z"
       inkscape:connector-curvature="0" />
    <path
       style="opacity:1;fill:#000000;fill-opacity:1;fill-rule:nonzero;stroke:#000000;stroke-width:0.1;stroke-linecap:round;stroke-linejoin:round;stroke-miterlimit:4;stroke-dasharray:none;stroke-dashoffset:0;stroke-opacity:1;paint-order:markers fill stroke"
       id="path6119"
       d="m 149.80457,183.19854 c 0,0.25795 0,0.51591 0,0.77387 0,0.36029 0,0.72058 0,1.08088 0,0.25466 -0.003,0.13246 0.007,0.3666 0.11482,2.8325 -1.22043,2.88662 -1.33525,0.0541 v 0 c -0.011,-0.28828 -0.008,-0.14803 -0.008,-0.42073 0,-0.3603 0,-0.72059 0,-1.08088 0,-0.25796 0,-0.51592 0,-0.77387 0,-2.83482 1.33634,-2.83482 1.33634,0 z"
       inkscape:connector-curvature="0" />
    <path
       style="opacity:1;fill:#000000;fill-opacity:1;fill-rule:nonzero;stroke:#000000;stroke-width:0.1;stroke-linecap:round;stroke-linejoin:round;stroke-miterlimit:4;stroke-dasharray:none;stroke-dashoffset:0;stroke-opacity:1;paint-order:markers fill stroke"
       id="path6121"
       d="m 147.65179,182.22395 c -0.0351,0.25649 -0.0532,0.5149 -0.0715,0.773 -0.0257,0.37683 -0.0427,0.75418 -0.0582,1.13154 -0.003,0.0686 -0.005,0.13728 -0.008,0.20591 -0.10668,2.83281 -1.44208,2.78252 -1.3354,-0.0503 v 0 c 0.003,-0.0701 0.005,-0.14024 0.008,-0.21036 0.016,-0.39075 0.0336,-0.78148 0.0604,-1.17166 0.0206,-0.28958 0.0416,-0.57944 0.0816,-0.86713 0.4009,-2.80633 1.72382,-2.61734 1.32292,0.18899 z"
       inkscape:connector-curvature="0" />
    <path
       style="opacity:1;fill:#000000;fill-opacity:1;fill-rule:nonzero;stroke:#000000;stroke-width:0.1;stroke-linecap:round;stroke-linejoin:round;stroke-miterlimit:4;stroke-dasharray:none;stroke-dashoffset:0;stroke-opacity:1;paint-order:markers fill stroke"
       id="path6123"
       d="m 136.69847,182.21317 c 0.0843,0.27955 0.15943,0.56095 0.22259,0.84618 0.0858,0.40109 0.14356,0.8073 0.19578,1.21388 0.0243,0.21084 0.0475,0.42158 0.0764,0.63183 0.38362,2.80874 -0.94044,2.98959 -1.32406,0.18084 v 0 c -0.029,-0.21393 -0.054,-0.4281 -0.0779,-0.64266 -0.047,-0.36704 -0.0985,-0.73383 -0.17527,-1.09604 -0.0568,-0.25872 -0.12532,-0.5136 -0.20255,-0.76691 -0.77879,-2.72575 0.50614,-3.09287 1.28493,-0.36712 z"
       inkscape:connector-curvature="0" />
    <path
       style="opacity:1;fill:#000000;fill-opacity:1;fill-rule:nonzero;stroke:#000000;stroke-width:0.1;stroke-linecap:round;stroke-linejoin:round;stroke-miterlimit:4;stroke-dasharray:none;stroke-dashoffset:0;stroke-opacity:1;paint-order:markers fill stroke"
       id="path6125"
       d="m 79.779952,182.39673 c 0,0.25795 0,0.51591 0,0.77387 0.01976,0.34587 0.04801,0.6912 0.07083,1.03689 0.186632,2.82867 -1.146818,2.91665 -1.33345,0.088 v 0 c -0.02474,-0.37495 -0.05748,-0.74944 -0.07373,-1.12487 0,-0.25796 0,-0.51592 0,-0.77387 0,-2.83482 1.336347,-2.83482 1.336347,0 z"
       inkscape:connector-curvature="0" />
    <path
       style="opacity:1;fill:#000000;fill-opacity:1;fill-rule:nonzero;stroke:#000000;stroke-width:0.1;stroke-linecap:round;stroke-linejoin:round;stroke-miterlimit:4;stroke-dasharray:none;stroke-dashoffset:0;stroke-opacity:1;paint-order:markers fill stroke"
       id="path6127"
       d="m 180.00602,181.32765 c 0,0.25796 0,0.51591 0,0.77387 0.0157,0.26746 0.0306,0.53527 0.0629,0.80131 0.32977,2.81557 -0.9975,2.97103 -1.32727,0.15545 v 0 c -0.0363,-0.3178 -0.0588,-0.63715 -0.0719,-0.95676 0,-0.25796 0,-0.51591 0,-0.77387 0,-2.83482 1.33634,-2.83482 1.33634,0 z"
       inkscape:connector-curvature="0" />
    <path
       style="opacity:1;fill:#000000;fill-opacity:1;fill-rule:nonzero;stroke:#000000;stroke-width:0.1;stroke-linecap:round;stroke-linejoin:round;stroke-miterlimit:4;stroke-dasharray:none;stroke-dashoffset:0;stroke-opacity:1;paint-order:markers fill stroke"
       id="path6129"
       d="m 192.83496,180.79311 c 0.007,0.27791 -0.0249,0.55456 -0.0486,0.831 -0.0248,0.28897 -0.0427,0.57846 -0.0592,0.86799 -0.16199,2.83019 -1.49615,2.75383 -1.33416,-0.0764 v 0 c 0.0173,-0.30218 0.036,-0.6043 0.0619,-0.90589 0.0205,-0.23849 0.0505,-0.477 0.0437,-0.71674 0,-2.83482 1.33635,-2.83482 1.33635,0 z"
       inkscape:connector-curvature="0" />
    <path
       style="opacity:1;fill:#000000;fill-opacity:1;fill-rule:nonzero;stroke:#000000;stroke-width:0.1;stroke-linecap:round;stroke-linejoin:round;stroke-miterlimit:4;stroke-dasharray:none;stroke-dashoffset:0;stroke-opacity:1;paint-order:markers fill stroke"
       id="path6131"
       d="m 165.3062,181.32765 c 0,0.25796 0,0.51591 0,0.77387 0.0198,0.34587 0.048,0.6912 0.0708,1.03689 0.0161,0.262 0.006,0.13469 0.03,0.38199 0.26972,2.82196 -1.06057,2.94911 -1.33029,0.12715 v 0 c -0.0273,-0.29068 -0.0166,-0.15027 -0.0331,-0.42116 -0.0247,-0.37495 -0.0575,-0.74944 -0.0737,-1.12487 0,-0.25796 0,-0.51591 0,-0.77387 0,-2.83482 1.33635,-2.83482 1.33635,0 z"
       inkscape:connector-curvature="0" />
    <path
       style="opacity:1;fill:#000000;fill-opacity:1;fill-rule:nonzero;stroke:#000000;stroke-width:0.1;stroke-linecap:round;stroke-linejoin:round;stroke-miterlimit:4;stroke-dasharray:none;stroke-dashoffset:0;stroke-opacity:1;paint-order:markers fill stroke"
       id="path6133"
       d="m 42.347596,182.49122 c -0.03297,0.24265 -0.05299,0.48679 -0.07181,0.73086 -0.02606,0.35233 -0.0427,0.70526 -0.05792,1.0582 0.0013,0.40052 0.01924,0.8008 0.03237,1.20107 0.0024,0.074 0.0046,0.14805 0.0069,0.22208 0.08818,2.83344 -1.247521,2.87501 -1.335702,0.0416 v 0 c -0.0024,-0.0733 -0.0046,-0.14655 -0.0069,-0.21982 -0.01424,-0.43403 -0.03474,-0.86815 -0.03184,-1.30249 0.0159,-0.36807 0.03335,-0.73613 0.06065,-1.10356 0.02111,-0.27283 0.04391,-0.54571 0.08127,-0.81689 0.400905,-2.80633 1.723822,-2.61734 1.322917,0.18899 z"
       inkscape:connector-curvature="0" />
    <path
       style="opacity:1;fill:#000000;fill-opacity:1;fill-rule:nonzero;stroke:#000000;stroke-width:0.1;stroke-linecap:round;stroke-linejoin:round;stroke-miterlimit:4;stroke-dasharray:none;stroke-dashoffset:0;stroke-opacity:1;paint-order:markers fill stroke"
       id="path6135"
       d="m 74.954478,182.75849 c -0.0365,0.22262 -0.02561,0.449 -0.02365,0.67367 0.0039,0.34571 0.04213,0.69023 0.06893,1.03477 0.02715,0.22516 0.01257,0.10982 0.04398,0.346 0.372775,2.8102 -0.95197,2.98593 -1.324744,0.17572 v 0 c -0.03616,-0.2734 -0.01889,-0.13405 -0.05156,-0.41808 -0.02918,-0.37522 -0.07014,-0.75039 -0.07291,-1.12699 -0.0024,-0.29167 -0.01037,-0.58512 0.03704,-0.87408 0.400904,-2.80633 1.723821,-2.61734 1.322916,0.18899 z"
       inkscape:connector-curvature="0" />
    <path
       style="opacity:1;fill:#000000;fill-opacity:1;fill-rule:nonzero;stroke:#000000;stroke-width:0.1;stroke-linecap:round;stroke-linejoin:round;stroke-miterlimit:4;stroke-dasharray:none;stroke-dashoffset:0;stroke-opacity:1;paint-order:markers fill stroke"
       id="path6137"
       d="m 97.954281,183.19854 c 0,0.25795 0,0.51591 0,0.77387 0,0.17146 0,0.34293 0,0.51439 0,2.83482 -1.336347,2.83482 -1.336347,0 v 0 c 0,-0.17146 0,-0.34293 0,-0.51439 0,-0.25796 0,-0.51592 0,-0.77387 0,-2.83482 1.336347,-2.83482 1.336347,0 z"
       inkscape:connector-curvature="0" />
    <path
       style="opacity:1;fill:#000000;fill-opacity:1;fill-rule:nonzero;stroke:#000000;stroke-width:0.1;stroke-linecap:round;stroke-linejoin:round;stroke-miterlimit:4;stroke-dasharray:none;stroke-dashoffset:0;stroke-opacity:1;paint-order:markers fill stroke"
       id="path6139"
       d="m 133.72687,183.3821 c -0.0614,0.2273 -0.0994,0.45993 -0.13521,0.69236 -0.0237,0.24684 -0.0283,0.49501 -0.0347,0.74275 -0.0736,2.83387 -1.40951,2.79917 -1.3359,-0.0347 v 0 c 0.008,-0.30437 0.0136,-0.60952 0.05,-0.91216 0.0446,-0.28739 0.0932,-0.57476 0.17095,-0.85537 0.77879,-2.72575 2.06372,-2.35863 1.28493,0.36712 z"
       inkscape:connector-curvature="0" />
    <path
       style="opacity:1;fill:#000000;fill-opacity:1;fill-rule:nonzero;stroke:#000000;stroke-width:0.1;stroke-linecap:round;stroke-linejoin:round;stroke-miterlimit:4;stroke-dasharray:none;stroke-dashoffset:0;stroke-opacity:1;paint-order:markers fill stroke"
       id="path6141"
       d="m 127.87385,153.09157 c -0.033,0.24265 -0.053,0.48679 -0.0718,0.73086 -0.21841,2.8264 -1.55078,2.72344 -1.33237,-0.10296 v 0 c 0.0211,-0.27283 0.0439,-0.5457 0.0813,-0.81688 0.4009,-2.80633 1.72382,-2.61735 1.32292,0.18898 z"
       inkscape:connector-curvature="0" />
    <path
       style="opacity:1;fill:#000000;fill-opacity:1;fill-rule:nonzero;stroke:#000000;stroke-width:0.1;stroke-linecap:round;stroke-linejoin:round;stroke-miterlimit:4;stroke-dasharray:none;stroke-dashoffset:0;stroke-opacity:1;paint-order:markers fill stroke"
       id="path6143"
       d="m 128.15693,161.45521 c 0.018,0.13733 0.009,0.065 0.0269,0.21713 0.33175,2.81535 -0.99541,2.97173 -1.32716,0.15639 v 0 c -0.0153,-0.13052 -0.008,-0.069 -0.0226,-0.18453 -0.40091,-2.80633 0.92201,-2.99532 1.32292,-0.18899 z"
       inkscape:connector-curvature="0" />
    <path
       style="opacity:1;fill:#000000;fill-opacity:1;fill-rule:nonzero;stroke:#000000;stroke-width:0.1;stroke-linecap:round;stroke-linejoin:round;stroke-miterlimit:4;stroke-dasharray:none;stroke-dashoffset:0;stroke-opacity:1;paint-order:markers fill stroke"
       id="path6145"
       d="m 129.21019,168.05867 c -0.033,0.24265 -0.053,0.48678 -0.0718,0.73085 -0.21841,2.8264 -1.55078,2.72344 -1.33238,-0.10295 v 0 c 0.0211,-0.27284 0.0439,-0.54571 0.0813,-0.81689 0.4009,-2.80633 1.72382,-2.61734 1.32291,0.18899 z"
       inkscape:connector-curvature="0" />
    <path
       style="opacity:1;fill:#000000;fill-opacity:1;fill-rule:nonzero;stroke:#000000;stroke-width:0.1;stroke-linecap:round;stroke-linejoin:round;stroke-miterlimit:4;stroke-dasharray:none;stroke-dashoffset:0;stroke-opacity:1;paint-order:markers fill stroke"
       id="path6147"
       d="m 129.45056,173.7604 c -0.0614,0.2273 -0.0994,0.45992 -0.13521,0.69236 -0.0242,0.15038 -0.0409,0.30119 -0.051,0.45307 -0.20638,2.8273 -1.53918,2.73001 -1.3328,-0.0973 v 0 c 0.0145,-0.18748 0.0323,-0.37424 0.0631,-0.5599 0.0446,-0.28739 0.0932,-0.57477 0.17095,-0.85538 0.77879,-2.72575 2.06372,-2.35862 1.28493,0.36713 z"
       inkscape:connector-curvature="0" />
    <path
       style="opacity:1;fill:#000000;fill-opacity:1;fill-rule:nonzero;stroke:#000000;stroke-width:0.1;stroke-linecap:round;stroke-linejoin:round;stroke-miterlimit:4;stroke-dasharray:none;stroke-dashoffset:0;stroke-opacity:1;paint-order:markers fill stroke"
       id="path6149"
       d="m 195.7603,146.94437 c -0.0209,0.21206 -0.0173,0.42841 -0.004,0.64109 0.004,0.0503 0.008,0.10063 0.012,0.15095 0.22162,2.82614 -1.11064,2.93062 -1.33226,0.10447 v 0 c -0.005,-0.0596 -0.009,-0.11923 -0.0139,-0.17884 -0.0159,-0.30149 -0.0226,-0.60652 0.0148,-0.90665 0.4009,-2.80633 1.72382,-2.61734 1.32291,0.18898 z"
       inkscape:connector-curvature="0" />
    <path
       style="opacity:1;fill:#000000;fill-opacity:1;fill-rule:nonzero;stroke:#000000;stroke-width:0.1;stroke-linecap:round;stroke-linejoin:round;stroke-miterlimit:4;stroke-dasharray:none;stroke-dashoffset:0;stroke-opacity:1;paint-order:markers fill stroke"
       id="path6151"
       d="m 196.0422,155.40251 c -0.003,0.12228 0.0164,0.24399 0.0291,0.36543 0.29381,2.81955 -1.03534,2.95806 -1.32915,0.1385 v 0 c -0.0174,-0.16739 -0.0396,-0.33529 -0.0363,-0.50393 0,-2.83483 1.33635,-2.83483 1.33635,0 z"
       inkscape:connector-curvature="0" />
    <path
       style="opacity:1;fill:#000000;fill-opacity:1;fill-rule:nonzero;stroke:#000000;stroke-width:0.1;stroke-linecap:round;stroke-linejoin:round;stroke-miterlimit:4;stroke-dasharray:none;stroke-dashoffset:0;stroke-opacity:1;paint-order:markers fill stroke"
       id="path6153"
       d="m 195.77612,163.05883 c 0.0301,0.2171 0.0499,0.43544 0.0686,0.65376 0.24246,2.82444 -1.08899,2.93873 -1.33145,0.1143 v 0 c -0.0166,-0.19336 -0.0337,-0.38675 -0.0601,-0.57907 -0.4009,-2.80634 0.92202,-2.99532 1.32292,-0.18899 z"
       inkscape:connector-curvature="0" />
    <path
       style="opacity:1;fill:#000000;fill-opacity:1;fill-rule:nonzero;stroke:#000000;stroke-width:0.1;stroke-linecap:round;stroke-linejoin:round;stroke-miterlimit:4;stroke-dasharray:none;stroke-dashoffset:0;stroke-opacity:1;paint-order:markers fill stroke"
       id="path6155"
       d="m 196.57793,169.4733 c 0.0165,0.11702 0.0288,0.23455 0.0413,0.35204 0.29931,2.81897 -1.02957,2.96007 -1.32888,0.14109 v 0 c -0.0107,-0.10149 -0.0212,-0.20304 -0.0353,-0.30414 -0.4009,-2.80633 0.92201,-2.99532 1.32292,-0.18899 z"
       inkscape:connector-curvature="0" />
    <path
       style="opacity:1;fill:#000000;fill-opacity:1;fill-rule:nonzero;stroke:#000000;stroke-width:0.1;stroke-linecap:round;stroke-linejoin:round;stroke-miterlimit:4;stroke-dasharray:none;stroke-dashoffset:0;stroke-opacity:1;paint-order:markers fill stroke"
       id="path6167"
       d="m 129.77995,149.18165 c 0.23492,-0.19695 0.48018,-0.38129 0.726,-0.56436 0.33623,-0.25961 0.68987,-0.49516 1.03781,-0.73848 0.41718,-0.28526 0.83316,-0.57151 1.2632,-0.83717 0.47313,-0.28989 0.94292,-0.58512 1.41468,-0.87719 0.49898,-0.32109 1.01636,-0.61132 1.5288,-0.90989 0.55788,-0.32588 1.1304,-0.62513 1.70485,-0.92037 0.61647,-0.31978 1.24986,-0.60411 1.8896,-0.8736 0.67602,-0.2906 1.36438,-0.55213 2.05869,-0.79544 0.74194,-0.26531 1.49698,-0.49098 2.25074,-0.71962 0.8301,-0.24003 1.66427,-0.46631 2.4986,-0.69128 0.88404,-0.22595 1.77167,-0.43822 2.66379,-0.62988 0.91464,-0.20601 1.83616,-0.37894 2.75616,-0.55882 0.92772,-0.17945 1.86189,-0.32228 2.7939,-0.47712 0.92168,-0.15479 1.848,-0.2787 2.77563,-0.39147 0.90184,-0.0969 1.80179,-0.20986 2.703,-0.31231 0.87797,-0.10013 1.75814,-0.17877 2.6387,-0.25194 0.82802,-0.0671 1.65696,-0.12157 2.4862,-0.17093 0.79324,-0.0581 1.58849,-0.0642 2.3834,-0.0696 0.76518,-0.004 1.53037,-0.005 2.29556,-0.007 0.73295,0.0156 1.46614,0.0363 2.1981,0.078 0.69995,0.0448 1.3995,0.093 2.0978,0.15883 0.67195,0.0552 1.34025,0.14393 2.00935,0.22522 0.6379,0.0825 1.27124,0.19341 1.90458,0.30465 0.60326,0.11906 1.20663,0.23722 1.80783,0.36628 0.58537,0.12271 1.16697,0.26272 1.74704,0.40817 0.5697,0.13996 1.13616,0.2929 1.70143,0.44969 0.55866,0.15183 1.11468,0.31328 1.6698,0.47757 0.5609,0.15881 1.11682,0.33467 1.6682,0.52377 0.55837,0.19924 1.10631,0.42578 1.64488,0.67325 0.53322,0.25818 1.05466,0.54035 1.56654,0.83842 0.48032,0.28134 0.92507,0.61068 1.3456,0.97406 0.0666,0.062 0.13312,0.12404 0.19968,0.18606 2.0705,1.93631 1.15772,2.91235 -0.91278,0.97604 v 0 c -0.0539,-0.0506 -0.10775,-0.10122 -0.16163,-0.15183 -0.35733,-0.31011 -0.73512,-0.59039 -1.14412,-0.82997 -0.47428,-0.2771 -0.95832,-0.53782 -1.45197,-0.77881 -0.4976,-0.22941 -1.00439,-0.43814 -1.52018,-0.6233 -0.53313,-0.18329 -1.07104,-0.35259 -1.61346,-0.50628 -0.54778,-0.16212 -1.09643,-0.32152 -1.64774,-0.47125 -0.5546,-0.15383 -1.11032,-0.30401 -1.66929,-0.4412 -0.56529,-0.14176 -1.13203,-0.27837 -1.7025,-0.39781 -0.58483,-0.12557 -1.17178,-0.24033 -1.7585,-0.35666 -0.61011,-0.10716 -1.22014,-0.21437 -1.8346,-0.29425 -0.65722,-0.0799 -1.31363,-0.16736 -1.97367,-0.22138 -0.68199,-0.0644 -1.36522,-0.11115 -2.04882,-0.15511 -0.70561,-0.0408 -1.41249,-0.0595 -2.11903,-0.0758 -0.76304,0.001 -1.52608,0.003 -2.28911,0.007 -0.77143,0.005 -1.54321,0.0105 -2.313,0.0673 -0.81881,0.0487 -1.63734,0.10247 -2.45495,0.1687 -0.86712,0.072 -1.73386,0.1494 -2.59843,0.24799 -0.89777,0.10201 -1.79428,0.21466 -2.69269,0.31109 -0.90831,0.11036 -1.81535,0.23158 -2.71783,0.38316 -0.91951,0.15277 -1.84116,0.29361 -2.7565,0.47036 -0.91195,0.1783 -1.82542,0.34961 -2.73204,0.55387 -0.86959,0.18661 -1.73468,0.39385 -2.59647,0.61359 -0.82094,0.2213 -1.64166,0.44408 -2.45856,0.67981 -0.73577,0.22318 -1.47292,0.44308 -2.19712,0.70212 -0.66857,0.23375 -1.33102,0.48618 -1.98182,0.76583 -0.60857,0.25588 -1.21084,0.52643 -1.79713,0.83046 -0.55356,0.2845 -1.10545,0.57248 -1.64304,0.88652 -0.5022,0.2925 -1.0093,0.57669 -1.49816,0.89149 -0.4724,0.29232 -0.94267,0.58805 -1.41639,0.87824 -0.40863,0.25165 -0.80254,0.5249 -1.19907,0.79501 -0.33706,0.23562 -0.67974,0.46357 -1.00537,0.71508 -0.22631,0.16852 -0.45257,0.33766 -0.66866,0.51917 -2.17777,1.81481 -3.03328,0.7882 -0.85551,-1.02661 z"
       inkscape:connector-curvature="0" />
    <path
       style="opacity:1;fill:#000000;fill-opacity:1;fill-rule:nonzero;stroke:#000000;stroke-width:0.1;stroke-linecap:round;stroke-linejoin:round;stroke-miterlimit:4;stroke-dasharray:none;stroke-dashoffset:0;stroke-opacity:1;paint-order:markers fill stroke"
       id="path6169"
       d="m 158.40401,127.00069 c -0.0499,-0.0752 -0.1199,-0.11797 -0.19839,-0.15659 -0.12327,-0.0454 -0.23827,-0.0483 -0.36491,-0.0215 -0.17052,0.0382 -0.30764,0.13712 -0.43301,0.25392 -0.12726,0.12634 -0.20351,0.29049 -0.25178,0.46111 -0.0207,0.11472 0.009,0.22131 0.063,0.32181 0.17499,0.20744 0.29763,0.43846 0.38618,0.69423 0.10853,0.42013 -0.0198,0.79986 -0.23072,1.16058 -0.16285,0.26039 -0.34956,0.50536 -0.542,0.74443 -0.16886,0.20644 -0.3159,0.42778 -0.43583,0.66578 -0.1077,0.21025 -0.15602,0.43805 -0.17217,0.6719 -0.003,0.22739 0.0748,0.44165 0.16017,0.64894 0.0891,0.20292 0.24018,0.35839 0.40735,0.49856 0.18822,0.13345 0.40246,0.209 0.62578,0.25812 0.25621,0.067 0.50837,0.0204 0.76194,-0.0295 0.1884,-0.0441 0.37125,-0.1021 0.54869,-0.17877 2.61636,-1.09127 3.13079,0.1421 0.51442,1.23336 v 0 c -0.26277,0.10735 -0.53025,0.19855 -0.80867,0.25731 -0.44019,0.0844 -0.88407,0.12972 -1.32526,0.0178 -0.43034,-0.1063 -0.84187,-0.26564 -1.19074,-0.54723 -0.32497,-0.28555 -0.60805,-0.60876 -0.77462,-1.01416 -0.15811,-0.40358 -0.28083,-0.82063 -0.25042,-1.25977 0.0388,-0.40515 0.12442,-0.80168 0.31414,-1.16576 0.16492,-0.31855 0.35809,-0.61994 0.58648,-0.89729 0.15661,-0.19202 0.30661,-0.39064 0.43988,-0.59957 0.0258,-0.0366 0.0561,-0.13758 0.0953,-0.0686 -0.0416,-0.20999 -0.28248,-0.34616 -0.33621,-0.55935 -0.16614,-0.40796 -0.23378,-0.82785 -0.1094,-1.26007 0.13352,-0.39854 0.32554,-0.77065 0.64177,-1.05708 0.32731,-0.28086 0.69048,-0.50065 1.12299,-0.57303 0.42215,-0.0532 0.83011,-0.0185 1.21436,0.17997 0.30503,0.17911 0.5714,0.40347 0.73701,0.72284 1.26777,2.53554 0.0725,3.13318 -1.19527,0.59763 z"
       inkscape:connector-curvature="0" />
    <path
       style="opacity:1;fill:#000000;fill-opacity:1;fill-rule:nonzero;stroke:#000000;stroke-width:0.1;stroke-linecap:round;stroke-linejoin:round;stroke-miterlimit:4;stroke-dasharray:none;stroke-dashoffset:0;stroke-opacity:1;paint-order:markers fill stroke"
       id="path6191"
       d="m 33.426995,197.19543 c 0.208515,0.2678 0.444344,0.51337 0.675478,0.76153 0.36266,0.3876 0.730105,0.77068 1.098154,1.15315 0.41711,0.42913 0.831683,0.86065 1.239692,1.29845 0.386434,0.41282 0.754702,0.84145 1.115898,1.27629 1.811327,2.18067 0.783349,3.03453 -1.027975,0.85387 v 0 c -0.345001,-0.41536 -0.696444,-0.82504 -1.065707,-1.21925 -0.402929,-0.43269 -0.812877,-0.85866 -1.224836,-1.28275 -0.373099,-0.38773 -0.745574,-0.77608 -1.113181,-1.16903 -0.247833,-0.26615 -0.499729,-0.53024 -0.724136,-0.81675 -1.814808,-2.17777 -0.788196,-3.03328 1.026613,-0.85551 z"
       inkscape:connector-curvature="0" />
    <path
       style="opacity:1;fill:#000000;fill-opacity:1;fill-rule:nonzero;stroke:#000000;stroke-width:0.1;stroke-linecap:round;stroke-linejoin:round;stroke-miterlimit:4;stroke-dasharray:none;stroke-dashoffset:0;stroke-opacity:1;paint-order:markers fill stroke"
       id="path6193"
       d="m 37.206351,196.82522 c -0.130636,0.28373 -0.265248,0.56556 -0.397844,0.84839 -0.219916,0.44799 -0.449302,0.89139 -0.680765,1.33352 -0.289565,0.53261 -0.580739,1.06418 -0.880514,1.59112 -0.310013,0.56189 -0.623978,1.12151 -0.938131,1.68108 -0.14551,0.27326 -0.298654,0.54232 -0.448574,0.81317 -1.372942,2.48017 -2.542104,1.83296 -1.169162,-0.64721 v 0 c 0.151235,-0.27319 0.30567,-0.5446 0.452498,-0.82021 0.315426,-0.56174 0.630476,-1.12362 0.941837,-1.68764 0.292119,-0.51345 0.575789,-1.03144 0.858213,-1.55028 0.222494,-0.42469 0.442566,-0.85082 0.654624,-1.28082 0.126265,-0.26931 0.254336,-0.53775 0.379521,-0.80753 1.11669,-2.60562 2.344989,-2.0792 1.228297,0.52641 z"
       inkscape:connector-curvature="0" />
    <path
       style="opacity:1;fill:#000000;fill-opacity:1;fill-rule:nonzero;stroke:#000000;stroke-width:0.1;stroke-linecap:round;stroke-linejoin:round;stroke-miterlimit:4;stroke-dasharray:none;stroke-dashoffset:0;stroke-opacity:1;paint-order:markers fill stroke"
       id="path6195"
       d="m 42.094951,204.04556 c -0.0208,0.25388 -0.05249,0.50666 -0.07488,0.76046 -0.04516,0.3236 -0.0972,0.64605 -0.138025,0.97027 -0.03894,0.34195 -0.107143,0.67905 -0.144725,1.02119 -0.03572,0.0109 0.0061,0.37283 -0.01593,0.22192 -1.546357,-0.0267 -1.302181,0.21061 -1.193787,-0.50365 0.04237,-0.23369 0.04078,-0.46927 0.0373,-0.70558 -0.04223,-0.34864 -0.04438,-0.69663 -0.0011,-1.04484 0.05885,-0.37024 0.228198,-0.67825 0.493614,-0.93765 0.277162,-0.2353 0.608738,-0.29418 0.960438,-0.27585 0.33148,0.026 0.62126,0.18184 0.899504,0.35111 0.273859,0.17144 0.545716,0.34602 0.819795,0.51723 0.19081,0.10928 0.38703,0.23745 0.612336,0.25155 0.0613,-0.003 0.06086,-0.0151 0.04459,-0.0478 0.01307,-0.0694 0.05915,-0.21828 0.07671,-0.31537 0.05313,-0.27984 0.04592,-0.56536 0.0466,-0.84883 0.01061,-0.36176 -0.02199,-0.72209 -0.0486,-1.08241 -0.03783,-0.41378 -0.04513,-0.82946 -0.02127,-1.24413 0.175458,-2.82939 1.509244,-2.74668 1.333786,0.0827 v 0 c -0.02437,0.3541 -0.0098,0.70963 0.02021,1.06299 0.02911,0.39418 0.06281,0.7885 0.05222,1.18421 -0.0011,0.36816 7.94e-4,0.73838 -0.0713,1.10121 -0.07662,0.37823 -0.199678,0.7404 -0.468172,1.02868 -0.327758,0.29223 -0.701286,0.45168 -1.148773,0.40232 -0.40984,-0.0657 -0.788033,-0.21447 -1.136738,-0.44203 -0.27101,-0.16954 -0.539935,-0.34225 -0.810892,-0.51171 -0.0983,-0.0613 -0.200319,-0.13918 -0.316526,-0.15851 0.01294,-0.0242 0.03218,-0.0448 0.0519,-0.0638 -0.04016,0.0251 -0.04863,0.0819 -0.0653,0.12626 -0.04623,0.2814 -0.0047,0.56341 0.01323,0.8456 0.0043,0.31069 2.65e-4,0.62112 -0.05279,0.92833 -0.127535,0.81708 -0.0886,0.60825 -1.429142,0.60006 -0.04086,-0.22093 -0.04038,-0.44612 -0.01013,-0.66888 0.03878,-0.34898 0.105233,-0.6932 0.147148,-1.04165 0.03889,-0.30772 0.08499,-0.6143 0.132713,-0.92076 0.01902,-0.21449 0.03757,-0.43001 0.06968,-0.64271 0,-2.83482 1.33635,-2.83482 1.33635,0 z"
       inkscape:connector-curvature="0" />
    <path
       style="opacity:1;fill:#000000;fill-opacity:1;fill-rule:nonzero;stroke:#000000;stroke-width:0.1;stroke-linecap:round;stroke-linejoin:round;stroke-miterlimit:4;stroke-dasharray:none;stroke-dashoffset:0;stroke-opacity:1;paint-order:markers fill stroke"
       id="path6197"
       d="m 48.782112,202.79739 c 0.280612,-0.0778 0.567992,-0.12638 0.85538,-0.17095 0.255714,-0.026 0.129907,-0.0156 0.377372,-0.0316 2.829301,-0.17686 2.912674,1.15688 0.08337,1.33374 v 0 c -0.177509,0.0106 -0.09197,0.004 -0.256638,0.0186 -0.232436,0.0358 -0.465055,0.0738 -0.692364,0.13522 -2.725748,0.77878 -3.092871,-0.50615 -0.367123,-1.28494 z"
       inkscape:connector-curvature="0" />
    <path
       style="opacity:1;fill:#000000;fill-opacity:1;fill-rule:nonzero;stroke:#000000;stroke-width:0.1;stroke-linecap:round;stroke-linejoin:round;stroke-miterlimit:4;stroke-dasharray:none;stroke-dashoffset:0;stroke-opacity:1;paint-order:markers fill stroke"
       id="path6199"
       d="m 55.98307,200.38749 c 0.08418,0.29344 0.160605,0.58844 0.223933,0.88711 0.07273,0.4147 0.158557,0.82687 0.234982,1.2409 0.08476,0.46357 0.147058,0.93074 0.203205,1.3985 0.0089,0.0802 0.01786,0.1603 0.02679,0.24046 0.313632,2.81741 -1.014511,2.96526 -1.328142,0.14784 v 0 c -0.0085,-0.0764 -0.01699,-0.15279 -0.02548,-0.22919 -0.0527,-0.43989 -0.111003,-0.87925 -0.190545,-1.31521 -0.07428,-0.40301 -0.158292,-0.80411 -0.228454,-1.20786 -0.05599,-0.26803 -0.125939,-0.53222 -0.20121,-0.79542 -0.778786,-2.72575 0.506145,-3.09288 1.28493,-0.36713 z"
       inkscape:connector-curvature="0" />
    <path
       style="opacity:1;fill:#000000;fill-opacity:1;fill-rule:nonzero;stroke:#000000;stroke-width:0.1;stroke-linecap:round;stroke-linejoin:round;stroke-miterlimit:4;stroke-dasharray:none;stroke-dashoffset:0;stroke-opacity:1;paint-order:markers fill stroke"
       id="path6201"
       d="m 226.19683,196.78983 c 0.10408,0.20529 0.23126,0.39727 0.35476,0.59121 0.20694,0.30349 0.41576,0.60648 0.63749,0.89942 0.26011,0.33421 0.52221,0.66667 0.79765,0.98842 0.27298,0.33138 0.55961,0.65108 0.83182,0.98309 1.79643,2.19295 0.76267,3.0398 -1.03377,0.84685 v 0 c -0.26591,-0.32492 -0.54705,-0.63689 -0.81358,-0.96131 -0.29299,-0.34279 -0.57263,-0.6963 -0.84913,-1.05248 -0.24199,-0.32192 -0.47291,-0.65252 -0.69789,-0.98651 -0.14805,-0.23275 -0.29827,-0.46446 -0.42261,-0.71106 -1.26777,-2.53554 -0.0725,-3.13317 1.19526,-0.59763 z"
       inkscape:connector-curvature="0" />
    <path
       style="opacity:1;fill:#000000;fill-opacity:1;fill-rule:nonzero;stroke:#000000;stroke-width:0.1;stroke-linecap:round;stroke-linejoin:round;stroke-miterlimit:4;stroke-dasharray:none;stroke-dashoffset:0;stroke-opacity:1;paint-order:markers fill stroke"
       id="path6203"
       d="m 229.21565,197.55321 c -0.15592,0.1723 -0.29877,0.35367 -0.42936,0.54576 -0.23078,0.34128 -0.46098,0.683 -0.68697,1.02748 -0.27082,0.41001 -0.54609,0.81708 -0.81608,1.22763 -0.18936,0.28224 -0.38545,0.55971 -0.57994,0.8384 -1.62256,2.32454 -2.71836,1.55966 -1.0958,-0.76488 v 0 c 0.18753,-0.26864 0.3766,-0.53608 0.55935,-0.80803 0.26991,-0.41006 0.54462,-0.81695 0.81534,-1.22648 0.23114,-0.35188 0.46604,-0.70131 0.70203,-1.04995 0.17845,-0.25854 0.37132,-0.50558 0.58648,-0.73487 2.00453,-2.00452 2.94947,-1.05959 0.94495,0.94494 z"
       inkscape:connector-curvature="0" />
    <path
       style="opacity:1;fill:#000000;fill-opacity:1;fill-rule:nonzero;stroke:#000000;stroke-width:0.1;stroke-linecap:round;stroke-linejoin:round;stroke-miterlimit:4;stroke-dasharray:none;stroke-dashoffset:0;stroke-opacity:1;paint-order:markers fill stroke"
       id="path6205"
       d="m 233.99447,201.1056 c 0.007,0.3005 -0.0246,0.59986 -0.0483,0.89901 -0.0298,0.37441 -0.0507,0.74942 -0.0695,1.12451 -0.005,0.21568 -0.0277,0.4303 -0.0488,0.64481 -0.27818,2.82114 -1.60808,2.69 -1.3299,-0.13114 v 0 c 0.0191,-0.1931 0.0407,-0.38624 0.044,-0.58048 0.0195,-0.38808 0.0411,-0.77607 0.072,-1.16343 0.0209,-0.26401 0.051,-0.52808 0.0441,-0.79328 0,-2.83483 1.33635,-2.83483 1.33635,0 z"
       inkscape:connector-curvature="0" />
    <path
       style="opacity:1;fill:#000000;fill-opacity:1;fill-rule:nonzero;stroke:#000000;stroke-width:0.1;stroke-linecap:round;stroke-linejoin:round;stroke-miterlimit:4;stroke-dasharray:none;stroke-dashoffset:0;stroke-opacity:1;paint-order:markers fill stroke"
       id="path6207"
       d="m 208.60506,195.39844 c 0.0536,0.21339 0.13782,0.41632 0.21938,0.62004 0.1437,0.34772 0.33443,0.67328 0.51951,1.00004 0.22118,0.39783 0.46937,0.77825 0.73146,1.15002 0.18693,0.24584 0.0923,0.12022 0.28358,0.37697 1.69313,2.27366 0.62131,3.07181 -1.07181,0.79815 v 0 c -0.19385,-0.26037 -0.0925,-0.1251 -0.30435,-0.40565 -0.28699,-0.40787 -0.55892,-0.82525 -0.80183,-1.26116 -0.21439,-0.37894 -0.43323,-0.75741 -0.5972,-1.16172 -0.12089,-0.30201 -0.24292,-0.6062 -0.30166,-0.9277 -0.4009,-2.80633 0.92201,-2.99532 1.32292,-0.18899 z"
       inkscape:connector-curvature="0" />
    <path
       style="opacity:1;fill:#000000;fill-opacity:1;fill-rule:nonzero;stroke:#000000;stroke-width:0.1;stroke-linecap:round;stroke-linejoin:round;stroke-miterlimit:4;stroke-dasharray:none;stroke-dashoffset:0;stroke-opacity:1;paint-order:markers fill stroke"
       id="path6209"
       d="m 211.46612,196.55971 c -0.18154,0.16375 -0.34199,0.34871 -0.50004,0.53468 -0.28937,0.36713 -0.56768,0.74307 -0.84194,1.12159 -0.32496,0.44708 -0.64872,0.8951 -0.96594,1.34771 -0.27511,0.37356 -0.53793,0.75588 -0.80831,1.13279 -1.6531,2.30293 -2.73871,1.52365 -1.08561,-0.77928 v 0 c 0.26774,-0.37273 0.52724,-0.75136 0.79974,-1.12071 0.32145,-0.45825 0.64899,-0.91222 0.97821,-1.36491 0.29506,-0.40672 0.59351,-0.81145 0.90697,-1.20424 0.2381,-0.27851 0.48017,-0.55972 0.77564,-0.77954 2.35872,-1.57248 3.09999,-0.46057 0.74128,1.11191 z"
       inkscape:connector-curvature="0" />
    <path
       style="opacity:1;fill:#000000;fill-opacity:1;fill-rule:nonzero;stroke:#000000;stroke-width:0.1;stroke-linecap:round;stroke-linejoin:round;stroke-miterlimit:4;stroke-dasharray:none;stroke-dashoffset:0;stroke-opacity:1;paint-order:markers fill stroke"
       id="path6211"
       d="m 214.5,199.86215 c 0.36151,0.0564 0.65302,0.25439 0.91177,0.50162 0.2749,0.2835 0.42793,0.63079 0.51315,1.01077 0.0738,0.40948 0.0134,0.82126 -0.076,1.22244 -0.0954,0.39214 -0.22693,0.77462 -0.36267,1.15435 -0.0836,0.22977 -0.16559,0.46798 -0.13099,0.71494 0.0249,0.1195 0.10305,0.20603 0.18873,0.28753 0.13468,0.12095 0.30406,0.18719 0.47101,0.25021 0.24435,0.0815 0.49418,0.14403 0.7401,0.22067 2.70561,0.84609 2.30676,2.12153 -0.39885,1.27544 v 0 c -0.27327,-0.0858 -0.55242,-0.15152 -0.82192,-0.2492 -0.34941,-0.13649 -0.68688,-0.30148 -0.9545,-0.57181 -0.29219,-0.31434 -0.5094,-0.66911 -0.55659,-1.10532 -0.0271,-0.43865 0.0394,-0.8629 0.20466,-1.27232 0.11809,-0.33029 0.23389,-0.66248 0.31847,-1.00315 0.0519,-0.21653 0.0957,-0.44196 0.0675,-0.66506 -0.009,-0.12 -0.0693,-0.22745 -0.14302,-0.32056 -0.0459,-0.0521 -0.0927,-0.10394 -0.15982,-0.12763 -2.80633,-0.40091 -2.61734,-1.72382 0.18898,-1.32292 z"
       inkscape:connector-curvature="0" />
  </g>
</svg>
