<?xml version="1.0" encoding="UTF-8" standalone="no"?>
<!-- Created with Inkscape (http://www.inkscape.org/) -->

<svg
   xmlns:dc="http://purl.org/dc/elements/1.1/"
   xmlns:cc="http://creativecommons.org/ns#"
   xmlns:rdf="http://www.w3.org/1999/02/22-rdf-syntax-ns#"
   xmlns:svg="http://www.w3.org/2000/svg"
   xmlns="http://www.w3.org/2000/svg"
   xmlns:sodipodi="http://sodipodi.sourceforge.net/DTD/sodipodi-0.dtd"
   xmlns:inkscape="http://www.inkscape.org/namespaces/inkscape"
   width="297mm"
   height="210mm"
   viewBox="0 0 297 210"
   version="1.1"
   id="svg6225"
   inkscape:version="0.92.1 r15371"
   sodipodi:docname="an-less-than-bn.svg">
  <defs
     id="defs6219" />
  <sodipodi:namedview
     id="base"
     pagecolor="#ffffff"
     bordercolor="#666666"
     borderopacity="1.0"
     inkscape:pageopacity="0.0"
     inkscape:pageshadow="2"
     inkscape:zoom="0.98994949"
     inkscape:cx="598.46579"
     inkscape:cy="411.51093"
     inkscape:document-units="mm"
     inkscape:current-layer="layer1"
     showgrid="false"
     inkscape:window-width="1920"
     inkscape:window-height="1046"
     inkscape:window-x="-11"
     inkscape:window-y="-11"
     inkscape:window-maximized="1" />
  <metadata
     id="metadata6222">
    <rdf:RDF>
      <cc:Work
         rdf:about="">
        <dc:format>image/svg+xml</dc:format>
        <dc:type
           rdf:resource="http://purl.org/dc/dcmitype/StillImage" />
        <dc:title></dc:title>
      </cc:Work>
    </rdf:RDF>
  </metadata>
  <g
     inkscape:label="Layer 1"
     inkscape:groupmode="layer"
     id="layer1"
     transform="translate(0,-87)">
    <path
       style="opacity:1;fill:#000000;fill-opacity:1;fill-rule:nonzero;stroke:#000000;stroke-width:0.1;stroke-linecap:round;stroke-linejoin:round;stroke-miterlimit:4;stroke-dasharray:none;stroke-dashoffset:0;stroke-opacity:1;paint-order:markers fill stroke"
       id="path6774"
       d="m 38.102119,184.36052 c 0.232563,0.0367 0.466005,0.0499 0.701042,0.0503 0.415523,-0.004 0.831009,-0.0117 1.246521,-0.0171 0.564857,0.003 1.128631,-0.0329 1.692519,-0.0609 0.732059,-0.0266 1.4626,-0.081 2.193602,-0.12694 0.897943,-0.0541 1.794579,-0.12736 2.692246,-0.18608 1.018929,-0.0689 2.039631,-0.10489 3.05919,-0.16192 1.119219,-0.0693 2.238975,-0.12884 3.359107,-0.18116 1.203502,-0.0548 2.407619,-0.0943 3.611809,-0.13011 1.254183,-0.0367 2.508623,-0.0634 3.763094,-0.0879 1.292122,-0.0245 2.58435,-0.0428 3.876596,-0.0592 1.331756,-0.0276 2.66365,-0.01 3.995407,0.006 1.35509,0.0143 2.710031,0.0277 4.06474,0.0635 1.38143,0.0402 2.762981,0.0758 4.14464,0.10705 1.418431,0.0465 2.836553,0.10171 4.254971,0.14886 1.430007,0.062 2.859754,0.12943 4.289946,0.18718 1.431957,0.0543 2.862787,0.13429 4.29423,0.20048 1.439016,0.0547 2.87678,0.13558 4.314928,0.20864 1.435381,0.0631 2.870174,0.13591 4.304824,0.21366 1.43129,0.0787 2.863389,0.1407 4.295709,0.19682 1.43595,0.0439 2.87072,0.11617 4.30578,0.18169 1.40019,0.0644 2.80095,0.11513 4.20183,0.16175 1.36417,0.0446 2.72864,0.079 4.09317,0.11033 1.34805,0.0306 2.69625,0.0536 4.04448,0.0745 1.35377,0.0206 2.70761,0.0361 4.06145,0.0503 1.34857,0.0139 2.69718,0.0244 4.04579,0.0339 1.32761,0.0124 2.65521,-0.0165 3.98261,-0.0365 1.34135,-0.0207 2.68275,-0.0368 4.02417,-0.0515 1.34567,-0.0145 2.69137,-0.0254 4.03709,-0.0354 1.32748,-0.01 2.65498,-0.0171 3.98248,-0.0239 1.31765,-0.007 2.6353,-0.0116 3.95295,-0.0161 1.29218,-0.004 2.58436,-0.008 3.87654,-0.0109 1.25927,0.0116 2.5183,0.0411 3.77738,0.0651 1.22201,0.0233 2.44411,0.0414 3.66622,0.0581 1.18134,0.0159 2.36272,0.0282 3.54412,0.0395 1.12964,0.0105 2.2593,0.019 3.38896,0.0267 1.09141,0.0104 2.18274,-0.0198 3.27386,-0.0414 1.06887,-0.0213 2.1378,-0.0391 3.20677,-0.0549 1.06032,-0.0154 2.12069,-0.0271 3.18107,-0.0376 1.05783,-0.007 2.11503,-0.051 3.17226,-0.0846 1.04604,-0.0233 2.09116,-0.0658 3.13618,-0.11631 1.04137,-0.0552 2.08385,-0.0858 3.12526,-0.13924 1.05128,-0.061 2.10277,-0.11771 3.15463,-0.16754 1.04842,-0.0457 2.09545,-0.11844 3.14304,-0.17975 1.01855,-0.0565 2.03752,-0.10217 3.05554,-0.16782 0.99284,-0.068 1.98633,-0.12562 2.98012,-0.17772 0.96672,-0.0499 1.93395,-0.0887 2.90129,-0.12416 0.94242,-0.0339 1.88508,-0.06 2.82779,-0.0838 0.90857,-0.0197 1.81606,-0.0725 2.72375,-0.11533 0.88541,-0.0417 1.77119,-0.075 2.65705,-0.10534 0.84611,-0.0289 1.69242,-0.0514 2.53877,-0.0717 0.82777,-0.009 1.65432,-0.0536 2.48097,-0.0938 0.83504,-0.041 1.67044,-0.0738 2.50595,-0.10363 0.81689,-0.0284 1.63396,-0.0509 2.45109,-0.0711 0.79477,-0.0194 1.58963,-0.0344 2.38452,-0.0479 0.80544,-0.0134 1.61093,-0.0233 2.41643,-0.0323 0.81484,-0.0202 1.62954,0.004 2.44407,0.0246 0.80747,0.022 1.61503,0.0399 2.42264,0.0559 0.8104,0.027 1.62098,0.008 2.43137,-0.007 0.81881,-0.0168 1.63766,-0.0313 2.45654,-0.0444 0.79635,-0.0125 1.59274,-0.0222 2.38913,-0.0312 0.77002,-0.008 1.54005,-0.015 2.31008,-0.021 0.75127,-0.003 1.50183,-0.0428 2.25234,-0.0731 0.75266,-0.0304 1.50554,-0.0548 2.25849,-0.0768 0.72578,-0.018 1.4503,-0.0692 2.175,-0.11092 0.71334,-0.0402 1.42706,-0.0733 2.14092,-0.10276 0.67703,-0.0253 1.35398,-0.0445 2.03011,-0.0883 0.63783,-0.0448 1.27586,-0.0864 1.91418,-0.12364 0.60693,-0.0351 1.21425,-0.0627 1.82166,-0.0879 0.54864,-0.0403 1.09899,-0.0676 1.64306,-0.15172 0.31291,-0.0456 0.61633,-0.133 0.8957,-0.2814 0.0785,-0.11792 -0.0538,0.0853 -0.0676,0.14127 0.0102,0.14926 -0.0771,0.006 -0.12636,-0.041 -0.18293,-0.17694 -0.39627,-0.3192 -0.613,-0.45107 -0.26516,-0.17666 -0.54586,-0.32772 -0.81943,-0.49052 -0.74966,-0.191 -0.24861,-1.49888 0.49639,-1.33348 0.33016,0.092 0.64208,0.23462 0.9515,0.37963 0.36465,0.1707 0.72984,0.34069 1.08869,0.52335 0.41303,0.20636 0.7811,0.48021 1.10883,0.80326 0.38377,0.39969 0.48894,0.87321 0.41388,1.40775 -0.11698,0.52033 -0.45444,0.92519 -0.79939,1.31361 -0.37792,0.4025 -0.7871,0.77344 -1.18521,1.15546 -0.20154,0.18597 -0.39978,0.37533 -0.60108,0.56156 -2.08134,1.92464 -2.98863,0.94348 -0.90728,-0.98115 v 0 c 0.19535,-0.18056 0.38743,-0.36449 0.58314,-0.54466 0.37297,-0.35785 0.75581,-0.70568 1.11255,-1.08006 0.18241,-0.20405 0.38605,-0.40904 0.48358,-0.6698 0.0667,-0.0716 0.01,-0.15198 -0.0453,-0.21796 -0.22357,-0.22949 -0.48582,-0.41245 -0.77143,-0.55784 -0.34528,-0.17698 -0.69824,-0.33877 -1.04923,-0.50402 -0.22773,-0.10732 -0.45646,-0.21373 -0.69681,-0.2901 -0.3839,-0.12317 0.18437,-1.49692 0.50184,-1.11318 0.27807,0.16642 0.56453,0.3191 0.83416,0.49944 0.30619,0.18933 0.60603,0.39371 0.86225,0.64856 0.26913,0.27765 0.49129,0.58218 0.51407,0.98343 -0.0362,0.46369 -0.24089,0.81652 -0.65671,1.04546 -0.41149,0.20845 -0.84892,0.35038 -1.30702,0.41464 -0.59266,0.0888 -1.19079,0.12574 -1.78843,0.16575 -0.59994,0.0249 -1.1998,0.0522 -1.79927,0.0868 -0.63548,0.037 -1.27067,0.0785 -1.90566,0.12312 -0.68653,0.0444 -1.37385,0.0646 -2.06131,0.0899 -0.70664,0.0292 -1.41313,0.0619 -2.11926,0.10169 -0.73726,0.0424 -1.47433,0.0944 -2.2127,0.11256 -0.74798,0.0219 -1.4959,0.0461 -2.2436,0.0763 -0.76501,0.0309 -1.53006,0.0716 -2.29583,0.0742 -0.76851,0.006 -1.53702,0.0125 -2.3055,0.021 -0.79428,0.009 -1.58855,0.0186 -2.38278,0.0311 -0.81736,0.0131 -1.63471,0.0276 -2.45201,0.0444 -0.82787,0.0161 -1.65595,0.0345 -2.48384,0.007 -0.81027,-0.0161 -1.6205,-0.0341 -2.43063,-0.0561 -0.79804,-0.0206 -1.59622,-0.0443 -2.39456,-0.0242 -0.80289,0.009 -1.60578,0.0189 -2.40861,0.0322 -0.79151,0.0135 -1.58301,0.0283 -2.3744,0.0477 -0.81221,0.02 -1.62437,0.0423 -2.43633,0.0706 -0.82976,0.0296 -1.65941,0.0622 -2.48871,0.10291 -0.8376,0.0407 -1.67511,0.0861 -2.51385,0.095 -0.84176,0.0202 -1.68348,0.0425 -2.52501,0.0713 -0.88013,0.0302 -1.76017,0.0632 -2.63985,0.10464 -0.91745,0.0433 -1.83469,0.0965 -2.75302,0.11639 -0.93766,0.0237 -1.87526,0.0496 -2.81262,0.0833 -0.96032,0.0352 -1.92053,0.0737 -2.88023,0.12322 -0.98844,0.0518 -1.97659,0.10915 -2.96409,0.17679 -1.02067,0.0658 -2.04226,0.11185 -3.06346,0.16831 -1.05254,0.0616 -2.10451,0.1346 -3.15787,0.18053 -1.05016,0.0497 -2.09994,0.1064 -3.14951,0.16728 -1.04271,0.0533 -2.08646,0.0844 -3.12913,0.13944 -1.05238,0.0508 -2.10488,0.0936 -3.15829,0.11719 -1.06691,0.0339 -2.13379,0.0778 -3.20131,0.0852 -1.05824,0.0106 -2.11647,0.0222 -3.17465,0.0376 -1.06677,0.0158 -2.13351,0.0335 -3.20018,0.0547 -1.10292,0.0217 -2.20604,0.0522 -3.30925,0.0416 -1.1309,-0.008 -2.26179,-0.0161 -3.39266,-0.0267 -1.18321,-0.0113 -2.3664,-0.0237 -3.54955,-0.0396 -1.22454,-0.0167 -2.44905,-0.0348 -3.67347,-0.0582 -1.24953,-0.0238 -2.49901,-0.053 -3.74873,-0.0648 -1.29172,0.003 -2.58344,0.006 -3.87516,0.0109 -1.31691,0.005 -2.63382,0.01 -3.95072,0.0161 -1.32647,0.007 -2.65294,0.0141 -3.97939,0.0239 -1.34414,0.01 -2.68828,0.0209 -4.03238,0.0353 -1.33956,0.0147 -2.67911,0.0308 -4.0186,0.0515 -1.3373,0.0202 -2.67479,0.0492 -4.01229,0.0366 -1.35012,-0.01 -2.70023,-0.0201 -4.05031,-0.034 -1.35607,-0.0142 -2.71214,-0.0298 -4.06813,-0.0504 -1.35156,-0.0209 -2.70309,-0.044 -4.05446,-0.0747 -1.36912,-0.0314 -2.73819,-0.066 -4.10695,-0.11071 -1.40638,-0.0468 -2.81264,-0.0977 -4.21834,-0.1624 -1.43218,-0.0654 -2.86407,-0.13756 -4.29714,-0.18133 -1.43899,-0.0564 -2.877756,-0.11873 -4.315708,-0.19775 -1.433144,-0.0777 -2.866435,-0.15035 -4.300307,-0.21342 -1.436127,-0.073 -2.871864,-0.15379 -4.308856,-0.20835 -1.42884,-0.0661 -2.857069,-0.14587 -4.286422,-0.20015 -1.42702,-0.0576 -2.8536,-0.12478 -4.280426,-0.18682 -1.413703,-0.047 -2.827116,-0.10189 -4.240827,-0.14847 -1.38336,-0.0313 -2.766613,-0.0669 -4.149746,-0.10717 -1.3482,-0.0357 -2.696638,-0.0489 -4.045222,-0.0631 -1.320819,-0.0157 -2.641777,-0.0338 -3.962596,-0.006 -1.289222,0.0164 -2.578425,0.0346 -3.867523,0.0591 -1.2499,0.0244 -2.499773,0.051 -3.749387,0.0875 -1.196657,0.0356 -2.39324,0.0748 -3.589213,0.12924 -1.116073,0.0521 -2.231765,0.11146 -3.346929,0.18054 -1.015338,0.0566 -2.031785,0.0928 -3.046499,0.16116 -0.898795,0.0588 -1.796548,0.13224 -2.695623,0.18629 -0.736899,0.0463 -1.473348,0.10099 -2.211311,0.12793 -0.580106,0.0287 -1.160131,0.0652 -1.74123,0.0624 -0.422736,0.005 -0.845447,0.013 -1.268199,0.0172 -0.29677,-10e-4 -0.592137,-0.0182 -0.885766,-0.0637 -2.80633,-0.4009 -2.617341,-1.72382 0.188989,-1.32291 z"
       inkscape:connector-curvature="0" />
    <path
       style="opacity:1;fill:#000000;fill-opacity:1;fill-rule:nonzero;stroke:#000000;stroke-width:0.1;stroke-linecap:round;stroke-linejoin:round;stroke-miterlimit:4;stroke-dasharray:none;stroke-dashoffset:0;stroke-opacity:1;paint-order:markers fill stroke"
       id="path6776"
       d="m 142.49403,184.02399 c -0.0987,0.22049 -0.17117,0.45088 -0.24872,0.67924 -0.13184,0.38906 -0.22141,0.78987 -0.303,1.19185 -0.0991,0.45218 -0.14917,0.91082 -0.1846,1.37156 -0.0377,0.39786 -0.0372,0.79705 -0.0349,1.19617 0.0161,2.83478 -1.32018,2.84239 -1.33633,0.008 v 0 c -0.002,-0.43598 -0.002,-0.87208 0.0388,-1.3067 0.04,-0.51557 0.0976,-1.02889 0.20745,-1.535 0.0932,-0.45733 0.19681,-0.913 0.34726,-1.35551 0.0971,-0.28558 0.18946,-0.57362 0.31872,-0.84686 1.26777,-2.53554 2.46304,-1.93791 1.19527,0.59763 z"
       inkscape:connector-curvature="0" />
    <path
       style="opacity:1;fill:#000000;fill-opacity:1;fill-rule:nonzero;stroke:#000000;stroke-width:0.1;stroke-linecap:round;stroke-linejoin:round;stroke-miterlimit:4;stroke-dasharray:none;stroke-dashoffset:0;stroke-opacity:1;paint-order:markers fill stroke"
       id="path6792"
       d="m 135.85974,175.141 c 0.12199,0.24338 0.21987,0.49683 0.32037,0.7495 0.13306,0.34373 0.25429,0.69185 0.38161,1.0377 0.14652,0.41189 0.29566,0.82278 0.42858,1.23931 0.15256,0.4446 0.28573,0.89538 0.42476,1.3443 0.15262,0.48721 0.27205,0.98359 0.37941,1.48243 0.10697,0.50651 0.18658,1.01811 0.25872,1.53055 0.0855,0.50619 0.16842,1.01272 0.24107,1.52093 0.0704,0.51618 0.12408,1.03419 0.19683,1.55005 0.0882,0.5372 0.13738,1.07815 0.16898,1.62121 0.0282,0.53173 0.0463,1.06392 0.0632,1.5961 0.0202,0.54236 -0.004,1.0852 -0.0194,1.62739 -0.0129,0.54123 -0.0622,1.08082 -0.10091,1.62065 -0.0516,0.54885 -0.1138,1.09646 -0.19132,1.64222 -0.0758,0.54946 -0.17891,1.09474 -0.2898,1.63806 -0.10561,0.54141 -0.21812,1.08154 -0.34355,1.61873 -0.11898,0.52786 -0.24876,1.05287 -0.37954,1.57788 -0.1241,0.4944 -0.25057,0.98875 -0.38798,1.47967 -0.12592,0.46128 -0.26,0.92005 -0.3929,1.37935 -0.0709,0.25446 -0.1533,0.50518 -0.2452,0.75272 -0.9919,2.65563 -2.24377,2.18804 -1.25187,-0.46759 v 0 c 0.0812,-0.21556 0.15114,-0.4349 0.21341,-0.65669 0.13199,-0.45586 0.26514,-0.91118 0.38998,-1.36908 0.13473,-0.47797 0.25653,-0.95996 0.37785,-1.44144 0.12927,-0.51883 0.25764,-1.0376 0.37505,-1.55929 0.12306,-0.5247 0.23188,-1.05265 0.33541,-1.58153 0.10556,-0.51705 0.20407,-1.0359 0.27609,-1.55883 0.0733,-0.51504 0.13178,-1.03181 0.18144,-1.54968 0.0373,-0.52092 0.0853,-1.04161 0.0981,-1.56387 0.0149,-0.51512 0.0383,-1.0309 0.0195,-1.54617 -0.0166,-0.52056 -0.0342,-1.04112 -0.0616,-1.56123 -0.0293,-0.5066 -0.075,-1.01102 -0.15815,-1.51206 -0.0726,-0.51504 -0.12692,-1.03211 -0.19647,-1.54756 -0.0727,-0.50919 -0.15671,-1.01652 -0.24148,-1.52382 -0.0676,-0.48072 -0.14188,-0.96069 -0.24192,-1.43588 -0.0988,-0.46031 -0.20864,-0.91837 -0.34943,-1.3679 -0.13795,-0.44548 -0.27009,-0.8928 -0.42152,-1.33397 -0.12658,-0.39806 -0.27007,-0.79025 -0.40957,-1.18389 -0.12305,-0.33518 -0.24097,-0.67226 -0.3693,-1.00548 -0.0862,-0.21731 -0.16817,-0.43613 -0.27366,-0.64516 -1.26777,-2.53554 -0.0725,-3.13318 1.19526,-0.59763 z"
       inkscape:connector-curvature="0" />
    <path
       style="opacity:1;fill:#000000;fill-opacity:1;fill-rule:nonzero;stroke:#000000;stroke-width:0.1;stroke-linecap:round;stroke-linejoin:round;stroke-miterlimit:4;stroke-dasharray:none;stroke-dashoffset:0;stroke-opacity:1;paint-order:markers fill stroke"
       id="path6794"
       d="m 148.1232,173.3055 c -0.0854,0.2351 -0.16414,0.47292 -0.2392,0.71159 -0.11674,0.3648 -0.21262,0.73528 -0.31074,1.10535 -0.12959,0.48355 -0.22488,0.97535 -0.32764,1.46507 -0.11868,0.58943 -0.20901,1.1839 -0.31355,1.77589 -0.10824,0.61733 -0.19798,1.23764 -0.27695,1.85932 -0.0767,0.61885 -0.13656,1.23959 -0.19158,1.86068 -0.0526,0.61778 -0.0927,1.23652 -0.12979,1.8554 -0.0442,0.58578 -0.0561,1.17219 -0.0547,1.75933 0.004,0.57767 0.009,1.15531 0.0143,1.73296 -0.007,0.55511 0.027,1.10912 0.0571,1.66309 0.031,0.55752 0.0564,1.11533 0.0792,1.67324 0.0188,0.54133 0.071,1.08088 0.1124,1.62083 0.036,0.51856 0.1051,1.03414 0.16117,1.55079 0.0605,0.50709 0.14877,1.00979 0.23643,1.51266 0.0919,0.51372 0.18442,1.028 0.29332,1.53845 0.10498,0.49994 0.21945,0.99765 0.33233,1.49583 0.12596,0.48575 0.23578,0.97542 0.35542,1.4627 0.6756,2.75314 -0.62225,3.07162 -1.29784,0.31848 v 0 c -0.12142,-0.49505 -0.23348,-0.99236 -0.36091,-1.48594 -0.11417,-0.50407 -0.22989,-1.00767 -0.33621,-1.51348 -0.11137,-0.52665 -0.20838,-1.05663 -0.30261,-1.58656 -0.0926,-0.53116 -0.18517,-1.06229 -0.24848,-1.59798 -0.0576,-0.53063 -0.12837,-1.06016 -0.16506,-1.59277 -0.0426,-0.55577 -0.096,-1.11115 -0.11519,-1.66837 -0.0226,-0.55198 -0.0477,-1.10387 -0.0784,-1.65548 -0.0312,-0.57431 -0.0653,-1.14871 -0.059,-1.72419 -0.005,-0.58037 -0.0108,-1.16072 -0.0144,-1.7411 -0.001,-0.61483 0.0113,-1.22897 0.057,-1.84237 0.0378,-0.63158 0.0788,-1.26303 0.13261,-1.89348 0.0566,-0.63799 0.11812,-1.2756 0.19704,-1.91126 0.0818,-0.64302 0.17456,-1.28466 0.28664,-1.92317 0.10703,-0.60606 0.19932,-1.21472 0.32168,-1.818 0.1076,-0.51255 0.20776,-1.02717 0.34381,-1.53317 0.10347,-0.38993 0.20535,-0.78008 0.32793,-1.1646 0.0887,-0.28073 0.17998,-0.56128 0.2854,-0.83615 1.11669,-2.60561 2.34499,-2.0792 1.2283,0.52641 z"
       inkscape:connector-curvature="0" />
    <path
       style="opacity:1;fill:#000000;fill-opacity:1;fill-rule:nonzero;stroke:#000000;stroke-width:0.1;stroke-linecap:round;stroke-linejoin:round;stroke-miterlimit:4;stroke-dasharray:none;stroke-dashoffset:0;stroke-opacity:1;paint-order:markers fill stroke"
       id="path6796"
       d="m 139.88357,200.53824 c 0.19058,-0.18357 0.37171,-0.37574 0.54151,-0.57864 0.21926,-0.28154 0.42136,-0.57592 0.60692,-0.88061 0.20361,-0.34297 0.38697,-0.69728 0.5861,-1.04273 0.17388,-0.31235 0.40171,-0.56416 0.71695,-0.73322 0.51516,-0.18951 0.91358,0.0912 1.11745,0.55063 0.10531,0.27917 0.14348,0.57668 0.18209,0.87077 0.0451,0.36563 0.1041,0.72937 0.15198,1.09471 0.0473,0.44992 0.11489,0.8972 0.17525,1.34547 0.0555,0.48522 0.12064,0.96884 0.19043,1.45217 0.0615,0.48106 0.12848,0.96077 0.21189,1.43856 0.0319,0.16624 0.0774,0.32912 0.12469,0.49144 0.7866,2.7235 -0.49727,3.09431 -1.28388,0.37081 v 0 c -0.0599,-0.20897 -0.11789,-0.41859 -0.15729,-0.63267 -0.0855,-0.49064 -0.15513,-0.98317 -0.21805,-1.47717 -0.0704,-0.48756 -0.1363,-0.97542 -0.1922,-1.46488 -0.0605,-0.44986 -0.12833,-0.89875 -0.17588,-1.35025 -0.0478,-0.36549 -0.10707,-0.72935 -0.15204,-1.09516 -0.0233,-0.17936 -0.0443,-0.36031 -0.0927,-0.53503 0.18206,0.17879 0.43116,0.27199 0.68757,0.14961 0.15582,-0.11019 -0.13923,0.11238 -0.12919,0.19281 -0.20549,0.35457 -0.39234,0.71975 -0.60315,1.07138 -0.22172,0.36126 -0.46065,0.71205 -0.72463,1.044 -0.19544,0.23111 -0.40053,0.45317 -0.61888,0.66294 -2.00452,2.00452 -2.94946,1.05958 -0.94494,-0.94494 z"
       inkscape:connector-curvature="0" />
    <path
       style="opacity:1;fill:#000000;fill-opacity:1;fill-rule:nonzero;stroke:#000000;stroke-width:0.1;stroke-linecap:round;stroke-linejoin:round;stroke-miterlimit:4;stroke-dasharray:none;stroke-dashoffset:0;stroke-opacity:1;paint-order:markers fill stroke"
       id="path6798"
       d="m 63.209243,180.52584 c -0.0072,0.32853 -0.03643,0.65722 -0.07129,0.98397 -0.05819,0.46958 -0.102923,0.94054 -0.141867,1.41205 -0.06199,0.54993 -0.125593,1.09894 -0.156626,1.65159 -0.01841,0.36859 -0.03002,0.73746 -0.04157,1.10631 -0.08872,2.83343 -1.424411,2.79161 -1.335694,-0.0418 v 0 c 0.01191,-0.38007 0.02389,-0.76017 0.04305,-1.13996 0.03213,-0.56416 0.09378,-1.12499 0.159036,-1.6862 0.03994,-0.48288 0.08559,-0.96524 0.145124,-1.44615 0.0309,-0.27874 0.05486,-0.55961 0.06349,-0.83979 0,-2.83482 1.336349,-2.83482 1.336349,0 z"
       inkscape:connector-curvature="0" />
    <path
       style="opacity:1;fill:#000000;fill-opacity:1;fill-rule:nonzero;stroke:#000000;stroke-width:0.1;stroke-linecap:round;stroke-linejoin:round;stroke-miterlimit:4;stroke-dasharray:none;stroke-dashoffset:0;stroke-opacity:1;paint-order:markers fill stroke"
       id="path6800"
       d="m 55.563706,199.08725 c 0.245398,0.0634 0.497017,0.0995 0.747876,0.13348 0.386043,0.0458 0.772896,0.0905 1.161532,0.10512 0.277452,0.0128 0.554352,0.001 0.831366,-0.0137 2.830864,-0.1497 2.901428,1.18479 0.07056,1.33448 v 0 c -0.318704,0.0167 -0.637442,0.0289 -0.956591,0.0145 -0.430604,-0.0187 -0.859562,-0.063 -1.287221,-0.11622 -0.313857,-0.043 -0.628428,-0.0897 -0.934651,-0.17268 -2.725748,-0.77879 -2.358626,-2.06372 0.367125,-1.28493 z"
       inkscape:connector-curvature="0" />
    <path
       style="opacity:1;fill:#000000;fill-opacity:1;fill-rule:nonzero;stroke:#000000;stroke-width:0.1;stroke-linecap:round;stroke-linejoin:round;stroke-miterlimit:4;stroke-dasharray:none;stroke-dashoffset:0;stroke-opacity:1;paint-order:markers fill stroke"
       id="path6802"
       d="m 65.872044,196.11118 c 0.08271,0.29327 0.129001,0.59467 0.172096,0.89576 0.06956,0.43627 0.0728,0.8784 0.07901,1.31896 0.0053,0.48451 0.0074,0.96904 0.0097,1.45357 0.004,0.2538 0.0019,0.50726 -0.0052,0.76095 -0.08185,2.83364 -1.417637,2.79506 -1.335791,-0.0386 v 0 c 0.0073,-0.23876 0.0079,-0.47729 0.0047,-0.71617 -0.0021,-0.48035 -0.0044,-0.9607 -0.0096,-1.44102 -0.0053,-0.3837 -0.0048,-0.76902 -0.06576,-1.14901 -0.03423,-0.24088 -0.0692,-0.48237 -0.13407,-0.71734 -0.778785,-2.72574 0.506146,-3.09287 1.284931,-0.36712 z"
       inkscape:connector-curvature="0" />
    <path
       style="opacity:1;fill:#000000;fill-opacity:1;fill-rule:nonzero;stroke:#000000;stroke-width:0.1;stroke-linecap:round;stroke-linejoin:round;stroke-miterlimit:4;stroke-dasharray:none;stroke-dashoffset:0;stroke-opacity:1;paint-order:markers fill stroke"
       id="path6804"
       d="m 219.28002,181.42214 c -0.0351,0.25649 -0.0532,0.5149 -0.0715,0.773 -0.0257,0.37683 -0.0427,0.75418 -0.0582,1.13154 -0.0182,0.41669 0.005,0.83403 0.0195,1.25056 0.0185,0.33775 0.0574,0.67313 0.10647,1.00757 0.41093,2.80488 -0.9113,2.99859 -1.32223,0.19371 v 0 c -0.056,-0.38356 -0.1,-0.76844 -0.11981,-1.15582 -0.0153,-0.44992 -0.0396,-0.90066 -0.0191,-1.35076 0.016,-0.39075 0.0336,-0.78147 0.0604,-1.17166 0.0206,-0.28958 0.0416,-0.57944 0.0816,-0.86713 0.40091,-2.80632 1.72382,-2.61734 1.32292,0.18899 z"
       inkscape:connector-curvature="0" />
    <path
       style="opacity:1;fill:#000000;fill-opacity:1;fill-rule:nonzero;stroke:#000000;stroke-width:0.1;stroke-linecap:round;stroke-linejoin:round;stroke-miterlimit:4;stroke-dasharray:none;stroke-dashoffset:0;stroke-opacity:1;paint-order:markers fill stroke"
       id="path6806"
       d="m 217.92627,198.66735 c 0.18552,-0.16103 0.35344,-0.3403 0.51739,-0.5228 0.23983,-0.26234 0.46093,-0.54028 0.68344,-0.81713 0.25684,-0.30912 0.56691,-0.55351 0.93589,-0.71036 0.5377,-0.16649 0.96067,0.0932 1.22511,0.55156 0.15311,0.33224 0.21178,0.69608 0.26804,1.05459 0.0632,0.40117 0.0908,0.80663 0.14195,1.20921 0.0379,0.27966 0.0187,0.13818 0.0574,0.42447 0.37934,2.80932 -0.94499,2.98815 -1.32433,0.17882 v 0 c -0.0392,-0.29025 -0.0195,-0.14462 -0.059,-0.4369 -0.0484,-0.38951 -0.0776,-0.78129 -0.13638,-1.16956 -0.0336,-0.21658 -0.0674,-0.43435 -0.13323,-0.64397 0.12783,0.0921 0.27943,0.16378 0.43813,0.0798 -0.13396,0.0345 -0.26844,0.19643 -0.37226,0.29985 -0.23809,0.29575 -0.47484,0.59255 -0.73106,0.87311 -0.17978,0.19977 -0.36288,0.39788 -0.56614,0.57421 -2.00452,2.00452 -2.94946,1.05958 -0.94494,-0.94494 z"
       inkscape:connector-curvature="0" />
    <path
       style="opacity:1;fill:#000000;fill-opacity:1;fill-rule:nonzero;stroke:#000000;stroke-width:0.1;stroke-linecap:round;stroke-linejoin:round;stroke-miterlimit:4;stroke-dasharray:none;stroke-dashoffset:0;stroke-opacity:1;paint-order:markers fill stroke"
       id="path6808"
       d="m 98.75609,183.46581 c 0,0.28429 0,0.56859 0,0.85289 0.004,0.46094 0.0011,0.92129 -0.02027,1.38176 -0.02976,0.50862 -0.01971,1.01863 -0.01622,1.52784 0.0031,0.0782 0.0063,0.15638 0.0094,0.23457 0.1095,2.83271 -1.225849,2.88433 -1.33535,0.0516 v 0 c -0.0035,-0.0923 -0.0069,-0.18469 -0.01037,-0.27703 -0.0037,-0.53304 -0.01341,-1.06686 0.01762,-1.59929 0.02064,-0.43971 0.02236,-0.8793 0.01881,-1.31947 0,-0.2843 0,-0.5686 0,-0.85289 0,-2.83483 1.336349,-2.83483 1.336349,0 z"
       inkscape:connector-curvature="0" />
    <path
       style="opacity:1;fill:#000000;fill-opacity:1;fill-rule:nonzero;stroke:#000000;stroke-width:0.1;stroke-linecap:round;stroke-linejoin:round;stroke-miterlimit:4;stroke-dasharray:none;stroke-dashoffset:0;stroke-opacity:1;paint-order:markers fill stroke"
       id="path6810"
       d="m 185.06952,183.29303 c -0.0357,0.22875 -0.05,0.45829 -0.0503,0.68947 0.004,0.38172 0.0113,0.76341 0.017,1.14511 -0.003,0.4262 0.0179,0.851 0.0467,1.276 0.19173,2.82833 -1.14156,2.91871 -1.33329,0.0904 v 0 c -0.0304,-0.44832 -0.0525,-0.89657 -0.0496,-1.34612 -0.006,-0.38991 -0.0137,-0.7798 -0.0172,-1.16974 0.001,-0.29288 0.0191,-0.5843 0.0637,-0.87409 0.4009,-2.80633 1.72382,-2.61734 1.32291,0.18899 z"
       inkscape:connector-curvature="0" />
    <path
       style="opacity:1;fill:#000000;fill-opacity:1;fill-rule:nonzero;stroke:#000000;stroke-width:0.1;stroke-linecap:round;stroke-linejoin:round;stroke-miterlimit:4;stroke-dasharray:none;stroke-dashoffset:0;stroke-opacity:1;paint-order:markers fill stroke"
       id="path6814"
       d="m 117.72233,183.54951 c 0.0814,0.29959 0.0971,0.61244 0.11782,0.92085 0.0272,0.38397 0.0302,0.76926 0.0592,1.15304 0.0119,0.19978 0.0435,0.39754 0.0719,0.5954 0.40121,2.80629 -0.92169,2.99542 -1.3229,0.18914 v 0 c -0.0326,-0.22822 -0.0676,-0.45646 -0.0817,-0.68679 -0.0277,-0.38685 -0.0346,-0.77475 -0.0598,-1.1618 -0.0142,-0.21432 -0.0213,-0.43306 -0.0694,-0.64271 -0.77878,-2.72575 0.50615,-3.09287 1.28493,-0.36713 z"
       inkscape:connector-curvature="0" />
    <path
       style="opacity:1;fill:#000000;fill-opacity:1;fill-rule:nonzero;stroke:#000000;stroke-width:0.1;stroke-linecap:round;stroke-linejoin:round;stroke-miterlimit:4;stroke-dasharray:none;stroke-dashoffset:0;stroke-opacity:1;paint-order:markers fill stroke"
       id="path6818"
       d="m 165.84074,183.73308 c 0,0.25795 0,0.51591 0,0.77386 0,0.3603 0,0.72059 0,1.08089 0,0.0662 0,0.1324 0,0.1986 0,2.83483 -1.33635,2.83483 -1.33635,0 v 0 c 0,-0.0662 0,-0.1324 0,-0.1986 0,-0.3603 0,-0.72059 0,-1.08089 0,-0.25795 0,-0.51591 0,-0.77386 0,-2.83483 1.33635,-2.83483 1.33635,0 z"
       inkscape:connector-curvature="0" />
    <path
       style="opacity:1;fill:#000000;fill-opacity:1;fill-rule:nonzero;stroke:#000000;stroke-width:0.1;stroke-linecap:round;stroke-linejoin:round;stroke-miterlimit:4;stroke-dasharray:none;stroke-dashoffset:0;stroke-opacity:1;paint-order:markers fill stroke"
       id="path6820"
       d="m 127.35512,184.70766 c 0.039,0.256 0.0492,0.51534 0.0852,0.77156 0.0301,0.23423 0.0731,0.46607 0.13778,0.69323 0.75368,2.7328 -0.53457,3.08809 -1.28826,0.35529 v 0 c -0.0774,-0.28626 -0.13791,-0.57612 -0.17398,-0.87073 -0.0329,-0.25295 -0.0493,-0.50755 -0.0837,-0.76036 -0.4009,-2.80633 0.92201,-2.99532 1.32292,-0.18899 z"
       inkscape:connector-curvature="0" />
    <path
       style="opacity:1;fill:#000000;fill-opacity:1;fill-rule:nonzero;stroke:#000000;stroke-width:0.1;stroke-linecap:round;stroke-linejoin:round;stroke-miterlimit:4;stroke-dasharray:none;stroke-dashoffset:0;stroke-opacity:1;paint-order:markers fill stroke"
       id="path6822"
       d="m 155.41842,184.44039 c 0.0374,0.27118 0.0601,0.54405 0.0813,0.81688 0.016,0.22859 0.008,0.11326 0.023,0.34601 0.17826,2.82921 -1.15545,2.91324 -1.33371,0.084 v 0 c -0.0139,-0.22052 -0.007,-0.11149 -0.0216,-0.32708 -0.0188,-0.24407 -0.0388,-0.4882 -0.0718,-0.73085 -0.40091,-2.80633 0.92201,-2.99532 1.32291,-0.18899 z"
       inkscape:connector-curvature="0" />
    <path
       style="opacity:1;fill:#000000;fill-opacity:1;fill-rule:nonzero;stroke:#000000;stroke-width:0.1;stroke-linecap:round;stroke-linejoin:round;stroke-miterlimit:4;stroke-dasharray:none;stroke-dashoffset:0;stroke-opacity:1;paint-order:markers fill stroke"
       id="path6824"
       d="m 133.50232,184.70766 c 0.0298,0.21722 0.0866,0.4302 0.1412,0.64238 0.0531,0.21541 0.0269,0.10575 0.0782,0.32903 0.63235,2.76339 -0.67033,3.06149 -1.30268,0.29809 v 0 c -0.0451,-0.19747 -0.0218,-0.0994 -0.0697,-0.29412 -0.0668,-0.25961 -0.1331,-0.52058 -0.16993,-0.78639 -0.4009,-2.80633 0.92201,-2.99532 1.32292,-0.18899 z"
       inkscape:connector-curvature="0" />
    <path
       style="opacity:1;fill:#000000;fill-opacity:1;fill-rule:nonzero;stroke:#000000;stroke-width:0.1;stroke-linecap:round;stroke-linejoin:round;stroke-miterlimit:4;stroke-dasharray:none;stroke-dashoffset:0;stroke-opacity:1;paint-order:markers fill stroke"
       id="path6826"
       d="m 150.3403,184.70766 c 0.0374,0.27118 0.0601,0.54405 0.0813,0.81689 0.0188,0.1599 0.0405,0.31944 0.0615,0.47907 0.36823,2.81081 -0.9568,2.98439 -1.32503,0.17359 v 0 c -0.024,-0.1831 -0.0495,-0.36604 -0.0688,-0.54971 -0.0188,-0.24407 -0.0388,-0.4882 -0.0718,-0.73085 -0.4009,-2.80633 0.92201,-2.99532 1.32292,-0.18899 z"
       inkscape:connector-curvature="0" />
    <path
       style="opacity:1;fill:#000000;fill-opacity:1;fill-rule:nonzero;stroke:#000000;stroke-width:0.1;stroke-linecap:round;stroke-linejoin:round;stroke-miterlimit:4;stroke-dasharray:none;stroke-dashoffset:0;stroke-opacity:1;paint-order:markers fill stroke"
       id="path6828"
       d="m 87.572293,204.28583 c 0.09404,-0.27595 0.194241,-0.54985 0.295654,-0.82319 0.124663,-0.34894 0.252701,-0.69661 0.364474,-1.04997 0.09471,-0.33254 0.190317,-0.66482 0.325755,-0.98337 0.307737,-0.65159 0.861869,-0.74014 1.371044,-0.21176 0.230243,0.35624 0.274984,0.78169 0.3477,1.18975 0.100301,0.57242 0.169415,1.14963 0.24919,1.72513 0.09593,0.69425 0.16824,1.39133 0.256881,2.08652 0.08071,0.68827 0.173604,1.3747 0.271499,2.0607 0.04761,0.37116 0.143169,0.73208 0.248079,1.09026 0.792813,2.7217 -0.490209,3.09544 -1.283023,0.37374 v 0 c -0.121499,-0.41907 -0.23151,-0.84154 -0.287999,-1.2752 -0.09884,-0.69259 -0.192603,-1.38563 -0.274174,-2.0805 -0.08801,-0.69035 -0.16002,-1.38257 -0.254955,-2.07204 -0.07742,-0.55851 -0.144413,-1.11869 -0.241147,-1.67431 -0.03606,-0.20262 -0.06582,-0.40622 -0.114948,-0.60615 -0.003,-0.0123 -0.019,-0.0299 -0.0086,-0.0371 0.0098,-0.007 0.01704,0.0168 0.02556,0.0253 0.280392,0.23257 0.478782,0.20729 0.826638,0.0435 0.05405,-0.0255 0.150987,-0.18523 0.113382,-0.13881 -0.0076,0.009 -0.01236,0.0209 -0.01855,0.0314 -0.122666,0.27493 -0.188587,0.57072 -0.27854,0.857 -0.118848,0.37398 -0.25319,0.74252 -0.38576,1.1118 -0.08977,0.24077 -0.175778,0.48297 -0.263271,0.72455 -0.778785,2.72574 -2.063715,2.35862 -1.28493,-0.36713 z"
       inkscape:connector-curvature="0" />
    <path
       style="opacity:1;fill:#000000;fill-opacity:1;fill-rule:nonzero;stroke:#000000;stroke-width:0.1;stroke-linecap:round;stroke-linejoin:round;stroke-miterlimit:4;stroke-dasharray:none;stroke-dashoffset:0;stroke-opacity:1;paint-order:markers fill stroke"
       id="path6830"
       d="m 93.961449,206.00935 c 0.2198,0.0332 0.440227,0.05 0.662313,0.0503 0.161626,-0.005 0.322786,-0.004 0.484386,7.9e-4 2.83351,0.0862 2.792862,1.42196 -0.04065,1.33573 v 0 c -0.149664,-0.005 -0.298934,-0.002 -0.448683,-1.1e-4 -0.283612,-0.002 -0.565706,-0.0214 -0.846357,-0.0637 -2.80633,-0.4009 -2.617341,-1.72382 0.188989,-1.32292 z"
       inkscape:connector-curvature="0" />
    <path
       style="opacity:1;fill:#000000;fill-opacity:1;fill-rule:nonzero;stroke:#000000;stroke-width:0.1;stroke-linecap:round;stroke-linejoin:round;stroke-miterlimit:4;stroke-dasharray:none;stroke-dashoffset:0;stroke-opacity:1;paint-order:markers fill stroke"
       id="path6832"
       d="m 99.525869,200.27097 c 0.150223,-0.16878 0.280503,-0.35342 0.411724,-0.53695 0.189277,-0.27766 0.356577,-0.56924 0.505087,-0.87047 0.15442,-0.33248 0.26953,-0.68085 0.41344,-1.0178 0.14146,-0.35999 0.35781,-0.59331 0.70574,-0.75621 0.53751,-0.10518 0.83883,0.23307 1.03871,0.67189 0.11954,0.30589 0.18303,0.62936 0.26318,0.94692 0.0803,0.35996 0.16526,0.71849 0.25212,1.07694 0.0538,0.20304 0.0841,0.41087 0.11477,0.61828 0.40971,2.80506 -0.9126,2.9982 -1.32232,0.19315 v 0 c -0.024,-0.16672 -0.0467,-0.33395 -0.0913,-0.49684 -0.0858,-0.3543 -0.17009,-0.70864 -0.24904,-1.0645 -0.0616,-0.24422 -0.11438,-0.491 -0.18884,-0.73167 -0.12084,-0.29057 0.13363,0.21138 0.58089,0.0615 0.25766,-0.14228 0.25969,-0.26313 0.12416,0.007 -0.1548,0.35886 -0.27238,0.73292 -0.44428,1.08457 -0.18157,0.36458 -0.38348,0.71886 -0.61532,1.05414 -0.17381,0.24307 -0.34841,0.4867 -0.55383,0.70462 -2.004523,2.00452 -2.949464,1.05958 -0.944941,-0.94494 z"
       inkscape:connector-curvature="0" />
    <path
       style="opacity:1;fill:#000000;fill-opacity:1;fill-rule:nonzero;stroke:#000000;stroke-width:0.1;stroke-linecap:round;stroke-linejoin:round;stroke-miterlimit:4;stroke-dasharray:none;stroke-dashoffset:0;stroke-opacity:1;paint-order:markers fill stroke"
       id="path6834"
       d="m 100.28142,204.92565 c 0.27987,0 0.55973,0 0.8396,0 0.42916,0 0.85833,0 1.2875,0 0.35448,0.003 0.70938,-0.0155 1.06202,-0.0509 2.82135,-0.27607 2.95149,1.05393 0.13014,1.33 v 0 c -0.39607,0.0379 -0.79411,0.0611 -1.19216,0.0573 -0.42917,0 -0.85834,0 -1.2875,0 -0.27987,0 -0.55973,0 -0.8396,0 -2.834819,0 -2.834819,-1.33635 0,-1.33635 z"
       inkscape:connector-curvature="0" />
    <path
       style="opacity:1;fill:#000000;fill-opacity:1;fill-rule:nonzero;stroke:#000000;stroke-width:0.1;stroke-linecap:round;stroke-linejoin:round;stroke-miterlimit:4;stroke-dasharray:none;stroke-dashoffset:0;stroke-opacity:1;paint-order:markers fill stroke"
       id="path6838"
       d="m 100.89544,210.09826 c 0.0311,0.29488 0.0818,0.58707 0.12299,0.88067 0.0785,0.41321 0.13145,0.83075 0.20619,1.24452 0.0734,0.42941 0.16421,0.85497 0.25662,1.28057 0.0684,0.32108 0.12632,0.64524 0.22294,0.95945 0.1446,0.53111 0.0989,0.11826 -1.20729,0.17666 -0.005,-0.17849 -0.0218,-0.3551 -0.0461,-0.53184 -0.0512,-0.34444 -0.0508,-0.69405 -0.0567,-1.04151 -0.0188,-0.42021 0.0246,-0.8347 0.13205,-1.24051 0.127,-0.41945 0.36709,-0.76385 0.69473,-1.04861 0.30891,-0.24348 0.66841,-0.35483 1.05441,-0.38839 0.392,-0.003 0.75435,0.12589 1.09623,0.30624 0.34272,0.19897 0.62035,0.48318 0.8826,0.77577 0.2752,0.32289 0.49648,0.6853 0.71367,1.04821 0.21445,0.37141 0.40953,0.7535 0.61504,1.1298 0.11872,0.20962 0.25102,0.41754 0.44437,0.56557 0.086,0.0334 -0.0177,-0.002 0.0615,-0.0216 0.0841,-0.0315 0.16609,-0.0954 0.23772,-0.16002 0.15941,-0.15283 0.28194,-0.33348 0.39097,-0.52403 1.42644,-2.44979 2.58128,-1.77736 1.15484,0.67243 v 0 c -0.18928,0.32148 -0.40521,0.62556 -0.6861,0.8747 -0.26722,0.21864 -0.5565,0.39425 -0.90109,0.45876 -0.40275,0.0476 -0.78498,-0.008 -1.11061,-0.27136 -0.31467,-0.26845 -0.57098,-0.58822 -0.76501,-0.95496 -0.19634,-0.36089 -0.38441,-0.72635 -0.58835,-1.08309 -0.17414,-0.29102 -0.34839,-0.5835 -0.56498,-0.84573 -0.15725,-0.17821 -0.32119,-0.35548 -0.51965,-0.48867 -0.12159,-0.069 -0.2462,-0.1219 -0.38447,-0.1479 -0.0965,-0.0159 -0.19358,0.0367 -0.2757,0.0809 -0.13038,0.0926 -0.20699,0.22959 -0.26227,0.37861 -0.0843,0.27921 -0.0916,0.57124 -0.0838,0.86131 0.005,0.29441 0.002,0.59112 0.0445,0.88301 0.037,0.27202 0.0627,0.54603 0.0541,0.82093 -0.0918,0.76755 -1.38192,0.81906 -1.40371,0.10246 -0.10459,-0.34912 -0.1775,-0.70614 -0.24983,-1.06311 -0.0959,-0.44153 -0.189576,-0.88317 -0.266123,-1.32857 -0.07655,-0.43068 -0.134588,-0.8645 -0.214206,-1.29474 -0.04089,-0.29235 -0.09154,-0.58337 -0.122471,-0.87699 -0.400904,-2.80633 0.92201,-2.99532 1.32292,-0.18899 z"
       inkscape:connector-curvature="0" />
    <path
       style="opacity:1;fill:#000000;fill-opacity:1;fill-rule:nonzero;stroke:#000000;stroke-width:0.1;stroke-linecap:round;stroke-linejoin:round;stroke-miterlimit:4;stroke-dasharray:none;stroke-dashoffset:0;stroke-opacity:1;paint-order:markers fill stroke"
       id="path6840"
       d="m 178.32954,201.91139 c 0.13963,-0.18899 0.25314,-0.39472 0.36866,-0.59877 0.16677,-0.30941 0.31975,-0.62595 0.45498,-0.95038 0.15416,-0.35038 0.2891,-0.70863 0.42294,-1.0671 0.16098,-0.46825 0.35627,-0.68684 0.85409,-0.80891 0.61455,0.0666 0.80919,0.4921 0.9352,1.02312 0.0913,0.43529 0.12565,0.87924 0.18064,1.31981 0.0699,0.53106 0.12824,1.06333 0.20315,1.59371 0.068,0.53764 0.15076,1.07269 0.23921,1.60727 0.0448,0.27408 0.11545,0.5415 0.19896,0.80588 0.84631,2.70554 -0.4291,3.1045 -1.27541,0.39895 v 0 c -0.10058,-0.32395 -0.18752,-0.65135 -0.24198,-0.9867 -0.0902,-0.54498 -0.17442,-1.0905 -0.244,-1.63857 -0.0759,-0.53773 -0.13546,-1.07731 -0.20607,-1.61575 -0.0489,-0.39527 -0.0805,-0.79325 -0.15676,-1.18466 -0.0899,-0.41208 0.0766,0.053 0.46479,0.01 0.40358,-0.13057 0.47907,-0.47467 0.30011,-0.0564 -0.13994,0.37476 -0.28129,0.74918 -0.44214,1.11561 -0.15658,0.37282 -0.33132,0.73765 -0.5248,1.09282 -0.15484,0.27348 -0.3101,0.5482 -0.50495,0.79588 -1.81481,2.17777 -2.84143,1.32226 -1.02662,-0.85551 z"
       inkscape:connector-curvature="0" />
    <path
       style="opacity:1;fill:#000000;fill-opacity:1;fill-rule:nonzero;stroke:#000000;stroke-width:0.1;stroke-linecap:round;stroke-linejoin:round;stroke-miterlimit:4;stroke-dasharray:none;stroke-dashoffset:0;stroke-opacity:1;paint-order:markers fill stroke"
       id="path6842"
       d="m 183.93678,201.45115 c 0.27792,-0.007 0.55456,0.0249 0.83101,0.0486 0.359,0.0246 0.71291,0.0937 1.07148,0.12218 0.0446,1.8e-4 0.0892,2.6e-4 0.13383,5.3e-4 2.83448,0.0441 2.81368,1.38032 -0.0208,1.33618 v 0 c -0.0748,-0.002 -0.14954,-0.003 -0.22431,-0.005 -0.35943,-0.0311 -0.71493,-0.0931 -1.07446,-0.12243 -0.23849,-0.0205 -0.477,-0.0505 -0.71674,-0.0437 -2.83482,0 -2.83482,-1.33635 0,-1.33635 z"
       inkscape:connector-curvature="0" />
    <path
       style="opacity:1;fill:#000000;fill-opacity:1;fill-rule:nonzero;stroke:#000000;stroke-width:0.1;stroke-linecap:round;stroke-linejoin:round;stroke-miterlimit:4;stroke-dasharray:none;stroke-dashoffset:0;stroke-opacity:1;paint-order:markers fill stroke"
       id="path6844"
       d="m 186.42049,199.50198 c 0,0.29294 0,0.58588 0,0.87883 -0.003,0.43056 -0.002,0.86054 0.0188,1.29062 0.0202,0.47454 0.0607,0.94825 0.12525,1.41881 0.38043,2.80918 -0.94382,2.98852 -1.32426,0.17934 v 0 c -0.0682,-0.50878 -0.11473,-1.02039 -0.13576,-1.53338 -0.0218,-0.45167 -0.0241,-0.90324 -0.0203,-1.35539 0,-0.29295 0,-0.58589 0,-0.87883 0,-2.83482 1.33634,-2.83482 1.33634,0 z"
       inkscape:connector-curvature="0" />
    <path
       style="opacity:1;fill:#000000;fill-opacity:1;fill-rule:nonzero;stroke:#000000;stroke-width:0.1;stroke-linecap:round;stroke-linejoin:round;stroke-miterlimit:4;stroke-dasharray:none;stroke-dashoffset:0;stroke-opacity:1;paint-order:markers fill stroke"
       id="path6846"
       d="m 190.77452,196.72089 c 0.17836,-0.12736 0.34661,-0.26856 0.50305,-0.42208 0.21831,-0.22069 0.41425,-0.46397 0.59691,-0.71476 0.17441,-0.25251 0.31017,-0.52851 0.44372,-0.80396 0.15299,-0.35851 0.37883,-0.56739 0.73962,-0.70723 0.15341,0.0212 0.31456,0.011 0.46023,0.0636 0.35672,0.12875 0.466,0.57461 0.51125,0.89794 0.0332,0.34274 0.0423,0.68727 0.0535,1.03127 0.002,0.39884 0.0406,0.79575 0.0731,1.19288 0.024,0.22771 0.0271,0.45671 0.0314,0.68538 0.0513,2.83436 -1.28479,2.85856 -1.33613,0.0242 v 0 c -0.003,-0.2004 -0.005,-0.40113 -0.0272,-0.60062 -0.0343,-0.41891 -0.0742,-0.83768 -0.0768,-1.25835 -0.01,-0.30288 -0.0181,-0.6061 -0.0438,-0.90814 -0.002,-0.0196 -0.007,-0.0392 -0.005,-0.0587 0.005,-0.0397 0.0485,0.0649 0.0802,0.0893 0.2406,0.18506 0.187,0.1177 0.56427,0.14685 0.23922,-0.10992 0.35171,-0.3078 0.17777,-0.0153 -0.16876,0.34806 -0.34425,0.69478 -0.56852,1.01119 -0.22863,0.31022 -0.4711,0.61269 -0.74489,0.88448 -0.21632,0.20771 -0.44467,0.40309 -0.69146,0.57403 -2.35872,1.57248 -3.09999,0.46057 -0.74127,-1.1119 z"
       inkscape:connector-curvature="0" />
    <path
       style="opacity:1;fill:#000000;fill-opacity:1;fill-rule:nonzero;stroke:#000000;stroke-width:0.1;stroke-linecap:round;stroke-linejoin:round;stroke-miterlimit:4;stroke-dasharray:none;stroke-dashoffset:0;stroke-opacity:1;paint-order:markers fill stroke"
       id="path6848"
       d="m 190.43496,201.99558 c 0.30155,-0.0843 0.61181,-0.13032 0.92146,-0.17269 0.42246,-0.0521 0.84648,-0.0869 1.26891,-0.13916 0.48764,-0.0606 0.97656,-0.10659 1.46321,-0.17488 0.4484,-0.0613 0.89525,-0.13245 1.34292,-0.19899 2.80401,-0.41675 3.00047,0.90508 0.19645,1.32183 v 0 c -0.45131,0.0671 -0.90182,0.13866 -1.35387,0.20057 -0.49385,0.0692 -0.98985,0.1169 -1.48474,0.17772 -0.41706,0.0515 -0.83552,0.0871 -1.25274,0.13706 -0.24656,0.0333 -0.49393,0.0682 -0.73448,0.13347 -2.72575,0.77879 -3.09287,-0.50614 -0.36712,-1.28493 z"
       inkscape:connector-curvature="0" />
    <path
       style="opacity:1;fill:#000000;fill-opacity:1;fill-rule:nonzero;stroke:#000000;stroke-width:0.1;stroke-linecap:round;stroke-linejoin:round;stroke-miterlimit:4;stroke-dasharray:none;stroke-dashoffset:0;stroke-opacity:1;paint-order:markers fill stroke"
       id="path6850"
       d="m 192.56888,206.62376 c 0.0279,0.25545 0.0793,0.50733 0.12074,0.76081 0.0598,0.3731 0.0997,0.7489 0.13569,1.12491 0.0259,0.24219 0.0401,0.48638 0.0825,0.72652 0.0136,-0.60487 -1.29559,0.4127 -1.23898,-0.12986 0.0419,-0.23302 0.0872,-0.4652 0.13998,-0.69598 0.0759,-0.34635 0.22977,-0.65705 0.41426,-0.95657 0.20186,-0.33791 0.48462,-0.58303 0.83158,-0.76112 0.39524,-0.18203 0.79039,-0.14318 1.18083,0.0204 0.33454,0.16328 0.57681,0.44021 0.80082,0.72863 0.19602,0.27699 0.36484,0.57103 0.57235,0.83986 0.1472,0.18339 0.32249,0.33847 0.53186,0.44585 0.12671,0.0591 0.26272,0.10255 0.4027,0.0781 0.17751,-0.0124 0.33158,-0.0925 0.47874,-0.18642 0.20574,-0.13919 0.38639,-0.30208 0.54318,-0.49405 0.0246,-0.0341 0.0492,-0.0683 0.0739,-0.10245 1.68098,-2.28265 2.75704,-1.49023 1.07605,0.79243 v 0 c -0.0416,0.0558 -0.0832,0.11157 -0.12482,0.16735 -0.25483,0.30053 -0.54185,0.56513 -0.87448,0.77886 -0.33428,0.19825 -0.68821,0.35366 -1.082,0.37755 -0.399,0.0176 -0.7813,-0.0488 -1.13677,-0.24019 -0.36671,-0.20739 -0.69189,-0.46969 -0.95023,-0.80575 -0.20436,-0.26944 -0.38444,-0.55403 -0.56981,-0.83656 -0.0898,-0.11872 -0.18026,-0.24426 -0.30335,-0.33075 0.008,-0.0311 0.0134,-0.0463 -0.0322,-0.0323 -0.12815,0.0506 -0.20892,0.143 -0.28098,0.26205 -0.10841,0.17547 -0.2081,0.34697 -0.249,0.55328 -0.043,0.18777 -0.0787,0.37662 -0.11684,0.56541 -0.002,0.0138 -0.0319,0.25606 -0.0442,0.26069 -0.9132,0.34328 -1.20496,0.65321 -1.35978,-0.0733 -0.0458,-0.27312 -0.0694,-0.54918 -0.0956,-0.82472 -0.0331,-0.34656 -0.0695,-0.69296 -0.12432,-1.03686 -0.0427,-0.26215 -0.0957,-0.52277 -0.12473,-0.78693 -0.40091,-2.80633 0.92201,-2.99532 1.32291,-0.18899 z"
       inkscape:connector-curvature="0" />
    <path
       style="opacity:1;fill:#000000;fill-opacity:1;fill-rule:nonzero;stroke:#000000;stroke-width:0.1;stroke-linecap:round;stroke-linejoin:round;stroke-miterlimit:4;stroke-dasharray:none;stroke-dashoffset:0;stroke-opacity:1;paint-order:markers fill stroke"
       id="path6852"
       d="m 85.943362,176.87697 c 0.24265,0.033 0.486783,0.053 0.730856,0.0718 0.352335,0.0261 0.705263,0.0427 1.058204,0.0579 0.413297,0.0173 0.826791,0.0291 1.2403,0.0398 0.453221,0.0115 0.90651,0.0196 1.35981,0.027 0.479846,0.008 0.959718,0.0132 1.439596,0.0183 0.497702,0.005 0.995418,0.009 1.493133,0.0123 0.498833,0.013 0.996794,-5.3e-4 1.495018,-0.0237 0.519795,-0.0261 1.039746,-0.0487 1.559806,-0.0687 0.541803,-0.0208 1.083821,-0.0353 1.625851,-0.0487 0.563415,-0.0247 1.126911,-0.005 1.690129,0.0136 0.544265,0.0186 1.088615,0.0344 1.633005,0.0485 0.56944,0.0116 1.1385,0.0216 1.70717,0.0544 0.56069,0.0361 1.12153,0.0696 1.68259,0.0992 0.54941,0.0286 1.09912,0.0506 1.6489,0.0706 0.54449,0.0195 1.08913,0.0343 1.63379,0.0478 0.54125,0.0132 1.08257,0.0232 1.62389,0.0323 0.53906,0.009 1.07816,0.0157 1.61726,0.0218 0.53759,0.006 1.07519,0.0106 1.6128,0.0147 0.52583,0.0152 1.05108,-0.0119 1.57619,-0.0356 0.53855,-0.0251 1.07728,-0.0458 1.61609,-0.0643 0.5381,-0.0182 1.07633,-0.032 1.61458,-0.0446 0.53699,-0.0123 1.07403,-0.0216 1.61109,-0.03 0.52588,0.003 1.05042,-0.0332 1.57498,-0.0652 0.54868,-0.0452 1.09908,-0.0423 1.64909,-0.0394 0.50947,-0.002 1.01921,0.0191 1.52855,0.005 0.22793,-0.0265 0.47029,0.002 0.69226,-0.0655 -0.21569,0.0712 -0.32165,0.34543 -0.31725,0.6116 0.099,0.2443 -0.19063,-0.16084 -0.21269,-0.18915 -0.2887,-0.38736 -0.28996,-0.77043 -0.0716,-1.189 0.26413,-0.3115 0.62586,-0.37413 1.01128,-0.37895 0.3626,-0.006 0.70021,0.0748 1.0254,0.23085 0.37611,0.21309 0.58997,0.5402 0.70161,0.94968 0.0908,0.41346 -0.0161,0.8044 -0.18739,1.17922 -0.15163,0.34155 -0.37597,0.63851 -0.60281,0.9322 -0.11986,0.14646 -0.24003,0.29234 -0.36336,0.43588 -1.85049,2.14753 -2.86285,1.2752 -1.01235,-0.87233 v 0 c 0.10819,-0.12511 0.21229,-0.25334 0.31811,-0.38045 0.1686,-0.21828 0.34246,-0.43394 0.45358,-0.68921 0.046,-0.0872 0.0938,-0.18166 0.0975,-0.28212 -0.007,-0.0517 0.0458,-0.014 -0.0216,-0.0873 -0.12683,-0.0731 -0.27165,-0.077 -0.41821,-0.0801 -0.23159,-0.0217 -0.0144,5.3e-4 0.0785,-0.17062 0.0632,-0.1499 0.0906,-0.16098 0.0823,-0.31343 -0.002,-0.0446 -0.0553,-0.16974 -0.0444,-0.12642 0.003,0.0106 0.01,0.0197 0.0145,0.0295 0.16309,0.22144 0.37798,0.40425 0.44954,0.68289 0.0461,0.52947 -0.13323,0.85164 -0.64719,1.00134 -0.32469,0.0792 -0.65786,0.0941 -0.99094,0.1073 -0.52337,0.0128 -1.04692,-0.005 -1.57039,-0.005 -0.52042,-0.003 -1.04121,-0.007 -1.56035,0.0369 -0.54471,0.0333 -1.08945,0.0702 -1.63551,0.0676 -0.53368,0.008 -1.06736,0.0176 -1.60098,0.0298 -0.53333,0.0124 -1.06663,0.0261 -1.59981,0.0441 -0.53402,0.0184 -1.06798,0.0388 -1.60174,0.0637 -0.54861,0.0248 -1.0974,0.0521 -1.64676,0.0369 -0.53925,-0.004 -1.0785,-0.009 -1.61773,-0.0148 -0.54152,-0.006 -1.08303,-0.013 -1.62451,-0.0219 -0.54487,-0.009 -1.08973,-0.0193 -1.63451,-0.0326 -0.54983,-0.0136 -1.09963,-0.0286 -1.64928,-0.0483 -0.55705,-0.0203 -1.11403,-0.0426 -1.6707,-0.0716 -0.56332,-0.0297 -1.1264,-0.0633 -1.68934,-0.0996 -0.55449,-0.0322 -1.1094,-0.041 -1.66466,-0.0526 -0.54732,-0.0142 -1.09459,-0.0301 -1.641772,-0.0488 -0.537779,-0.0175 -1.075796,-0.0376 -1.613763,-0.0134 -0.535871,0.0132 -1.071731,0.0275 -1.607378,0.0481 -0.516472,0.0199 -1.032835,0.0423 -1.549043,0.0682 -0.521983,0.0243 -1.043797,0.0382 -1.566396,0.025 -0.499333,-0.003 -0.998662,-0.007 -1.497979,-0.0123 -0.482454,-0.005 -0.964906,-0.0107 -1.447326,-0.0183 -0.457592,-0.007 -0.915175,-0.0157 -1.372685,-0.0273 -0.421163,-0.0109 -0.842309,-0.023 -1.263255,-0.0406 -0.36807,-0.0159 -0.736127,-0.0334 -1.103559,-0.0607 -0.272833,-0.0211 -0.545706,-0.0439 -0.816885,-0.0813 -2.80633,-0.4009 -2.617343,-1.72382 0.188986,-1.32292 z"
       inkscape:connector-curvature="0" />
    <path
       style="opacity:1;fill:#000000;fill-opacity:1;fill-rule:nonzero;stroke:#000000;stroke-width:0.1;stroke-linecap:round;stroke-linejoin:round;stroke-miterlimit:4;stroke-dasharray:none;stroke-dashoffset:0;stroke-opacity:1;paint-order:markers fill stroke"
       id="path6854"
       d="m 154.44264,176.86116 c 0.27118,-0.0374 0.54405,-0.0602 0.81689,-0.0813 0.36743,-0.0273 0.73549,-0.0448 1.10356,-0.0606 0.40223,-0.0146 0.8041,-0.0242 1.20525,-0.058 0.43281,-0.0403 0.86612,-0.0744 1.29976,-0.10427 0.46775,-0.0316 0.93603,-0.0543 1.40437,-0.0749 0.48926,-0.0211 0.97873,-0.0364 1.46824,-0.0504 0.47704,-0.002 0.95218,-0.0421 1.42746,-0.0783 0.49332,-0.0381 0.98723,-0.0678 1.48129,-0.0944 0.50716,-0.0268 1.01466,-0.0467 1.5222,-0.0648 0.51882,-0.018 1.03778,-0.0317 1.55677,-0.0436 0.54754,-0.0121 1.09515,-0.0211 1.64276,-0.0294 0.53578,0.002 1.07039,-0.02 1.60508,-0.0513 0.54381,-0.0336 1.0879,-0.0623 1.63214,-0.0878 0.54236,-0.0251 1.08497,-0.0442 1.62763,-0.0615 0.53991,-0.017 1.07993,-0.0298 1.61998,-0.0415 0.52802,-5e-5 1.05453,-0.0386 1.5811,-0.0728 0.53946,-0.0357 1.07935,-0.0644 1.61937,-0.0902 0.55445,-0.0265 1.10923,-0.0449 1.66403,-0.062 0.56086,-0.017 1.12182,-0.0299 1.68281,-0.0417 0.55272,-0.0115 1.1055,-0.0202 1.65828,-0.0281 0.53069,-0.006 1.061,-0.008 1.59098,-0.0375 0.51733,-0.0324 1.03478,-0.0627 1.55245,-0.0893 0.51476,-0.0233 1.02749,-0.0783 1.54078,-0.12219 0.50956,-0.0332 1.01708,-0.0828 1.52428,-0.14113 0.50949,-0.0601 1.02025,-0.10814 1.53142,-0.15121 0.51867,-0.0429 1.03814,-0.075 1.55774,-0.10416 0.52389,-0.0288 1.04814,-0.0504 1.57244,-0.07 0.52736,-0.0194 1.05489,-0.0339 1.58243,-0.0471 0.52971,-0.013 1.05948,-0.0228 1.58926,-0.0317 0.42378,-0.006 0.84708,-0.005 1.26936,-0.0433 2.82382,-0.24948 2.94143,1.08168 0.1176,1.33116 v 0 c -0.45413,0.039 -0.90882,0.0451 -1.3645,0.0483 -0.52612,0.009 -1.05223,0.0185 -1.57827,0.0315 -0.52206,0.0131 -1.04408,0.0274 -1.56595,0.0466 -0.51602,0.0193 -1.03198,0.0405 -1.54759,0.0689 -0.50714,0.0284 -1.01416,0.0597 -1.52039,0.10154 -0.49766,0.0419 -0.99491,0.0886 -1.49092,0.14717 -0.52012,0.0598 -1.04065,0.11075 -1.56317,0.14502 -0.52837,0.0451 -1.05616,0.10156 -1.58605,0.12529 -0.51609,0.0265 -1.03195,0.0568 -1.54771,0.089 -0.54799,0.0299 -1.09627,0.0341 -1.64499,0.0394 -0.54981,0.008 -1.09961,0.0166 -1.64936,0.028 -0.55665,0.0117 -1.11327,0.0246 -1.66979,0.0414 -0.54725,0.0168 -1.09448,0.035 -1.64139,0.0611 -0.53238,0.0254 -1.06463,0.0537 -1.59647,0.0889 -0.54581,0.0355 -1.09161,0.0747 -1.6389,0.0753 -0.53544,0.0116 -1.07086,0.0243 -1.60617,0.0411 -0.53599,0.0171 -1.07194,0.036 -1.60764,0.0608 -0.53907,0.0253 -1.07798,0.0537 -1.61662,0.087 -0.55403,0.0325 -1.10804,0.0548 -1.66318,0.0535 -0.54412,0.008 -1.08823,0.0171 -1.63227,0.0292 -0.51336,0.0118 -1.02669,0.0253 -1.53988,0.0431 -0.49939,0.0178 -0.99874,0.0373 -1.49776,0.0637 -0.48424,0.0261 -0.96833,0.0551 -1.45185,0.0925 -0.49634,0.0378 -0.99263,0.0793 -1.49079,0.0816 -0.48263,0.0137 -0.96522,0.0289 -1.44761,0.0496 -0.45731,0.0201 -0.91455,0.0422 -1.37129,0.073 -0.42703,0.0294 -0.85371,0.0631 -1.27991,0.10276 -0.41916,0.035 -0.83895,0.0471 -1.25924,0.0614 -0.35294,0.0152 -0.70587,0.0319 -1.05821,0.0579 -0.24407,0.0188 -0.4882,0.0388 -0.73085,0.0718 -2.80633,0.4009 -2.99532,-0.92202 -0.18899,-1.32292 z"
       inkscape:connector-curvature="0" />
    <path
       style="opacity:1;fill:#000000;fill-opacity:1;fill-rule:nonzero;stroke:#000000;stroke-width:0.1;stroke-linecap:round;stroke-linejoin:round;stroke-miterlimit:4;stroke-dasharray:none;stroke-dashoffset:0;stroke-opacity:1;paint-order:markers fill stroke"
       id="path6856"
       d="m 152.89407,176.10736 c 0.21851,-0.11557 0.43555,-0.23345 0.65151,-0.35375 0.29818,-0.15223 0.58522,-0.32464 0.87424,-0.49325 0.19939,-0.11969 0.39029,-0.25525 0.55594,-0.41895 -0.46304,0.3544 0.63981,1.00272 0.5246,1.05649 -0.18996,0.10575 -0.37306,0.22291 -0.55834,0.3365 -0.2493,0.16475 -0.50202,0.3254 -0.73153,0.51737 -0.14924,0.12862 -0.26807,0.28029 -0.34189,0.4625 -0.0284,0.0822 0.0127,0.11887 0.0384,0.196 0.0578,0.12683 0.16228,0.22567 0.26533,0.31656 0.18575,0.15318 0.40518,0.25356 0.62549,0.34585 0.20913,0.0826 0.42535,0.14464 0.63824,0.2165 2.6849,0.90967 2.25608,2.17534 -0.42883,1.26567 v 0 c -0.24398,-0.083 -0.49259,-0.1528 -0.73096,-0.2518 -0.36032,-0.15403 -0.71286,-0.33055 -1.00858,-0.59263 -0.27054,-0.25381 -0.51285,-0.53566 -0.63362,-0.89337 -0.11986,-0.38349 -0.15023,-0.76551 0.0128,-1.14406 0.16863,-0.36795 0.40072,-0.6923 0.71416,-0.95277 0.28006,-0.22836 0.57906,-0.43058 0.88322,-0.62548 0.24827,-0.15182 0.492,-0.31373 0.75666,-0.43631 0.0526,-0.0203 0.31077,-0.12622 0.34152,-0.10395 0.77897,0.56428 1.04726,0.69789 0.56493,1.24511 -0.24586,0.23689 -0.51988,0.44207 -0.81434,0.61522 -0.29669,0.17289 -0.59126,0.34987 -0.89716,0.5063 -0.23329,0.12989 -0.46789,0.25697 -0.70408,0.38152 -2.53554,1.26777 -3.13317,0.0725 -0.59763,-1.19527 z"
       inkscape:connector-curvature="0" />
  </g>
</svg>
