<?xml version="1.0" encoding="UTF-8" standalone="no"?>
<!-- Created with Inkscape (http://www.inkscape.org/) -->

<svg
   xmlns:dc="http://purl.org/dc/elements/1.1/"
   xmlns:cc="http://creativecommons.org/ns#"
   xmlns:rdf="http://www.w3.org/1999/02/22-rdf-syntax-ns#"
   xmlns:svg="http://www.w3.org/2000/svg"
   xmlns="http://www.w3.org/2000/svg"
   xmlns:sodipodi="http://sodipodi.sourceforge.net/DTD/sodipodi-0.dtd"
   xmlns:inkscape="http://www.inkscape.org/namespaces/inkscape"
   width="297mm"
   height="210mm"
   viewBox="0 0 297 210"
   version="1.1"
   id="svg8"
   inkscape:version="0.92.1 r15371"
   sodipodi:docname="bolcano-v.svg">
  <defs
     id="defs2" />
  <sodipodi:namedview
     id="base"
     pagecolor="#ffffff"
     bordercolor="#666666"
     borderopacity="1.0"
     inkscape:pageopacity="0.0"
     inkscape:pageshadow="2"
     inkscape:zoom="0.7"
     inkscape:cx="218.67753"
     inkscape:cy="587.29793"
     inkscape:document-units="mm"
     inkscape:current-layer="layer1"
     showgrid="false"
     inkscape:window-width="1920"
     inkscape:window-height="1046"
     inkscape:window-x="-11"
     inkscape:window-y="-11"
     inkscape:window-maximized="1" />
  <metadata
     id="metadata5">
    <rdf:RDF>
      <cc:Work
         rdf:about="">
        <dc:format>image/svg+xml</dc:format>
        <dc:type
           rdf:resource="http://purl.org/dc/dcmitype/StillImage" />
        <dc:title></dc:title>
      </cc:Work>
    </rdf:RDF>
  </metadata>
  <g
     inkscape:label="Layer 1"
     inkscape:groupmode="layer"
     id="layer1"
     transform="translate(0,-87)">
    <path
       style="opacity:1;fill:#000000;fill-opacity:1;fill-rule:nonzero;stroke:#000000;stroke-width:0.39700001;stroke-linecap:round;stroke-linejoin:round;stroke-miterlimit:4;stroke-dasharray:none;stroke-dashoffset:0;stroke-opacity:1;paint-order:markers fill stroke"
       id="path4489"
       d="m 12.711513,187.30048 c 0.242649,0.033 0.486783,0.053 0.730855,0.0718 0.34333,0.0217 0.686815,0.05 1.030987,0.0494 0.410166,-0.008 0.820149,-0.0238 1.23021,-0.0361 0.481988,-0.0138 0.964079,-0.0235 1.446177,-0.0324 0.516913,-0.013 1.034267,-0.008 1.550902,-0.0293 0.557969,-0.0337 1.116794,-0.0552 1.674161,-0.0979 0.604824,-0.0533 1.209936,-0.10304 1.815584,-0.14604 0.626857,-0.0437 1.254336,-0.0773 1.881982,-0.10711 0.619166,-0.0192 1.236914,-0.0578 1.854591,-0.10345 0.627423,-0.0479 1.255369,-0.0881 1.883617,-0.12331 0.620739,-0.0342 1.241845,-0.0609 1.863026,-0.0854 0.618617,-0.0234 1.237427,-0.0412 1.856261,-0.0576 0.626841,-0.016 1.253773,-0.0281 1.880722,-0.0388 0.668824,-0.0111 1.337696,-0.019 2.006571,-0.0261 0.711118,0.003 1.421312,-0.0326 2.131523,-0.0632 0.790411,-0.0342 1.581153,-0.0599 2.37196,-0.0829 0.846969,-0.0239 1.694096,-0.0414 2.541252,-0.0571 0.885333,-0.016 1.770729,-0.0279 2.656141,-0.0385 0.915877,-0.0107 1.831779,-0.0188 2.74769,-0.026 0.915496,0.004 1.830245,-0.0316 2.744986,-0.0633 0.910889,-0.0325 1.821984,-0.0587 2.733133,-0.0827 0.898252,-0.0233 1.796637,-0.0409 2.69504,-0.057 0.891617,-0.0156 1.783289,-0.0275 2.674972,-0.0384 0.881377,-0.0105 1.762779,-0.0186 2.644188,-0.0259 0.894551,-0.007 1.789115,-0.0127 2.683682,-0.0175 0.932957,0.005 1.86532,-0.0149 2.79773,-0.0442 0.955554,-0.032 1.911273,-0.0583 2.867057,-0.0821 0.956119,-0.0235 1.912361,-0.0414 2.868626,-0.0576 0.94484,-0.006 1.888918,-0.0339 2.832965,-0.0711 0.945655,-0.0388 1.891543,-0.0714 2.837545,-0.10051 0.924298,-0.0282 1.848773,-0.0501 2.773286,-0.07 0.895638,-0.019 1.791356,-0.0337 2.687092,-0.0473 0.873122,-0.0165 1.746575,-0.0145 2.619507,-0.0395 0.873366,-0.0324 1.746618,-0.0676 2.620063,-0.0979 0.902034,-0.0308 1.804324,-0.0533 2.706637,-0.074 0.928225,-0.0185 1.855468,-0.0694 2.782965,-0.10901 0.978021,-0.0416 1.956432,-0.0728 2.934914,-0.101 1.027054,-0.0176 2.052947,-0.0687 3.079007,-0.11435 1.07258,-0.0445 2.14531,-0.0807 3.21739,-0.13628 1.10023,-0.06 2.20094,-0.11055 3.30183,-0.1568 1.06378,-0.0443 2.12794,-0.0785 3.19217,-0.11 1.01134,-0.0293 2.02284,-0.053 3.03438,-0.0743 0.96489,-0.0202 1.92987,-0.0357 2.89487,-0.0501 0.92477,-0.0111 1.84933,-0.0198 2.77361,-0.0529 0.89145,-0.0357 1.78296,-0.0695 2.67462,-0.0992 0.86416,-0.0287 1.72851,-0.051 2.59291,-0.0712 0.86379,-0.0198 1.72768,-0.0346 2.59159,-0.0481 0.88331,-0.0134 1.76667,-0.0234 2.65004,-0.0324 0.89389,-0.009 1.78779,-0.0157 2.68171,-0.0219 0.8823,-0.006 1.76461,-0.0106 2.64692,-0.0148 0.84184,-0.004 1.68368,-0.007 2.52552,-0.01 0.7978,-0.003 1.59559,-0.005 2.39338,-0.007 0.759,-0.002 1.51799,-0.003 2.27699,-0.005 0.72768,-0.001 1.45536,-0.002 2.18305,-0.003 0.72562,-0.0106 1.4506,0.005 2.1757,0.031 0.72432,0.0278 1.44879,0.0515 2.17334,0.0725 0.73668,0.0208 1.47347,0.0368 2.21029,0.0511 0.75196,0.0143 1.50398,0.025 2.256,0.0345 0.77571,0.0247 1.55087,0.0641 2.3263,0.0962 0.78919,0.0321 1.57867,0.0563 2.36819,0.0785 0.80308,0.0125 1.60518,0.0452 2.40719,0.0868 0.79815,0.0428 1.59665,0.0786 2.39533,0.10982 0.82138,0.0222 1.64174,0.0621 2.46198,0.10982 0.83653,0.0498 1.67357,0.09 2.51082,0.12524 0.87609,0.0344 1.75083,0.0964 2.62609,0.14704 0.89161,0.0511 1.78385,0.09 2.67621,0.12514 0.91078,0.0239 1.82007,0.0808 2.72958,0.13219 0.89368,0.0504 1.78784,0.0914 2.68219,0.12788 0.88434,0.0322 1.76717,0.0959 2.6505,0.14788 0.85099,0.0502 1.70254,0.0899 2.55424,0.12565 0.83916,0.0349 1.67865,0.0612 2.51818,0.0855 0.82286,0.0235 1.64586,0.0415 2.46888,0.0577 0.81566,0.0159 1.63138,0.028 2.44711,0.039 0.82376,0.0108 1.64756,0.0189 2.47137,0.0263 0.82972,0.007 1.65946,0.0128 2.48921,0.0178 0.82382,0.005 1.64765,0.009 2.47149,0.012 0.81673,0.003 1.63347,0.006 2.4502,0.008 0.81188,0.002 1.62376,0.004 2.43564,0.005 0.81589,0.0162 1.63132,0.0495 2.4469,0.0763 0.80415,0.0264 1.60847,0.0469 2.41284,0.0654 0.81132,0.0152 1.62151,0.0654 2.43191,0.10467 0.79798,0.0389 1.59636,0.0689 2.39479,0.0967 0.79644,0.0162 1.59137,0.067 2.38647,0.11299 0.7892,0.0459 1.5789,0.082 2.36874,0.11479 0.78896,0.0319 1.5782,0.0564 2.36749,0.0787 0.77621,0.0216 1.55255,0.0381 2.32891,0.0532 0.78424,0.0298 1.5679,0.0729 2.35188,0.10883 0.76268,0.0349 1.52568,0.0622 2.28875,0.087 0.7465,0.024 1.49317,0.0424 2.23988,0.0591 0.73549,0.0163 1.47106,0.0286 2.20664,0.0399 0.72807,0.011 1.45618,0.0194 2.18429,0.0269 0.71218,0.007 1.42438,0.013 2.13658,0.0182 0.69974,0.005 1.39948,0.009 2.09923,0.0123 0.6986,0.003 1.39721,0.006 2.09582,0.008 0.69921,0.002 1.39841,0.004 2.09762,0.006 0.70625,0.002 1.4125,0.003 2.11875,0.004 0.73622,0.001 1.47243,0.002 2.20864,0.003 0.76571,0.0116 1.5309,-0.0181 2.29599,-0.0441 0.80187,-0.0277 1.60391,-0.0499 2.40601,-0.0697 0.80552,-0.0197 1.61114,-0.0347 2.41678,-0.0482 0.78901,-0.0131 1.57806,-0.0233 2.36713,-0.0325 0.739,-0.005 1.47715,-0.047 2.21524,-0.0807 0.68237,-0.0315 1.36495,-0.0579 2.04761,-0.082 0.635,-0.0222 1.27014,-0.0398 1.90532,-0.056 0.60251,-0.0151 1.2051,-0.0269 1.80771,-0.0378 0.5805,-0.0103 1.16106,-0.0182 1.7416,-0.0254 0.5656,-0.007 1.13123,-0.0123 1.69683,-0.0172 0.49337,-0.006 0.98769,0.007 1.47873,-0.0483 0.0817,0.0536 0.45458,-0.16227 0.31681,-0.0832 -0.12078,0.0663 -0.13057,0.34734 -0.16372,0.29534 -0.1156,-0.16575 -0.26675,-0.30098 -0.40929,-0.44264 -0.20087,-0.18927 -0.40692,-0.37211 -0.58054,-0.58736 -0.3955,-0.57064 -0.0999,-1.1262 0.54686,-1.25214 0.3165,-0.0205 0.62998,0.0359 0.93864,0.0991 0.37954,0.0784 0.75668,0.16837 1.13152,0.26675 0.43447,0.10717 0.86323,0.23325 1.28838,0.3724 0.42387,0.13771 0.8187,0.33538 1.16946,0.60967 0.47422,0.42851 0.48702,0.97312 0.23045,1.52216 -0.29236,0.45772 -0.69797,0.82874 -1.08931,1.20029 -0.4645,0.41128 -0.95073,0.79697 -1.4292,1.19166 -0.0795,0.0642 -0.15896,0.12834 -0.23847,0.19251 -2.20596,1.78042 -3.04527,0.7405 -0.83928,-1.03991 v 0 c 0.0758,-0.0612 0.15171,-0.1224 0.22754,-0.1836 0.45466,-0.37481 0.91575,-0.74209 1.35951,-1.12997 0.2863,-0.27161 0.57541,-0.54335 0.82489,-0.85003 0.0408,-0.0297 0.0742,0.19941 0.1121,0.1348 -0.20841,-0.18837 -0.4862,-0.27827 -0.74343,-0.37755 -0.40028,-0.13107 -0.80393,-0.24967 -1.21314,-0.35019 -0.35197,-0.0932 -0.70659,-0.17665 -1.06309,-0.25063 -0.14272,-0.0303 -0.37629,-0.0184 -0.50644,-0.0765 -0.0103,-0.005 0.0217,-0.006 0.0325,-0.009 0.3398,-0.12604 0.56705,-0.58186 0.30937,-0.89828 0.13182,0.17881 0.32433,0.30502 0.47393,0.46778 0.2459,0.24464 0.49974,0.48658 0.66442,0.79689 0.20235,0.43109 0.23222,0.86439 -0.0948,1.24903 -0.31917,0.27599 -0.68821,0.42703 -1.11255,0.46083 -0.53525,0.0557 -1.07262,0.0551 -1.61033,0.056 -0.56391,0.005 -1.12779,0.0102 -1.69167,0.0171 -0.57814,0.007 -1.15624,0.0151 -1.73432,0.0253 -0.59928,0.0108 -1.19854,0.0225 -1.79773,0.0375 -0.63077,0.016 -1.26151,0.0335 -1.8921,0.0556 -0.67803,0.024 -1.35598,0.0502 -2.03371,0.0815 -0.75321,0.0344 -1.50649,0.0774 -2.26064,0.082 -0.78681,0.009 -1.5736,0.0194 -2.36035,0.0324 -0.80208,0.0135 -1.60414,0.0283 -2.4061,0.048 -0.79802,0.0198 -1.59598,0.0418 -2.39377,0.0694 -0.78062,0.0265 -1.56135,0.0564 -2.3426,0.0448 -0.73646,-7.9e-4 -1.47292,-0.002 -2.20937,-0.003 -0.70659,-0.001 -1.41318,-0.002 -2.11977,-0.004 -0.69968,-0.002 -1.39936,-0.003 -2.09904,-0.006 -0.69934,-0.002 -1.39868,-0.005 -2.09801,-0.008 -0.7008,-0.003 -1.40159,-0.007 -2.10238,-0.0123 -0.71358,-0.005 -1.42717,-0.0108 -2.14073,-0.0182 -0.73029,-0.008 -1.46058,-0.016 -2.19082,-0.027 -0.73874,-0.0113 -1.47745,-0.0237 -2.2161,-0.0401 -0.7512,-0.0168 -1.50238,-0.0353 -2.25339,-0.0595 -0.769,-0.025 -1.53792,-0.0525 -2.30653,-0.0877 -0.77224,-0.0354 -1.54418,-0.0776 -2.31665,-0.10768 -0.78028,-0.0152 -1.56053,-0.0318 -2.34066,-0.0534 -0.79518,-0.0225 -1.59031,-0.0471 -2.38517,-0.0793 -0.7971,-0.0331 -1.59406,-0.0695 -2.39051,-0.11587 -0.78488,-0.0454 -1.56957,-0.0958 -2.35578,-0.11157 -0.80452,-0.028 -1.60896,-0.0582 -2.41302,-0.0974 -0.79906,-0.0387 -1.59791,-0.0883 -2.39787,-0.10345 -0.80877,-0.0186 -1.61751,-0.0392 -2.42606,-0.0658 -0.8018,-0.0263 -1.60345,-0.0589 -2.40553,-0.0756 -0.81228,-0.002 -1.62456,-0.003 -2.43684,-0.005 -0.81732,-0.002 -1.63464,-0.005 -2.45196,-0.008 -0.82468,-0.003 -1.64936,-0.007 -2.47404,-0.012 -0.8311,-0.005 -1.66218,-0.0105 -2.49326,-0.0178 -0.82576,-0.007 -1.65152,-0.0156 -2.47725,-0.0264 -0.81855,-0.011 -1.63708,-0.0232 -2.45555,-0.0391 -0.82708,-0.0164 -1.65413,-0.0344 -2.48104,-0.058 -0.84539,-0.0244 -1.69074,-0.0509 -2.53576,-0.0861 -0.85917,-0.0361 -1.7182,-0.0761 -2.57665,-0.12678 -0.8753,-0.0515 -1.75011,-0.11472 -2.6264,-0.14668 -0.90135,-0.0368 -1.8025,-0.0781 -2.70317,-0.1289 -0.90191,-0.051 -1.80358,-0.1075 -2.70676,-0.1311 -0.90054,-0.0355 -1.80096,-0.0748 -2.70075,-0.12632 -0.86829,-0.0502 -1.73606,-0.11182 -2.60516,-0.14601 -0.84439,-0.0356 -1.68856,-0.076 -2.53222,-0.1263 -0.81179,-0.0472 -1.62368,-0.0867 -2.43661,-0.1086 -0.80439,-0.0315 -1.6086,-0.0675 -2.41246,-0.11059 -0.79141,-0.0412 -1.58289,-0.0733 -2.37536,-0.0856 -0.79543,-0.0223 -1.59082,-0.0468 -2.38592,-0.0791 -0.76269,-0.0316 -1.52511,-0.07 -2.28805,-0.0951 -0.75497,-0.01 -1.50993,-0.0203 -2.26483,-0.0347 -0.74113,-0.0143 -1.48223,-0.0305 -2.22321,-0.0514 -0.72741,-0.0211 -1.45474,-0.045 -2.18192,-0.0728 -0.70879,-0.0251 -1.41742,-0.0408 -2.12673,-0.0302 -0.72746,7.9e-4 -1.45493,0.002 -2.18239,0.003 -0.75867,10e-4 -1.51733,0.003 -2.276,0.005 -0.79737,0.002 -1.59474,0.004 -2.39211,0.007 -0.84124,0.003 -1.68247,0.006 -2.52371,0.01 -0.88138,0.004 -1.76275,0.009 -2.64412,0.0147 -0.89243,0.006 -1.78486,0.0129 -2.67726,0.0218 -0.88095,0.009 -1.76189,0.019 -2.64278,0.0323 -0.86045,0.0134 -1.72088,0.0282 -2.58121,0.0479 -0.85993,0.0201 -1.71983,0.0423 -2.57953,0.0708 -0.89061,0.0297 -1.78107,0.0635 -2.67147,0.0991 -0.93356,0.0333 -1.86739,0.0425 -2.80145,0.0536 -0.96227,0.0143 -1.92452,0.0298 -2.88668,0.0499 -1.00772,0.0212 -2.01539,0.0448 -3.02291,0.074 -1.05872,0.0314 -2.11737,0.0653 -3.17565,0.10941 -1.09655,0.0461 -2.19291,0.0964 -3.28881,0.15619 -1.07533,0.0557 -2.15131,0.0923 -3.22714,0.13675 -1.033016,0.0459 -2.065867,0.0973 -3.099875,0.11512 -0.972315,0.028 -1.944558,0.059 -2.916415,0.10033 -0.936273,0.04 -1.872289,0.0913 -2.8093,0.10988 -0.897091,0.0206 -1.794156,0.0429 -2.690972,0.0736 -0.87622,0.0304 -1.752248,0.0658 -2.628394,0.0982 -0.87888,0.0248 -1.758241,0.0238 -2.637311,0.0399 -0.892863,0.0135 -1.78571,0.0282 -2.678475,0.0471 -0.920427,0.0198 -1.840818,0.0416 -2.761033,0.0697 -0.942136,0.029 -1.884164,0.0614 -2.825956,0.1001 -0.954019,0.0376 -1.908086,0.0655 -2.862903,0.072 -0.952717,0.0162 -1.905413,0.034 -2.857987,0.0574 -0.952955,0.0238 -1.905849,0.05 -2.858572,0.0819 -0.943948,0.0296 -1.88786,0.0493 -2.832359,0.0448 -0.893291,0.005 -1.786578,0.0102 -2.679851,0.0175 -0.879647,0.007 -1.759288,0.0154 -2.638903,0.0259 -0.889143,0.0109 -1.778273,0.0228 -2.667347,0.0383 -0.894662,0.016 -1.789303,0.0335 -2.683814,0.0567 -0.907444,0.0239 -1.814836,0.0499 -2.72202,0.0823 -0.926674,0.0321 -1.853364,0.0681 -2.780795,0.0641 -0.914075,0.007 -1.828141,0.0152 -2.742184,0.0259 -0.882499,0.0106 -1.764985,0.0224 -2.647405,0.0383 -0.842436,0.0156 -1.684848,0.033 -2.527101,0.0567 -0.784564,0.0228 -1.569064,0.0483 -2.353239,0.0823 -0.724633,0.0313 -1.449263,0.0675 -2.174817,0.0644 -0.666004,0.007 -1.332002,0.0149 -1.997956,0.026 -0.622794,0.0107 -1.245573,0.0226 -1.86826,0.0385 -0.613087,0.0163 -1.226145,0.0338 -1.839013,0.057 -0.613804,0.0242 -1.227529,0.0506 -1.840891,0.0843 -0.620355,0.0347 -1.240409,0.0745 -1.859947,0.12177 -0.629312,0.0465 -1.258736,0.0858 -1.889549,0.10557 -0.617272,0.0294 -1.234381,0.0624 -1.85088,0.10527 -0.603489,0.0428 -1.20642,0.0926 -1.809099,0.14556 -0.572787,0.0431 -1.146881,0.0669 -1.720286,0.10057 -0.526781,0.0212 -1.054115,0.0182 -1.581166,0.0302 -0.476999,0.009 -0.95399,0.0184 -1.430881,0.032 -0.424433,0.0127 -0.848783,0.0291 -1.273348,0.0367 -0.377504,-0.002 -0.754256,-0.0269 -1.130776,-0.0534 -0.272832,-0.0211 -0.545705,-0.0439 -0.816885,-0.0813 -2.8063298,-0.4009 -2.6173416,-1.72382 0.188988,-1.32291 z"
       inkscape:connector-curvature="0" />
    <path
       style="opacity:1;fill:#000000;fill-opacity:1;fill-rule:nonzero;stroke:#000000;stroke-width:0.39700001;stroke-linecap:round;stroke-linejoin:round;stroke-miterlimit:4;stroke-dasharray:none;stroke-dashoffset:0;stroke-opacity:1;paint-order:markers fill stroke"
       id="path4491"
       d="m 25.453864,146.12635 c 0.294363,0 0.588726,0 0.883089,0 0.412041,2.2e-4 0.823388,-0.0342 1.234561,-0.0583 0.452912,-0.0393 0.90383,-0.0988 1.357329,-0.1309 2.828115,-0.1949 2.919992,1.13828 0.09188,1.33319 v 0 c -0.458105,0.0305 -0.91308,0.0966 -1.370862,0.13176 -0.437261,0.0257 -0.874688,0.0616 -1.312907,0.0606 -0.294363,0 -0.588726,0 -0.883089,0 -2.834822,0 -2.834822,-1.33635 0,-1.33635 z"
       inkscape:connector-curvature="0" />
    <path
       style="opacity:1;fill:#000000;fill-opacity:1;fill-rule:nonzero;stroke:#000000;stroke-width:0.39700001;stroke-linecap:round;stroke-linejoin:round;stroke-miterlimit:4;stroke-dasharray:none;stroke-dashoffset:0;stroke-opacity:1;paint-order:markers fill stroke"
       id="path4493"
       d="m 24.445268,147.46813 c 0.07761,0.27008 0.11619,0.5488 0.173116,0.82339 0.08209,0.36937 0.145547,0.74232 0.201402,1.11644 0.06222,0.42838 0.105285,0.85916 0.144237,1.29018 0.02975,0.47707 0.08782,0.95146 0.139399,1.42649 0.05648,0.51573 0.09931,1.03276 0.136602,1.55019 0.03959,0.56345 0.06712,1.12766 0.09289,1.69188 0.0257,0.58815 0.04479,1.17657 0.0624,1.76502 0.01722,0.59975 0.03011,1.19961 0.04201,1.79949 0.0114,0.58327 0.02024,1.16659 0.0283,1.74992 0.008,0.58308 0.01378,1.16618 0.01908,1.74929 0.0054,0.59586 0.0093,1.19172 0.01287,1.7876 0.0036,0.60036 0.0063,1.20072 0.0087,1.8011 0.006,0.59742 -0.004,1.19507 0.01349,1.7923 0.02465,0.59939 0.05445,1.19855 0.08015,1.7979 0.0249,0.58437 0.04446,1.16894 0.06226,1.75356 0.01706,0.56845 0.03018,1.137 0.04214,1.70557 8.73e-4,0.56804 0.03922,1.1347 0.07345,1.70142 0.03542,0.57732 0.06487,1.15499 0.0904,1.73283 0.0155,0.58633 0.05102,1.17123 0.09336,1.75612 0.04621,0.61111 0.08334,1.22282 0.11655,1.83477 0.02986,0.60493 0.05396,1.20984 0.09897,1.81388 0.04854,0.60862 0.09208,1.21761 0.131116,1.82691 0.03849,0.59974 0.06712,1.20002 0.09297,1.80042 0.02526,0.59859 0.04517,1.19739 0.06266,1.79626 0.0056,0.59322 0.04832,1.18483 0.08709,1.77653 0.03897,0.58471 0.07087,1.16985 0.09972,1.75513 0.04238,0.55983 0.09439,1.11887 0.139004,1.67853 0.04436,0.56072 0.07881,1.12214 0.110088,1.68372 0.03031,0.55264 0.05341,1.10563 0.07444,1.65869 0.03553,0.53687 0.08168,1.07296 0.120851,1.60957 0.03953,0.54564 0.07,1.09186 0.09765,1.63821 0.04198,0.53236 0.09295,1.06395 0.136504,1.59619 0.04402,0.5426 0.07784,1.08594 0.108516,1.62943 0.03001,0.54035 0.0527,1.08106 0.07334,1.62184 0.01696,0.52867 0.06741,1.05562 0.107183,1.58293 0.04071,0.53997 0.07238,1.08054 0.101039,1.62126 0.0281,0.53874 0.04934,1.0778 0.06866,1.61692 0.01421,0.50694 0.06459,1.01207 0.103899,1.5175 0.04021,0.51732 0.07111,1.03527 0.09903,1.55338 0.01664,0.50161 0.05219,1.00145 0.09763,1.50115 0.04751,0.50412 0.08596,1.00901 0.120327,1.51418 0.03443,0.51497 0.06011,1.03045 0.08341,1.54603 0.01,0.4951 0.05749,0.98786 0.100137,1.48087 0.04419,0.50493 0.07862,1.01062 0.109577,1.51651 0.03096,0.51505 0.05402,1.03052 0.07496,1.54606 0.0208,0.52138 0.03632,1.04295 0.05044,1.56455 0.01397,0.52565 0.02445,1.05139 0.03396,1.57714 0.01873,0.52947 0.01064,1.05837 -0.01027,1.58755 -0.02228,0.38562 -0.02304,0.77569 0.06104,1.15418 0.04884,0.17996 0.160586,0.31996 0.294275,0.44471 0.155644,0.12825 0.338725,0.21705 0.527775,0.28407 0.270446,0.0867 0.551066,0.13453 0.830736,0.18009 0.353203,0.0654 0.712367,0.0719 1.07029,0.0817 0.431199,0.0102 0.862491,0.0157 1.293773,0.0209 0.454498,-0.0114 0.908483,-0.0377 1.36262,-0.0585 0.492209,-0.0225 0.984644,-0.0394 1.477121,-0.0547 0.506132,-0.0154 1.012372,-0.0268 1.518629,-0.0371 0.515334,-0.0104 1.030716,-0.018 1.546103,-0.025 0.20951,0.005 0.417658,-0.0101 0.625552,-0.0331 2.819439,-0.29493 2.958467,1.03417 0.139028,1.32909 v 0 c -0.248235,0.0249 -0.496557,0.0457 -0.746461,0.0402 -0.512329,0.007 -1.02465,0.0146 -1.536925,0.0249 -0.501555,0.0102 -1.003091,0.0215 -1.504519,0.0368 -0.485862,0.0151 -0.971682,0.0317 -1.45728,0.0539 -0.479975,0.022 -0.9598,0.0507 -1.440243,0.0598 -0.438076,-0.005 -0.876163,-0.011 -1.314151,-0.0214 -0.417854,-0.0116 -0.83687,-0.0234 -1.249244,-0.0988 -0.365895,-0.0601 -0.73261,-0.12601 -1.084016,-0.24756 -0.362781,-0.13974 -0.711372,-0.31629 -0.997792,-0.58458 -0.314576,-0.31833 -0.562533,-0.68076 -0.663773,-1.12417 -0.09691,-0.48703 -0.122669,-0.9826 -0.08784,-1.4784 0.01995,-0.50353 0.02779,-1.0067 0.0094,-1.51053 -0.0094,-0.52176 -0.01982,-1.04351 -0.03369,-1.56518 -0.01394,-0.51558 -0.02928,-1.03112 -0.04983,-1.54648 -0.02056,-0.5064 -0.04317,-1.01274 -0.07356,-1.51867 -0.03025,-0.4947 -0.06389,-0.9892 -0.107101,-1.48296 -0.04422,-0.51125 -0.0928,-1.02232 -0.103743,-1.5357 -0.02283,-0.50545 -0.04796,-1.01083 -0.08169,-1.51569 -0.03365,-0.49505 -0.07134,-0.98982 -0.117914,-1.48384 -0.04691,-0.51603 -0.08372,-1.0323 -0.10119,-1.55028 -0.02733,-0.50752 -0.05757,-1.0149 -0.09694,-1.52164 -0.04074,-0.52401 -0.09256,-1.04769 -0.107065,-1.57327 -0.01903,-0.53149 -0.03996,-1.06292 -0.06764,-1.59404 -0.02812,-0.53079 -0.05918,-1.06144 -0.09913,-1.59148 -0.04101,-0.5438 -0.09273,-1.08725 -0.109996,-1.63248 -0.02032,-0.53266 -0.04265,-1.06526 -0.07219,-1.5975 -0.03003,-0.53226 -0.0631,-1.06437 -0.106189,-1.59575 -0.04466,-0.54605 -0.09766,-1.09137 -0.139249,-1.63765 -0.02713,-0.53642 -0.05701,-1.07272 -0.09581,-1.60845 -0.04028,-0.5521 -0.08843,-1.10362 -0.123431,-1.65609 -0.02071,-0.54521 -0.04347,-1.09035 -0.07333,-1.63514 -0.03067,-0.55095 -0.06443,-1.10176 -0.107933,-1.65187 -0.04566,-0.57311 -0.09955,-1.14553 -0.141609,-1.71892 -0.02848,-0.57807 -0.05998,-1.156 -0.09847,-1.7335 -0.03983,-0.60782 -0.08323,-1.21558 -0.08939,-1.82495 -0.01729,-0.59269 -0.037,-1.18532 -0.06199,-1.77775 -0.02544,-0.59108 -0.05359,-1.18205 -0.09148,-1.77248 -0.03872,-0.60471 -0.08199,-1.2091 -0.130162,-1.81314 -0.04557,-0.61297 -0.07077,-1.22678 -0.100699,-1.84068 -0.03276,-0.60391 -0.0694,-1.20759 -0.115026,-1.81069 -0.04323,-0.59737 -0.07948,-1.19481 -0.09555,-1.79363 -0.02519,-0.57064 -0.0543,-1.1411 -0.08927,-1.71123 -0.03528,-0.58418 -0.07425,-1.16836 -0.07558,-1.75389 -0.01186,-0.56438 -0.02489,-1.12875 -0.04182,-1.693 -0.01762,-0.57909 -0.03699,-1.15813 -0.06165,-1.73697 -0.02597,-0.6057 -0.05623,-1.21121 -0.08083,-1.81697 -0.01697,-0.6082 -0.0089,-1.21673 -0.01403,-1.82512 -0.0024,-0.59948 -0.0051,-1.19895 -0.0087,-1.79842 -0.0036,-0.5945 -0.0074,-1.189 -0.01284,-1.78348 -0.0053,-0.58101 -0.011,-1.16202 -0.01901,-1.743 -0.008,-0.58064 -0.01681,-1.16128 -0.02816,-1.74187 -0.01181,-0.59539 -0.02459,-1.19076 -0.04167,-1.78602 -0.0174,-0.58145 -0.03624,-1.16287 -0.06161,-1.74403 -0.02523,-0.55253 -0.05213,-1.10504 -0.09083,-1.65682 -0.03609,-0.50133 -0.07754,-1.00228 -0.132248,-1.50197 -0.05244,-0.48303 -0.111271,-0.96547 -0.141793,-1.45057 -0.03656,-0.40533 -0.0768,-0.81048 -0.135055,-1.21337 -0.0521,-0.35035 -0.111721,-0.69951 -0.188832,-1.04533 -0.04899,-0.24156 -0.08459,-0.48607 -0.148865,-0.72435 -0.778785,-2.72575 0.506145,-3.09287 1.284931,-0.36712 z"
       inkscape:connector-curvature="0" />
    <path
       style="opacity:1;fill:#000000;fill-opacity:1;fill-rule:nonzero;stroke:#000000;stroke-width:0.39700001;stroke-linecap:round;stroke-linejoin:round;stroke-miterlimit:4;stroke-dasharray:none;stroke-dashoffset:0;stroke-opacity:1;paint-order:markers fill stroke"
       id="path4495"
       d="m 233.20887,132.7775 c 0.24265,0.033 0.48678,0.053 0.73086,0.0718 0.35233,0.0261 0.70526,0.0427 1.0582,0.0579 0.4133,0.0173 0.82679,0.0291 1.2403,0.0398 0.4468,0.0144 0.89413,0.0111 1.34051,0.0359 0.471,0.0262 0.89794,0.19084 1.29512,0.43558 0.36366,0.24157 0.6314,0.58036 0.86503,0.94291 0.22386,0.36335 0.37763,0.76172 0.51422,1.16418 0.13884,0.42251 0.23541,0.85689 0.32235,1.29251 0.0892,0.45889 0.15278,0.92213 0.21026,1.38588 0.0586,0.48322 0.10106,0.96816 0.13958,1.45332 0.0389,0.49975 0.0674,1.0002 0.0934,1.50077 0.026,0.51098 0.0452,1.02226 0.0627,1.53359 0.0174,0.51861 0.0304,1.03735 0.0422,1.55611 0.0117,0.52377 0.0205,1.0476 0.0284,1.57144 0.0112,0.53875 -0.0192,1.07735 -0.0409,1.61552 -0.0215,0.5263 -0.0385,1.05276 -0.0538,1.57926 -0.0151,0.52855 -0.0266,1.0572 -0.0369,1.58586 -0.008,0.53473 -0.014,1.06903 -0.0456,1.60294 -0.0341,0.50601 -0.0656,1.01218 -0.0931,1.51859 -0.0273,0.51062 -0.0479,1.02155 -0.0665,1.53254 -0.027,0.49612 -0.026,0.992 -0.0125,1.4884 0.0158,0.50114 0.0306,1.0023 0.0435,1.50352 0.013,0.51293 0.0228,1.02593 0.0316,1.53894 0.009,0.51995 0.0154,1.03994 0.0214,1.55993 0.006,0.52468 0.0104,1.04938 0.0144,1.57409 0.004,0.52788 0.007,1.05578 0.01,1.58367 0.003,0.53005 0.005,1.06009 0.007,1.59015 0.002,0.5315 0.003,1.06301 0.004,1.59452 0.001,0.53249 0.002,1.06499 0.003,1.59748 8e-4,0.53316 0.001,1.06632 0.002,1.59948 5.3e-4,0.5336 10e-4,1.06721 10e-4,1.60082 2.7e-4,0.53391 5.3e-4,1.06782 8e-4,1.60173 2.5e-4,0.53412 5.3e-4,1.06823 5.3e-4,1.60234 1.6e-4,0.53426 2.6e-4,1.06851 5.2e-4,1.60276 -0.0111,0.52371 0.0191,1.04654 0.0456,1.56929 0.028,0.53701 0.0508,1.07426 0.0713,1.6116 0.0202,0.53706 0.0354,1.07429 0.0493,1.61154 0.0136,0.53629 0.0239,1.07265 0.0332,1.60903 0.006,0.52546 0.0484,1.04976 0.0807,1.5741 0.0332,0.53819 0.0592,1.07678 0.0827,1.61546 0.023,0.53751 0.0405,1.07522 0.0563,1.61298 0.011,0.506 0.0588,1.01036 0.0958,1.51493 0.0379,0.51675 0.067,1.03407 0.0934,1.55152 0.0261,0.52281 0.0457,1.04592 0.0635,1.56907 0.0329,0.51627 0.0766,1.03178 0.11349,1.54778 0.0377,0.53213 0.0665,1.06481 0.0927,1.59761 0.0257,0.53321 0.0451,1.0667 0.0627,1.60023 0.0141,0.52365 0.0624,1.04571 0.10013,1.56803 0.0388,0.53675 0.0689,1.07405 0.0962,1.61149 0.0167,0.52693 0.0523,1.05228 0.0961,1.57752 0.0464,0.53746 0.0846,1.07555 0.11887,1.6139 0.0337,0.5381 0.0592,1.07667 0.0824,1.61532 0.01,0.5111 0.057,1.01993 0.0997,1.52899 0.0438,0.51543 0.0782,1.03157 0.10911,1.5479 0.0307,0.52217 0.0538,1.04475 0.0747,1.56738 0.0207,0.52622 0.0362,1.05261 0.0503,1.57904 0.0139,0.52892 0.0243,1.05793 0.0339,1.58695 0.009,0.53075 0.0164,1.06154 0.0228,1.59233 0.006,0.53199 0.0111,1.06399 0.0154,1.59599 0.008,0.52329 -0.002,1.04697 0.0178,1.57001 0.0264,0.50411 0.057,1.00798 0.0831,1.51212 0.0264,0.51722 0.0464,1.03475 0.0645,1.55233 0.0129,0.42677 0.0317,0.8534 0.0298,1.28041 -0.0173,2.83476 -1.35357,2.82663 -1.33632,-0.008 v 0 c 0.003,-0.40871 -0.0181,-0.8171 -0.029,-1.22561 -0.0178,-0.51014 -0.0375,-1.02023 -0.0635,-1.53003 -0.0264,-0.51099 -0.0577,-1.02169 -0.084,-1.53269 -0.0188,-0.53561 -0.0114,-1.07169 -0.0187,-1.60755 -0.004,-0.53025 -0.009,-1.06049 -0.0153,-1.59072 -0.006,-0.52818 -0.0134,-1.05635 -0.0227,-1.58448 -0.009,-0.5251 -0.0198,-1.05018 -0.0336,-1.57519 -0.0139,-0.52054 -0.0292,-1.04104 -0.0497,-1.56137 -0.0205,-0.5138 -0.0431,-1.02754 -0.0734,-1.54088 -0.0303,-0.50572 -0.0639,-1.01126 -0.10682,-1.51609 -0.0442,-0.5271 -0.0925,-1.05403 -0.1031,-1.58321 -0.0228,-0.52953 -0.0479,-1.05898 -0.081,-1.58798 -0.0337,-0.52954 -0.0712,-1.05884 -0.11693,-1.5875 -0.0451,-0.53973 -0.0817,-1.07962 -0.0991,-1.62106 -0.0268,-0.52791 -0.0563,-1.05569 -0.0944,-1.58293 -0.039,-0.5397 -0.0885,-1.07913 -0.10287,-1.62021 -0.0173,-0.5264 -0.0365,-1.05275 -0.0618,-1.57884 -0.0256,-0.52289 -0.0539,-1.04567 -0.0909,-1.56789 -0.038,-0.53259 -0.0838,-1.06463 -0.11611,-1.5976 -0.0175,-0.51564 -0.0368,-1.03124 -0.0625,-1.54655 -0.0258,-0.50752 -0.0544,-1.01491 -0.0915,-1.52175 -0.0384,-0.52399 -0.0875,-1.04776 -0.0987,-1.57325 -0.0156,-0.53147 -0.0328,-1.06291 -0.0556,-1.59414 -0.0231,-0.53073 -0.0487,-1.06136 -0.0814,-1.5916 -0.0335,-0.5439 -0.0769,-1.08778 -0.083,-1.63287 -0.009,-0.53264 -0.0195,-1.06527 -0.033,-1.59782 -0.0137,-0.53178 -0.0288,-1.06353 -0.0487,-1.59512 -0.0203,-0.53174 -0.0428,-1.06339 -0.0705,-1.59479 -0.0277,-0.54519 -0.0583,-1.09052 -0.0473,-1.63669 -1.2e-4,-0.53421 -2.5e-4,-1.06841 -5.3e-4,-1.60262 -1.7e-4,-0.53404 -2.7e-4,-1.06809 -5.3e-4,-1.60214 -2.6e-4,-0.5338 -5.3e-4,-1.06761 -7.9e-4,-1.60142 -2.7e-4,-0.53345 -8e-4,-1.0669 -0.001,-1.60035 -5.3e-4,-0.53294 -10e-4,-1.06586 -0.002,-1.59879 -8e-4,-0.53216 -0.002,-1.06431 -0.003,-1.59646 -0.001,-0.53101 -0.003,-1.06201 -0.004,-1.59301 -0.002,-0.5293 -0.004,-1.0586 -0.007,-1.58789 -0.003,-0.52676 -0.006,-1.05353 -0.01,-1.58028 -0.004,-0.52301 -0.008,-1.04602 -0.0144,-1.56901 -0.006,-0.51743 -0.0125,-1.03485 -0.0213,-1.55224 -0.009,-0.50922 -0.0185,-1.01842 -0.0314,-1.52755 -0.0129,-0.50057 -0.0277,-1.00108 -0.0435,-1.50157 -0.0143,-0.52474 -0.0151,-1.04905 0.0128,-1.57349 0.0189,-0.51895 0.0398,-1.03784 0.0676,-1.5564 0.0277,-0.50869 0.0592,-1.01714 0.0935,-1.52542 0.0309,-0.51619 0.0354,-1.03282 0.0435,-1.5498 0.0105,-0.53288 0.022,-1.06575 0.0373,-1.59852 0.0155,-0.53145 0.0327,-1.06285 0.0543,-1.59409 0.0207,-0.5135 0.0503,-1.02744 0.0399,-1.54149 -0.008,-0.52049 -0.0166,-1.04096 -0.0282,-1.56137 -0.0117,-0.51367 -0.0245,-1.02731 -0.0417,-1.54082 -0.0172,-0.50352 -0.0361,-1.00698 -0.0617,-1.51015 -0.0253,-0.48835 -0.0531,-0.9766 -0.091,-1.46416 -0.0369,-0.46563 -0.0776,-0.93103 -0.13364,-1.3948 -0.0534,-0.43133 -0.11205,-0.86223 -0.19466,-1.28909 -0.0754,-0.37926 -0.15818,-0.75767 -0.2778,-1.12586 -0.10106,-0.30091 -0.21195,-0.60019 -0.37526,-0.87389 -0.12444,-0.19895 -0.26128,-0.39204 -0.45324,-0.53209 -0.1987,-0.13379 -0.41545,-0.21505 -0.65693,-0.23024 -0.43205,-0.0262 -0.86554,-0.0177 -1.29803,-0.0341 -0.42116,-0.0109 -0.84231,-0.023 -1.26326,-0.0406 -0.36807,-0.0159 -0.73612,-0.0333 -1.10356,-0.0606 -0.27283,-0.0211 -0.5457,-0.0439 -0.81688,-0.0813 -2.80633,-0.4009 -2.61734,-1.72382 0.18899,-1.32292 z"
       inkscape:connector-curvature="0" />
    <path
       style="opacity:1;fill:#000000;fill-opacity:1;fill-rule:nonzero;stroke:#000000;stroke-width:0.39700001;stroke-linecap:round;stroke-linejoin:round;stroke-miterlimit:4;stroke-dasharray:none;stroke-dashoffset:0;stroke-opacity:1;paint-order:markers fill stroke"
       id="path4505"
       d="m 235.88157,223.91641 c 0.25204,0.0349 0.5059,0.0535 0.75958,0.0715 0.39711,0.0269 0.79485,0.0428 1.19254,0.0581 0.45899,0.0197 0.91859,0.0221 1.37723,0.0488 0.31412,0.0221 0.62787,0.0471 0.94085,0.0816 2.81733,0.31445 2.6691,1.64255 -0.14823,1.3281 v 0 c -0.29012,-0.0328 -0.58119,-0.0543 -0.87236,-0.0758 -0.44902,-0.0277 -0.89935,-0.0263 -1.34873,-0.0474 -0.41231,-0.0158 -0.82467,-0.0325 -1.23636,-0.0605 -0.2851,-0.0204 -0.57032,-0.0418 -0.85351,-0.0816 -2.80633,-0.40091 -2.61734,-1.72382 0.18899,-1.32292 z"
       inkscape:connector-curvature="0" />
    <path
       style="opacity:1;fill:#000000;fill-opacity:1;fill-rule:nonzero;stroke:#000000;stroke-width:0.39700001;stroke-linecap:round;stroke-linejoin:round;stroke-miterlimit:4;stroke-dasharray:none;stroke-dashoffset:0;stroke-opacity:1;paint-order:markers fill stroke"
       id="path4515"
       d="m 27.851383,158.15348 c 0.242128,0.004 0.483224,2.7e-4 0.724662,-0.0177 0.363167,-0.0307 0.726757,-0.0555 1.090565,-0.0771 0.435451,-0.0346 0.871278,-0.0345 1.30757,-0.0239 0.442392,0.02 0.88501,0.0147 1.3276,0.0232 0.255675,0.007 0.125746,2.7e-4 0.389755,0.0197 2.826266,0.2201 2.722507,1.55241 -0.103756,1.33231 v 0 c -0.19227,-0.0162 -0.08834,-0.01 -0.311939,-0.016 -0.444777,-0.009 -0.889616,-0.003 -1.334195,-0.0234 -0.399127,-0.01 -0.797629,-0.0108 -1.195986,0.022 -0.357351,0.0212 -0.714478,0.0457 -1.071197,0.0758 -0.274201,0.02 -0.548172,0.0262 -0.823079,0.0213 -2.834822,0 -2.834822,-1.33634 0,-1.33634 z"
       inkscape:connector-curvature="0" />
    <path
       style="opacity:1;fill:#000000;fill-opacity:1;fill-rule:nonzero;stroke:#000000;stroke-width:0.39700001;stroke-linecap:round;stroke-linejoin:round;stroke-miterlimit:4;stroke-dasharray:none;stroke-dashoffset:0;stroke-opacity:1;paint-order:markers fill stroke"
       id="path4521"
       d="m 27.663587,160.6534 c 0.03736,0.27118 0.06015,0.54406 0.08127,0.81689 0.02341,0.35502 0.04067,0.70988 0.07728,1.06383 0.04691,0.42191 0.08472,0.84471 0.118049,1.26789 0.03554,0.46132 0.06095,0.92333 0.08398,1.38543 0.01259,0.46245 0.04492,0.92309 0.0867,1.38367 0.04505,0.47849 0.081,0.95776 0.113059,1.43728 0.03264,0.49761 0.05667,0.99571 0.07847,1.49389 0.02188,0.50955 0.03807,1.01931 0.05278,1.52911 0.01466,0.51763 0.02559,1.03536 0.03553,1.5531 0.0069,0.51266 0.0496,1.02409 0.08213,1.53559 0.03376,0.52975 0.06001,1.05994 0.08374,1.59023 0.03858,0.52156 0.08667,1.04235 0.127563,1.56374 0.04164,0.53553 0.07351,1.07175 0.10241,1.6081 0.03192,0.52889 0.04071,1.05896 0.07612,1.58758 0.04263,0.53172 0.0854,1.0634 0.122719,1.59552 0.03727,0.53786 0.06566,1.07627 0.09144,1.61479 0.02193,0.52726 0.07612,1.0526 0.119296,1.57843 0.05888,0.52899 0.123356,1.05729 0.179152,1.58663 0.0564,0.54055 0.09956,1.08234 0.138726,1.62438 0.03516,0.52275 0.0604,1.04574 0.110818,1.5673 0.05326,0.51208 0.09919,1.02483 0.139914,1.53804 0.04071,0.52117 0.07125,1.04305 0.09896,1.56505 0.03095,0.51883 0.03891,1.03883 0.0735,1.5574 0.04204,0.52496 0.0842,1.04988 0.120943,1.57524 0.03685,0.53334 0.06484,1.06724 0.09025,1.60123 0.01333,0.52421 0.06185,1.04624 0.10514,1.56855 0.02895,0.50601 0.02888,1.01262 0.05983,1.51852 0.03347,0.48757 0.0636,0.97536 0.09,1.46336 0.02685,0.50433 0.04679,1.00898 0.06487,1.51368 0.01807,0.51413 0.03152,1.0284 0.04373,1.54269 0.01214,0.52074 0.02122,1.04154 0.02945,1.56235 0.0041,0.49426 0.04622,0.98729 0.07799,1.48033 0.0329,0.50919 0.0582,1.01882 0.08103,1.52855 0.02278,0.51768 0.03975,1.03558 0.05518,1.55352 0.01265,0.47521 0.0141,0.95085 0.07305,1.42314 0.02492,0.24136 0.09289,0.4704 0.22746,0.67274 0.110167,0.14559 0.265755,0.24133 0.422042,0.33005 0.256299,0.1375 0.533868,0.22634 0.811824,0.308 0.230605,0.0656 0.46541,0.11432 0.699362,0.16601 2.76805,0.61166 2.479715,1.91653 -0.288335,1.30488 v 0 c -0.264353,-0.0584 -0.529497,-0.1143 -0.789802,-0.18935 -0.380267,-0.11295 -0.758174,-0.2402 -1.105736,-0.43484 -0.344916,-0.20394 -0.666245,-0.44237 -0.887288,-0.78409 -0.22311,-0.37387 -0.374023,-0.77646 -0.416224,-1.2131 -0.06042,-0.5127 -0.07248,-1.02783 -0.08211,-1.54366 -0.01521,-0.51128 -0.03197,-1.02252 -0.05444,-1.53354 -0.02241,-0.501 -0.04727,-1.00191 -0.0796,-1.50238 -0.03316,-0.51461 -0.07651,-1.02922 -0.08058,-1.54512 -0.0082,-0.51729 -0.01717,-1.03456 -0.02924,-1.55178 -0.01206,-0.50891 -0.02537,-1.01781 -0.04325,-1.52656 -0.01778,-0.49659 -0.03738,-0.99313 -0.06378,-1.48935 -0.02622,-0.48498 -0.05626,-0.96973 -0.08948,-1.45429 -0.0301,-0.49622 -0.03313,-0.99292 -0.05774,-1.48938 -0.04458,-0.53791 -0.094,-1.0756 -0.108199,-1.61543 -0.02492,-0.52409 -0.05236,-1.04808 -0.0885,-1.57152 -0.03685,-0.52725 -0.07943,-1.05404 -0.121328,-1.5809 -0.03394,-0.52422 -0.04445,-1.04963 -0.07449,-1.57412 -0.02708,-0.51038 -0.05689,-1.02065 -0.09666,-1.53023 -0.04009,-0.50565 -0.08545,-1.01084 -0.137922,-1.51537 -0.05125,-0.53226 -0.07837,-1.06585 -0.113522,-1.59935 -0.03808,-0.52744 -0.08001,-1.05463 -0.134842,-1.58063 -0.05683,-0.53955 -0.123407,-1.07796 -0.182028,-1.61731 -0.04441,-0.54097 -0.09989,-1.08144 -0.122248,-1.6239 -0.02529,-0.52865 -0.05313,-1.05719 -0.0897,-1.5852 -0.03742,-0.53394 -0.08059,-1.06741 -0.123087,-1.60096 -0.03479,-0.53409 -0.04605,-1.06938 -0.07709,-1.60372 -0.02829,-0.52548 -0.05948,-1.05083 -0.100253,-1.57552 -0.04204,-0.53629 -0.09224,-1.07191 -0.130318,-1.60849 -0.02334,-0.52192 -0.04915,-1.04374 -0.08237,-1.56514 -0.03378,-0.5312 -0.07766,-1.06234 -0.08458,-1.59476 -0.0098,-0.51344 -0.02066,-1.02686 -0.03522,-1.54019 -0.01453,-0.50317 -0.03049,-1.00632 -0.05206,-1.50925 -0.02133,-0.48794 -0.04483,-0.97582 -0.07677,-1.4632 -0.03132,-0.46898 -0.06649,-0.9377 -0.110569,-1.40567 -0.04339,-0.47861 -0.07704,-0.95738 -0.09051,-1.4379 -0.02238,-0.44929 -0.04702,-0.89851 -0.08152,-1.34706 -0.03243,-0.41243 -0.06936,-0.82449 -0.115122,-1.23568 -0.03755,-0.36534 -0.05725,-0.73146 -0.08036,-1.09792 -0.01882,-0.24408 -0.03884,-0.48821 -0.07181,-0.73086 -0.400904,-2.80633 0.922011,-2.99532 1.322916,-0.18899 z"
       inkscape:connector-curvature="0" />
    <path
       style="opacity:1;fill:#000000;fill-opacity:1;fill-rule:nonzero;stroke:#000000;stroke-width:0.39700001;stroke-linecap:round;stroke-linejoin:round;stroke-miterlimit:4;stroke-dasharray:none;stroke-dashoffset:0;stroke-opacity:1;paint-order:markers fill stroke"
       id="path4523"
       d="m 131.11191,154.6936 c 0.24265,0.033 0.48678,0.053 0.73086,0.0718 0.32593,0.0335 0.65211,0.0336 0.97908,0.0249 0.3763,-0.002 0.74879,-0.0524 1.125,-0.0529 0.45196,0.006 0.85416,0.16647 1.22584,0.41163 0.33804,0.24327 0.57602,0.57944 0.78185,0.93517 0.19886,0.36059 0.33195,0.75067 0.45033,1.14347 0.12195,0.41843 0.20587,0.84634 0.2815,1.27513 0.0773,0.46314 0.14204,0.92852 0.17809,1.39672 0.0274,0.4849 0.0357,0.97063 0.0451,1.45614 0.0204,0.49222 -0.003,0.98413 -0.0251,1.47579 -0.0222,0.48036 -0.0401,0.96089 -0.056,1.4415 -0.0122,0.49078 -0.0619,0.9797 -0.10033,1.46891 -0.0379,0.48246 -0.0665,0.96555 -0.0923,1.44877 -0.0262,0.49899 -0.0455,0.99829 -0.0631,1.49764 -0.0177,0.5107 -0.0308,1.02153 -0.0427,1.53239 -0.0119,0.51852 -0.0208,1.03711 -0.0289,1.5557 -0.008,0.52377 -0.014,1.04756 -0.0195,1.57135 -0.008,0.51775 -0.0133,1.03504 0.006,1.55252 0.0236,0.52976 0.047,1.05952 0.0675,1.58941 0.0204,0.5342 0.0358,1.06856 0.0499,1.60296 0.001,0.50815 0.0418,1.01451 0.0783,1.52097 0.0377,0.51367 0.0675,1.02786 0.0942,1.54221 0.0266,0.52095 0.0466,1.04222 0.0647,1.56353 0.007,0.50368 0.0357,1.00579 0.0744,1.50787 0.0408,0.50561 0.0743,1.01175 0.10413,1.51811 0.0299,0.51596 0.0522,1.0323 0.0725,1.54872 0.0201,0.522 0.0352,1.04418 0.0488,1.56639 0.0135,0.52608 0.0237,1.05223 0.0329,1.5784 0.009,0.52882 0.016,1.05768 0.0222,1.58654 0.006,0.53069 0.0107,1.06138 0.0149,1.59208 0.004,0.53194 0.007,1.06388 0.0101,1.59582 0.003,0.53278 0.005,1.06557 0.007,1.59835 0.002,0.53336 0.003,1.06671 0.005,1.60007 0.001,0.53374 0.002,1.06747 0.003,1.60122 -0.002,0.52344 0.0341,1.04619 0.0607,1.56876 0.0275,0.53711 0.0492,1.07449 0.0688,1.61194 0.0192,0.53675 0.0338,1.07366 0.047,1.61059 0.013,0.53607 0.0228,1.07221 0.0317,1.60836 0.009,0.53558 0.0153,1.0712 0.0213,1.60682 0.003,0.26226 0.005,0.52452 0.008,0.78679 0.0277,2.83468 -1.30856,2.84775 -1.33628,0.0131 v 0 c -0.003,-0.26163 -0.005,-0.52327 -0.008,-0.7849 -0.006,-0.53321 -0.0125,-1.06642 -0.0213,-1.5996 -0.009,-0.53258 -0.0186,-1.06515 -0.0314,-1.59766 -0.0131,-0.53168 -0.0275,-1.06334 -0.0465,-1.59485 -0.0194,-0.53101 -0.0407,-1.06195 -0.0679,-1.59263 -0.0277,-0.54446 -0.0648,-1.08912 -0.0624,-1.63452 -7.9e-4,-0.53339 -0.002,-1.06678 -0.003,-1.60016 -10e-4,-0.53284 -0.003,-1.06567 -0.005,-1.59851 -0.002,-0.53201 -0.004,-1.06402 -0.007,-1.59603 -0.003,-0.53079 -0.006,-1.06158 -0.0101,-1.59237 -0.004,-0.52898 -0.009,-1.05796 -0.0149,-1.58693 -0.006,-0.52629 -0.013,-1.05259 -0.022,-1.57885 -0.009,-0.52231 -0.0192,-1.04461 -0.0326,-1.56683 -0.0135,-0.5164 -0.0284,-1.03276 -0.0483,-1.54895 -0.0199,-0.50766 -0.0418,-1.01526 -0.0712,-1.52248 -0.0294,-0.4983 -0.0623,-0.99638 -0.10249,-1.49394 -0.0402,-0.52086 -0.0695,-1.04184 -0.0776,-1.56433 -0.0178,-0.51363 -0.0374,-1.02721 -0.0637,-1.54049 -0.0263,-0.50544 -0.0555,-1.01074 -0.0925,-1.51552 -0.038,-0.52675 -0.0793,-1.05346 -0.0813,-1.58194 -0.0139,-0.52893 -0.0292,-1.05783 -0.0494,-1.58656 -0.0205,-0.53062 -0.044,-1.0611 -0.0676,-1.59159 -0.0198,-0.53858 -0.0152,-1.07697 -0.007,-1.61581 0.005,-0.52609 0.0115,-1.05218 0.0196,-1.57823 0.008,-0.52206 0.0171,-1.04411 0.0291,-1.56609 0.0121,-0.51613 0.0253,-1.03224 0.0432,-1.54821 0.0179,-0.50745 0.0376,-1.01486 0.0642,-1.52194 0.0264,-0.49437 0.0557,-0.98861 0.0945,-1.48219 0.0369,-0.46908 0.085,-0.93786 0.097,-1.40842 0.0161,-0.48563 0.0341,-0.97119 0.0566,-1.45657 0.0206,-0.46326 0.0441,-0.92669 0.024,-1.39048 -0.009,-0.461 -0.0169,-0.92219 -0.0417,-1.38267 -0.0303,-0.42404 -0.0938,-0.84498 -0.16157,-1.26448 -0.0663,-0.37742 -0.13911,-0.75424 -0.24537,-1.1228 -0.0883,-0.29587 -0.18478,-0.59086 -0.33053,-0.86431 -0.10175,-0.18151 -0.21236,-0.361 -0.37525,-0.49474 -0.14262,-0.10681 -0.29767,-0.17314 -0.47883,-0.17889 -0.36178,-0.005 -0.72081,0.0591 -1.08314,0.0524 -0.37302,0.01 -0.74549,0.008 -1.11732,-0.0284 -0.27283,-0.0211 -0.54571,-0.0439 -0.81689,-0.0813 -2.80633,-0.40091 -2.61734,-1.72383 0.18899,-1.32292 z"
       inkscape:connector-curvature="0" />
    <path
       style="opacity:1;fill:#000000;fill-opacity:1;fill-rule:nonzero;stroke:#000000;stroke-width:0.39700001;stroke-linecap:round;stroke-linejoin:round;stroke-miterlimit:4;stroke-dasharray:none;stroke-dashoffset:0;stroke-opacity:1;paint-order:markers fill stroke"
       id="path4525"
       d="m 130.75015,210.27104 c 0.21811,-0.006 0.43559,-0.0366 0.65301,-0.0567 0.33682,-0.0338 0.67562,-0.0419 1.01241,-0.0747 0.40775,-0.0494 0.81548,-0.0906 1.226,-0.10536 0.27493,-0.006 0.1404,-0.004 0.40359,-0.008 2.83448,-0.0443 2.85536,1.29189 0.0209,1.33618 v 0 c -0.24917,0.004 -0.12324,0.002 -0.3778,0.007 -0.38414,0.013 -0.76524,0.0555 -1.1469,0.10025 -0.33801,0.0312 -0.67738,0.0435 -1.01544,0.075 -0.25821,0.0238 -0.51625,0.0603 -0.77575,0.0623 -2.83483,0 -2.83483,-1.33635 0,-1.33635 z"
       inkscape:connector-curvature="0" />
    <path
       style="opacity:1;fill:#000000;fill-opacity:1;fill-rule:nonzero;stroke:#000000;stroke-width:0.39700001;stroke-linecap:round;stroke-linejoin:round;stroke-miterlimit:4;stroke-dasharray:none;stroke-dashoffset:0;stroke-opacity:1;paint-order:markers fill stroke"
       id="path4527"
       d="m 76.93448,170.98123 c 0.255455,-0.0279 0.50733,-0.0793 0.760812,-0.12073 0.366,-0.0592 0.734896,-0.0968 1.103508,-0.13515 0.254183,-0.0153 0.132498,-0.01 0.365011,-0.0173 2.83345,-0.0882 2.875021,1.24751 0.04157,1.3357 v 0 c -0.177724,0.005 -0.08827,0.002 -0.268359,0.0109 -0.342892,0.0357 -0.686115,0.0701 -1.026626,0.12488 -0.262152,0.0427 -0.522769,0.0957 -0.786929,0.12473 -2.80633,0.4009 -2.995319,-0.92202 -0.188989,-1.32292 z"
       inkscape:connector-curvature="0" />
    <path
       style="opacity:1;fill:#000000;fill-opacity:1;fill-rule:nonzero;stroke:#000000;stroke-width:0.39700001;stroke-linecap:round;stroke-linejoin:round;stroke-miterlimit:4;stroke-dasharray:none;stroke-dashoffset:0;stroke-opacity:1;paint-order:markers fill stroke"
       id="path4529"
       d="m 76.573911,172.68053 c 0.03736,0.27118 0.06015,0.54405 0.08127,0.81689 0.02566,0.35395 0.07721,0.70553 0.116628,1.05818 0.04962,0.41748 0.07052,0.83768 0.115449,1.25554 0.05589,0.45701 0.106169,0.91461 0.150124,1.37291 0.03535,0.47795 0.08447,0.95414 0.139758,1.43012 0.05981,0.5046 0.10712,1.01052 0.149585,1.51683 0.04252,0.5159 0.07421,1.03259 0.102979,1.5494 0.03204,0.5152 0.0408,1.03163 0.07608,1.54659 0.0428,0.52252 0.08549,1.04502 0.122695,1.56798 0.03737,0.53171 0.06572,1.064 0.09145,1.59638 0.02532,0.53283 0.04437,1.06592 0.06169,1.59906 0.01704,0.53342 0.02987,1.06696 0.04153,1.60051 0.01148,0.5338 0.02011,1.06765 0.02798,1.60151 0.0077,0.53404 0.01355,1.06811 0.01886,1.60218 0.0052,0.53421 0.0091,1.06843 0.01273,1.60265 -0.0062,0.51256 0.01125,1.024 0.04019,1.53559 0.03469,0.48663 0.04316,0.9751 0.08633,1.46107 0.03803,0.21886 0.06929,0.46548 0.21463,0.6436 0.122904,0.13225 0.283292,0.21758 0.442489,0.29781 0.279533,0.13416 0.560605,0.2623 0.85203,0.36855 0.30076,0.10833 0.618331,0.15686 0.93304,0.20517 0.05776,0.009 0.115528,0.0175 0.173292,0.0263 2.802818,0.42476 2.602584,1.74602 -0.200234,1.32126 v 0 c -0.05889,-0.009 -0.117782,-0.0179 -0.176673,-0.0268 -0.402191,-0.0622 -0.806199,-0.13027 -1.189683,-0.27134 -0.342871,-0.1264 -0.675191,-0.27538 -1.003755,-0.43515 -0.359937,-0.18791 -0.701276,-0.40864 -0.942129,-0.74409 -0.244954,-0.38696 -0.390514,-0.81168 -0.43435,-1.26976 -0.04252,-0.49953 -0.0556,-1.00101 -0.0892,-1.5012 -0.03014,-0.53371 -0.0483,-1.06736 -0.0423,-1.60207 -0.0036,-0.53278 -0.0075,-1.06555 -0.01267,-1.59832 -0.0053,-0.53194 -0.01109,-1.06387 -0.01879,-1.59577 -0.0078,-0.53068 -0.0164,-1.06135 -0.02781,-1.59197 -0.01156,-0.52883 -0.02426,-1.05764 -0.04115,-1.58633 -0.01709,-0.52611 -0.03587,-1.05216 -0.06084,-1.57796 -0.02521,-0.52227 -0.053,-1.04444 -0.08964,-1.56606 -0.0373,-0.52459 -0.08038,-1.0487 -0.123034,-1.57287 -0.03461,-0.52027 -0.04593,-1.04175 -0.07704,-1.56226 -0.02806,-0.50435 -0.05893,-1.00857 -0.100372,-1.51202 -0.04123,-0.49211 -0.08718,-0.98384 -0.145333,-1.47428 -0.05631,-0.48486 -0.106485,-0.96996 -0.142584,-1.4568 -0.04347,-0.45386 -0.09363,-0.90698 -0.148778,-1.35958 -0.0435,-0.41551 -0.06696,-0.83286 -0.114631,-1.24802 -0.04105,-0.36776 -0.09472,-0.73439 -0.120917,-1.10358 -0.01881,-0.24407 -0.03885,-0.48821 -0.07181,-0.73085 -0.400905,-2.80633 0.922012,-2.99532 1.322916,-0.18899 z"
       inkscape:connector-curvature="0" />
    <path
       style="opacity:1;fill:#000000;fill-opacity:1;fill-rule:nonzero;stroke:#000000;stroke-width:0.39700001;stroke-linecap:round;stroke-linejoin:round;stroke-miterlimit:4;stroke-dasharray:none;stroke-dashoffset:0;stroke-opacity:1;paint-order:markers fill stroke"
       id="path4531"
       d="m 127.18115,167.50673 c 0.27118,-0.0374 0.54405,-0.0601 0.81689,-0.0813 0.35487,-0.0307 0.71157,-0.0344 1.06622,-0.0666 0.41658,-0.0539 0.8176,0.0157 1.21244,0.14448 0.39711,0.13189 0.71703,0.38437 0.9998,0.68468 0.25758,0.30383 0.46003,0.64831 0.64176,1.00127 0.20634,0.39614 0.33017,0.82217 0.42753,1.25573 0.0926,0.43736 0.1539,0.88041 0.20973,1.3237 0.0451,0.45708 0.11519,0.91094 0.17733,1.36588 0.0669,0.49084 0.11749,0.98366 0.16309,1.47687 0.0459,0.50584 0.0798,1.01264 0.11058,1.51959 0.0254,0.48452 0.0844,0.96654 0.13115,1.44932 0.0347,0.48937 0.0397,0.98023 0.0473,1.47059 0.004,0.49362 0.0192,0.98726 0.008,1.48083 -0.0193,0.48183 -0.0451,0.96337 -0.0664,1.44512 -0.0214,0.48986 -0.0373,0.97992 -0.0518,1.47002 -0.0146,0.50435 -0.0254,1.00879 -0.0352,1.51324 -0.0126,0.48274 0.0157,0.96546 0.0352,1.44768 0.0206,0.50198 0.0367,1.00413 0.0511,1.50632 0.0145,0.51279 0.0253,1.02567 0.0351,1.53857 0.01,0.51984 0.017,1.03973 0.0237,1.55962 0.007,0.52461 0.0115,1.04923 0.016,1.57387 0.004,0.43968 0.007,0.87938 0.009,1.31907 0.0173,2.83477 -1.31901,2.84293 -1.33632,0.008 v 0 c -0.003,-0.43862 -0.006,-0.87724 -0.009,-1.31586 -0.004,-0.52275 -0.009,-1.0455 -0.0159,-1.56824 -0.007,-0.51705 -0.0138,-1.03409 -0.0235,-1.5511 -0.01,-0.50859 -0.0204,-1.01716 -0.0348,-1.52565 -0.0143,-0.49702 -0.0302,-0.99399 -0.0506,-1.4908 -0.0206,-0.50886 -0.0497,-1.01822 -0.036,-1.52763 0.01,-0.50891 0.0208,-1.01781 0.0355,-1.52661 0.0146,-0.49664 0.0308,-0.99325 0.0525,-1.48964 0.0209,-0.47267 0.0459,-0.94515 0.0655,-1.41788 0.0121,-0.476 -0.006,-0.95223 -0.008,-1.4283 -0.007,-0.4543 -0.0118,-0.90901 -0.0413,-1.36254 -0.0483,-0.49872 -0.10897,-0.99667 -0.13492,-1.49721 -0.0299,-0.49293 -0.0628,-0.98572 -0.10736,-1.47758 -0.0438,-0.47388 -0.0922,-0.9474 -0.15647,-1.41902 -0.0627,-0.45961 -0.13342,-0.91817 -0.17918,-1.37992 -0.0504,-0.40165 -0.10529,-0.80315 -0.18813,-1.19962 -0.0716,-0.32369 -0.15812,-0.64224 -0.31291,-0.93791 -0.12496,-0.24635 -0.26437,-0.4861 -0.4347,-0.70426 -0.12223,-0.13874 -0.25746,-0.25924 -0.43547,-0.32117 -0.22365,-0.0748 -0.4384,-0.12279 -0.67769,-0.0824 -0.35938,0.0305 -0.72011,0.0394 -1.07972,0.0678 -0.24407,0.0188 -0.48821,0.0388 -0.73086,0.0718 -2.80633,0.40091 -2.99532,-0.92201 -0.18899,-1.32292 z"
       inkscape:connector-curvature="0" />
    <path
       style="opacity:1;fill:#000000;fill-opacity:1;fill-rule:nonzero;stroke:#000000;stroke-width:0.39700001;stroke-linecap:round;stroke-linejoin:round;stroke-miterlimit:4;stroke-dasharray:none;stroke-dashoffset:0;stroke-opacity:1;paint-order:markers fill stroke"
       id="path4533"
       d="m 127.90468,195.58584 c 0.22618,0.035 0.4531,0.05 0.68166,0.0503 0.32505,0.007 0.648,-0.0307 0.97105,-0.0605 0.32367,-0.0303 0.64801,-0.0523 0.97228,-0.075 2.8279,-0.19798 2.92123,1.1351 0.0933,1.33309 v 0 c -0.31447,0.022 -0.62901,0.0433 -0.9429,0.0726 -0.36535,0.0337 -0.73079,0.0739 -1.09834,0.0661 -0.29019,-0.002 -0.57893,-0.0198 -0.86607,-0.0637 -2.80633,-0.40091 -2.61734,-1.72382 0.18899,-1.32292 z"
       inkscape:connector-curvature="0" />
    <path
       style="opacity:1;fill:#000000;fill-opacity:1;fill-rule:nonzero;stroke:#000000;stroke-width:0.39700001;stroke-linecap:round;stroke-linejoin:round;stroke-miterlimit:4;stroke-dasharray:none;stroke-dashoffset:0;stroke-opacity:1;paint-order:markers fill stroke"
       id="path4535"
       d="m 42.363411,183.90585 c 0.04296,0.27673 0.09403,0.55218 0.135435,0.8293 0.0597,0.38573 0.08642,0.77544 0.136149,1.16233 0.06252,0.43561 0.116588,0.87228 0.163949,1.30978 0.0095,0.0697 0.01905,0.13947 0.02856,0.20921 0.38023,2.80921 -0.944041,2.98845 -1.324271,0.17924 v 0 c -0.01095,-0.0816 -0.02193,-0.16316 -0.03289,-0.24475 -0.0464,-0.42936 -0.09984,-0.85785 -0.161084,-1.28537 -0.04733,-0.37739 -0.07593,-0.75698 -0.132146,-1.13333 -0.04165,-0.27985 -0.09384,-0.55785 -0.136623,-0.83742 -0.400905,-2.80633 0.922012,-2.99532 1.322917,-0.18899 z"
       inkscape:connector-curvature="0" />
    <path
       style="opacity:1;fill:#000000;fill-opacity:1;fill-rule:nonzero;stroke:#000000;stroke-width:0.39700001;stroke-linecap:round;stroke-linejoin:round;stroke-miterlimit:4;stroke-dasharray:none;stroke-dashoffset:0;stroke-opacity:1;paint-order:markers fill stroke"
       id="path4537"
       d="m 51.449382,184.00034 c 0.0077,0.24733 0.03799,0.49414 0.05743,0.74102 0.02808,0.37988 0.08233,0.75735 0.124409,1.1359 0.03353,0.34943 0.06704,0.6983 0.114335,1.04616 0.381198,2.80907 -0.943012,2.98877 -1.324211,0.1797 v 0 c -0.04857,-0.35857 -0.08433,-0.71808 -0.118298,-1.0783 -0.04361,-0.39279 -0.09982,-0.78445 -0.128468,-1.17868 -0.02212,-0.28174 -0.05718,-0.56316 -0.06154,-0.8458 0,-2.83482 1.336347,-2.83482 1.336347,0 z"
       inkscape:connector-curvature="0" />
    <path
       style="opacity:1;fill:#da03ae;fill-opacity:1;fill-rule:nonzero;stroke:#da03ae;stroke-width:0.39700001;stroke-linecap:round;stroke-linejoin:round;stroke-miterlimit:4;stroke-dasharray:none;stroke-dashoffset:0;stroke-opacity:1;paint-order:markers fill stroke"
       id="path4539"
       d="m 89.670116,183.63858 c 0.05597,0.20934 0.101457,0.42186 0.154673,0.63223 0.07912,0.33655 0.158972,0.67307 0.249957,1.00665 0.06001,0.23435 0.136488,0.46417 0.221631,0.69045 0.988748,2.6568 -0.263678,3.1229 -1.252429,0.4661 v 0 c -0.09779,-0.26495 -0.189076,-0.53265 -0.2589,-0.80655 -0.09221,-0.3412 -0.175683,-0.68473 -0.255802,-1.02895 -0.06476,-0.25604 -0.124169,-0.51327 -0.182046,-0.77094 -0.400905,-2.80633 0.922012,-2.99532 1.322916,-0.18899 z"
       inkscape:connector-curvature="0" />
    <path
       style="opacity:1;fill:#000000;fill-opacity:1;fill-rule:nonzero;stroke:#000000;stroke-width:0.39700001;stroke-linecap:round;stroke-linejoin:round;stroke-miterlimit:4;stroke-dasharray:none;stroke-dashoffset:0;stroke-opacity:1;paint-order:markers fill stroke"
       id="path4541"
       d="m 104.36994,183.63858 c 0.0247,0.22633 0.0941,0.44395 0.15272,0.663 0.0582,0.20416 0.12697,0.40481 0.19461,0.60594 0.90355,2.68697 -0.3631,3.11291 -1.26665,0.42594 v 0 c -0.0766,-0.22771 -0.15386,-0.45514 -0.2189,-0.68651 -0.0723,-0.27052 -0.15336,-0.54007 -0.1847,-0.81938 -0.4009,-2.80633 0.92202,-2.99532 1.32292,-0.18899 z"
       inkscape:connector-curvature="0" />
    <path
       style="opacity:1;fill:#000000;fill-opacity:1;fill-rule:nonzero;stroke:#000000;stroke-width:0.39700001;stroke-linecap:round;stroke-linejoin:round;stroke-miterlimit:4;stroke-dasharray:none;stroke-dashoffset:0;stroke-opacity:1;paint-order:markers fill stroke"
       id="path4543"
       d="m 117.45506,181.41136 c 0.0654,0.25785 0.13163,0.51563 0.20635,0.77098 0.0927,0.34649 0.20107,0.68769 0.32017,1.02587 0.10254,0.28862 0.24215,0.56189 0.38964,0.82964 1.36083,2.48684 0.18852,3.12834 -1.17231,0.6415 v 0 c -0.18069,-0.3319 -0.3525,-0.6699 -0.47781,-1.02729 -0.12731,-0.36162 -0.24339,-0.72648 -0.34296,-1.09682 -0.0744,-0.2575 -0.14343,-0.51664 -0.20801,-0.77676 -0.77878,-2.72575 0.50615,-3.09287 1.28493,-0.36712 z"
       inkscape:connector-curvature="0" />
    <path
       style="opacity:1;fill:#000000;fill-opacity:1;fill-rule:nonzero;stroke:#000000;stroke-width:0.39700001;stroke-linecap:round;stroke-linejoin:round;stroke-miterlimit:4;stroke-dasharray:none;stroke-dashoffset:0;stroke-opacity:1;paint-order:markers fill stroke"
       id="path4545"
       d="m 111.83767,183.5603 c -0.0273,0.22404 -0.01,0.45151 0.007,0.67584 0.0211,0.36318 0.0979,0.7193 0.16616,1.07564 0.0577,0.25868 0.0279,0.12624 0.0896,0.39731 0.62966,2.76401 -0.67331,3.06083 -1.30297,0.29683 v 0 c -0.0663,-0.29131 -0.0333,-0.14373 -0.0992,-0.44276 -0.0779,-0.40656 -0.16217,-0.81327 -0.18631,-1.22757 -0.0237,-0.32052 -0.0413,-0.64458 0.002,-0.96428 0.4009,-2.80633 1.72382,-2.61734 1.32292,0.18899 z"
       inkscape:connector-curvature="0" />
    <path
       style="opacity:1;fill:#000000;fill-opacity:1;fill-rule:nonzero;stroke:#000000;stroke-width:0.39700001;stroke-linecap:round;stroke-linejoin:round;stroke-miterlimit:4;stroke-dasharray:none;stroke-dashoffset:0;stroke-opacity:1;paint-order:markers fill stroke"
       id="path4547"
       d="m 97.954281,184.00034 c -0.0095,0.26577 0.01024,0.53003 0.0307,0.79473 0.03013,0.3991 0.08692,0.79572 0.13141,1.19344 0.03138,0.29939 0.01617,0.14913 0.04563,0.45078 0.275331,2.82142 -1.054701,2.95121 -1.330031,0.1298 v 0 c -0.02819,-0.28915 -0.01363,-0.14512 -0.04367,-0.4321 -0.04614,-0.4129 -0.105045,-0.82465 -0.135721,-1.23906 -0.02304,-0.29884 -0.04364,-0.59761 -0.03466,-0.89759 0,-2.83482 1.336347,-2.83482 1.336347,0 z"
       inkscape:connector-curvature="0" />
    <path
       style="opacity:1;fill:#000000;fill-opacity:1;fill-rule:nonzero;stroke:#000000;stroke-width:0.39700001;stroke-linecap:round;stroke-linejoin:round;stroke-miterlimit:4;stroke-dasharray:none;stroke-dashoffset:0;stroke-opacity:1;paint-order:markers fill stroke"
       id="path4549"
       d="m 225.81239,185.19052 c -0.13904,0.20156 -0.22383,0.43156 -0.31536,0.65669 -0.1436,0.34898 -0.2502,0.71098 -0.34573,1.07551 -0.064,0.27943 -0.13182,0.55772 -0.20298,0.83542 -0.70382,2.74606 -1.99833,2.41428 -1.29451,-0.33178 v 0 c 0.0719,-0.28037 0.13969,-0.56144 0.20505,-0.84339 0.1107,-0.42001 0.23464,-0.8369 0.40022,-1.23907 0.13085,-0.32183 0.2626,-0.64541 0.46588,-0.93011 1.6477,-2.30679 2.73513,-1.53006 1.08743,0.77673 z"
       inkscape:connector-curvature="0" />
    <path
       style="opacity:1;fill:#000000;fill-opacity:1;fill-rule:nonzero;stroke:#000000;stroke-width:0.39700001;stroke-linecap:round;stroke-linejoin:round;stroke-miterlimit:4;stroke-dasharray:none;stroke-dashoffset:0;stroke-opacity:1;paint-order:markers fill stroke"
       id="path4551"
       d="m 210.3309,186.50123 c -0.1274,0.18761 -0.21786,0.39219 -0.29934,0.60275 -0.11996,0.32326 -0.20027,0.65891 -0.27366,0.99519 -0.0836,0.41248 -0.14512,0.82879 -0.22176,1.24257 -0.51638,2.7874 -1.83037,2.54397 -1.31399,-0.24342 v 0 c 0.0793,-0.42794 0.14205,-0.85868 0.23033,-1.28495 0.0888,-0.40461 0.18771,-0.808 0.33454,-1.19615 0.11788,-0.29905 0.25205,-0.58972 0.43197,-0.85726 1.57248,-2.35872 2.68439,-1.61744 1.11191,0.74127 z"
       inkscape:connector-curvature="0" />
    <path
       style="opacity:1;fill:#000000;fill-opacity:1;fill-rule:nonzero;stroke:#000000;stroke-width:0.39700001;stroke-linecap:round;stroke-linejoin:round;stroke-miterlimit:4;stroke-dasharray:none;stroke-dashoffset:0;stroke-opacity:1;paint-order:markers fill stroke"
       id="path4553"
       d="m 156.20442,181.95668 c -0.0367,0.23257 -0.05,0.46601 -0.0503,0.70105 0.005,0.37559 0.0464,0.74987 0.0747,1.12428 0.0231,0.30776 0.0414,0.61583 0.059,0.92394 0.16188,2.83019 -1.17229,2.9065 -1.33417,0.0763 v 0 c -0.0171,-0.29994 -0.0349,-0.59984 -0.0574,-0.89944 -0.0309,-0.40935 -0.0765,-0.81855 -0.0785,-1.22936 0.001,-0.29677 0.0182,-0.59214 0.0637,-0.88576 0.4009,-2.80633 1.72382,-2.61735 1.32292,0.18898 z"
       inkscape:connector-curvature="0" />
    <path
       style="opacity:1;fill:#da03ae;fill-opacity:1;fill-rule:nonzero;stroke:#da03ae;stroke-width:0.39700001;stroke-linecap:round;stroke-linejoin:round;stroke-miterlimit:4;stroke-dasharray:none;stroke-dashoffset:0;stroke-opacity:1;paint-order:markers fill stroke"
       id="path4555"
       d="m 178.66968,183.47371 c 0,0.33223 0,0.66445 0,0.99668 0.004,0.51672 0.002,1.03294 -0.0201,1.54922 -0.0177,0.36783 -0.009,0.18428 -0.0268,0.55066 -0.13993,2.83137 -1.47465,2.7654 -1.33472,-0.066 v 0 c 0.0179,-0.36235 0.009,-0.18172 0.0265,-0.54189 0.0214,-0.49723 0.0221,-0.99438 0.0189,-1.49203 0,-0.33223 0,-0.66445 0,-0.99668 0,-2.83482 1.33635,-2.83482 1.33635,0 z"
       inkscape:connector-curvature="0" />
    <path
       style="opacity:1;fill:#000000;fill-opacity:1;fill-rule:nonzero;stroke:#000000;stroke-width:0.39700001;stroke-linecap:round;stroke-linejoin:round;stroke-miterlimit:4;stroke-dasharray:none;stroke-dashoffset:0;stroke-opacity:1;paint-order:markers fill stroke"
       id="path4557"
       d="m 83.790188,183.90585 c 0.03779,0.2746 0.06104,0.5509 0.08146,0.82724 0.02718,0.39273 0.04456,0.78604 0.06054,1.17935 0.114991,2.83249 -1.220258,2.8867 -1.335246,0.0542 v 0 c -0.01537,-0.37869 -0.03202,-0.75737 -0.05804,-1.1355 -0.01802,-0.24595 -0.03847,-0.49186 -0.07163,-0.73631 -0.400905,-2.80633 0.922012,-2.99532 1.322916,-0.18899 z"
       inkscape:connector-curvature="0" />
    <path
       style="opacity:1;fill:#000000;fill-opacity:1;fill-rule:nonzero;stroke:#000000;stroke-width:0.39700001;stroke-linecap:round;stroke-linejoin:round;stroke-miterlimit:4;stroke-dasharray:none;stroke-dashoffset:0;stroke-opacity:1;paint-order:markers fill stroke"
       id="path4559"
       d="m 170.90897,183.28224 c 0.0944,0.31952 0.11121,0.65392 0.13138,0.98443 0.0226,0.41453 0.0361,0.82948 0.0488,1.2444 0.002,0.0736 0.004,0.1471 0.006,0.22065 0.0796,2.8337 -1.25625,2.87121 -1.33582,0.0375 v 0 c -0.002,-0.0725 -0.004,-0.14494 -0.006,-0.21741 -0.0122,-0.40157 -0.0253,-0.80316 -0.0469,-1.20435 -0.014,-0.23355 -0.019,-0.47151 -0.0824,-0.6981 -0.77878,-2.72575 0.50615,-3.09287 1.28493,-0.36713 z"
       inkscape:connector-curvature="0" />
    <path
       style="opacity:1;fill:#000000;fill-opacity:1;fill-rule:nonzero;stroke:#000000;stroke-width:0.39700001;stroke-linecap:round;stroke-linejoin:round;stroke-miterlimit:4;stroke-dasharray:none;stroke-dashoffset:0;stroke-opacity:1;paint-order:markers fill stroke"
       id="path4561"
       d="m 125.46842,182.49122 c -0.033,0.24265 -0.053,0.48679 -0.0718,0.73086 -0.0261,0.35233 -0.0427,0.70526 -0.0579,1.0582 -0.005,0.27795 -0.0252,0.55476 -0.0501,0.83152 -0.256,2.82323 -1.58689,2.70255 -1.33088,-0.12069 v 0 c 0.0233,-0.25578 0.0416,-0.51148 0.0459,-0.76843 0.0159,-0.36807 0.0333,-0.73613 0.0606,-1.10356 0.0211,-0.27283 0.0439,-0.54571 0.0813,-0.81689 0.40091,-2.80633 1.72382,-2.61734 1.32292,0.18899 z"
       inkscape:connector-curvature="0" />
    <path
       style="opacity:1;fill:#000000;fill-opacity:1;fill-rule:nonzero;stroke:#000000;stroke-width:0.39700001;stroke-linecap:round;stroke-linejoin:round;stroke-miterlimit:4;stroke-dasharray:none;stroke-dashoffset:0;stroke-opacity:1;paint-order:markers fill stroke"
       id="path4563"
       d="m 120.92484,183.02576 c -0.035,0.25649 -0.0532,0.51489 -0.0715,0.773 -0.0258,0.37683 -0.0427,0.75417 -0.0582,1.13154 -0.0104,0.27587 -0.005,0.13727 -0.015,0.4158 -0.0982,2.83312 -1.43371,2.78685 -1.33554,-0.0463 v 0 c 0.01,-0.28404 0.005,-0.14262 0.0153,-0.42427 0.016,-0.39075 0.0337,-0.78148 0.0604,-1.17167 0.0206,-0.28957 0.0416,-0.57943 0.0816,-0.86712 0.4009,-2.80633 1.72382,-2.61734 1.32291,0.18899 z"
       inkscape:connector-curvature="0" />
    <path
       style="opacity:1;fill:#da03ae;fill-opacity:1;fill-rule:nonzero;stroke:#da03ae;stroke-width:0.39700001;stroke-linecap:round;stroke-linejoin:round;stroke-miterlimit:4;stroke-dasharray:none;stroke-dashoffset:0;stroke-opacity:1;paint-order:markers fill stroke"
       id="path4565"
       d="m 114.78237,183.81678 c 0.0989,0.26151 0.16887,0.53243 0.23323,0.80407 0.0881,0.40404 0.14343,0.81415 0.19441,1.22421 0.008,0.0725 0.0166,0.14491 0.0248,0.21736 0.3213,2.81655 -1.00643,2.96802 -1.32774,0.15146 v 0 c -0.008,-0.0681 -0.0155,-0.13612 -0.0232,-0.20418 -0.0449,-0.36233 -0.093,-0.72475 -0.16892,-1.08212 -0.059,-0.25181 -0.12775,-0.50084 -0.21749,-0.74367 -0.77879,-2.72575 0.50614,-3.09288 1.28493,-0.36713 z"
       inkscape:connector-curvature="0" />
    <path
       style="opacity:1;fill:#000000;fill-opacity:1;fill-rule:nonzero;stroke:#000000;stroke-width:0.39700001;stroke-linecap:round;stroke-linejoin:round;stroke-miterlimit:4;stroke-dasharray:none;stroke-dashoffset:0;stroke-opacity:1;paint-order:markers fill stroke"
       id="path4571"
       d="m 65.88313,184.17312 c 0.04034,0.25452 0.09289,0.5071 0.134173,0.76169 0.05873,0.37354 0.09721,0.74978 0.131985,1.12617 0.260448,2.82283 -1.070248,2.94561 -1.330695,0.12277 v 0 c -0.03189,-0.34608 -0.06688,-0.69207 -0.120497,-1.03559 -0.04237,-0.26273 -0.09754,-0.52312 -0.137882,-0.78605 -0.400905,-2.80633 0.922012,-2.99532 1.322916,-0.18899 z"
       inkscape:connector-curvature="0" />
    <path
       style="opacity:1;fill:#000000;fill-opacity:1;fill-rule:nonzero;stroke:#000000;stroke-width:0.39700001;stroke-linecap:round;stroke-linejoin:round;stroke-miterlimit:4;stroke-dasharray:none;stroke-dashoffset:0;stroke-opacity:1;paint-order:markers fill stroke"
       id="path4573"
       d="m 108.89771,183.02576 c -0.0353,0.25841 -0.0537,0.51873 -0.0714,0.77882 -0.003,0.38155 -0.001,0.76378 0.0213,1.14475 0.0126,0.21107 0.0315,0.42131 0.0555,0.63133 0.31667,2.81708 -1.01131,2.96636 -1.32798,0.14928 v 0 c -0.026,-0.23443 -0.0483,-0.46895 -0.0617,-0.70451 -0.0241,-0.43654 -0.0299,-0.87445 -0.0204,-1.31154 0.02,-0.29296 0.0413,-0.58613 0.0817,-0.87712 0.4009,-2.80633 1.72382,-2.61734 1.32291,0.18899 z"
       inkscape:connector-curvature="0" />
    <path
       style="opacity:1;fill:#da03ae;fill-opacity:1;fill-rule:nonzero;stroke:#da03ae;stroke-width:0.39700001;stroke-linecap:round;stroke-linejoin:round;stroke-miterlimit:4;stroke-dasharray:none;stroke-dashoffset:0;stroke-opacity:1;paint-order:markers fill stroke"
       id="path4575"
       d="m 175.68289,170.05869 c 0.12406,0.23585 0.2703,0.45832 0.42107,0.67766 0.2714,0.37043 0.52622,0.7527 0.79849,1.12244 0.29532,0.40565 0.58847,0.81281 0.88224,1.21961 0.26508,0.37641 0.53281,0.75094 0.7999,1.12592 1.64417,2.30931 0.55556,3.08438 -1.08862,0.77507 v 0 c -0.26521,-0.37265 -0.5314,-0.7446 -0.79467,-1.11864 -0.2916,-0.40379 -0.58256,-0.80798 -0.87571,-1.21064 -0.28014,-0.38191 -0.54463,-0.77501 -0.82362,-1.15782 -0.185,-0.27016 -0.36367,-0.5448 -0.51434,-0.83597 -1.26777,-2.53554 -0.0725,-3.13317 1.19526,-0.59763 z"
       inkscape:connector-curvature="0" />
    <path
       style="opacity:1;fill:#da03ae;fill-opacity:1;fill-rule:nonzero;stroke:#da03ae;stroke-width:0.39700001;stroke-linecap:round;stroke-linejoin:round;stroke-miterlimit:4;stroke-dasharray:none;stroke-dashoffset:0;stroke-opacity:1;paint-order:markers fill stroke"
       id="path4577"
       d="m 178.7931,169.92633 c -0.16669,0.25639 -0.32592,0.51751 -0.48946,0.77592 -0.2393,0.41162 -0.49881,0.81088 -0.74555,1.21791 -0.28921,0.47985 -0.58417,0.95613 -0.88274,1.43021 -0.19064,0.30581 -0.37768,0.61352 -0.55616,0.92657 -1.40546,2.46189 -2.566,1.79935 -1.16054,-0.66254 v 0 c 0.1884,-0.32961 0.38479,-0.65423 0.58595,-0.97623 0.29475,-0.46791 0.58584,-0.93803 0.87128,-1.41168 0.25167,-0.41375 0.51433,-0.82076 0.75866,-1.23905 0.16924,-0.26724 0.33381,-0.53743 0.50665,-0.80238 1.57248,-2.35871 2.68438,-1.61744 1.11191,0.74127 z"
       inkscape:connector-curvature="0" />
    <path
       style="opacity:1;fill:#da03ae;fill-opacity:1;fill-rule:nonzero;stroke:#da03ae;stroke-width:0.39700001;stroke-linecap:round;stroke-linejoin:round;stroke-miterlimit:4;stroke-dasharray:none;stroke-dashoffset:0;stroke-opacity:1;paint-order:markers fill stroke"
       id="path4579"
       d="m 182.66883,173.92363 c 0.0778,0.28061 0.12637,0.56798 0.17095,0.85537 0.058,0.36711 0.0597,0.74001 0.0668,1.11074 0.001,0.0627 0.002,0.12544 0.003,0.18816 0.0439,2.83448 -1.29224,2.8552 -1.33619,0.0207 v 0 c -10e-4,-0.0611 -0.002,-0.12231 -0.003,-0.18346 -0.006,-0.31088 -0.005,-0.62401 -0.0514,-0.93205 -0.0358,-0.23244 -0.0738,-0.46506 -0.13521,-0.69236 -0.77879,-2.72575 0.50614,-3.09288 1.28493,-0.36713 z"
       inkscape:connector-curvature="0" />
    <path
       style="opacity:1;fill:#da03ae;fill-opacity:1;fill-rule:nonzero;stroke:#da03ae;stroke-width:0.39700001;stroke-linecap:round;stroke-linejoin:round;stroke-miterlimit:4;stroke-dasharray:none;stroke-dashoffset:0;stroke-opacity:1;paint-order:markers fill stroke"
       id="path4581"
       d="m 87.641871,168.54078 c 0.214889,0.20908 0.413096,0.43456 0.606073,0.66377 0.270087,0.32256 0.52955,0.65393 0.782823,0.98981 0.296568,0.39369 0.597707,0.78372 0.884906,1.18437 0.317373,0.43003 0.60011,0.88333 0.887966,1.33308 0.181565,0.28234 0.354298,0.56998 0.527791,0.85728 1.465312,2.42675 0.321336,3.1175 -1.143977,0.69076 v 0 c -0.167521,-0.27745 -0.334113,-0.55532 -0.509529,-0.82791 -0.27509,-0.43022 -0.545071,-0.86398 -0.848722,-1.27514 -0.280586,-0.39221 -0.576218,-0.773 -0.865897,-1.15848 -0.238773,-0.31746 -0.484277,-0.63001 -0.739066,-0.93479 -0.167193,-0.20011 -0.340294,-0.3959 -0.527306,-0.57781 -2.004523,-2.00452 -1.059583,-2.94946 0.944938,-0.94494 z"
       inkscape:connector-curvature="0" />
    <path
       style="opacity:1;fill:#da03ae;fill-opacity:1;fill-rule:nonzero;stroke:#da03ae;stroke-width:0.39700001;stroke-linecap:round;stroke-linejoin:round;stroke-miterlimit:4;stroke-dasharray:none;stroke-dashoffset:0;stroke-opacity:1;paint-order:markers fill stroke"
       id="path4583"
       d="m 90.911009,168.2509 c -0.110228,0.23522 -0.210772,0.47486 -0.312385,0.71395 -0.162965,0.39547 -0.326205,0.79085 -0.477867,1.19084 -0.189336,0.47913 -0.363799,0.96392 -0.543896,1.44654 -0.190833,0.51008 -0.384082,1.01926 -0.575392,1.52918 -0.119033,0.33563 -0.251629,0.66618 -0.376161,0.99978 -0.991777,2.65567 -2.243674,2.18815 -1.251894,-0.46753 v 0 c 0.124867,-0.33421 0.257543,-0.66544 0.376878,-1.0017 0.191079,-0.50923 0.38409,-1.01771 0.574624,-1.52713 0.181102,-0.48486 0.35623,-0.97201 0.546487,-1.45341 0.158144,-0.41614 0.327456,-0.82782 0.497334,-1.23926 0.112377,-0.26442 0.224087,-0.52919 0.347007,-0.7889 1.267772,-2.53554 2.463038,-1.9379 1.195265,0.59764 z"
       inkscape:connector-curvature="0" />
    <path
       style="opacity:1;fill:#da03ae;fill-opacity:1;fill-rule:nonzero;stroke:#da03ae;stroke-width:0.39700001;stroke-linecap:round;stroke-linejoin:round;stroke-miterlimit:4;stroke-dasharray:none;stroke-dashoffset:0;stroke-opacity:1;paint-order:markers fill stroke"
       id="path4587"
       d="m 94.362039,174.23229 c 0.306408,-0.15595 0.643696,-0.18554 0.980889,-0.1645 0.406713,0.033 0.709954,0.24531 0.946783,0.56516 0.212717,0.3357 0.225578,0.71347 0.210994,1.09721 -0.02281,0.33695 -0.0941,0.66656 -0.164261,0.99592 -0.05941,0.26654 -0.171691,0.52479 -0.169219,0.80127 7.93e-4,0.0909 0.03746,0.12112 0.09995,0.17144 0.124383,0.0838 0.278551,0.12308 0.421407,0.16592 0.165714,0.0374 0.32485,0.0951 0.483862,0.15375 2.652726,0.99963 2.181495,2.25013 -0.471231,1.25051 v 0 c -0.131405,-0.0515 -0.265181,-0.0942 -0.402915,-0.12617 -0.363755,-0.11243 -0.724413,-0.24665 -0.999054,-0.52263 -0.292613,-0.32301 -0.473458,-0.69065 -0.467653,-1.1364 0.01709,-0.35531 0.09173,-0.69682 0.197837,-1.03611 0.05438,-0.25527 0.112233,-0.50965 0.135972,-0.77019 0.003,-0.0722 2.64e-4,-0.26525 0.02376,-0.28648 0.02755,0.008 0.162703,0.0462 0.03701,0.008 -0.08684,-0.021 -0.185787,-0.007 -0.266506,0.0285 -2.535542,1.26777 -3.133175,0.0725 -0.597633,-1.19526 z"
       inkscape:connector-curvature="0" />
    <path
       style="opacity:1;fill:#da03ae;fill-opacity:1;fill-rule:nonzero;stroke:#da03ae;stroke-width:0.39700001;stroke-linecap:round;stroke-linejoin:round;stroke-miterlimit:4;stroke-dasharray:none;stroke-dashoffset:0;stroke-opacity:1;paint-order:markers fill stroke"
       id="path4589"
       d="m 111.14548,167.20443 c 0.21016,0.21097 0.40013,0.44098 0.58781,0.67183 0.26459,0.31645 0.51601,0.64347 0.7747,0.9647 0.28847,0.3843 0.6006,0.74957 0.90447,1.12156 0.3302,0.39567 0.65103,0.79902 0.98308,1.19313 0.16321,0.1883 0.31128,0.38865 0.45849,0.58943 1.67412,2.28769 0.59569,3.07687 -1.07843,0.78918 v 0 c -0.12896,-0.17663 -0.2586,-0.35296 -0.40242,-0.51803 -0.33594,-0.39943 -0.66157,-0.80733 -0.99567,-1.2083 -0.30585,-0.37443 -0.62002,-0.74213 -0.91042,-1.1289 -0.25735,-0.31968 -0.50755,-0.64503 -0.77082,-0.95991 -0.15871,-0.19533 -0.31827,-0.391 -0.49573,-0.56975 -2.00452,-2.00452 -1.05958,-2.94946 0.94494,-0.94494 z"
       inkscape:connector-curvature="0" />
    <path
       style="opacity:1;fill:#da03ae;fill-opacity:1;fill-rule:nonzero;stroke:#da03ae;stroke-width:0.39700001;stroke-linecap:round;stroke-linejoin:round;stroke-miterlimit:4;stroke-dasharray:none;stroke-dashoffset:0;stroke-opacity:1;paint-order:markers fill stroke"
       id="path4591"
       d="m 114.94916,167.18182 c -0.10823,0.23006 -0.21375,0.46125 -0.31835,0.69301 -0.16791,0.37284 -0.32852,0.74887 -0.49233,1.12351 -0.2076,0.45633 -0.42698,0.9071 -0.64188,1.36 -0.22186,0.47273 -0.46431,0.93515 -0.70171,1.40013 -0.22882,0.44903 -0.46499,0.8951 -0.67689,1.35244 -1.1957,2.57032 -2.40736,2.00667 -1.21167,-0.56365 v 0 c 0.22012,-0.4716 0.46113,-0.93343 0.69841,-1.39655 0.2316,-0.45343 0.46824,-0.9043 0.68458,-1.36533 0.20909,-0.4405 0.42229,-0.87905 0.62484,-1.32263 0.16605,-0.37937 0.32864,-0.76024 0.4987,-1.13785 0.11192,-0.24777 0.22496,-0.49487 0.34104,-0.74071 1.26776,-2.53554 2.46303,-1.93791 1.19526,0.59763 z"
       inkscape:connector-curvature="0" />
    <path
       style="opacity:1;fill:#da03ae;fill-opacity:1;fill-rule:nonzero;stroke:#da03ae;stroke-width:0.39700001;stroke-linecap:round;stroke-linejoin:round;stroke-miterlimit:4;stroke-dasharray:none;stroke-dashoffset:0;stroke-opacity:1;paint-order:markers fill stroke"
       id="path4593"
       d="m 117.95136,171.93621 c 0.25038,-0.2483 0.55373,-0.4034 0.88985,-0.49815 0.45724,-0.0961 0.8394,0.0501 1.15944,0.37577 0.21416,0.26513 0.2815,0.58357 0.30975,0.91412 -0.009,0.20928 0.0329,0.3993 0.0963,0.59541 0.0795,0.20028 0.21532,0.37258 0.34724,0.54081 0.22553,0.27497 0.43786,0.55689 0.62263,0.86106 0.22578,0.37428 0.34485,0.7928 0.4165,1.22033 0.0643,0.45945 -0.0346,0.89753 -0.21522,1.31751 -0.18554,0.38831 -0.48325,0.68803 -0.82385,0.94181 -0.35739,0.24139 -0.7582,0.33318 -1.18342,0.32977 -2.83334,-0.0916 -2.79017,-1.42722 0.0432,-1.33565 v 0 c 0.12372,0.0179 0.24252,-0.0177 0.35292,-0.0739 0.15681,-0.10919 0.29833,-0.23824 0.39139,-0.40784 0.0866,-0.17642 0.13491,-0.3634 0.11528,-0.56159 -0.0373,-0.25904 -0.10823,-0.51366 -0.24148,-0.74089 -0.15525,-0.26092 -0.34364,-0.49542 -0.53383,-0.73153 -0.22598,-0.29351 -0.44556,-0.59747 -0.56411,-0.95265 -0.0927,-0.29182 -0.15893,-0.58668 -0.15548,-0.89484 -0.002,-0.0241 -0.04,-0.20519 0.0182,-0.14006 0.0535,0.0331 0.1599,0.0782 0.17027,0.0384 -0.10651,0.004 -0.19026,0.0846 -0.27055,0.14703 -2.00452,2.00452 -2.94946,1.05958 -0.94494,-0.94494 z"
       inkscape:connector-curvature="0" />
    <path
       style="opacity:1;fill:#000000;fill-opacity:1;fill-rule:nonzero;stroke:#000000;stroke-width:0.39700001;stroke-linecap:round;stroke-linejoin:round;stroke-miterlimit:4;stroke-dasharray:none;stroke-dashoffset:0;stroke-opacity:1;paint-order:markers fill stroke"
       id="path4629"
       d="m 33.496271,222.57962 c 0.0341,-0.12841 0.04993,-0.2607 0.06624,-0.39227 0.02664,-0.24242 0.02421,-0.48718 0.02701,-0.73079 -0.0021,-0.31533 -0.01855,-0.63016 -0.04828,-0.94404 -0.0325,-0.34345 -0.08507,-0.68466 -0.148479,-1.02365 -0.05621,-0.31368 -0.130177,-0.62321 -0.228449,-0.92629 -0.05321,-0.16098 -0.120478,-0.31941 -0.221517,-0.45651 0.02487,0.0972 0.194887,0.0362 0.251373,0.0135 0.08932,-0.10016 0.0159,0.1176 0.01127,0.15638 -0.02726,0.23819 -0.02101,0.47836 -0.01982,0.71761 0.0062,0.31833 0.03196,0.63555 0.05807,0.9527 0.03181,0.33973 0.07995,0.67775 0.133876,1.0146 0.04965,0.33097 0.114438,0.6591 0.185603,0.986 0.05789,0.29588 0.142849,0.5851 0.224703,0.87491 0.06759,0.2408 0.151355,0.47497 0.261321,0.69953 0.06773,0.12209 0.135255,0.25277 0.258024,0.32712 0.07758,0.0374 0.163087,0.033 0.246891,0.027 0.1241,-0.0134 0.234942,-0.0683 0.342246,-0.12828 0.08998,-0.0534 0.170857,-0.11897 0.248658,-0.18844 1.064067,-0.93638 1.505482,-0.43477 0.441418,0.50161 v 0 c -0.11534,0.10052 -0.234556,0.19632 -0.368038,0.27227 -0.19711,0.10721 -0.403736,0.19435 -0.630553,0.21017 -0.235137,0.009 -0.463579,-0.0159 -0.665697,-0.14824 -0.207205,-0.15315 -0.361494,-0.34806 -0.473747,-0.58077 -0.126227,-0.26064 -0.225824,-0.5312 -0.303545,-0.81033 -0.08554,-0.30287 -0.173781,-0.60527 -0.234569,-0.9144 -0.07379,-0.33908 -0.140873,-0.67945 -0.192522,-1.0227 -0.05639,-0.35366 -0.107058,-0.70848 -0.139988,-1.06518 -0.02752,-0.33428 -0.05426,-0.66869 -0.06032,-1.00422 -0.0013,-0.26844 -0.007,-0.53784 0.02511,-0.80494 0.02946,-0.22425 0.07508,-0.44065 0.245515,-0.60297 0.293989,-0.15979 0.478525,-0.11522 0.698847,0.12933 0.136998,0.19558 0.241316,0.41084 0.313198,0.63885 0.106457,0.33042 0.188465,0.66737 0.249494,1.00923 0.06678,0.35889 0.122676,0.72 0.156868,1.08359 0.03151,0.33727 0.04958,0.67551 0.05118,1.01433 -0.0031,0.26861 -0.0013,0.53841 -0.03208,0.80561 -0.02069,0.16568 -0.0422,0.332 -0.08684,0.4933 -0.389392,1.36287 -1.031856,1.17931 -0.642464,-0.18356 z"
       inkscape:connector-curvature="0" />
    <path
       style="opacity:1;fill:#000000;fill-opacity:1;fill-rule:nonzero;stroke:#000000;stroke-width:0.39700001;stroke-linecap:round;stroke-linejoin:round;stroke-miterlimit:4;stroke-dasharray:none;stroke-dashoffset:0;stroke-opacity:1;paint-order:markers fill stroke"
       id="path4631"
       d="m 37.892767,221.95598 c 0.02846,-0.18011 0.112123,-0.3404 0.211625,-0.49051 0.142388,-0.1986 0.339645,-0.30657 0.57323,-0.36019 0.226507,-0.0372 0.438163,0.019 0.638768,0.12103 0.189179,0.10557 0.318402,0.26883 0.422171,0.45458 0.09842,0.18505 0.140248,0.39001 0.166357,0.59589 0.025,0.20557 0.01765,0.4129 0.0024,0.61881 -0.0083,0.17458 -0.05524,0.34526 -0.04584,0.52053 0.0041,0.0604 0.0281,0.10028 0.07195,0.13778 0.07181,0.0561 0.154263,0.0978 0.240887,0.12545 0.147286,0.0466 0.301006,0.0585 0.454057,0.0698 0.190262,0.0192 0.381183,0.007 0.571852,0.009 1.417296,0.0179 1.408848,0.68604 -0.0084,0.66812 v 0 c -0.204274,-0.003 -0.408988,0.0106 -0.612839,-0.0112 -0.211957,-0.0159 -0.424293,-0.0378 -0.627001,-0.10602 -0.183158,-0.0674 -0.3585,-0.15515 -0.500192,-0.29246 -0.150831,-0.16421 -0.24688,-0.35232 -0.258078,-0.57902 -0.0045,-0.19977 0.02649,-0.39449 0.04737,-0.59257 0.01233,-0.16183 0.01998,-0.32486 7.93e-4,-0.48655 -0.01461,-0.12226 -0.03388,-0.24608 -0.08951,-0.35741 -0.03805,-0.0727 -0.07819,-0.1404 -0.149799,-0.18526 -0.05919,-0.036 -0.122888,-0.0594 -0.193347,-0.0558 -0.06388,0.005 -0.110397,0.0296 -0.151924,0.0804 -0.04559,0.0639 -0.0854,0.13243 -0.102994,0.20973 -0.200454,1.40317 -0.861912,1.30867 -0.661458,-0.0945 z"
       inkscape:connector-curvature="0" />
    <path
       style="opacity:1;fill:#000000;fill-opacity:1;fill-rule:nonzero;stroke:#000000;stroke-width:0.39700001;stroke-linecap:round;stroke-linejoin:round;stroke-miterlimit:4;stroke-dasharray:none;stroke-dashoffset:0;stroke-opacity:1;paint-order:markers fill stroke"
       id="path4633"
       d="m 131.16252,216.44592 c 7.9e-4,0.13356 0.0252,0.26593 0.0431,0.39801 0.0358,0.24495 0.0862,0.48727 0.13575,0.72968 0.066,0.29882 0.13706,0.59656 0.21349,0.89289 0.0757,0.29461 0.14871,0.58986 0.22748,0.88369 0.049,0.18668 0.0924,0.37459 0.13527,0.56272 0.003,0.0199 0.0446,0.22729 0.0199,0.23312 -0.6466,0.15207 -0.58112,0.24979 -0.68457,-0.0193 -0.0533,-0.15562 -0.0936,-0.31554 -0.13245,-0.47528 -0.0517,-0.21571 -0.10198,-0.43161 -0.14522,-0.64922 -0.0558,-0.25673 -0.081,-0.51727 -0.0801,-0.7796 0.006,-0.2666 0.0586,-0.52561 0.14503,-0.77692 0.0864,-0.24963 0.23897,-0.4609 0.40739,-0.66066 0.18988,-0.20975 0.41821,-0.37876 0.65053,-0.53806 0.25139,-0.1755 0.52492,-0.31495 0.79977,-0.44924 0.27847,-0.13516 0.56806,-0.24458 0.86077,-0.34426 0.0482,-0.0145 0.0965,-0.029 0.14468,-0.0435 1.35807,-0.40585 1.54938,0.23435 0.19132,0.64019 v 0 c -0.0403,0.012 -0.0806,0.0239 -0.12086,0.0359 -0.26618,0.0904 -0.52957,0.18951 -0.78284,0.31214 -0.24591,0.11989 -0.49122,0.24358 -0.71605,0.40057 -0.18338,0.12457 -0.36405,0.25661 -0.51727,0.41788 -0.11646,0.13698 -0.22688,0.27788 -0.2869,0.45013 -0.0653,0.18088 -0.10024,0.36843 -0.10741,0.56092 -0.003,0.21701 0.0219,0.43215 0.0673,0.64445 0.0413,0.20838 0.0896,0.41506 0.13913,0.6216 0.0329,0.13567 0.0669,0.27145 0.11085,0.40397 0.0622,0.21631 -0.59866,-0.12039 -0.60432,0.23751 -2.7e-4,0.0249 -0.008,-0.0989 -0.0102,-0.0741 -0.0409,-0.17988 -0.0824,-0.35951 -0.12914,-0.53801 -0.0793,-0.29593 -0.1529,-0.59325 -0.22913,-0.88997 -0.0791,-0.30724 -0.15301,-0.61582 -0.22106,-0.92569 -0.0526,-0.2571 -0.10572,-0.51418 -0.14329,-0.77404 -0.0219,-0.16178 -0.0499,-0.32381 -0.0491,-0.48755 0,-1.41741 0.66817,-1.41741 0.66817,0 z"
       inkscape:connector-curvature="0" />
    <path
       style="opacity:1;fill:#000000;fill-opacity:1;fill-rule:nonzero;stroke:#000000;stroke-width:0.39700001;stroke-linecap:round;stroke-linejoin:round;stroke-miterlimit:4;stroke-dasharray:none;stroke-dashoffset:0;stroke-opacity:1;paint-order:markers fill stroke"
       id="path4635"
       d="m 134.88828,219.90401 c 0.117,-0.11402 0.26087,-0.19104 0.40776,-0.25898 0.19855,-0.0841 0.41043,-0.10822 0.62397,-0.10539 0.22035,0.001 0.42453,0.0648 0.61733,0.16692 0.18365,0.10538 0.31664,0.25872 0.41872,0.44134 0.0942,0.19049 0.11495,0.39867 0.11894,0.60779 -0.002,0.21608 -0.0404,0.42862 -0.0834,0.63952 -0.0447,0.18885 -0.10249,0.37461 -0.11323,0.56927 -0.003,0.0997 0.0248,0.18923 0.0776,0.27228 0.0522,0.0733 0.13391,0.1161 0.21172,0.15725 0.1255,0.0554 0.26136,0.071 0.39606,0.0875 0.12184,0.009 0.24405,0.01 0.36613,0.0111 1.41729,0.0184 1.40861,0.68653 -0.009,0.66811 v 0 c -0.14661,-0.002 -0.29345,-0.003 -0.4396,-0.0161 -0.21748,-0.0272 -0.43482,-0.063 -0.63256,-0.16334 -0.18601,-0.10243 -0.35944,-0.22397 -0.47133,-0.40977 -0.11294,-0.20245 -0.17933,-0.41787 -0.166,-0.65257 0.017,-0.22402 0.0664,-0.44099 0.12522,-0.65756 0.0334,-0.16335 0.0658,-0.32749 0.07,-0.49478 -0.001,-0.10183 -0.003,-0.20437 -0.0388,-0.30118 -0.0353,-0.0718 -0.0829,-0.13024 -0.15221,-0.17308 -0.0958,-0.0571 -0.19969,-0.0841 -0.31175,-0.0847 -0.11227,-0.005 -0.22414,0.007 -0.33044,0.0451 -0.075,0.0336 -0.15048,0.0692 -0.21302,0.12373 -1.00226,1.00226 -1.47473,0.52979 -0.47247,-0.47247 z"
       inkscape:connector-curvature="0" />
    <path
       style="opacity:1;fill:#000000;fill-opacity:1;fill-rule:nonzero;stroke:#000000;stroke-width:0.39700001;stroke-linecap:round;stroke-linejoin:round;stroke-miterlimit:4;stroke-dasharray:none;stroke-dashoffset:0;stroke-opacity:1;paint-order:markers fill stroke"
       id="path4637"
       d="m 77.622111,205.1749 c 0.04357,-0.0882 0.05972,-0.18407 0.07328,-0.28037 0.02982,-0.20137 0.024,-0.40461 0.01471,-0.60716 -0.01037,-0.26005 -0.04395,-0.51849 -0.08695,-0.77495 -0.04989,-0.26817 -0.121795,-0.53113 -0.199038,-0.79245 -0.06869,-0.22433 -0.152715,-0.44302 -0.26067,-0.65135 -0.05638,-0.0838 -0.09658,-0.20355 -0.192979,-0.25184 0.06016,0.0586 0.146931,0.0359 0.214683,0.009 -0.06406,0.0977 -0.09239,0.21003 -0.116747,0.32261 -0.0482,0.2334 -0.07016,0.47054 -0.08325,0.70811 -0.0159,0.30122 -0.0048,0.60296 0.01175,0.90386 0.01968,0.311 0.0667,0.61891 0.11966,0.92566 0.04951,0.29752 0.112287,0.59279 0.188709,0.88453 0.06022,0.22023 0.136308,0.43343 0.25899,0.62654 0.07423,0.10856 0.171593,0.18812 0.287427,0.24755 0.08769,0.0364 0.180385,0.0251 0.27091,0.007 0.0662,-0.0153 0.12896,-0.042 0.192325,-0.0659 1.32687,-0.49846 1.561852,0.12703 0.234982,0.6255 v 0 c -0.103415,0.0387 -0.206729,0.0792 -0.315867,0.0992 -0.240223,0.0376 -0.478224,0.0342 -0.700284,-0.0784 -0.215527,-0.11961 -0.40142,-0.27356 -0.536987,-0.48252 -0.154586,-0.2523 -0.263163,-0.52408 -0.338027,-0.81057 -0.08062,-0.31007 -0.148283,-0.62348 -0.200623,-0.93961 -0.05728,-0.3322 -0.10745,-0.66576 -0.128381,-1.00256 -0.01786,-0.32551 -0.02915,-0.65193 -0.01172,-0.97776 0.01545,-0.27417 0.04169,-0.54785 0.09838,-0.81699 0.04924,-0.21483 0.116927,-0.4255 0.253793,-0.60229 0.186656,-0.20706 0.429993,-0.28055 0.682067,-0.13143 0.177128,0.13007 0.306925,0.29867 0.405646,0.4951 0.125407,0.24614 0.227425,0.50238 0.306999,0.76709 0.08491,0.28743 0.163311,0.57691 0.217347,0.872 0.04686,0.28287 0.08406,0.56774 0.09535,0.8545 0.01101,0.2449 0.01527,0.4906 -0.02103,0.73391 -0.0249,0.16644 -0.06053,0.3312 -0.136814,0.48269 -0.633886,1.26777 -1.231519,0.96896 -0.597633,-0.29882 z"
       inkscape:connector-curvature="0" />
    <path
       style="opacity:1;fill:#000000;fill-opacity:1;fill-rule:nonzero;stroke:#000000;stroke-width:0.39700001;stroke-linecap:round;stroke-linejoin:round;stroke-miterlimit:4;stroke-dasharray:none;stroke-dashoffset:0;stroke-opacity:1;paint-order:markers fill stroke"
       id="path4639"
       d="m 81.230249,205.30854 c 0.08655,-0.16951 0.228127,-0.28013 0.397259,-0.35953 0.186108,-0.0765 0.373973,-0.0787 0.565835,-0.0273 0.193895,0.0688 0.326163,0.20853 0.425043,0.38315 0.07549,0.15829 0.09599,0.33104 0.101087,0.50408 -0.0028,0.14549 -0.01336,0.29046 0.0019,0.43555 0.01421,0.11406 0.0684,0.21259 0.129061,0.30776 0.08816,0.12923 0.1915,0.24619 0.298582,0.35983 0.149542,0.15366 0.282062,0.32039 0.393711,0.50326 0.122361,0.21505 0.16189,0.44953 0.147709,0.69336 -0.0227,0.22156 -0.129189,0.40498 -0.273246,0.56888 -0.148688,0.16018 -0.340993,0.24511 -0.5494,0.29573 -0.212013,0.0464 -0.41371,0.005 -0.607827,-0.0827 -1.278829,-0.61127 -0.990674,-1.21412 0.288155,-0.60285 v 0 c 0.05228,0.0308 0.10722,0.0456 0.168196,0.0347 0.07614,-0.0161 0.149442,-0.0357 0.205748,-0.0936 0.04809,-0.0489 0.08956,-0.10154 0.102132,-0.17096 0.01339,-0.10464 -0.0064,-0.20524 -0.05476,-0.2994 -0.08335,-0.14421 -0.193781,-0.26844 -0.307684,-0.38927 -0.136279,-0.14574 -0.267732,-0.29605 -0.377947,-0.46294 -0.114033,-0.18475 -0.205015,-0.38058 -0.227684,-0.59946 -0.01413,-0.16196 -0.01297,-0.32362 -0.0047,-0.48592 5.29e-4,-0.071 -0.0061,-0.14261 -0.02726,-0.21058 -0.0027,-0.0117 -0.01564,-0.0341 -0.02652,-0.0498 -0.03095,-0.0155 -0.06266,-0.0113 -0.09931,-8e-4 -0.02986,0.01 -0.05161,0.0133 -0.07045,0.0475 -0.633886,1.26778 -1.231519,0.96896 -0.597633,-0.29881 z"
       inkscape:connector-curvature="0" />
    <path
       style="opacity:1;fill:#000000;fill-opacity:1;fill-rule:nonzero;stroke:#000000;stroke-width:0.39700001;stroke-linecap:round;stroke-linejoin:round;stroke-miterlimit:4;stroke-dasharray:none;stroke-dashoffset:0;stroke-opacity:1;paint-order:markers fill stroke"
       id="path4641"
       d="m 128.89073,200.54338 c 0.005,0.12719 0.0164,0.25479 0.0315,0.38126 0.0264,0.22276 0.0698,0.44319 0.11668,0.66243 0.0644,0.27772 0.143,0.55164 0.22392,0.82489 0.0761,0.28015 0.16728,0.55589 0.24124,0.83659 0.0505,0.19236 0.0968,0.38607 0.12796,0.58259 8e-4,0.0129 0.0302,0.19897 0.0174,0.20107 -0.67337,0.11067 -0.60929,0.23735 -0.69299,-0.0424 -0.0398,-0.15075 -0.0732,-0.30287 -0.10159,-0.45613 -0.0342,-0.19099 -0.0566,-0.38377 -0.077,-0.57665 -0.0298,-0.22738 -0.0296,-0.45597 -0.0182,-0.68449 0.0138,-0.25204 0.0688,-0.49664 0.14486,-0.73641 0.0836,-0.25355 0.21439,-0.48686 0.35177,-0.71441 0.1361,-0.22639 0.30778,-0.42724 0.49247,-0.61489 0.18671,-0.18286 0.39327,-0.34202 0.61326,-0.48235 0.14387,-0.0804 0.0713,-0.0432 0.21743,-0.11211 1.28603,-0.59596 1.56697,0.0103 0.28094,0.60625 v 0 c -0.092,0.0413 -0.0449,0.0182 -0.1408,0.0703 -0.17837,0.11196 -0.344,0.24162 -0.49582,0.38782 -0.14879,0.1494 -0.28656,0.31021 -0.396,0.49119 -0.11094,0.18238 -0.21791,0.36903 -0.28692,0.57198 -0.0598,0.18439 -0.10252,0.37236 -0.11388,0.56659 -0.01,0.19393 -0.011,0.38774 0.0154,0.5807 0.0184,0.1756 0.0386,0.35113 0.0695,0.52505 0.0241,0.13094 0.0527,0.2608 0.0858,0.38976 0.0821,0.29167 -0.69084,0.40938 -0.62612,0.13052 -0.0252,-0.17394 -0.0713,-0.34423 -0.11385,-0.51448 -0.0715,-0.2741 -0.16215,-0.54277 -0.23559,-0.81637 -0.0858,-0.28988 -0.16899,-0.58058 -0.23674,-0.87533 -0.051,-0.23985 -0.0983,-0.48094 -0.12689,-0.72463 -0.0173,-0.15213 -0.0322,-0.30527 -0.0359,-0.45834 0,-1.41741 0.66817,-1.41741 0.66817,0 z"
       inkscape:connector-curvature="0" />
    <path
       style="opacity:1;fill:#000000;fill-opacity:1;fill-rule:nonzero;stroke:#000000;stroke-width:0.39700001;stroke-linecap:round;stroke-linejoin:round;stroke-miterlimit:4;stroke-dasharray:none;stroke-dashoffset:0;stroke-opacity:1;paint-order:markers fill stroke"
       id="path4643"
       d="m 131.45055,203.33621 c 0.0535,-0.17782 0.16925,-0.31523 0.30816,-0.43308 0.18806,-0.13612 0.39855,-0.15942 0.62021,-0.11385 0.2134,0.0615 0.34893,0.2129 0.4438,0.40588 0.075,0.18489 0.0705,0.38206 0.0461,0.57621 -0.0233,0.13262 -0.0499,0.26449 -0.0489,0.39961 0.007,0.10542 0.0526,0.2028 0.0982,0.29658 0.0694,0.131 0.16122,0.24722 0.24822,0.36657 0.14332,0.18513 0.2304,0.39741 0.28979,0.62179 0.0567,0.23983 0.0262,0.47776 -0.0401,0.71122 -0.0688,0.2226 -0.20003,0.41031 -0.3571,0.57885 -0.14709,0.15091 -0.32532,0.25404 -0.5233,0.3211 -0.17765,0.0516 -0.34759,0.0279 -0.51788,-0.0337 -1.31618,-0.52604 -1.0682,-1.14649 0.24798,-0.62045 v 0 c 0.0213,0.0172 0.0419,0.0219 0.0702,0.0165 0.092,-0.0198 0.16893,-0.082 0.23784,-0.14293 0.0868,-0.089 0.16093,-0.18798 0.20101,-0.3073 0.0362,-0.11664 0.0587,-0.23541 0.034,-0.35733 -0.0349,-0.14408 -0.0899,-0.27676 -0.18264,-0.39434 -0.11137,-0.153 -0.22706,-0.3035 -0.31188,-0.47371 -0.087,-0.18635 -0.16117,-0.37967 -0.16256,-0.58858 0.003,-0.16338 0.0222,-0.32455 0.0551,-0.48468 0.011,-0.0677 0.0137,-0.13581 0.01,-0.20412 -0.009,-0.0257 -0.004,-0.0274 0.004,-0.038 -0.0149,-0.011 -0.0236,-0.0191 -0.0446,-0.0135 -0.0375,0.0198 -0.0645,0.0574 -0.083,0.0948 -0.38939,1.36287 -1.03186,1.17931 -0.64247,-0.18356 z"
       inkscape:connector-curvature="0" />
    <path
       style="opacity:1;fill:#000000;fill-opacity:1;fill-rule:nonzero;stroke:#000000;stroke-width:0.39700001;stroke-linecap:round;stroke-linejoin:round;stroke-miterlimit:4;stroke-dasharray:none;stroke-dashoffset:0;stroke-opacity:1;paint-order:markers fill stroke"
       id="path4677"
       d="m 31.869784,238.63235 c 0.05396,-0.2104 0.106855,-0.42023 0.135038,-0.63584 0.03619,-0.35938 0.06001,-0.72028 0.06715,-1.08141 0.0075,-0.41967 -0.01053,-0.83935 -0.04375,-1.25763 -0.03454,-0.41511 -0.07531,-0.82946 -0.138933,-1.24118 -0.04246,-0.31748 -0.116276,-0.62898 -0.245266,-0.92241 0.01889,-0.0503 -0.159872,-0.21502 -0.101714,-0.16105 0.123442,0.0939 0.334823,0.007 0.397897,-0.0183 -0.07093,0.18585 -0.08594,0.38486 -0.103953,0.58106 -0.03283,0.35013 -0.03345,0.70222 -0.02101,1.05335 0.01548,0.42289 0.05244,0.84468 0.100045,1.26505 0.05047,0.43827 0.124878,0.87338 0.204917,1.30708 0.06946,0.41555 0.160398,0.8269 0.242935,1.23994 0.08313,0.36532 0.164235,0.73098 0.255953,1.09424 0.07719,0.31705 0.165237,0.63214 0.284869,0.93598 0.07088,0.17311 0.163806,0.32976 0.30548,0.45249 0.06732,0.0449 0.146814,0.0592 0.226824,0.054 0.131146,-0.0168 0.248182,-0.0811 0.361275,-0.14541 0.09951,-0.0664 0.05108,-0.0315 0.145323,-0.10468 1.599261,-1.2085 2.168953,-0.4546 0.569693,0.7539 v 0 c -0.166754,0.12402 -0.08164,0.0653 -0.255225,0.17631 -0.264295,0.14525 -0.541814,0.26334 -0.849154,0.2644 -0.309414,-0.0163 -0.598572,-0.0958 -0.838303,-0.30295 -0.24125,-0.22758 -0.425641,-0.49447 -0.546436,-0.80517 -0.131731,-0.3411 -0.235572,-0.69199 -0.320548,-1.04762 -0.09554,-0.37856 -0.180314,-0.75958 -0.266383,-1.1404 -0.0834,-0.41759 -0.175254,-0.8335 -0.245559,-1.25361 -0.08401,-0.45545 -0.16178,-0.91242 -0.214654,-1.37267 -0.04995,-0.4449 -0.0894,-0.89119 -0.105445,-1.33873 -0.01288,-0.39109 -0.01257,-0.78314 0.02453,-1.17308 0.02843,-0.30212 0.06383,-0.60628 0.18596,-0.88754 0.178059,-0.35868 0.481137,-0.58414 0.893334,-0.42791 0.251492,0.14675 0.425079,0.35641 0.536884,0.62671 0.157266,0.36878 0.259832,0.75547 0.311717,1.15348 0.06646,0.43488 0.111162,0.87223 0.146986,1.31066 0.03499,0.44957 0.05509,0.90053 0.04644,1.35157 -0.0088,0.39758 -0.03341,0.79506 -0.07579,1.19053 -0.03554,0.24892 -0.08992,0.49302 -0.154398,0.73597 -0.486166,1.94467 -1.402895,1.71549 -0.916726,-0.22918 z"
       inkscape:connector-curvature="0" />
    <path
       style="opacity:1;fill:#000000;fill-opacity:1;fill-rule:nonzero;stroke:#000000;stroke-width:0.39700001;stroke-linecap:round;stroke-linejoin:round;stroke-miterlimit:4;stroke-dasharray:none;stroke-dashoffset:0;stroke-opacity:1;paint-order:markers fill stroke"
       id="path4679"
       d="m 38.425971,239.18089 c 0.09433,0.2119 0.149768,0.4383 0.209881,0.66159 0.08056,0.30762 0.134874,0.6211 0.199821,0.9322 0.04853,0.22861 0.08956,0.45866 0.128876,0.68899 0.336974,1.97599 -0.594518,2.13484 -0.931492,0.15885 v 0 c -0.03729,-0.21889 -0.07625,-0.43751 -0.122385,-0.65474 -0.0613,-0.29364 -0.11262,-0.58948 -0.187397,-0.88011 -0.04355,-0.16246 -0.08521,-0.32592 -0.142483,-0.48419 -0.896451,-1.7929 -0.05127,-2.21549 0.845179,-0.42259 z"
       inkscape:connector-curvature="0" />
    <path
       style="opacity:1;fill:#000000;fill-opacity:1;fill-rule:nonzero;stroke:#000000;stroke-width:0.39700001;stroke-linecap:round;stroke-linejoin:round;stroke-miterlimit:4;stroke-dasharray:none;stroke-dashoffset:0;stroke-opacity:1;paint-order:markers fill stroke"
       id="path4681"
       d="m 236.51567,230.9733 c 0.0771,0.23493 0.12264,0.47855 0.16612,0.72145 0.0696,0.34986 0.12815,0.70169 0.19288,1.05245 0.0765,0.39753 0.15059,0.79572 0.23174,1.19236 0.0838,0.39673 0.15653,0.79554 0.24257,1.1918 0.0648,0.25996 0.11497,0.52339 0.17944,0.78341 0.0492,0.179 0.0168,-0.026 -0.0365,-0.0252 -0.26202,0.0391 -0.52403,0.0782 -0.78605,0.11735 -0.002,8e-4 -0.004,0.002 -0.005,0.002 0.006,-0.16016 -0.0101,-0.32078 -0.0293,-0.47968 -0.0338,-0.29478 -0.0873,-0.58665 -0.13363,-0.87961 -0.0521,-0.34221 -0.0986,-0.68545 -0.12514,-1.03064 -0.031,-0.36034 0.003,-0.72053 0.0692,-1.07472 0.0753,-0.38245 0.2421,-0.7302 0.43785,-1.06362 0.21435,-0.36676 0.49968,-0.6818 0.79427,-0.98479 0.31719,-0.31502 0.66082,-0.60105 1.00774,-0.8823 0.33328,-0.27347 0.69269,-0.51034 1.08024,-0.69866 0.23937,-0.0964 0.11954,-0.0533 0.35926,-0.12994 1.91365,-0.59671 2.19494,0.30539 0.28129,0.9021 v 0 c -0.15244,0.0456 -0.0749,0.0193 -0.2322,0.08 -0.32317,0.15168 -0.61601,0.35698 -0.89355,0.58057 -0.31831,0.25799 -0.63414,0.51969 -0.92606,0.80777 -0.24265,0.24828 -0.48026,0.50476 -0.65726,0.80563 -0.14219,0.23918 -0.2678,0.48595 -0.32358,0.76137 -0.054,0.27164 -0.078,0.54914 -0.0549,0.82586 0.0233,0.31961 0.0692,0.63708 0.11622,0.95394 0.0482,0.30551 0.10385,0.60993 0.13882,0.91738 0.0277,0.24295 0.0526,0.48905 0.0247,0.73318 -0.14497,0.7558 -0.97542,0.53681 -1.02352,-0.0122 -0.066,-0.26876 -0.11914,-0.54054 -0.18543,-0.80926 -0.0868,-0.40006 -0.16052,-0.80262 -0.24497,-1.20319 -0.0821,-0.40254 -0.15764,-0.80651 -0.23515,-1.20993 -0.0651,-0.35258 -0.12402,-0.70623 -0.19388,-1.05792 -0.0395,-0.22191 -0.0819,-0.44379 -0.1526,-0.65829 -0.48617,-1.94467 0.43056,-2.17385 0.91673,-0.22918 z"
       inkscape:connector-curvature="0" />
    <path
       style="opacity:1;fill:#000000;fill-opacity:1;fill-rule:nonzero;stroke:#000000;stroke-width:0.39700001;stroke-linecap:round;stroke-linejoin:round;stroke-miterlimit:4;stroke-dasharray:none;stroke-dashoffset:0;stroke-opacity:1;paint-order:markers fill stroke"
       id="path4683"
       d="m 241.7809,234.80287 c -0.0394,0.15327 -0.0726,0.30873 -0.087,0.46643 -0.0187,0.23248 -0.0224,0.46518 -0.0137,0.69809 0.0174,0.24474 0.0152,0.48976 0.0102,0.73485 -0.0409,2.00411 -0.98566,1.98482 -0.94474,-0.0193 v 0 c 0.005,-0.22723 0.007,-0.45428 -0.01,-0.68118 -0.01,-0.27707 -0.006,-0.55411 0.0181,-0.83051 0.0237,-0.21199 0.0615,-0.42216 0.11828,-0.62798 0.55069,-1.9274 1.45927,-1.6678 0.90859,0.25959 z"
       inkscape:connector-curvature="0" />
    <path
       style="opacity:1;fill:#000000;fill-opacity:1;fill-rule:nonzero;stroke:#000000;stroke-width:0.39700001;stroke-linecap:round;stroke-linejoin:round;stroke-miterlimit:4;stroke-dasharray:none;stroke-dashoffset:0;stroke-opacity:1;paint-order:markers fill stroke"
       id="path4693"
       d="m 131.34841,249.31965 c 0.0571,0.41152 0.0873,0.82612 0.11556,1.24043 0.0402,0.62607 0.0637,1.25304 0.0855,1.87998 0.0282,0.78382 -0.006,1.56842 -0.0271,2.35207 -0.022,0.78726 -0.04,1.57463 -0.0562,2.36203 -0.006,0.6113 -0.0415,1.2223 -0.0121,1.83329 0.0158,0.23199 0.007,0.12155 0.0254,0.33137 0.34252,3.99439 -1.54045,4.15585 -1.88297,0.16147 v 0 c -0.0219,-0.25797 -0.0116,-0.12296 -0.0302,-0.40509 -0.0295,-0.65334 -2e-5,-1.30635 0.0105,-1.95995 0.0163,-0.79161 0.0344,-1.58318 0.0565,-2.37465 0.0203,-0.74464 0.0535,-1.49022 0.0275,-2.23502 -0.021,-0.60601 -0.0436,-1.21206 -0.0822,-1.81725 -0.0249,-0.36782 -0.0511,-0.73597 -0.10093,-1.10141 -0.56696,-3.96875 1.30392,-4.23602 1.87088,-0.26727 z"
       inkscape:connector-curvature="0" />
    <path
       style="opacity:1;fill:#000000;fill-opacity:1;fill-rule:nonzero;stroke:#000000;stroke-width:0.39700001;stroke-linecap:round;stroke-linejoin:round;stroke-miterlimit:4;stroke-dasharray:none;stroke-dashoffset:0;stroke-opacity:1;paint-order:markers fill stroke"
       id="path4697"
       d="m 130.1675,247.74379 c 0.32244,-0.31472 0.69546,-0.56255 1.08636,-0.78275 0.52103,-0.2968 1.09489,-0.44105 1.68231,-0.53016 0.59586,-0.0752 1.19231,-0.0368 1.7803,0.0728 0.59004,0.13178 1.12233,0.4213 1.61987,0.75542 0.51948,0.3547 0.87529,0.85578 1.17539,1.39754 0.31156,0.57031 0.4152,1.18565 0.40322,1.82757 -0.0366,0.65629 -0.28876,1.24922 -0.61231,1.81046 -0.3233,0.51465 -0.74708,0.95662 -1.18837,1.3708 -0.30305,0.28797 -0.69887,0.48021 -0.93575,0.83294 -0.0933,0.15196 -0.13877,0.32515 -0.14096,0.50271 0.0375,0.24607 0.15065,0.47228 0.25879,0.69354 0.251,0.48549 0.56482,0.93417 0.88227,1.3777 0.41332,0.57689 0.8385,1.14416 1.27245,1.70559 0.46845,0.6014 0.94505,1.19662 1.4279,1.7865 0.42329,0.51931 0.84382,1.04087 1.26693,1.56032 2.53088,3.10919 1.0652,4.30226 -1.46568,1.19307 v 0 c -0.42183,-0.51853 -0.84182,-1.03854 -1.26403,-1.55676 -0.49354,-0.60365 -0.9816,-1.21201 -1.46043,-1.82741 -0.44828,-0.58004 -0.88731,-1.1663 -1.31449,-1.76213 -0.38019,-0.53227 -0.75323,-1.07261 -1.04821,-1.65807 -0.24978,-0.52544 -0.46617,-1.0703 -0.4393,-1.66394 0.0527,-0.53184 0.1925,-1.03984 0.50923,-1.48019 0.32965,-0.42732 0.72941,-0.76763 1.16285,-1.08648 0.30965,-0.28563 0.60711,-0.59228 0.84481,-0.94123 0.17042,-0.28595 0.32235,-0.58236 0.35544,-0.91958 0.0202,-0.3045 -0.0271,-0.58598 -0.17265,-0.85893 -0.15144,-0.28307 -0.31376,-0.55481 -0.58242,-0.74301 -0.27996,-0.19654 -0.58454,-0.36878 -0.91554,-0.46135 -0.37608,-0.0787 -0.75988,-0.0963 -1.14264,-0.0583 -0.36279,0.0518 -0.71755,0.12655 -1.0395,0.31176 -0.24057,0.13152 -0.46921,0.27891 -0.66949,0.46797 -2.83482,2.83482 -4.17117,1.49848 -1.33635,-1.33634 z"
       inkscape:connector-curvature="0" />
    <path
       style="opacity:1;fill:#000000;fill-opacity:1;fill-rule:nonzero;stroke:#000000;stroke-width:0.39700001;stroke-linecap:round;stroke-linejoin:round;stroke-miterlimit:4;stroke-dasharray:none;stroke-dashoffset:0;stroke-opacity:1;paint-order:markers fill stroke"
       id="path4701"
       d="m 85.167419,250.68266 c 0.214907,0.44698 0.314833,0.93645 0.40781,1.42021 0.126674,0.71882 0.198252,1.4456 0.264348,2.172 0.05909,0.83013 0.131871,1.65855 0.215744,2.48652 0.07144,0.82072 0.163351,1.6388 0.263773,2.45639 0.106207,0.79739 0.167982,1.59987 0.267248,2.39796 0.06798,0.56402 0.248399,1.09493 0.518009,1.59201 0.213664,0.38967 0.523523,0.68758 0.876872,0.9477 0.374748,0.27679 0.801438,0.44584 1.239914,0.58996 0.517435,0.16598 1.047668,0.2774 1.585465,0.34945 0.604499,0.0679 1.210673,0.13006 1.81882,0.15077 0.627343,0.002 1.25336,-2.6e-4 1.878097,0.0625 0.269743,0.0234 0.531167,0.0909 0.791324,0.16164 3.861813,1.0765 3.354348,2.89697 -0.507463,1.82047 v 0 c -0.157893,-0.0459 -0.315825,-0.0907 -0.481002,-0.10254 -0.581512,-0.0646 -1.165974,-0.0414 -1.749962,-0.0534 -0.670023,-0.0258 -1.338212,-0.0883 -2.004062,-0.1667 -0.65346,-0.0897 -1.29857,-0.22489 -1.926905,-0.4286 -0.631024,-0.21124 -1.24178,-0.47152 -1.779114,-0.87232 -0.570175,-0.43361 -1.068753,-0.93674 -1.411796,-1.5738 -0.36817,-0.70512 -0.630798,-1.45085 -0.723823,-2.24542 -0.09805,-0.7987 -0.162634,-1.60123 -0.267406,-2.39925 -0.102053,-0.83087 -0.195435,-1.66228 -0.268248,-2.49631 -0.08452,-0.83444 -0.158234,-1.66936 -0.217615,-2.50598 -0.06035,-0.6652 -0.124894,-1.3308 -0.238723,-1.98939 -0.05905,-0.31356 -0.115821,-0.6337 -0.241667,-0.92865 -1.792899,-3.5858 -0.102537,-4.43098 1.690362,-0.84518 z"
       inkscape:connector-curvature="0" />
    <path
       style="opacity:1;fill:#000000;fill-opacity:1;fill-rule:nonzero;stroke:#000000;stroke-width:0.1;stroke-linecap:round;stroke-linejoin:round;stroke-miterlimit:4;stroke-dasharray:none;stroke-dashoffset:0;stroke-opacity:1;paint-order:markers fill stroke"
       id="path4729"
       d="m 113.96151,234.2006 c 0.0686,0.40837 0.0739,0.82108 0.0715,1.23391 -0.005,0.42044 -0.0118,0.84085 -0.0175,1.26128 -0.0544,4.00867 -1.94407,3.98305 -1.8897,-0.0256 v 0 c 0.006,-0.41579 0.0123,-0.83157 0.0174,-1.24737 0.002,-0.31974 0.004,-0.63873 -0.0526,-0.95492 -0.56696,-3.96875 1.30393,-4.23602 1.87089,-0.26727 z"
       inkscape:connector-curvature="0" />
    <path
       style="opacity:1;fill:#000000;fill-opacity:1;fill-rule:nonzero;stroke:#000000;stroke-width:0.1;stroke-linecap:round;stroke-linejoin:round;stroke-miterlimit:4;stroke-dasharray:none;stroke-dashoffset:0;stroke-opacity:1;paint-order:markers fill stroke"
       id="path4739"
       d="m 114.3238,245.03595 c 0.0997,0.37799 0.16973,0.76261 0.25676,1.14361 0.0528,0.24113 0.102,0.48275 0.15849,0.72305 0.91135,3.90409 -0.92905,4.3337 -1.84041,0.42962 v 0 c -0.0565,-0.24341 -0.10825,-0.48753 -0.16052,-0.73187 -0.0795,-0.34803 -0.14566,-0.69876 -0.23148,-1.04522 -1.10137,-3.85479 0.7158,-4.37398 1.81716,-0.51919 z"
       inkscape:connector-curvature="0" />
    <path
       style="opacity:1;fill:#000000;fill-opacity:1;fill-rule:nonzero;stroke:#000000;stroke-width:0.1;stroke-linecap:round;stroke-linejoin:round;stroke-miterlimit:4;stroke-dasharray:none;stroke-dashoffset:0;stroke-opacity:1;paint-order:markers fill stroke"
       id="path4741"
       d="m 115.45104,257.90239 c -0.0322,0.25241 -0.0652,0.50509 -0.0709,0.75964 -0.13876,4.00664 -2.02751,3.94123 -1.88875,-0.0654 v 0 c 0.0133,-0.32195 0.0433,-0.64238 0.0888,-0.9615 0.56696,-3.96875 2.43785,-3.70148 1.87088,0.26727 z"
       inkscape:connector-curvature="0" />
    <path
       style="opacity:1;fill:#000000;fill-opacity:1;fill-rule:nonzero;stroke:#000000;stroke-width:0.1;stroke-linecap:round;stroke-linejoin:round;stroke-miterlimit:4;stroke-dasharray:none;stroke-dashoffset:0;stroke-opacity:1;paint-order:markers fill stroke"
       id="path4743"
       d="m 116.22768,268.73007 c 0,0.22031 0,0.44063 0,0.66095 0,4.00904 -1.88988,4.00904 -1.88988,0 v 0 c 0,-0.22032 0,-0.44064 0,-0.66095 0,-4.00905 1.88988,-4.00905 1.88988,0 z"
       inkscape:connector-curvature="0" />
  </g>
</svg>
