<?xml version="1.0" encoding="UTF-8" standalone="no"?>
<!-- Created with Inkscape (http://www.inkscape.org/) -->

<svg
   xmlns:dc="http://purl.org/dc/elements/1.1/"
   xmlns:cc="http://creativecommons.org/ns#"
   xmlns:rdf="http://www.w3.org/1999/02/22-rdf-syntax-ns#"
   xmlns:svg="http://www.w3.org/2000/svg"
   xmlns="http://www.w3.org/2000/svg"
   xmlns:sodipodi="http://sodipodi.sourceforge.net/DTD/sodipodi-0.dtd"
   xmlns:inkscape="http://www.inkscape.org/namespaces/inkscape"
   width="297mm"
   height="210mm"
   viewBox="0 0 297 210"
   version="1.1"
   id="svg7621"
   inkscape:version="0.92.1 r15371"
   sodipodi:docname="c-somewhere.svg">
  <defs
     id="defs7615" />
  <sodipodi:namedview
     id="base"
     pagecolor="#ffffff"
     bordercolor="#666666"
     borderopacity="1.0"
     inkscape:pageopacity="0.0"
     inkscape:pageshadow="2"
     inkscape:zoom="1.4"
     inkscape:cx="385.22777"
     inkscape:cy="393.21547"
     inkscape:document-units="mm"
     inkscape:current-layer="layer1"
     showgrid="false"
     inkscape:window-width="1920"
     inkscape:window-height="1046"
     inkscape:window-x="-11"
     inkscape:window-y="-11"
     inkscape:window-maximized="1" />
  <metadata
     id="metadata7618">
    <rdf:RDF>
      <cc:Work
         rdf:about="">
        <dc:format>image/svg+xml</dc:format>
        <dc:type
           rdf:resource="http://purl.org/dc/dcmitype/StillImage" />
        <dc:title />
      </cc:Work>
    </rdf:RDF>
  </metadata>
  <g
     inkscape:label="Layer 1"
     inkscape:groupmode="layer"
     id="layer1"
     transform="translate(0,-87)">
    <path
       style="opacity:1;fill:#000000;fill-opacity:1;fill-rule:nonzero;stroke:#000000;stroke-width:0.1;stroke-linecap:round;stroke-linejoin:round;stroke-miterlimit:4;stroke-dasharray:none;stroke-dashoffset:0;stroke-opacity:1;paint-order:markers fill stroke"
       id="path8234"
       d="m 26.07499,187.30048 c 0.242648,0.033 0.486782,0.053 0.730855,0.0718 0.371491,0.0272 0.743701,0.0428 1.115845,0.0578 0.451059,-0.001 0.901891,-0.0194 1.352722,-0.0324 0.521976,-0.0148 1.044038,-0.0262 1.566127,-0.0361 0.546024,-0.0139 1.092528,-0.009 1.638263,-0.0321 0.552651,-0.0308 1.105109,-0.0647 1.657911,-0.0928 0.586224,-0.0468 1.171999,-0.0985 1.758503,-0.14183 0.676323,-0.038 1.350679,-0.10173 2.025743,-0.15663 0.757917,-0.0641 1.517904,-0.0981 2.276353,-0.15414 0.801545,-0.0566 1.601441,-0.13099 2.401263,-0.20755 0.841441,-0.0756 1.680684,-0.17319 2.518976,-0.27752 0.877403,-0.10117 1.752545,-0.22024 2.629212,-0.32741 0.88383,-0.12571 1.770703,-0.22802 2.655708,-0.34453 0.871955,-0.11825 1.745779,-0.22129 2.617795,-0.33901 0.835512,-0.1161 1.673355,-0.2139 2.512179,-0.30248 0.796087,-0.0734 1.591152,-0.15526 2.386158,-0.23945 0.811684,-0.0906 1.626547,-0.14694 2.439615,-0.22247 0.881126,-0.0796 1.761344,-0.16805 2.64175,-0.25519 0.976043,-0.11613 1.954771,-0.20705 2.932015,-0.31182 1.041471,-0.11822 2.085242,-0.21392 3.129785,-0.30017 1.065149,-0.0757 2.128676,-0.17131 3.193127,-0.25588 1.091033,-0.0862 2.183445,-0.15283 3.276158,-0.21336 1.085797,-0.0592 2.17229,-0.10409 3.258907,-0.14494 1.062292,-0.0391 2.124872,-0.0695 3.187499,-0.0977 1.012354,-0.0264 2.024838,-0.0472 3.037359,-0.0659 0.990711,-0.0183 1.981493,-0.032 2.972292,-0.0444 0.991169,-0.0122 1.982369,-0.0216 2.973575,-0.03 1.002093,-0.0238 2.003803,-0.0614 3.005698,-0.0922 1.028915,-0.0314 2.058033,-0.0553 3.087193,-0.0769 1.057077,-0.0108 2.113172,-0.0568 3.169364,-0.0979 1.1052,-0.043 2.21073,-0.0763 3.31635,-0.10614 1.13064,-0.0301 2.26147,-0.0524 3.39232,-0.0727 1.14033,-0.0202 2.28073,-0.0353 3.42116,-0.0491 1.16567,-0.003 2.33061,-0.043 3.49559,-0.079 1.17668,-0.0372 2.35357,-0.0665 3.53053,-0.0932 1.17595,-0.0263 2.35203,-0.0459 3.52812,-0.064 1.14861,-0.008 2.29654,-0.0373 3.44446,-0.0755 1.1505,-0.0397 2.3012,-0.0732 3.45199,-0.10334 1.12729,-0.0291 2.25473,-0.0515 3.3822,-0.0719 1.09304,-0.0193 2.18614,-0.0347 3.27925,-0.0486 1.06123,-0.0132 2.12249,-0.0234 3.18375,-0.0328 1.03519,-0.009 2.07039,-0.0158 3.1056,-0.0221 1.01178,-0.0155 2.02321,-0.005 3.03475,0.0179 0.97649,0.0236 1.95302,0.0451 2.92962,0.064 0.96987,0.0184 1.93981,0.0326 2.90977,0.0453 0.97291,0.0125 1.94585,0.0221 2.91881,0.0306 0.96009,0.008 1.9202,0.0148 2.88031,0.0207 0.94686,0.006 1.89373,0.01 2.8406,0.014 0.91815,0.004 1.8363,0.007 2.75445,0.009 0.88644,0.003 1.77288,0.005 2.65932,0.006 0.85254,-0.0131 1.70471,-0.0432 2.55698,-0.0677 0.83835,-0.0239 1.67683,-0.043 2.51535,-0.0603 0.80965,-0.0165 1.61937,-0.0293 2.4291,-0.041 0.79098,-0.0111 1.582,-0.0199 2.37303,-0.0277 0.78139,-0.008 1.56281,-0.0134 2.34423,-0.0187 0.77353,-0.0205 1.5466,-0.0555 2.31986,-0.0844 0.7893,-0.0292 1.57883,-0.0515 2.3684,-0.0718 0.78685,-0.009 1.57241,-0.0537 2.35807,-0.0942 0.79787,-0.0414 1.59614,-0.0742 2.39453,-0.10396 0.79332,-0.0194 1.58558,-0.057 2.37773,-0.10303 0.8103,-0.0483 1.62112,-0.0869 2.43206,-0.12251 0.80057,-0.0346 1.60146,-0.0609 2.40241,-0.0849 0.80028,-0.0235 1.60071,-0.0411 2.40116,-0.0572 0.8162,-0.0161 1.63247,-0.0279 2.44875,-0.0386 0.8399,-0.0108 1.67983,-0.0187 2.51977,-0.026 0.85645,-0.007 1.71292,-0.0126 2.56939,-0.0175 0.88307,-0.005 1.76614,-0.009 2.64922,-0.0118 0.9103,-0.003 1.82061,-0.006 2.73091,-0.008 0.92312,-0.006 1.84595,0.0288 2.76859,0.0543 0.89517,0.0248 1.79046,0.0449 2.68578,0.0632 0.87266,0.015 1.74512,0.0272 2.61719,0.0633 0.82589,0.038 1.65187,0.0738 2.47801,0.10559 0.77647,0.0299 1.55317,0.0533 2.3299,0.0751 0.74654,0.0177 1.49284,0.0327 2.23864,0.0711 0.70183,0.0394 1.40377,0.0769 2.1059,0.11067 0.67141,0.0313 1.34311,0.0558 2.01486,0.0784 0.66647,0.0188 1.33268,0.0351 1.99834,0.0736 0.65293,0.0412 1.30604,0.0792 1.95944,0.11209 0.65654,0.0291 1.31306,0.0651 1.97031,0.0712 0.66469,-0.002 1.32931,-0.0134 1.99393,-0.0225 0.66132,-0.009 1.32267,-0.0163 1.98402,-0.0229 0.62951,-0.006 1.25903,-0.0111 1.88855,-0.0156 0.565,-0.0186 1.12933,-0.0533 1.69388,-0.082 0.55394,-0.0283 1.1082,-0.0495 1.66245,-0.0706 0.29893,-0.0259 0.61812,-0.0396 0.89432,-0.17004 0.0441,-0.0981 -0.0783,0.0908 -0.0924,0.13168 -0.0177,0.0556 -0.13752,-0.16504 -0.16938,-0.20556 -0.19078,-0.23386 -0.42329,-0.42813 -0.63414,-0.64312 -0.36904,-0.3622 -0.47543,-0.63959 -0.41354,-1.15427 0.25827,-0.52898 0.71389,-0.6106 1.24771,-0.6134 0.45422,0.0131 0.90202,0.0931 1.34739,0.17706 0.50055,0.1007 0.99279,0.23639 1.47332,0.40841 0.47998,0.17949 0.90942,0.44437 1.27506,0.80147 0.35886,0.3904 0.47438,0.86908 0.48094,1.38453 -0.0306,0.53924 -0.25887,1.01414 -0.54251,1.46229 -0.31974,0.48809 -0.74312,0.89092 -1.18642,1.26472 -0.31428,0.26396 -0.65001,0.4999 -0.98898,0.73054 -2.345,1.59285 -3.09588,0.4874 -0.75088,-1.10545 v 0 c 0.30216,-0.20486 0.60141,-0.41453 0.88147,-0.64929 0.34229,-0.28462 0.6714,-0.59139 0.92077,-0.96327 0.15167,-0.23006 0.28501,-0.46858 0.33022,-0.74455 0.007,-0.15673 0.004,-0.31008 -0.0954,-0.44052 -0.2074,-0.23084 -0.49721,-0.36309 -0.77798,-0.48352 -0.41254,-0.15055 -0.83745,-0.26293 -1.26734,-0.35218 -0.36326,-0.0686 -0.72778,-0.13646 -1.09789,-0.1539 -0.3974,-0.002 -0.10303,0.0212 0.0311,-0.34066 0.008,-0.359 -0.14857,-0.42205 0.0895,-0.16126 0.24949,0.25749 0.53057,0.4855 0.74656,0.77433 0.23297,0.31733 0.42834,0.65672 0.43572,1.0621 -0.0524,0.48447 -0.28249,0.83997 -0.73321,1.04919 -0.43248,0.1698 -0.88839,0.25341 -1.35305,0.27005 -0.54864,0.0209 -1.09728,0.0418 -1.6456,0.0698 -0.58392,0.0296 -1.1676,0.0659 -1.75205,0.0837 -0.62826,0.004 -1.25652,0.009 -1.88477,0.0156 -0.65966,0.007 -1.31931,0.0136 -1.97894,0.0228 -0.67517,0.009 -1.35033,0.0213 -2.02557,0.0226 -0.67526,-0.007 -1.3498,-0.042 -2.02433,-0.0728 -0.65674,-0.0331 -1.3132,-0.0712 -1.96948,-0.11263 -0.65491,-0.038 -1.31038,-0.0533 -1.96609,-0.0721 -0.67812,-0.0229 -1.35619,-0.0476 -2.03396,-0.0792 -0.70371,-0.0338 -1.40723,-0.0714 -2.11065,-0.1109 -0.73532,-0.038 -1.47116,-0.0522 -2.20722,-0.0699 -0.78138,-0.0219 -1.56271,-0.0455 -2.34383,-0.0756 -0.82746,-0.0319 -1.65476,-0.0676 -2.48196,-0.10575 -0.86273,-0.0358 -1.72586,-0.0474 -2.58916,-0.0624 -0.89853,-0.0184 -1.79702,-0.0385 -2.6954,-0.0634 -0.90924,-0.0252 -1.81865,-0.0592 -2.72836,-0.0539 -0.90974,0.002 -1.81949,0.005 -2.72922,0.008 -0.88218,0.003 -1.76435,0.007 -2.64652,0.0118 -0.85517,0.005 -1.71034,0.0103 -2.5655,0.0175 -0.83793,0.007 -1.67586,0.0152 -2.51375,0.0259 -0.81317,0.0107 -1.62632,0.0224 -2.4394,0.0384 -0.7961,0.0161 -1.59219,0.0336 -2.38812,0.0569 -0.79472,0.0238 -1.58938,0.0498 -2.38372,0.0842 -0.80462,0.0353 -1.60913,0.0736 -2.41311,0.12154 -0.80144,0.0466 -1.60301,0.0847 -2.40562,0.10437 -0.79206,0.0295 -1.58401,0.062 -2.37556,0.10311 -0.79708,0.041 -1.59408,0.0864 -2.39237,0.0955 -0.78442,0.0202 -1.5688,0.0423 -2.35296,0.0713 -0.78684,0.0294 -1.57348,0.0653 -2.36064,0.0853 -0.78004,0.005 -1.56008,0.0111 -2.34011,0.0186 -0.78897,0.008 -1.57795,0.0165 -2.36689,0.0276 -0.80696,0.0117 -1.6139,0.0244 -2.42079,0.0409 -0.83491,0.0172 -1.66979,0.0363 -2.50454,0.0601 -0.86598,0.0249 -1.73187,0.0557 -2.59815,0.0683 -0.88683,-0.002 -1.77366,-0.004 -2.6605,-0.006 -0.91871,-0.003 -1.83742,-0.006 -2.75612,-0.009 -0.94772,-0.004 -1.89544,-0.008 -2.84315,-0.014 -0.96132,-0.006 -1.92264,-0.0123 -2.88395,-0.0207 -0.97485,-0.009 -1.94971,-0.0182 -2.92452,-0.0307 -0.97273,-0.0127 -1.94543,-0.027 -2.91806,-0.0454 -0.97793,-0.0189 -1.9558,-0.0404 -2.93363,-0.0641 -0.99891,-0.0223 -1.99769,-0.0331 -2.99684,-0.0176 -1.03399,0.006 -2.06797,0.0131 -3.10194,0.0221 -1.05954,0.009 -2.11907,0.0196 -3.17856,0.0327 -1.09072,0.0138 -2.18141,0.0292 -3.27204,0.0484 -1.12388,0.0204 -2.24773,0.0427 -3.37142,0.0717 -1.14761,0.03 -2.29512,0.0634 -3.44245,0.10307 -1.15589,0.0385 -2.3118,0.0683 -3.46838,0.0761 -1.17287,0.018 -2.34572,0.0376 -3.51843,0.0638 -1.1733,0.0266 -2.34655,0.0558 -3.51958,0.0929 -1.17335,0.0362 -2.34669,0.0767 -3.52075,0.0795 -1.13778,0.0137 -2.27555,0.0288 -3.41324,0.0489 -1.12685,0.0202 -2.25367,0.0425 -3.38031,0.0725 -1.10031,0.0296 -2.20052,0.0629 -3.30041,0.10562 -1.064154,0.0414 -2.128213,0.0876 -3.193251,0.0986 -1.024808,0.0215 -2.049576,0.0453 -3.074141,0.0765 -1.011814,0.0311 -2.023435,0.0692 -3.035461,0.0928 -0.989407,0.008 -1.978808,0.0178 -2.968175,0.0299 -0.988163,0.0124 -1.976311,0.0261 -2.964384,0.0443 -1.008933,0.0186 -2.017829,0.0393 -3.026592,0.0656 -1.057699,0.028 -2.115344,0.0583 -3.172709,0.0972 -1.078714,0.0405 -2.157307,0.0851 -3.235209,0.14384 -1.082058,0.0599 -2.16382,0.12592 -3.24422,0.21121 -1.063077,0.0844 -2.125234,0.18 -3.189007,0.25554 -1.033732,0.0853 -2.066695,0.18005 -3.097376,0.2971 -0.980834,0.10503 -1.963108,0.1966 -2.942749,0.31292 -0.883142,0.0874 -1.766102,0.17605 -2.649963,0.25599 -0.807316,0.0748 -1.616353,0.13115 -2.422303,0.22075 -0.79515,0.0842 -1.590358,0.16611 -2.386589,0.23949 -0.825982,0.0872 -1.65099,0.18351 -2.473698,0.29786 -0.87352,0.1179 -1.748833,0.22122 -2.622296,0.3396 -0.889069,0.11685 -1.779932,0.22006 -2.667834,0.34607 -0.87571,0.10703 -1.749888,0.22602 -2.626331,0.32706 -0.850836,0.10587 -1.702646,0.20488 -2.556668,0.28166 -0.809541,0.0775 -1.619179,0.15262 -2.430455,0.21003 -0.755094,0.0554 -1.511628,0.09 -2.266198,0.15335 -0.678347,0.0551 -1.355998,0.11914 -2.035601,0.1574 -0.596657,0.0441 -1.192504,0.0975 -1.788973,0.14372 -0.557106,0.0284 -1.113851,0.0627 -1.670825,0.0935 -0.55568,0.0224 -1.111972,0.0199 -1.667933,0.033 -0.517724,0.01 -1.035421,0.0211 -1.55303,0.0358 -0.481597,0.0139 -0.96325,0.0345 -1.445123,0.0318 -0.388503,-0.0157 -0.777076,-0.0322 -1.164889,-0.0607 -0.272833,-0.0211 -0.545705,-0.0439 -0.816886,-0.0813 -2.806329,-0.40091 -2.617341,-1.72382 0.188989,-1.32292 z"
       inkscape:connector-curvature="0" />
    <path
       style="opacity:1;fill:#000000;fill-opacity:1;fill-rule:nonzero;stroke:#000000;stroke-width:0.1;stroke-linecap:round;stroke-linejoin:round;stroke-miterlimit:4;stroke-dasharray:none;stroke-dashoffset:0;stroke-opacity:1;paint-order:markers fill stroke"
       id="path8236"
       d="m 80.850223,180.16408 c 0.07045,0.29008 0.111284,0.5865 0.14995,0.8822 0.05949,0.4785 0.09456,0.95956 0.1265,1.44054 0.03634,0.56281 0.06096,1.12626 0.08398,1.68974 0.01466,0.38271 0.0076,0.1915 0.0213,0.57365 0.101907,2.83299 -1.233578,2.88102 -1.335484,0.048 v 0 c -0.0136,-0.37791 -0.0066,-0.18886 -0.02106,-0.56715 -0.02254,-0.55217 -0.04662,-1.10433 -0.08217,-1.65584 -0.03,-0.4529 -0.06269,-0.90589 -0.118253,-1.35651 -0.03761,-0.29054 -0.08254,-0.57987 -0.147696,-0.86568 -0.400904,-2.80633 0.922012,-2.99532 1.322917,-0.18899 z"
       inkscape:connector-curvature="0" />
    <path
       style="opacity:1;fill:#000000;fill-opacity:1;fill-rule:nonzero;stroke:#000000;stroke-width:0.1;stroke-linecap:round;stroke-linejoin:round;stroke-miterlimit:4;stroke-dasharray:none;stroke-dashoffset:0;stroke-opacity:1;paint-order:markers fill stroke"
       id="path8238"
       d="m 82.798202,196.64029 c -0.174046,-0.005 -0.345297,0.0325 -0.512257,0.0782 -0.208045,0.0665 -0.399563,0.1628 -0.574344,0.29307 -0.204666,0.18741 -0.366779,0.41019 -0.513766,0.64388 -0.181192,0.28176 -0.278812,0.60049 -0.369752,0.91969 -0.08882,0.32895 -0.101857,0.66197 -0.06276,0.99837 0.039,0.24666 0.117599,0.48537 0.284075,0.67487 0.06521,0.0616 0.129558,0.096 0.203668,0.0689 0.160091,-0.0469 0.286607,-0.14976 0.41352,-0.25378 0.217487,-0.18739 0.37733,-0.42497 0.521909,-0.67011 0.173916,-0.33216 0.305382,-0.68 0.504815,-0.99861 0.274306,-0.41082 0.643789,-0.61043 1.134631,-0.61595 0.474252,0.0729 0.804698,0.38717 1.113443,0.72822 0.31137,0.36724 0.582732,0.76547 0.848553,1.16617 0.289058,0.44017 0.590825,0.87203 0.899491,1.29863 1.660737,2.29743 0.57772,3.08031 -1.083016,0.78288 v 0 c -0.318913,-0.44155 -0.631616,-0.88786 -0.930431,-1.34332 -0.229844,-0.34726 -0.464154,-0.69247 -0.730441,-1.01322 -0.04461,-0.0508 -0.378124,-0.31405 -0.201512,-0.28565 0.143153,-0.0324 0.215681,-0.14321 0.07053,0.009 -0.206597,0.29133 -0.277939,0.65975 -0.478597,0.95649 -0.229801,0.38177 -0.490056,0.74541 -0.837181,1.03076 -0.364321,0.2852 -0.755232,0.51686 -1.229574,0.54443 -0.507138,-0.0181 -0.93734,-0.18614 -1.272601,-0.5821 -0.302649,-0.40326 -0.501214,-0.85326 -0.56034,-1.35855 -0.04964,-0.5074 -0.03135,-1.01206 0.107257,-1.50619 0.127444,-0.44196 0.275111,-0.87932 0.526814,-1.26861 0.24094,-0.37568 0.511413,-0.73284 0.86318,-1.013 0.311597,-0.21866 0.64562,-0.39448 1.013528,-0.49927 0.278382,-0.0712 0.562174,-0.12846 0.851157,-0.12191 2.83482,0 2.83482,1.33634 0,1.33634 z"
       inkscape:connector-curvature="0" />
    <path
       style="opacity:1;fill:#000000;fill-opacity:1;fill-rule:nonzero;stroke:#000000;stroke-width:0.1;stroke-linecap:round;stroke-linejoin:round;stroke-miterlimit:4;stroke-dasharray:none;stroke-dashoffset:0;stroke-opacity:1;paint-order:markers fill stroke"
       id="path8240"
       d="m 184.54961,180.25857 c -0.009,0.27331 0.0112,0.54521 0.0309,0.81753 0.0245,0.38884 0.0817,0.77466 0.14574,1.15865 0.0483,0.27292 0.1183,0.54061 0.18943,0.8082 0.72767,2.73983 -0.5639,3.08286 -1.29157,0.34303 v 0 c -0.0818,-0.30824 -0.16102,-0.61704 -0.21602,-0.93146 -0.0708,-0.42491 -0.13289,-0.85191 -0.16046,-1.2821 -0.022,-0.3043 -0.0434,-0.60851 -0.0344,-0.91385 0,-2.83482 1.33635,-2.83482 1.33635,0 z"
       inkscape:connector-curvature="0" />
    <path
       style="opacity:1;fill:#000000;fill-opacity:1;fill-rule:nonzero;stroke:#000000;stroke-width:0.1;stroke-linecap:round;stroke-linejoin:round;stroke-miterlimit:4;stroke-dasharray:none;stroke-dashoffset:0;stroke-opacity:1;paint-order:markers fill stroke"
       id="path8242"
       d="m 183.55828,200.19715 c 0.11184,-0.26829 0.19947,-0.54533 0.28314,-0.82342 0.13335,-0.45775 0.22696,-0.9263 0.29109,-1.39844 0.0696,-0.52421 0.0904,-1.05325 0.085,-1.58157 -0.01,-0.42408 -0.084,-0.84164 -0.22002,-1.24265 -0.15685,-0.40664 -0.19621,-0.20781 0.2124,-0.0427 0.38024,0.0468 0.53549,-0.38495 0.376,0.0801 -0.11354,0.38651 -0.14627,0.79263 -0.18683,1.19201 -0.0421,0.56508 -0.0407,1.13151 -0.0111,1.69701 0.0303,0.61025 0.11963,1.21604 0.2481,1.81287 0.11997,0.53879 0.3207,1.05213 0.56939,1.54329 0.20055,0.3925 0.48579,0.71995 0.83468,0.98522 0.28601,0.20525 0.61433,0.2901 0.9592,0.32156 0.276,0.0206 0.53689,-0.0341 0.77196,-0.17968 0.13109,-0.0957 0.21768,-0.2441 0.22335,-0.40761 0.006,-0.18271 -0.0908,-0.33902 -0.19653,-0.48045 -0.18068,-0.23155 -0.41244,-0.40565 -0.66551,-0.54952 -0.18459,-0.0932 -0.0932,-0.0525 -0.27355,-0.12374 -2.61973,-1.08316 -2.10912,-2.31811 0.51061,-1.23495 v 0 c 0.30056,0.1274 0.15571,0.0591 0.43513,0.2037 0.42247,0.24946 0.80688,0.55166 1.09779,0.9522 0.29549,0.45087 0.48838,0.93501 0.40435,1.4852 -0.12586,0.55403 -0.38939,1.02448 -0.89028,1.32536 -0.48746,0.25657 -1.00286,0.39409 -1.55878,0.33832 -0.59314,-0.0685 -1.15599,-0.23376 -1.64076,-0.59756 -0.49777,-0.39586 -0.91829,-0.86515 -1.20577,-1.43811 -0.29676,-0.59432 -0.53998,-1.21334 -0.68219,-1.86427 -0.14127,-0.66662 -0.24303,-1.34224 -0.27579,-2.0236 -0.0317,-0.63341 -0.0342,-1.268 0.0163,-1.90071 0.0515,-0.50418 0.0987,-1.01531 0.25562,-1.49983 0.17899,-0.50111 0.40681,-0.94832 1.01377,-0.96691 0.60978,0.1823 0.71705,0.3866 0.92653,0.951 0.17552,0.53486 0.27922,1.08876 0.2883,1.65317 0.004,0.59331 -0.018,1.18732 -0.0976,1.77591 -0.0758,0.54061 -0.18061,1.07769 -0.33554,1.6017 -0.0986,0.32552 -0.2022,0.64971 -0.33415,0.96354 -1.11669,2.60561 -2.34499,2.0792 -1.2283,-0.52641 z"
       inkscape:connector-curvature="0" />
    <path
       style="opacity:1;fill:#000000;fill-opacity:1;fill-rule:nonzero;stroke:#000000;stroke-width:0.1;stroke-linecap:round;stroke-linejoin:round;stroke-miterlimit:4;stroke-dasharray:none;stroke-dashoffset:0;stroke-opacity:1;paint-order:markers fill stroke"
       id="path8244"
       d="m 57.502318,180.01494 c -0.103256,0.22816 -0.193092,0.46218 -0.279407,0.69719 -0.140902,0.38212 -0.259676,0.77053 -0.360228,1.16503 -0.122589,0.48287 -0.195956,0.97458 -0.229129,1.47113 -0.02863,0.54365 0.0293,1.08217 0.12491,1.61623 0.130548,0.58057 0.34789,1.13642 0.604099,1.6719 0.283477,0.57258 0.623771,1.11331 0.992743,1.63395 0.220496,0.3097 0.477353,0.58911 0.742759,0.86008 1.979454,2.02928 1.022843,2.9624 -0.956611,0.93312 v 0 c -0.313285,-0.32228 -0.616889,-0.65413 -0.877311,-1.02171 -0.412033,-0.58396 -0.793252,-1.18959 -1.108633,-1.83198 -0.304551,-0.6448 -0.565507,-1.31236 -0.712917,-2.01231 -0.112625,-0.64179 -0.179636,-1.28946 -0.142156,-1.94215 0.04149,-0.57664 0.123577,-1.14851 0.267542,-1.70926 0.112509,-0.43887 0.244464,-0.87134 0.40119,-1.29659 0.103973,-0.28077 0.21064,-0.56104 0.337884,-0.83226 1.267772,-2.53554 2.463038,-1.93791 1.195265,0.59763 z"
       inkscape:connector-curvature="0" />
    <path
       style="opacity:1;fill:#000000;fill-opacity:1;fill-rule:nonzero;stroke:#000000;stroke-width:0.1;stroke-linecap:round;stroke-linejoin:round;stroke-miterlimit:4;stroke-dasharray:none;stroke-dashoffset:0;stroke-opacity:1;paint-order:markers fill stroke"
       id="path8246"
       d="m 100.57233,176.42207 c 0.25111,0.13439 0.47671,0.30727 0.69826,0.48475 0.33996,0.27852 0.60988,0.62683 0.85995,0.98506 0.29696,0.43312 0.49873,0.91699 0.67648,1.40818 0.20853,0.55404 0.30878,1.13534 0.37744,1.72056 0.0621,0.6381 0.0238,1.2779 -0.0659,1.91085 -0.0846,0.61965 -0.25555,1.22184 -0.44796,1.81535 -0.0851,0.28311 -0.19585,0.55661 -0.30981,0.82891 -1.10022,2.61261 -2.33182,2.09396 -1.2316,-0.51865 v 0 c 0.10072,-0.23733 0.19683,-0.47637 0.27066,-0.72381 0.17011,-0.52039 0.32138,-1.04869 0.39602,-1.59237 0.0762,-0.51836 0.10771,-1.04268 0.0612,-1.56585 -0.0557,-0.48354 -0.1337,-0.96435 -0.30726,-1.42195 -0.13727,-0.38281 -0.28884,-0.76206 -0.51815,-1.10078 -0.1737,-0.25417 -0.36207,-0.50259 -0.59751,-0.70329 -0.14732,-0.1185 -0.2952,-0.23742 -0.45945,-0.33169 -2.535541,-1.26777 -1.937908,-2.46303 0.59763,-1.19527 z"
       inkscape:connector-curvature="0" />
    <path
       style="opacity:1;fill:#000000;fill-opacity:1;fill-rule:nonzero;stroke:#000000;stroke-width:0.1;stroke-linecap:round;stroke-linejoin:round;stroke-miterlimit:4;stroke-dasharray:none;stroke-dashoffset:0;stroke-opacity:1;paint-order:markers fill stroke"
       id="path8250"
       d="m 165.9136,178.27299 c -0.16376,0.18801 -0.3005,0.39807 -0.42733,0.6122 -0.19234,0.30367 -0.32874,0.63688 -0.45369,0.97252 -0.14756,0.37744 -0.22897,0.77127 -0.29245,1.1698 -0.0561,0.4397 -0.0548,0.88417 -0.0344,1.32618 0.0157,0.47422 0.099,0.94032 0.19674,1.40321 0.0935,0.43256 0.2542,0.84288 0.46578,1.23024 0.13063,0.21429 0.0635,0.11175 0.20053,0.30819 1.60642,2.33573 0.50534,3.093 -1.10107,0.75727 v 0 c -0.1916,-0.28135 -0.0996,-0.13753 -0.27591,-0.43158 -0.26784,-0.50203 -0.47891,-1.02972 -0.59692,-1.58836 -0.11254,-0.53438 -0.20522,-1.07306 -0.22421,-1.62021 -0.0225,-0.5324 -0.0234,-1.0675 0.05,-1.59649 0.0783,-0.48583 0.18193,-0.96594 0.36028,-1.42637 0.15414,-0.41059 0.32402,-0.81704 0.55807,-1.18964 0.16405,-0.27299 0.33893,-0.54135 0.54801,-0.78247 1.81481,-2.17776 2.84142,-1.32226 1.02661,0.85551 z"
       inkscape:connector-curvature="0" />
    <path
       style="opacity:1;fill:#000000;fill-opacity:1;fill-rule:nonzero;stroke:#000000;stroke-width:0.1;stroke-linecap:round;stroke-linejoin:round;stroke-miterlimit:4;stroke-dasharray:none;stroke-dashoffset:0;stroke-opacity:1;paint-order:markers fill stroke"
       id="path8252"
       d="m 204.51423,176.94006 c 0.15824,0.25701 0.29136,0.52815 0.41068,0.80506 0.17416,0.36872 0.29746,0.75716 0.40874,1.1485 0.12679,0.50574 0.17397,1.02424 0.18502,1.54399 0.0125,0.56771 -0.0675,1.13112 -0.17465,1.68698 -0.126,0.60353 -0.3442,1.18168 -0.57668,1.75087 -0.23019,0.54576 -0.50936,1.0672 -0.80496,1.5796 -0.18546,0.31279 -0.39477,0.61069 -0.60755,0.90526 -1.66222,2.29636 -2.74473,1.51278 -1.08251,-0.78357 v 0 c 0.18642,-0.2569 0.36921,-0.51717 0.53255,-0.78952 0.26571,-0.46048 0.5182,-0.92807 0.72584,-1.4183 0.20041,-0.48766 0.38976,-0.98292 0.50155,-1.49953 0.0912,-0.46335 0.15957,-0.93356 0.15029,-1.40711 -0.006,-0.40515 -0.0426,-0.80873 -0.13462,-1.20429 -0.095,-0.33666 -0.20014,-0.67073 -0.35157,-0.98707 -0.0859,-0.20252 -0.18362,-0.39926 -0.29404,-0.58959 -1.57247,-2.35872 -0.46057,-3.09999 1.11191,-0.74128 z"
       inkscape:connector-curvature="0" />
    <path
       style="opacity:1;fill:#000000;fill-opacity:1;fill-rule:nonzero;stroke:#000000;stroke-width:0.1;stroke-linecap:round;stroke-linejoin:round;stroke-miterlimit:4;stroke-dasharray:none;stroke-dashoffset:0;stroke-opacity:1;paint-order:markers fill stroke"
       id="path8254"
       d="m 63.996429,183.02576 c -0.03343,0.21157 -0.0313,0.427 -0.01688,0.64018 0.04073,0.33194 0.113069,0.65826 0.180385,0.98545 0.0515,0.263 0.02429,0.13715 0.08049,0.37778 0.638575,2.76197 -0.663426,3.06299 -1.302001,0.30103 v 0 c -0.06444,-0.28093 -0.03558,-0.14435 -0.08743,-0.40955 -0.08021,-0.38996 -0.166211,-0.77945 -0.205491,-1.17631 -0.01614,-0.30256 -0.01998,-0.60736 0.02801,-0.90757 0.400905,-2.80633 1.723822,-2.61734 1.322917,0.18899 z"
       inkscape:connector-curvature="0" />
    <path
       style="opacity:1;fill:#000000;fill-opacity:1;fill-rule:nonzero;stroke:#000000;stroke-width:0.1;stroke-linecap:round;stroke-linejoin:round;stroke-miterlimit:4;stroke-dasharray:none;stroke-dashoffset:0;stroke-opacity:1;paint-order:markers fill stroke"
       id="path8256"
       d="m 68.554634,182.93127 c 0.02066,0.21311 0.05178,0.42424 0.09794,0.63344 0.076,0.35797 0.161139,0.7137 0.243978,1.07011 0.01524,0.056 0.03047,0.11193 0.04571,0.16789 0.738229,2.73702 -0.552009,3.08502 -1.290238,0.34801 v 0 c -0.01905,-0.0712 -0.03811,-0.14234 -0.05716,-0.2135 -0.08443,-0.3636 -0.171096,-0.72654 -0.248796,-1.09166 -0.06365,-0.30152 -0.112101,-0.6061 -0.127788,-0.91429 0,-2.83482 1.336347,-2.83482 1.336347,0 z"
       inkscape:connector-curvature="0" />
    <path
       style="opacity:1;fill:#000000;fill-opacity:1;fill-rule:nonzero;stroke:#000000;stroke-width:0.1;stroke-linecap:round;stroke-linejoin:round;stroke-miterlimit:4;stroke-dasharray:none;stroke-dashoffset:0;stroke-opacity:1;paint-order:markers fill stroke"
       id="path8258"
       d="m 73.890128,182.21317 c 0.07216,0.29497 0.147212,0.58925 0.210476,0.88635 0.08264,0.41381 0.174562,0.82553 0.251982,1.24043 0.04372,0.27295 0.101287,0.54346 0.170195,0.81107 0.698937,2.74731 -0.596159,3.07679 -1.295093,0.32948 v 0 c -0.07459,-0.29597 -0.140978,-0.59409 -0.18883,-0.89571 -0.07523,-0.4042 -0.165298,-0.80517 -0.245589,-1.20833 -0.05619,-0.26694 -0.1251,-0.53084 -0.188068,-0.79617 -0.778788,-2.72575 0.506142,-3.09287 1.284927,-0.36712 z"
       inkscape:connector-curvature="0" />
    <path
       style="opacity:1;fill:#000000;fill-opacity:1;fill-rule:nonzero;stroke:#000000;stroke-width:0.1;stroke-linecap:round;stroke-linejoin:round;stroke-miterlimit:4;stroke-dasharray:none;stroke-dashoffset:0;stroke-opacity:1;paint-order:markers fill stroke"
       id="path8260"
       d="m 78.177527,183.10404 c 0.02315,0.16557 0.03934,0.33197 0.05527,0.49835 0.269436,2.82199 -1.060863,2.949 -1.330298,0.12702 v 0 c -0.01387,-0.14568 -0.02786,-0.29139 -0.04789,-0.43638 -0.400902,-2.80633 0.922015,-2.99532 1.322918,-0.18899 z"
       inkscape:connector-curvature="0" />
    <path
       style="opacity:1;fill:#000000;fill-opacity:1;fill-rule:nonzero;stroke:#000000;stroke-width:0.1;stroke-linecap:round;stroke-linejoin:round;stroke-miterlimit:4;stroke-dasharray:none;stroke-dashoffset:0;stroke-opacity:1;paint-order:markers fill stroke"
       id="path8262"
       d="m 83.507103,182.49122 c -0.0058,0.2077 0.01447,0.41432 0.03259,0.62116 0.03195,0.353 0.08979,0.70317 0.134562,1.05477 0.0063,0.0769 0.01259,0.1538 0.01886,0.2307 0.221613,2.82615 -1.110646,2.93062 -1.332259,0.10447 v 0 c -0.0041,-0.0555 -0.0082,-0.11101 -0.01228,-0.16651 -0.0469,-0.36897 -0.107778,-0.7364 -0.140169,-1.10699 -0.02693,-0.30811 -0.05416,-0.61745 -0.02424,-0.92659 0.400905,-2.80633 1.723822,-2.61734 1.322917,0.18899 z"
       inkscape:connector-curvature="0" />
    <path
       style="opacity:1;fill:#000000;fill-opacity:1;fill-rule:nonzero;stroke:#000000;stroke-width:0.1;stroke-linecap:round;stroke-linejoin:round;stroke-miterlimit:4;stroke-dasharray:none;stroke-dashoffset:0;stroke-opacity:1;paint-order:markers fill stroke"
       id="path8264"
       d="m 85.928344,183.10404 c 0.02572,0.25566 0.0667,0.50874 0.107466,0.76232 0.04937,0.30575 0.08546,0.61335 0.118785,0.92119 0.30462,2.8184 -1.023988,2.962 -1.328611,0.1436 v 0 c -0.03074,-0.28494 -0.06395,-0.56969 -0.109585,-0.8527 -0.04198,-0.2612 -0.08433,-0.52211 -0.110971,-0.78542 -0.400905,-2.80633 0.922012,-2.99532 1.322916,-0.18899 z"
       inkscape:connector-curvature="0" />
    <path
       style="opacity:1;fill:#000000;fill-opacity:1;fill-rule:nonzero;stroke:#000000;stroke-width:0.1;stroke-linecap:round;stroke-linejoin:round;stroke-miterlimit:4;stroke-dasharray:none;stroke-dashoffset:0;stroke-opacity:1;paint-order:markers fill stroke"
       id="path8266"
       d="m 76.842735,182.8563 c 0.03827,0.26892 0.08342,0.53778 0.136528,0.8043 0.05315,0.25043 0.09951,0.50215 0.143497,0.75431 0.486444,2.79278 -0.830083,3.02209 -1.316527,0.22931 v 0 c -0.04219,-0.24261 -0.08705,-0.48473 -0.138181,-0.72565 -0.05792,-0.29733 -0.109575,-0.59656 -0.151345,-0.89652 -0.351615,-2.81293 0.974413,-2.97868 1.326028,-0.16575 z"
       inkscape:connector-curvature="0" />
    <path
       style="opacity:1;fill:#000000;fill-opacity:1;fill-rule:nonzero;stroke:#000000;stroke-width:0.1;stroke-linecap:round;stroke-linejoin:round;stroke-miterlimit:4;stroke-dasharray:none;stroke-dashoffset:0;stroke-opacity:1;paint-order:markers fill stroke"
       id="path8268"
       d="m 91.273735,181.23315 c 0.02942,0.24071 0.09854,0.47427 0.156196,0.70925 0.05618,0.24459 0.03004,0.11582 0.07645,0.3867 0.462293,2.79687 -0.856165,3.0148 -1.318459,0.21793 v 0 c -0.02857,-0.18371 -0.01056,-0.0881 -0.05589,-0.28639 -0.06804,-0.27768 -0.146762,-0.55396 -0.181213,-0.8385 -0.400905,-2.80633 0.922012,-2.99531 1.322916,-0.18899 z"
       inkscape:connector-curvature="0" />
    <path
       style="opacity:1;fill:#000000;fill-opacity:1;fill-rule:nonzero;stroke:#000000;stroke-width:0.1;stroke-linecap:round;stroke-linejoin:round;stroke-miterlimit:4;stroke-dasharray:none;stroke-dashoffset:0;stroke-opacity:1;paint-order:markers fill stroke"
       id="path8270"
       d="m 96.571114,181.2882 c 0.128513,0.2649 0.2081,0.54897 0.280027,0.83333 0.07213,0.29685 0.120573,0.59858 0.165621,0.90048 0.417272,2.80394 -0.904518,3.00065 -1.32179,0.1967 v 0 c -0.03837,-0.25858 -0.07909,-0.51711 -0.139901,-0.77156 -0.04747,-0.19063 -0.09737,-0.38199 -0.179223,-0.56132 -1.26777,-2.53554 -0.0725,-3.13318 1.195266,-0.59763 z"
       inkscape:connector-curvature="0" />
    <path
       style="opacity:1;fill:#000000;fill-opacity:1;fill-rule:nonzero;stroke:#000000;stroke-width:0.1;stroke-linecap:round;stroke-linejoin:round;stroke-miterlimit:4;stroke-dasharray:none;stroke-dashoffset:0;stroke-opacity:1;paint-order:markers fill stroke"
       id="path8272"
       d="m 169.54099,181.77848 c -0.0571,0.19538 -0.0721,0.39995 -0.0734,0.60267 -0.008,0.31572 0.0327,0.62762 0.0852,0.93793 0.011,0.0476 0.0219,0.0952 0.0329,0.14285 0.61841,2.76655 -0.68575,3.05807 -1.30416,0.29152 v 0 c -0.0155,-0.0707 -0.031,-0.14151 -0.0465,-0.21226 -0.0658,-0.39186 -0.11315,-0.78645 -0.10359,-1.18477 0.008,-0.31837 0.0327,-0.63831 0.12458,-0.94506 0.77878,-2.72575 2.06371,-2.35863 1.28493,0.36712 z"
       inkscape:connector-curvature="0" />
    <path
       style="opacity:1;fill:#000000;fill-opacity:1;fill-rule:nonzero;stroke:#000000;stroke-width:0.1;stroke-linecap:round;stroke-linejoin:round;stroke-miterlimit:4;stroke-dasharray:none;stroke-dashoffset:0;stroke-opacity:1;paint-order:markers fill stroke"
       id="path8274"
       d="m 173.59275,182.03496 c 0.0523,0.22878 0.0978,0.45852 0.15498,0.68622 0.68993,2.74958 -0.60624,3.07481 -1.29617,0.32523 v 0 c -0.0683,-0.27253 -0.12484,-0.54735 -0.18173,-0.82246 -0.4009,-2.80633 0.92201,-2.99532 1.32292,-0.18899 z"
       inkscape:connector-curvature="0" />
    <path
       style="opacity:1;fill:#000000;fill-opacity:1;fill-rule:nonzero;stroke:#000000;stroke-width:0.1;stroke-linecap:round;stroke-linejoin:round;stroke-miterlimit:4;stroke-dasharray:none;stroke-dashoffset:0;stroke-opacity:1;paint-order:markers fill stroke"
       id="path8276"
       d="m 179.9914,181.15488 c -0.0582,0.25987 -0.1088,0.52095 -0.15035,0.784 -0.0318,0.20923 -0.0591,0.4189 -0.072,0.63014 -0.18958,2.82848 -1.52294,2.73911 -1.33336,-0.0894 v 0 c 0.0179,-0.25122 0.0457,-0.50121 0.0855,-0.75003 0.0407,-0.25604 0.0842,-0.51212 0.14729,-0.76373 0.40091,-2.80633 1.72383,-2.61734 1.32292,0.18899 z"
       inkscape:connector-curvature="0" />
    <path
       style="opacity:1;fill:#000000;fill-opacity:1;fill-rule:nonzero;stroke:#000000;stroke-width:0.1;stroke-linecap:round;stroke-linejoin:round;stroke-miterlimit:4;stroke-dasharray:none;stroke-dashoffset:0;stroke-opacity:1;paint-order:markers fill stroke"
       id="path8278"
       d="m 182.40156,180.60955 c 0.0841,0.24177 0.16108,0.48579 0.25024,0.72584 0.0831,0.22737 0.0416,0.11104 0.12434,0.34909 0.92934,2.67816 -0.33316,3.11625 -1.26249,0.43809 v 0 c -0.0748,-0.21583 -0.0363,-0.10782 -0.11536,-0.324 -0.10006,-0.2719 -0.18929,-0.54734 -0.28166,-0.8219 -0.77879,-2.72575 0.50614,-3.09287 1.28493,-0.36712 z"
       inkscape:connector-curvature="0" />
    <path
       style="opacity:1;fill:#000000;fill-opacity:1;fill-rule:nonzero;stroke:#000000;stroke-width:0.1;stroke-linecap:round;stroke-linejoin:round;stroke-miterlimit:4;stroke-dasharray:none;stroke-dashoffset:0;stroke-opacity:1;paint-order:markers fill stroke"
       id="path8280"
       d="m 179.59491,181.42311 c -0.0858,0.13548 -0.12638,0.29282 -0.1513,0.44986 -0.0413,0.23441 -0.0361,0.4721 -0.0346,0.70901 0.0163,2.83478 -1.32004,2.84246 -1.33632,0.008 v 0 c -0.002,-0.32203 -0.001,-0.64502 0.0575,-0.96303 0.0666,-0.33238 0.16094,-0.66049 0.35284,-0.9448 1.57247,-2.35871 2.68438,-1.61744 1.11191,0.74127 z"
       inkscape:connector-curvature="0" />
    <path
       style="opacity:1;fill:#000000;fill-opacity:1;fill-rule:nonzero;stroke:#000000;stroke-width:0.1;stroke-linecap:round;stroke-linejoin:round;stroke-miterlimit:4;stroke-dasharray:none;stroke-dashoffset:0;stroke-opacity:1;paint-order:markers fill stroke"
       id="path8282"
       d="m 188.00949,181.15488 c 0.004,0.18907 -0.004,0.37871 0.009,0.56772 0.0232,0.27408 0.0464,0.54813 0.0669,0.82241 0.21102,2.82696 -1.12162,2.92643 -1.33264,0.0995 v 0 c -0.021,-0.28121 -0.0453,-0.56212 -0.0683,-0.84316 -0.0148,-0.278 -0.0172,-0.55758 0.002,-0.83544 0.40091,-2.80633 1.72382,-2.61734 1.32292,0.18899 z"
       inkscape:connector-curvature="0" />
    <path
       style="opacity:1;fill:#000000;fill-opacity:1;fill-rule:nonzero;stroke:#000000;stroke-width:0.1;stroke-linecap:round;stroke-linejoin:round;stroke-miterlimit:4;stroke-dasharray:none;stroke-dashoffset:0;stroke-opacity:1;paint-order:markers fill stroke"
       id="path8284"
       d="m 190.69681,180.79311 c 0.033,0.24988 0.0548,0.50126 0.0641,0.75313 0.003,0.18177 -8e-4,0.36353 -0.004,0.54527 -0.043,2.83449 -1.37918,2.81423 -1.3362,-0.0203 v 0 c 0.002,-0.16116 0.006,-0.32234 0.004,-0.48353 -0.006,-0.26605 -0.0489,-0.52912 -0.0647,-0.7946 0,-2.83482 1.33634,-2.83482 1.33634,0 z"
       inkscape:connector-curvature="0" />
    <path
       style="opacity:1;fill:#000000;fill-opacity:1;fill-rule:nonzero;stroke:#000000;stroke-width:0.1;stroke-linecap:round;stroke-linejoin:round;stroke-miterlimit:4;stroke-dasharray:none;stroke-dashoffset:0;stroke-opacity:1;paint-order:markers fill stroke"
       id="path8286"
       d="m 196.0323,180.60955 c 0.0705,0.26728 0.12002,0.53925 0.18155,0.80865 0.63121,2.76366 -0.67159,3.06121 -1.3028,0.29756 v 0 c -0.0562,-0.2461 -0.103,-0.4941 -0.16368,-0.73909 -0.77878,-2.72575 0.50615,-3.09287 1.28493,-0.36712 z"
       inkscape:connector-curvature="0" />
    <path
       style="opacity:1;fill:#000000;fill-opacity:1;fill-rule:nonzero;stroke:#000000;stroke-width:0.1;stroke-linecap:round;stroke-linejoin:round;stroke-miterlimit:4;stroke-dasharray:none;stroke-dashoffset:0;stroke-opacity:1;paint-order:markers fill stroke"
       id="path8288"
       d="m 202.40985,180.21912 c 0.12245,0.2938 0.1789,0.60943 0.21606,0.92392 0.0361,0.38967 0.002,0.78115 -0.0411,1.16866 -0.31754,2.81698 -1.64548,2.66729 -1.32794,-0.14969 v 0 c 0.0329,-0.28987 0.0627,-0.5827 0.0405,-0.87452 -0.0139,-0.15489 -0.0571,-0.33538 -0.0828,-0.47074 -1.26777,-2.53554 -0.0725,-3.13317 1.19527,-0.59763 z"
       inkscape:connector-curvature="0" />
    <path
       style="opacity:1;fill:#da03ae;fill-opacity:1;fill-rule:nonzero;stroke:#da03ae;stroke-width:0.1;stroke-linecap:round;stroke-linejoin:round;stroke-miterlimit:4;stroke-dasharray:none;stroke-dashoffset:0;stroke-opacity:1;paint-order:markers fill stroke"
       id="path8296"
       d="m 110.51714,180.43135 c 0.0278,0.25545 0.0793,0.50733 0.12073,0.76081 0.055,0.36139 0.0941,0.72458 0.15033,1.08579 0.0466,0.32928 0.0994,0.65741 0.17359,0.98168 0.62377,2.76534 -0.67982,3.05939 -1.3036,0.29405 v 0 c -0.079,-0.35403 -0.14093,-0.71108 -0.19048,-1.07044 -0.0556,-0.35796 -0.0957,-0.71766 -0.14876,-1.07598 -0.0427,-0.26215 -0.0957,-0.52277 -0.12473,-0.78693 -0.4009,-2.80632 0.92201,-2.99531 1.32292,-0.18898 z"
       inkscape:connector-curvature="0" />
    <path
       style="opacity:1;fill:#da03ae;fill-opacity:1;fill-rule:nonzero;stroke:#da03ae;stroke-width:0.1;stroke-linecap:round;stroke-linejoin:round;stroke-miterlimit:4;stroke-dasharray:none;stroke-dashoffset:0;stroke-opacity:1;paint-order:markers fill stroke"
       id="path8300"
       d="m 112.17421,193.87334 c -0.10494,-0.0241 -0.25429,-0.0482 -0.37925,-0.0464 -0.21969,5.2e-4 -0.43681,0.0447 -0.64608,0.10907 -0.218,0.0804 -0.42346,0.18992 -0.60576,0.33393 -0.18791,0.15863 -0.32002,0.36529 -0.43996,0.57693 -0.12187,0.24018 -0.16402,0.50349 -0.19368,0.7679 -0.0183,0.276 0.0235,0.54844 0.10083,0.81251 0.0905,0.29278 0.25403,0.55141 0.44069,0.79142 0.20103,0.24829 0.45703,0.43734 0.72428,0.60772 0.2486,0.13757 0.5167,0.23678 0.79873,0.27353 0.13935,0.004 0.0717,0.006 0.20304,-0.004 2.8325,-0.11481 2.88662,1.22044 0.0541,1.33525 v 0 c -0.30661,0.008 -0.15285,0.0115 -0.46128,-0.0108 -0.46556,-0.0775 -0.9127,-0.2248 -1.31852,-0.4709 -0.39541,-0.25679 -0.76936,-0.546 -1.06241,-0.91989 -0.28518,-0.37779 -0.53198,-0.78332 -0.66534,-1.2416 -0.11833,-0.4333 -0.18375,-0.87779 -0.14153,-1.328 0.0531,-0.44464 0.14547,-0.88314 0.36291,-1.28009 0.21191,-0.36431 0.45471,-0.71033 0.78921,-0.97391 0.31673,-0.23618 0.66128,-0.43029 1.03876,-0.55261 0.34155,-0.0974 0.69172,-0.1686 1.04881,-0.16276 0.32556,0.0109 0.64904,0.0551 0.95005,0.18716 2.53554,1.26777 1.93791,2.46304 -0.59763,1.19527 z"
       inkscape:connector-curvature="0" />
    <path
       style="opacity:1;fill:#da03ae;fill-opacity:1;fill-rule:nonzero;stroke:#da03ae;stroke-width:0.1;stroke-linecap:round;stroke-linejoin:round;stroke-miterlimit:4;stroke-dasharray:none;stroke-dashoffset:0;stroke-opacity:1;paint-order:markers fill stroke"
       id="path8310"
       d="m 94.170983,178.30398 c -0.06092,0.24966 -0.132186,0.49651 -0.192069,0.74647 -0.0782,0.3367 -0.131225,0.67843 -0.176644,1.02086 -0.06481,0.43092 -0.08195,0.86517 -0.09085,1.30008 0.0034,0.48871 0.03507,0.97617 0.09494,1.46107 0.06708,0.50126 0.193305,0.98884 0.355486,1.46685 0.108847,0.30207 0.248134,0.59109 0.39991,0.87346 1.333942,2.50137 0.154789,3.13019 -1.179153,0.62883 v 0 c -0.184478,-0.34806 -0.356213,-0.70295 -0.487053,-1.07531 -0.189404,-0.56464 -0.338465,-1.14039 -0.415713,-1.7321 -0.06607,-0.54781 -0.103703,-1.09836 -0.104481,-1.65041 0.01011,-0.48466 0.03119,-0.96868 0.102272,-1.44894 0.0519,-0.38806 0.112485,-0.77529 0.201951,-1.15671 0.06466,-0.26825 0.140131,-0.5335 0.206476,-0.80128 0.778785,-2.72574 2.063715,-2.35862 1.28493,0.36713 z"
       inkscape:connector-curvature="0" />
    <path
       style="opacity:1;fill:#da03ae;fill-opacity:1;fill-rule:nonzero;stroke:#da03ae;stroke-width:0.1;stroke-linecap:round;stroke-linejoin:round;stroke-miterlimit:4;stroke-dasharray:none;stroke-dashoffset:0;stroke-opacity:1;paint-order:markers fill stroke"
       id="path8322"
       d="m 125.92088,177.20733 c 0.13679,0.22358 0.25611,0.4572 0.38585,0.68482 0.17069,0.30413 0.31514,0.62254 0.4511,0.94345 0.17533,0.39698 0.26287,0.82123 0.33901,1.24597 0.0779,0.45485 0.10175,0.91786 0.10606,1.37872 0.003,0.50196 -0.0598,1.00066 -0.14442,1.4944 -0.0752,0.34771 -0.0356,0.17806 -0.11817,0.5091 -0.68928,2.74974 -1.98553,2.42481 -1.29625,-0.32493 v 0 c 0.0688,-0.27276 0.0362,-0.13538 0.0977,-0.41217 0.0727,-0.41515 0.12653,-0.83491 0.12486,-1.25717 -10e-4,-0.38524 -0.0227,-0.77276 -0.0853,-1.15316 -0.0581,-0.3271 -0.11868,-0.65527 -0.25454,-0.96091 -0.1152,-0.27392 -0.23837,-0.54548 -0.38308,-0.8052 -0.11257,-0.2 -0.2202,-0.40275 -0.33468,-0.60165 -1.57248,-2.35871 -0.46057,-3.09998 1.1119,-0.74127 z"
       inkscape:connector-curvature="0" />
    <path
       style="opacity:1;fill:#000000;fill-opacity:1;fill-rule:nonzero;stroke:#000000;stroke-width:0.1;stroke-linecap:round;stroke-linejoin:round;stroke-miterlimit:4;stroke-dasharray:none;stroke-dashoffset:0;stroke-opacity:1;paint-order:markers fill stroke"
       id="path8324"
       d="m 154.61661,180.16408 c 0.0426,0.30461 0.0667,0.61119 0.0752,0.9185 -0.002,0.42706 -0.0127,0.85335 0.002,1.28025 0.0213,0.39705 0.0333,0.7938 0.0293,1.19138 -0.0292,2.83467 -1.36551,2.82089 -1.33627,-0.0138 v 0 c 0.004,-0.37778 -0.009,-0.75464 -0.0286,-1.13193 -0.0146,-0.43174 -0.007,-0.86289 -0.002,-1.29476 -0.004,-0.25456 -0.0288,-0.5083 -0.0621,-0.76068 -0.40091,-2.80633 0.92201,-2.99532 1.32291,-0.18899 z"
       inkscape:connector-curvature="0" />
    <path
       style="opacity:1;fill:#000000;fill-opacity:1;fill-rule:nonzero;stroke:#000000;stroke-width:0.1;stroke-linecap:round;stroke-linejoin:round;stroke-miterlimit:4;stroke-dasharray:none;stroke-dashoffset:0;stroke-opacity:1;paint-order:markers fill stroke"
       id="path8326"
       d="m 159.69629,180.45087 c 0.0358,0.29428 0.0588,0.58987 0.08,0.88549 0.0164,0.30623 0.0368,0.6116 0.0686,0.91662 0.29292,2.81964 -1.03627,2.95773 -1.3292,0.13808 v 0 c -0.0331,-0.31915 -0.0555,-0.63867 -0.0723,-0.95909 -0.0195,-0.27218 -0.0404,-0.54437 -0.0731,-0.81534 -0.35162,-2.81294 0.97441,-2.97869 1.32603,-0.16576 z"
       inkscape:connector-curvature="0" />
    <path
       style="opacity:1;fill:#000000;fill-opacity:1;fill-rule:nonzero;stroke:#000000;stroke-width:0.1;stroke-linecap:round;stroke-linejoin:round;stroke-miterlimit:4;stroke-dasharray:none;stroke-dashoffset:0;stroke-opacity:1;paint-order:markers fill stroke"
       id="path8328"
       d="m 230.50534,179.01672 c -0.0382,0.25216 -0.0499,0.50577 -0.0503,0.76037 0.004,0.42422 0.0112,0.84841 0.0171,1.27261 0.004,0.3136 0.008,0.62722 0.011,0.94084 0.0297,2.83466 -1.30663,2.84864 -1.33628,0.014 v 0 c -0.003,-0.31218 -0.007,-0.62436 -0.0109,-0.93653 -0.006,-0.43161 -0.0135,-0.86321 -0.0172,-1.29485 0.001,-0.31645 0.0168,-0.63203 0.0637,-0.94541 0.4009,-2.80633 1.72382,-2.61734 1.32291,0.18899 z"
       inkscape:connector-curvature="0" />
    <path
       style="opacity:1;fill:#000000;fill-opacity:1;fill-rule:nonzero;stroke:#000000;stroke-width:0.1;stroke-linecap:round;stroke-linejoin:round;stroke-miterlimit:4;stroke-dasharray:none;stroke-dashoffset:0;stroke-opacity:1;paint-order:markers fill stroke"
       id="path8330"
       d="m 31.67263,185.50947 c 0.03213,0.2771 0.08291,0.55144 0.122666,0.82751 0.04959,0.41057 0.109046,0.81998 0.180856,1.22728 0.05479,0.30145 0.02537,0.15291 0.08789,0.44567 0.588344,2.7731 -0.718907,3.05044 -1.307251,0.27735 v 0 c -0.07047,-0.33398 -0.03835,-0.16984 -0.09692,-0.49232 -0.07341,-0.42098 -0.136646,-0.84375 -0.187359,-1.26808 -0.03954,-0.27639 -0.09079,-0.55101 -0.122799,-0.82842 -0.400904,-2.80633 0.922013,-2.99532 1.322917,-0.18899 z"
       inkscape:connector-curvature="0" />
    <path
       style="opacity:1;fill:#000000;fill-opacity:1;fill-rule:nonzero;stroke:#000000;stroke-width:0.1;stroke-linecap:round;stroke-linejoin:round;stroke-miterlimit:4;stroke-dasharray:none;stroke-dashoffset:0;stroke-opacity:1;paint-order:markers fill stroke"
       id="path8332"
       d="m 47.697715,184.88586 c 0.07761,0.27009 0.116192,0.54881 0.173117,0.82339 0.08209,0.36938 0.145547,0.74232 0.201403,1.11644 0.01045,0.0561 0.0209,0.11221 0.03135,0.16831 0.512826,2.78805 -0.801474,3.0298 -1.3143,0.24175 v 0 c -0.01294,-0.071 -0.02588,-0.14206 -0.0388,-0.21309 -0.0521,-0.35034 -0.111721,-0.69951 -0.188833,-1.04533 -0.04899,-0.24156 -0.08459,-0.48607 -0.148863,-0.72434 -0.778785,-2.72575 0.506143,-3.09288 1.284928,-0.36713 z"
       inkscape:connector-curvature="0" />
    <path
       style="opacity:1;fill:#000000;fill-opacity:1;fill-rule:nonzero;stroke:#000000;stroke-width:0.1;stroke-linecap:round;stroke-linejoin:round;stroke-miterlimit:4;stroke-dasharray:none;stroke-dashoffset:0;stroke-opacity:1;paint-order:markers fill stroke"
       id="path8334"
       d="m 42.352325,185.4204 c 0.06467,0.2675 0.129508,0.53495 0.193312,0.80271 0.08887,0.37659 0.149685,0.75882 0.204171,1.14163 0.009,0.0688 0.01794,0.1376 0.02689,0.20639 0.365655,2.81114 -0.95953,2.98352 -1.325184,0.17238 v 0 c -0.0083,-0.0636 -0.01651,-0.12722 -0.02476,-0.19082 -0.04848,-0.34202 -0.102124,-0.68362 -0.181136,-1.02014 -0.05907,-0.24846 -0.120359,-0.49633 -0.178213,-0.74503 -0.778785,-2.72575 0.506145,-3.09287 1.284931,-0.36712 z"
       inkscape:connector-curvature="0" />
    <path
       style="opacity:1;fill:#000000;fill-opacity:1;fill-rule:nonzero;stroke:#000000;stroke-width:0.1;stroke-linecap:round;stroke-linejoin:round;stroke-miterlimit:4;stroke-dasharray:none;stroke-dashoffset:0;stroke-opacity:1;paint-order:markers fill stroke"
       id="path8336"
       d="m 119.32122,181.15488 c -0.0398,0.22357 -0.0387,0.44914 -0.0372,0.67523 0.002,0.33857 0.006,0.67647 0.0324,1.01406 0.21821,2.82641 -1.11418,2.92927 -1.33238,0.10286 v 0 c -0.0283,-0.3691 -0.035,-0.7385 -0.0363,-1.10864 -0.002,-0.29191 0.002,-0.58374 0.0506,-0.8725 0.40091,-2.80633 1.72382,-2.61734 1.32292,0.18899 z"
       inkscape:connector-curvature="0" />
    <path
       style="opacity:1;fill:#000000;fill-opacity:1;fill-rule:nonzero;stroke:#000000;stroke-width:0.1;stroke-linecap:round;stroke-linejoin:round;stroke-miterlimit:4;stroke-dasharray:none;stroke-dashoffset:0;stroke-opacity:1;paint-order:markers fill stroke"
       id="path8338"
       d="m 99.815273,181.67863 c 0.07778,0.28061 0.126376,0.56799 0.170953,0.85538 0.03653,0.24279 0.06286,0.48692 0.08825,0.73107 0.29261,2.81968 -1.036599,2.95762 -1.329215,0.13794 v 0 c -0.02299,-0.22204 -0.04675,-0.44407 -0.07971,-0.66491 -0.03577,-0.23243 -0.07381,-0.46505 -0.135215,-0.69236 -0.778786,-2.72575 0.506145,-3.09287 1.28493,-0.36712 z"
       inkscape:connector-curvature="0" />
    <path
       style="opacity:1;fill:#000000;fill-opacity:1;fill-rule:nonzero;stroke:#000000;stroke-width:0.1;stroke-linecap:round;stroke-linejoin:round;stroke-miterlimit:4;stroke-dasharray:none;stroke-dashoffset:0;stroke-opacity:1;paint-order:markers fill stroke"
       id="path8340"
       d="m 58.542239,175.50883 c 0.101844,-0.13424 0.05621,-0.073 0.137444,-0.18332 1.686149,-2.27884 2.760405,-1.48399 1.074253,0.79486 v 0 c -0.08219,0.11068 -0.04733,0.0687 -0.09979,0.12973 -1.572474,2.35871 -2.684383,1.61744 -1.111909,-0.74127 z"
       inkscape:connector-curvature="0" />
    <path
       style="opacity:1;fill:#000000;fill-opacity:1;fill-rule:nonzero;stroke:#000000;stroke-width:0.1;stroke-linecap:round;stroke-linejoin:round;stroke-miterlimit:4;stroke-dasharray:none;stroke-dashoffset:0;stroke-opacity:1;paint-order:markers fill stroke"
       id="path8342"
       d="m 63.019685,171.86482 c 0.149466,-0.11847 0.309192,-0.22437 0.466593,-0.33218 2.340292,-1.59976 3.094429,-0.49654 0.754136,1.10323 v 0 c -0.162033,0.11049 -0.324477,0.22057 -0.479456,0.34086 -2.358713,1.57248 -3.099986,0.46057 -0.741273,-1.11191 z"
       inkscape:connector-curvature="0" />
    <path
       style="opacity:1;fill:#000000;fill-opacity:1;fill-rule:nonzero;stroke:#000000;stroke-width:0.1;stroke-linecap:round;stroke-linejoin:round;stroke-miterlimit:4;stroke-dasharray:none;stroke-dashoffset:0;stroke-opacity:1;paint-order:markers fill stroke"
       id="path8344"
       d="m 69.166885,169.19213 c 0.232193,-0.15547 0.471921,-0.29471 0.724524,-0.41454 0.03889,-0.0196 0.07779,-0.0393 0.116676,-0.0589 2.533073,-1.27269 3.133026,-0.0786 0.599953,1.1941 v 0 c -0.04957,0.0248 -0.09915,0.0496 -0.148722,0.0745 -0.193545,0.0894 -0.37424,0.19799 -0.551159,0.31677 -2.358715,1.57248 -3.099988,0.46057 -0.741272,-1.1119 z"
       inkscape:connector-curvature="0" />
    <path
       style="opacity:1;fill:#000000;fill-opacity:1;fill-rule:nonzero;stroke:#000000;stroke-width:0.1;stroke-linecap:round;stroke-linejoin:round;stroke-miterlimit:4;stroke-dasharray:none;stroke-dashoffset:0;stroke-opacity:1;paint-order:markers fill stroke"
       id="path8346"
       d="m 76.722252,167.0202 c 0.264901,-0.12852 0.548974,-0.2081 0.833334,-0.28003 0.05657,-0.0128 0.113131,-0.0256 0.169696,-0.0384 2.76583,-0.62161 3.058861,0.68222 0.293032,1.30383 v 0 c -0.0457,0.0102 -0.09141,0.0204 -0.137108,0.0306 -0.190632,0.0475 -0.381986,0.0974 -0.561324,0.17922 -2.535539,1.26777 -3.133172,0.0725 -0.59763,-1.19526 z"
       inkscape:connector-curvature="0" />
    <path
       style="opacity:1;fill:#000000;fill-opacity:1;fill-rule:nonzero;stroke:#000000;stroke-width:0.1;stroke-linecap:round;stroke-linejoin:round;stroke-miterlimit:4;stroke-dasharray:none;stroke-dashoffset:0;stroke-opacity:1;paint-order:markers fill stroke"
       id="path8348"
       d="m 83.794422,166.44873 c 0.131474,-0.0407 0.268123,-0.0582 0.403931,-0.0769 2.810021,-0.37416 2.9864,0.9505 0.176379,1.32466 v 0 c -0.0718,0.009 -0.143997,0.0143 -0.213188,0.0372 -2.725748,0.77879 -3.092873,-0.50614 -0.367122,-1.28493 z"
       inkscape:connector-curvature="0" />
    <path
       style="opacity:1;fill:#000000;fill-opacity:1;fill-rule:nonzero;stroke:#000000;stroke-width:0.1;stroke-linecap:round;stroke-linejoin:round;stroke-miterlimit:4;stroke-dasharray:none;stroke-dashoffset:0;stroke-opacity:1;paint-order:markers fill stroke"
       id="path8350"
       d="m 89.506935,167.0149 c 0.191449,0.0504 0.386521,0.084 0.579241,0.12901 2.758207,0.6546 2.449624,1.95483 -0.308583,1.30023 v 0 c -0.211799,-0.0515 -0.42808,-0.0835 -0.637781,-0.14431 -2.725748,-0.77878 -2.358626,-2.06371 0.367123,-1.28493 z"
       inkscape:connector-curvature="0" />
    <path
       style="opacity:1;fill:#000000;fill-opacity:1;fill-rule:nonzero;stroke:#000000;stroke-width:0.1;stroke-linecap:round;stroke-linejoin:round;stroke-miterlimit:4;stroke-dasharray:none;stroke-dashoffset:0;stroke-opacity:1;paint-order:markers fill stroke"
       id="path8354"
       d="m 167.58821,173.1034 c 0.0711,-0.10726 0.15385,-0.20605 0.23234,-0.30789 1.73204,-2.24416 2.78995,-1.42766 1.0579,0.8165 v 0 c -0.0598,0.0774 -0.12274,0.15224 -0.17834,0.23266 -1.57247,2.35872 -2.68438,1.61745 -1.1119,-0.74127 z"
       inkscape:connector-curvature="0" />
    <path
       style="opacity:1;fill:#000000;fill-opacity:1;fill-rule:nonzero;stroke:#000000;stroke-width:0.1;stroke-linecap:round;stroke-linejoin:round;stroke-miterlimit:4;stroke-dasharray:none;stroke-dashoffset:0;stroke-opacity:1;paint-order:markers fill stroke"
       id="path8356"
       d="m 174.66606,168.05235 c 0.1019,-0.0393 0.20651,-0.071 0.31054,-0.10396 2.70337,-0.85326 3.10559,0.42112 0.40223,1.27437 v 0 c -0.11583,0.0364 -0.23099,0.0746 -0.34565,0.11452 -2.72575,0.77879 -3.09287,-0.50614 -0.36712,-1.28493 z"
       inkscape:connector-curvature="0" />
    <path
       style="opacity:1;fill:#000000;fill-opacity:1;fill-rule:nonzero;stroke:#000000;stroke-width:0.1;stroke-linecap:round;stroke-linejoin:round;stroke-miterlimit:4;stroke-dasharray:none;stroke-dashoffset:0;stroke-opacity:1;paint-order:markers fill stroke"
       id="path8358"
       d="m 181.61507,166.18146 c 0.23107,-0.10045 0.47555,-0.1672 0.71903,-0.23009 0.24573,-0.0481 0.12443,-0.0274 0.36376,-0.0628 2.8056,-0.40603 2.997,0.91654 0.19141,1.32257 v 0 c -0.15496,0.0216 -0.0807,0.01 -0.22293,0.0346 -0.23279,0.0593 -0.46089,0.13159 -0.68415,0.22063 -2.72575,0.77879 -3.09287,-0.50614 -0.36712,-1.28493 z"
       inkscape:connector-curvature="0" />
    <path
       style="opacity:1;fill:#000000;fill-opacity:1;fill-rule:nonzero;stroke:#000000;stroke-width:0.1;stroke-linecap:round;stroke-linejoin:round;stroke-miterlimit:4;stroke-dasharray:none;stroke-dashoffset:0;stroke-opacity:1;paint-order:markers fill stroke"
       id="path8360"
       d="m 189.72222,165.36857 c 0.0325,-0.004 0.065,-0.008 0.0975,-0.0128 2.81109,-0.36603 2.98364,0.95913 0.17254,1.32516 v 0 c -0.027,0.003 -0.054,0.007 -0.0811,0.0105 -2.80633,0.40091 -2.99532,-0.92201 -0.18899,-1.32291 z"
       inkscape:connector-curvature="0" />
    <path
       style="opacity:1;fill:#000000;fill-opacity:1;fill-rule:nonzero;stroke:#000000;stroke-width:0.1;stroke-linecap:round;stroke-linejoin:round;stroke-miterlimit:4;stroke-dasharray:none;stroke-dashoffset:0;stroke-opacity:1;paint-order:markers fill stroke"
       id="path8362"
       d="m 195.79114,165.91892 c 0.30046,0.0517 0.58236,0.16535 0.85642,0.29506 0.18345,0.0893 0.0877,0.0402 0.2864,0.14859 2.48178,1.37003 1.83594,2.53995 -0.64584,1.16991 v 0 c -0.1357,-0.0763 -0.0625,-0.0377 -0.22039,-0.1145 -0.14921,-0.0741 -0.30307,-0.13839 -0.46558,-0.17614 -2.80633,-0.4009 -2.61734,-1.72382 0.18899,-1.32292 z"
       inkscape:connector-curvature="0" />
    <path
       style="opacity:1;fill:#000000;fill-opacity:1;fill-rule:nonzero;stroke:#000000;stroke-width:0.1;stroke-linecap:round;stroke-linejoin:round;stroke-miterlimit:4;stroke-dasharray:none;stroke-dashoffset:0;stroke-opacity:1;paint-order:markers fill stroke"
       id="path8364"
       d="m 201.27225,169.3994 c 0.097,0.11667 0.17465,0.24678 0.2526,0.37636 1.44762,2.43733 0.29865,3.11975 -1.14898,0.68241 v 0 c -0.0404,-0.0696 -0.0803,-0.13982 -0.13023,-0.20326 -1.8148,-2.17777 -0.78819,-3.03328 1.02661,-0.85551 z"
       inkscape:connector-curvature="0" />
    <path
       style="opacity:1;fill:#000000;fill-opacity:1;fill-rule:nonzero;stroke:#000000;stroke-width:0.1;stroke-linecap:round;stroke-linejoin:round;stroke-miterlimit:4;stroke-dasharray:none;stroke-dashoffset:0;stroke-opacity:1;paint-order:markers fill stroke"
       id="path8366"
       d="m 66.150399,152.10078 c 0.02878,0.23081 0.08939,0.45661 0.155951,0.67906 0.08829,0.32393 0.224369,0.63194 0.370758,0.93319 0.16452,0.32389 0.366601,0.62453 0.582827,0.9156 0.194355,0.25866 0.443809,0.46138 0.708771,0.64282 0.227383,0.13779 0.4816,0.21439 0.745527,0.23378 0.214114,0.0111 0.402071,-0.0621 0.586817,-0.16025 0.191997,-0.1029 0.302569,-0.28013 0.41094,-0.46139 0.136176,-0.27118 0.196794,-0.5678 0.232651,-0.86663 0.04629,-0.43164 0.0232,-0.86654 -0.02061,-1.29722 -0.04978,-0.48244 -0.145564,-0.95865 -0.257927,-1.42997 -0.110077,-0.45968 -0.255807,-0.90955 -0.379457,-1.36565 -0.01548,-0.0684 -0.03094,-0.13678 -0.04641,-0.20517 -0.616246,-2.76703 0.688145,-3.05753 1.304391,-0.2905 v 0 c 0.01061,0.0487 0.02122,0.0974 0.03182,0.14605 0.127307,0.46974 0.278067,0.93292 0.389906,1.40678 0.125132,0.52961 0.232587,1.06436 0.28748,1.60636 0.05178,0.53164 0.07798,1.06793 0.01619,1.60019 -0.06536,0.48487 -0.175183,0.96363 -0.41847,1.39378 -0.242158,0.38964 -0.527117,0.74068 -0.944052,0.95419 -0.416671,0.20745 -0.853316,0.33692 -1.324764,0.29929 -0.489585,-0.0544 -0.959445,-0.1919 -1.37505,-0.46516 -0.383365,-0.26777 -0.741905,-0.56871 -1.022342,-0.9469 -0.264181,-0.35873 -0.511799,-0.72907 -0.71138,-1.1284 -0.176765,-0.3672 -0.340918,-0.74229 -0.449202,-1.13618 -0.08341,-0.28502 -0.160012,-0.57347 -0.197276,-0.86868 -0.400904,-2.80633 0.922013,-2.99532 1.322917,-0.18899 z"
       inkscape:connector-curvature="0" />
    <path
       style="opacity:1;fill:#000000;fill-opacity:1;fill-rule:nonzero;stroke:#000000;stroke-width:0.1;stroke-linecap:round;stroke-linejoin:round;stroke-miterlimit:4;stroke-dasharray:none;stroke-dashoffset:0;stroke-opacity:1;paint-order:markers fill stroke"
       id="path8368"
       d="m 76.116462,154.14444 c -0.127521,0.0186 -0.25686,0.0393 -0.374086,0.0958 -0.117121,0.0499 -0.249529,0.1037 -0.308904,0.21985 0.0055,0.0643 -0.0085,0.12125 0.01381,0.18354 0.01215,0.0988 0.04642,0.14266 0.120055,0.19154 0.152575,0.0806 0.31246,0.14429 0.463791,0.22916 0.424383,0.25779 0.516249,0.68776 0.387485,1.14134 -0.09079,0.24427 -0.235226,0.46288 -0.375785,0.6806 -0.120682,0.17614 -0.199586,0.36844 -0.24225,0.57666 -0.03663,0.17851 -0.03335,0.3639 0.01887,0.53882 0.03933,0.14961 0.09597,0.30541 0.220757,0.40478 0.0949,0.0744 0.206431,0.12165 0.325803,0.13728 0.124788,-0.0115 0.236836,-0.075 0.349319,-0.12501 0.133305,-0.063 0.251835,-0.14799 0.364971,-0.24132 2.216671,-1.76709 3.049683,-0.72213 0.833009,1.04494 v 0 c -0.205639,0.161 -0.418288,0.31162 -0.658066,0.4188 -0.371504,0.16337 -0.751946,0.28465 -1.16309,0.21057 -0.378312,-0.087 -0.728125,-0.23877 -1.010298,-0.51392 -0.269851,-0.29274 -0.473157,-0.62402 -0.56024,-1.0176 -0.08696,-0.38178 -0.113133,-0.7708 -0.02357,-1.15605 0.08601,-0.35715 0.214059,-0.69825 0.422661,-1.00367 0.08398,-0.12957 0.173043,-0.25839 0.237403,-0.39867 -0.01638,0.16934 0.04119,0.36738 0.194736,0.45387 -0.222499,-0.11866 -0.470445,-0.19847 -0.662011,-0.37183 -0.286496,-0.26133 -0.492393,-0.56888 -0.557813,-0.95835 -0.06365,-0.42077 -0.01857,-0.82639 0.208743,-1.19621 0.236008,-0.30946 0.523721,-0.54822 0.892865,-0.68526 0.28294,-0.11048 0.576567,-0.18578 0.881825,-0.19602 2.834822,0 2.834822,1.33635 0,1.33635 z"
       inkscape:connector-curvature="0" />
    <path
       style="opacity:1;fill:#000000;fill-opacity:1;fill-rule:nonzero;stroke:#000000;stroke-width:0.1;stroke-linecap:round;stroke-linejoin:round;stroke-miterlimit:4;stroke-dasharray:none;stroke-dashoffset:0;stroke-opacity:1;paint-order:markers fill stroke"
       id="path8370"
       d="m 83.239834,146.67711 c -0.03527,0.25841 -0.05373,0.51873 -0.07137,0.77881 -0.03055,0.41281 -0.04405,0.82573 -0.03827,1.23951 0.0069,0.50905 0.0556,1.01637 0.111302,1.52204 0.06266,0.56509 0.178605,1.12106 0.315397,1.67223 0.137554,0.55663 0.296503,1.10773 0.50092,1.64356 0.141509,0.36239 0.339669,0.6963 0.563552,1.01285 1.626076,2.32208 0.531434,3.08862 -1.094642,0.76654 v 0 c -0.284462,-0.40923 -0.539065,-0.83844 -0.718394,-1.30545 -0.221425,-0.58659 -0.399757,-1.18755 -0.548688,-1.79662 -0.150141,-0.60883 -0.277752,-1.22293 -0.346477,-1.84695 -0.06026,-0.54823 -0.111885,-1.09828 -0.119195,-1.65016 -0.0059,-0.45005 0.008,-0.89927 0.04123,-1.34824 0.01998,-0.29295 0.04134,-0.58612 0.08172,-0.87711 0.400905,-2.80633 1.723821,-2.61734 1.322917,0.18899 z"
       inkscape:connector-curvature="0" />
    <path
       style="opacity:1;fill:#000000;fill-opacity:1;fill-rule:nonzero;stroke:#000000;stroke-width:0.1;stroke-linecap:round;stroke-linejoin:round;stroke-miterlimit:4;stroke-dasharray:none;stroke-dashoffset:0;stroke-opacity:1;paint-order:markers fill stroke"
       id="path8376"
       d="m 88.84994,149.45701 c -0.142822,-0.0935 -0.304208,-0.14138 -0.467485,-0.18418 -0.152206,-0.0334 -0.299889,-0.0402 -0.446884,0.0134 -0.126253,0.0563 -0.214688,0.16139 -0.297129,0.26841 -0.113332,0.1605 -0.178676,0.35005 -0.204629,0.54374 -0.03439,0.25788 -0.01527,0.5189 0.02969,0.7741 0.04593,0.1975 0.133135,0.38054 0.260717,0.53764 0.09052,0.10119 0.19952,0.18341 0.330851,0.2214 0.0736,0.0286 0.117645,0.0243 0.177305,-0.0174 0.08227,-0.0698 0.140222,-0.16073 0.195834,-0.25187 0.120275,-0.20429 0.191583,-0.4277 0.242846,-0.65747 0.05577,-0.3487 0.184988,-0.6601 0.4099,-0.93135 0.389551,-0.35767 0.842809,-0.30177 1.257752,-0.036 0.26202,0.1913 0.47506,0.43636 0.682234,0.68344 0.239935,0.28178 0.462227,0.57736 0.686832,0.87123 0.09465,0.13394 0.195072,0.26322 0.300357,0.38886 1.811497,2.18052 0.783588,3.03447 -1.027909,0.85394 v 0 c -0.116033,-0.14053 -0.229885,-0.28262 -0.334645,-0.4319 -0.212087,-0.2781 -0.422132,-0.55768 -0.649097,-0.82405 -0.130585,-0.15609 -0.260519,-0.31435 -0.419192,-0.4433 0.189444,0.0117 0.360055,-8e-4 0.491347,-0.16201 0.04601,-0.0853 -0.135408,0.28905 -0.09529,0.33094 -0.08886,0.37838 -0.214543,0.74586 -0.419936,1.07863 -0.214379,0.32726 -0.468411,0.61836 -0.836536,0.77636 -0.37779,0.13369 -0.756473,0.16674 -1.138618,0.0203 -0.359439,-0.14568 -0.677479,-0.3542 -0.919486,-0.66316 -0.248766,-0.33813 -0.436477,-0.71066 -0.513855,-1.12711 -0.06367,-0.40313 -0.09222,-0.81249 -0.02807,-1.21805 0.07863,-0.41831 0.218126,-0.82014 0.484156,-1.1593 0.264158,-0.31787 0.569217,-0.58675 0.972074,-0.7123 0.384302,-0.0998 0.768549,-0.11956 1.156317,-0.0177 0.30267,0.0827 0.598932,0.18706 0.861816,0.3628 2.358716,1.57248 1.617443,2.68438 -0.741272,1.11191 z"
       inkscape:connector-curvature="0" />
    <path
       style="opacity:1;fill:#000000;fill-opacity:1;fill-rule:nonzero;stroke:#000000;stroke-width:0.1;stroke-linecap:round;stroke-linejoin:round;stroke-miterlimit:4;stroke-dasharray:none;stroke-dashoffset:0;stroke-opacity:1;paint-order:markers fill stroke"
       id="path8378"
       d="m 92.626065,144.66659 c 0.288981,0.19322 0.533109,0.44223 0.762452,0.70113 0.337032,0.38775 0.621827,0.8156 0.879687,1.25879 0.313328,0.52307 0.564621,1.07734 0.763228,1.65294 0.217683,0.64082 0.32009,1.30854 0.391223,1.97887 0.0575,0.66907 0.04849,1.34023 0.03082,2.01064 -0.006,0.11051 -0.01196,0.22102 -0.01794,0.33153 -0.155464,2.83055 -1.489803,2.75727 -1.334339,-0.0733 v 0 c 0.0055,-0.0978 0.01093,-0.19569 0.0164,-0.29353 0.01619,-0.6119 0.02617,-1.22435 -0.02392,-1.83522 -0.05982,-0.57143 -0.142425,-1.14125 -0.327157,-1.68794 -0.165751,-0.49456 -0.388522,-0.96628 -0.655058,-1.41485 -0.21236,-0.36982 -0.450469,-0.72504 -0.729248,-1.04864 -0.147976,-0.17322 -0.309668,-0.33804 -0.497416,-0.46852 -2.358716,-1.57248 -1.617443,-2.68439 0.74127,-1.11191 z"
       inkscape:connector-curvature="0" />
    <path
       style="opacity:1;fill:#000000;fill-opacity:1;fill-rule:nonzero;stroke:#000000;stroke-width:0.1;stroke-linecap:round;stroke-linejoin:round;stroke-miterlimit:4;stroke-dasharray:none;stroke-dashoffset:0;stroke-opacity:1;paint-order:markers fill stroke"
       id="path8380"
       d="m 170.91886,151.928 c -0.006,0.22448 0.047,0.4436 0.0957,0.66103 0.0995,0.36683 0.23211,0.72528 0.38398,1.07354 0.18532,0.4053 0.3963,0.79735 0.62604,1.179 0.19994,0.34164 0.45364,0.64326 0.74321,0.91136 0.14854,0.13004 0.31643,0.24581 0.51803,0.25833 0.0883,-0.002 0.1,-0.0193 0.13105,-0.0819 0.13242,-0.17102 0.18273,-0.38782 0.22706,-0.59528 0.0888,-0.42275 0.0935,-0.85404 0.0889,-1.28387 -0.006,-0.51729 -0.0548,-1.03281 -0.11488,-1.5462 -0.0656,-0.44198 -0.16899,-0.87771 -0.26427,-1.31416 -0.6043,-2.76966 0.70133,-3.05453 1.30563,-0.28487 v 0 c 0.10451,0.47927 0.21806,0.95776 0.28595,1.44382 0.0654,0.56043 0.11806,1.12322 0.12385,1.68788 0.005,0.5344 -0.008,1.07038 -0.12235,1.59497 -0.1102,0.46485 -0.26475,0.91807 -0.60877,1.26593 -0.36005,0.31779 -0.76346,0.49501 -1.25332,0.43482 -0.46719,-0.0822 -0.88203,-0.276 -1.23066,-0.60438 -0.37661,-0.35595 -0.71302,-0.74974 -0.97531,-1.1989 -0.25892,-0.43277 -0.49882,-0.87625 -0.70668,-1.33608 -0.18311,-0.4262 -0.34701,-0.86296 -0.46169,-1.31294 -0.0697,-0.3131 -0.13444,-0.62942 -0.12774,-0.95207 0,-2.83482 1.33635,-2.83482 1.33635,0 z"
       inkscape:connector-curvature="0" />
    <path
       style="opacity:1;fill:#000000;fill-opacity:1;fill-rule:nonzero;stroke:#000000;stroke-width:0.1;stroke-linecap:round;stroke-linejoin:round;stroke-miterlimit:4;stroke-dasharray:none;stroke-dashoffset:0;stroke-opacity:1;paint-order:markers fill stroke"
       id="path8382"
       d="m 179.98885,155.06967 c -0.12231,-0.0465 -0.25942,-0.0749 -0.3945,-0.0845 -0.19064,-0.005 -0.36731,0.0555 -0.53221,0.14596 -0.14152,0.0797 -0.23248,0.18979 -0.28675,0.34059 -0.0476,0.14829 -0.049,0.29766 -0.0246,0.45001 0.0238,0.10467 0.0929,0.18012 0.17121,0.24889 0.0824,0.0652 0.18662,0.0838 0.28427,0.11615 0.40166,0.13843 0.60349,0.46813 0.62793,0.87936 -0.0112,0.26782 -0.0986,0.51842 -0.19307,0.76625 -0.0859,0.23277 -0.15482,0.47239 -0.19447,0.71741 -0.0249,0.21116 -0.004,0.4134 0.0668,0.61275 0.0589,0.1477 0.15868,0.26518 0.29541,0.34557 0.13588,0.0838 0.28975,0.10722 0.44691,0.10242 0.19612,-0.0129 0.36347,-0.10184 0.52725,-0.2021 0.0315,-0.0227 0.063,-0.0454 0.0945,-0.0681 2.32459,-1.6225 3.08944,-0.52668 0.76486,1.09582 v 0 c -0.0589,0.0404 -0.11772,0.0807 -0.17658,0.12107 -0.38053,0.22238 -0.78374,0.38564 -1.23198,0.38948 -0.42728,-0.0142 -0.83766,-0.10153 -1.19652,-0.34749 -0.36114,-0.26795 -0.65024,-0.59472 -0.79634,-1.02864 -0.12496,-0.40828 -0.17654,-0.82345 -0.11096,-1.24906 0.0592,-0.32884 0.14303,-0.65288 0.26257,-0.9654 0.0149,-0.0389 0.12488,-0.39792 0.1056,-0.26276 0.0359,0.15219 0.12797,0.31537 0.28765,0.3619 -0.29421,-0.0976 -0.57919,-0.21273 -0.80437,-0.43535 -0.28445,-0.2919 -0.49855,-0.62593 -0.5573,-1.03768 -0.0424,-0.39764 -0.0222,-0.7909 0.13534,-1.16477 0.20153,-0.4167 0.48034,-0.76121 0.89878,-0.9784 0.39981,-0.19566 0.82133,-0.31885 1.27177,-0.28332 0.35039,0.0403 0.69471,0.11712 1.00015,0.30207 2.35872,1.57248 1.61745,2.68439 -0.74127,1.11191 z"
       inkscape:connector-curvature="0" />
    <path
       style="opacity:1;fill:#000000;fill-opacity:1;fill-rule:nonzero;stroke:#000000;stroke-width:0.1;stroke-linecap:round;stroke-linejoin:round;stroke-miterlimit:4;stroke-dasharray:none;stroke-dashoffset:0;stroke-opacity:1;paint-order:markers fill stroke"
       id="path8384"
       d="m 187.61299,148.01442 c -0.11349,0.20231 -0.20184,0.41712 -0.2807,0.63499 -0.13254,0.38121 -0.18348,0.78294 -0.21554,1.18328 -0.0513,0.57241 -0.0234,1.14579 0.0245,1.71711 0.0527,0.67154 0.16845,1.33603 0.30883,1.99418 0.12821,0.64998 0.32911,1.28191 0.55103,1.90509 0.19034,0.54086 0.44868,1.05035 0.76086,1.53001 0.11293,0.18149 0.25582,0.33871 0.40129,0.49374 1.92555,2.08049 0.9448,2.98821 -0.98076,0.90771 v 0 c -0.1956,-0.21336 -0.38828,-0.42954 -0.54274,-0.67587 -0.36563,-0.5685 -0.67413,-1.16891 -0.89792,-1.8083 -0.24057,-0.67885 -0.45898,-1.36684 -0.59888,-2.07444 -0.15132,-0.7136 -0.27658,-1.43383 -0.3335,-2.16181 -0.0529,-0.64515 -0.0825,-1.29265 -0.0244,-1.93886 0.0449,-0.51865 0.11532,-1.03781 0.29202,-1.53039 0.1164,-0.31645 0.24719,-0.6296 0.42401,-0.91771 1.57247,-2.35872 2.68438,-1.61745 1.11191,0.74127 z"
       inkscape:connector-curvature="0" />
    <path
       style="opacity:1;fill:#000000;fill-opacity:1;fill-rule:nonzero;stroke:#000000;stroke-width:0.1;stroke-linecap:round;stroke-linejoin:round;stroke-miterlimit:4;stroke-dasharray:none;stroke-dashoffset:0;stroke-opacity:1;paint-order:markers fill stroke"
       id="path8386"
       d="m 191.96029,151.93199 c 0.1513,-0.18911 0.27341,-0.39729 0.38872,-0.60955 0.17131,-0.3166 0.28365,-0.65805 0.38594,-1.00166 0.11764,-0.40186 0.16777,-0.81954 0.22013,-1.23383 0.0466,-0.40776 0.0328,-0.81685 -0.004,-1.22444 -0.0404,-0.17532 -0.0257,-0.40479 -0.14879,-0.54926 0.13982,0.23887 0.45219,0.25706 0.67273,0.12472 -0.073,0.13551 -0.12419,0.28156 -0.16008,0.43165 -0.0782,0.36409 -0.11257,0.73413 -0.13012,1.10537 -0.0213,0.48464 0.008,0.96964 0.0461,1.45265 0.0468,0.52564 0.10869,1.05082 0.18822,1.57258 0.0706,0.47473 0.15577,0.94728 0.28903,1.40867 0.0962,0.38139 0.2555,0.73586 0.47253,1.06243 0.15876,0.21535 0.36435,0.38122 0.59447,0.51362 0.17109,0.0779 0.35808,0.1053 0.54468,0.10559 0.11504,-0.004 0.20039,-0.0573 0.28244,-0.13204 0.0694,-0.0573 0.068,-0.0814 0.0539,-0.15204 -0.0217,-0.1632 -0.0992,-0.30922 -0.18295,-0.44824 -0.12633,-0.19331 -0.30215,-0.34171 -0.49303,-0.46783 -0.10143,-0.0724 -0.21302,-0.10352 -0.33381,-0.12127 -2.77861,-0.5617 -2.51383,-1.87155 0.26479,-1.30985 v 0 c 0.29268,0.0648 0.57498,0.1526 0.82324,0.32795 0.35279,0.24562 0.67322,0.53196 0.897,0.90436 0.21163,0.37625 0.37303,0.77367 0.35741,1.2142 -0.0477,0.44184 -0.20728,0.82147 -0.56294,1.10509 -0.33897,0.25438 -0.71144,0.42046 -1.1439,0.41548 -0.41439,-0.0166 -0.82153,-0.089 -1.18915,-0.29237 -0.40246,-0.24318 -0.76214,-0.5423 -1.03153,-0.9327 -0.28458,-0.44189 -0.50823,-0.91422 -0.63826,-1.42585 -0.14596,-0.51689 -0.24857,-1.04366 -0.32523,-1.57524 -0.0832,-0.55343 -0.15056,-1.10997 -0.19913,-1.66749 -0.0424,-0.5394 -0.0732,-1.08103 -0.0487,-1.62219 0.0228,-0.46413 0.0682,-0.92731 0.17261,-1.38113 0.10402,-0.37794 0.24238,-0.7487 0.51291,-1.04177 0.4421,-0.3836 1.00684,-0.40055 1.38294,0.0909 0.22056,0.35622 0.32577,0.75027 0.36381,1.16699 0.0437,0.5025 0.0573,1.00712 -0.002,1.50939 -0.0618,0.48705 -0.12489,0.97697 -0.26555,1.4488 -0.12991,0.43283 -0.27644,0.8615 -0.49365,1.2597 -0.15796,0.28766 -0.32695,0.56908 -0.53474,0.82417 -1.81481,2.17777 -2.84142,1.32226 -1.02661,-0.85551 z"
       inkscape:connector-curvature="0" />
    <path
       style="opacity:1;fill:#000000;fill-opacity:1;fill-rule:nonzero;stroke:#000000;stroke-width:0.1;stroke-linecap:round;stroke-linejoin:round;stroke-miterlimit:4;stroke-dasharray:none;stroke-dashoffset:0;stroke-opacity:1;paint-order:markers fill stroke"
       id="path8388"
       d="m 199.46029,146.25111 c 0.17968,0.29825 0.32938,0.61364 0.47301,0.93047 0.24181,0.49718 0.4146,1.02224 0.55079,1.55683 0.16421,0.67691 0.22552,1.37049 0.24106,2.06498 0.0152,0.76854 -0.0574,1.53347 -0.14829,2.29541 -0.093,0.76237 -0.24629,1.51445 -0.42485,2.26077 -0.11335,0.47973 -0.27857,0.94361 -0.45733,1.40205 -1.03385,2.63958 -2.27816,2.15221 -1.24431,-0.48736 v 0 c 0.15773,-0.40065 0.30244,-0.80653 0.40211,-1.2262 0.16712,-0.69574 0.3103,-1.39691 0.39746,-2.1077 0.0837,-0.70026 0.15276,-1.40307 0.13914,-2.10949 -0.0109,-0.59404 -0.0631,-1.18732 -0.20103,-1.76675 -0.11322,-0.45871 -0.26582,-0.90702 -0.4727,-1.3326 -0.12522,-0.2787 -0.25688,-0.55587 -0.41533,-0.8174 -1.40647,-2.46132 -0.24619,-3.12433 1.16027,-0.66301 z"
       inkscape:connector-curvature="0" />
    <path
       style="opacity:1;fill:#000000;fill-opacity:1;fill-rule:nonzero;stroke:#000000;stroke-width:0.1;stroke-linecap:round;stroke-linejoin:round;stroke-miterlimit:4;stroke-dasharray:none;stroke-dashoffset:0;stroke-opacity:1;paint-order:markers fill stroke"
       id="path8392"
       d="m 95.031493,170.05719 c 0.254426,0.17722 0.460978,0.40895 0.6732,0.63218 0.1119,0.12526 0.227431,0.24697 0.340093,0.37154 1.899695,2.10413 0.907799,2.99965 -0.991899,0.89552 v 0 c -0.104905,-0.11644 -0.213281,-0.22953 -0.317225,-0.34684 -0.143724,-0.15149 -0.280987,-0.31052 -0.445442,-0.44049 -2.358715,-1.57248 -1.617443,-2.68438 0.741273,-1.11191 z"
       inkscape:connector-curvature="0" />
  </g>
</svg>
