<?xml version="1.0" encoding="UTF-8" standalone="no"?>
<!-- Created with Inkscape (http://www.inkscape.org/) -->

<svg
   xmlns:dc="http://purl.org/dc/elements/1.1/"
   xmlns:cc="http://creativecommons.org/ns#"
   xmlns:rdf="http://www.w3.org/1999/02/22-rdf-syntax-ns#"
   xmlns:svg="http://www.w3.org/2000/svg"
   xmlns="http://www.w3.org/2000/svg"
   xmlns:sodipodi="http://sodipodi.sourceforge.net/DTD/sodipodi-0.dtd"
   xmlns:inkscape="http://www.inkscape.org/namespaces/inkscape"
   width="297mm"
   height="210mm"
   viewBox="0 0 297 210"
   version="1.1"
   id="svg6864"
   inkscape:version="0.92.1 r15371"
   sodipodi:docname="far-from-all-yk.svg">
  <defs
     id="defs6858" />
  <sodipodi:namedview
     id="base"
     pagecolor="#ffffff"
     bordercolor="#666666"
     borderopacity="1.0"
     inkscape:pageopacity="0.0"
     inkscape:pageshadow="2"
     inkscape:zoom="0.98994949"
     inkscape:cx="579.17382"
     inkscape:cy="401.28412"
     inkscape:document-units="mm"
     inkscape:current-layer="layer1"
     showgrid="false"
     inkscape:window-width="1920"
     inkscape:window-height="1046"
     inkscape:window-x="-11"
     inkscape:window-y="-11"
     inkscape:window-maximized="1" />
  <metadata
     id="metadata6861">
    <rdf:RDF>
      <cc:Work
         rdf:about="">
        <dc:format>image/svg+xml</dc:format>
        <dc:type
           rdf:resource="http://purl.org/dc/dcmitype/StillImage" />
        <dc:title></dc:title>
      </cc:Work>
    </rdf:RDF>
  </metadata>
  <g
     inkscape:label="Layer 1"
     inkscape:groupmode="layer"
     id="layer1"
     transform="translate(0,-87)">
    <path
       style="opacity:1;fill:#000000;fill-opacity:1;fill-rule:nonzero;stroke:#000000;stroke-width:0.1;stroke-linecap:round;stroke-linejoin:round;stroke-miterlimit:4;stroke-dasharray:none;stroke-dashoffset:0;stroke-opacity:1;paint-order:markers fill stroke"
       id="path7413"
       d="m 23.842339,186.48405 c 0.26885,0 0.537699,0 0.806548,0 0.433625,0 0.867249,0 1.300874,0 0.612228,0 1.224455,0 1.836685,0 0.805439,0 1.610881,0 2.416323,0 0.976622,0 1.953244,0 2.929866,0 1.130806,0 2.261608,0 3.392411,0 1.268275,0.0159 2.536296,0.0474 3.804415,0.0724 1.34865,0.0262 2.697421,0.0454 4.046206,0.063 1.402768,0.015 2.805404,0.0275 4.207833,0.0626 1.420352,0.039 2.8408,0.0742 4.261345,0.10531 1.42403,0.0486 2.848316,0.0931 4.271806,0.15585 1.419281,0.0704 2.838863,0.13405 4.258771,0.19032 1.447342,0.0566 2.895205,0.098 4.34313,0.13617 1.462219,0.0378 2.924651,0.0663 4.387122,0.0921 1.449512,0.0104 2.899077,-0.002 4.348575,-0.0101 1.43066,-0.005 2.860884,-0.0476 4.291103,-0.0804 1.390142,-0.0205 2.779265,-0.0765 4.168515,-0.12742 1.332659,-0.0399 2.664555,-0.0956 3.996285,-0.15873 1.282973,-0.0662 2.567141,-0.10565 3.850249,-0.16836 1.239332,-0.068 2.478889,-0.13128 3.71883,-0.18716 1.203904,-0.0537 2.408271,-0.0958 3.612745,-0.13423 1.187648,-0.0339 2.374194,-0.098 3.561164,-0.14972 1.19698,-0.0522 2.39443,-0.0923 3.59198,-0.12836 1.21597,-0.0361 2.43218,-0.0629 3.64843,-0.0872 1.23441,-0.0242 2.46894,-0.0425 3.70348,-0.0588 1.26956,-0.0165 2.53918,-0.0286 3.8088,-0.0396 1.29592,-0.0139 2.59166,-0.0228 3.88757,-0.007 1.29485,0.0197 2.58969,0.0405 3.88457,0.0584 1.29551,0.0151 2.59087,0.0278 3.88601,0.0632 1.28882,0.0389 2.57774,0.0745 3.86676,0.10577 1.27473,0.034 2.54994,0.0461 3.82456,0.0835 1.25425,0.0439 2.50846,0.0887 3.76288,0.1276 1.23324,0.038 2.46673,0.067 3.70026,0.0935 1.19454,0.0254 2.38919,0.0452 3.58386,0.0633 1.1541,0.0172 2.30825,0.0306 3.46241,0.0427 1.13728,0.0119 2.27459,0.0208 3.4119,0.0289 1.13246,0.008 2.26494,0.0139 3.39742,0.0195 1.11188,0.008 2.22362,-0.0232 3.33518,-0.0462 1.09871,-0.023 2.19752,-0.0415 3.29635,-0.0582 1.08404,-0.005 2.16722,-0.0475 3.25045,-0.0857 1.05948,-0.0385 2.1192,-0.0698 3.179,-0.0978 1.04716,-0.0248 2.09426,-0.0436 3.14087,-0.0862 1.01798,-0.0447 2.03613,-0.0853 3.05444,-0.12177 0.97985,-0.0347 1.95994,-0.0616 2.94009,-0.0864 0.95382,-0.0237 1.90777,-0.0419 2.86174,-0.0583 0.92712,-0.0125 1.85336,-0.0604 2.7797,-0.0983 0.91034,-0.0374 1.82097,-0.067 2.73168,-0.0937 0.8943,-0.0261 1.78877,-0.046 2.68327,-0.0638 0.89248,-0.0177 1.78503,-0.031 2.6776,-0.0431 0.9116,-0.012 1.82324,-0.021 2.73489,-0.029 0.92365,-0.005 1.84706,-0.0105 2.77032,-0.0388 0.93838,-0.0331 1.87686,-0.063 2.81545,-0.0897 0.93181,-0.026 1.86377,-0.0462 2.79575,-0.0647 0.90894,-0.0176 1.81795,-0.0314 2.72697,-0.0437 0.88693,-0.0119 1.77389,-0.0211 2.66085,-0.0295 0.84483,-0.008 1.68967,-0.0142 2.53451,-0.0199 0.79982,-0.005 1.59964,-0.01 2.39947,-0.0134 0.76476,-0.004 1.52952,-0.006 2.29429,-0.009 0.74346,1.3e-4 1.48659,-5.2e-4 2.22967,-0.0253 0.76861,-0.0298 1.53732,-0.0567 2.30614,-0.0806 0.79201,-0.0213 1.58276,-0.0749 2.37384,-0.11727 0.81298,-0.0439 1.62649,-0.0767 2.44007,-0.10695 0.83101,-0.0302 1.66227,-0.0524 2.49357,-0.0727 0.83971,-0.0352 1.6789,-0.0815 2.51843,-0.12065 0.84976,-0.0389 1.69988,-0.069 2.55006,-0.0965 0.83608,-0.0265 1.67234,-0.0468 2.50863,-0.0653 0.81007,-0.014 1.61901,-0.0639 2.42815,-0.10285 0.80786,-0.0391 1.61609,-0.0696 2.42442,-0.097 0.80612,-0.027 1.61243,-0.0475 2.41879,-0.066 0.81316,-0.0186 1.62643,-0.032 2.4397,-0.0445 0.82677,-0.0123 1.65359,-0.0216 2.48041,-0.03 0.83291,-0.008 1.66584,-0.0146 2.49878,-0.0202 0.83271,-0.006 1.66543,-0.01 2.49815,-0.0136 0.80093,-0.004 1.60186,-0.007 2.4028,-0.009 0.75747,7.9e-4 1.51502,-0.0123 2.2724,0.002 0.71902,0.0215 1.43785,0.0489 2.15679,0.0726 0.68844,0.0226 1.37703,0.0401 2.06565,0.0563 0.64771,0.0151 1.29548,0.0272 1.94327,0.0382 0.611,0.0103 1.22202,0.0184 1.83308,0.0258 0.5099,-0.002 1.02031,0.0247 1.53009,0.01 0.0517,0.0448 0.60975,-0.0966 0.42039,-0.0419 -0.26418,0.1364 -0.3311,0.41734 -0.26014,0.68195 -0.12033,-0.0878 -0.24119,-0.17642 -0.36637,-0.25829 -0.26984,-0.18397 -0.55506,-0.3425 -0.84087,-0.49976 -0.34681,-0.18686 -0.69257,-0.37566 -1.03854,-0.56416 -0.29162,-0.15053 -0.58497,-0.30012 -0.85833,-0.48236 -0.69084,-0.36525 -0.50174,-1.25554 0.33091,-1.38375 0.31221,-0.007 0.61838,0.0714 0.92099,0.13932 0.38669,0.0927 0.76366,0.21902 1.13988,0.34652 0.41788,0.12862 0.8242,0.28975 1.23385,0.44151 0.43463,0.16119 0.86273,0.33811 1.27712,0.546 0.47017,0.23541 0.77229,0.57807 0.92432,1.07779 0.0698,0.59165 -0.26135,1.03071 -0.64127,1.44008 -0.37706,0.37452 -0.79063,0.70849 -1.20771,1.03674 -0.21789,0.16617 -0.44101,0.32499 -0.66559,0.48189 -2.32479,1.62219 -3.08951,0.52626 -0.7647,-1.09593 v 0 c 0.20389,-0.14207 0.40608,-0.28636 0.60423,-0.43641 0.36489,-0.28669 0.72662,-0.57794 1.05997,-0.90146 0.07,-0.0731 0.27326,-0.42757 0.31113,-0.23236 0.0907,0.12649 -0.12076,-0.19693 -0.22175,-0.17695 -0.36912,-0.18706 -0.75285,-0.34126 -1.1402,-0.48636 -0.39782,-0.14754 -0.79237,-0.30424 -1.19832,-0.42889 -0.3315,-0.11235 -0.66318,-0.22493 -1.00349,-0.30823 -0.1756,-0.0394 -0.35176,-0.0766 -0.52818,-0.11068 0.60788,-0.20207 0.54869,-0.82367 0.20415,-1.12986 -0.0346,-0.0307 0.28713,0.22288 0.11618,0.076 0.23143,0.1652 0.49969,0.27471 0.74628,0.41396 0.34753,0.18943 0.69477,0.37923 1.04328,0.56677 0.3171,0.17448 0.63283,0.35165 0.9326,0.55513 0.25874,0.17172 0.52062,0.34892 0.71591,0.59429 0.29671,0.44157 0.29054,0.97179 -0.20161,1.27934 -0.32081,0.143 -0.65675,0.1961 -1.00854,0.19589 -0.52715,0.0129 -1.0546,-0.009 -1.58184,-0.009 -0.61325,-0.007 -1.22647,-0.0156 -1.83968,-0.0259 -0.65069,-0.0111 -1.30137,-0.0232 -1.95198,-0.0384 -0.6928,-0.0163 -1.38558,-0.0338 -2.0782,-0.0566 -0.71277,-0.0235 -1.42542,-0.0506 -2.13825,-0.0721 -0.7474,-0.0146 -1.49501,-1.3e-4 -2.2425,-0.002 -0.80032,0.003 -1.60064,0.006 -2.40095,0.009 -0.83181,0.004 -1.66362,0.008 -2.49542,0.0136 -0.8314,0.006 -1.6628,0.0118 -2.49417,0.0202 -0.82452,0.008 -1.64903,0.0176 -2.4735,0.0299 -0.80989,0.0124 -1.61977,0.0258 -2.42954,0.0443 -0.80146,0.0184 -1.60289,0.0387 -2.40412,0.0656 -0.80202,0.0272 -1.60395,0.0575 -2.4055,0.0962 -0.82068,0.0395 -1.64116,0.0899 -2.46278,0.10407 -0.83177,0.0184 -1.6635,0.0386 -2.49506,0.065 -0.84385,0.0273 -1.68764,0.0571 -2.53107,0.0957 -0.84938,0.0396 -1.69841,0.0867 -2.548,0.1217 -0.82565,0.0202 -1.65126,0.0422 -2.4766,0.0722 -0.80628,0.0299 -1.61248,0.0625 -2.41815,0.10597 -0.80108,0.0429 -1.60182,0.0971 -2.40385,0.11853 -0.76789,0.0239 -1.53567,0.0508 -2.30335,0.0805 -0.75634,0.025 -1.51272,0.0264 -2.26943,0.026 -0.76411,0.003 -1.52822,0.005 -2.29233,0.009 -0.79898,0.004 -1.59796,0.008 -2.39694,0.0134 -0.84364,0.006 -1.68728,0.012 -2.53091,0.0198 -0.88512,0.008 -1.77024,0.0176 -2.65533,0.0294 -0.90624,0.0123 -1.81246,0.026 -2.71862,0.0436 -0.92816,0.0184 -1.85629,0.0385 -2.78428,0.0644 -0.93762,0.0266 -1.87513,0.0566 -2.81255,0.0896 -0.93294,0.0285 -1.86601,0.0342 -2.79934,0.0394 -0.90958,0.008 -1.81916,0.017 -2.7287,0.029 -0.88967,0.012 -1.77933,0.0253 -2.66892,0.0429 -0.89032,0.0178 -1.78061,0.0376 -2.67073,0.0635 -0.90558,0.0266 -1.81108,0.056 -2.7163,0.0932 -0.93689,0.0383 -1.87368,0.0866 -2.81138,0.0992 -0.95038,0.0163 -1.90073,0.0346 -2.85097,0.0581 -0.97543,0.0246 -1.95081,0.0514 -2.92594,0.0859 -1.01616,0.0364 -2.03216,0.0769 -3.04799,0.12153 -1.05296,0.0428 -2.10638,0.062 -3.15988,0.0869 -1.05589,0.0279 -2.11169,0.0591 -3.16726,0.0974 -1.09216,0.0385 -2.18427,0.0812 -3.27725,0.0863 -1.09637,0.0166 -2.19271,0.035 -3.28896,0.058 -1.12294,0.0232 -2.24606,0.055 -3.36933,0.0465 -1.13347,-0.006 -2.26693,-0.0116 -3.40039,-0.0195 -1.13884,-0.008 -2.27768,-0.017 -3.4165,-0.0289 -1.15622,-0.0122 -2.31242,-0.0256 -3.46858,-0.0428 -1.19752,-0.0181 -2.39502,-0.038 -3.59241,-0.0635 -1.23773,-0.0267 -2.47541,-0.0557 -3.71284,-0.0939 -1.25374,-0.0388 -2.50727,-0.0836 -3.76083,-0.12754 -1.27232,-0.0376 -2.54526,-0.0491 -3.81768,-0.0833 -1.29038,-0.0314 -2.58063,-0.0669 -3.8708,-0.10588 -1.28914,-0.0352 -2.5785,-0.0477 -3.86801,-0.0628 -1.2941,-0.0179 -2.58817,-0.0386 -3.88225,-0.0583 -1.28665,-0.0156 -2.57313,-0.006 -3.85979,0.007 -1.26761,0.011 -2.53522,0.0232 -3.80277,0.0396 -1.23154,0.0163 -2.46305,0.0345 -3.69446,0.0586 -1.21174,0.0242 -2.42344,0.0508 -3.63489,0.0868 -1.19156,0.0359 -2.383,0.0758 -3.57398,0.1277 -1.19215,0.052 -2.383887,0.11628 -3.576729,0.1503 -1.198629,0.0383 -2.397154,0.0802 -3.595217,0.13356 -1.238276,0.0558 -2.476164,0.11904 -3.713837,0.18692 -1.283745,0.0626 -2.568525,0.10234 -3.852135,0.16846 -1.336508,0.0634 -2.673183,0.11922 -4.010623,0.15933 -1.395343,0.0511 -2.79056,0.10726 -4.186793,0.12797 -1.43796,0.033 -2.875923,0.0758 -4.314327,0.0807 -1.459855,0.008 -2.919778,0.0207 -4.379648,0.01 -1.466318,-0.0259 -2.9326,-0.0545 -4.398664,-0.0924 -1.45384,-0.0383 -2.907614,-0.0799 -4.360865,-0.13676 -1.421892,-0.0564 -2.843456,-0.12 -4.264715,-0.19056 -1.413621,-0.0624 -2.828049,-0.10638 -4.2422,-0.15487 -1.421924,-0.0311 -2.843744,-0.0664 -4.265475,-0.10541 -1.3971,-0.0349 -2.79441,-0.0472 -4.191846,-0.0623 -1.351756,-0.0176 -2.703497,-0.0368 -4.055115,-0.0632 -1.259351,-0.0248 -2.518604,-0.056 -3.778105,-0.0721 -1.130803,0 -2.261605,0 -3.392411,0 -0.976622,0 -1.953244,0 -2.929866,0 -0.805442,0 -1.610884,0 -2.416323,0 -0.61223,0 -1.224457,0 -1.836685,0 -0.433625,0 -0.867249,0 -1.300874,0 -0.268849,0 -0.537698,0 -0.806548,0 -2.834821,0 -2.834821,-1.33635 0,-1.33635 z"
       inkscape:connector-curvature="0" />
    <path
       style="opacity:1;fill:#000000;fill-opacity:1;fill-rule:nonzero;stroke:#000000;stroke-width:0.1;stroke-linecap:round;stroke-linejoin:round;stroke-miterlimit:4;stroke-dasharray:none;stroke-dashoffset:0;stroke-opacity:1;paint-order:markers fill stroke"
       id="path7415"
       d="m 145.79552,184.27552 c 0,0.32071 0,0.64141 0,0.96211 0,0.49466 0,0.98933 0,1.48399 -0.003,0.54174 0.0327,1.08287 0.0587,1.62379 0.0277,0.4711 0.0177,0.94335 0.012,1.41493 -0.0347,2.83461 -1.37096,2.81824 -1.33625,-0.0164 v 0 c 0.005,-0.44471 0.0157,-0.89009 -0.0105,-1.33434 -0.0271,-0.56231 -0.0633,-1.12484 -0.0603,-1.68802 0,-0.49466 0,-0.98932 0,-1.48399 0,-0.3207 0,-0.6414 0,-0.9621 0,-2.83482 1.33635,-2.83482 1.33635,0 z"
       inkscape:connector-curvature="0" />
    <path
       style="opacity:1;fill:#000000;fill-opacity:1;fill-rule:nonzero;stroke:#000000;stroke-width:0.1;stroke-linecap:round;stroke-linejoin:round;stroke-miterlimit:4;stroke-dasharray:none;stroke-dashoffset:0;stroke-opacity:1;paint-order:markers fill stroke"
       id="path7419"
       d="m 146.31385,201.97106 c -0.17558,-0.005 -0.34857,0.0293 -0.5184,0.0715 -0.24933,0.0758 -0.48343,0.19236 -0.70229,0.33266 -0.25495,0.17489 -0.46631,0.39991 -0.66792,0.63199 -0.22692,0.26698 -0.39668,0.57312 -0.54951,0.88653 -0.14189,0.31137 -0.19989,0.64616 -0.23925,0.98315 -0.0228,0.30487 -0.014,0.61175 0.0503,0.911 0.0538,0.17028 0.12479,0.35813 0.26629,0.47574 0.0562,0.045 0.10287,0.0636 0.1687,0.0395 0.13668,-0.0377 0.25625,-0.11282 0.36815,-0.19761 0.2347,-0.1703 0.40812,-0.39895 0.57991,-0.6285 0.2277,-0.31064 0.40241,-0.65508 0.57698,-0.99714 0.15586,-0.37968 0.29899,-0.76301 0.49884,-1.12238 0.21585,-0.3777 0.52006,-0.60689 0.94174,-0.70196 0.45144,-0.0364 0.78581,0.19025 1.08339,0.50279 0.23586,0.26791 0.43359,0.56552 0.63156,0.86158 0.21707,0.34145 0.42981,0.68551 0.64732,1.0267 0.11029,0.17485 0.23404,0.34059 0.35357,0.5091 1.64008,2.31223 0.55008,3.08536 -1.08999,0.77314 v 0 c -0.13228,-0.1865 -0.26861,-0.37036 -0.39049,-0.56398 -0.2122,-0.33298 -0.4203,-0.66843 -0.63129,-1.00215 -0.15728,-0.23522 -0.31297,-0.4722 -0.49481,-0.68957 -0.11809,-0.12907 -0.0319,-0.067 0.0885,-0.096 0.16744,-0.0657 0.16004,-0.15873 0.0214,0.0423 -0.20092,0.33485 -0.29703,0.7198 -0.46973,1.06851 -0.20963,0.40967 -0.42231,0.82021 -0.69772,1.19063 -0.2542,0.33851 -0.52419,0.66506 -0.87142,0.9136 -0.3412,0.23799 -0.70947,0.42559 -1.13354,0.44716 -0.43864,-0.0103 -0.82866,-0.13586 -1.14657,-0.45193 -0.29689,-0.32652 -0.51504,-0.70284 -0.61125,-1.13815 -0.0838,-0.43907 -0.11108,-0.88507 -0.0667,-1.33102 0.0592,-0.48626 0.15566,-0.96731 0.36657,-1.41349 0.20603,-0.41748 0.43752,-0.8232 0.74312,-1.17729 0.28887,-0.3287 0.59542,-0.6434 0.96381,-0.8844 0.34576,-0.21397 0.71148,-0.39628 1.10625,-0.5014 0.33265,-0.0759 0.67136,-0.13234 1.01351,-0.0936 2.80633,0.4009 2.61734,1.72382 -0.18899,1.32291 z"
       inkscape:connector-curvature="0" />
    <path
       style="opacity:1;fill:#000000;fill-opacity:1;fill-rule:nonzero;stroke:#000000;stroke-width:0.1;stroke-linecap:round;stroke-linejoin:round;stroke-miterlimit:4;stroke-dasharray:none;stroke-dashoffset:0;stroke-opacity:1;paint-order:markers fill stroke"
       id="path7421"
       d="m 97.300075,184.59912 c -0.127645,0.22128 -0.231463,0.452 -0.318421,0.69182 -0.118245,0.35004 -0.166891,0.72107 -0.198646,1.08791 -0.04264,0.48942 -0.0011,0.98095 0.06666,1.46596 0.08631,0.56574 0.263631,1.11124 0.446098,1.65182 0.18037,0.544 0.436222,1.05546 0.72198,1.55046 0.27668,0.46194 0.604885,0.88902 0.962223,1.29076 0.168749,0.19939 0.350419,0.38667 0.534633,0.57157 1.997788,2.01123 1.049688,2.95299 -0.948103,0.94177 v 0 c -0.201588,-0.20346 -0.401365,-0.40862 -0.586811,-0.62719 -0.415597,-0.47069 -0.799484,-0.96899 -1.120069,-1.51015 -0.328472,-0.57188 -0.622204,-1.16295 -0.830257,-1.79055 -0.208706,-0.62052 -0.408252,-1.24732 -0.503669,-1.89706 -0.07909,-0.58548 -0.127156,-1.17797 -0.07355,-1.76834 0.0454,-0.48239 0.112213,-0.96808 0.274773,-1.4268 0.114276,-0.30939 0.248303,-0.60877 0.412884,-0.89499 1.406467,-2.46132 2.566742,-1.7983 1.160275,0.66301 z"
       inkscape:connector-curvature="0" />
    <path
       style="opacity:1;fill:#000000;fill-opacity:1;fill-rule:nonzero;stroke:#000000;stroke-width:0.1;stroke-linecap:round;stroke-linejoin:round;stroke-miterlimit:4;stroke-dasharray:none;stroke-dashoffset:0;stroke-opacity:1;paint-order:markers fill stroke"
       id="path7423"
       d="m 190.54064,182.44298 c 0.18963,0.16623 0.35704,0.35717 0.52387,0.54593 0.24343,0.28666 0.46284,0.59221 0.66528,0.90882 0.24623,0.36852 0.4431,0.76491 0.61856,1.1709 0.19892,0.46758 0.32974,0.95798 0.42439,1.45595 0.0935,0.56207 0.0977,1.13132 0.0584,1.69806 -0.0395,0.57502 -0.16277,1.13931 -0.31514,1.69372 -0.15359,0.56673 -0.41895,1.08759 -0.72702,1.58379 -1.50219,2.40409 -2.63548,1.69595 -1.1333,-0.70814 v 0 c 0.24277,-0.38532 0.45184,-0.79009 0.57234,-1.2319 0.13071,-0.46893 0.23584,-0.94687 0.27023,-1.43358 0.0342,-0.452 0.0307,-0.90608 -0.0389,-1.35511 -0.0745,-0.40174 -0.17954,-0.79703 -0.33851,-1.17449 -0.14601,-0.341 -0.31112,-0.6733 -0.51855,-0.98182 -0.16349,-0.25861 -0.34341,-0.50634 -0.53934,-0.74146 -0.14869,-0.16841 -0.29688,-0.33869 -0.46728,-0.48573 -2.00452,-2.00452 -1.05958,-2.94946 0.94494,-0.94494 z"
       inkscape:connector-curvature="0" />
    <path
       style="opacity:1;fill:#000000;fill-opacity:1;fill-rule:nonzero;stroke:#000000;stroke-width:0.1;stroke-linecap:round;stroke-linejoin:round;stroke-miterlimit:4;stroke-dasharray:none;stroke-dashoffset:0;stroke-opacity:1;paint-order:markers fill stroke"
       id="path7425"
       d="m 104.35885,185.95494 c 0.0776,0.27008 0.1162,0.54881 0.17312,0.82339 0.0594,0.29213 0.1181,0.58414 0.18321,0.87507 0.61906,2.7664 -0.68503,3.05823 -1.3041,0.29183 v 0 c -0.0669,-0.29883 -0.12727,-0.59876 -0.18829,-0.89882 -0.049,-0.24156 -0.0846,-0.48607 -0.14886,-0.72435 -0.77879,-2.72574 0.50614,-3.09287 1.28492,-0.36712 z"
       inkscape:connector-curvature="0" />
    <path
       style="opacity:1;fill:#000000;fill-opacity:1;fill-rule:nonzero;stroke:#000000;stroke-width:0.1;stroke-linecap:round;stroke-linejoin:round;stroke-miterlimit:4;stroke-dasharray:none;stroke-dashoffset:0;stroke-opacity:1;paint-order:markers fill stroke"
       id="path7427"
       d="m 114.79226,185.60396 c 0.0308,0.23898 0.0505,0.47955 0.0701,0.71975 0.0128,0.22379 0.046,0.44578 0.0742,0.668 0.35688,2.81226 -0.96883,2.9805 -1.32572,0.16823 v 0 c -0.0307,-0.24215 -0.0659,-0.48416 -0.0804,-0.72798 -0.0224,-0.27627 -0.053,-0.55171 -0.0745,-0.828 0,-2.83482 1.33635,-2.83482 1.33635,0 z"
       inkscape:connector-curvature="0" />
    <path
       style="opacity:1;fill:#000000;fill-opacity:1;fill-rule:nonzero;stroke:#000000;stroke-width:0.1;stroke-linecap:round;stroke-linejoin:round;stroke-miterlimit:4;stroke-dasharray:none;stroke-dashoffset:0;stroke-opacity:1;paint-order:markers fill stroke"
       id="path7429"
       d="m 127.08785,185.2422 c 0.0399,0.28132 0.0933,0.56065 0.13539,0.84181 0.041,0.36488 0.1107,0.72529 0.17078,1.08729 0.0459,0.22123 0.0219,0.10761 0.0721,0.34083 0.59671,2.77131 -0.70969,3.0526 -1.30641,0.2813 v 0 c -0.0566,-0.26313 -0.0285,-0.12865 -0.0841,-0.40348 -0.0612,-0.36897 -0.13195,-0.73641 -0.17408,-1.10826 -0.0424,-0.28407 -0.0965,-0.56622 -0.13667,-0.8505 -0.4009,-2.80633 0.92202,-2.99532 1.32292,-0.18899 z"
       inkscape:connector-curvature="0" />
    <path
       style="opacity:1;fill:#000000;fill-opacity:1;fill-rule:nonzero;stroke:#000000;stroke-width:0.1;stroke-linecap:round;stroke-linejoin:round;stroke-miterlimit:4;stroke-dasharray:none;stroke-dashoffset:0;stroke-opacity:1;paint-order:markers fill stroke"
       id="path7431"
       d="m 135.36212,184.88586 c 0.0776,0.27009 0.11619,0.54881 0.17312,0.82339 0.0833,0.35617 0.13211,0.71901 0.2039,1.07733 0.0509,0.24496 0.0253,0.12056 0.0767,0.37321 0.56548,2.77785 -0.74401,3.04442 -1.30949,0.26657 v 0 c -0.0512,-0.25176 -0.0252,-0.12496 -0.0782,-0.3804 -0.0697,-0.35576 -0.12092,-0.71504 -0.20215,-1.06863 -0.049,-0.24156 -0.0846,-0.48607 -0.14886,-0.72434 -0.77879,-2.72575 0.50614,-3.09288 1.28493,-0.36713 z"
       inkscape:connector-curvature="0" />
    <path
       style="opacity:1;fill:#000000;fill-opacity:1;fill-rule:nonzero;stroke:#000000;stroke-width:0.1;stroke-linecap:round;stroke-linejoin:round;stroke-miterlimit:4;stroke-dasharray:none;stroke-dashoffset:0;stroke-opacity:1;paint-order:markers fill stroke"
       id="path7433"
       d="m 140.44024,185.15313 c 0.0779,0.26625 0.15521,0.5322 0.21998,0.80211 0.091,0.35628 0.2027,0.70657 0.29903,1.0614 0.0177,0.07 0.0354,0.14004 0.0531,0.21007 0.693,2.74881 -0.6028,3.07549 -1.2958,0.32668 v 0 c -0.0157,-0.0624 -0.0314,-0.12476 -0.0471,-0.18714 -0.0995,-0.36783 -0.21671,-0.73054 -0.30897,-1.10037 -0.0597,-0.25109 -0.13275,-0.49804 -0.20516,-0.74563 -0.77878,-2.72574 0.50615,-3.09287 1.28493,-0.36712 z"
       inkscape:connector-curvature="0" />
    <path
       style="opacity:1;fill:#000000;fill-opacity:1;fill-rule:nonzero;stroke:#000000;stroke-width:0.1;stroke-linecap:round;stroke-linejoin:round;stroke-miterlimit:4;stroke-dasharray:none;stroke-dashoffset:0;stroke-opacity:1;paint-order:markers fill stroke"
       id="path7435"
       d="m 149.27122,184.70766 c 0.0403,0.25452 0.0929,0.50709 0.13417,0.76169 0.0471,0.36165 0.10146,0.72186 0.1591,1.08197 0.0199,0.17767 0.0578,0.35149 0.10255,0.52418 0.68983,2.74961 -0.60635,3.0748 -1.29618,0.32519 v 0 c -0.0518,-0.21084 -0.10101,-0.42206 -0.12593,-0.6382 -0.0575,-0.35937 -0.11227,-0.71883 -0.15874,-1.07979 -0.0424,-0.26273 -0.0975,-0.52312 -0.13789,-0.78605 -0.4009,-2.80633 0.92202,-2.99532 1.32292,-0.18899 z"
       inkscape:connector-curvature="0" />
    <path
       style="opacity:1;fill:#000000;fill-opacity:1;fill-rule:nonzero;stroke:#000000;stroke-width:0.1;stroke-linecap:round;stroke-linejoin:round;stroke-miterlimit:4;stroke-dasharray:none;stroke-dashoffset:0;stroke-opacity:1;paint-order:markers fill stroke"
       id="path7437"
       d="m 154.03406,186.09905 c 0.11584,0.24217 0.22182,0.48874 0.32644,0.73595 0.13571,0.34795 0.28407,0.69072 0.42026,1.03846 0.0966,0.22708 0.0471,0.11028 0.14843,0.35042 1.10208,2.61183 -0.12914,3.13135 -1.23123,0.51953 v 0 c -0.10542,-0.24984 -0.0515,-0.12207 -0.16179,-0.3833 -0.13137,-0.33659 -0.27589,-0.66782 -0.40653,-1.00472 -0.0934,-0.22116 -0.18777,-0.44189 -0.29084,-0.65871 -1.26777,-2.53554 -0.0725,-3.13317 1.19526,-0.59763 z"
       inkscape:connector-curvature="0" />
    <path
       style="opacity:1;fill:#000000;fill-opacity:1;fill-rule:nonzero;stroke:#000000;stroke-width:0.1;stroke-linecap:round;stroke-linejoin:round;stroke-miterlimit:4;stroke-dasharray:none;stroke-dashoffset:0;stroke-opacity:1;paint-order:markers fill stroke"
       id="path7439"
       d="m 163.54642,185.38295 c 0.22805,0.23401 0.38208,0.52175 0.51796,0.81553 0.076,0.16941 0.13331,0.34589 0.19054,0.52219 0.86973,2.69811 -0.40217,3.1081 -1.2719,0.41 v 0 c -0.0406,-0.12701 -0.0808,-0.25429 -0.13408,-0.37674 -0.0673,-0.15007 -0.13845,-0.30096 -0.24746,-0.42604 -2.00452,-2.00452 -1.05959,-2.94946 0.94494,-0.94494 z"
       inkscape:connector-curvature="0" />
    <path
       style="opacity:1;fill:#000000;fill-opacity:1;fill-rule:nonzero;stroke:#000000;stroke-width:0.1;stroke-linecap:round;stroke-linejoin:round;stroke-miterlimit:4;stroke-dasharray:none;stroke-dashoffset:0;stroke-opacity:1;paint-order:markers fill stroke"
       id="path7441"
       d="m 177.84905,184.84272 c 0.0979,0.29743 0.20144,0.59296 0.30231,0.88942 0.14473,0.39382 0.28659,0.78897 0.4406,1.17928 0.0894,0.25031 0.20443,0.48928 0.33166,0.72211 1.34783,2.49391 0.1722,3.12928 -1.17564,0.63537 v 0 c -0.15076,-0.28123 -0.29162,-0.56753 -0.39966,-0.86843 -0.16079,-0.41007 -0.31143,-0.82418 -0.46215,-1.23805 -0.0963,-0.28343 -0.19621,-0.56567 -0.28838,-0.85048 -0.99538,-2.65432 0.25589,-3.12355 1.25126,-0.46922 z"
       inkscape:connector-curvature="0" />
    <path
       style="opacity:1;fill:#000000;fill-opacity:1;fill-rule:nonzero;stroke:#000000;stroke-width:0.1;stroke-linecap:round;stroke-linejoin:round;stroke-miterlimit:4;stroke-dasharray:none;stroke-dashoffset:0;stroke-opacity:1;paint-order:markers fill stroke"
       id="path7443"
       d="m 186.68896,184.70766 c 0.0386,0.26019 0.0514,0.52326 0.0858,0.78386 0.0541,0.36397 0.0987,0.72915 0.13748,1.09503 0.0217,0.20779 0.0388,0.41601 0.056,0.6242 0.23242,2.82528 -1.09943,2.93484 -1.33185,0.10957 v 0 c -0.0162,-0.19781 -0.0325,-0.39564 -0.0531,-0.59306 -0.0377,-0.35646 -0.0816,-0.71214 -0.13417,-1.06673 -0.0316,-0.25424 -0.0487,-0.50994 -0.0831,-0.76388 -0.40091,-2.80633 0.92201,-2.99532 1.32292,-0.18899 z"
       inkscape:connector-curvature="0" />
    <path
       style="opacity:1;fill:#000000;fill-opacity:1;fill-rule:nonzero;stroke:#000000;stroke-width:0.1;stroke-linecap:round;stroke-linejoin:round;stroke-miterlimit:4;stroke-dasharray:none;stroke-dashoffset:0;stroke-opacity:1;paint-order:markers fill stroke"
       id="path7445"
       d="m 137.24409,185.77674 c 0.0315,0.25644 0.0566,0.51303 0.0953,0.76852 0.0375,0.23836 0.0682,0.47769 0.0974,0.71719 0.34214,2.8141 -0.98444,2.97539 -1.32658,0.16129 v 0 c -0.0275,-0.22669 -0.0565,-0.4532 -0.0921,-0.6788 -0.0391,-0.25908 -0.0667,-0.51902 -0.0969,-0.77921 -0.40091,-2.80633 0.92201,-2.99532 1.32291,-0.18899 z"
       inkscape:connector-curvature="0" />
    <path
       style="opacity:1;fill:#000000;fill-opacity:1;fill-rule:nonzero;stroke:#000000;stroke-width:0.1;stroke-linecap:round;stroke-linejoin:round;stroke-miterlimit:4;stroke-dasharray:none;stroke-dashoffset:0;stroke-opacity:1;paint-order:markers fill stroke"
       id="path7447"
       d="m 112.49794,195.27192 c 0.18675,0.18596 0.35683,0.38771 0.53936,0.57767 0.20756,0.22337 0.41165,0.44991 0.64761,0.64383 0.16399,0.12486 0.34054,0.24124 0.5478,0.27054 0.10739,0.007 0.19952,-0.0346 0.28506,-0.095 0.15152,-0.14582 0.28708,-0.30516 0.4453,-0.44513 0.39286,-0.32392 0.84394,-0.28839 1.24285,-5.3e-4 0.30142,0.28242 0.43873,0.67058 0.56967,1.05151 0.16225,0.49696 0.27432,1.00708 0.38518,1.51726 0.1501,0.68461 0.25945,1.37682 0.35527,2.07079 0.1009,0.75056 0.17636,1.50419 0.24544,2.25824 0.0745,0.72243 0.11238,1.4469 0.13328,2.17257 0.024,0.69539 -0.0661,1.38507 -0.19361,2.06676 -0.10982,0.59264 -0.34089,1.14099 -0.66447,1.64608 -0.27268,0.4063 -0.63527,0.7137 -1.05816,0.95161 -0.40932,0.21963 -0.84978,0.25053 -1.29938,0.17595 -0.43213,-0.0971 -0.76412,-0.35074 -1.03753,-0.68834 -0.26504,-0.36716 -0.33459,-0.78841 -0.33632,-1.23027 0.003,-0.4855 0.17216,-0.93086 0.37757,-1.36252 0.23816,-0.47109 0.52807,-0.91323 0.83625,-1.34087 0.33029,-0.44906 0.69948,-0.86753 1.06908,-1.28421 1.88192,-2.12004 2.88132,-1.2329 0.9994,0.88715 v 0 c -0.34033,0.38308 -0.68038,0.76778 -0.98547,1.17995 -0.26296,0.36241 -0.50907,0.73813 -0.71462,1.13649 -0.12176,0.25037 -0.23824,0.50247 -0.24586,0.78639 -0.002,0.14281 -0.0116,0.27721 0.0556,0.40842 0.0582,0.088 0.12758,0.15919 0.23054,0.19479 0.13864,0.0393 0.27604,0.0312 0.40656,-0.0337 0.23559,-0.12409 0.43094,-0.29049 0.58365,-0.51173 0.23761,-0.35177 0.38814,-0.74593 0.46996,-1.16264 0.11167,-0.58718 0.19118,-1.1815 0.17105,-1.78088 -0.02,-0.6978 -0.0563,-1.39439 -0.12827,-2.08906 -0.0672,-0.73378 -0.14045,-1.46716 -0.23848,-2.19756 -0.0909,-0.66006 -0.19461,-1.31845 -0.33732,-1.9696 -0.1,-0.46014 -0.19917,-0.9206 -0.34401,-1.36932 -0.0164,-0.0484 -0.21406,-0.50018 -0.14496,-0.44387 0.145,0.0626 0.35872,0.0852 0.46802,-0.0252 -0.22826,0.17747 -0.3748,0.45319 -0.64293,0.58589 -0.38323,0.21241 -0.78979,0.32677 -1.23078,0.24893 -0.41907,-0.096 -0.79903,-0.27588 -1.13136,-0.55263 -0.27217,-0.22924 -0.51915,-0.48346 -0.75799,-0.74704 -0.1745,-0.18353 -0.3398,-0.37567 -0.51789,-0.55571 -2.00452,-2.00452 -1.05958,-2.94946 0.94494,-0.94494 z"
       inkscape:connector-curvature="0" />
    <path
       style="opacity:1;fill:#000000;fill-opacity:1;fill-rule:nonzero;stroke:#000000;stroke-width:0.1;stroke-linecap:round;stroke-linejoin:round;stroke-miterlimit:4;stroke-dasharray:none;stroke-dashoffset:0;stroke-opacity:1;paint-order:markers fill stroke"
       id="path7449"
       d="m 120.92957,201.1893 c 0.0647,0.2675 0.1295,0.53495 0.19331,0.80272 0.0889,0.37658 0.14968,0.75881 0.20417,1.14162 0.0383,0.22456 0.0447,0.45814 0.13074,0.67157 -0.0986,-0.21881 -0.36722,-0.2699 -0.63187,-0.24731 -0.17275,0.0701 -0.1231,0.0883 -0.0293,-0.0412 0.14583,-0.19952 0.28671,-0.40243 0.43689,-0.59876 0.18614,-0.24786 0.38103,-0.48929 0.58235,-0.72498 0.22265,-0.27968 0.47697,-0.53106 0.72662,-0.78602 0.11775,-0.12392 0.30063,-0.31213 0.371,-0.42284 -0.25562,0.35522 0.4842,0.90691 0.64648,0.94407 -0.14812,0.091 -0.2789,0.21018 -0.39472,0.33946 -0.0584,0.0587 -0.10397,0.14061 -0.0874,0.195 0.0313,-0.0242 0.0733,0.0404 0.10939,0.0708 0.15998,0.12498 0.35165,0.19761 0.53503,0.28017 0.20703,0.0855 0.41339,0.17231 0.61939,0.26036 2.60668,1.11417 2.08146,2.34298 -0.52523,1.2288 v 0 c -0.21384,-0.0914 -0.4282,-0.18107 -0.64279,-0.27062 -0.32767,-0.14754 -0.65904,-0.2951 -0.92354,-0.54603 -0.28528,-0.29197 -0.4942,-0.62485 -0.50841,-1.04544 0.0236,-0.41177 0.15789,-0.77687 0.44415,-1.08219 0.19888,-0.21058 0.41365,-0.41 0.66222,-0.56122 0.0715,-0.0425 0.42583,-0.27254 0.50945,-0.2064 0.81606,0.64556 0.94794,0.54129 0.70945,1.06799 -0.15898,0.25233 -0.36222,0.47021 -0.56997,0.68338 -0.2291,0.2337 -0.46317,0.46352 -0.66669,0.72065 -0.18697,0.21695 -0.3655,0.44139 -0.53778,0.67013 -0.14988,0.19307 -0.28566,0.39635 -0.43186,0.59219 -0.16435,0.20816 -0.34924,0.40613 -0.60571,0.49831 -0.54317,0.0791 -0.83331,-0.0478 -1.05136,-0.55686 -0.1088,-0.30585 -0.16267,-0.62302 -0.19965,-0.94504 -0.0485,-0.34202 -0.10212,-0.68361 -0.18113,-1.02014 -0.0591,-0.24846 -0.12036,-0.49633 -0.17822,-0.74503 -0.77878,-2.72574 0.50615,-3.09287 1.28494,-0.36712 z"
       inkscape:connector-curvature="0" />
    <path
       style="opacity:1;fill:#000000;fill-opacity:1;fill-rule:nonzero;stroke:#000000;stroke-width:0.1;stroke-linecap:round;stroke-linejoin:round;stroke-miterlimit:4;stroke-dasharray:none;stroke-dashoffset:0;stroke-opacity:1;paint-order:markers fill stroke"
       id="path7451"
       d="m 47.902016,184.53887 c 0.149942,-0.18799 0.291499,-0.38226 0.430866,-0.57828 0.139998,-0.21794 0.290425,-0.4288 0.438131,-0.64151 1.617668,-2.32796 2.715075,-1.56538 1.097407,0.76257 v 0 c -0.150844,0.21694 -0.303628,0.43249 -0.447199,0.6544 -0.159319,0.22319 -0.321373,0.44414 -0.492596,0.65833 -1.814809,2.17777 -2.841418,1.32226 -1.026609,-0.85551 z"
       inkscape:connector-curvature="0" />
    <path
       style="opacity:1;fill:#000000;fill-opacity:1;fill-rule:nonzero;stroke:#000000;stroke-width:0.1;stroke-linecap:round;stroke-linejoin:round;stroke-miterlimit:4;stroke-dasharray:none;stroke-dashoffset:0;stroke-opacity:1;paint-order:markers fill stroke"
       id="path7453"
       d="m 53.288242,179.15667 c 0.03234,-0.0291 0.06468,-0.0581 0.09702,-0.0872 2.127853,-1.87309 3.010834,-0.87001 0.882981,1.00308 v 0 c -0.0117,0.01 -0.02336,0.0194 -0.03506,0.0291 -2.004523,2.00453 -2.949463,1.05959 -0.94494,-0.94494 z"
       inkscape:connector-curvature="0" />
    <path
       style="opacity:1;fill:#000000;fill-opacity:1;fill-rule:nonzero;stroke:#000000;stroke-width:0.1;stroke-linecap:round;stroke-linejoin:round;stroke-miterlimit:4;stroke-dasharray:none;stroke-dashoffset:0;stroke-opacity:1;paint-order:markers fill stroke"
       id="path7455"
       d="m 59.277913,175.07205 c 0.248471,-0.14881 0.507241,-0.28034 0.765331,-0.41164 0.279054,-0.13951 0.566243,-0.26133 0.848757,-0.39331 2.569999,-1.19638 3.133977,0.0151 0.563978,1.21151 v 0 c -0.268978,0.12485 -0.541565,0.24169 -0.807471,0.37322 -0.211521,0.10728 -0.422061,0.21691 -0.629325,0.33213 -2.358713,1.57248 -3.099985,0.46057 -0.74127,-1.11191 z"
       inkscape:connector-curvature="0" />
    <path
       style="opacity:1;fill:#000000;fill-opacity:1;fill-rule:nonzero;stroke:#000000;stroke-width:0.1;stroke-linecap:round;stroke-linejoin:round;stroke-miterlimit:4;stroke-dasharray:none;stroke-dashoffset:0;stroke-opacity:1;paint-order:markers fill stroke"
       id="path7457"
       d="m 68.114586,171.51577 c 0.165566,-0.0232 0.331973,-0.0393 0.498351,-0.0553 2.821988,-0.26944 2.949001,1.06086 0.127013,1.3303 v 0 c -0.145677,0.0139 -0.291385,0.0279 -0.436374,0.0479 -2.806332,0.4009 -2.995319,-0.92202 -0.18899,-1.32292 z"
       inkscape:connector-curvature="0" />
    <path
       style="opacity:1;fill:#000000;fill-opacity:1;fill-rule:nonzero;stroke:#000000;stroke-width:0.1;stroke-linecap:round;stroke-linejoin:round;stroke-miterlimit:4;stroke-dasharray:none;stroke-dashoffset:0;stroke-opacity:1;paint-order:markers fill stroke"
       id="path7459"
       d="m 76.494435,169.64607 c 0.205473,0 0.410948,0 0.616421,0 2.83482,0 2.83482,1.33635 0,1.33635 v 0 c -0.205473,0 -0.410948,0 -0.616421,0 -2.83482,0 -2.83482,-1.33635 0,-1.33635 z"
       inkscape:connector-curvature="0" />
    <path
       style="opacity:1;fill:#000000;fill-opacity:1;fill-rule:nonzero;stroke:#000000;stroke-width:0.1;stroke-linecap:round;stroke-linejoin:round;stroke-miterlimit:4;stroke-dasharray:none;stroke-dashoffset:0;stroke-opacity:1;paint-order:markers fill stroke"
       id="path7461"
       d="m 85.141556,169.92797 c 0.256018,0.0246 0.508949,0.0682 0.762124,0.11255 2.792201,0.48972 2.561347,1.80597 -0.230854,1.31625 v 0 c -0.239369,-0.042 -0.478097,-0.0831 -0.72026,-0.10589 -2.806329,-0.4009 -2.617343,-1.72382 0.18899,-1.32291 z"
       inkscape:connector-curvature="0" />
    <path
       style="opacity:1;fill:#000000;fill-opacity:1;fill-rule:nonzero;stroke:#000000;stroke-width:0.1;stroke-linecap:round;stroke-linejoin:round;stroke-miterlimit:4;stroke-dasharray:none;stroke-dashoffset:0;stroke-opacity:1;paint-order:markers fill stroke"
       id="path7483"
       d="m 177.03403,178.35487 c 0.0517,-0.0624 0.0192,-0.0236 0.0985,-0.11555 1.85287,-2.14549 2.86426,-1.27204 1.0114,0.87345 v 0 c -0.10621,0.12292 -0.0513,0.0605 -0.16499,0.18703 -2.00452,2.00453 -2.94946,1.05959 -0.94494,-0.94493 z"
       inkscape:connector-curvature="0" />
    <path
       style="opacity:1;fill:#000000;fill-opacity:1;fill-rule:nonzero;stroke:#000000;stroke-width:0.1;stroke-linecap:round;stroke-linejoin:round;stroke-miterlimit:4;stroke-dasharray:none;stroke-dashoffset:0;stroke-opacity:1;paint-order:markers fill stroke"
       id="path7485"
       d="m 181.84488,174.34582 c 0.11705,-0.1052 0.0657,-0.057 0.15517,-0.14325 2.05329,-1.95454 2.97466,-0.98661 0.92138,0.96793 v 0 c -0.10758,0.10162 -0.0625,0.0629 -0.13161,0.12026 -2.00452,2.00452 -2.94946,1.05958 -0.94494,-0.94494 z"
       inkscape:connector-curvature="0" />
    <path
       style="opacity:1;fill:#000000;fill-opacity:1;fill-rule:nonzero;stroke:#000000;stroke-width:0.1;stroke-linecap:round;stroke-linejoin:round;stroke-miterlimit:4;stroke-dasharray:none;stroke-dashoffset:0;stroke-opacity:1;paint-order:markers fill stroke"
       id="path7487"
       d="m 188.97545,169.96016 c 0.2237,-0.11788 0.44948,-0.23263 0.67801,-0.34108 0.21717,-0.094 0.10679,-0.0485 0.33122,-0.1362 2.64292,-1.02529 3.12624,0.2206 0.48333,1.24588 v 0 c -0.16529,0.0635 -0.0841,0.0306 -0.24363,0.0986 -0.21999,0.10337 -0.43641,0.21465 -0.6513,0.32809 -2.53554,1.26777 -3.13317,0.0725 -0.59763,-1.19527 z"
       inkscape:connector-curvature="0" />
    <path
       style="opacity:1;fill:#000000;fill-opacity:1;fill-rule:nonzero;stroke:#000000;stroke-width:0.1;stroke-linecap:round;stroke-linejoin:round;stroke-miterlimit:4;stroke-dasharray:none;stroke-dashoffset:0;stroke-opacity:1;paint-order:markers fill stroke"
       id="path7489"
       d="m 203.79844,166.44873 c 0.14644,-0.0384 0.0694,-0.0191 0.23112,-0.0574 2.75923,-0.65028 3.06577,0.65044 0.30654,1.30072 v 0 c -0.12126,0.0283 -0.0645,0.0143 -0.17054,0.0416 -2.72575,0.77879 -3.09287,-0.50614 -0.36712,-1.28493 z"
       inkscape:connector-curvature="0" />
    <path
       style="opacity:1;fill:#000000;fill-opacity:1;fill-rule:nonzero;stroke:#000000;stroke-width:0.1;stroke-linecap:round;stroke-linejoin:round;stroke-miterlimit:4;stroke-dasharray:none;stroke-dashoffset:0;stroke-opacity:1;paint-order:markers fill stroke"
       id="path7491"
       d="m 216.1819,167.23946 c 0.16557,-0.0232 0.33198,-0.0393 0.49835,-0.0553 2.82199,-0.26944 2.949,1.06086 0.12702,1.33029 v 0 c -0.14568,0.0139 -0.29139,0.0279 -0.43638,0.0479 -2.80633,0.40091 -2.99532,-0.92201 -0.18899,-1.32291 z"
       inkscape:connector-curvature="0" />
    <path
       style="opacity:1;fill:#000000;fill-opacity:1;fill-rule:nonzero;stroke:#000000;stroke-width:0.1;stroke-linecap:round;stroke-linejoin:round;stroke-miterlimit:4;stroke-dasharray:none;stroke-dashoffset:0;stroke-opacity:1;paint-order:markers fill stroke"
       id="path7493"
       d="m 222.93338,169.97961 c 0.29475,0.10316 0.58512,0.21866 0.87333,0.33878 0.2644,0.11989 0.13154,0.057 0.39845,0.18897 2.53912,1.2606 1.94487,2.45755 -0.59425,1.19696 v 0 c -0.21374,-0.10667 -0.10728,-0.0558 -0.31925,-0.15283 -0.27286,-0.11427 -0.54825,-0.22295 -0.8275,-0.32062 -2.65432,-0.99537 -2.1851,-2.24663 0.46922,-1.25126 z"
       inkscape:connector-curvature="0" />
    <path
       style="opacity:1;fill:#000000;fill-opacity:1;fill-rule:nonzero;stroke:#000000;stroke-width:0.1;stroke-linecap:round;stroke-linejoin:round;stroke-miterlimit:4;stroke-dasharray:none;stroke-dashoffset:0;stroke-opacity:1;paint-order:markers fill stroke"
       id="path7495"
       d="m 230.73259,175.08573 c 0.16222,0.0848 0.31351,0.18918 0.46306,0.29423 2.31189,1.64054 1.53853,2.73038 -0.77336,1.08983 v 0 c -0.0929,-0.0671 -0.18805,-0.13166 -0.28733,-0.1888 -2.53554,-1.26777 -1.93791,-2.46303 0.59763,-1.19526 z"
       inkscape:connector-curvature="0" />
    <path
       style="opacity:1;fill:#000000;fill-opacity:1;fill-rule:nonzero;stroke:#000000;stroke-width:0.1;stroke-linecap:round;stroke-linejoin:round;stroke-miterlimit:4;stroke-dasharray:none;stroke-dashoffset:0;stroke-opacity:1;paint-order:markers fill stroke"
       id="path7497"
       d="m 234.90738,178.70121 c 0.14278,0.14558 0.26179,0.3083 0.37387,0.47788 1.52222,2.39146 0.39488,3.10904 -1.12734,0.71759 v 0 c -0.0522,-0.0925 -0.12195,-0.17058 -0.19147,-0.25053 -2.00452,-2.00452 -1.05958,-2.94946 0.94494,-0.94494 z"
       inkscape:connector-curvature="0" />
    <path
       style="opacity:1;fill:#000000;fill-opacity:1;fill-rule:nonzero;stroke:#000000;stroke-width:0.1;stroke-linecap:round;stroke-linejoin:round;stroke-miterlimit:4;stroke-dasharray:none;stroke-dashoffset:0;stroke-opacity:1;paint-order:markers fill stroke"
       id="path7499"
       d="m 196.9385,168.04127 c 0.11702,-0.0165 0.23455,-0.0288 0.35204,-0.0413 2.81898,-0.2993 2.96007,1.02957 0.14109,1.32888 v 0 c -0.10149,0.0107 -0.20304,0.0212 -0.30415,0.0353 -2.80632,0.40091 -2.99531,-0.92201 -0.18898,-1.32291 z"
       inkscape:connector-curvature="0" />
    <path
       style="opacity:1;fill:#000000;fill-opacity:1;fill-rule:nonzero;stroke:#000000;stroke-width:0.1;stroke-linecap:round;stroke-linejoin:round;stroke-miterlimit:4;stroke-dasharray:none;stroke-dashoffset:0;stroke-opacity:1;paint-order:markers fill stroke"
       id="path7501"
       d="m 206.08733,154.71101 c -0.11296,-0.13243 -0.23647,-0.25917 -0.39634,-0.33316 -0.17024,-0.0765 -0.35147,-0.1302 -0.53909,-0.12808 -0.16314,0.0103 -0.31324,0.0458 -0.45125,0.13354 -0.10128,0.071 -0.17893,0.16434 -0.20495,0.28665 -0.0275,0.12522 -0.0221,0.23758 0.0231,0.35569 0.0476,0.12064 0.13886,0.18805 0.24316,0.25573 0.19197,0.0993 0.38966,0.18262 0.57261,0.2993 0.41471,0.32438 0.41971,0.79835 0.15275,1.21368 -0.12518,0.17404 -0.30247,0.29964 -0.44055,0.4617 -0.14962,0.14193 -0.25801,0.31152 -0.34998,0.49418 -0.0778,0.20285 -0.12067,0.4152 -0.13224,0.63167 -0.003,0.19374 0.0735,0.36432 0.16337,0.53073 0.11959,0.20822 0.29783,0.36524 0.48776,0.50704 0.24393,0.17033 0.514,0.298 0.79349,0.39766 0.26171,0.0974 0.52915,0.13992 0.80668,0.11651 0.1298,-0.005 0.25453,-0.0349 0.37869,-0.07 2.74266,-0.71694 3.08064,0.57596 0.33797,1.29291 v 0 c -0.20922,0.0524 -0.41877,0.1016 -0.63546,0.11097 -0.46133,0.0228 -0.91255,-0.0302 -1.34714,-0.19543 -0.4039,-0.15026 -0.79574,-0.33452 -1.1449,-0.59023 -0.34328,-0.26541 -0.65495,-0.56633 -0.86278,-0.95302 -0.19846,-0.38973 -0.33498,-0.79891 -0.31058,-1.243 0.0322,-0.39578 0.10844,-0.78623 0.27755,-1.14854 0.14622,-0.27942 0.31366,-0.54666 0.53937,-0.76994 0.11092,-0.12228 0.2277,-0.23979 0.35078,-0.34917 -0.11202,0.24282 -0.027,0.52575 0.19108,0.67228 -0.18744,-0.12042 -0.41793,-0.17679 -0.59737,-0.3163 -0.34294,-0.24863 -0.61921,-0.55075 -0.7533,-0.96159 -0.11311,-0.40251 -0.12974,-0.80378 0.003,-1.20626 0.16645,-0.41354 0.41505,-0.76082 0.80708,-0.99011 0.36064,-0.19278 0.74166,-0.30585 1.15434,-0.30198 0.39374,0.0221 0.77551,0.10682 1.1279,0.29063 0.26144,0.14956 0.50985,0.32398 0.70067,0.56101 2.00452,2.00452 1.05958,2.94946 -0.94494,0.94494 z"
       inkscape:connector-curvature="0" />
    <path
       style="opacity:1;fill:#000000;fill-opacity:1;fill-rule:nonzero;stroke:#000000;stroke-width:0.1;stroke-linecap:round;stroke-linejoin:round;stroke-miterlimit:4;stroke-dasharray:none;stroke-dashoffset:0;stroke-opacity:1;paint-order:markers fill stroke"
       id="path7503"
       d="m 73.711037,157.61894 c -0.216119,-0.0114 -0.428723,0.0192 -0.640821,0.056 -0.25002,0.046 -0.477173,0.15508 -0.688715,0.29241 -0.252796,0.16076 -0.454142,0.37896 -0.634791,0.6148 -0.154374,0.23447 -0.264467,0.49318 -0.329774,0.76559 -0.03763,0.23658 -0.03321,0.47745 0.02915,0.70887 0.04491,0.21671 0.146297,0.40187 0.288939,0.56791 0.172347,0.1712 0.377584,0.30176 0.558218,0.46423 0.341349,0.32506 0.380693,0.73866 0.196233,1.15656 -0.152358,0.26077 -0.383757,0.45888 -0.601797,0.66293 -0.182891,0.16879 -0.343869,0.35598 -0.472334,0.56909 -0.113726,0.1878 -0.169961,0.39485 -0.204391,0.60922 -0.01881,0.13833 0.01601,0.26313 0.08611,0.38101 0.09485,0.14061 0.235214,0.2361 0.376494,0.32481 0.224039,0.14246 0.47485,0.21406 0.72993,0.276 0.291822,0.064 0.583187,0.0564 0.875223,0.004 0.160605,-0.0228 0.314463,-0.0703 0.467222,-0.1226 2.691612,-0.88964 3.110987,0.3792 0.419378,1.26884 v 0 c -0.21981,0.071 -0.440327,0.13915 -0.669829,0.17241 -0.471311,0.0737 -0.943634,0.0846 -1.411539,-0.0255 -0.39873,-0.0992 -0.788273,-0.22721 -1.136518,-0.45172 -0.339011,-0.22308 -0.648817,-0.4827 -0.844312,-0.84642 -0.182221,-0.38142 -0.278572,-0.78055 -0.209627,-1.20509 0.06754,-0.38489 0.181018,-0.75673 0.387663,-1.09208 0.195947,-0.30897 0.423598,-0.59285 0.695047,-0.83964 0.08863,-0.0823 0.267988,-0.27055 0.322654,-0.2925 -0.03555,0.14603 -0.01897,0.35068 0.08937,0.43349 -0.217456,-0.21349 -0.505889,-0.3514 -0.689134,-0.60329 -0.261202,-0.3284 -0.464079,-0.68874 -0.553188,-1.10334 -0.09983,-0.4466 -0.121888,-0.90171 -0.02281,-1.35199 0.119917,-0.44654 0.295389,-0.87459 0.568555,-1.25139 0.279538,-0.35608 0.592222,-0.68347 0.978564,-0.92596 0.363038,-0.22414 0.748906,-0.40495 1.172969,-0.478 0.286967,-0.0492 0.575885,-0.0866 0.867852,-0.0754 2.834823,0 2.834823,1.33635 0,1.33635 z"
       inkscape:connector-curvature="0" />
    <path
       style="opacity:1;fill:#000000;fill-opacity:1;fill-rule:nonzero;stroke:#000000;stroke-width:0.1;stroke-linecap:round;stroke-linejoin:round;stroke-miterlimit:4;stroke-dasharray:none;stroke-dashoffset:0;stroke-opacity:1;paint-order:markers fill stroke"
       id="path7505"
       d="m 231.77572,194.04531 c 0.13427,0.23387 0.29099,0.45306 0.45198,0.66897 0.25562,0.3628 0.53429,0.70761 0.81426,1.05154 0.3242,0.40472 0.66677,0.79409 0.99889,1.19219 0.3342,0.39682 0.67558,0.78743 1.0137,1.18089 0.21402,0.26499 0.111,0.13129 0.3094,0.40084 1.67383,2.28791 0.5953,3.07696 -1.07853,0.78905 v 0 c -0.15183,-0.20923 -0.0707,-0.10257 -0.24456,-0.31911 -0.34224,-0.39855 -0.6881,-0.79396 -1.02641,-1.19589 -0.33523,-0.40234 -0.68171,-0.79531 -1.0089,-1.20437 -0.29211,-0.3589 -0.58267,-0.7189 -0.84979,-1.09715 -0.17438,-0.23456 -0.34661,-0.47162 -0.49195,-0.72569 -1.57247,-2.35871 -0.46056,-3.09998 1.11191,-0.74127 z"
       inkscape:connector-curvature="0" />
    <path
       style="opacity:1;fill:#000000;fill-opacity:1;fill-rule:nonzero;stroke:#000000;stroke-width:0.1;stroke-linecap:round;stroke-linejoin:round;stroke-miterlimit:4;stroke-dasharray:none;stroke-dashoffset:0;stroke-opacity:1;paint-order:markers fill stroke"
       id="path7507"
       d="m 235.77109,193.37842 c -0.14901,0.25863 -0.30455,0.51322 -0.45341,0.77216 -0.24519,0.41663 -0.50775,0.82257 -0.75646,1.2371 -0.30895,0.5092 -0.63353,1.00861 -0.94941,1.51353 -0.33335,0.52479 -0.66254,1.05239 -1.01342,1.56573 -0.0546,0.0802 -0.10922,0.16038 -0.16383,0.24057 -1.59564,2.34311 -2.70019,1.59092 -1.10455,-0.75219 v 0 c 0.0552,-0.0811 0.11042,-0.16214 0.16563,-0.24321 0.34121,-0.49771 0.65907,-1.01084 0.98327,-1.51968 0.31152,-0.49793 0.63149,-0.9905 0.9365,-1.49246 0.24454,-0.40729 0.50183,-0.80667 0.74378,-1.21551 0.13595,-0.23641 0.27466,-0.47098 0.41664,-0.70367 1.26777,-2.53555 2.46303,-1.93791 1.19526,0.59763 z"
       inkscape:connector-curvature="0" />
    <path
       style="opacity:1;fill:#000000;fill-opacity:1;fill-rule:nonzero;stroke:#000000;stroke-width:0.1;stroke-linecap:round;stroke-linejoin:round;stroke-miterlimit:4;stroke-dasharray:none;stroke-dashoffset:0;stroke-opacity:1;paint-order:markers fill stroke"
       id="path7511"
       d="m 240.40894,199.23471 c 0,0.26447 0,0.52894 0,0.7934 0,0.38576 0,0.77153 0,1.15729 -0.002,0.41758 -0.004,0.83461 0.0185,1.25163 0.0102,0.31788 0.0454,0.63315 0.11003,0.94441 0.0726,0.2868 -0.001,-0.0982 -0.12367,-0.10304 -0.32458,-0.0128 -0.64474,0.0799 -0.9671,0.11981 -0.043,0.005 -0.0244,-0.18498 -0.0263,-0.25356 -0.0186,-0.32751 -0.001,-0.65536 0.0334,-0.98113 0.0398,-0.4036 0.15636,-0.79223 0.31178,-1.16498 0.1798,-0.40402 0.47199,-0.72614 0.80705,-1.0067 0.32757,-0.27187 0.71052,-0.3973 1.12854,-0.4323 0.38542,-0.0242 0.72727,0.12116 1.05201,0.31072 0.31628,0.19647 0.53883,0.49165 0.74638,0.7934 0.17886,0.28141 0.34646,0.57014 0.54168,0.8407 0.14678,0.21291 0.33997,0.35585 0.57087,0.46347 0.15765,0.0674 0.31351,0.0901 0.48065,0.0583 0.18131,-0.0456 0.32863,-0.15931 0.47258,-0.27271 0.11648,-0.10476 0.0652,-0.0518 0.15619,-0.15648 1.93134,-2.07513 2.90956,-1.16469 0.97823,0.91044 v 0 c -0.20667,0.21578 -0.10108,0.11561 -0.3154,0.30199 -0.33457,0.25694 -0.69368,0.47405 -1.11782,0.54176 -0.43185,0.0484 -0.84816,0.003 -1.24552,-0.18475 -0.42228,-0.21398 -0.79311,-0.49134 -1.0667,-0.88454 -0.19896,-0.27993 -0.37877,-0.57223 -0.55849,-0.86475 -0.0964,-0.14278 -0.1921,-0.29344 -0.3295,-0.40046 -0.0833,-0.0531 -0.1693,-0.11585 -0.26955,-0.12413 -0.14463,0.006 -0.26082,0.0297 -0.37571,0.13184 -0.17393,0.13776 -0.32857,0.29653 -0.42632,0.49862 -0.11091,0.24959 -0.18385,0.51551 -0.2127,0.78742 -0.0312,0.26443 -0.0404,0.53127 -0.0259,0.7972 0.009,0.31671 0.0155,0.636 -0.13409,0.92641 -1.10611,0.29354 -1.1636,0.52824 -1.39391,-0.38469 -0.0761,-0.37588 -0.12262,-0.75615 -0.13517,-1.13973 -0.0238,-0.44119 -0.0235,-0.88237 -0.0205,-1.32413 0,-0.38576 0,-0.77153 0,-1.15729 0,-0.26446 0,-0.52893 0,-0.7934 0,-2.83482 1.33634,-2.83482 1.33634,0 z"
       inkscape:connector-curvature="0" />
    <path
       style="opacity:1;fill:#000000;fill-opacity:1;fill-rule:nonzero;stroke:#000000;stroke-width:0.1;stroke-linecap:round;stroke-linejoin:round;stroke-miterlimit:4;stroke-dasharray:none;stroke-dashoffset:0;stroke-opacity:1;paint-order:markers fill stroke"
       id="path7537"
       d="m 95.743262,179.46075 c 0.02344,-0.0276 0.04688,-0.0552 0.07031,-0.0828 1.836343,-2.15964 2.85441,-1.29397 1.018064,0.86567 v 0 c -0.02059,0.0242 -0.04118,0.0484 -0.06177,0.0726 -1.814809,2.17777 -2.841418,1.32226 -1.026609,-0.85551 z"
       inkscape:connector-curvature="0" />
    <path
       style="opacity:1;fill:#000000;fill-opacity:1;fill-rule:nonzero;stroke:#000000;stroke-width:0.1;stroke-linecap:round;stroke-linejoin:round;stroke-miterlimit:4;stroke-dasharray:none;stroke-dashoffset:0;stroke-opacity:1;paint-order:markers fill stroke"
       id="path7539"
       d="m 100.64757,174.57226 c 0.236,-0.18759 0.49141,-0.34807 0.74471,-0.5108 0.0532,-0.0318 0.1064,-0.0636 0.1596,-0.0953 2.43662,-1.44884 3.1196,-0.30021 0.68299,1.14863 v 0 c -0.0403,0.0238 -0.0806,0.0476 -0.12092,0.0715 -0.20694,0.1326 -0.41559,0.26312 -0.61087,0.41267 -2.17777,1.8148 -3.033279,0.7882 -0.85551,-1.02661 z"
       inkscape:connector-curvature="0" />
    <path
       style="opacity:1;fill:#000000;fill-opacity:1;fill-rule:nonzero;stroke:#000000;stroke-width:0.1;stroke-linecap:round;stroke-linejoin:round;stroke-miterlimit:4;stroke-dasharray:none;stroke-dashoffset:0;stroke-opacity:1;paint-order:markers fill stroke"
       id="path7541"
       d="m 108.18823,171.33028 c 0.20375,-0.12858 0.42467,-0.22705 0.64297,-0.32789 2.57448,-1.18671 3.1339,0.0269 0.55943,1.21362 v 0 c -0.15544,0.0715 -0.31235,0.14154 -0.46112,0.22618 -2.35872,1.57248 -3.09999,0.46057 -0.74128,-1.11191 z"
       inkscape:connector-curvature="0" />
    <path
       style="opacity:1;fill:#000000;fill-opacity:1;fill-rule:nonzero;stroke:#000000;stroke-width:0.1;stroke-linecap:round;stroke-linejoin:round;stroke-miterlimit:4;stroke-dasharray:none;stroke-dashoffset:0;stroke-opacity:1;paint-order:markers fill stroke"
       id="path7543"
       d="m 115.33223,169.12143 c 0.22566,-0.063 0.45627,-0.10506 0.68691,-0.14483 2.79394,-0.47969 3.02007,0.83739 0.22613,1.31708 v 0 c -0.18318,0.0313 -0.36645,0.0638 -0.54592,0.11268 -2.72575,0.77879 -3.09288,-0.50615 -0.36712,-1.28493 z"
       inkscape:connector-curvature="0" />
    <path
       style="opacity:1;fill:#000000;fill-opacity:1;fill-rule:nonzero;stroke:#000000;stroke-width:0.1;stroke-linecap:round;stroke-linejoin:round;stroke-miterlimit:4;stroke-dasharray:none;stroke-dashoffset:0;stroke-opacity:1;paint-order:markers fill stroke"
       id="path7545"
       d="m 122.46479,168.577 c 0.1626,-0.0256 0.32776,-0.0402 0.49181,-0.0563 2.82132,-0.27633 2.95158,1.05366 0.13026,1.32998 v 0 c -0.20745,0.0203 -0.41416,0.0477 -0.62207,0.0627 -2.83482,0 -2.83482,-1.33634 0,-1.33634 z"
       inkscape:connector-curvature="0" />
    <path
       style="opacity:1;fill:#000000;fill-opacity:1;fill-rule:nonzero;stroke:#000000;stroke-width:0.1;stroke-linecap:round;stroke-linejoin:round;stroke-miterlimit:4;stroke-dasharray:none;stroke-dashoffset:0;stroke-opacity:1;paint-order:markers fill stroke"
       id="path7547"
       d="m 128.61199,168.84427 c 0.1648,0.01 0.32847,0.0324 0.49256,0.05 2.8186,0.30285 2.67583,1.63155 -0.14277,1.3287 v 0 c -0.11655,-0.0125 -0.23442,-0.0227 -0.34979,-0.0424 -2.83482,0 -2.83482,-1.33634 0,-1.33634 z"
       inkscape:connector-curvature="0" />
    <path
       style="opacity:1;fill:#000000;fill-opacity:1;fill-rule:nonzero;stroke:#000000;stroke-width:0.1;stroke-linecap:round;stroke-linejoin:round;stroke-miterlimit:4;stroke-dasharray:none;stroke-dashoffset:0;stroke-opacity:1;paint-order:markers fill stroke"
       id="path7549"
       d="m 134.24829,170.54215 c 0.16227,0.0685 0.32469,0.13645 0.48958,0.19846 2.65155,1.00274 2.17885,2.25269 -0.4727,1.24995 v 0 c -0.2071,-0.0787 -0.41243,-0.16237 -0.61451,-0.25315 -2.53554,-1.26777 -1.93791,-2.46304 0.59763,-1.19526 z"
       inkscape:connector-curvature="0" />
    <path
       style="opacity:1;fill:#000000;fill-opacity:1;fill-rule:nonzero;stroke:#000000;stroke-width:0.1;stroke-linecap:round;stroke-linejoin:round;stroke-miterlimit:4;stroke-dasharray:none;stroke-dashoffset:0;stroke-opacity:1;paint-order:markers fill stroke"
       id="path7551"
       d="m 141.00185,173.26443 c 0.1014,0.0749 0.20091,0.15156 0.29919,0.23049 2.2027,1.78446 1.3615,2.82283 -0.8412,1.03836 v 0 c -0.0654,-0.0538 -0.13398,-0.10312 -0.19926,-0.15695 -2.35872,-1.57247 -1.61744,-2.68438 0.74127,-1.1119 z"
       inkscape:connector-curvature="0" />
    <path
       style="opacity:1;fill:#000000;fill-opacity:1;fill-rule:nonzero;stroke:#000000;stroke-width:0.1;stroke-linecap:round;stroke-linejoin:round;stroke-miterlimit:4;stroke-dasharray:none;stroke-dashoffset:0;stroke-opacity:1;paint-order:markers fill stroke"
       id="path7553"
       d="m 144.67963,177.81369 c 0.0401,0.0721 0.0879,0.13957 0.13234,0.20912 1.52725,2.38824 0.40142,3.1082 -1.12583,0.71995 v 0 c -0.0696,-0.10896 -0.14371,-0.2156 -0.20178,-0.33144 -1.26777,-2.53554 -0.0725,-3.13317 1.19527,-0.59763 z"
       inkscape:connector-curvature="0" />
    <path
       style="opacity:1;fill:#000000;fill-opacity:1;fill-rule:nonzero;stroke:#000000;stroke-width:0.1;stroke-linecap:round;stroke-linejoin:round;stroke-miterlimit:4;stroke-dasharray:none;stroke-dashoffset:0;stroke-opacity:1;paint-order:markers fill stroke"
       id="path7555"
       d="m 147.90165,177.82033 c 0.11863,-0.1354 0.24433,-0.26454 0.36499,-0.3982 1.90375,-2.10046 2.89392,-1.20302 0.99016,0.89744 v 0 c -0.13584,0.14942 -0.27532,0.29541 -0.41021,0.4457 -2.00452,2.00452 -2.94946,1.05958 -0.94494,-0.94494 z"
       inkscape:connector-curvature="0" />
    <path
       style="opacity:1;fill:#000000;fill-opacity:1;fill-rule:nonzero;stroke:#000000;stroke-width:0.1;stroke-linecap:round;stroke-linejoin:round;stroke-miterlimit:4;stroke-dasharray:none;stroke-dashoffset:0;stroke-opacity:1;paint-order:markers fill stroke"
       id="path7569"
       d="m 152.55498,174.53752 c 0.0957,-0.0557 0.18647,-0.11878 0.27949,-0.17871 2.38433,-1.53336 3.10716,-0.40938 0.72284,1.12399 v 0 c -0.0869,0.0557 -0.17157,0.11516 -0.26106,0.16662 -2.35872,1.57248 -3.09999,0.46057 -0.74127,-1.1119 z"
       inkscape:connector-curvature="0" />
    <path
       style="opacity:1;fill:#000000;fill-opacity:1;fill-rule:nonzero;stroke:#000000;stroke-width:0.1;stroke-linecap:round;stroke-linejoin:round;stroke-miterlimit:4;stroke-dasharray:none;stroke-dashoffset:0;stroke-opacity:1;paint-order:markers fill stroke"
       id="path7571"
       d="m 158.16764,171.59755 c 0.14431,-0.0862 0.29113,-0.16819 0.43739,-0.25118 2.46617,-1.39792 3.12516,-0.23536 0.65898,1.16257 v 0 c -0.11832,0.067 -0.23581,0.13536 -0.3551,0.20052 -2.35872,1.57247 -3.09999,0.46057 -0.74127,-1.11191 z"
       inkscape:connector-curvature="0" />
    <path
       style="opacity:1;fill:#000000;fill-opacity:1;fill-rule:nonzero;stroke:#000000;stroke-width:0.1;stroke-linecap:round;stroke-linejoin:round;stroke-miterlimit:4;stroke-dasharray:none;stroke-dashoffset:0;stroke-opacity:1;paint-order:markers fill stroke"
       id="path7581"
       d="m 164.11939,170.22743 c 0.25471,-0.11519 0.51449,-0.21852 0.77865,-0.30997 0.17561,-0.0596 0.35524,-0.10557 0.53477,-0.15143 2.74742,-0.69853 3.07671,0.59662 0.32929,1.29514 v 0 c -0.14399,0.0364 -0.28812,0.0727 -0.42908,0.11987 -0.20897,0.0714 -0.41324,0.15432 -0.616,0.24166 -2.53554,1.26777 -3.13318,0.0725 -0.59763,-1.19527 z"
       inkscape:connector-curvature="0" />
    <path
       style="opacity:1;fill:#000000;fill-opacity:1;fill-rule:nonzero;stroke:#000000;stroke-width:0.1;stroke-linecap:round;stroke-linejoin:round;stroke-miterlimit:4;stroke-dasharray:none;stroke-dashoffset:0;stroke-opacity:1;paint-order:markers fill stroke"
       id="path7589"
       d="m 171.37512,170.18061 c 0.27675,-0.007 0.55255,0.022 0.82602,0.0614 2.80395,0.41725 2.60725,1.73905 -0.19669,1.32179 v 0 c -0.20804,-0.0326 -0.41859,-0.0526 -0.62933,-0.0468 -2.83482,0 -2.83482,-1.33635 0,-1.33635 z"
       inkscape:connector-curvature="0" />
    <path
       style="opacity:1;fill:#000000;fill-opacity:1;fill-rule:nonzero;stroke:#000000;stroke-width:0.1;stroke-linecap:round;stroke-linejoin:round;stroke-miterlimit:4;stroke-dasharray:none;stroke-dashoffset:0;stroke-opacity:1;paint-order:markers fill stroke"
       id="path7591"
       d="m 177.88408,170.99704 c 0.283,0.0354 0.55816,0.11541 0.82786,0.20574 0.0488,0.0172 0.0976,0.0343 0.14637,0.0515 2.67411,0.94093 2.23055,2.20151 -0.44356,1.26059 v 0 c -0.0448,-0.0158 -0.0897,-0.0316 -0.13457,-0.0474 -0.18955,-0.0668 -0.3854,-0.12219 -0.58509,-0.14749 -2.80633,-0.4009 -2.61734,-1.72382 0.18899,-1.32292 z"
       inkscape:connector-curvature="0" />
    <path
       style="opacity:1;fill:#000000;fill-opacity:1;fill-rule:nonzero;stroke:#000000;stroke-width:0.1;stroke-linecap:round;stroke-linejoin:round;stroke-miterlimit:4;stroke-dasharray:none;stroke-dashoffset:0;stroke-opacity:1;paint-order:markers fill stroke"
       id="path7601"
       d="m 186.5316,175.76124 c 0.19524,0.1716 0.37001,0.36695 0.53451,0.56786 0.0358,0.0493 0.0715,0.0986 0.10728,0.14794 1.64925,2.30568 0.56234,3.08315 -1.08691,0.77746 v 0 c -0.0197,-0.0282 -0.0393,-0.0563 -0.059,-0.0845 -0.13271,-0.16709 -0.28082,-0.32265 -0.44082,-0.4638 -2.00453,-2.00452 -1.05959,-2.94946 0.94494,-0.94494 z"
       inkscape:connector-curvature="0" />
    <path
       style="opacity:1;fill:#000000;fill-opacity:1;fill-rule:nonzero;stroke:#000000;stroke-width:0.1;stroke-linecap:round;stroke-linejoin:round;stroke-miterlimit:4;stroke-dasharray:none;stroke-dashoffset:0;stroke-opacity:1;paint-order:markers fill stroke"
       id="path7603"
       d="m 121.72506,157.87159 c -0.19163,-0.0299 -0.38684,-0.0334 -0.57994,-0.0173 -0.22113,0.0155 -0.43786,0.0742 -0.63872,0.16714 -0.11635,0.0667 -0.2404,0.14269 -0.29378,0.26772 -0.007,0.0523 0.0225,0.10625 0.047,0.15155 0.0487,0.15489 0.14674,0.26958 0.26708,0.37339 0.16563,0.1 0.34717,0.16984 0.53325,0.22061 0.30336,0.0597 0.59045,0.16325 0.85391,0.32431 0.39411,0.27328 0.47677,0.70313 0.32516,1.13766 -0.10694,0.25221 -0.28683,0.46225 -0.4652,0.66662 -0.15153,0.17718 -0.29805,0.35946 -0.41854,0.55941 -0.0987,0.15274 -0.12627,0.31766 -0.13631,0.49431 -0.004,0.18895 0.0423,0.36343 0.11804,0.53459 0.0963,0.21978 0.25451,0.39454 0.4314,0.55212 0.19275,0.1622 0.41349,0.28539 0.65225,0.36444 0.23676,0.076 0.48511,0.0985 0.73245,0.0885 0.13546,-0.018 0.0695,-0.006 0.19805,-0.0359 2.77762,-0.56659 3.04472,0.74279 0.2671,1.30938 v 0 c -0.28681,0.0547 -0.14297,0.034 -0.43149,0.0625 -0.41231,0.007 -0.82406,-0.0303 -1.21645,-0.16626 -0.40238,-0.14928 -0.78162,-0.34863 -1.10394,-0.63664 -0.31732,-0.29472 -0.59534,-0.62446 -0.76466,-1.02832 -0.14581,-0.36526 -0.23761,-0.74155 -0.21579,-1.13826 0.0305,-0.392 0.12183,-0.76658 0.33305,-1.10374 0.16424,-0.26142 0.349,-0.50854 0.55301,-0.74049 0.066,-0.0732 0.15912,-0.20202 0.21217,-0.24175 0.003,0.0871 0.0326,0.35279 0.20454,0.44436 -0.13507,-0.10836 -0.344,-0.10669 -0.50082,-0.1633 -0.38167,-0.1141 -0.75536,-0.26293 -1.06544,-0.52016 -0.27323,-0.25766 -0.50213,-0.549 -0.62223,-0.91044 -0.13807,-0.42492 -0.16133,-0.84937 0.0503,-1.25825 0.22619,-0.36742 0.52664,-0.65124 0.92267,-0.83328 0.34475,-0.14561 0.70533,-0.25318 1.08126,-0.27505 0.28667,-0.0172 0.57518,-0.0184 0.85961,0.0276 2.80632,0.4009 2.61734,1.72382 -0.18899,1.32291 z"
       inkscape:connector-curvature="0" />
    <path
       style="opacity:1;fill:#000000;fill-opacity:1;fill-rule:nonzero;stroke:#000000;stroke-width:0.1;stroke-linecap:round;stroke-linejoin:round;stroke-miterlimit:4;stroke-dasharray:none;stroke-dashoffset:0;stroke-opacity:1;paint-order:markers fill stroke"
       id="path7605"
       d="m 165.65175,159.22256 c -0.20603,0.006 -0.41326,0.029 -0.61714,0.0603 -0.23543,0.0246 -0.45342,0.10044 -0.65357,0.22462 -0.14463,0.0919 -0.24694,0.21083 -0.31565,0.36575 -0.05,0.12074 -0.0802,0.24921 -0.0517,0.37832 0.0347,0.13565 0.09,0.25051 0.18211,0.35523 0.11696,0.12823 0.27517,0.19633 0.4267,0.27333 0.38184,0.171 0.58254,0.44549 0.66411,0.85183 0.0164,0.35232 -0.17044,0.6139 -0.39501,0.86085 -0.16439,0.15633 -0.31226,0.32787 -0.44892,0.50864 -0.12903,0.16189 -0.19981,0.33522 -0.2146,0.53958 -0.004,0.18516 0.0633,0.35392 0.15257,0.51251 0.0996,0.17333 0.25975,0.2774 0.42735,0.37657 0.2391,0.14257 0.50974,0.20468 0.77798,0.26645 0.29341,0.0549 0.59075,0.0783 0.88876,0.0637 0.19741,-0.0141 0.10326,-0.004 0.28262,-0.0291 2.81067,-0.36927 2.98475,0.95569 0.17408,1.32496 v 0 c -0.27417,0.0344 -0.13955,0.0215 -0.40376,0.0395 -0.41737,0.0141 -0.83421,-0.0118 -1.24397,-0.0972 -0.40678,-0.0951 -0.81154,-0.20674 -1.17128,-0.42711 -0.37189,-0.23048 -0.70503,-0.50461 -0.91553,-0.89749 -0.20517,-0.40444 -0.33734,-0.8304 -0.29586,-1.29011 0.0597,-0.43857 0.20113,-0.84216 0.4794,-1.19294 0.16128,-0.2099 0.3299,-0.41505 0.52271,-0.59714 0.15783,-0.17339 0.0179,0.0264 0.0501,0.12753 0.0686,0.24018 0.3384,0.43447 0.0637,0.25037 -0.32437,-0.16498 -0.63737,-0.34793 -0.86977,-0.63627 -0.23509,-0.30831 -0.40305,-0.64578 -0.4613,-1.0332 -0.0351,-0.39286 0.0115,-0.77362 0.18714,-1.13199 0.19865,-0.37663 0.46253,-0.69347 0.83207,-0.91519 0.35299,-0.2015 0.7278,-0.34879 1.13507,-0.39397 0.26864,-0.0384 0.54013,-0.0706 0.81162,-0.0745 2.83482,0 2.83482,1.33634 0,1.33634 z"
       inkscape:connector-curvature="0" />
    <path
       style="opacity:1;fill:#000000;fill-opacity:1;fill-rule:nonzero;stroke:#000000;stroke-width:0.1;stroke-linecap:round;stroke-linejoin:round;stroke-miterlimit:4;stroke-dasharray:none;stroke-dashoffset:0;stroke-opacity:1;paint-order:markers fill stroke"
       id="path7611"
       d="m 92.626065,172.19535 c 0.246303,0.1398 0.473371,0.30961 0.706168,0.47005 0.285271,0.19501 0.55508,0.40545 0.801854,0.6473 2.003033,2.00601 1.057391,2.95024 -0.945642,0.94424 v 0 c -0.182766,-0.19104 -0.402,-0.33683 -0.615162,-0.49162 -0.226835,-0.15668 -0.448699,-0.32111 -0.688488,-0.45806 -2.358715,-1.57248 -1.617443,-2.68439 0.74127,-1.11191 z"
       inkscape:connector-curvature="0" />
    <path
       style="opacity:1;fill:#000000;fill-opacity:1;fill-rule:nonzero;stroke:#000000;stroke-width:0.1;stroke-linecap:round;stroke-linejoin:round;stroke-miterlimit:4;stroke-dasharray:none;stroke-dashoffset:0;stroke-opacity:1;paint-order:markers fill stroke"
       id="path7613"
       d="m 100.47081,179.23575 c 0.22254,0.228 0.39778,0.49176 0.55348,0.76817 0.0931,0.16979 0.1649,0.34942 0.2364,0.52892 1.04213,2.63632 -0.20064,3.12758 -1.24277,0.49126 v 0 c -0.04902,-0.12533 -0.09784,-0.25094 -0.161144,-0.37001 -0.093,-0.17011 -0.197218,-0.33178 -0.330907,-0.4734 -2.004523,-2.00452 -1.059582,-2.94946 0.944941,-0.94494 z"
       inkscape:connector-curvature="0" />
  </g>
</svg>
