<?xml version="1.0" encoding="UTF-8" standalone="no"?>
<!-- Created with Inkscape (http://www.inkscape.org/) -->

<svg
   xmlns:dc="http://purl.org/dc/elements/1.1/"
   xmlns:cc="http://creativecommons.org/ns#"
   xmlns:rdf="http://www.w3.org/1999/02/22-rdf-syntax-ns#"
   xmlns:svg="http://www.w3.org/2000/svg"
   xmlns="http://www.w3.org/2000/svg"
   xmlns:sodipodi="http://sodipodi.sourceforge.net/DTD/sodipodi-0.dtd"
   xmlns:inkscape="http://www.inkscape.org/namespaces/inkscape"
   width="297mm"
   height="210mm"
   viewBox="0 0 297 210"
   version="1.1"
   id="svg6864"
   inkscape:version="0.92.1 r15371"
   sodipodi:docname="infty-far-from-a.svg">
  <defs
     id="defs6858" />
  <sodipodi:namedview
     id="base"
     pagecolor="#ffffff"
     bordercolor="#666666"
     borderopacity="1.0"
     inkscape:pageopacity="0.0"
     inkscape:pageshadow="2"
     inkscape:zoom="1.4"
     inkscape:cx="655.60354"
     inkscape:cy="405.7125"
     inkscape:document-units="mm"
     inkscape:current-layer="layer1"
     showgrid="false"
     inkscape:window-width="1920"
     inkscape:window-height="1046"
     inkscape:window-x="-11"
     inkscape:window-y="-11"
     inkscape:window-maximized="1" />
  <metadata
     id="metadata6861">
    <rdf:RDF>
      <cc:Work
         rdf:about="">
        <dc:format>image/svg+xml</dc:format>
        <dc:type
           rdf:resource="http://purl.org/dc/dcmitype/StillImage" />
        <dc:title></dc:title>
      </cc:Work>
    </rdf:RDF>
  </metadata>
  <g
     inkscape:label="Layer 1"
     inkscape:groupmode="layer"
     id="layer1"
     transform="translate(0,-87)">
    <path
       style="opacity:1;fill:#000000;fill-opacity:1;fill-rule:nonzero;stroke:#000000;stroke-width:0.1;stroke-linecap:round;stroke-linejoin:round;stroke-miterlimit:4;stroke-dasharray:none;stroke-dashoffset:0;stroke-opacity:1;paint-order:markers fill stroke"
       id="path7413"
       d="m 23.842339,186.48405 c 0.26885,0 0.537699,0 0.806548,0 0.433625,0 0.867249,0 1.300874,0 0.612228,0 1.224455,0 1.836685,0 0.805439,0 1.610881,0 2.416323,0 0.976622,0 1.953244,0 2.929866,0 1.130806,0 2.261608,0 3.392411,0 1.268275,0.0159 2.536296,0.0474 3.804415,0.0724 1.34865,0.0262 2.697421,0.0454 4.046206,0.063 1.402768,0.015 2.805404,0.0275 4.207833,0.0626 1.420352,0.039 2.8408,0.0742 4.261345,0.10531 1.42403,0.0486 2.848316,0.0931 4.271806,0.15585 1.419281,0.0704 2.838863,0.13405 4.258771,0.19032 1.447342,0.0566 2.895205,0.098 4.34313,0.13617 1.462219,0.0378 2.924651,0.0663 4.387122,0.0921 1.449512,0.0104 2.899077,-0.002 4.348575,-0.0101 1.43066,-0.005 2.860884,-0.0476 4.291103,-0.0804 1.390142,-0.0205 2.779265,-0.0765 4.168515,-0.12742 1.332659,-0.0399 2.664555,-0.0956 3.996285,-0.15873 1.282973,-0.0662 2.567141,-0.10565 3.850249,-0.16836 1.239332,-0.068 2.478889,-0.13128 3.71883,-0.18716 1.203904,-0.0537 2.408271,-0.0958 3.612745,-0.13423 1.187648,-0.0339 2.374194,-0.098 3.561164,-0.14972 1.19698,-0.0522 2.39443,-0.0923 3.59198,-0.12836 1.21597,-0.0361 2.43218,-0.0629 3.64843,-0.0872 1.23441,-0.0242 2.46894,-0.0425 3.70348,-0.0588 1.26956,-0.0165 2.53918,-0.0286 3.8088,-0.0396 1.29592,-0.0139 2.59166,-0.0228 3.88757,-0.007 1.29485,0.0197 2.58969,0.0405 3.88457,0.0584 1.29551,0.0151 2.59087,0.0278 3.88601,0.0632 1.28882,0.0389 2.57774,0.0745 3.86676,0.10577 1.27473,0.034 2.54994,0.0461 3.82456,0.0835 1.25425,0.0439 2.50846,0.0887 3.76288,0.1276 1.23324,0.038 2.46673,0.067 3.70026,0.0935 1.19454,0.0254 2.38919,0.0452 3.58386,0.0633 1.1541,0.0172 2.30825,0.0306 3.46241,0.0427 1.13728,0.0119 2.27459,0.0208 3.4119,0.0289 1.13246,0.008 2.26494,0.0139 3.39742,0.0195 1.11188,0.008 2.22362,-0.0232 3.33518,-0.0462 1.09871,-0.023 2.19752,-0.0415 3.29635,-0.0582 1.08404,-0.005 2.16722,-0.0475 3.25045,-0.0857 1.05948,-0.0385 2.1192,-0.0698 3.179,-0.0978 1.04716,-0.0248 2.09426,-0.0436 3.14087,-0.0862 1.01798,-0.0447 2.03613,-0.0853 3.05444,-0.12177 0.97985,-0.0347 1.95994,-0.0616 2.94009,-0.0864 0.95382,-0.0237 1.90777,-0.0419 2.86174,-0.0583 0.92712,-0.0125 1.85336,-0.0604 2.7797,-0.0983 0.91034,-0.0374 1.82097,-0.067 2.73168,-0.0937 0.8943,-0.0261 1.78877,-0.046 2.68327,-0.0638 0.89248,-0.0177 1.78503,-0.031 2.6776,-0.0431 0.9116,-0.012 1.82324,-0.021 2.73489,-0.029 0.92365,-0.005 1.84706,-0.0105 2.77032,-0.0388 0.93838,-0.0331 1.87686,-0.063 2.81545,-0.0897 0.93181,-0.026 1.86377,-0.0462 2.79575,-0.0647 0.90894,-0.0176 1.81795,-0.0314 2.72697,-0.0437 0.88693,-0.0119 1.77389,-0.0211 2.66085,-0.0295 0.84483,-0.008 1.68967,-0.0142 2.53451,-0.0199 0.79982,-0.005 1.59964,-0.01 2.39947,-0.0134 0.76476,-0.004 1.52952,-0.006 2.29429,-0.009 0.74346,1.3e-4 1.48659,-5.2e-4 2.22967,-0.0253 0.76861,-0.0298 1.53732,-0.0567 2.30614,-0.0806 0.79201,-0.0213 1.58276,-0.0749 2.37384,-0.11727 0.81298,-0.0439 1.62649,-0.0767 2.44007,-0.10695 0.83101,-0.0302 1.66227,-0.0524 2.49357,-0.0727 0.83971,-0.0352 1.6789,-0.0815 2.51843,-0.12065 0.84976,-0.0389 1.69988,-0.069 2.55006,-0.0965 0.83608,-0.0265 1.67234,-0.0468 2.50863,-0.0653 0.81007,-0.014 1.61901,-0.0639 2.42815,-0.10285 0.80786,-0.0391 1.61609,-0.0696 2.42442,-0.097 0.80612,-0.027 1.61243,-0.0475 2.41879,-0.066 0.81316,-0.0186 1.62643,-0.032 2.4397,-0.0445 0.82677,-0.0123 1.65359,-0.0216 2.48041,-0.03 0.83291,-0.008 1.66584,-0.0146 2.49878,-0.0202 0.83271,-0.006 1.66543,-0.01 2.49815,-0.0136 0.80093,-0.004 1.60186,-0.007 2.4028,-0.009 0.75747,7.9e-4 1.51502,-0.0123 2.2724,0.002 0.71902,0.0215 1.43785,0.0489 2.15679,0.0726 0.68844,0.0226 1.37703,0.0401 2.06565,0.0563 0.64771,0.0151 1.29548,0.0272 1.94327,0.0382 0.611,0.0103 1.22202,0.0184 1.83308,0.0258 0.5099,-0.002 1.02031,0.0247 1.53009,0.01 0.0517,0.0448 0.60975,-0.0966 0.42039,-0.0419 -0.26418,0.1364 -0.3311,0.41734 -0.26014,0.68195 -0.12033,-0.0878 -0.24119,-0.17642 -0.36637,-0.25829 -0.26984,-0.18397 -0.55506,-0.3425 -0.84087,-0.49976 -0.34681,-0.18686 -0.69257,-0.37566 -1.03854,-0.56416 -0.29162,-0.15053 -0.58497,-0.30012 -0.85833,-0.48236 -0.69084,-0.36525 -0.50174,-1.25554 0.33091,-1.38375 0.31221,-0.007 0.61838,0.0714 0.92099,0.13932 0.38669,0.0927 0.76366,0.21902 1.13988,0.34652 0.41788,0.12862 0.8242,0.28975 1.23385,0.44151 0.43463,0.16119 0.86273,0.33811 1.27712,0.546 0.47017,0.23541 0.77229,0.57807 0.92432,1.07779 0.0698,0.59165 -0.26135,1.03071 -0.64127,1.44008 -0.37706,0.37452 -0.79063,0.70849 -1.20771,1.03674 -0.21789,0.16617 -0.44101,0.32499 -0.66559,0.48189 -2.32479,1.62219 -3.08951,0.52626 -0.7647,-1.09593 v 0 c 0.20389,-0.14207 0.40608,-0.28636 0.60423,-0.43641 0.36489,-0.28669 0.72662,-0.57794 1.05997,-0.90146 0.07,-0.0731 0.27326,-0.42757 0.31113,-0.23236 0.0907,0.12649 -0.12076,-0.19693 -0.22175,-0.17695 -0.36912,-0.18706 -0.75285,-0.34126 -1.1402,-0.48636 -0.39782,-0.14754 -0.79237,-0.30424 -1.19832,-0.42889 -0.3315,-0.11235 -0.66318,-0.22493 -1.00349,-0.30823 -0.1756,-0.0394 -0.35176,-0.0766 -0.52818,-0.11068 0.60788,-0.20207 0.54869,-0.82367 0.20415,-1.12986 -0.0346,-0.0307 0.28713,0.22288 0.11618,0.076 0.23143,0.1652 0.49969,0.27471 0.74628,0.41396 0.34753,0.18943 0.69477,0.37923 1.04328,0.56677 0.3171,0.17448 0.63283,0.35165 0.9326,0.55513 0.25874,0.17172 0.52062,0.34892 0.71591,0.59429 0.29671,0.44157 0.29054,0.97179 -0.20161,1.27934 -0.32081,0.143 -0.65675,0.1961 -1.00854,0.19589 -0.52715,0.0129 -1.0546,-0.009 -1.58184,-0.009 -0.61325,-0.007 -1.22647,-0.0156 -1.83968,-0.0259 -0.65069,-0.0111 -1.30137,-0.0232 -1.95198,-0.0384 -0.6928,-0.0163 -1.38558,-0.0338 -2.0782,-0.0566 -0.71277,-0.0235 -1.42542,-0.0506 -2.13825,-0.0721 -0.7474,-0.0146 -1.49501,-1.3e-4 -2.2425,-0.002 -0.80032,0.003 -1.60064,0.006 -2.40095,0.009 -0.83181,0.004 -1.66362,0.008 -2.49542,0.0136 -0.8314,0.006 -1.6628,0.0118 -2.49417,0.0202 -0.82452,0.008 -1.64903,0.0176 -2.4735,0.0299 -0.80989,0.0124 -1.61977,0.0258 -2.42954,0.0443 -0.80146,0.0184 -1.60289,0.0387 -2.40412,0.0656 -0.80202,0.0272 -1.60395,0.0575 -2.4055,0.0962 -0.82068,0.0395 -1.64116,0.0899 -2.46278,0.10407 -0.83177,0.0184 -1.6635,0.0386 -2.49506,0.065 -0.84385,0.0273 -1.68764,0.0571 -2.53107,0.0957 -0.84938,0.0396 -1.69841,0.0867 -2.548,0.1217 -0.82565,0.0202 -1.65126,0.0422 -2.4766,0.0722 -0.80628,0.0299 -1.61248,0.0625 -2.41815,0.10597 -0.80108,0.0429 -1.60182,0.0971 -2.40385,0.11853 -0.76789,0.0239 -1.53567,0.0508 -2.30335,0.0805 -0.75634,0.025 -1.51272,0.0264 -2.26943,0.026 -0.76411,0.003 -1.52822,0.005 -2.29233,0.009 -0.79898,0.004 -1.59796,0.008 -2.39694,0.0134 -0.84364,0.006 -1.68728,0.012 -2.53091,0.0198 -0.88512,0.008 -1.77024,0.0176 -2.65533,0.0294 -0.90624,0.0123 -1.81246,0.026 -2.71862,0.0436 -0.92816,0.0184 -1.85629,0.0385 -2.78428,0.0644 -0.93762,0.0266 -1.87513,0.0566 -2.81255,0.0896 -0.93294,0.0285 -1.86601,0.0342 -2.79934,0.0394 -0.90958,0.008 -1.81916,0.017 -2.7287,0.029 -0.88967,0.012 -1.77933,0.0253 -2.66892,0.0429 -0.89032,0.0178 -1.78061,0.0376 -2.67073,0.0635 -0.90558,0.0266 -1.81108,0.056 -2.7163,0.0932 -0.93689,0.0383 -1.87368,0.0866 -2.81138,0.0992 -0.95038,0.0163 -1.90073,0.0346 -2.85097,0.0581 -0.97543,0.0246 -1.95081,0.0514 -2.92594,0.0859 -1.01616,0.0364 -2.03216,0.0769 -3.04799,0.12153 -1.05296,0.0428 -2.10638,0.062 -3.15988,0.0869 -1.05589,0.0279 -2.11169,0.0591 -3.16726,0.0974 -1.09216,0.0385 -2.18427,0.0812 -3.27725,0.0863 -1.09637,0.0166 -2.19271,0.035 -3.28896,0.058 -1.12294,0.0232 -2.24606,0.055 -3.36933,0.0465 -1.13347,-0.006 -2.26693,-0.0116 -3.40039,-0.0195 -1.13884,-0.008 -2.27768,-0.017 -3.4165,-0.0289 -1.15622,-0.0122 -2.31242,-0.0256 -3.46858,-0.0428 -1.19752,-0.0181 -2.39502,-0.038 -3.59241,-0.0635 -1.23773,-0.0267 -2.47541,-0.0557 -3.71284,-0.0939 -1.25374,-0.0388 -2.50727,-0.0836 -3.76083,-0.12754 -1.27232,-0.0376 -2.54526,-0.0491 -3.81768,-0.0833 -1.29038,-0.0314 -2.58063,-0.0669 -3.8708,-0.10588 -1.28914,-0.0352 -2.5785,-0.0477 -3.86801,-0.0628 -1.2941,-0.0179 -2.58817,-0.0386 -3.88225,-0.0583 -1.28665,-0.0156 -2.57313,-0.006 -3.85979,0.007 -1.26761,0.011 -2.53522,0.0232 -3.80277,0.0396 -1.23154,0.0163 -2.46305,0.0345 -3.69446,0.0586 -1.21174,0.0242 -2.42344,0.0508 -3.63489,0.0868 -1.19156,0.0359 -2.383,0.0758 -3.57398,0.1277 -1.19215,0.052 -2.383887,0.11628 -3.576729,0.1503 -1.198629,0.0383 -2.397154,0.0802 -3.595217,0.13356 -1.238276,0.0558 -2.476164,0.11904 -3.713837,0.18692 -1.283745,0.0626 -2.568525,0.10234 -3.852135,0.16846 -1.336508,0.0634 -2.673183,0.11922 -4.010623,0.15933 -1.395343,0.0511 -2.79056,0.10726 -4.186793,0.12797 -1.43796,0.033 -2.875923,0.0758 -4.314327,0.0807 -1.459855,0.008 -2.919778,0.0207 -4.379648,0.01 -1.466318,-0.0259 -2.9326,-0.0545 -4.398664,-0.0924 -1.45384,-0.0383 -2.907614,-0.0799 -4.360865,-0.13676 -1.421892,-0.0564 -2.843456,-0.12 -4.264715,-0.19056 -1.413621,-0.0624 -2.828049,-0.10638 -4.2422,-0.15487 -1.421924,-0.0311 -2.843744,-0.0664 -4.265475,-0.10541 -1.3971,-0.0349 -2.79441,-0.0472 -4.191846,-0.0623 -1.351756,-0.0176 -2.703497,-0.0368 -4.055115,-0.0632 -1.259351,-0.0248 -2.518604,-0.056 -3.778105,-0.0721 -1.130803,0 -2.261605,0 -3.392411,0 -0.976622,0 -1.953244,0 -2.929866,0 -0.805442,0 -1.610884,0 -2.416323,0 -0.61223,0 -1.224457,0 -1.836685,0 -0.433625,0 -0.867249,0 -1.300874,0 -0.268849,0 -0.537698,0 -0.806548,0 -2.834821,0 -2.834821,-1.33635 0,-1.33635 z"
       inkscape:connector-curvature="0" />
    <path
       style="opacity:1;fill:#000000;fill-opacity:1;fill-rule:nonzero;stroke:#000000;stroke-width:0.1;stroke-linecap:round;stroke-linejoin:round;stroke-miterlimit:4;stroke-dasharray:none;stroke-dashoffset:0;stroke-opacity:1;paint-order:markers fill stroke"
       id="path7415"
       d="m 145.79552,184.27552 c 0,0.32071 0,0.64141 0,0.96211 0,0.49466 0,0.98933 0,1.48399 -0.003,0.54174 0.0327,1.08287 0.0587,1.62379 0.0277,0.4711 0.0177,0.94335 0.012,1.41493 -0.0347,2.83461 -1.37096,2.81824 -1.33625,-0.0164 v 0 c 0.005,-0.44471 0.0157,-0.89009 -0.0105,-1.33434 -0.0271,-0.56231 -0.0633,-1.12484 -0.0603,-1.68802 0,-0.49466 0,-0.98932 0,-1.48399 0,-0.3207 0,-0.6414 0,-0.9621 0,-2.83482 1.33635,-2.83482 1.33635,0 z"
       inkscape:connector-curvature="0" />
    <path
       style="opacity:1;fill:#000000;fill-opacity:1;fill-rule:nonzero;stroke:#000000;stroke-width:0.1;stroke-linecap:round;stroke-linejoin:round;stroke-miterlimit:4;stroke-dasharray:none;stroke-dashoffset:0;stroke-opacity:1;paint-order:markers fill stroke"
       id="path7419"
       d="m 146.31385,201.97106 c -0.17558,-0.005 -0.34857,0.0293 -0.5184,0.0715 -0.24933,0.0758 -0.48343,0.19236 -0.70229,0.33266 -0.25495,0.17489 -0.46631,0.39991 -0.66792,0.63199 -0.22692,0.26698 -0.39668,0.57312 -0.54951,0.88653 -0.14189,0.31137 -0.19989,0.64616 -0.23925,0.98315 -0.0228,0.30487 -0.014,0.61175 0.0503,0.911 0.0538,0.17028 0.12479,0.35813 0.26629,0.47574 0.0562,0.045 0.10287,0.0636 0.1687,0.0395 0.13668,-0.0377 0.25625,-0.11282 0.36815,-0.19761 0.2347,-0.1703 0.40812,-0.39895 0.57991,-0.6285 0.2277,-0.31064 0.40241,-0.65508 0.57698,-0.99714 0.15586,-0.37968 0.29899,-0.76301 0.49884,-1.12238 0.21585,-0.3777 0.52006,-0.60689 0.94174,-0.70196 0.45144,-0.0364 0.78581,0.19025 1.08339,0.50279 0.23586,0.26791 0.43359,0.56552 0.63156,0.86158 0.21707,0.34145 0.42981,0.68551 0.64732,1.0267 0.11029,0.17485 0.23404,0.34059 0.35357,0.5091 1.64008,2.31223 0.55008,3.08536 -1.08999,0.77314 v 0 c -0.13228,-0.1865 -0.26861,-0.37036 -0.39049,-0.56398 -0.2122,-0.33298 -0.4203,-0.66843 -0.63129,-1.00215 -0.15728,-0.23522 -0.31297,-0.4722 -0.49481,-0.68957 -0.11809,-0.12907 -0.0319,-0.067 0.0885,-0.096 0.16744,-0.0657 0.16004,-0.15873 0.0214,0.0423 -0.20092,0.33485 -0.29703,0.7198 -0.46973,1.06851 -0.20963,0.40967 -0.42231,0.82021 -0.69772,1.19063 -0.2542,0.33851 -0.52419,0.66506 -0.87142,0.9136 -0.3412,0.23799 -0.70947,0.42559 -1.13354,0.44716 -0.43864,-0.0103 -0.82866,-0.13586 -1.14657,-0.45193 -0.29689,-0.32652 -0.51504,-0.70284 -0.61125,-1.13815 -0.0838,-0.43907 -0.11108,-0.88507 -0.0667,-1.33102 0.0592,-0.48626 0.15566,-0.96731 0.36657,-1.41349 0.20603,-0.41748 0.43752,-0.8232 0.74312,-1.17729 0.28887,-0.3287 0.59542,-0.6434 0.96381,-0.8844 0.34576,-0.21397 0.71148,-0.39628 1.10625,-0.5014 0.33265,-0.0759 0.67136,-0.13234 1.01351,-0.0936 2.80633,0.4009 2.61734,1.72382 -0.18899,1.32291 z"
       inkscape:connector-curvature="0" />
    <path
       style="opacity:1;fill:#000000;fill-opacity:1;fill-rule:nonzero;stroke:#000000;stroke-width:0.1;stroke-linecap:round;stroke-linejoin:round;stroke-miterlimit:4;stroke-dasharray:none;stroke-dashoffset:0;stroke-opacity:1;paint-order:markers fill stroke"
       id="path7421"
       d="m 97.300075,184.59912 c -0.127645,0.22128 -0.231463,0.452 -0.318421,0.69182 -0.118245,0.35004 -0.166891,0.72107 -0.198646,1.08791 -0.04264,0.48942 -0.0011,0.98095 0.06666,1.46596 0.08631,0.56574 0.263631,1.11124 0.446098,1.65182 0.18037,0.544 0.436222,1.05546 0.72198,1.55046 0.27668,0.46194 0.604885,0.88902 0.962223,1.29076 0.168749,0.19939 0.350419,0.38667 0.534633,0.57157 1.997788,2.01123 1.049688,2.95299 -0.948103,0.94177 v 0 c -0.201588,-0.20346 -0.401365,-0.40862 -0.586811,-0.62719 -0.415597,-0.47069 -0.799484,-0.96899 -1.120069,-1.51015 -0.328472,-0.57188 -0.622204,-1.16295 -0.830257,-1.79055 -0.208706,-0.62052 -0.408252,-1.24732 -0.503669,-1.89706 -0.07909,-0.58548 -0.127156,-1.17797 -0.07355,-1.76834 0.0454,-0.48239 0.112213,-0.96808 0.274773,-1.4268 0.114276,-0.30939 0.248303,-0.60877 0.412884,-0.89499 1.406467,-2.46132 2.566742,-1.7983 1.160275,0.66301 z"
       inkscape:connector-curvature="0" />
    <path
       style="opacity:1;fill:#000000;fill-opacity:1;fill-rule:nonzero;stroke:#000000;stroke-width:0.1;stroke-linecap:round;stroke-linejoin:round;stroke-miterlimit:4;stroke-dasharray:none;stroke-dashoffset:0;stroke-opacity:1;paint-order:markers fill stroke"
       id="path7423"
       d="m 190.54064,182.44298 c 0.18963,0.16623 0.35704,0.35717 0.52387,0.54593 0.24343,0.28666 0.46284,0.59221 0.66528,0.90882 0.24623,0.36852 0.4431,0.76491 0.61856,1.1709 0.19892,0.46758 0.32974,0.95798 0.42439,1.45595 0.0935,0.56207 0.0977,1.13132 0.0584,1.69806 -0.0395,0.57502 -0.16277,1.13931 -0.31514,1.69372 -0.15359,0.56673 -0.41895,1.08759 -0.72702,1.58379 -1.50219,2.40409 -2.63548,1.69595 -1.1333,-0.70814 v 0 c 0.24277,-0.38532 0.45184,-0.79009 0.57234,-1.2319 0.13071,-0.46893 0.23584,-0.94687 0.27023,-1.43358 0.0342,-0.452 0.0307,-0.90608 -0.0389,-1.35511 -0.0745,-0.40174 -0.17954,-0.79703 -0.33851,-1.17449 -0.14601,-0.341 -0.31112,-0.6733 -0.51855,-0.98182 -0.16349,-0.25861 -0.34341,-0.50634 -0.53934,-0.74146 -0.14869,-0.16841 -0.29688,-0.33869 -0.46728,-0.48573 -2.00452,-2.00452 -1.05958,-2.94946 0.94494,-0.94494 z"
       inkscape:connector-curvature="0" />
    <path
       style="opacity:1;fill:#000000;fill-opacity:1;fill-rule:nonzero;stroke:#000000;stroke-width:0.1;stroke-linecap:round;stroke-linejoin:round;stroke-miterlimit:4;stroke-dasharray:none;stroke-dashoffset:0;stroke-opacity:1;paint-order:markers fill stroke"
       id="path7425"
       d="m 104.35885,185.95494 c 0.0776,0.27008 0.1162,0.54881 0.17312,0.82339 0.0594,0.29213 0.1181,0.58414 0.18321,0.87507 0.61906,2.7664 -0.68503,3.05823 -1.3041,0.29183 v 0 c -0.0669,-0.29883 -0.12727,-0.59876 -0.18829,-0.89882 -0.049,-0.24156 -0.0846,-0.48607 -0.14886,-0.72435 -0.77879,-2.72574 0.50614,-3.09287 1.28492,-0.36712 z"
       inkscape:connector-curvature="0" />
    <path
       style="opacity:1;fill:#000000;fill-opacity:1;fill-rule:nonzero;stroke:#000000;stroke-width:0.1;stroke-linecap:round;stroke-linejoin:round;stroke-miterlimit:4;stroke-dasharray:none;stroke-dashoffset:0;stroke-opacity:1;paint-order:markers fill stroke"
       id="path7427"
       d="m 114.79226,185.60396 c 0.0308,0.23898 0.0505,0.47955 0.0701,0.71975 0.0128,0.22379 0.046,0.44578 0.0742,0.668 0.35688,2.81226 -0.96883,2.9805 -1.32572,0.16823 v 0 c -0.0307,-0.24215 -0.0659,-0.48416 -0.0804,-0.72798 -0.0224,-0.27627 -0.053,-0.55171 -0.0745,-0.828 0,-2.83482 1.33635,-2.83482 1.33635,0 z"
       inkscape:connector-curvature="0" />
    <path
       style="opacity:1;fill:#000000;fill-opacity:1;fill-rule:nonzero;stroke:#000000;stroke-width:0.1;stroke-linecap:round;stroke-linejoin:round;stroke-miterlimit:4;stroke-dasharray:none;stroke-dashoffset:0;stroke-opacity:1;paint-order:markers fill stroke"
       id="path7429"
       d="m 127.08785,185.2422 c 0.0399,0.28132 0.0933,0.56065 0.13539,0.84181 0.041,0.36488 0.1107,0.72529 0.17078,1.08729 0.0459,0.22123 0.0219,0.10761 0.0721,0.34083 0.59671,2.77131 -0.70969,3.0526 -1.30641,0.2813 v 0 c -0.0566,-0.26313 -0.0285,-0.12865 -0.0841,-0.40348 -0.0612,-0.36897 -0.13195,-0.73641 -0.17408,-1.10826 -0.0424,-0.28407 -0.0965,-0.56622 -0.13667,-0.8505 -0.4009,-2.80633 0.92202,-2.99532 1.32292,-0.18899 z"
       inkscape:connector-curvature="0" />
    <path
       style="opacity:1;fill:#000000;fill-opacity:1;fill-rule:nonzero;stroke:#000000;stroke-width:0.1;stroke-linecap:round;stroke-linejoin:round;stroke-miterlimit:4;stroke-dasharray:none;stroke-dashoffset:0;stroke-opacity:1;paint-order:markers fill stroke"
       id="path7431"
       d="m 135.36212,184.88586 c 0.0776,0.27009 0.11619,0.54881 0.17312,0.82339 0.0833,0.35617 0.13211,0.71901 0.2039,1.07733 0.0509,0.24496 0.0253,0.12056 0.0767,0.37321 0.56548,2.77785 -0.74401,3.04442 -1.30949,0.26657 v 0 c -0.0512,-0.25176 -0.0252,-0.12496 -0.0782,-0.3804 -0.0697,-0.35576 -0.12092,-0.71504 -0.20215,-1.06863 -0.049,-0.24156 -0.0846,-0.48607 -0.14886,-0.72434 -0.77879,-2.72575 0.50614,-3.09288 1.28493,-0.36713 z"
       inkscape:connector-curvature="0" />
    <path
       style="opacity:1;fill:#000000;fill-opacity:1;fill-rule:nonzero;stroke:#000000;stroke-width:0.1;stroke-linecap:round;stroke-linejoin:round;stroke-miterlimit:4;stroke-dasharray:none;stroke-dashoffset:0;stroke-opacity:1;paint-order:markers fill stroke"
       id="path7433"
       d="m 140.44024,185.15313 c 0.0779,0.26625 0.15521,0.5322 0.21998,0.80211 0.091,0.35628 0.2027,0.70657 0.29903,1.0614 0.0177,0.07 0.0354,0.14004 0.0531,0.21007 0.693,2.74881 -0.6028,3.07549 -1.2958,0.32668 v 0 c -0.0157,-0.0624 -0.0314,-0.12476 -0.0471,-0.18714 -0.0995,-0.36783 -0.21671,-0.73054 -0.30897,-1.10037 -0.0597,-0.25109 -0.13275,-0.49804 -0.20516,-0.74563 -0.77878,-2.72574 0.50615,-3.09287 1.28493,-0.36712 z"
       inkscape:connector-curvature="0" />
    <path
       style="opacity:1;fill:#000000;fill-opacity:1;fill-rule:nonzero;stroke:#000000;stroke-width:0.1;stroke-linecap:round;stroke-linejoin:round;stroke-miterlimit:4;stroke-dasharray:none;stroke-dashoffset:0;stroke-opacity:1;paint-order:markers fill stroke"
       id="path7435"
       d="m 149.27122,184.70766 c 0.0403,0.25452 0.0929,0.50709 0.13417,0.76169 0.0471,0.36165 0.10146,0.72186 0.1591,1.08197 0.0199,0.17767 0.0578,0.35149 0.10255,0.52418 0.68983,2.74961 -0.60635,3.0748 -1.29618,0.32519 v 0 c -0.0518,-0.21084 -0.10101,-0.42206 -0.12593,-0.6382 -0.0575,-0.35937 -0.11227,-0.71883 -0.15874,-1.07979 -0.0424,-0.26273 -0.0975,-0.52312 -0.13789,-0.78605 -0.4009,-2.80633 0.92202,-2.99532 1.32292,-0.18899 z"
       inkscape:connector-curvature="0" />
    <path
       style="opacity:1;fill:#000000;fill-opacity:1;fill-rule:nonzero;stroke:#000000;stroke-width:0.1;stroke-linecap:round;stroke-linejoin:round;stroke-miterlimit:4;stroke-dasharray:none;stroke-dashoffset:0;stroke-opacity:1;paint-order:markers fill stroke"
       id="path7437"
       d="m 154.03406,186.09905 c 0.11584,0.24217 0.22182,0.48874 0.32644,0.73595 0.13571,0.34795 0.28407,0.69072 0.42026,1.03846 0.0966,0.22708 0.0471,0.11028 0.14843,0.35042 1.10208,2.61183 -0.12914,3.13135 -1.23123,0.51953 v 0 c -0.10542,-0.24984 -0.0515,-0.12207 -0.16179,-0.3833 -0.13137,-0.33659 -0.27589,-0.66782 -0.40653,-1.00472 -0.0934,-0.22116 -0.18777,-0.44189 -0.29084,-0.65871 -1.26777,-2.53554 -0.0725,-3.13317 1.19526,-0.59763 z"
       inkscape:connector-curvature="0" />
    <path
       style="opacity:1;fill:#000000;fill-opacity:1;fill-rule:nonzero;stroke:#000000;stroke-width:0.1;stroke-linecap:round;stroke-linejoin:round;stroke-miterlimit:4;stroke-dasharray:none;stroke-dashoffset:0;stroke-opacity:1;paint-order:markers fill stroke"
       id="path7439"
       d="m 163.54642,185.38295 c 0.22805,0.23401 0.38208,0.52175 0.51796,0.81553 0.076,0.16941 0.13331,0.34589 0.19054,0.52219 0.86973,2.69811 -0.40217,3.1081 -1.2719,0.41 v 0 c -0.0406,-0.12701 -0.0808,-0.25429 -0.13408,-0.37674 -0.0673,-0.15007 -0.13845,-0.30096 -0.24746,-0.42604 -2.00452,-2.00452 -1.05959,-2.94946 0.94494,-0.94494 z"
       inkscape:connector-curvature="0" />
    <path
       style="opacity:1;fill:#000000;fill-opacity:1;fill-rule:nonzero;stroke:#000000;stroke-width:0.1;stroke-linecap:round;stroke-linejoin:round;stroke-miterlimit:4;stroke-dasharray:none;stroke-dashoffset:0;stroke-opacity:1;paint-order:markers fill stroke"
       id="path7441"
       d="m 177.84905,184.84272 c 0.0979,0.29743 0.20144,0.59296 0.30231,0.88942 0.14473,0.39382 0.28659,0.78897 0.4406,1.17928 0.0894,0.25031 0.20443,0.48928 0.33166,0.72211 1.34783,2.49391 0.1722,3.12928 -1.17564,0.63537 v 0 c -0.15076,-0.28123 -0.29162,-0.56753 -0.39966,-0.86843 -0.16079,-0.41007 -0.31143,-0.82418 -0.46215,-1.23805 -0.0963,-0.28343 -0.19621,-0.56567 -0.28838,-0.85048 -0.99538,-2.65432 0.25589,-3.12355 1.25126,-0.46922 z"
       inkscape:connector-curvature="0" />
    <path
       style="opacity:1;fill:#000000;fill-opacity:1;fill-rule:nonzero;stroke:#000000;stroke-width:0.1;stroke-linecap:round;stroke-linejoin:round;stroke-miterlimit:4;stroke-dasharray:none;stroke-dashoffset:0;stroke-opacity:1;paint-order:markers fill stroke"
       id="path7443"
       d="m 186.68896,184.70766 c 0.0386,0.26019 0.0514,0.52326 0.0858,0.78386 0.0541,0.36397 0.0987,0.72915 0.13748,1.09503 0.0217,0.20779 0.0388,0.41601 0.056,0.6242 0.23242,2.82528 -1.09943,2.93484 -1.33185,0.10957 v 0 c -0.0162,-0.19781 -0.0325,-0.39564 -0.0531,-0.59306 -0.0377,-0.35646 -0.0816,-0.71214 -0.13417,-1.06673 -0.0316,-0.25424 -0.0487,-0.50994 -0.0831,-0.76388 -0.40091,-2.80633 0.92201,-2.99532 1.32292,-0.18899 z"
       inkscape:connector-curvature="0" />
    <path
       style="opacity:1;fill:#000000;fill-opacity:1;fill-rule:nonzero;stroke:#000000;stroke-width:0.1;stroke-linecap:round;stroke-linejoin:round;stroke-miterlimit:4;stroke-dasharray:none;stroke-dashoffset:0;stroke-opacity:1;paint-order:markers fill stroke"
       id="path7445"
       d="m 137.24409,185.77674 c 0.0315,0.25644 0.0566,0.51303 0.0953,0.76852 0.0375,0.23836 0.0682,0.47769 0.0974,0.71719 0.34214,2.8141 -0.98444,2.97539 -1.32658,0.16129 v 0 c -0.0275,-0.22669 -0.0565,-0.4532 -0.0921,-0.6788 -0.0391,-0.25908 -0.0667,-0.51902 -0.0969,-0.77921 -0.40091,-2.80633 0.92201,-2.99532 1.32291,-0.18899 z"
       inkscape:connector-curvature="0" />
    <path
       style="opacity:1;fill:#000000;fill-opacity:1;fill-rule:nonzero;stroke:#000000;stroke-width:0.1;stroke-linecap:round;stroke-linejoin:round;stroke-miterlimit:4;stroke-dasharray:none;stroke-dashoffset:0;stroke-opacity:1;paint-order:markers fill stroke"
       id="path7537"
       d="m 95.743262,179.46075 c 0.02344,-0.0276 0.04688,-0.0552 0.07031,-0.0828 1.836343,-2.15964 2.85441,-1.29397 1.018064,0.86567 v 0 c -0.02059,0.0242 -0.04118,0.0484 -0.06177,0.0726 -1.814809,2.17777 -2.841418,1.32226 -1.026609,-0.85551 z"
       inkscape:connector-curvature="0" />
    <path
       style="opacity:1;fill:#000000;fill-opacity:1;fill-rule:nonzero;stroke:#000000;stroke-width:0.1;stroke-linecap:round;stroke-linejoin:round;stroke-miterlimit:4;stroke-dasharray:none;stroke-dashoffset:0;stroke-opacity:1;paint-order:markers fill stroke"
       id="path7539"
       d="m 100.64757,174.57226 c 0.236,-0.18759 0.49141,-0.34807 0.74471,-0.5108 0.0532,-0.0318 0.1064,-0.0636 0.1596,-0.0953 2.43662,-1.44884 3.1196,-0.30021 0.68299,1.14863 v 0 c -0.0403,0.0238 -0.0806,0.0476 -0.12092,0.0715 -0.20694,0.1326 -0.41559,0.26312 -0.61087,0.41267 -2.17777,1.8148 -3.033279,0.7882 -0.85551,-1.02661 z"
       inkscape:connector-curvature="0" />
    <path
       style="opacity:1;fill:#000000;fill-opacity:1;fill-rule:nonzero;stroke:#000000;stroke-width:0.1;stroke-linecap:round;stroke-linejoin:round;stroke-miterlimit:4;stroke-dasharray:none;stroke-dashoffset:0;stroke-opacity:1;paint-order:markers fill stroke"
       id="path7541"
       d="m 108.18823,171.33028 c 0.20375,-0.12858 0.42467,-0.22705 0.64297,-0.32789 2.57448,-1.18671 3.1339,0.0269 0.55943,1.21362 v 0 c -0.15544,0.0715 -0.31235,0.14154 -0.46112,0.22618 -2.35872,1.57248 -3.09999,0.46057 -0.74128,-1.11191 z"
       inkscape:connector-curvature="0" />
    <path
       style="opacity:1;fill:#000000;fill-opacity:1;fill-rule:nonzero;stroke:#000000;stroke-width:0.1;stroke-linecap:round;stroke-linejoin:round;stroke-miterlimit:4;stroke-dasharray:none;stroke-dashoffset:0;stroke-opacity:1;paint-order:markers fill stroke"
       id="path7543"
       d="m 115.33223,169.12143 c 0.22566,-0.063 0.45627,-0.10506 0.68691,-0.14483 2.79394,-0.47969 3.02007,0.83739 0.22613,1.31708 v 0 c -0.18318,0.0313 -0.36645,0.0638 -0.54592,0.11268 -2.72575,0.77879 -3.09288,-0.50615 -0.36712,-1.28493 z"
       inkscape:connector-curvature="0" />
    <path
       style="opacity:1;fill:#000000;fill-opacity:1;fill-rule:nonzero;stroke:#000000;stroke-width:0.1;stroke-linecap:round;stroke-linejoin:round;stroke-miterlimit:4;stroke-dasharray:none;stroke-dashoffset:0;stroke-opacity:1;paint-order:markers fill stroke"
       id="path7545"
       d="m 122.46479,168.577 c 0.1626,-0.0256 0.32776,-0.0402 0.49181,-0.0563 2.82132,-0.27633 2.95158,1.05366 0.13026,1.32998 v 0 c -0.20745,0.0203 -0.41416,0.0477 -0.62207,0.0627 -2.83482,0 -2.83482,-1.33634 0,-1.33634 z"
       inkscape:connector-curvature="0" />
    <path
       style="opacity:1;fill:#000000;fill-opacity:1;fill-rule:nonzero;stroke:#000000;stroke-width:0.1;stroke-linecap:round;stroke-linejoin:round;stroke-miterlimit:4;stroke-dasharray:none;stroke-dashoffset:0;stroke-opacity:1;paint-order:markers fill stroke"
       id="path7547"
       d="m 128.61199,168.84427 c 0.1648,0.01 0.32847,0.0324 0.49256,0.05 2.8186,0.30285 2.67583,1.63155 -0.14277,1.3287 v 0 c -0.11655,-0.0125 -0.23442,-0.0227 -0.34979,-0.0424 -2.83482,0 -2.83482,-1.33634 0,-1.33634 z"
       inkscape:connector-curvature="0" />
    <path
       style="opacity:1;fill:#000000;fill-opacity:1;fill-rule:nonzero;stroke:#000000;stroke-width:0.1;stroke-linecap:round;stroke-linejoin:round;stroke-miterlimit:4;stroke-dasharray:none;stroke-dashoffset:0;stroke-opacity:1;paint-order:markers fill stroke"
       id="path7549"
       d="m 134.24829,170.54215 c 0.16227,0.0685 0.32469,0.13645 0.48958,0.19846 2.65155,1.00274 2.17885,2.25269 -0.4727,1.24995 v 0 c -0.2071,-0.0787 -0.41243,-0.16237 -0.61451,-0.25315 -2.53554,-1.26777 -1.93791,-2.46304 0.59763,-1.19526 z"
       inkscape:connector-curvature="0" />
    <path
       style="opacity:1;fill:#000000;fill-opacity:1;fill-rule:nonzero;stroke:#000000;stroke-width:0.1;stroke-linecap:round;stroke-linejoin:round;stroke-miterlimit:4;stroke-dasharray:none;stroke-dashoffset:0;stroke-opacity:1;paint-order:markers fill stroke"
       id="path7551"
       d="m 141.00185,173.26443 c 0.1014,0.0749 0.20091,0.15156 0.29919,0.23049 2.2027,1.78446 1.3615,2.82283 -0.8412,1.03836 v 0 c -0.0654,-0.0538 -0.13398,-0.10312 -0.19926,-0.15695 -2.35872,-1.57247 -1.61744,-2.68438 0.74127,-1.1119 z"
       inkscape:connector-curvature="0" />
    <path
       style="opacity:1;fill:#000000;fill-opacity:1;fill-rule:nonzero;stroke:#000000;stroke-width:0.1;stroke-linecap:round;stroke-linejoin:round;stroke-miterlimit:4;stroke-dasharray:none;stroke-dashoffset:0;stroke-opacity:1;paint-order:markers fill stroke"
       id="path7553"
       d="m 144.67963,177.81369 c 0.0401,0.0721 0.0879,0.13957 0.13234,0.20912 1.52725,2.38824 0.40142,3.1082 -1.12583,0.71995 v 0 c -0.0696,-0.10896 -0.14371,-0.2156 -0.20178,-0.33144 -1.26777,-2.53554 -0.0725,-3.13317 1.19527,-0.59763 z"
       inkscape:connector-curvature="0" />
    <path
       style="opacity:1;fill:#000000;fill-opacity:1;fill-rule:nonzero;stroke:#000000;stroke-width:0.1;stroke-linecap:round;stroke-linejoin:round;stroke-miterlimit:4;stroke-dasharray:none;stroke-dashoffset:0;stroke-opacity:1;paint-order:markers fill stroke"
       id="path7555"
       d="m 147.90165,177.82033 c 0.11863,-0.1354 0.24433,-0.26454 0.36499,-0.3982 1.90375,-2.10046 2.89392,-1.20302 0.99016,0.89744 v 0 c -0.13584,0.14942 -0.27532,0.29541 -0.41021,0.4457 -2.00452,2.00452 -2.94946,1.05958 -0.94494,-0.94494 z"
       inkscape:connector-curvature="0" />
    <path
       style="opacity:1;fill:#000000;fill-opacity:1;fill-rule:nonzero;stroke:#000000;stroke-width:0.1;stroke-linecap:round;stroke-linejoin:round;stroke-miterlimit:4;stroke-dasharray:none;stroke-dashoffset:0;stroke-opacity:1;paint-order:markers fill stroke"
       id="path7569"
       d="m 152.55498,174.53752 c 0.0957,-0.0557 0.18647,-0.11878 0.27949,-0.17871 2.38433,-1.53336 3.10716,-0.40938 0.72284,1.12399 v 0 c -0.0869,0.0557 -0.17157,0.11516 -0.26106,0.16662 -2.35872,1.57248 -3.09999,0.46057 -0.74127,-1.1119 z"
       inkscape:connector-curvature="0" />
    <path
       style="opacity:1;fill:#000000;fill-opacity:1;fill-rule:nonzero;stroke:#000000;stroke-width:0.1;stroke-linecap:round;stroke-linejoin:round;stroke-miterlimit:4;stroke-dasharray:none;stroke-dashoffset:0;stroke-opacity:1;paint-order:markers fill stroke"
       id="path7571"
       d="m 158.16764,171.59755 c 0.14431,-0.0862 0.29113,-0.16819 0.43739,-0.25118 2.46617,-1.39792 3.12516,-0.23536 0.65898,1.16257 v 0 c -0.11832,0.067 -0.23581,0.13536 -0.3551,0.20052 -2.35872,1.57247 -3.09999,0.46057 -0.74127,-1.11191 z"
       inkscape:connector-curvature="0" />
    <path
       style="opacity:1;fill:#000000;fill-opacity:1;fill-rule:nonzero;stroke:#000000;stroke-width:0.1;stroke-linecap:round;stroke-linejoin:round;stroke-miterlimit:4;stroke-dasharray:none;stroke-dashoffset:0;stroke-opacity:1;paint-order:markers fill stroke"
       id="path7581"
       d="m 164.11939,170.22743 c 0.25471,-0.11519 0.51449,-0.21852 0.77865,-0.30997 0.17561,-0.0596 0.35524,-0.10557 0.53477,-0.15143 2.74742,-0.69853 3.07671,0.59662 0.32929,1.29514 v 0 c -0.14399,0.0364 -0.28812,0.0727 -0.42908,0.11987 -0.20897,0.0714 -0.41324,0.15432 -0.616,0.24166 -2.53554,1.26777 -3.13318,0.0725 -0.59763,-1.19527 z"
       inkscape:connector-curvature="0" />
    <path
       style="opacity:1;fill:#000000;fill-opacity:1;fill-rule:nonzero;stroke:#000000;stroke-width:0.1;stroke-linecap:round;stroke-linejoin:round;stroke-miterlimit:4;stroke-dasharray:none;stroke-dashoffset:0;stroke-opacity:1;paint-order:markers fill stroke"
       id="path7589"
       d="m 171.37512,170.18061 c 0.27675,-0.007 0.55255,0.022 0.82602,0.0614 2.80395,0.41725 2.60725,1.73905 -0.19669,1.32179 v 0 c -0.20804,-0.0326 -0.41859,-0.0526 -0.62933,-0.0468 -2.83482,0 -2.83482,-1.33635 0,-1.33635 z"
       inkscape:connector-curvature="0" />
    <path
       style="opacity:1;fill:#000000;fill-opacity:1;fill-rule:nonzero;stroke:#000000;stroke-width:0.1;stroke-linecap:round;stroke-linejoin:round;stroke-miterlimit:4;stroke-dasharray:none;stroke-dashoffset:0;stroke-opacity:1;paint-order:markers fill stroke"
       id="path7591"
       d="m 177.88408,170.99704 c 0.283,0.0354 0.55816,0.11541 0.82786,0.20574 0.0488,0.0172 0.0976,0.0343 0.14637,0.0515 2.67411,0.94093 2.23055,2.20151 -0.44356,1.26059 v 0 c -0.0448,-0.0158 -0.0897,-0.0316 -0.13457,-0.0474 -0.18955,-0.0668 -0.3854,-0.12219 -0.58509,-0.14749 -2.80633,-0.4009 -2.61734,-1.72382 0.18899,-1.32292 z"
       inkscape:connector-curvature="0" />
    <path
       style="opacity:1;fill:#000000;fill-opacity:1;fill-rule:nonzero;stroke:#000000;stroke-width:0.1;stroke-linecap:round;stroke-linejoin:round;stroke-miterlimit:4;stroke-dasharray:none;stroke-dashoffset:0;stroke-opacity:1;paint-order:markers fill stroke"
       id="path7601"
       d="m 186.5316,175.76124 c 0.19524,0.1716 0.37001,0.36695 0.53451,0.56786 0.0358,0.0493 0.0715,0.0986 0.10728,0.14794 1.64925,2.30568 0.56234,3.08315 -1.08691,0.77746 v 0 c -0.0197,-0.0282 -0.0393,-0.0563 -0.059,-0.0845 -0.13271,-0.16709 -0.28082,-0.32265 -0.44082,-0.4638 -2.00453,-2.00452 -1.05959,-2.94946 0.94494,-0.94494 z"
       inkscape:connector-curvature="0" />
    <path
       style="opacity:1;fill:#000000;fill-opacity:1;fill-rule:nonzero;stroke:#000000;stroke-width:0.1;stroke-linecap:round;stroke-linejoin:round;stroke-miterlimit:4;stroke-dasharray:none;stroke-dashoffset:0;stroke-opacity:1;paint-order:markers fill stroke"
       id="path7603"
       d="m 121.72506,157.87159 c -0.19163,-0.0299 -0.38684,-0.0334 -0.57994,-0.0173 -0.22113,0.0155 -0.43786,0.0742 -0.63872,0.16714 -0.11635,0.0667 -0.2404,0.14269 -0.29378,0.26772 -0.007,0.0523 0.0225,0.10625 0.047,0.15155 0.0487,0.15489 0.14674,0.26958 0.26708,0.37339 0.16563,0.1 0.34717,0.16984 0.53325,0.22061 0.30336,0.0597 0.59045,0.16325 0.85391,0.32431 0.39411,0.27328 0.47677,0.70313 0.32516,1.13766 -0.10694,0.25221 -0.28683,0.46225 -0.4652,0.66662 -0.15153,0.17718 -0.29805,0.35946 -0.41854,0.55941 -0.0987,0.15274 -0.12627,0.31766 -0.13631,0.49431 -0.004,0.18895 0.0423,0.36343 0.11804,0.53459 0.0963,0.21978 0.25451,0.39454 0.4314,0.55212 0.19275,0.1622 0.41349,0.28539 0.65225,0.36444 0.23676,0.076 0.48511,0.0985 0.73245,0.0885 0.13546,-0.018 0.0695,-0.006 0.19805,-0.0359 2.77762,-0.56659 3.04472,0.74279 0.2671,1.30938 v 0 c -0.28681,0.0547 -0.14297,0.034 -0.43149,0.0625 -0.41231,0.007 -0.82406,-0.0303 -1.21645,-0.16626 -0.40238,-0.14928 -0.78162,-0.34863 -1.10394,-0.63664 -0.31732,-0.29472 -0.59534,-0.62446 -0.76466,-1.02832 -0.14581,-0.36526 -0.23761,-0.74155 -0.21579,-1.13826 0.0305,-0.392 0.12183,-0.76658 0.33305,-1.10374 0.16424,-0.26142 0.349,-0.50854 0.55301,-0.74049 0.066,-0.0732 0.15912,-0.20202 0.21217,-0.24175 0.003,0.0871 0.0326,0.35279 0.20454,0.44436 -0.13507,-0.10836 -0.344,-0.10669 -0.50082,-0.1633 -0.38167,-0.1141 -0.75536,-0.26293 -1.06544,-0.52016 -0.27323,-0.25766 -0.50213,-0.549 -0.62223,-0.91044 -0.13807,-0.42492 -0.16133,-0.84937 0.0503,-1.25825 0.22619,-0.36742 0.52664,-0.65124 0.92267,-0.83328 0.34475,-0.14561 0.70533,-0.25318 1.08126,-0.27505 0.28667,-0.0172 0.57518,-0.0184 0.85961,0.0276 2.80632,0.4009 2.61734,1.72382 -0.18899,1.32291 z"
       inkscape:connector-curvature="0" />
    <path
       style="opacity:1;fill:#000000;fill-opacity:1;fill-rule:nonzero;stroke:#000000;stroke-width:0.1;stroke-linecap:round;stroke-linejoin:round;stroke-miterlimit:4;stroke-dasharray:none;stroke-dashoffset:0;stroke-opacity:1;paint-order:markers fill stroke"
       id="path7605"
       d="m 165.65175,159.22256 c -0.20603,0.006 -0.41326,0.029 -0.61714,0.0603 -0.23543,0.0246 -0.45342,0.10044 -0.65357,0.22462 -0.14463,0.0919 -0.24694,0.21083 -0.31565,0.36575 -0.05,0.12074 -0.0802,0.24921 -0.0517,0.37832 0.0347,0.13565 0.09,0.25051 0.18211,0.35523 0.11696,0.12823 0.27517,0.19633 0.4267,0.27333 0.38184,0.171 0.58254,0.44549 0.66411,0.85183 0.0164,0.35232 -0.17044,0.6139 -0.39501,0.86085 -0.16439,0.15633 -0.31226,0.32787 -0.44892,0.50864 -0.12903,0.16189 -0.19981,0.33522 -0.2146,0.53958 -0.004,0.18516 0.0633,0.35392 0.15257,0.51251 0.0996,0.17333 0.25975,0.2774 0.42735,0.37657 0.2391,0.14257 0.50974,0.20468 0.77798,0.26645 0.29341,0.0549 0.59075,0.0783 0.88876,0.0637 0.19741,-0.0141 0.10326,-0.004 0.28262,-0.0291 2.81067,-0.36927 2.98475,0.95569 0.17408,1.32496 v 0 c -0.27417,0.0344 -0.13955,0.0215 -0.40376,0.0395 -0.41737,0.0141 -0.83421,-0.0118 -1.24397,-0.0972 -0.40678,-0.0951 -0.81154,-0.20674 -1.17128,-0.42711 -0.37189,-0.23048 -0.70503,-0.50461 -0.91553,-0.89749 -0.20517,-0.40444 -0.33734,-0.8304 -0.29586,-1.29011 0.0597,-0.43857 0.20113,-0.84216 0.4794,-1.19294 0.16128,-0.2099 0.3299,-0.41505 0.52271,-0.59714 0.15783,-0.17339 0.0179,0.0264 0.0501,0.12753 0.0686,0.24018 0.3384,0.43447 0.0637,0.25037 -0.32437,-0.16498 -0.63737,-0.34793 -0.86977,-0.63627 -0.23509,-0.30831 -0.40305,-0.64578 -0.4613,-1.0332 -0.0351,-0.39286 0.0115,-0.77362 0.18714,-1.13199 0.19865,-0.37663 0.46253,-0.69347 0.83207,-0.91519 0.35299,-0.2015 0.7278,-0.34879 1.13507,-0.39397 0.26864,-0.0384 0.54013,-0.0706 0.81162,-0.0745 2.83482,0 2.83482,1.33634 0,1.33634 z"
       inkscape:connector-curvature="0" />
    <path
       style="opacity:1;fill:#000000;fill-opacity:1;fill-rule:nonzero;stroke:#000000;stroke-width:0.1;stroke-linecap:round;stroke-linejoin:round;stroke-miterlimit:4;stroke-dasharray:none;stroke-dashoffset:0;stroke-opacity:1;paint-order:markers fill stroke"
       id="path8170"
       d="m 55.207368,159.50446 c 0.253941,0.0344 0.509643,0.0515 0.763881,0.0831 0.354594,0.0526 0.710274,0.0965 1.066728,0.13418 0.399365,0.0373 0.799018,0.0781 1.200161,0.0881 0.291687,0.0128 0.149235,0.006 0.427373,0.0209 2.830563,0.15534 2.757332,1.48968 -0.07323,1.33434 v 0 c -0.256715,-0.0141 -0.12618,-0.008 -0.391613,-0.0195 -0.435594,-0.0132 -0.869778,-0.0523 -1.303395,-0.095 -0.365885,-0.0388 -0.731068,-0.0834 -1.095037,-0.13748 -0.260598,-0.0344 -0.523668,-0.0472 -0.78386,-0.0858 -2.806329,-0.4009 -2.61734,-1.72382 0.18899,-1.32291 z"
       inkscape:connector-curvature="0" />
    <path
       style="opacity:1;fill:#000000;fill-opacity:1;fill-rule:nonzero;stroke:#000000;stroke-width:0.1;stroke-linecap:round;stroke-linejoin:round;stroke-miterlimit:4;stroke-dasharray:none;stroke-dashoffset:0;stroke-opacity:1;paint-order:markers fill stroke"
       id="path8172"
       d="m 54.913992,160.83161 c 0.09506,0.27353 0.165434,0.55506 0.24493,0.83345 0.119949,0.42136 0.222362,0.8471 0.330518,1.27152 0.137919,0.5153 0.24144,1.03859 0.333089,1.56379 0.11438,0.58663 0.214993,1.17555 0.301136,1.76696 0.08193,0.64383 0.164086,1.28751 0.249518,1.93092 0.07779,0.65555 0.175789,1.30837 0.265721,1.96231 0.08015,0.65438 0.165941,1.30784 0.254203,1.96117 0.08971,0.6608 0.162767,1.32362 0.227479,1.98727 0.04968,0.63752 0.127391,1.27216 0.198903,1.90745 0.06921,0.61196 0.12537,1.22526 0.176413,1.83896 0.04998,0.60839 0.08632,1.21777 0.120182,1.82723 0.03646,0.58392 0.04752,1.16922 0.08766,1.75286 0.04489,0.54518 0.09061,1.09026 0.130455,1.63584 0.03934,0.54465 0.06943,1.0899 0.09676,1.63526 0.0267,0.54156 0.04691,1.08341 0.06528,1.62531 0.01799,0.53934 0.03159,1.07881 0.04395,1.6183 0.0093,0.54186 0.02893,1.08368 0.02172,1.62563 -0.01519,0.51521 -0.03813,1.03016 -0.057,1.54524 -0.0068,0.51141 -0.05235,1.0207 -0.09379,1.53011 -0.04061,0.49236 -0.07228,0.98538 -0.100748,1.47857 -0.04395,0.51662 -0.09813,1.03229 -0.143629,1.54879 -0.04453,0.51081 -0.07827,1.02245 -0.108874,1.53425 -0.03046,0.51848 -0.0533,1.03735 -0.07407,1.5563 -0.02058,0.5238 -0.03607,1.04778 -0.05013,1.57178 -0.01109,0.53947 -0.05812,1.07745 -0.09482,1.61561 -0.03592,0.5262 -0.06386,1.05288 -0.08913,1.57968 -0.02495,0.52853 -0.04375,1.05731 -0.06087,1.58614 -0.0051,0.52857 -0.04892,1.0552 -0.08914,1.58191 -0.04624,0.41477 -0.03279,0.83073 0.04013,1.24105 0.04145,0.22513 0.144044,0.41162 0.299209,0.57551 0.178859,0.17524 0.399764,0.29382 0.622747,0.40248 0.307033,0.14333 0.632193,0.24009 0.958419,0.32833 0.244388,0.0643 0.491276,0.11712 0.74087,0.15611 2.798988,0.44933 2.587176,1.76878 -0.211812,1.31946 v 0 c -0.295912,-0.0484 -0.589603,-0.10797 -0.879348,-0.18595 -0.409128,-0.11153 -0.815985,-0.23631 -1.199628,-0.41963 -0.37627,-0.18739 -0.740122,-0.40234 -1.029814,-0.71272 -0.311624,-0.36002 -0.535168,-0.76503 -0.618117,-1.23978 -0.08537,-0.51845 -0.113464,-1.04284 -0.05513,-1.56661 0.03874,-0.50724 0.08169,-1.01433 0.08596,-1.52339 0.01736,-0.53577 0.03642,-1.07149 0.0617,-1.60695 0.02572,-0.53577 0.05415,-1.07142 0.09069,-1.60657 0.03546,-0.51983 0.08127,-1.03947 0.0922,-1.56054 0.01423,-0.52987 0.02988,-1.05971 0.05072,-1.58937 0.02114,-0.52773 0.04438,-1.05539 0.07538,-1.58265 0.03138,-0.52431 0.06599,-1.04847 0.111649,-1.57176 0.04435,-0.50309 0.09629,-1.00544 0.140692,-1.50851 0.02909,-0.50364 0.06146,-1.00711 0.102926,-1.50991 0.03984,-0.48964 0.08434,-0.97909 0.09029,-1.47068 0.01852,-0.50522 0.04081,-1.01029 0.05625,-1.51561 0.0083,-0.52527 -0.01392,-1.0505 -0.02151,-1.5757 -0.01225,-0.5346 -0.02572,-1.06918 -0.04354,-1.60363 -0.01812,-0.53471 -0.03805,-1.06936 -0.06438,-1.60373 -0.0268,-0.53521 -0.05631,-1.0703 -0.09489,-1.60481 -0.03999,-0.54785 -0.08617,-1.09518 -0.130935,-1.64266 -0.03953,-0.58919 -0.05305,-1.17978 -0.08868,-1.76925 -0.03316,-0.59724 -0.06871,-1.19441 -0.117641,-1.79061 -0.04994,-0.60077 -0.104881,-1.20115 -0.172623,-1.80021 -0.07225,-0.64191 -0.150619,-1.28317 -0.20099,-1.9273 -0.06305,-0.64721 -0.134279,-1.2936 -0.221753,-1.93801 -0.0881,-0.65228 -0.173865,-1.30468 -0.253772,-1.95802 -0.09019,-0.65599 -0.188479,-1.31086 -0.266552,-1.96846 -0.0847,-0.6379 -0.166357,-1.27605 -0.247224,-1.91442 -0.08414,-0.57907 -0.18347,-1.15553 -0.295217,-1.72993 -0.08554,-0.49164 -0.18225,-0.98149 -0.311676,-1.46374 -0.104648,-0.41198 -0.203928,-0.82516 -0.320408,-1.23406 -0.07949,-0.27838 -0.149985,-0.55961 -0.244875,-0.83326 -0.778785,-2.72575 0.506146,-3.09287 1.284931,-0.36712 z"
       inkscape:connector-curvature="0" />
    <path
       style="opacity:1;fill:#000000;fill-opacity:1;fill-rule:nonzero;stroke:#000000;stroke-width:0.1;stroke-linecap:round;stroke-linejoin:round;stroke-miterlimit:4;stroke-dasharray:none;stroke-dashoffset:0;stroke-opacity:1;paint-order:markers fill stroke"
       id="path8178"
       d="m 46.198485,225.77148 c 0.284134,-0.0478 0.567632,-0.0984 0.853469,-0.13685 0.489276,-0.0626 0.981499,-0.0975 1.473475,-0.13063 0.562547,-0.0488 1.124226,-0.10524 1.684629,-0.17428 0.586721,-0.0741 1.169008,-0.17472 1.75709,-0.23861 0.09813,-0.007 0.196255,-0.0139 0.294383,-0.0208 2.828068,-0.19553 2.920243,1.13763 0.09217,1.33316 v 0 c -0.08091,0.005 -0.161822,0.0109 -0.242731,0.0163 -0.581599,0.0627 -1.157126,0.1647 -1.737577,0.23635 -0.584904,0.072 -1.171147,0.13105 -1.758336,0.18129 -0.462757,0.0311 -0.925777,0.0634 -1.386052,0.12185 -0.281911,0.0375 -0.561118,0.089 -0.841534,0.13521 -2.806332,0.4009 -2.995318,-0.92201 -0.188989,-1.32292 z"
       inkscape:connector-curvature="0" />
    <path
       style="opacity:1;fill:#000000;fill-opacity:1;fill-rule:nonzero;stroke:#000000;stroke-width:0.1;stroke-linecap:round;stroke-linejoin:round;stroke-miterlimit:4;stroke-dasharray:none;stroke-dashoffset:0;stroke-opacity:1;paint-order:markers fill stroke"
       id="path8180"
       d="m 63.209243,220.50557 c 0.01042,-0.14347 -0.03408,-0.27424 -0.100618,-0.3991 -0.0978,-0.18948 -0.251685,-0.33238 -0.417483,-0.46151 -0.19561,-0.12779 -0.414343,-0.20056 -0.642549,-0.24205 -0.266764,-0.0383 -0.520184,0.0206 -0.767588,0.1147 -0.345813,0.13248 -0.619903,0.37669 -0.878419,0.63375 -0.32615,0.34691 -0.547847,0.76766 -0.75061,1.19381 -0.247669,0.51792 -0.379452,1.07374 -0.482894,1.63491 -0.09717,0.60853 -0.101856,1.22474 -0.0582,1.8378 0.05046,0.61305 0.207124,1.2075 0.39488,1.79079 0.188677,0.55848 0.451107,1.08604 0.748104,1.59375 0.276709,0.47127 0.616548,0.90001 0.983718,1.30319 0.31418,0.34142 0.674384,0.62952 1.078246,0.85638 0.330997,0.19219 0.693108,0.27232 1.070862,0.29275 0.38491,0.003 0.763754,-0.0667 1.131869,-0.17405 0.299482,-0.0871 0.572156,-0.23293 0.830484,-0.40444 2.374445,-1.54862 3.10447,-0.42929 0.730025,1.11933 v 0 c -0.372919,0.24033 -0.764225,0.44783 -1.193453,0.57006 -0.516895,0.14547 -1.047774,0.23968 -1.587145,0.22253 -0.579652,-0.0427 -1.139296,-0.17096 -1.647013,-0.46668 -0.521547,-0.30285 -0.997178,-0.66975 -1.403702,-1.11807 -0.428188,-0.47366 -0.82586,-0.97559 -1.148569,-1.52828 -0.343969,-0.59245 -0.649126,-1.20719 -0.86604,-1.8587 -0.218974,-0.68613 -0.399177,-1.38574 -0.455438,-2.1065 -0.04878,-0.72541 -0.04242,-1.45436 0.07744,-2.1736 0.126108,-0.67602 0.292171,-1.34426 0.591206,-1.96764 0.271401,-0.56526 0.577675,-1.11642 1.018767,-1.56971 0.398508,-0.38935 0.830575,-0.74232 1.360361,-0.9377 0.4821,-0.16993 0.977802,-0.25895 1.488342,-0.16814 0.434956,0.0927 0.852522,0.23964 1.212707,0.50877 0.319421,0.25984 0.605626,0.55408 0.78808,0.92886 0.141152,0.30813 0.24571,0.63098 0.230973,0.97479 0,2.83482 -1.336347,2.83482 -1.336347,0 z"
       inkscape:connector-curvature="0" />
    <path
       style="opacity:1;fill:#000000;fill-opacity:1;fill-rule:nonzero;stroke:#000000;stroke-width:0.1;stroke-linecap:round;stroke-linejoin:round;stroke-miterlimit:4;stroke-dasharray:none;stroke-dashoffset:0;stroke-opacity:1;paint-order:markers fill stroke"
       id="path8182"
       d="m 241.7615,151.2191 c 0.24264,0.033 0.48678,0.053 0.73085,0.0718 0.33642,0.0349 0.6744,0.0203 1.01168,0.0113 0.40627,-0.002 0.81083,-0.0285 1.21553,-0.0613 0.47424,-0.0487 0.94685,-0.0762 1.42225,-0.035 0.48101,0.0501 0.90805,0.24649 1.30136,0.51751 0.34812,0.25636 0.60488,0.60345 0.84776,0.95548 0.2498,0.36874 0.4325,0.77482 0.59494,1.18776 0.16488,0.43762 0.29079,0.88857 0.38282,1.34672 0.084,0.49504 0.13019,0.99545 0.17461,1.49527 0.0447,0.5125 0.0768,1.02595 0.10505,1.53958 0.0327,0.55072 0.0183,1.10293 0.0111,1.65422 -0.008,0.53658 -0.0141,1.07317 -0.02,1.60977 -0.009,0.54208 -0.003,1.08439 -0.0224,1.62621 -0.0279,0.56236 -0.0593,1.12452 -0.0864,1.68691 -0.0264,0.55293 -0.0468,1.10611 -0.0653,1.65935 -0.0327,0.55783 -0.0792,1.11473 -0.11804,1.67217 -0.0373,0.53946 -0.0661,1.07945 -0.0923,1.61954 -0.0256,0.53765 -0.0451,1.07556 -0.0627,1.61351 -0.007,0.54904 -0.0505,1.09628 -0.0902,1.64362 -0.0392,0.53288 -0.0705,1.06628 -0.0987,1.59984 -0.0277,0.53259 -0.0487,1.06551 -0.0678,1.59848 -0.0188,0.53325 -0.033,1.06664 -0.0459,1.60006 -0.0127,0.53368 -0.0223,1.06744 -0.031,1.6012 -0.009,0.53397 -0.0151,1.06798 -0.0209,1.60198 -0.006,0.53416 -0.0102,1.06834 -0.0141,1.60252 -0.004,0.53428 -0.007,1.06857 -0.01,1.60287 -0.003,0.53436 -0.005,1.06874 -0.006,1.60311 -0.002,0.53442 -0.003,1.06885 -0.004,1.60328 0.0145,0.52412 0.0444,1.04769 0.0686,1.57143 0.0248,0.53753 0.0441,1.07529 0.0615,1.6131 0.0171,0.53683 0.03,1.07378 0.0418,1.61075 0.0115,0.53611 0.0202,1.07228 0.0281,1.60845 0.008,0.53561 0.0136,1.07124 0.019,1.60688 0.0204,0.53778 -0.0182,1.07478 -0.0256,1.61221 0.003,0.51336 0.0114,1.02611 -0.005,1.53929 -0.0316,0.50334 -0.0222,1.00735 -0.0137,1.51118 0.01,0.52155 0.0185,1.04312 0.0262,1.56471 0.005,0.53327 0.0209,1.06653 0.0108,1.59977 -0.0265,0.51061 -0.0367,1.0208 -0.0311,1.53197 0.008,0.4929 -0.0536,0.97794 -0.20147,1.44753 -0.14976,0.43278 -0.43029,0.78133 -0.75949,1.09032 -0.28449,0.28232 -0.61403,0.50703 -0.9603,0.70548 -0.38011,0.20999 -0.78936,0.35606 -1.20218,0.48624 -0.44481,0.122 -0.90286,0.18408 -1.35938,0.24316 -0.43347,0.0593 -0.8717,0.0762 -1.30226,0.1553 -0.0569,0.0125 -0.11385,0.025 -0.17077,0.0374 -2.7706,0.59999 -3.05344,-0.70608 -0.28284,-1.30607 v 0 c 0.0729,-0.0156 0.14589,-0.0313 0.21884,-0.0469 0.4525,-0.079 0.91011,-0.10942 1.36583,-0.16508 0.37898,-0.0489 0.75909,-0.0991 1.13013,-0.19276 0.32279,-0.1009 0.64378,-0.2119 0.94231,-0.37311 0.25945,-0.14571 0.50385,-0.31348 0.71437,-0.52578 0.1657,-0.14816 0.31406,-0.3119 0.39531,-0.52275 0.114,-0.32701 0.13445,-0.67395 0.13563,-1.01834 -0.006,-0.52493 0.004,-1.04901 0.0313,-1.57333 0.011,-0.5177 -0.007,-1.03552 -0.0109,-1.55325 -0.008,-0.52075 -0.0165,-1.04148 -0.0262,-1.56219 -0.009,-0.52593 -0.0179,-1.05209 0.0143,-1.57752 0.0168,-0.50504 0.006,-1.00967 0.005,-1.51491 0.008,-0.52647 0.0446,-1.05247 0.0255,-1.57928 -0.005,-0.5335 -0.0111,-1.06699 -0.0189,-1.60047 -0.008,-0.533 -0.0165,-1.066 -0.028,-1.59895 -0.0116,-0.53229 -0.0244,-1.06457 -0.0414,-1.59672 -0.0172,-0.53161 -0.0362,-1.06317 -0.0607,-1.5945 -0.0253,-0.54535 -0.057,-1.09052 -0.0701,-1.63633 0.001,-0.53492 0.003,-1.06983 0.004,-1.60475 0.002,-0.5351 0.004,-1.0702 0.006,-1.6053 0.003,-0.53537 0.006,-1.07074 0.01,-1.6061 0.004,-0.53577 0.008,-1.07155 0.0142,-1.6073 0.006,-0.53637 0.0124,-1.07274 0.021,-1.60908 0.009,-0.53726 0.0184,-1.07451 0.0312,-1.6117 0.013,-0.53859 0.0274,-1.07715 0.0463,-1.61557 0.0194,-0.54054 0.0407,-1.08103 0.0688,-1.6212 0.0287,-0.54224 0.0605,-1.08431 0.1003,-1.62585 0.0384,-0.52982 0.0814,-1.05949 0.0874,-1.59097 0.0179,-0.54487 0.0376,-1.08969 0.0636,-1.63425 0.0266,-0.54951 0.056,-1.0989 0.094,-1.64776 0.0377,-0.54142 0.0823,-1.08236 0.11556,-1.62407 0.0188,-0.55973 0.0394,-1.11941 0.0661,-1.67883 0.0268,-0.55741 0.0578,-1.11459 0.0857,-1.67194 0.0202,-0.53019 0.012,-1.06102 0.0216,-1.59148 0.006,-0.53756 0.0124,-1.07512 0.02,-1.61267 0.007,-0.52101 0.0213,-1.04295 -0.009,-1.56344 -0.0274,-0.49866 -0.0585,-0.99714 -0.10183,-1.49471 -0.0402,-0.4529 -0.0817,-0.90627 -0.15467,-1.35529 -0.0729,-0.38072 -0.18277,-0.75369 -0.316,-1.11763 -0.12404,-0.31856 -0.26159,-0.63302 -0.45214,-0.91844 -0.15176,-0.22225 -0.3058,-0.44877 -0.51652,-0.62007 -0.19603,-0.14496 -0.41018,-0.24885 -0.65535,-0.27895 -0.39742,-0.0414 -0.79325,0.003 -1.19001,0.0364 -0.4288,0.0347 -0.85761,0.0624 -1.28803,0.0652 -0.38341,0.0102 -0.76763,0.0237 -1.15008,-0.0148 -0.27283,-0.0211 -0.5457,-0.0439 -0.81688,-0.0813 -2.80633,-0.40091 -2.61734,-1.72382 0.18899,-1.32292 z"
       inkscape:connector-curvature="0" />
    <path
       style="opacity:1;fill:#000000;fill-opacity:1;fill-rule:nonzero;stroke:#000000;stroke-width:0.1;stroke-linecap:round;stroke-linejoin:round;stroke-miterlimit:4;stroke-dasharray:none;stroke-dashoffset:0;stroke-opacity:1;paint-order:markers fill stroke"
       id="path8184"
       d="m 247.51411,219.6575 c -0.0786,-0.0784 -0.17063,-0.0994 -0.27769,-0.11287 -0.19882,-0.017 -0.38684,0.0188 -0.57358,0.0838 -0.25419,0.11857 -0.46672,0.30066 -0.66534,0.4951 -0.25271,0.2762 -0.44646,0.59655 -0.59324,0.93948 -0.17786,0.42372 -0.26702,0.87496 -0.32935,1.3281 -0.0805,0.51899 -0.0451,1.04068 0.028,1.55752 0.088,0.57167 0.26821,1.12012 0.47898,1.6566 0.203,0.51602 0.48162,0.99543 0.79791,1.44915 0.26276,0.37974 0.59531,0.69131 0.96275,0.96633 0.32004,0.22918 0.69022,0.34684 1.0708,0.42752 0.42277,0.0761 0.85061,0.0562 1.27577,0.0175 0.47588,-0.0439 0.93318,-0.17162 1.38774,-0.31156 2.70952,-0.8335 3.10243,0.44378 0.39291,1.27727 v 0 c -0.54423,0.16729 -1.09391,0.31353 -1.66322,0.36547 -0.56071,0.0483 -1.12501,0.0661 -1.68067,-0.0437 -0.56692,-0.12809 -1.11553,-0.31674 -1.58839,-0.66594 -0.47834,-0.36333 -0.9128,-0.77446 -1.2559,-1.27154 -0.37324,-0.54071 -0.70442,-1.10992 -0.94417,-1.72362 -0.24749,-0.6347 -0.45718,-1.28416 -0.55822,-1.96021 -0.0871,-0.63979 -0.12655,-1.28553 -0.0275,-1.92732 0.0825,-0.57478 0.19972,-1.14629 0.43052,-1.68229 0.22457,-0.49735 0.50404,-0.96703 0.88735,-1.36043 0.3481,-0.33271 0.72668,-0.63411 1.18282,-0.80523 0.40538,-0.12592 0.81881,-0.19132 1.24284,-0.12317 0.36097,0.0788 0.70028,0.20871 0.96388,0.479 2.00452,2.00452 1.05958,2.94946 -0.94494,0.94494 z"
       inkscape:connector-curvature="0" />
    <path
       style="opacity:1;fill:#000000;fill-opacity:1;fill-rule:nonzero;stroke:#000000;stroke-width:0.1;stroke-linecap:round;stroke-linejoin:round;stroke-miterlimit:4;stroke-dasharray:none;stroke-dashoffset:0;stroke-opacity:1;paint-order:markers fill stroke"
       id="path8186"
       d="m 82.185379,186.40577 c -0.0092,0.25257 0.01132,0.50368 0.0307,0.75522 0.0313,0.36889 0.07759,0.73734 0.135424,1.10306 0.03587,0.21202 0.06989,0.42434 0.103275,0.63676 0.439994,2.80047 -0.880158,3.00789 -1.320152,0.20742 v 0 c -0.03341,-0.21275 -0.0676,-0.42536 -0.103426,-0.63772 -0.06203,-0.40036 -0.114215,-0.8031 -0.147521,-1.20687 -0.02199,-0.2856 -0.04331,-0.57116 -0.03465,-0.85787 0,-2.83482 1.336349,-2.83482 1.33635,0 z"
       inkscape:connector-curvature="0" />
    <path
       style="opacity:1;fill:#000000;fill-opacity:1;fill-rule:nonzero;stroke:#000000;stroke-width:0.1;stroke-linecap:round;stroke-linejoin:round;stroke-miterlimit:4;stroke-dasharray:none;stroke-dashoffset:0;stroke-opacity:1;paint-order:markers fill stroke"
       id="path8188"
       d="m 64.535697,186.48948 c 0.05873,0.25595 0.135118,0.50677 0.213789,0.75714 0.109887,0.35927 0.225875,0.71667 0.342469,1.07383 0.08178,0.26513 0.168058,0.52887 0.263943,0.78923 0.974608,2.66202 -0.280281,3.12145 -1.254887,0.45943 v 0 c -0.100386,-0.27551 -0.193723,-0.55351 -0.279435,-0.83398 -0.118115,-0.36185 -0.235458,-0.724 -0.346985,-1.08792 -0.08214,-0.26142 -0.162785,-0.5233 -0.223824,-0.79061 -0.778785,-2.72575 0.506143,-3.09287 1.28493,-0.36712 z"
       inkscape:connector-curvature="0" />
    <path
       style="opacity:1;fill:#000000;fill-opacity:1;fill-rule:nonzero;stroke:#000000;stroke-width:0.1;stroke-linecap:round;stroke-linejoin:round;stroke-miterlimit:4;stroke-dasharray:none;stroke-dashoffset:0;stroke-opacity:1;paint-order:markers fill stroke"
       id="path8190"
       d="m 74.167293,186.94031 c 5.29e-4,0.25529 0.03724,0.5091 0.07258,0.76148 0.0661,0.39358 0.166868,0.77996 0.252659,1.16947 0.609322,2.76856 -0.695788,3.0558 -1.305113,0.28724 v 0 c -0.09309,-0.42328 -0.203213,-0.8431 -0.271005,-1.27155 -0.04385,-0.31373 -0.08557,-0.62927 -0.08546,-0.94664 0,-2.83482 1.336347,-2.83482 1.336347,0 z"
       inkscape:connector-curvature="0" />
    <path
       style="opacity:1;fill:#000000;fill-opacity:1;fill-rule:nonzero;stroke:#000000;stroke-width:0.1;stroke-linecap:round;stroke-linejoin:round;stroke-miterlimit:4;stroke-dasharray:none;stroke-dashoffset:0;stroke-opacity:1;paint-order:markers fill stroke"
       id="path8192"
       d="m 201.60804,184.49543 c 0.1121,0.24373 0.23025,0.48448 0.33726,0.73053 0.14995,0.35616 0.28533,0.71729 0.4023,1.08557 0.13072,0.42226 0.2224,0.85487 0.30488,1.28868 0.0507,0.2895 0.0241,0.15051 0.0791,0.41716 0.5689,2.77715 -0.74026,3.04533 -1.30916,0.26818 v 0 c -0.0608,-0.2984 -0.0334,-0.15295 -0.0828,-0.43622 -0.0723,-0.38177 -0.15191,-0.76268 -0.26601,-1.13452 -0.10249,-0.3251 -0.22281,-0.6432 -0.35447,-0.95762 -0.0965,-0.22397 -0.20564,-0.44205 -0.30631,-0.66413 -1.26777,-2.53554 -0.0725,-3.13317 1.19527,-0.59763 z"
       inkscape:connector-curvature="0" />
    <path
       style="opacity:1;fill:#000000;fill-opacity:1;fill-rule:nonzero;stroke:#000000;stroke-width:0.1;stroke-linecap:round;stroke-linejoin:round;stroke-miterlimit:4;stroke-dasharray:none;stroke-dashoffset:0;stroke-opacity:1;paint-order:markers fill stroke"
       id="path8194"
       d="m 237.46897,182.664 c 0.0174,0.20979 0.0572,0.41598 0.0944,0.62298 0.071,0.31352 0.13819,0.62753 0.21841,0.93883 0.0668,0.25273 0.12106,0.5084 0.17276,0.76455 0.55951,2.77905 -0.75054,3.04281 -1.31007,0.26376 v 0 c -0.0468,-0.23289 -0.096,-0.46531 -0.15681,-0.69502 -0.0884,-0.34331 -0.16326,-0.68952 -0.23956,-1.0357 -0.0512,-0.28472 -0.10353,-0.56962 -0.1155,-0.8594 0,-2.83482 1.33635,-2.83482 1.33635,0 z"
       inkscape:connector-curvature="0" />
    <path
       style="opacity:1;fill:#000000;fill-opacity:1;fill-rule:nonzero;stroke:#000000;stroke-width:0.1;stroke-linecap:round;stroke-linejoin:round;stroke-miterlimit:4;stroke-dasharray:none;stroke-dashoffset:0;stroke-opacity:1;paint-order:markers fill stroke"
       id="path8196"
       d="m 231.0545,184.00825 c 0.005,0.2665 0.0366,0.53238 0.0575,0.79819 0.0474,0.37287 0.096,0.7455 0.13725,1.11911 0.3109,2.81772 -1.01739,2.96428 -1.32829,0.14656 v 0 c -0.0427,-0.38764 -0.0952,-0.774 -0.14122,-1.16123 -0.0236,-0.30054 -0.0585,-0.60105 -0.0615,-0.90263 0,-2.83482 1.33634,-2.83482 1.33634,0 z"
       inkscape:connector-curvature="0" />
    <path
       style="opacity:1;fill:#000000;fill-opacity:1;fill-rule:nonzero;stroke:#000000;stroke-width:0.1;stroke-linecap:round;stroke-linejoin:round;stroke-miterlimit:4;stroke-dasharray:none;stroke-dashoffset:0;stroke-opacity:1;paint-order:markers fill stroke"
       id="path8198"
       d="m 207.80325,184.70766 c 0.0291,0.25915 0.0903,0.51358 0.1597,0.76454 0.11899,0.39694 0.22736,0.79692 0.34192,1.19513 0.0674,0.2269 0.12773,0.45572 0.18742,0.68473 0.71418,2.74338 -0.57906,3.08005 -1.29325,0.33667 v 0 c -0.0567,-0.21827 -0.11433,-0.43632 -0.1786,-0.65254 -0.11579,-0.40386 -0.22632,-0.8092 -0.34659,-1.21178 -0.0826,-0.30499 -0.15721,-0.61335 -0.19352,-0.92776 -0.4009,-2.80633 0.92201,-2.99532 1.32292,-0.18899 z"
       inkscape:connector-curvature="0" />
    <path
       style="opacity:1;fill:#000000;fill-opacity:1;fill-rule:nonzero;stroke:#000000;stroke-width:0.1;stroke-linecap:round;stroke-linejoin:round;stroke-miterlimit:4;stroke-dasharray:none;stroke-dashoffset:0;stroke-opacity:1;paint-order:markers fill stroke"
       id="path8200"
       d="m 215.2553,184.53895 c 0.11789,0.27566 0.18504,0.56828 0.26647,0.8557 0.0827,0.29701 0.15783,0.59594 0.23849,0.89352 0.74159,2.7361 -0.54822,3.08569 -1.28981,0.34959 v 0 c -0.0795,-0.29319 -0.15361,-0.58767 -0.23485,-0.88036 -0.0652,-0.23188 -0.11818,-0.46811 -0.2086,-0.69204 -1.11669,-2.60561 0.11161,-3.13203 1.2283,-0.52641 z"
       inkscape:connector-curvature="0" />
    <path
       style="opacity:1;fill:#000000;fill-opacity:1;fill-rule:nonzero;stroke:#000000;stroke-width:0.1;stroke-linecap:round;stroke-linejoin:round;stroke-miterlimit:4;stroke-dasharray:none;stroke-dashoffset:0;stroke-opacity:1;paint-order:markers fill stroke"
       id="path8202"
       d="m 225.70911,184.53488 c 0,0.25796 0,0.51592 0,0.77387 0.007,0.24886 -0.0156,0.49666 -0.0461,0.74322 -0.36408,2.81135 -1.68936,2.63972 -1.32529,-0.17162 v 0 c 0.0263,-0.18929 0.04,-0.38033 0.0351,-0.5716 0,-0.25795 0,-0.51591 0,-0.77387 0,-2.83482 1.33634,-2.83482 1.33634,0 z"
       inkscape:connector-curvature="0" />
    <path
       style="opacity:1;fill:#000000;fill-opacity:1;fill-rule:nonzero;stroke:#000000;stroke-width:0.1;stroke-linecap:round;stroke-linejoin:round;stroke-miterlimit:4;stroke-dasharray:none;stroke-dashoffset:0;stroke-opacity:1;paint-order:markers fill stroke"
       id="path8204"
       d="m 221.16553,185.60396 c 0.002,0.25754 0.0129,0.51455 0.0135,0.77231 0.009,0.31387 -0.0112,0.62635 -0.0483,0.93778 -0.34771,2.81342 -1.67397,2.64951 -1.32626,-0.16391 v 0 c 0.0332,-0.25579 0.0449,-0.51278 0.0382,-0.77074 -5.3e-4,-0.25877 -0.0114,-0.51681 -0.0135,-0.77544 0,-2.83482 1.33634,-2.83482 1.33634,0 z"
       inkscape:connector-curvature="0" />
    <path
       style="opacity:1;fill:#000000;fill-opacity:1;fill-rule:nonzero;stroke:#000000;stroke-width:0.1;stroke-linecap:round;stroke-linejoin:round;stroke-miterlimit:4;stroke-dasharray:none;stroke-dashoffset:0;stroke-opacity:1;paint-order:markers fill stroke"
       id="path8206"
       d="m 217.14659,184.35132 c 0.09,0.25001 0.16212,0.50602 0.24071,0.75979 0.10527,0.36867 0.20292,0.73963 0.29925,1.11078 0.71169,2.74403 -0.58187,3.07952 -1.29355,0.33549 v 0 c -0.091,-0.35112 -0.18372,-0.70193 -0.28224,-1.05098 -0.0815,-0.26317 -0.15744,-0.52806 -0.2491,-0.78796 -0.77878,-2.72574 0.50615,-3.09287 1.28493,-0.36712 z"
       inkscape:connector-curvature="0" />
    <path
       style="opacity:1;fill:#000000;fill-opacity:1;fill-rule:nonzero;stroke:#000000;stroke-width:0.1;stroke-linecap:round;stroke-linejoin:round;stroke-miterlimit:4;stroke-dasharray:none;stroke-dashoffset:0;stroke-opacity:1;paint-order:markers fill stroke"
       id="path8208"
       d="m 222.18779,185.02997 c 0.10391,0.23965 0.198,0.48394 0.29016,0.72848 0.0849,0.2252 0.14619,0.4573 0.19783,0.69196 0.59121,2.77248 -0.71575,3.05119 -1.30696,0.2787 v 0 c -0.0343,-0.17038 -0.0824,-0.33725 -0.14185,-0.50069 -0.0753,-0.20134 -0.15548,-0.40099 -0.23444,-0.60082 -1.26778,-2.53554 -0.0725,-3.13317 1.19526,-0.59763 z"
       inkscape:connector-curvature="0" />
    <path
       style="opacity:1;fill:#000000;fill-opacity:1;fill-rule:nonzero;stroke:#000000;stroke-width:0.1;stroke-linecap:round;stroke-linejoin:round;stroke-miterlimit:4;stroke-dasharray:none;stroke-dashoffset:0;stroke-opacity:1;paint-order:markers fill stroke"
       id="path8210"
       d="m 219.56192,184.53488 c 0.0271,0.22252 0.0723,0.44259 0.10933,0.66376 0.0375,0.24261 0.0209,0.11496 0.048,0.38318 0.26931,2.822 -1.06099,2.94895 -1.3303,0.12695 v 0 c -0.0162,-0.18582 -0.005,-0.0891 -0.0357,-0.2899 -0.049,-0.29361 -0.11457,-0.58574 -0.1276,-0.88399 0,-2.83482 1.33635,-2.83482 1.33635,0 z"
       inkscape:connector-curvature="0" />
    <path
       style="opacity:1;fill:#000000;fill-opacity:1;fill-rule:nonzero;stroke:#000000;stroke-width:0.1;stroke-linecap:round;stroke-linejoin:round;stroke-miterlimit:4;stroke-dasharray:none;stroke-dashoffset:0;stroke-opacity:1;paint-order:markers fill stroke"
       id="path8214"
       d="m 228.36718,184.36211 c -0.0266,0.26331 -0.069,0.52422 -0.11097,0.78542 -0.0417,0.27196 -0.0819,0.54439 -0.0994,0.81907 -0.19549,2.82807 -1.52866,2.73591 -1.33316,-0.0922 v 0 c 0.0229,-0.31468 0.0631,-0.62747 0.11315,-0.939 0.0408,-0.25358 0.0818,-0.50666 0.10747,-0.76232 0.4009,-2.80633 1.72382,-2.61734 1.32291,0.18899 z"
       inkscape:connector-curvature="0" />
    <path
       style="opacity:1;fill:#000000;fill-opacity:1;fill-rule:nonzero;stroke:#000000;stroke-width:0.1;stroke-linecap:round;stroke-linejoin:round;stroke-miterlimit:4;stroke-dasharray:none;stroke-dashoffset:0;stroke-opacity:1;paint-order:markers fill stroke"
       id="path8216"
       d="m 224.0956,184.61859 c 0.0776,0.27009 0.11619,0.54881 0.17312,0.82339 0.0463,0.22034 0.023,0.10771 0.0697,0.33792 0.56286,2.77838 -0.74688,3.04371 -1.30974,0.26533 v 0 c -0.0452,-0.22317 -0.0222,-0.11145 -0.0691,-0.33517 -0.049,-0.24156 -0.0846,-0.48607 -0.14887,-0.72434 -0.77878,-2.72575 0.50615,-3.09288 1.28493,-0.36713 z"
       inkscape:connector-curvature="0" />
    <path
       style="opacity:1;fill:#000000;fill-opacity:1;fill-rule:nonzero;stroke:#000000;stroke-width:0.1;stroke-linecap:round;stroke-linejoin:round;stroke-miterlimit:4;stroke-dasharray:none;stroke-dashoffset:0;stroke-opacity:1;paint-order:markers fill stroke"
       id="path8218"
       d="m 143.12283,185.60396 c 0.003,0.2468 -0.007,0.49387 0.007,0.74036 0.0269,0.35742 0.0536,0.71482 0.0761,1.07256 0.0257,0.26322 0.0568,0.52587 0.0855,0.78878 0.30787,2.81805 -1.02057,2.96318 -1.32845,0.14513 v 0 c -0.031,-0.28334 -0.0651,-0.56636 -0.0908,-0.85024 -0.0228,-0.36328 -0.0504,-0.72619 -0.077,-1.0892 -0.0123,-0.26902 -0.009,-0.53812 -0.009,-0.80739 0,-2.83482 1.33635,-2.83482 1.33635,0 z"
       inkscape:connector-curvature="0" />
    <path
       style="opacity:1;fill:#000000;fill-opacity:1;fill-rule:nonzero;stroke:#000000;stroke-width:0.1;stroke-linecap:round;stroke-linejoin:round;stroke-miterlimit:4;stroke-dasharray:none;stroke-dashoffset:0;stroke-opacity:1;paint-order:markers fill stroke"
       id="path8220"
       d="m 152.19537,185.69846 c -0.0398,0.22358 -0.0387,0.44914 -0.0372,0.67523 0.004,0.29401 0.008,0.58801 0.0123,0.88202 0.0384,2.83456 -1.29778,2.85268 -1.33622,0.0181 v 0 c -0.004,-0.29729 -0.009,-0.59457 -0.0124,-0.89186 -0.002,-0.29191 0.002,-0.58375 0.0506,-0.87251 0.40091,-2.80633 1.72383,-2.61734 1.32292,0.18899 z"
       inkscape:connector-curvature="0" />
    <path
       style="opacity:1;fill:#000000;fill-opacity:1;fill-rule:nonzero;stroke:#000000;stroke-width:0.1;stroke-linecap:round;stroke-linejoin:round;stroke-miterlimit:4;stroke-dasharray:none;stroke-dashoffset:0;stroke-opacity:1;paint-order:markers fill stroke"
       id="path8222"
       d="m 138.84771,186.04401 c 0.0278,0.25545 0.0793,0.50733 0.12073,0.76081 0.0399,0.19828 0.0189,0.095 0.063,0.30972 0.57008,2.77691 -0.73896,3.04565 -1.30905,0.26874 v 0 c -0.0489,-0.23838 -0.0246,-0.11727 -0.0729,-0.36335 -0.0427,-0.26216 -0.0957,-0.52278 -0.12473,-0.78693 -0.4009,-2.80634 0.92201,-2.99532 1.32292,-0.18899 z"
       inkscape:connector-curvature="0" />
    <path
       style="opacity:1;fill:#000000;fill-opacity:1;fill-rule:nonzero;stroke:#000000;stroke-width:0.1;stroke-linecap:round;stroke-linejoin:round;stroke-miterlimit:4;stroke-dasharray:none;stroke-dashoffset:0;stroke-opacity:1;paint-order:markers fill stroke"
       id="path8224"
       d="m 147.93368,186.1385 c 0,0.25796 0,0.51591 0,0.77387 0,0.17147 0,0.34293 0,0.51439 0,2.83482 -1.33635,2.83482 -1.33635,0 v 0 c 0,-0.17146 0,-0.34292 0,-0.51439 0,-0.25796 0,-0.51591 0,-0.77387 0,-2.83482 1.33635,-2.83482 1.33635,0 z"
       inkscape:connector-curvature="0" />
    <path
       style="opacity:1;fill:#da03ae;fill-opacity:1;fill-rule:nonzero;stroke:#da03ae;stroke-width:0.1;stroke-linecap:round;stroke-linejoin:round;stroke-miterlimit:4;stroke-dasharray:none;stroke-dashoffset:0;stroke-opacity:1;paint-order:markers fill stroke"
       id="path8228"
       d="m 222.77034,183.37131 c 0.0631,0.25162 0.10657,0.5077 0.1473,0.76374 0.0573,0.3736 0.0944,0.74982 0.12797,1.12615 0.0368,0.42452 0.0619,0.8499 0.0848,1.27535 0.005,0.20895 0.0269,0.4168 0.0479,0.62454 0.28392,2.82056 -1.04571,2.9544 -1.32963,0.13384 v 0 c -0.0229,-0.22848 -0.0464,-0.4571 -0.0527,-0.68681 -0.022,-0.40972 -0.0461,-0.81938 -0.0814,-1.2282 -0.0308,-0.34605 -0.0645,-0.69203 -0.11677,-1.03562 -0.0416,-0.26304 -0.0922,-0.52413 -0.15036,-0.784 -0.4009,-2.80633 0.92202,-2.99532 1.32292,-0.18899 z"
       inkscape:connector-curvature="0" />
    <path
       style="opacity:1;fill:#da03ae;fill-opacity:1;fill-rule:nonzero;stroke:#da03ae;stroke-width:0.1;stroke-linecap:round;stroke-linejoin:round;stroke-miterlimit:4;stroke-dasharray:none;stroke-dashoffset:0;stroke-opacity:1;paint-order:markers fill stroke"
       id="path8230"
       d="m 222.37385,201.20309 c 0.0431,-0.16908 0.0721,-0.34183 0.0864,-0.51567 0.0247,-0.30651 0.015,-0.6135 0.005,-0.92032 -0.0179,-0.39494 -0.0705,-0.78661 -0.12994,-1.17704 -0.0703,-0.40846 -0.16021,-0.8134 -0.25725,-1.21627 -0.0955,-0.37333 -0.21974,-0.73777 -0.37474,-1.09038 -0.0912,-0.18309 -0.19512,-0.36272 -0.34739,-0.50158 -0.1115,-0.0594 5.3e-4,-0.004 0.0659,-0.004 0.12489,-0.0447 0.0396,0.0581 0.008,0.13876 -0.0871,0.24293 -0.11493,0.50167 -0.13362,0.75753 -0.026,0.39955 -0.0155,0.80034 0.004,1.19989 0.0234,0.49879 0.0748,0.99556 0.11843,1.49283 0.0546,0.52121 0.11154,1.04208 0.178,1.56191 0.0563,0.49765 0.14868,0.98989 0.23856,1.48225 0.089,0.45617 0.19345,0.90926 0.30558,1.36026 0.0971,0.40295 0.21743,0.79997 0.35782,1.18985 0.10564,0.2925 0.24498,0.56616 0.42534,0.81894 0.11785,0.14954 0.2493,0.2948 0.42419,0.37626 0.12564,0.0586 0.25142,0.058 0.38549,0.0486 0.14043,-0.0143 0.26149,-0.0794 0.37722,-0.1557 0.13261,-0.0921 0.22955,-0.21588 0.30734,-0.35517 0.0949,-0.16327 0.13219,-0.34155 0.14817,-0.52732 0.008,-0.19425 -0.0384,-0.3831 -0.11662,-0.55955 -0.10066,-0.21956 -0.26225,-0.39392 -0.43693,-0.55636 -0.20278,-0.17913 -0.44157,-0.31035 -0.68588,-0.42336 -0.15799,-0.0735 -0.32305,-0.1242 -0.49707,-0.1344 -1.99689,-0.17473 -1.91453,-1.11607 0.0824,-0.94135 v 0 c 0.28352,0.0285 0.55748,0.0953 0.81554,0.22004 0.3339,0.15785 0.65847,0.34061 0.93283,0.59111 0.26975,0.25622 0.51228,0.53726 0.66203,0.88242 0.13,0.32479 0.21217,0.66356 0.18389,1.01641 -0.0349,0.31872 -0.10699,0.62815 -0.27155,0.90752 -0.15918,0.26788 -0.35557,0.50572 -0.61877,0.67847 -0.25353,0.1571 -0.52289,0.27915 -0.82497,0.30042 -0.30745,0.0171 -0.60514,-0.0166 -0.8846,-0.15633 -0.29993,-0.1657 -0.55362,-0.38722 -0.75466,-0.66678 -0.22694,-0.32401 -0.40934,-0.67151 -0.54279,-1.04476 -0.15026,-0.42016 -0.28128,-0.84719 -0.38548,-1.28124 -0.11664,-0.47027 -0.22582,-0.94259 -0.31808,-1.4183 -0.0929,-0.50891 -0.18785,-1.01778 -0.24629,-1.53212 -0.068,-0.53221 -0.12643,-1.06549 -0.18201,-1.59914 -0.0447,-0.50932 -0.0971,-1.01813 -0.1209,-1.52902 -0.0213,-0.43924 -0.0326,-0.87978 -0.003,-1.31896 0.0284,-0.3535 0.0722,-0.70925 0.20104,-1.04232 0.12588,-0.3018 0.28701,-0.57532 0.61244,-0.69132 0.32318,-0.0584 0.59893,0.002 0.84333,0.23304 0.23563,0.23175 0.42043,0.50294 0.55826,0.80401 0.17619,0.40405 0.3199,0.82069 0.42785,1.24837 0.10295,0.42893 0.1989,0.85991 0.27267,1.29493 0.065,0.4273 0.12147,0.85613 0.14019,1.28839 0.0113,0.34537 0.0204,0.69104 -0.008,1.03596 -0.0222,0.23271 -0.0575,0.46456 -0.11893,0.69049 -0.55069,1.9274 -1.45927,1.66781 -0.90858,-0.25959 z"
       inkscape:connector-curvature="0" />
  </g>
</svg>
