<?xml version="1.0" encoding="UTF-8" standalone="no"?>
<!-- Created with Inkscape (http://www.inkscape.org/) -->

<svg
   xmlns:dc="http://purl.org/dc/elements/1.1/"
   xmlns:cc="http://creativecommons.org/ns#"
   xmlns:rdf="http://www.w3.org/1999/02/22-rdf-syntax-ns#"
   xmlns:svg="http://www.w3.org/2000/svg"
   xmlns="http://www.w3.org/2000/svg"
   xmlns:sodipodi="http://sodipodi.sourceforge.net/DTD/sodipodi-0.dtd"
   xmlns:inkscape="http://www.inkscape.org/namespaces/inkscape"
   width="297mm"
   height="210mm"
   viewBox="0 0 297 210"
   version="1.1"
   id="svg4751"
   inkscape:version="0.92.1 r15371"
   sodipodi:docname="ve.svg">
  <defs
     id="defs4745" />
  <sodipodi:namedview
     id="base"
     pagecolor="#ffffff"
     bordercolor="#666666"
     borderopacity="1.0"
     inkscape:pageopacity="0.0"
     inkscape:pageshadow="2"
     inkscape:zoom="0.98994949"
     inkscape:cx="543.34587"
     inkscape:cy="419.91553"
     inkscape:document-units="mm"
     inkscape:current-layer="layer1"
     showgrid="false"
     inkscape:window-width="1920"
     inkscape:window-height="1046"
     inkscape:window-x="-11"
     inkscape:window-y="-11"
     inkscape:window-maximized="1" />
  <metadata
     id="metadata4748">
    <rdf:RDF>
      <cc:Work
         rdf:about="">
        <dc:format>image/svg+xml</dc:format>
        <dc:type
           rdf:resource="http://purl.org/dc/dcmitype/StillImage" />
        <dc:title></dc:title>
      </cc:Work>
    </rdf:RDF>
  </metadata>
  <g
     inkscape:label="Layer 1"
     inkscape:groupmode="layer"
     id="layer1"
     transform="translate(0,-87)">
    <path
       style="opacity:1;fill:#000000;fill-opacity:1;fill-rule:nonzero;stroke:#000000;stroke-width:0.1;stroke-linecap:round;stroke-linejoin:round;stroke-miterlimit:4;stroke-dasharray:none;stroke-dashoffset:0;stroke-opacity:1;paint-order:markers fill stroke"
       id="path5296"
       d="m 20.551397,188.39647 c 0.243556,0.0669 0.494454,0.10007 0.7443,0.13322 0.437331,0.0621 0.879609,0.0612 1.320293,0.0666 0.594595,0.006 1.188897,-0.0278 1.782974,-0.0495 0.710954,-0.0404 1.421191,-0.0902 2.130635,-0.1514 0.828915,-0.0727 1.655908,-0.16504 2.484567,-0.24089 0.90752,-0.0979 1.815734,-0.18814 2.725139,-0.26657 0.963943,-0.0789 1.926299,-0.17529 2.890248,-0.25441 1.021873,-0.0795 2.04226,-0.17633 3.063954,-0.25825 1.075304,-0.075 2.150306,-0.1529 3.225133,-0.23452 1.129911,-0.0832 2.260965,-0.1481 3.390937,-0.23044 1.171139,-0.0877 2.343425,-0.15815 3.516096,-0.22159 1.192794,-0.0629 2.386303,-0.11059 3.579955,-0.15365 1.218531,-0.0456 2.437207,-0.0784 3.656571,-0.0843 1.20614,-0.002 2.412275,0.003 3.61841,0.007 1.179417,0.0177 2.358498,0.0525 3.53769,0.081 1.147345,0.0457 2.294991,0.0882 3.441605,0.14993 1.145066,0.0657 2.290252,0.12742 3.434477,0.20665 1.142502,0.0813 2.285897,0.14869 3.429645,0.20956 1.141855,0.06 2.284437,0.10453 3.427103,0.14559 1.116725,0.0392 2.233719,0.0701 3.350766,0.0985 1.083916,0.0271 2.167977,0.0477 3.252065,0.0665 1.049017,0.003 2.097971,-0.0145 3.14688,-0.0274 1.051253,-0.0105 2.102305,-0.0196 3.153135,-0.0521 1.040225,-0.0357 2.080503,-0.0694 3.120924,-0.0989 1.048454,-0.027 2.095865,-0.0844 3.143636,-0.12991 1.072301,-0.0367 2.143734,-0.0885 3.215026,-0.14712 1.075918,-0.0602 2.152419,-0.10885 3.229109,-0.15261 1.05459,-0.0422 2.1095,-0.0754 3.1645,-0.10515 1.04548,-0.0442 2.09054,-0.0975 3.13598,-0.14273 1.03359,-0.045 2.06757,-0.0798 3.10165,-0.11117 1.00549,-0.0302 2.01117,-0.0539 3.01689,-0.0753 0.98433,-0.0206 1.96873,-0.0365 2.95316,-0.0508 0.97731,-0.0112 1.95442,-0.0208 2.93128,-0.0534 0.97485,-0.036 1.94978,-0.0696 2.92485,-0.0995 0.96158,-0.0289 1.92334,-0.0513 2.88515,-0.0714 0.96648,-0.0196 1.93305,-0.0347 2.89963,-0.0482 0.96524,-0.0281 1.93002,-0.0699 2.89505,-0.1044 0.9807,-0.0382 1.96218,-0.0527 2.94278,-0.0928 0.9777,-0.0469 1.95539,-0.0935 2.93336,-0.13421 0.9762,-0.0398 1.95273,-0.0708 2.92934,-0.0985 0.9575,-0.027 1.91516,-0.0478 2.87285,-0.0666 0.93066,-0.0149 1.86036,-0.0648 2.79022,-0.10386 0.91589,-0.0388 1.83209,-0.0696 2.74837,-0.0975 0.9017,-0.0269 1.80357,-0.0475 2.70547,-0.0664 0.8751,-0.0152 1.74921,-0.0644 2.62348,-0.10365 0.88117,-0.0394 1.7627,-0.0702 2.64432,-0.0975 0.89134,-0.0308 1.78332,-0.0395 2.67451,-0.0739 0.89704,-0.0417 1.79404,-0.0841 2.69129,-0.12111 0.87845,-0.036 1.75719,-0.0642 2.636,-0.0897 0.86102,-0.0221 1.72193,-0.039 2.58231,-0.0796 0.84259,-0.0431 1.68535,-0.0826 2.52833,-0.1174 0.83817,-0.0339 1.67662,-0.0601 2.51514,-0.0835 0.83974,-0.0387 1.67902,-0.0867 2.51864,-0.12795 0.84295,-0.0409 1.68628,-0.073 2.52973,-0.10145 0.84486,-0.0283 1.68993,-0.0494 2.53503,-0.0687 0.85096,-0.0163 1.70088,-0.0659 2.551,-0.10517 0.86538,-0.0402 1.73114,-0.0708 2.59699,-0.0985 0.88094,-0.0276 1.76206,-0.0484 2.64323,-0.067 0.89107,-0.0186 1.78222,-0.0326 2.67339,-0.0452 0.89141,-0.0125 1.78287,-0.022 2.67434,-0.0305 0.88409,-0.008 1.76821,-0.0147 2.65232,-0.0206 0.87984,-0.006 1.75968,-0.01 2.63952,-0.0139 0.87071,-0.004 1.74142,-0.007 2.61212,-0.009 0.85004,-0.003 1.70008,-0.005 2.55012,-0.006 0.81085,-0.002 1.62169,-0.003 2.43254,-0.004 0.77095,-0.001 1.5419,-0.002 2.31284,-0.003 0.73251,-7.9e-4 1.46501,-0.001 2.19752,-0.002 0.70781,0.002 1.41528,0.003 2.12274,-0.0205 0.71805,-0.0275 1.43612,-0.0541 2.15433,-0.0773 0.70711,-0.0225 1.41436,-0.0404 2.12164,-0.0564 0.68608,-0.0155 1.37223,-0.0273 2.05839,-0.0381 0.6863,-0.0105 1.37262,-0.0185 2.05896,-0.0257 0.67795,-0.004 1.35505,-0.0451 2.03216,-0.0761 0.6996,-0.0321 1.39951,-0.0567 2.09949,-0.079 0.71245,-0.0225 1.42507,-0.039 2.13771,-0.0539 0.7206,-0.0304 1.44063,-0.0727 2.16101,-0.10786 0.73126,-0.0357 1.46289,-0.0631 2.19458,-0.0879 0.71903,-0.0241 1.43823,-0.0424 2.15745,-0.0596 0.69647,-0.016 1.39301,-0.0288 2.08957,-0.0402 0.67909,-0.0109 1.35821,-0.0195 2.03733,-0.0271 0.65576,-0.007 1.31153,-0.013 1.9673,-0.0183 0.63324,-0.005 1.26648,-0.009 1.89973,-0.0123 0.62525,-0.003 1.2505,-0.006 1.87576,-0.008 0.61999,-0.002 1.23998,-0.004 1.85998,-0.006 0.61399,-0.002 1.22798,-0.003 1.84198,-0.004 0.58953,-0.001 1.17906,-0.002 1.76859,-0.003 0.57168,-7.9e-4 1.14336,-0.001 1.71504,-0.002 0.5596,-5.3e-4 1.1192,-7.9e-4 1.6788,-10e-4 0.44196,0.0115 0.88186,-0.0216 1.31866,-0.0859 0.10718,-0.002 0.31157,-0.0918 0.34506,-0.11845 -0.0574,0.0264 -0.11647,0.16263 -0.1189,0.16696 -0.0695,-0.10484 -0.15421,-0.20402 -0.23386,-0.30292 -0.18068,-0.20377 -0.37348,-0.39763 -0.58033,-0.57485 -0.22446,-0.19939 -0.46215,-0.38104 -0.67068,-0.59771 -0.38712,-0.42637 -0.29881,-0.94321 0.14495,-1.28332 0.30182,-0.15124 0.63945,-0.14566 0.96832,-0.13158 0.33446,0.0179 0.6656,0.0648 0.99674,0.11262 0.39783,0.0632 0.7849,0.17322 1.16813,0.29474 0.45819,0.13595 0.83333,0.38859 1.13712,0.75329 0.34655,0.47979 0.27293,0.99926 0.0434,1.50584 -0.26274,0.47574 -0.66093,0.84769 -1.05256,1.2155 -0.39695,0.37839 -0.81287,0.73626 -1.20661,1.11793 -0.25954,0.24798 -0.13351,0.1252 -0.37838,0.36807 -2.01361,1.9954 -2.95425,1.04617 -0.94064,-0.94922 v 0 c 0.26044,-0.25788 0.13045,-0.1315 0.38983,-0.37928 0.39928,-0.38564 0.81847,-0.74977 1.22121,-1.13184 0.27338,-0.25648 0.55653,-0.50933 0.76476,-0.82432 0.0242,-0.0399 0.0294,-0.13723 0.0725,-0.1196 0.022,0.009 0.024,0.0645 0.0457,0.0547 0.008,-0.004 -0.004,-0.0177 -0.006,-0.0266 -0.11353,-0.17356 -0.3037,-0.24632 -0.49492,-0.31078 -0.31372,-0.0996 -0.62969,-0.19229 -0.95516,-0.2459 -0.29085,-0.042 -0.58133,-0.0849 -0.87514,-0.1007 -0.0894,-0.006 -0.44848,0.0418 -0.21751,-0.0533 0.22287,-0.19983 0.35879,-0.53667 0.14115,-0.78834 0.17616,0.18819 0.39168,0.33223 0.57828,0.5096 0.26524,0.23147 0.5175,0.4789 0.74624,0.74681 0.21867,0.27157 0.43258,0.54876 0.50714,0.89836 0.062,0.40372 0.002,0.78266 -0.30888,1.07585 -0.30284,0.24737 -0.65122,0.38332 -1.03835,0.44067 -0.50053,0.0726 -1.00465,0.11192 -1.51093,0.1 -0.55948,2.6e-4 -1.11897,7.9e-4 -1.67845,0.001 -0.57151,5.3e-4 -1.14302,0.001 -1.71453,0.002 -0.58929,7.9e-4 -1.17859,0.002 -1.76788,0.003 -0.61366,0.001 -1.22732,0.002 -1.84097,0.004 -0.61946,0.002 -1.23892,0.003 -1.85838,0.006 -0.62447,0.002 -1.24894,0.005 -1.8734,0.008 -0.63211,0.003 -1.26421,0.007 -1.89631,0.0123 -0.65434,0.005 -1.30869,0.011 -1.96302,0.0182 -0.67685,0.008 -1.35369,0.0161 -2.0305,0.027 -0.69322,0.0114 -1.38642,0.024 -2.07955,0.04 -0.71471,0.017 -1.4294,0.0352 -2.14392,0.0592 -0.72509,0.0246 -1.45011,0.0518 -2.17476,0.0871 -0.73284,0.0358 -1.46531,0.0791 -2.19841,0.10917 -0.70775,0.0147 -1.41548,0.0311 -2.12304,0.0535 -0.69375,0.0221 -1.38744,0.0464 -2.08083,0.0783 -0.69279,0.0317 -1.38558,0.0736 -2.07926,0.0775 -0.68401,0.007 -1.36802,0.0152 -2.05199,0.0256 -0.68309,0.0107 -1.36615,0.0225 -2.04915,0.0379 -0.70302,0.0159 -1.406,0.0337 -2.10885,0.0561 -0.71796,0.0231 -1.43578,0.0499 -2.15358,0.0773 -0.72174,0.0236 -1.44346,0.0236 -2.16555,0.0212 -0.73236,5.3e-4 -1.46472,0.001 -2.19708,0.002 -0.77075,7.9e-4 -1.54151,0.002 -2.31226,0.003 -0.81058,0.001 -1.62116,0.003 -2.43173,0.004 -0.84962,0.002 -1.69924,0.004 -2.54885,0.006 -0.87009,0.003 -1.74017,0.006 -2.61025,0.009 -0.87891,0.004 -1.75781,0.008 -2.6367,0.0138 -0.88279,0.006 -1.76557,0.0121 -2.64834,0.0205 -0.8894,0.008 -1.77881,0.0179 -2.66817,0.0304 -0.88809,0.0126 -1.77616,0.0265 -2.66415,0.045 -0.87629,0.0185 -1.75254,0.0392 -2.6286,0.0666 -0.85958,0.0276 -1.71908,0.0579 -2.57819,0.0978 -0.86049,0.0397 -1.72078,0.0899 -2.58211,0.10624 -0.84024,0.0192 -1.68045,0.0402 -2.52045,0.0683 -0.8366,0.0282 -1.6731,0.0601 -2.50921,0.1006 -0.84909,0.0417 -1.69781,0.0906 -2.54706,0.12904 -0.83256,0.0232 -1.66504,0.0492 -2.49725,0.0829 -0.84036,0.0346 -1.68049,0.0741 -2.52047,0.11706 -0.86842,0.0409 -1.73736,0.0584 -2.60643,0.0805 -0.87341,0.0254 -1.74674,0.0534 -2.6198,0.0891 -0.89851,0.037 -1.79676,0.0796 -2.69507,0.12125 -0.89452,0.0342 -1.78977,0.0437 -2.68444,0.0742 -0.87539,0.0271 -1.75069,0.0576 -2.62564,0.0967 -0.88494,0.0398 -1.76974,0.0894 -2.65554,0.1047 -0.89763,0.0188 -1.79523,0.0393 -2.69267,0.066 -0.91114,0.0278 -1.82221,0.0583 -2.73297,0.0969 -0.93982,0.0395 -1.87945,0.0898 -2.82007,0.10478 -0.95379,0.0188 -1.90754,0.0395 -2.86114,0.0663 -0.97073,0.0276 -1.94137,0.0583 -2.9117,0.0979 -0.97837,0.0407 -1.95646,0.0874 -2.93456,0.13425 -0.98283,0.0399 -1.9665,0.0551 -2.94944,0.093 -0.9747,0.0349 -1.94916,0.0773 -2.9241,0.10512 -0.96352,0.0135 -1.92703,0.0285 -2.89046,0.0481 -0.95744,0.02 -1.91485,0.0423 -2.87208,0.071 -0.97385,0.0299 -1.94758,0.0635 -2.92122,0.0994 -0.98528,0.0328 -1.9708,0.0428 -2.95653,0.054 -0.98138,0.0142 -1.96274,0.0301 -2.94401,0.0506 -1.00171,0.0213 -2.00337,0.0449 -3.00486,0.075 -1.02832,0.0312 -2.05655,0.0658 -3.08439,0.11054 -1.05212,0.0455 -2.10385,0.0993 -3.15603,0.14345 -1.04948,0.0296 -2.09888,0.0626 -3.14795,0.10457 -1.07043,0.0435 -2.140677,0.0919 -3.21034,0.15172 -1.076298,0.0589 -2.152742,0.11091 -3.230052,0.14786 -1.054494,0.0458 -2.108626,0.10356 -3.163813,0.13063 -1.039304,0.0294 -2.078469,0.0632 -3.11758,0.0988 -1.059069,0.0326 -2.11836,0.0421 -3.177855,0.0526 -1.062096,0.0131 -2.124239,0.0311 -3.186446,0.0273 -1.087673,-0.0188 -2.175319,-0.0395 -3.26282,-0.0667 -1.121757,-0.0284 -2.24346,-0.0595 -3.364894,-0.0989 -1.150348,-0.0413 -2.300605,-0.0862 -3.450135,-0.14662 -1.15085,-0.0613 -2.301346,-0.12911 -3.450942,-0.21087 -1.137444,-0.0788 -2.275851,-0.14001 -3.41413,-0.2054 -1.133396,-0.0612 -2.26785,-0.1028 -3.40196,-0.14837 -1.16967,-0.0283 -2.339231,-0.0627 -3.509118,-0.0807 -1.202746,-0.003 -2.405494,-0.008 -3.608245,-0.007 -1.205442,0.006 -2.41019,0.0385 -3.614809,0.0834 -1.185643,0.0428 -2.371145,0.0901 -3.555942,0.15257 -1.164357,0.063 -2.328328,0.13293 -3.491163,0.22 -1.128615,0.0822 -2.258301,0.14716 -3.386865,0.23014 -1.072957,0.0815 -2.146083,0.15933 -3.219519,0.23408 -1.020866,0.0818 -2.040422,0.17868 -3.061467,0.25805 -0.962121,0.0789 -1.922632,0.17524 -2.88475,0.25395 -0.907081,0.0782 -1.812927,0.16857 -2.718149,0.26595 -0.830987,0.076 -1.660276,0.16885 -2.491539,0.24151 -0.731419,0.0631 -1.463673,0.11454 -2.196686,0.15544 -0.615781,0.0225 -1.231784,0.057 -1.848118,0.0503 -0.494242,-0.006 -0.990044,-0.008 -1.480437,-0.0782 -0.314191,-0.042 -0.629145,-0.0868 -0.934889,-0.17294 -2.725748,-0.77878 -2.358625,-2.06371 0.367123,-1.28493 z"
       inkscape:connector-curvature="0" />
    <path
       style="opacity:1;fill:#000000;fill-opacity:1;fill-rule:nonzero;stroke:#000000;stroke-width:0.1;stroke-linecap:round;stroke-linejoin:round;stroke-miterlimit:4;stroke-dasharray:none;stroke-dashoffset:0;stroke-opacity:1;paint-order:markers fill stroke"
       id="path5298"
       d="m 48.777879,135.2628 c 0.06314,0.25161 0.106571,0.5077 0.147299,0.76373 0.04504,0.36194 0.111284,0.72057 0.168531,1.08068 0.04439,0.28115 0.07908,0.56365 0.112372,0.84627 0.331231,2.8154 -0.995964,2.97155 -1.327193,0.15614 v 0 c -0.03111,-0.26474 -0.06348,-0.52938 -0.104976,-0.79274 -0.05719,-0.36025 -0.123547,-0.71903 -0.168598,-1.08109 -0.04155,-0.26305 -0.09215,-0.52413 -0.150352,-0.784 -0.400902,-2.80633 0.922015,-2.99532 1.322917,-0.18899 z"
       inkscape:connector-curvature="0" />
    <path
       style="opacity:1;fill:#000000;fill-opacity:1;fill-rule:nonzero;stroke:#000000;stroke-width:0.1;stroke-linecap:round;stroke-linejoin:round;stroke-miterlimit:4;stroke-dasharray:none;stroke-dashoffset:0;stroke-opacity:1;paint-order:markers fill stroke"
       id="path5300"
       d="m 49.568602,146.93359 c 0.07778,0.28061 0.126378,0.56799 0.170953,0.85538 0.04602,0.30743 0.07743,0.61673 0.106717,0.92612 0.266763,2.82224 -1.063657,2.94799 -1.330418,0.12575 v 0 c -0.02672,-0.28319 -0.05518,-0.56633 -0.09697,-0.84777 -0.03577,-0.23243 -0.07381,-0.46505 -0.135215,-0.69236 -0.778785,-2.72575 0.506145,-3.09287 1.28493,-0.36712 z"
       inkscape:connector-curvature="0" />
    <path
       style="opacity:1;fill:#000000;fill-opacity:1;fill-rule:nonzero;stroke:#000000;stroke-width:0.1;stroke-linecap:round;stroke-linejoin:round;stroke-miterlimit:4;stroke-dasharray:none;stroke-dashoffset:0;stroke-opacity:1;paint-order:markers fill stroke"
       id="path5302"
       d="m 50.647576,158.60974 c 0,0.25796 0,0.51591 0,0.77387 0,0.23266 0,0.46533 0,0.69799 0,2.83482 -1.33635,2.83482 -1.33635,0 v 0 c 0,-0.23266 0,-0.46533 0,-0.69799 0,-0.25796 0,-0.51591 0,-0.77387 0,-2.83482 1.33635,-2.83482 1.33635,0 z"
       inkscape:connector-curvature="0" />
    <path
       style="opacity:1;fill:#000000;fill-opacity:1;fill-rule:nonzero;stroke:#000000;stroke-width:0.1;stroke-linecap:round;stroke-linejoin:round;stroke-miterlimit:4;stroke-dasharray:none;stroke-dashoffset:0;stroke-opacity:1;paint-order:markers fill stroke"
       id="path5304"
       d="m 51.183307,170.00784 c 0.03059,0.24749 0.05374,0.49507 0.09407,0.74122 0.05954,0.3448 0.102574,0.69204 0.140492,1.03978 0.0064,0.0647 0.01289,0.12936 0.01931,0.19405 0.280207,2.82093 -1.049597,2.95303 -1.329804,0.13209 v 0 c -0.006,-0.0605 -0.01201,-0.12102 -0.01799,-0.18154 -0.03522,-0.32414 -0.07522,-0.64781 -0.130898,-0.96917 -0.04145,-0.25494 -0.06862,-0.51095 -0.09808,-0.76745 -0.400904,-2.80633 0.922012,-2.99531 1.322917,-0.18898 z"
       inkscape:connector-curvature="0" />
    <path
       style="opacity:1;fill:#000000;fill-opacity:1;fill-rule:nonzero;stroke:#000000;stroke-width:0.1;stroke-linecap:round;stroke-linejoin:round;stroke-miterlimit:4;stroke-dasharray:none;stroke-dashoffset:0;stroke-opacity:1;paint-order:markers fill stroke"
       id="path5306"
       d="m 51.983922,179.72403 c 0.0028,0.2468 -0.007,0.49387 0.0071,0.74036 0.02696,0.35741 0.05362,0.71482 0.07607,1.07256 0.177493,2.82926 -1.156232,2.91293 -1.333725,0.0837 v 0 c -0.02278,-0.36328 -0.05044,-0.72619 -0.07701,-1.0892 -0.01233,-0.26902 -0.0087,-0.53812 -0.0088,-0.80739 0,-2.83482 1.336347,-2.83482 1.336347,0 z"
       inkscape:connector-curvature="0" />
    <path
       style="opacity:1;fill:#000000;fill-opacity:1;fill-rule:nonzero;stroke:#000000;stroke-width:0.1;stroke-linecap:round;stroke-linejoin:round;stroke-miterlimit:4;stroke-dasharray:none;stroke-dashoffset:0;stroke-opacity:1;paint-order:markers fill stroke"
       id="path5308"
       d="m 52.518463,190.94935 c 0,0.25796 0,0.51592 0,0.77387 -0.0021,0.1618 -5.29e-4,0.32313 0.0072,0.48472 0.125913,2.83202 -1.209116,2.89138 -1.335029,0.0593 v 0 c -0.0075,-0.1814 -0.0118,-0.36247 -0.0086,-0.54407 0,-0.25795 0,-0.51591 0,-0.77387 0,-2.83482 1.336349,-2.83482 1.336349,0 z"
       inkscape:connector-curvature="0" />
    <path
       style="opacity:1;fill:#000000;fill-opacity:1;fill-rule:nonzero;stroke:#000000;stroke-width:0.1;stroke-linecap:round;stroke-linejoin:round;stroke-miterlimit:4;stroke-dasharray:none;stroke-dashoffset:0;stroke-opacity:1;paint-order:markers fill stroke"
       id="path5310"
       d="m 52.519653,202.88199 c 0.03736,0.27118 0.06015,0.54405 0.08127,0.81688 0.01596,0.22859 0.0083,0.11326 0.02297,0.34601 0.178261,2.82921 -1.155443,2.91324 -1.333703,0.084 v 0 c -0.01387,-0.22052 -0.0066,-0.1115 -0.02164,-0.32708 -0.01881,-0.24407 -0.03885,-0.48821 -0.07181,-0.73085 -0.400904,-2.80634 0.922013,-2.99532 1.322917,-0.18899 z"
       inkscape:connector-curvature="0" />
    <path
       style="opacity:1;fill:#000000;fill-opacity:1;fill-rule:nonzero;stroke:#000000;stroke-width:0.1;stroke-linecap:round;stroke-linejoin:round;stroke-miterlimit:4;stroke-dasharray:none;stroke-dashoffset:0;stroke-opacity:1;paint-order:markers fill stroke"
       id="path5312"
       d="m 53.320269,213.66726 c 0.0056,0.21811 0.03658,0.43559 0.05666,0.65301 0.03524,0.31411 0.0758,0.62642 0.09533,0.94227 0.0074,0.16124 0.01402,0.32209 0.02866,0.48284 0.244216,2.82428 -1.087162,2.9394 -1.331378,0.11512 v 0 c -0.01431,-0.17197 -0.02492,-0.34375 -0.03113,-0.51622 -0.01831,-0.30222 -0.0598,-0.60047 -0.09219,-0.90126 -0.02379,-0.25821 -0.06026,-0.51625 -0.06231,-0.77576 0,-2.83482 1.336347,-2.83482 1.336347,0 z"
       inkscape:connector-curvature="0" />
    <path
       style="opacity:1;fill:#000000;fill-opacity:1;fill-rule:nonzero;stroke:#000000;stroke-width:0.1;stroke-linecap:round;stroke-linejoin:round;stroke-miterlimit:4;stroke-dasharray:none;stroke-dashoffset:0;stroke-opacity:1;paint-order:markers fill stroke"
       id="path5314"
       d="m 53.587541,223.55623 c 0.0034,0.24354 -0.0079,0.48749 0.007,0.73069 0.02715,0.33154 0.05375,0.66308 0.07598,0.99499 0.01728,0.26335 0.03025,0.52696 0.04273,0.79057 0.133977,2.83165 -1.200878,2.89481 -1.334852,0.0631 v 0 c -0.01206,-0.25491 -0.02455,-0.50981 -0.04125,-0.76447 -0.02262,-0.33814 -0.05048,-0.67584 -0.0771,-1.01368 -0.01275,-0.26696 -0.0086,-0.53402 -0.0088,-0.80125 0,-2.83482 1.336349,-2.83482 1.336349,0 z"
       inkscape:connector-curvature="0" />
    <path
       style="opacity:1;fill:#000000;fill-opacity:1;fill-rule:nonzero;stroke:#000000;stroke-width:0.1;stroke-linecap:round;stroke-linejoin:round;stroke-miterlimit:4;stroke-dasharray:none;stroke-dashoffset:0;stroke-opacity:1;paint-order:markers fill stroke"
       id="path5316"
       d="m 54.923888,234.51428 c 0.0034,0.24354 -0.0079,0.48749 0.007,0.73069 0.02151,0.26979 0.04393,0.53949 0.06355,0.80944 0.205383,2.82737 -1.127453,2.92418 -1.332836,0.0968 v 0 c -0.02024,-0.27869 -0.04398,-0.55708 -0.0652,-0.83569 -0.01278,-0.26695 -0.0086,-0.53402 -0.0088,-0.80125 0,-2.83482 1.336347,-2.83482 1.336347,0 z"
       inkscape:connector-curvature="0" />
    <path
       style="opacity:1;fill:#000000;fill-opacity:1;fill-rule:nonzero;stroke:#000000;stroke-width:0.1;stroke-linecap:round;stroke-linejoin:round;stroke-miterlimit:4;stroke-dasharray:none;stroke-dashoffset:0;stroke-opacity:1;paint-order:markers fill stroke"
       id="path5318"
       d="m 216.07279,128.49741 c -0.033,0.24265 -0.053,0.48678 -0.0718,0.73085 -0.0231,0.36647 -0.0428,0.73259 -0.0804,1.09793 -0.015,0.23705 -0.008,0.11592 -0.0195,0.3634 -0.12874,2.83189 -1.4637,2.77121 -1.33497,-0.0607 v 0 c 0.0134,-0.29102 0.005,-0.14444 0.0251,-0.43976 0.0366,-0.35395 0.0539,-0.70881 0.0773,-1.06384 0.0211,-0.27283 0.0439,-0.5457 0.0813,-0.81688 0.4009,-2.80633 1.72382,-2.61734 1.32291,0.18899 z"
       inkscape:connector-curvature="0" />
    <path
       style="opacity:1;fill:#000000;fill-opacity:1;fill-rule:nonzero;stroke:#000000;stroke-width:0.1;stroke-linecap:round;stroke-linejoin:round;stroke-miterlimit:4;stroke-dasharray:none;stroke-dashoffset:0;stroke-opacity:1;paint-order:markers fill stroke"
       id="path5320"
       d="m 215.55406,138.7373 c 0.0374,0.27118 0.0602,0.54405 0.0813,0.81689 0.0189,0.18352 0.0163,0.36809 0.0149,0.55225 -0.0251,2.83471 -1.36138,2.82288 -1.33629,-0.0118 v 0 c 0.002,-0.14589 0.006,-0.29212 -0.011,-0.43747 -0.0188,-0.24407 -0.0389,-0.48821 -0.0718,-0.73085 -0.4009,-2.80633 0.92202,-2.99532 1.32292,-0.18899 z"
       inkscape:connector-curvature="0" />
    <path
       style="opacity:1;fill:#000000;fill-opacity:1;fill-rule:nonzero;stroke:#000000;stroke-width:0.1;stroke-linecap:round;stroke-linejoin:round;stroke-miterlimit:4;stroke-dasharray:none;stroke-dashoffset:0;stroke-opacity:1;paint-order:markers fill stroke"
       id="path5322"
       d="m 215.2856,147.91896 c -2.3e-4,0.26722 0.004,0.53429 -0.009,0.80124 -0.021,0.32597 -0.0617,0.65078 -0.0679,0.97752 1.1e-4,0.0529 2.3e-4,0.10574 2.7e-4,0.15861 0.002,2.83482 -1.33417,2.83585 -1.33635,10e-4 v 0 c 2e-5,-0.0641 5e-5,-0.12824 7e-5,-0.19236 0.01,-0.33934 0.0428,-0.67701 0.0694,-1.01535 0.0149,-0.2432 0.004,-0.48714 0.007,-0.73068 0,-2.83482 1.33635,-2.83482 1.33635,0 z"
       inkscape:connector-curvature="0" />
    <path
       style="opacity:1;fill:#000000;fill-opacity:1;fill-rule:nonzero;stroke:#000000;stroke-width:0.1;stroke-linecap:round;stroke-linejoin:round;stroke-miterlimit:4;stroke-dasharray:none;stroke-dashoffset:0;stroke-opacity:1;paint-order:markers fill stroke"
       id="path5324"
       d="m 215.53825,157.63516 c -0.033,0.24264 -0.053,0.48678 -0.0718,0.73085 -0.0261,0.35234 -0.0427,0.70526 -0.0579,1.05821 -0.0104,0.26307 -0.005,0.13076 -0.015,0.39693 -0.10248,2.83296 -1.43795,2.78465 -1.33547,-0.0483 v 0 c 0.01,-0.2722 0.005,-0.13679 0.0154,-0.40623 0.0159,-0.36807 0.0334,-0.73612 0.0607,-1.10356 0.0211,-0.27283 0.0439,-0.5457 0.0813,-0.81688 0.40091,-2.80633 1.72382,-2.61734 1.32292,0.18899 z"
       inkscape:connector-curvature="0" />
    <path
       style="opacity:1;fill:#000000;fill-opacity:1;fill-rule:nonzero;stroke:#000000;stroke-width:0.1;stroke-linecap:round;stroke-linejoin:round;stroke-miterlimit:4;stroke-dasharray:none;stroke-dashoffset:0;stroke-opacity:1;paint-order:markers fill stroke"
       id="path5326"
       d="m 215.82133,168.40422 c 0.0374,0.27118 0.0602,0.54405 0.0813,0.81688 0.0225,0.30198 0.0379,0.60442 0.0522,0.90688 0.13382,2.83166 -1.20104,2.89475 -1.33486,0.0631 v 0 c -0.0137,-0.28916 -0.0282,-0.5783 -0.0497,-0.86701 -0.0188,-0.24407 -0.0388,-0.48821 -0.0718,-0.73085 -0.40091,-2.80633 0.92201,-2.99532 1.32291,-0.18899 z"
       inkscape:connector-curvature="0" />
    <path
       style="opacity:1;fill:#000000;fill-opacity:1;fill-rule:nonzero;stroke:#000000;stroke-width:0.1;stroke-linecap:round;stroke-linejoin:round;stroke-miterlimit:4;stroke-dasharray:none;stroke-dashoffset:0;stroke-opacity:1;paint-order:markers fill stroke"
       id="path5328"
       d="m 216.60733,177.94764 c -0.033,0.24265 -0.053,0.48678 -0.0718,0.73085 -0.0261,0.35234 -0.0427,0.70527 -0.0579,1.05821 -0.0114,0.2703 -0.0199,0.5407 -0.0282,0.8111 -0.0865,2.8335 -1.42226,2.79271 -1.33572,-0.0408 v 0 c 0.008,-0.27601 0.0172,-0.55201 0.0288,-0.82791 0.0159,-0.36807 0.0333,-0.73613 0.0606,-1.10356 0.0211,-0.27284 0.0439,-0.54571 0.0813,-0.81689 0.4009,-2.80633 1.72382,-2.61734 1.32292,0.18899 z"
       inkscape:connector-curvature="0" />
    <path
       style="opacity:1;fill:#000000;fill-opacity:1;fill-rule:nonzero;stroke:#000000;stroke-width:0.1;stroke-linecap:round;stroke-linejoin:round;stroke-miterlimit:4;stroke-dasharray:none;stroke-dashoffset:0;stroke-opacity:1;paint-order:markers fill stroke"
       id="path5330"
       d="m 217.15649,188.00939 c 0,0.25795 0,0.51591 0,0.77387 -2.7e-4,0.34566 0.0343,0.6905 0.0579,1.03518 0.012,0.26709 0.003,0.53425 0.0103,0.80139 0.0748,2.83383 -1.26107,2.8691 -1.33588,0.0353 v 0 c -0.006,-0.24847 -0.002,-0.49677 -0.008,-0.74525 -0.0257,-0.3751 -0.0625,-0.75034 -0.061,-1.12658 0,-0.25796 0,-0.51592 0,-0.77387 0,-2.83482 1.33635,-2.83482 1.33635,0 z"
       inkscape:connector-curvature="0" />
    <path
       style="opacity:1;fill:#000000;fill-opacity:1;fill-rule:nonzero;stroke:#000000;stroke-width:0.1;stroke-linecap:round;stroke-linejoin:round;stroke-miterlimit:4;stroke-dasharray:none;stroke-dashoffset:0;stroke-opacity:1;paint-order:markers fill stroke"
       id="path5332"
       d="m 217.69103,199.23471 c 0.0308,0.23898 0.0505,0.47955 0.0701,0.71974 0.0289,0.36763 0.0476,0.73594 0.0646,1.10428 0.0114,0.26964 0.006,0.13413 0.0164,0.40652 0.1094,2.83271 -1.22595,2.88428 -1.33535,0.0516 v 0 c -0.0103,-0.26597 -0.005,-0.13376 -0.016,-0.39663 -0.0162,-0.35273 -0.034,-0.70543 -0.0616,-1.05749 -0.0224,-0.27626 -0.053,-0.55171 -0.0745,-0.82799 0,-2.83482 1.33635,-2.83482 1.33635,0 z"
       inkscape:connector-curvature="0" />
    <path
       style="opacity:1;fill:#000000;fill-opacity:1;fill-rule:nonzero;stroke:#000000;stroke-width:0.1;stroke-linecap:round;stroke-linejoin:round;stroke-miterlimit:4;stroke-dasharray:none;stroke-dashoffset:0;stroke-opacity:1;paint-order:markers fill stroke"
       id="path5334"
       d="m 217.69103,210.19276 c -0.007,0.23974 0.0233,0.47824 0.0437,0.71674 0.0315,0.36717 0.053,0.73508 0.0723,1.10307 0.14825,2.83094 -1.18627,2.90083 -1.33452,0.0699 v 0 c -0.0185,-0.35317 -0.039,-0.70628 -0.0692,-1.05869 -0.0237,-0.27645 -0.0559,-0.55309 -0.0486,-0.831 0,-2.83482 1.33635,-2.83482 1.33635,0 z"
       inkscape:connector-curvature="0" />
    <path
       style="opacity:1;fill:#000000;fill-opacity:1;fill-rule:nonzero;stroke:#000000;stroke-width:0.1;stroke-linecap:round;stroke-linejoin:round;stroke-miterlimit:4;stroke-dasharray:none;stroke-dashoffset:0;stroke-opacity:1;paint-order:markers fill stroke"
       id="path5336"
       d="m 218.21094,220.44349 c -0.0365,0.22262 -0.0256,0.449 -0.0237,0.67367 -0.006,0.34573 0.0284,0.68985 0.0556,1.03404 0.0164,0.2056 0.0301,0.4114 0.0436,0.61721 0.18658,2.82867 -1.14687,2.91663 -1.33345,0.088 v 0 c -0.0132,-0.20008 -0.0265,-0.40016 -0.0424,-0.60005 -0.0296,-0.37535 -0.0654,-0.75074 -0.0597,-1.12773 -0.002,-0.29167 -0.0104,-0.58512 0.037,-0.87407 0.4009,-2.80633 1.72381,-2.61735 1.32291,0.18898 z"
       inkscape:connector-curvature="0" />
    <path
       style="opacity:1;fill:#000000;fill-opacity:1;fill-rule:nonzero;stroke:#000000;stroke-width:0.1;stroke-linecap:round;stroke-linejoin:round;stroke-miterlimit:4;stroke-dasharray:none;stroke-dashoffset:0;stroke-opacity:1;paint-order:markers fill stroke"
       id="path5338"
       d="m 218.76011,230.77788 c -0.01,0.24037 0.0104,0.47905 0.0304,0.71829 0.0274,0.34562 0.0484,0.69115 0.0909,1.03529 0.008,0.0613 0.0154,0.12254 0.0231,0.18381 0.35336,2.81272 -0.97257,2.97929 -1.32593,0.16658 v 0 c -0.008,-0.0624 -0.0157,-0.12475 -0.0235,-0.18712 -0.0444,-0.36153 -0.0685,-0.7243 -0.0963,-1.0874 -0.023,-0.27609 -0.0439,-0.55213 -0.035,-0.82945 0,-2.83482 1.33634,-2.83482 1.33634,0 z"
       inkscape:connector-curvature="0" />
    <path
       style="opacity:1;fill:#000000;fill-opacity:1;fill-rule:nonzero;stroke:#000000;stroke-width:0.1;stroke-linecap:round;stroke-linejoin:round;stroke-miterlimit:4;stroke-dasharray:none;stroke-dashoffset:0;stroke-opacity:1;paint-order:markers fill stroke"
       id="path5340"
       d="m 69.623712,184.53488 c 0,0.27987 0,0.55973 0,0.8396 0.0031,0.43704 -0.0075,0.87426 0.0075,1.3111 0.02424,0.49444 0.05227,0.98868 0.07612,1.48314 0.0039,0.085 0.0077,0.17011 0.01159,0.25516 0.128506,2.83191 -1.206468,2.89248 -1.334976,0.0606 v 0 c -0.0038,-0.0838 -0.0076,-0.16758 -0.0114,-0.25136 -0.02418,-0.50134 -0.05287,-1.00244 -0.07696,-1.50379 -0.01415,-0.45147 -0.0065,-0.90317 -0.0083,-1.35483 0,-0.27987 0,-0.55973 0,-0.8396 0,-2.83482 1.336347,-2.83482 1.336347,0 z"
       inkscape:connector-curvature="0" />
    <path
       style="opacity:1;fill:#000000;fill-opacity:1;fill-rule:nonzero;stroke:#000000;stroke-width:0.1;stroke-linecap:round;stroke-linejoin:round;stroke-miterlimit:4;stroke-dasharray:none;stroke-dashoffset:0;stroke-opacity:1;paint-order:markers fill stroke"
       id="path5342"
       d="m 88.333769,184.44039 c 0.0288,0.27333 0.06848,0.54486 0.108731,0.8167 0.05865,0.39409 0.100325,0.79035 0.137639,1.18694 0.04526,0.35247 0.09358,0.70451 0.136811,1.05726 0.344648,2.81379 -0.981787,2.97626 -1.326436,0.16246 v 0 c -0.0447,-0.36519 -0.09573,-0.72954 -0.140859,-1.09468 -0.03501,-0.37296 -0.07399,-0.74565 -0.129095,-1.11627 -0.04057,-0.27404 -0.0809,-0.54787 -0.109707,-0.82342 -0.400905,-2.80633 0.922012,-2.99532 1.322916,-0.18899 z"
       inkscape:connector-curvature="0" />
    <path
       style="opacity:1;fill:#000000;fill-opacity:1;fill-rule:nonzero;stroke:#000000;stroke-width:0.1;stroke-linecap:round;stroke-linejoin:round;stroke-miterlimit:4;stroke-dasharray:none;stroke-dashoffset:0;stroke-opacity:1;paint-order:markers fill stroke"
       id="path5344"
       d="m 108.37779,184.00034 c 0.0251,0.23308 0.0514,0.46575 0.085,0.69788 0.062,0.41499 0.10443,0.83253 0.14346,1.25019 0.058,0.45357 0.1179,0.90683 0.16945,1.3612 0.31939,2.81677 -1.00845,2.96733 -1.32784,0.15056 v 0 c -0.0525,-0.46315 -0.11473,-0.925 -0.17217,-1.38753 -0.0369,-0.39533 -0.0767,-0.79058 -0.13553,-1.18336 -0.0426,-0.29516 -0.0789,-0.59127 -0.0987,-0.88894 0,-2.83482 1.33635,-2.83482 1.33635,0 z"
       inkscape:connector-curvature="0" />
    <path
       style="opacity:1;fill:#000000;fill-opacity:1;fill-rule:nonzero;stroke:#000000;stroke-width:0.1;stroke-linecap:round;stroke-linejoin:round;stroke-miterlimit:4;stroke-dasharray:none;stroke-dashoffset:0;stroke-opacity:1;paint-order:markers fill stroke"
       id="path5346"
       d="m 116.66315,184.00034 c 0.003,0.2468 -0.007,0.49387 0.007,0.74036 0.0226,0.34523 0.0497,0.68966 0.0919,1.03303 0.0509,0.37816 0.11504,0.75573 0.19395,1.12914 0.57958,2.77494 -0.72854,3.04816 -1.30813,0.27322 v 0 c -0.0849,-0.41034 -0.15781,-0.82417 -0.21222,-1.23963 -0.0459,-0.37517 -0.0761,-0.75152 -0.10021,-1.12873 -0.0123,-0.26902 -0.009,-0.53812 -0.009,-0.80739 0,-2.83482 1.33635,-2.83482 1.33635,0 z"
       inkscape:connector-curvature="0" />
    <path
       style="opacity:1;fill:#000000;fill-opacity:1;fill-rule:nonzero;stroke:#000000;stroke-width:0.1;stroke-linecap:round;stroke-linejoin:round;stroke-miterlimit:4;stroke-dasharray:none;stroke-dashoffset:0;stroke-opacity:1;paint-order:markers fill stroke"
       id="path5348"
       d="m 131.63024,184.00034 c 0.0319,0.26351 0.0516,0.52874 0.0706,0.79353 0.017,0.40256 0.0657,0.80247 0.10739,1.20295 0.027,0.35789 0.0775,0.71286 0.12725,1.06808 0.39306,2.80744 -0.93038,2.99274 -1.32344,0.1853 v 0 c -0.0519,-0.37083 -0.10409,-0.74153 -0.13298,-1.11505 -0.0431,-0.41473 -0.0931,-0.82897 -0.11116,-1.24581 -0.0212,-0.29666 -0.0506,-0.59254 -0.074,-0.889 0,-2.83482 1.33635,-2.83482 1.33635,0 z"
       inkscape:connector-curvature="0" />
    <path
       style="opacity:1;fill:#000000;fill-opacity:1;fill-rule:nonzero;stroke:#000000;stroke-width:0.1;stroke-linecap:round;stroke-linejoin:round;stroke-miterlimit:4;stroke-dasharray:none;stroke-dashoffset:0;stroke-opacity:1;paint-order:markers fill stroke"
       id="path5350"
       d="m 148.73549,182.664 c 0,0.27599 0,0.55198 0,0.82796 0.01,0.44073 -0.0223,0.88049 -0.0473,1.32017 -0.0284,0.49837 -0.0503,0.99707 -0.0702,1.49584 -0.0126,0.33964 -0.007,0.16968 -0.0183,0.50991 -0.0984,2.83311 -1.43398,2.78671 -1.33554,-0.0464 v 0 c 0.012,-0.34463 0.006,-0.17243 0.0186,-0.51661 0.0201,-0.50636 0.0424,-1.01264 0.0713,-1.51859 0.0236,-0.41443 0.0549,-0.82889 0.0451,-1.24432 0,-0.27598 0,-0.55197 0,-0.82796 0,-2.83482 1.33635,-2.83482 1.33635,0 z"
       inkscape:connector-curvature="0" />
    <path
       style="opacity:1;fill:#000000;fill-opacity:1;fill-rule:nonzero;stroke:#000000;stroke-width:0.1;stroke-linecap:round;stroke-linejoin:round;stroke-miterlimit:4;stroke-dasharray:none;stroke-dashoffset:0;stroke-opacity:1;paint-order:markers fill stroke"
       id="path5352"
       d="m 157.55539,183.19854 c 0,0.25795 0,0.51591 0,0.77387 0.004,0.3512 -0.008,0.70271 0.007,1.05366 0.008,0.18611 0.0224,0.37139 0.0429,0.55649 0.30316,2.81856 -1.02553,2.96147 -1.32868,0.1429 v 0 c -0.0225,-0.21461 -0.041,-0.42922 -0.0495,-0.64495 -0.0141,-0.36921 -0.007,-0.73867 -0.008,-1.1081 0,-0.25796 0,-0.51592 0,-0.77387 0,-2.83482 1.33635,-2.83482 1.33635,0 z"
       inkscape:connector-curvature="0" />
    <path
       style="opacity:1;fill:#000000;fill-opacity:1;fill-rule:nonzero;stroke:#000000;stroke-width:0.1;stroke-linecap:round;stroke-linejoin:round;stroke-miterlimit:4;stroke-dasharray:none;stroke-dashoffset:0;stroke-opacity:1;paint-order:markers fill stroke"
       id="path5354"
       d="m 165.04012,182.83677 c 0.04,0.28769 0.0609,0.57755 0.0816,0.86712 0.0268,0.39019 0.0444,0.78092 0.0604,1.17167 0.0106,0.28165 0.006,0.14023 0.0153,0.42427 0.0982,2.83312 -1.23738,2.87939 -1.33554,0.0463 v 0 c -0.01,-0.27853 -0.005,-0.13993 -0.015,-0.4158 -0.0154,-0.37737 -0.0324,-0.75471 -0.0582,-1.13154 -0.0183,-0.25811 -0.0365,-0.51651 -0.0715,-0.773 -0.4009,-2.80633 0.92202,-2.99532 1.32292,-0.18899 z"
       inkscape:connector-curvature="0" />
    <path
       style="opacity:1;fill:#000000;fill-opacity:1;fill-rule:nonzero;stroke:#000000;stroke-width:0.1;stroke-linecap:round;stroke-linejoin:round;stroke-miterlimit:4;stroke-dasharray:none;stroke-dashoffset:0;stroke-opacity:1;paint-order:markers fill stroke"
       id="path5356"
       d="m 176.26544,182.83677 c 0.0374,0.27118 0.0601,0.54406 0.0813,0.81689 0.0385,0.38245 0.025,0.76666 0.0148,1.15008 -0.0113,0.21715 -0.032,0.43362 -0.0513,0.65016 -0.25138,2.82365 -1.58246,2.70515 -1.33108,-0.1185 v 0 c 0.0168,-0.18891 0.0347,-0.37778 0.0465,-0.5671 0.009,-0.33728 0.0235,-0.67526 -0.0113,-1.01168 -0.0188,-0.24408 -0.0388,-0.48821 -0.0718,-0.73086 -0.40091,-2.80633 0.92201,-2.99532 1.32291,-0.18899 z"
       inkscape:connector-curvature="0" />
    <path
       style="opacity:1;fill:#000000;fill-opacity:1;fill-rule:nonzero;stroke:#000000;stroke-width:0.1;stroke-linecap:round;stroke-linejoin:round;stroke-miterlimit:4;stroke-dasharray:none;stroke-dashoffset:0;stroke-opacity:1;paint-order:markers fill stroke"
       id="path5358"
       d="m 182.12956,182.49122 c -0.033,0.24265 -0.053,0.48679 -0.0718,0.73086 -0.0261,0.35233 -0.0427,0.70526 -0.0579,1.0582 -0.0103,0.19218 -0.0151,0.38411 -0.0135,0.5765 0.0141,2.83479 -1.32222,2.84144 -1.33633,0.007 v 0 c -5.3e-4,-0.21382 0.003,-0.42721 0.0148,-0.64076 0.0159,-0.36807 0.0333,-0.73613 0.0606,-1.10356 0.0211,-0.27283 0.0439,-0.54571 0.0813,-0.81689 0.40091,-2.80633 1.72382,-2.61734 1.32292,0.18899 z"
       inkscape:connector-curvature="0" />
    <path
       style="opacity:1;fill:#000000;fill-opacity:1;fill-rule:nonzero;stroke:#000000;stroke-width:0.1;stroke-linecap:round;stroke-linejoin:round;stroke-miterlimit:4;stroke-dasharray:none;stroke-dashoffset:0;stroke-opacity:1;paint-order:markers fill stroke"
       id="path5360"
       d="m 187.47968,182.48044 c 0.0778,0.28061 0.12637,0.56799 0.17095,0.85537 0.046,0.30743 0.0774,0.61674 0.10672,0.92612 0.26676,2.82224 -1.06366,2.948 -1.33042,0.12575 v 0 c -0.0267,-0.28318 -0.0552,-0.56632 -0.097,-0.84776 -0.0358,-0.23243 -0.0738,-0.46505 -0.13521,-0.69236 -0.77879,-2.72575 0.50614,-3.09287 1.28493,-0.36712 z"
       inkscape:connector-curvature="0" />
    <path
       style="opacity:1;fill:#000000;fill-opacity:1;fill-rule:nonzero;stroke:#000000;stroke-width:0.1;stroke-linecap:round;stroke-linejoin:round;stroke-miterlimit:4;stroke-dasharray:none;stroke-dashoffset:0;stroke-opacity:1;paint-order:markers fill stroke"
       id="path5362"
       d="m 193.90404,182.39673 c 0.007,0.27791 -0.0249,0.55455 -0.0486,0.831 -0.0228,0.30648 -0.0706,0.61046 -0.10978,0.91513 -0.36199,2.81162 -1.6874,2.64097 -1.3254,-0.17064 v 0 c 0.0368,-0.28593 0.0822,-0.57116 0.10373,-0.85875 0.0205,-0.2385 0.0505,-0.477 0.0437,-0.71674 0,-2.83482 1.33635,-2.83482 1.33635,0 z"
       inkscape:connector-curvature="0" />
    <path
       style="opacity:1;fill:#000000;fill-opacity:1;fill-rule:nonzero;stroke:#000000;stroke-width:0.1;stroke-linecap:round;stroke-linejoin:round;stroke-miterlimit:4;stroke-dasharray:none;stroke-dashoffset:0;stroke-opacity:1;paint-order:markers fill stroke"
       id="path5364"
       d="m 197.09665,182.49122 c -0.033,0.24265 -0.053,0.48679 -0.0718,0.73086 -0.017,0.22683 -0.0291,0.45398 -0.0409,0.68113 -0.1469,2.83102 -1.48145,2.76177 -1.33456,-0.0692 v 0 c 0.0124,-0.2384 0.0252,-0.47679 0.0431,-0.71485 0.0211,-0.27283 0.0439,-0.54571 0.0813,-0.81689 0.40091,-2.80633 1.72382,-2.61734 1.32292,0.18899 z"
       inkscape:connector-curvature="0" />
    <path
       style="opacity:1;fill:#000000;fill-opacity:1;fill-rule:nonzero;stroke:#000000;stroke-width:0.1;stroke-linecap:round;stroke-linejoin:round;stroke-miterlimit:4;stroke-dasharray:none;stroke-dashoffset:0;stroke-opacity:1;paint-order:markers fill stroke"
       id="path5366"
       d="m 200.58697,182.30223 c 0.0387,0.2822 0.0657,0.56566 0.0751,0.8503 0.007,0.37312 -0.0145,0.74549 -0.0292,1.11803 -0.002,0.0595 -0.003,0.11897 -0.005,0.17846 -0.0784,2.83374 -1.41419,2.7968 -1.33584,-0.0369 v 0 c 0.002,-0.0652 0.004,-0.13033 0.005,-0.19549 0.0141,-0.34252 0.0333,-0.68484 0.0286,-1.02792 -0.004,-0.23356 -0.0335,-0.4658 -0.0622,-0.69745 -0.4009,-2.80633 0.92202,-2.99532 1.32292,-0.18899 z"
       inkscape:connector-curvature="0" />
    <path
       style="opacity:1;fill:#000000;fill-opacity:1;fill-rule:nonzero;stroke:#000000;stroke-width:0.1;stroke-linecap:round;stroke-linejoin:round;stroke-miterlimit:4;stroke-dasharray:none;stroke-dashoffset:0;stroke-opacity:1;paint-order:markers fill stroke"
       id="path5368"
       d="m 203.25847,182.12946 c 0,0.25796 0,0.51591 0,0.77387 0,0.36029 0,0.72059 0,1.08088 0,0.0662 0,0.1324 0,0.19861 0,2.83482 -1.33634,2.83482 -1.33634,0 v 0 c 0,-0.0662 0,-0.13241 0,-0.19861 0,-0.36029 0,-0.72059 0,-1.08088 0,-0.25796 0,-0.51591 0,-0.77387 0,-2.83482 1.33634,-2.83482 1.33634,0 z"
       inkscape:connector-curvature="0" />
    <path
       style="opacity:1;fill:#000000;fill-opacity:1;fill-rule:nonzero;stroke:#000000;stroke-width:0.1;stroke-linecap:round;stroke-linejoin:round;stroke-miterlimit:4;stroke-dasharray:none;stroke-dashoffset:0;stroke-opacity:1;paint-order:markers fill stroke"
       id="path5374"
       d="m 206.19844,181.86219 c 0.005,0.27491 -0.001,0.54888 -0.0214,0.82308 -0.0301,0.35672 -0.0546,0.71384 -0.0758,1.07119 -0.0191,0.40118 -0.0478,0.80237 -0.0465,1.20413 10e-4,2.83482 -1.33542,2.83526 -1.33635,5.3e-4 v 0 c 7.9e-4,-0.4283 0.0265,-0.85598 0.0489,-1.28361 0.0216,-0.36381 0.0464,-0.7274 0.077,-1.09057 0.0181,-0.24143 0.0218,-0.48253 0.0177,-0.72466 0,-2.83482 1.33635,-2.83482 1.33635,0 z"
       inkscape:connector-curvature="0" />
    <path
       style="opacity:1;fill:#000000;fill-opacity:1;fill-rule:nonzero;stroke:#000000;stroke-width:0.1;stroke-linecap:round;stroke-linejoin:round;stroke-miterlimit:4;stroke-dasharray:none;stroke-dashoffset:0;stroke-opacity:1;paint-order:markers fill stroke"
       id="path5376"
       d="m 208.85651,182.75849 c -0.0365,0.22262 -0.0256,0.449 -0.0236,0.67367 0.003,0.23218 0.005,0.46436 0.008,0.69655 0.0303,2.83466 -1.30592,2.84896 -1.33627,0.0143 v 0 c -0.002,-0.23314 -0.005,-0.46629 -0.008,-0.69944 -0.002,-0.29166 -0.0104,-0.58511 0.0371,-0.87407 0.4009,-2.80633 1.72382,-2.61734 1.32291,0.18899 z"
       inkscape:connector-curvature="0" />
    <path
       style="opacity:1;fill:#000000;fill-opacity:1;fill-rule:nonzero;stroke:#000000;stroke-width:0.1;stroke-linecap:round;stroke-linejoin:round;stroke-miterlimit:4;stroke-dasharray:none;stroke-dashoffset:0;stroke-opacity:1;paint-order:markers fill stroke"
       id="path5378"
       d="m 211.8111,182.664 c 0.007,0.2396 0.0369,0.47865 0.0571,0.71764 0.0198,0.23805 0.0344,0.47648 0.0485,0.71493 0.1667,2.82992 -1.16734,2.9085 -1.33404,0.0786 v 0 c -0.0134,-0.22715 -0.0272,-0.45428 -0.0461,-0.68105 -0.0233,-0.27638 -0.0584,-0.55264 -0.0619,-0.8301 0,-2.83482 1.33635,-2.83482 1.33635,0 z"
       inkscape:connector-curvature="0" />
    <path
       style="opacity:1;fill:#000000;fill-opacity:1;fill-rule:nonzero;stroke:#000000;stroke-width:0.1;stroke-linecap:round;stroke-linejoin:round;stroke-miterlimit:4;stroke-dasharray:none;stroke-dashoffset:0;stroke-opacity:1;paint-order:markers fill stroke"
       id="path5382"
       d="m 214.48379,182.12946 c 0,0.26059 0,0.52118 0,0.78177 0,0.38581 0,0.77162 0,1.15743 0.002,0.35087 -0.006,0.70182 0.007,1.05248 0.10395,2.83291 -1.2315,2.88192 -1.33545,0.049 v 0 c -0.0128,-0.36706 -0.008,-0.73423 -0.008,-1.10148 0,-0.38581 0,-0.77162 0,-1.15743 0,-0.26059 0,-0.52118 0,-0.78177 0,-2.83482 1.33635,-2.83482 1.33635,0 z"
       inkscape:connector-curvature="0" />
    <path
       style="opacity:1;fill:#000000;fill-opacity:1;fill-rule:nonzero;stroke:#000000;stroke-width:0.1;stroke-linecap:round;stroke-linejoin:round;stroke-miterlimit:4;stroke-dasharray:none;stroke-dashoffset:0;stroke-opacity:1;paint-order:markers fill stroke"
       id="path5384"
       d="m 212.86555,182.22395 c -0.0365,0.22262 -0.0256,0.449 -0.0237,0.67367 0.004,0.36014 0.008,0.72028 0.0114,1.08043 0.002,0.20332 0.003,0.40665 0.005,0.60998 0.0204,2.83475 -1.31591,2.84437 -1.33632,0.01 v 0 c -0.002,-0.20242 -0.003,-0.40485 -0.005,-0.60728 -0.003,-0.36045 -0.007,-0.72089 -0.0114,-1.08133 -0.002,-0.29167 -0.0104,-0.58512 0.037,-0.87408 0.40091,-2.80632 1.72383,-2.61734 1.32292,0.18899 z"
       inkscape:connector-curvature="0" />
    <path
       style="opacity:1;fill:#000000;fill-opacity:1;fill-rule:nonzero;stroke:#000000;stroke-width:0.1;stroke-linecap:round;stroke-linejoin:round;stroke-miterlimit:4;stroke-dasharray:none;stroke-dashoffset:0;stroke-opacity:1;paint-order:markers fill stroke"
       id="path5386"
       d="m 214.75106,182.12946 c 0,0.25796 0,0.51591 0,0.77387 0.009,0.33305 0.055,0.6626 0.0991,0.9923 0.0334,0.25861 0.0147,0.13474 0.0551,0.37179 0.46864,2.79582 -0.84932,3.01673 -1.31796,0.22092 v 0 c -0.0471,-0.28474 -0.0268,-0.14618 -0.0617,-0.41555 -0.0519,-0.38834 -0.10327,-0.77707 -0.11085,-1.16946 0,-0.25796 0,-0.51591 0,-0.77387 0,-2.83482 1.33634,-2.83482 1.33634,0 z"
       inkscape:connector-curvature="0" />
    <path
       style="opacity:1;fill:#000000;fill-opacity:1;fill-rule:nonzero;stroke:#000000;stroke-width:0.1;stroke-linecap:round;stroke-linejoin:round;stroke-miterlimit:4;stroke-dasharray:none;stroke-dashoffset:0;stroke-opacity:1;paint-order:markers fill stroke"
       id="path5406"
       d="m 66.417668,195.39844 c 0.05354,0.23739 0.120872,0.47115 0.196458,0.70244 0.143555,0.42772 0.321303,0.84176 0.496753,1.25696 0.209442,0.49852 0.466984,0.97458 0.722781,1.45032 0.279985,0.50665 0.563271,1.01152 0.861327,1.50779 0.19548,0.32858 0.100097,0.16595 0.286311,0.4878 1.419191,2.454 0.262363,3.12301 -1.156827,0.66901 v 0 c -0.177009,-0.30621 -0.0853,-0.14971 -0.275434,-0.46933 -0.308393,-0.51458 -0.602869,-1.03723 -0.892469,-1.56259 -0.275357,-0.51247 -0.551563,-1.02573 -0.776655,-1.56286 -0.19027,-0.45032 -0.38154,-0.90003 -0.536707,-1.36408 -0.09844,-0.30429 -0.188492,-0.61199 -0.248455,-0.92647 -0.400904,-2.80633 0.922012,-2.99532 1.322917,-0.18899 z"
       inkscape:connector-curvature="0" />
    <path
       style="opacity:1;fill:#000000;fill-opacity:1;fill-rule:nonzero;stroke:#000000;stroke-width:0.1;stroke-linecap:round;stroke-linejoin:round;stroke-miterlimit:4;stroke-dasharray:none;stroke-dashoffset:0;stroke-opacity:1;paint-order:markers fill stroke"
       id="path5408"
       d="m 69.479863,196.3902 c -0.161626,0.2448 -0.307726,0.50061 -0.455028,0.75446 -0.245769,0.42434 -0.480907,0.85468 -0.725892,1.27945 -0.277162,0.49519 -0.55607,0.98928 -0.838237,1.48162 -0.275384,0.47525 -0.546457,0.95336 -0.805355,1.43783 -0.04459,0.08 -0.08917,0.1601 -0.133765,0.24015 -1.380376,2.47604 -2.547591,1.82533 -1.167215,-0.65071 v 0 c 0.04087,-0.0733 0.08175,-0.14649 0.122619,-0.21974 0.265419,-0.49577 0.542224,-0.9856 0.824298,-1.47204 0.282837,-0.49346 0.562219,-0.98878 0.84019,-1.48502 0.245811,-0.42575 0.48119,-0.85742 0.7278,-1.28274 0.161356,-0.27755 0.321924,-0.5566 0.498676,-0.82453 1.572474,-2.35871 2.684383,-1.61744 1.111909,0.74127 z"
       inkscape:connector-curvature="0" />
    <path
       style="opacity:1;fill:#000000;fill-opacity:1;fill-rule:nonzero;stroke:#000000;stroke-width:0.1;stroke-linecap:round;stroke-linejoin:round;stroke-miterlimit:4;stroke-dasharray:none;stroke-dashoffset:0;stroke-opacity:1;paint-order:markers fill stroke"
       id="path5410"
       d="m 72.218123,200.91661 c 0.378587,0.007 0.706279,0.16278 1.004202,0.38403 0.321273,0.27243 0.479296,0.63988 0.5744,1.03989 0.07816,0.36023 0.07663,0.72945 0.05727,1.09545 -0.03139,0.39436 -0.107683,0.78208 -0.183883,1.16955 -0.04828,0.231 -0.04174,0.45914 0.03475,0.68179 0.06269,0.15646 0.171728,0.28094 0.301146,0.3855 0.165005,0.13267 0.36095,0.19504 0.560845,0.25248 0.148485,0.0409 0.299551,0.0709 0.450432,0.1012 2.778641,0.56157 2.513915,1.87144 -0.264728,1.30987 v 0 c -0.188482,-0.0383 -0.37714,-0.0764 -0.562338,-0.12889 -0.382042,-0.11386 -0.749586,-0.26252 -1.057733,-0.52333 -0.314999,-0.27942 -0.573122,-0.60545 -0.707067,-1.01102 -0.124179,-0.43568 -0.162428,-0.87823 -0.06654,-1.32548 0.06419,-0.32638 0.130376,-0.6523 0.160729,-0.9841 0.01357,-0.24219 0.02164,-0.48729 -0.02596,-0.72662 -0.02127,-0.10335 -0.03676,-0.2076 -0.105,-0.29186 -0.04774,-0.0455 -0.101259,-0.0803 -0.17054,-0.0921 -2.834823,0 -2.834823,-1.33635 0,-1.33635 z"
       inkscape:connector-curvature="0" />
    <path
       style="opacity:1;fill:#000000;fill-opacity:1;fill-rule:nonzero;stroke:#000000;stroke-width:0.1;stroke-linecap:round;stroke-linejoin:round;stroke-miterlimit:4;stroke-dasharray:none;stroke-dashoffset:0;stroke-opacity:1;paint-order:markers fill stroke"
       id="path5412"
       d="m 85.880333,196.52256 c 0.104511,0.24193 0.233095,0.47167 0.369612,0.69668 0.2285,0.36051 0.484765,0.70234 0.732859,1.0494 0.286327,0.40376 0.610627,0.77862 0.933868,1.15283 0.249873,0.27264 0.479116,0.56205 0.697392,0.86019 1.669788,2.29086 0.589867,3.07801 -1.079921,0.78715 v 0 c -0.195318,-0.26945 -0.404024,-0.5282 -0.628838,-0.77387 -0.349898,-0.4052 -0.699892,-0.81187 -1.009647,-1.24916 -0.268007,-0.37493 -0.544812,-0.74427 -0.789361,-1.13524 -0.15418,-0.25584 -0.302252,-0.51589 -0.42123,-0.79035 -1.267769,-2.53554 -0.0725,-3.13317 1.195266,-0.59763 z"
       inkscape:connector-curvature="0" />
    <path
       style="opacity:1;fill:#000000;fill-opacity:1;fill-rule:nonzero;stroke:#000000;stroke-width:0.1;stroke-linecap:round;stroke-linejoin:round;stroke-miterlimit:4;stroke-dasharray:none;stroke-dashoffset:0;stroke-opacity:1;paint-order:markers fill stroke"
       id="path5414"
       d="m 88.789369,196.02341 c -0.128196,0.2679 -0.250685,0.5383 -0.369367,0.81056 -0.182758,0.41746 -0.351178,0.84106 -0.515098,1.26622 -0.205711,0.5263 -0.410583,1.05291 -0.61808,1.57853 -0.221602,0.52719 -0.420876,1.06317 -0.629989,1.59533 -0.03153,0.083 -0.06306,0.16596 -0.09459,0.24894 -1.007334,2.64981 -2.256467,2.17495 -1.249132,-0.47486 v 0 c 0.03332,-0.0876 0.06664,-0.17521 0.09995,-0.26281 0.209373,-0.53283 0.408864,-1.06948 0.630767,-1.59732 0.20623,-0.52235 0.40989,-1.04568 0.614267,-1.56875 0.170998,-0.44309 0.346515,-0.88462 0.537073,-1.31971 0.117681,-0.26947 0.237749,-0.53789 0.365897,-0.80254 1.11669,-2.60561 2.344989,-2.0792 1.228297,0.52641 z"
       inkscape:connector-curvature="0" />
    <path
       style="opacity:1;fill:#000000;fill-opacity:1;fill-rule:nonzero;stroke:#000000;stroke-width:0.1;stroke-linecap:round;stroke-linejoin:round;stroke-miterlimit:4;stroke-dasharray:none;stroke-dashoffset:0;stroke-opacity:1;paint-order:markers fill stroke"
       id="path5416"
       d="m 92.844129,200.0037 c 0.181007,-0.22652 0.416529,-0.39328 0.667647,-0.5324 0.42853,-0.21161 0.823439,-0.15231 1.205566,0.11366 0.283925,0.27319 0.339974,0.62856 0.343541,1.0027 -0.0085,0.33768 -0.112702,0.66089 -0.199255,0.9843 -0.08193,0.22987 -0.074,0.45442 -0.04066,0.69016 0.04846,0.24083 0.166106,0.45928 0.274029,0.67753 0.185394,0.31214 0.342805,0.63803 0.471131,0.97737 0.165351,0.42661 0.183282,0.86931 0.115839,1.31631 -0.07616,0.39842 -0.268456,0.73636 -0.539855,1.0317 -0.292145,0.27576 -0.649383,0.3848 -1.04285,0.39317 -2.83478,0.0151 -2.841898,-1.32123 -0.0071,-1.33633 v 0 c 0.0409,0.002 0.04098,0.0117 0.08565,0.018 0.09993,-0.0855 0.151789,-0.20129 0.186095,-0.32675 0.04482,-0.21432 0.02877,-0.42476 -0.05041,-0.63058 -0.107704,-0.29824 -0.260257,-0.57538 -0.416435,-0.85065 -0.172151,-0.3483 -0.341874,-0.70243 -0.400386,-1.09078 -0.05367,-0.40962 -0.05212,-0.81651 0.0741,-1.21481 0.05591,-0.20869 0.123187,-0.41614 0.153799,-0.6304 -1.5e-4,-0.19713 0.0071,-0.0879 0.119986,0.001 0.08171,0.0437 0.276694,0.1091 0.29272,0.0553 -0.143333,0.0627 -0.247796,0.17987 -0.348195,0.29641 -2.00452,2.00452 -2.949461,1.05958 -0.944941,-0.94494 z"
       inkscape:connector-curvature="0" />
    <path
       style="opacity:1;fill:#000000;fill-opacity:1;fill-rule:nonzero;stroke:#000000;stroke-width:0.1;stroke-linecap:round;stroke-linejoin:round;stroke-miterlimit:4;stroke-dasharray:none;stroke-dashoffset:0;stroke-opacity:1;paint-order:markers fill stroke"
       id="path5418"
       d="m 126.39595,195.27192 c 0.21788,0.17543 0.41251,0.37654 0.61551,0.56835 0.3436,0.32822 0.69899,0.64335 1.05488,0.95807 0.43561,0.38014 0.85392,0.77946 1.27089,1.17978 0.35957,0.33734 0.6998,0.69276 1.01906,1.06827 1.83264,2.16278 0.8131,3.0267 -1.01955,0.86392 v 0 c -0.28842,-0.34177 -0.59955,-0.66181 -0.92519,-0.96839 -0.40359,-0.3878 -0.80872,-0.77439 -1.23048,-1.14252 -0.36715,-0.32468 -0.73359,-0.65004 -1.08818,-0.98853 -0.21173,-0.20066 -0.41774,-0.40687 -0.64188,-0.59401 -2.00452,-2.00452 -1.05958,-2.94946 0.94494,-0.94494 z"
       inkscape:connector-curvature="0" />
    <path
       style="opacity:1;fill:#000000;fill-opacity:1;fill-rule:nonzero;stroke:#000000;stroke-width:0.1;stroke-linecap:round;stroke-linejoin:round;stroke-miterlimit:4;stroke-dasharray:none;stroke-dashoffset:0;stroke-opacity:1;paint-order:markers fill stroke"
       id="path5420"
       d="m 130.00603,194.92135 c -0.16484,0.14565 -0.28141,0.3315 -0.39038,0.52036 -0.23087,0.39742 -0.41671,0.81918 -0.6006,1.2398 -0.237,0.54669 -0.45953,1.09954 -0.68387,1.65152 -0.22994,0.55899 -0.46586,1.11551 -0.69418,1.67517 -0.0391,0.0907 -0.0782,0.18144 -0.11738,0.27216 -1.12384,2.60253 -2.35069,2.07275 -1.22684,-0.52979 v 0 c 0.0357,-0.0825 0.0713,-0.1649 0.10696,-0.24735 0.22824,-0.559 0.46367,-1.11502 0.69345,-1.67339 0.2288,-0.56286 0.45574,-1.12662 0.69759,-1.68404 0.20561,-0.4695 0.41454,-0.93954 0.67358,-1.38258 0.19033,-0.31868 0.39936,-0.62745 0.68616,-0.86847 2.17777,-1.81481 3.03328,-0.7882 0.85551,1.02661 z"
       inkscape:connector-curvature="0" />
    <path
       style="opacity:1;fill:#000000;fill-opacity:1;fill-rule:nonzero;stroke:#000000;stroke-width:0.1;stroke-linecap:round;stroke-linejoin:round;stroke-miterlimit:4;stroke-dasharray:none;stroke-dashoffset:0;stroke-opacity:1;paint-order:markers fill stroke"
       id="path5424"
       d="m 134.27263,200.04058 c 0.1172,0.27003 0.17952,0.55828 0.26392,0.83896 0.11122,0.34776 0.19494,0.703 0.26843,1.06035 0.0977,0.38734 0.16733,0.78096 0.25686,1.17004 0.0731,0.29052 0.14414,0.58234 0.19088,0.87842 0.13934,0.35968 -1.11968,0.93695 -1.35856,0.17073 -0.0868,-0.28146 -0.12262,-0.57026 -0.12104,-0.86379 0.0226,-0.3904 0.17997,-0.74538 0.37637,-1.0768 0.23024,-0.38097 0.57252,-0.59691 0.99539,-0.70498 0.42399,-0.0686 0.80221,0.0774 1.1613,0.28705 0.302,0.1962 0.5802,0.42725 0.85345,0.66121 0.17954,0.16494 0.39117,0.28291 0.6223,0.3573 0.1596,0.058 0.31165,0.0529 0.47084,0.004 0.14004,-0.0521 0.25033,-0.15022 0.34375,-0.26403 0.0368,-0.0572 0.0239,-0.0302 0.043,-0.0788 1.38823,-2.47165 2.55337,-1.81723 1.16514,0.65442 v 0 c -0.12831,0.21608 -0.0584,0.11191 -0.20958,0.31253 -0.28137,0.30725 -0.60794,0.55726 -1.01571,0.67174 -0.41515,0.0967 -0.82857,0.10951 -1.23605,-0.037 -0.38581,-0.13876 -0.74921,-0.32748 -1.05454,-0.60599 -0.21457,-0.18516 -0.43425,-0.36631 -0.66752,-0.52737 -0.0655,-0.0409 -0.14806,-0.0781 -0.20368,-0.12628 -0.0385,-0.0546 -0.0935,0.0549 -0.12715,0.0925 -0.0821,0.12566 -0.15046,0.2653 -0.18132,0.41273 -0.013,0.14837 0.0263,0.29411 0.0618,0.43725 0.22374,0.73258 -1.27106,1.12602 -1.23845,0.43045 -0.0409,-0.26562 -0.10946,-0.5265 -0.17337,-0.7873 -0.0905,-0.39906 -0.16452,-0.8018 -0.26317,-1.19912 -0.0653,-0.31973 -0.14032,-0.63742 -0.24037,-0.94833 -0.0682,-0.23161 -0.12064,-0.46849 -0.21115,-0.69297 -1.11669,-2.60561 0.1116,-3.13202 1.22829,-0.52641 z"
       inkscape:connector-curvature="0" />
    <path
       style="opacity:1;fill:#000000;fill-opacity:1;fill-rule:nonzero;stroke:#000000;stroke-width:0.1;stroke-linecap:round;stroke-linejoin:round;stroke-miterlimit:4;stroke-dasharray:none;stroke-dashoffset:0;stroke-opacity:1;paint-order:markers fill stroke"
       id="path5426"
       d="m 146.54269,195.13094 c 0.2449,0.13889 0.48019,0.29349 0.71482,0.44885 0.37331,0.25672 0.73695,0.52746 1.09942,0.79922 0.44461,0.31937 0.88521,0.64409 1.31063,0.98869 0.45293,0.35359 0.88671,0.73037 1.30574,1.1233 0.33728,0.30206 0.65128,0.6281 0.96842,0.95075 1.98704,2.02185 1.03393,2.95855 -0.95311,0.9367 v 0 c -0.30458,-0.30997 -0.60585,-0.62351 -0.93013,-0.91332 -0.39495,-0.37154 -0.80553,-0.72588 -1.23293,-1.05972 -0.41161,-0.33464 -0.84033,-0.64689 -1.27038,-0.95728 -0.34165,-0.25627 -0.6845,-0.5114 -1.03577,-0.75433 -0.18944,-0.12561 -0.38028,-0.24969 -0.57434,-0.36759 -2.53554,-1.26777 -1.93791,-2.46304 0.59763,-1.19527 z"
       inkscape:connector-curvature="0" />
    <path
       style="opacity:1;fill:#000000;fill-opacity:1;fill-rule:nonzero;stroke:#000000;stroke-width:0.1;stroke-linecap:round;stroke-linejoin:round;stroke-miterlimit:4;stroke-dasharray:none;stroke-dashoffset:0;stroke-opacity:1;paint-order:markers fill stroke"
       id="path5428"
       d="m 150.33911,194.42386 c 0.0107,0.32659 -0.029,0.65077 -0.0714,0.97379 -0.0697,0.49602 -0.19206,0.98148 -0.32444,1.46383 -0.15168,0.55193 -0.31874,1.0995 -0.49925,1.64266 -0.18571,0.56325 -0.39871,1.11755 -0.61862,1.66825 -1.0527,2.63212 -2.29349,2.13587 -1.24079,-0.49624 v 0 c 0.21071,-0.52596 0.41363,-1.05589 0.59142,-1.59394 0.17351,-0.52074 0.33308,-1.04606 0.47878,-1.57528 0.11674,-0.42298 0.22535,-0.84846 0.28794,-1.2834 0.0349,-0.26535 0.071,-0.53124 0.06,-0.79967 0,-2.83482 1.33635,-2.83482 1.33635,0 z"
       inkscape:connector-curvature="0" />
    <path
       style="opacity:1;fill:#000000;fill-opacity:1;fill-rule:nonzero;stroke:#000000;stroke-width:0.1;stroke-linecap:round;stroke-linejoin:round;stroke-miterlimit:4;stroke-dasharray:none;stroke-dashoffset:0;stroke-opacity:1;paint-order:markers fill stroke"
       id="path5432"
       d="m 154.88388,199.40748 c 0.0632,0.21229 0.0971,0.4323 0.14684,0.64803 0.0867,0.34108 0.14011,0.68906 0.2102,1.03355 0.077,0.35819 0.13756,0.71961 0.21653,1.07737 0.0774,0.30646 0.10834,0.24344 -0.0978,0.0149 -0.28684,0.0162 -0.576,0.009 -0.86051,0.0487 -0.0671,0.009 -0.10227,0.25338 -0.0647,-0.034 0.0215,-0.27332 0.0546,-0.54388 0.11204,-0.81206 0.0936,-0.39429 0.31902,-0.7153 0.60499,-0.99318 0.33439,-0.30349 0.73481,-0.37855 1.16875,-0.31297 0.3629,0.0817 0.64183,0.31509 0.90606,0.56226 0.23879,0.22596 0.40962,0.50789 0.61641,0.76036 0.0789,0.0773 0.16654,0.21018 0.2837,0.20755 0.0367,-0.0376 0.0878,-0.068 0.13271,-0.0983 0.0648,-0.0461 0.11705,-0.10525 0.16944,-0.16423 1.93853,-2.06841 2.91359,-1.15458 0.97506,0.91383 v 0 c -0.13455,0.14026 -0.27022,0.27894 -0.43601,0.38348 -0.35947,0.21813 -0.74044,0.34931 -1.1655,0.26165 -0.40269,-0.11788 -0.73533,-0.33151 -0.99834,-0.66346 -0.16745,-0.2087 -0.31244,-0.43439 -0.49581,-0.63004 -0.0795,-0.0767 -0.16254,-0.14933 -0.2457,-0.22186 0.028,-0.0174 0.083,-0.0726 0.004,-0.0238 -0.0993,0.0829 -0.17835,0.18312 -0.21503,0.30914 -0.0552,0.23067 -0.0657,0.46683 -0.0923,0.70184 -0.11484,0.82328 -0.17578,0.77509 -1.19736,0.87665 -0.22907,-0.23375 -0.35418,-0.47439 -0.40887,-0.7993 -0.0802,-0.36537 -0.14345,-0.73405 -0.22129,-1.09992 -0.0671,-0.33415 -0.12009,-0.67123 -0.20344,-1.00203 -0.0566,-0.25151 -0.10488,-0.50478 -0.16663,-0.75515 -0.4009,-2.80633 0.92202,-2.99532 1.32292,-0.18899 z"
       inkscape:connector-curvature="0" />
    <path
       style="opacity:1;fill:#000000;fill-opacity:1;fill-rule:nonzero;stroke:#000000;stroke-width:0.1;stroke-linecap:round;stroke-linejoin:round;stroke-miterlimit:4;stroke-dasharray:none;stroke-dashoffset:0;stroke-opacity:1;paint-order:markers fill stroke"
       id="path5452"
       d="m 162.11518,199.59488 c 0.24265,0.033 0.48678,0.053 0.73085,0.0718 0.0497,0.004 0.0993,0.008 0.14896,0.0115 2.82643,0.21788 2.72372,1.55028 -0.10271,1.33239 v 0 c -0.0497,-0.004 -0.0995,-0.008 -0.14921,-0.0115 -0.27283,-0.0211 -0.5457,-0.0439 -0.81688,-0.0813 -2.80633,-0.4009 -2.61734,-1.72382 0.18899,-1.32291 z"
       inkscape:connector-curvature="0" />
    <path
       style="opacity:1;fill:#000000;fill-opacity:1;fill-rule:nonzero;stroke:#000000;stroke-width:0.1;stroke-linecap:round;stroke-linejoin:round;stroke-miterlimit:4;stroke-dasharray:none;stroke-dashoffset:0;stroke-opacity:1;paint-order:markers fill stroke"
       id="path5454"
       d="m 163.42542,198.24934 c 0.0776,0.26508 0.11234,0.53966 0.17169,0.8087 0.0825,0.34372 0.14622,0.6913 0.20184,1.04024 0.009,0.0653 0.019,0.13068 0.0285,0.19602 0.40735,2.8054 -0.91513,2.99743 -1.32248,0.19203 v 0 c -0.009,-0.0594 -0.0172,-0.11881 -0.0258,-0.17821 -0.0515,-0.32495 -0.11131,-0.64845 -0.1884,-0.96844 -0.0511,-0.24088 -0.0861,-0.48518 -0.15029,-0.72322 -0.77878,-2.72575 0.50615,-3.09287 1.28493,-0.36712 z"
       inkscape:connector-curvature="0" />
    <path
       style="opacity:1;fill:#000000;fill-opacity:1;fill-rule:nonzero;stroke:#000000;stroke-width:0.1;stroke-linecap:round;stroke-linejoin:round;stroke-miterlimit:4;stroke-dasharray:none;stroke-dashoffset:0;stroke-opacity:1;paint-order:markers fill stroke"
       id="path5456"
       d="m 167.70173,197.98207 c 0.0776,0.27008 0.11619,0.5488 0.17312,0.82339 0.0765,0.35848 0.13912,0.71947 0.21411,1.07824 0.0757,0.35398 0.13579,0.71092 0.19117,1.06855 0.43319,2.80152 -0.88747,3.00573 -1.32065,0.2042 v 0 c -0.0517,-0.3345 -0.10773,-0.66834 -0.17862,-0.99939 -0.0753,-0.36054 -0.13863,-0.72323 -0.21519,-1.08352 -0.049,-0.24156 -0.0846,-0.48607 -0.14887,-0.72435 -0.77878,-2.72575 0.50615,-3.09287 1.28493,-0.36712 z"
       inkscape:connector-curvature="0" />
    <path
       style="opacity:1;fill:#000000;fill-opacity:1;fill-rule:nonzero;stroke:#000000;stroke-width:0.1;stroke-linecap:round;stroke-linejoin:round;stroke-miterlimit:4;stroke-dasharray:none;stroke-dashoffset:0;stroke-opacity:1;paint-order:markers fill stroke"
       id="path5458"
       d="m 57.555099,146.14257 c -0.03343,0.21156 -0.0313,0.427 -0.01688,0.64017 0.02246,0.3358 0.07128,0.66941 0.132379,1.00018 0.07144,0.39419 0.153395,0.78617 0.227663,1.17979 0.009,0.0611 0.0181,0.12225 0.02716,0.18337 0.406109,2.80558 -0.916456,2.99702 -1.322562,0.19144 v 0 c -0.0059,-0.0424 -0.01185,-0.0847 -0.01778,-0.12708 -0.07474,-0.39626 -0.157216,-0.79089 -0.229135,-1.18772 -0.06941,-0.38437 -0.127169,-0.77146 -0.151767,-1.16158 -0.01614,-0.30256 -0.02,-0.60736 0.02801,-0.90756 0.400904,-2.80633 1.723821,-2.61734 1.322916,0.18899 z"
       inkscape:connector-curvature="0" />
    <path
       style="opacity:1;fill:#000000;fill-opacity:1;fill-rule:nonzero;stroke:#000000;stroke-width:0.1;stroke-linecap:round;stroke-linejoin:round;stroke-miterlimit:4;stroke-dasharray:none;stroke-dashoffset:0;stroke-opacity:1;paint-order:markers fill stroke"
       id="path5464"
       d="m 54.991289,138.16291 c 0.17117,-0.33787 0.460428,-0.55091 0.796251,-0.7063 0.343559,-0.13802 0.703627,-0.15767 1.066546,-0.11179 0.380021,0.0501 0.698193,0.23281 0.983975,0.47836 0.294862,0.28953 0.447254,0.65316 0.518366,1.05294 0.04666,0.43109 -0.100822,0.81162 -0.337347,1.16229 -0.227115,0.30564 -0.53758,0.50519 -0.883324,0.65088 -0.393925,0.15407 -0.782273,0.10109 -1.165656,-0.048 -0.366985,-0.16699 -0.631857,-0.45631 -0.852284,-0.78496 -0.197993,-0.31199 -0.293778,-0.66181 -0.342233,-1.02418 -0.03721,-0.31931 0.03449,-0.62906 0.127725,-0.93168 0.864391,-2.69982 2.1371,-2.29234 1.272706,0.40748 v 0 c -0.03979,0.11438 -0.07751,0.23379 -0.07471,0.35601 0.0186,0.1629 0.05044,0.32083 0.13665,0.4636 0.06444,0.10764 0.14129,0.21016 0.247017,0.28055 0.05282,0.0305 0.08527,0.0624 0.147717,0.0431 0.111168,-0.0408 0.215575,-0.0931 0.295027,-0.18405 0.04979,-0.0585 0.09199,-0.11981 0.106553,-0.19686 0.008,-0.0905 -0.04843,-0.17246 -0.08643,-0.25049 -0.0832,-0.0854 -0.170603,-0.14051 -0.293041,-0.15363 -0.107821,-0.0303 -0.221819,-0.009 -0.329089,0.0136 -0.05802,0.0208 -0.104638,0.0238 -0.139158,0.0807 -1.267769,2.53554 -2.463035,1.93791 -1.195266,-0.59763 z"
       inkscape:connector-curvature="0" />
    <path
       style="opacity:1;fill:#000000;fill-opacity:1;fill-rule:nonzero;stroke:#000000;stroke-width:0.1;stroke-linecap:round;stroke-linejoin:round;stroke-miterlimit:4;stroke-dasharray:none;stroke-dashoffset:0;stroke-opacity:1;paint-order:markers fill stroke"
       id="path5466"
       d="m 60.778148,143.81542 c 0.05744,0.25452 0.12841,0.5057 0.197447,0.75728 0.127768,0.42194 0.252791,0.84476 0.372997,1.26894 0.133808,0.41889 0.265803,0.83809 0.379923,1.26279 0.03702,0.16522 0.09616,0.32274 0.15798,0.47952 -0.899171,-1.4027 -1.359069,0.80474 -1.146622,-0.35863 0.03506,-0.33258 0.123238,-0.64896 0.252404,-0.95649 0.161272,-0.36904 0.425228,-0.65203 0.753018,-0.87705 0.358772,-0.22275 0.76046,-0.24873 1.169294,-0.21476 0.424082,0.0526 0.803452,0.23947 1.16186,0.4616 0.357237,0.21523 0.67488,0.48517 0.975799,0.772 0.268414,0.24179 0.508021,0.51219 0.739261,0.78897 1.813862,2.17856 0.786877,3.03362 -1.026982,0.85507 v 0 c -0.198311,-0.2392 -0.405133,-0.47173 -0.637016,-0.67932 -0.234233,-0.22625 -0.482992,-0.43793 -0.763194,-0.60592 -0.178474,-0.11551 -0.366321,-0.22052 -0.577281,-0.26216 -0.105833,-0.0134 -0.221046,-0.0347 -0.321416,0.0101 -0.110447,0.0669 -0.193212,0.16287 -0.247626,0.28386 -0.0985,0.2109 -0.133953,0.43578 -0.16375,0.66544 -0.0085,0.0461 -0.06031,0.45869 -0.09453,0.47097 -1.209079,0.43396 -1.030901,0.6542 -1.301982,0.17165 -0.08922,-0.21384 -0.163899,-0.43317 -0.219835,-0.65824 -0.112434,-0.41888 -0.24461,-0.83168 -0.375086,-1.24526 -0.12106,-0.42772 -0.247695,-0.85386 -0.375933,-1.27947 -0.08383,-0.30553 -0.171948,-0.61047 -0.231651,-0.92191 -0.400905,-2.80633 0.922012,-2.99531 1.322917,-0.18898 z"
       inkscape:connector-curvature="0" />
    <path
       style="opacity:1;fill:#000000;fill-opacity:1;fill-rule:nonzero;stroke:#000000;stroke-width:0.1;stroke-linecap:round;stroke-linejoin:round;stroke-miterlimit:4;stroke-dasharray:none;stroke-dashoffset:0;stroke-opacity:1;paint-order:markers fill stroke"
       id="path5468"
       d="m 72.043799,140.40842 c 0.05336,-0.20047 0.09929,-0.40262 0.100245,-0.61067 -0.0062,-0.27789 -0.07647,-0.54062 -0.172863,-0.799 -0.123338,-0.28513 -0.301548,-0.54416 -0.495964,-0.7852 -0.126579,-0.13946 -0.271706,-0.25914 -0.45031,-0.30625 -0.02405,0.0332 0.03157,0.0277 0.07354,0.0422 -0.113864,0.29763 -0.09211,0.62567 -0.07975,0.9378 0.02484,0.72 0.152699,1.42948 0.277786,2.13712 0.162489,0.87469 0.354476,1.74375 0.55662,2.61004 0.195789,0.85362 0.404516,1.70419 0.600038,2.55788 0.172961,0.72432 0.302535,1.4572 0.400336,2.1951 0.05701,0.48328 0.08433,0.96955 0.01214,1.45189 -0.463116,2.79673 -1.781511,2.57842 -1.318392,-0.21832 v 0 c 0.07224,-0.34693 0.0024,-0.70978 -0.01855,-1.05825 -0.09204,-0.69664 -0.214577,-1.3884 -0.378167,-2.07212 -0.195066,-0.85196 -0.403486,-1.70076 -0.598831,-2.55266 -0.207431,-0.88984 -0.404752,-1.78246 -0.571151,-2.68098 -0.1359,-0.76906 -0.27134,-1.54052 -0.297362,-2.32298 -0.01879,-0.59749 -0.0081,-1.20454 0.308586,-1.73356 0.349393,-0.45325 0.790517,-0.70485 1.37841,-0.58409 0.457557,0.14167 0.842283,0.39445 1.150895,0.76534 0.280652,0.35616 0.538015,0.73553 0.705639,1.15939 0.150384,0.41899 0.255246,0.84896 0.253066,1.29742 -0.01347,0.31819 -0.06162,0.63076 -0.15104,0.93707 -0.778785,2.72575 -2.063716,2.35863 -1.284931,-0.36712 z"
       inkscape:connector-curvature="0" />
    <path
       style="opacity:1;fill:#000000;fill-opacity:1;fill-rule:nonzero;stroke:#000000;stroke-width:0.1;stroke-linecap:round;stroke-linejoin:round;stroke-miterlimit:4;stroke-dasharray:none;stroke-dashoffset:0;stroke-opacity:1;paint-order:markers fill stroke"
       id="path5470"
       d="m 66.586511,144.25547 c 0.330814,0.009 0.660606,-0.0126 0.99065,-0.0316 0.558443,-0.0289 1.116857,-0.0521 1.674583,-0.0929 0.517577,-0.03 1.031565,-0.0972 1.544425,-0.17052 2.806335,-0.40086 2.995303,0.92206 0.188966,1.32292 v 0 c -0.543232,0.0775 -1.087721,0.14811 -1.635877,0.18039 -0.564668,0.0413 -1.12999,0.0654 -1.695391,0.0943 -0.35555,0.0204 -0.711005,0.0425 -1.067356,0.0338 -2.834823,0 -2.834823,-1.33635 0,-1.33635 z"
       inkscape:connector-curvature="0" />
    <path
       style="opacity:1;fill:#000000;fill-opacity:1;fill-rule:nonzero;stroke:#000000;stroke-width:0.1;stroke-linecap:round;stroke-linejoin:round;stroke-miterlimit:4;stroke-dasharray:none;stroke-dashoffset:0;stroke-opacity:1;paint-order:markers fill stroke"
       id="path5476"
       d="m 79.442837,140.59141 c 0.162997,0.26811 0.324832,0.53687 0.493033,0.80186 0.261403,0.39739 0.533154,0.78785 0.812599,1.17273 0.336627,0.45029 0.678677,0.89668 1.031917,1.33408 0.350364,0.43314 0.694674,0.87084 1.032415,1.31391 0.207955,0.29102 0.108228,0.14451 0.299527,0.4393 1.536642,2.38221 0.413655,3.10659 -1.122987,0.72438 v 0 c -0.148431,-0.23193 -0.06899,-0.11376 -0.239477,-0.35375 -0.330002,-0.43327 -0.666755,-0.86102 -1.009298,-1.28443 -0.367432,-0.45533 -0.723723,-0.91963 -1.073621,-1.38855 -0.295656,-0.40752 -0.583467,-0.82076 -0.859531,-1.24183 -0.162631,-0.25652 -0.320982,-0.51562 -0.476485,-0.77643 -1.572475,-2.35871 -0.460568,-3.09999 1.111908,-0.74127 z"
       inkscape:connector-curvature="0" />
    <path
       style="opacity:1;fill:#000000;fill-opacity:1;fill-rule:nonzero;stroke:#000000;stroke-width:0.1;stroke-linecap:round;stroke-linejoin:round;stroke-miterlimit:4;stroke-dasharray:none;stroke-dashoffset:0;stroke-opacity:1;paint-order:markers fill stroke"
       id="path5478"
       d="m 81.893088,139.80357 c -0.06617,0.29444 -0.135567,0.58785 -0.190677,0.88464 -0.102809,0.50353 -0.195808,1.00883 -0.306583,1.51072 -0.124881,0.59997 -0.265158,1.19636 -0.412504,1.79115 -0.145624,0.60142 -0.30407,1.19963 -0.473742,1.79468 -0.102391,0.36617 -0.0524,0.18382 -0.150029,0.54707 -0.736103,2.73758 -2.026613,2.39058 -1.290511,-0.34701 v 0 c 0.10178,-0.37835 0.04997,-0.1895 0.155422,-0.56652 0.165433,-0.58008 0.319865,-1.16325 0.461721,-1.74956 0.144664,-0.58393 0.282372,-1.16941 0.404839,-1.75846 0.108088,-0.48738 0.197297,-0.97842 0.297749,-1.46738 0.06063,-0.3231 0.134872,-0.64298 0.207867,-0.96344 0.687547,-2.75018 1.983994,-2.42607 1.296448,0.32411 z"
       inkscape:connector-curvature="0" />
    <path
       style="opacity:1;fill:#000000;fill-opacity:1;fill-rule:nonzero;stroke:#000000;stroke-width:0.1;stroke-linecap:round;stroke-linejoin:round;stroke-miterlimit:4;stroke-dasharray:none;stroke-dashoffset:0;stroke-opacity:1;paint-order:markers fill stroke"
       id="path5480"
       d="m 86.99708,144.52816 c 0.07761,0.27009 0.11619,0.54881 0.173117,0.82339 0.08209,0.36938 0.145548,0.74233 0.201401,1.11644 0.04251,0.29639 0.07483,0.59458 0.134099,0.88829 0.0042,0.0167 0.0062,0.0341 0.01265,0.0501 0.0036,0.009 -0.0013,-0.0194 -0.004,-0.0286 -0.01521,-0.0504 -0.05066,-0.11188 -0.0871,-0.14428 -0.217549,-0.19338 -0.211448,-0.14155 -0.523725,-0.18597 -0.293743,0.063 -0.366347,0.25981 -0.186663,-0.0371 0.177906,-0.29817 0.43217,-0.52234 0.725329,-0.70126 0.363196,-0.2083 0.747736,-0.21332 1.142664,-0.11145 0.343106,0.11333 0.627951,0.33752 0.899982,0.56774 0.184957,0.17379 0.09408,0.0831 0.272246,0.27243 1.929016,2.07728 0.949775,2.98663 -0.979241,0.90935 v 0 c -0.101918,-0.11233 -0.04907,-0.0578 -0.158586,-0.16365 -0.12863,-0.11003 -0.259549,-0.22247 -0.408956,-0.30308 -0.04075,-0.0323 -0.03083,-0.049 -0.0969,-0.0158 -0.11312,0.0502 -0.194652,0.14621 -0.260046,0.24871 -0.185507,0.29639 -0.369893,0.55936 -0.732504,0.65262 -0.132038,-0.0117 -0.269301,0.003 -0.396113,-0.0352 -0.311021,-0.0947 -0.465423,-0.4269 -0.529677,-0.7139 -0.06208,-0.31517 -0.102056,-0.6339 -0.145196,-0.95209 -0.0521,-0.35034 -0.11172,-0.6995 -0.18883,-1.04533 -0.04899,-0.24156 -0.08459,-0.48607 -0.148866,-0.72435 -0.778785,-2.72574 0.506146,-3.09287 1.284931,-0.36712 z"
       inkscape:connector-curvature="0" />
    <path
       style="opacity:1;fill:#000000;fill-opacity:1;fill-rule:nonzero;stroke:#000000;stroke-width:0.1;stroke-linecap:round;stroke-linejoin:round;stroke-miterlimit:4;stroke-dasharray:none;stroke-dashoffset:0;stroke-opacity:1;paint-order:markers fill stroke"
       id="path5484"
       d="m 182.5605,140.49907 c -0.20736,-0.0267 -0.41784,-0.01 -0.62542,0.007 -0.32575,0.0187 -0.64324,0.0946 -0.96096,0.16333 -0.30503,0.0761 -0.60746,0.16551 -0.89164,0.30116 -0.17608,0.089 -0.31393,0.22738 -0.41787,0.39313 -0.0589,0.10285 -0.10224,0.21304 -0.0831,0.33187 0.0286,0.16992 0.0967,0.32461 0.17657,0.47618 0.11455,0.22851 0.24945,0.44605 0.40914,0.64566 0.19914,0.25227 0.40678,0.4982 0.62127,0.73759 0.26403,0.28473 0.53111,0.56666 0.78092,0.86406 0.31242,0.36438 0.51856,0.78083 0.63856,1.24254 0.0993,0.45053 0.0254,0.89657 -0.0976,1.33276 -0.12899,0.4314 -0.39219,0.77229 -0.72671,1.0635 -0.30439,0.24602 -0.66143,0.3907 -1.03806,0.4816 -0.35101,0.077 -0.70747,0.0547 -1.0585,-0.005 -0.2269,-0.0355 -0.44077,-0.11387 -0.65002,-0.20516 -2.57917,-1.17647 -2.02458,-2.3923 0.5546,-1.21584 v 0 c 0.10377,0.0543 0.21755,0.0854 0.33261,0.10587 0.17288,0.0357 0.35165,0.0485 0.52619,0.0164 0.16917,-0.0317 0.32821,-0.0979 0.46905,-0.1976 0.14184,-0.11286 0.25229,-0.23928 0.30754,-0.41693 0.064,-0.2092 0.11696,-0.42496 0.0823,-0.64475 -0.0538,-0.26613 -0.19305,-0.49176 -0.36488,-0.70027 -0.23926,-0.28746 -0.50022,-0.55568 -0.7527,-0.83142 -0.23254,-0.26109 -0.45939,-0.52767 -0.6756,-0.80245 -0.21018,-0.27078 -0.39731,-0.55809 -0.54956,-0.86579 -0.16483,-0.33094 -0.29845,-0.67484 -0.32103,-1.04834 5.3e-4,-0.40141 0.0891,-0.77694 0.31379,-1.11592 0.25127,-0.35878 0.5597,-0.66383 0.96048,-0.85416 0.37634,-0.17174 0.76867,-0.30185 1.17193,-0.39522 0.37524,-0.0811 0.75093,-0.1662 1.13545,-0.18915 0.30656,-0.0245 0.61648,-0.0407 0.92232,0.002 2.80634,0.4009 2.61735,1.72382 -0.18898,1.32292 z"
       inkscape:connector-curvature="0" />
    <path
       style="opacity:1;fill:#000000;fill-opacity:1;fill-rule:nonzero;stroke:#000000;stroke-width:0.1;stroke-linecap:round;stroke-linejoin:round;stroke-miterlimit:4;stroke-dasharray:none;stroke-dashoffset:0;stroke-opacity:1;paint-order:markers fill stroke"
       id="path5486"
       d="m 185.2494,141.77176 c 0.031,0.2282 0.0435,0.45854 0.0745,0.68676 0.0376,0.33312 0.10817,0.65979 0.19055,0.9842 0.0656,0.24394 0.17337,0.47306 0.3466,0.65829 0.0834,0.0728 0.18179,0.11091 0.29187,0.0981 0.11348,0.005 0.20278,-0.0289 0.28696,-0.10082 0.12902,-0.13074 0.21997,-0.29312 0.32716,-0.44141 0.26254,-0.37063 0.62277,-0.4975 1.0639,-0.43604 0.3522,0.11209 0.56777,0.37615 0.76276,0.67296 0.15949,0.26844 0.30938,0.54257 0.44054,0.82603 0.14339,0.3176 0.29037,0.63321 0.44352,0.9462 0.0695,0.15121 0.15718,0.29226 0.24637,0.43226 1.51234,2.39772 0.38204,3.11064 -1.1303,0.71293 v 0 c -0.11354,-0.18131 -0.2259,-0.36354 -0.31643,-0.55786 -0.15793,-0.32278 -0.30956,-0.64827 -0.45753,-0.97574 -0.10177,-0.22386 -0.22258,-0.4378 -0.34395,-0.65143 -0.0697,-0.10682 -0.1497,-0.17984 0.034,-0.10813 0.19329,0.007 0.47391,-0.17453 0.33784,-0.0752 -0.19773,0.26939 -0.3685,0.56287 -0.65086,0.75663 -0.33693,0.22035 -0.70046,0.35527 -1.10973,0.33431 -0.47993,-0.0372 -0.90592,-0.20184 -1.23989,-0.56214 -0.29409,-0.35412 -0.51751,-0.74976 -0.62819,-1.20048 -0.095,-0.37524 -0.17545,-0.75352 -0.22015,-1.13849 -0.0367,-0.28602 -0.0621,-0.57364 -0.0859,-0.86098 0,-2.83482 1.33634,-2.83482 1.33634,0 z"
       inkscape:connector-curvature="0" />
    <path
       style="opacity:1;fill:#000000;fill-opacity:1;fill-rule:nonzero;stroke:#000000;stroke-width:0.1;stroke-linecap:round;stroke-linejoin:round;stroke-miterlimit:4;stroke-dasharray:none;stroke-dashoffset:0;stroke-opacity:1;paint-order:markers fill stroke"
       id="path5488"
       d="m 192.41886,143.33592 c 0.14449,0.25592 0.25848,0.52755 0.3625,0.80191 0.1483,0.43079 0.27337,0.86903 0.38394,1.31087 0.13102,0.50909 0.26199,1.01819 0.39082,1.52785 0.13257,0.51345 0.28277,1.02175 0.43047,1.53095 0.11815,0.36715 0.24783,0.73032 0.3649,1.09785 0.41195,0.59072 -0.97471,1.1756 -1.25659,0.51259 -0.12617,-0.30254 -0.24927,-0.60636 -0.37255,-0.91012 -0.18252,-0.44029 -0.36269,-0.88157 -0.54444,-1.32219 -0.20702,-0.48567 -0.42176,-0.96779 -0.61525,-1.45908 -0.19872,-0.51558 -0.36207,-1.04389 -0.49198,-1.58074 -0.13619,-0.52062 -0.15667,-1.05072 -0.0903,-1.58203 0.0711,-0.45897 0.26975,-0.8699 0.5394,-1.24243 0.2905,-0.37019 0.68895,-0.56149 1.13492,-0.67243 0.40281,-0.0907 0.81148,-0.0514 1.21416,0.0129 0.40907,0.073 0.78424,0.23199 1.12315,0.4691 0.39351,0.30421 0.55457,0.72612 0.59427,1.20695 0.006,0.44264 -0.14411,0.85734 -0.31529,1.25821 -0.11376,0.25836 -0.2776,0.48599 -0.45495,0.70331 -1.81228,2.17988 -2.83988,1.32557 -1.0276,-0.85431 v 0 c 0.10018,-0.1161 0.19078,-0.23994 0.25606,-0.3796 0.0922,-0.20909 0.18205,-0.42484 0.20747,-0.65388 0.006,-0.0842 0.0182,-0.144 -0.0531,-0.20518 -0.14609,-0.13442 -0.3574,-0.17387 -0.54279,-0.22531 -0.23214,-0.0379 -0.46863,-0.0768 -0.70264,-0.0296 -0.13859,0.024 -0.26201,0.0615 -0.36107,0.16703 -0.144,0.18257 -0.24329,0.3931 -0.2874,0.62242 -0.0547,0.36714 -0.0277,0.73307 0.0652,1.09308 0.11329,0.47705 0.26155,0.94522 0.43613,1.40341 0.19036,0.48464 0.40385,0.95936 0.60703,1.43869 0.18271,0.44303 0.36378,0.88673 0.54738,1.32936 0.12271,0.30261 0.24516,0.60527 0.37107,0.90651 0.16566,0.46155 0.005,-0.0336 -1.19256,0.56873 -0.0229,0.0115 0.0337,0.0498 0.0233,0.0732 -0.008,0.0182 -0.0675,-0.21308 -0.0843,-0.24294 -0.1206,-0.3786 -0.25548,-0.75232 -0.37507,-1.13124 -0.15195,-0.52407 -0.30628,-1.04728 -0.44261,-1.57575 -0.12908,-0.51088 -0.26037,-1.0212 -0.39174,-1.53148 -0.0978,-0.39257 -0.20914,-0.7816 -0.33851,-1.165 -0.0857,-0.23165 -0.18492,-0.4587 -0.30666,-0.67392 -1.26777,-2.53554 -0.0725,-3.13318 1.19526,-0.59764 z"
       inkscape:connector-curvature="0" />
    <path
       style="opacity:1;fill:#000000;fill-opacity:1;fill-rule:nonzero;stroke:#000000;stroke-width:0.1;stroke-linecap:round;stroke-linejoin:round;stroke-miterlimit:4;stroke-dasharray:none;stroke-dashoffset:0;stroke-opacity:1;paint-order:markers fill stroke"
       id="path5492"
       d="m 200.45687,139.52233 c 0.182,0.25874 0.35997,0.51972 0.53095,0.78589 0.25905,0.41047 0.53634,0.80867 0.80914,1.20996 0.31533,0.46048 0.63344,0.91908 0.94598,1.38147 0.3014,0.43514 0.62021,0.85728 0.88632,1.31543 0.12763,0.22736 0.0668,0.11556 0.18297,0.33517 1.32272,2.50731 0.14077,3.13084 -1.18196,0.62353 v 0 c -0.0972,-0.18485 -0.0445,-0.0875 -0.15895,-0.29162 -0.24635,-0.43257 -0.55827,-0.82181 -0.83567,-1.23434 -0.31171,-0.46149 -0.62943,-0.91891 -0.94395,-1.37849 -0.2792,-0.41093 -0.56298,-0.81871 -0.82827,-1.23892 -0.16685,-0.2598 -0.34124,-0.51398 -0.51847,-0.76681 -1.57248,-2.35871 -0.46057,-3.09998 1.11191,-0.74127 z"
       inkscape:connector-curvature="0" />
    <path
       style="opacity:1;fill:#000000;fill-opacity:1;fill-rule:nonzero;stroke:#000000;stroke-width:0.1;stroke-linecap:round;stroke-linejoin:round;stroke-miterlimit:4;stroke-dasharray:none;stroke-dashoffset:0;stroke-opacity:1;paint-order:markers fill stroke"
       id="path5494"
       d="m 203.70317,137.67901 c -0.0654,0.25979 -0.10886,0.5247 -0.15851,0.78788 -0.0791,0.46871 -0.151,0.93869 -0.22399,1.40843 -0.0855,0.5907 -0.18425,1.1794 -0.29219,1.76639 -0.10166,0.61227 -0.22267,1.221 -0.33324,1.83168 -0.0576,0.30832 -0.1237,0.61461 -0.19457,0.9201 -0.64297,2.76094 -1.94449,2.45784 -1.30152,-0.3031 v 0 c 0.0664,-0.28383 0.12701,-0.56868 0.18113,-0.85515 0.11084,-0.61186 0.23201,-1.22179 0.3339,-1.83525 0.10574,-0.57485 0.20239,-1.15138 0.286,-1.72989 0.0752,-0.484 0.14914,-0.96827 0.23133,-1.4511 0.0573,-0.30328 0.10713,-0.60869 0.18673,-0.90711 0.77878,-2.72575 2.06371,-2.35863 1.28493,0.36712 z"
       inkscape:connector-curvature="0" />
    <path
       style="opacity:1;fill:#000000;fill-opacity:1;fill-rule:nonzero;stroke:#000000;stroke-width:0.1;stroke-linecap:round;stroke-linejoin:round;stroke-miterlimit:4;stroke-dasharray:none;stroke-dashoffset:0;stroke-opacity:1;paint-order:markers fill stroke"
       id="path5496"
       d="m 206.94203,142.92455 c 0.0647,0.2675 0.12951,0.53494 0.19331,0.80271 0.0661,0.28195 0.11053,0.56869 0.18751,0.84805 -0.10284,-0.14761 0.0318,0.0753 0.0224,0.0571 -0.17484,-0.33884 -0.43632,-0.36626 -0.78647,-0.30014 -0.2592,0.20028 -0.0361,-0.06 0.0334,-0.1556 0.21757,-0.29522 0.51446,-0.44661 0.86543,-0.51961 0.36846,-0.0324 0.69124,0.0956 0.99864,0.28525 0.28013,0.18488 0.52285,0.41641 0.76278,0.64909 0.10492,0.11171 0.21498,0.21836 0.32487,0.32513 2.03259,1.97605 1.10107,2.93422 -0.93152,0.95817 v 0 c -0.10946,-0.10647 -0.2195,-0.21248 -0.32379,-0.32409 -0.17438,-0.16919 -0.34718,-0.34099 -0.54787,-0.47966 -0.0379,-0.0257 -0.18183,-0.0909 -0.0928,-0.0912 0.0665,-0.0282 0.0804,-0.0653 0.0194,-0.009 -0.15517,0.20341 -0.27164,0.43746 -0.51271,0.55806 -0.11639,0.0286 -0.22932,0.0866 -0.34917,0.0858 -0.41518,-0.003 -0.67363,-0.32601 -0.77231,-0.68911 -0.0787,-0.29333 -0.13294,-0.59193 -0.1978,-0.88848 -0.0591,-0.24845 -0.12036,-0.49633 -0.17821,-0.74502 -0.77878,-2.72575 0.50615,-3.09288 1.28493,-0.36712 z"
       inkscape:connector-curvature="0" />
    <path
       style="opacity:1;fill:#000000;fill-opacity:1;fill-rule:nonzero;stroke:#000000;stroke-width:0.1;stroke-linecap:round;stroke-linejoin:round;stroke-miterlimit:4;stroke-dasharray:none;stroke-dashoffset:0;stroke-opacity:1;paint-order:markers fill stroke"
       id="path5506"
       d="m 65.038607,155.3188 c -0.05785,0.24869 -0.119145,0.49657 -0.178213,0.74502 -0.100698,0.38023 -0.202988,0.75995 -0.315307,1.13692 -0.127899,0.45235 -0.270351,0.90008 -0.417681,1.34641 -0.154107,0.47575 -0.312137,0.95022 -0.470829,1.42447 -0.156403,0.49911 -0.337235,0.98996 -0.506058,1.48487 -0.177808,0.50554 -0.357373,1.01055 -0.52837,1.51844 -0.173183,0.50937 -0.356032,1.01524 -0.533961,1.52293 -0.174046,0.49038 -0.357267,0.97731 -0.534906,1.46637 -0.17295,0.4574 -0.360214,0.90903 -0.539469,1.36393 -0.180806,0.43183 -0.360879,0.86372 -0.555353,1.28963 -0.189068,0.4039 -0.375689,0.80947 -0.575415,1.2083 -0.156851,0.32802 -0.36494,0.60551 -0.661821,0.81502 -0.413414,0.22551 -0.803479,0.0848 -1.123522,-0.21329 -0.03529,-0.0315 -0.305186,-0.38535 -0.229539,-0.3018 0.184806,0.14355 0.414769,0.12712 0.608481,0.0169 -0.03952,0.0888 -0.06108,0.18328 -0.07796,0.28006 -0.04314,0.28013 -0.06414,0.56306 -0.08489,0.84555 -0.0044,0.18814 -0.01357,0.38087 0.05024,0.56055 -0.01884,-0.0931 -0.140208,-0.16772 -0.247221,-0.20288 -0.08521,-0.006 0.0681,-0.0451 0.10374,-0.0651 0.08506,-0.0535 0.166122,-0.11369 0.244687,-0.17652 2.23465,-1.74429 3.056916,-0.69087 0.822269,1.05343 v 0 c -0.160141,0.12337 -0.323048,0.246 -0.505203,0.33563 -0.264099,0.11679 -0.539263,0.20861 -0.832937,0.17841 -0.418791,-0.085 -0.724474,-0.31326 -0.862748,-0.73046 -0.100259,-0.34275 -0.130538,-0.6945 -0.105569,-1.05111 0.02463,-0.334 0.05006,-0.66861 0.105217,-0.99924 0.06577,-0.32815 0.17032,-0.6445 0.384601,-0.9082 0.328316,-0.34422 0.759108,-0.49022 1.190977,-0.21209 0.14555,0.11902 0.290232,0.24968 0.370588,0.42189 0.06659,0.066 0.02305,0.003 -0.09491,-0.0279 -0.150146,-0.0399 -0.293843,-0.0225 -0.423497,0.0623 -0.102688,0.0995 0.191169,-0.21837 0.174585,-0.28045 0.193133,-0.38404 0.371933,-0.77548 0.554458,-1.16457 0.185008,-0.40421 0.355174,-0.81457 0.52755,-1.22427 0.175038,-0.44361 0.35737,-0.88423 0.526667,-1.33013 0.176053,-0.48426 0.357394,-0.96649 0.529807,-1.45208 0.176239,-0.5025 0.357174,-1.00322 0.528621,-1.5074 0.171725,-0.50952 0.351489,-1.01632 0.530072,-1.52346 0.168105,-0.49235 0.347816,-0.98077 0.503505,-1.47731 0.158122,-0.47252 0.315645,-0.94525 0.469108,-1.41929 0.143336,-0.43423 0.282012,-0.86979 0.406221,-1.30996 0.105626,-0.35269 0.200329,-0.70836 0.295738,-1.06392 0.0638,-0.26777 0.12864,-0.53521 0.193309,-0.80271 0.778786,-2.72575 2.063716,-2.35863 1.284931,0.36712 z"
       inkscape:connector-curvature="0" />
    <path
       style="opacity:1;fill:#000000;fill-opacity:1;fill-rule:nonzero;stroke:#000000;stroke-width:0.1;stroke-linecap:round;stroke-linejoin:round;stroke-miterlimit:4;stroke-dasharray:none;stroke-dashoffset:0;stroke-opacity:1;paint-order:markers fill stroke"
       id="path5514"
       d="m 198.41732,153.80295 c 0.10466,0.265 0.22208,0.5246 0.32808,0.78906 0.1328,0.30504 0.27368,0.60687 0.42277,0.90431 0.16727,0.34161 0.35067,0.67536 0.54185,1.00412 0.23651,0.40395 0.49166,0.79605 0.74441,1.18985 0.2801,0.42904 0.55913,0.85892 0.8531,1.27864 0.27164,0.39746 0.56099,0.78232 0.84748,1.1691 0.27644,0.36311 0.56586,0.71566 0.87449,1.05186 0.32214,0.35577 0.65142,0.70494 0.9786,1.05605 0.31575,0.32894 0.6286,0.66053 0.95068,0.98331 0.31466,0.31311 0.65158,0.60164 0.9811,0.89863 0.32609,0.29282 0.66087,0.57511 1.00169,0.85059 0.29172,0.21593 0.56841,0.45434 0.87977,0.64236 0.32829,0.17726 0.12226,0.0509 -0.15059,0.0961 -0.18554,0.0752 -0.26455,0.19493 -0.339,0.37243 -0.011,0.0263 0.005,0.0625 -0.0134,0.0845 -0.008,0.009 -0.005,-0.0237 -0.007,-0.0356 -0.047,-0.10911 -0.11606,-0.24428 -0.17293,-0.36119 -0.12721,-0.21326 -0.22869,-0.43973 -0.31253,-0.67306 -0.17915,-0.64687 0.12072,-1.02539 0.77974,-1.0718 0.35636,0.0612 0.60331,0.29029 0.82749,0.55641 0.19324,0.24668 0.35965,0.51428 0.51713,0.78491 0.18867,0.33639 0.35298,0.68263 0.46967,1.05039 0.12539,0.42716 0.0732,0.83808 -0.0999,1.24025 -0.17598,0.3485 -0.46478,0.58571 -0.79704,0.77518 -2.47918,1.37472 -3.12723,0.20602 -0.64805,-1.1687 v 0 c 0.0869,-0.0448 0.17253,-0.0912 0.2335,-0.17026 0.0636,-0.0851 0.0578,-0.18324 0.034,-0.28422 -0.0787,-0.27372 -0.21697,-0.52241 -0.3489,-0.77346 -0.12014,-0.20937 -0.24903,-0.41541 -0.39471,-0.60789 -0.0972,-0.13027 -0.13272,-0.11595 0.082,-0.0721 0.36134,-0.0461 0.71665,-0.29451 0.60312,-0.70931 0.0672,0.18842 0.1548,0.36705 0.25644,0.53969 0.11191,0.23068 0.23356,0.45919 0.28687,0.7125 0.0721,0.43279 -0.0308,0.83516 -0.4514,1.04868 -0.39743,0.0967 -0.71953,0.0425 -1.05582,-0.19619 -0.35666,-0.22288 -0.68557,-0.48453 -1.01857,-0.74073 -0.35906,-0.29073 -0.71218,-0.58822 -1.05596,-0.89693 -0.34698,-0.31286 -0.70134,-0.61733 -1.03242,-0.94743 -0.33276,-0.33366 -0.65629,-0.67613 -0.98242,-1.01623 -0.32967,-0.35405 -0.66172,-0.70592 -0.98644,-1.06454 -0.33894,-0.37111 -0.65922,-0.75811 -0.96267,-1.15883 -0.29369,-0.39653 -0.59009,-0.79126 -0.86872,-1.19861 -0.30359,-0.43464 -0.59343,-0.8786 -0.88272,-1.32284 -0.26334,-0.4105 -0.52893,-0.81942 -0.77534,-1.2405 -0.20496,-0.35344 -0.40237,-0.71174 -0.58207,-1.07874 -0.16433,-0.33083 -0.32265,-0.66497 -0.46778,-1.00469 -0.1014,-0.25449 -0.21549,-0.50364 -0.3155,-0.75869 -1.11669,-2.60561 0.11161,-3.13202 1.2283,-0.52641 z"
       inkscape:connector-curvature="0" />
  </g>
</svg>
