<?xml version="1.0" encoding="UTF-8" standalone="no"?>
<!-- Created with Inkscape (http://www.inkscape.org/) -->

<svg
   xmlns:dc="http://purl.org/dc/elements/1.1/"
   xmlns:cc="http://creativecommons.org/ns#"
   xmlns:rdf="http://www.w3.org/1999/02/22-rdf-syntax-ns#"
   xmlns:svg="http://www.w3.org/2000/svg"
   xmlns="http://www.w3.org/2000/svg"
   xmlns:sodipodi="http://sodipodi.sourceforge.net/DTD/sodipodi-0.dtd"
   xmlns:inkscape="http://www.inkscape.org/namespaces/inkscape"
   width="297mm"
   height="210mm"
   viewBox="0 0 297 210"
   version="1.1"
   id="svg6339"
   inkscape:version="0.92.1 r15371"
   sodipodi:docname="100x0.svg">
  <defs
     id="defs6333" />
  <sodipodi:namedview
     id="base"
     pagecolor="#ffffff"
     bordercolor="#666666"
     borderopacity="1.0"
     inkscape:pageopacity="0.0"
     inkscape:pageshadow="2"
     inkscape:zoom="0.98994949"
     inkscape:cx="601.96689"
     inkscape:cy="402.53092"
     inkscape:document-units="mm"
     inkscape:current-layer="layer1"
     showgrid="false"
     inkscape:window-width="1920"
     inkscape:window-height="1046"
     inkscape:window-x="-11"
     inkscape:window-y="-11"
     inkscape:window-maximized="1" />
  <metadata
     id="metadata6336">
    <rdf:RDF>
      <cc:Work
         rdf:about="">
        <dc:format>image/svg+xml</dc:format>
        <dc:type
           rdf:resource="http://purl.org/dc/dcmitype/StillImage" />
        <dc:title></dc:title>
      </cc:Work>
    </rdf:RDF>
  </metadata>
  <g
     inkscape:label="Layer 1"
     inkscape:groupmode="layer"
     id="layer1"
     transform="translate(0,-87)">
    <path
       style="opacity:1;fill:#000000;fill-opacity:1;fill-rule:nonzero;stroke:#000000;stroke-width:0.1;stroke-linecap:round;stroke-linejoin:round;stroke-miterlimit:4;stroke-dasharray:none;stroke-dashoffset:0;stroke-opacity:1;paint-order:markers fill stroke"
       id="path6886"
       d="m 26.515036,189.95856 c 0.27732,-0.009 0.553355,0.012 0.82945,0.035 0.372242,0.0344 0.745853,0.0493 1.118142,0.0824 0.489773,0.0523 0.98057,0.093 1.471864,0.12766 0.643935,0.0455 1.289312,0.0637 1.933623,0.10196 0.778618,0.0555 1.559652,0.0655 2.339864,0.0799 0.925615,0.0161 1.851318,0.0261 2.777021,0.0354 1.032754,0.0132 2.065301,0.0199 3.098022,0.004 1.133161,-0.0216 2.266326,-0.0426 3.39955,-0.0605 1.205238,-0.003 2.410423,0.0145 3.615568,0.0273 1.23616,0.0131 2.472349,0.0234 3.708543,0.0326 1.26129,0.009 2.522593,0.0161 3.783901,0.0224 1.274464,0.006 2.548935,0.0108 3.823407,0.0151 1.260811,-0.005 2.521174,0.0132 3.78157,0.043 1.199962,0.0302 2.400004,0.0569 3.600106,0.0809 1.163167,0.023 2.326426,0.0408 3.489709,0.0567 1.151043,0.0155 2.302131,0.0273 3.453225,0.0383 1.101979,0.0105 2.203979,0.0186 3.305984,0.0259 1.082242,0.007 2.164491,0.0125 3.246742,0.0175 1.052028,0.007 2.103832,0.0122 3.15572,-0.008 1.059479,-0.0239 2.118958,-0.0477 3.178508,-0.0684 1.044118,-0.0202 2.088309,-0.0361 3.132521,-0.0503 1.019281,-0.0139 2.038604,-0.0245 3.057935,-0.034 1.001075,2.6e-4 2.001505,-0.0229 3.001963,-0.0553 0.998696,-0.0346 1.997554,-0.0638 2.996509,-0.0897 0.981557,-0.0158 1.962272,-0.0507 2.942897,-0.0948 0.97772,-0.0453 1.95577,-0.0829 2.93394,-0.11665 0.97414,-0.0328 1.94849,-0.0582 2.92291,-0.0809 0.95605,-0.0221 1.91221,-0.0392 2.86839,-0.0546 0.93158,-0.0184 1.86349,-0.0182 2.79488,-0.0445 0.9116,-0.0333 1.82306,-0.0696 2.73472,-0.10122 0.88998,-0.0305 1.78016,-0.0543 2.67039,-0.0762 0.86198,-0.0208 1.72407,-0.0369 2.58618,-0.0516 0.82982,-0.0141 1.6597,-0.0249 2.48958,-0.0348 0.81206,-0.009 1.62414,-0.0168 2.43622,-0.0235 0.79033,-0.006 1.58067,-0.0113 2.37102,-0.0158 0.76589,-0.004 1.53179,-0.008 2.29769,-0.0107 0.74425,-0.003 1.4885,-0.005 2.23275,-0.007 0.73346,-0.002 1.46694,-0.003 2.20041,-0.005 0.73416,-0.001 1.46832,-0.002 2.20248,-0.003 0.73796,-7.9e-4 1.47591,-0.002 2.21386,-0.002 0.74018,-5.3e-4 1.48035,-0.001 2.22052,-0.002 0.74352,-5.3e-4 1.48704,-7.9e-4 2.23057,-0.001 0.74455,-2.6e-4 1.4891,-5.3e-4 2.23365,-7.9e-4 0.72735,-1.9e-4 1.45471,-2.7e-4 2.18206,-5.3e-4 0.71408,-1.3e-4 1.42817,-2.2e-4 2.14225,-2.7e-4 0.70235,-8e-5 1.40468,-1.5e-4 2.10702,-2.1e-4 0.69397,-5e-5 1.38793,-10e-5 2.08189,-1.4e-4 0.68097,-3e-5 1.36194,-6e-5 2.04291,-9e-5 0.66527,-3e-5 1.33054,-5e-5 1.9958,-6e-5 0.65788,-2e-5 1.31576,-4e-5 1.97365,-5e-5 0.65953,-1e-5 1.31905,-2e-5 1.97858,-3e-5 0.67525,0 1.3505,-1e-5 2.02575,-2e-5 0.69127,0 1.38255,-1e-5 2.07382,-1e-5 0.7039,0 1.4078,-1e-5 2.1117,-1e-5 0.70641,-0.004 1.41298,0.008 2.11925,-0.008 0.71412,-0.0235 1.42807,-0.0519 2.14217,-0.0763 0.71777,-0.0241 1.43572,-0.0426 2.1537,-0.0595 0.72348,-0.0166 1.44704,-0.029 2.17062,-0.0403 0.71534,-0.011 1.43071,-0.0195 2.1461,-0.0272 0.70371,-0.007 1.40744,-0.0131 2.11117,-0.0183 0.68451,-0.005 1.36901,-0.009 2.05353,-0.0123 0.65847,-8e-4 1.31659,-0.002 1.97461,-0.0274 0.65215,-0.0289 1.3043,-0.0575 1.95663,-0.082 0.65072,-0.0214 1.30134,-0.0506 1.95249,-0.052 0.64149,0.007 1.28282,0.0234 1.92421,0.0365 0.62661,-0.003 1.25298,-0.0239 1.87935,-0.04 0.6392,-0.0168 1.27849,-0.0296 1.91779,-0.0413 0.6347,-0.0117 1.26946,-0.0202 1.90422,-0.0282 0.62663,-0.008 1.25328,-0.0137 1.87993,-0.019 0.61437,-0.005 1.22875,-0.009 1.84313,-0.0128 0.61329,-0.004 1.22659,-0.006 1.8399,-0.009 0.61229,-0.002 1.22458,-0.004 1.83688,-0.006 0.61145,-0.002 1.2229,-0.003 1.83434,-0.004 0.62657,-0.001 1.25313,-0.002 1.87969,-0.003 0.63641,-7.9e-4 1.27283,-0.001 1.90924,-0.002 0.64963,-5.3e-4 1.29926,-7.9e-4 1.94889,-0.001 0.65839,-2.7e-4 1.31678,-5.3e-4 1.97516,-8e-4 0.66786,-2.2e-4 1.33573,-5.3e-4 2.00359,-5.3e-4 0.66949,-1.5e-4 1.33899,-2.6e-4 2.00849,-2.6e-4 0.66563,-10e-5 1.33126,-1.8e-4 1.99689,-2.5e-4 0.64947,-7e-5 1.29894,-1.2e-4 1.94842,-1.7e-4 0.63724,-4e-5 1.27449,-8e-5 1.91174,-1.1e-4 0.63051,-3e-5 1.26102,-6e-5 1.89154,-8e-5 0.62395,-2e-5 1.24791,-4e-5 1.87186,-5e-5 0.61481,-2e-5 1.22963,-3e-5 1.84444,-4e-5 0.61277,-1e-5 1.22553,-1e-5 1.8383,-2e-5 0.62002,-10e-6 1.24004,-10e-6 1.86005,-2e-5 0.64154,0 1.28308,0 1.92462,-1e-5 0.65968,0 1.31937,0 1.97905,0 0.67294,-1e-5 1.34588,-1e-5 2.01882,-1e-5 0.68553,-0.003 1.37071,-0.004 2.05588,0.0199 0.68176,0.0273 1.36357,0.0534 2.04549,0.0764 0.65448,0.0218 1.3091,0.0394 1.96374,0.0554 0.57624,0.0216 1.15209,0.0233 1.72834,0.005 0.23664,-0.0255 0.49527,-0.017 0.71203,-0.12955 -0.14245,0.0437 -0.19997,0.20372 -0.20901,0.34131 -0.002,-0.006 -0.14481,-0.18332 -0.19536,-0.24163 -0.20269,-0.20837 -0.43009,-0.38918 -0.63679,-0.59352 -0.29777,-0.29539 -0.43172,-0.63 -0.41964,-1.04471 0.0976,-0.47955 0.47427,-0.68659 0.91148,-0.79449 0.35202,-0.0683 0.71124,-0.0411 1.06481,-0.002 0.45366,0.057 0.86764,0.23458 1.24963,0.47857 0.39977,0.27579 0.64551,0.6647 0.79578,1.11812 0.13545,0.51335 -0.007,0.9982 -0.23152,1.4599 -0.26772,0.50053 -0.65854,0.91586 -1.04753,1.32307 -0.41648,0.43507 -0.86311,0.83987 -1.31131,1.24171 -0.0759,0.0646 -0.15183,0.12922 -0.22775,0.19382 -2.16031,1.83556 -3.0256,0.81718 -0.86529,-1.01838 v 0 c 0.0671,-0.0569 0.13413,-0.11376 0.2012,-0.17065 0.4228,-0.37869 0.8442,-0.76016 1.23726,-1.17003 0.29839,-0.31176 0.6055,-0.62486 0.82075,-1.00234 0.0769,-0.14002 0.15695,-0.29994 0.14727,-0.46303 -0.0381,-0.16181 -0.12047,-0.29615 -0.2555,-0.39721 -0.19737,-0.14127 -0.42623,-0.22751 -0.66571,-0.26596 -0.19941,-0.0244 -0.40155,-0.0409 -0.60224,-0.0255 -0.24088,0.0531 0.13484,-0.13296 0.10359,-0.33104 -0.013,-0.17816 -0.0947,-0.25527 0.0384,-0.0758 0.22798,0.23061 0.49255,0.42265 0.70616,0.6682 0.21532,0.25167 0.40798,0.5165 0.49109,0.84329 0.0708,0.49659 -0.0935,0.91574 -0.55759,1.14991 -0.38566,0.16342 -0.79426,0.22962 -1.21232,0.24384 -0.60115,0.0188 -1.20195,0.0175 -1.80307,-0.005 -0.65872,-0.0162 -1.31741,-0.0338 -1.97597,-0.0558 -0.68231,-0.023 -1.3645,-0.0491 -2.04665,-0.0764 -0.66977,-0.0233 -1.33956,-0.0215 -2.00969,-0.0191 -0.67294,0 -1.34588,0 -2.01882,0 -0.65968,1e-5 -1.31936,1e-5 -1.97904,1e-5 -0.64154,0 -1.28308,1e-5 -1.92462,1e-5 -0.62001,1e-5 -1.24003,1e-5 -1.86005,2e-5 -0.61276,1e-5 -1.22552,1e-5 -1.83829,2e-5 -0.61481,1e-5 -1.22962,2e-5 -1.84443,4e-5 -0.62395,1e-5 -1.24789,3e-5 -1.87185,5e-5 -0.6305,2e-5 -1.26101,4e-5 -1.89151,8e-5 -0.63724,3e-5 -1.27448,6e-5 -1.91172,1.1e-4 -0.64945,5e-5 -1.29891,1e-4 -1.94837,1.7e-4 -0.66561,7e-5 -1.33122,1.5e-4 -1.99682,2.5e-4 -0.66947,1e-4 -1.33893,2.2e-4 -2.0084,2.6e-4 -0.6678,1.6e-4 -1.33561,2.7e-4 -2.00342,5.3e-4 -0.65831,2.3e-4 -1.31663,5.3e-4 -1.97494,8e-4 -0.64951,2.6e-4 -1.29902,7.9e-4 -1.94852,0.001 -0.63624,5.3e-4 -1.27248,0.001 -1.90872,0.002 -0.62629,8e-4 -1.25257,0.002 -1.87886,0.003 -0.61105,0.001 -1.2221,0.002 -1.83316,0.004 -0.6117,0.002 -1.22341,0.003 -1.83512,0.006 -0.61242,0.002 -1.22484,0.005 -1.83726,0.009 -0.61326,0.004 -1.22653,0.008 -1.83978,0.0128 -0.62486,0.005 -1.24972,0.0112 -1.87455,0.0189 -0.63214,0.008 -1.26428,0.0165 -1.89636,0.0281 -0.63602,0.0117 -1.27202,0.0244 -1.90793,0.0411 -0.64691,0.0167 -1.29383,0.0388 -1.94101,0.0402 -0.63167,-0.0129 -1.2633,-0.0291 -1.89507,-0.0362 -0.63503,5.3e-4 -1.26954,0.0312 -1.90418,0.0511 -0.65192,0.0245 -1.30367,0.0531 -1.95542,0.082 -0.6729,0.0258 -1.34589,0.0278 -2.01925,0.0283 -0.68349,0.004 -1.36698,0.007 -2.05046,0.0123 -0.70222,0.005 -1.40443,0.011 -2.10663,0.0183 -0.71326,0.008 -1.42651,0.0161 -2.13972,0.0271 -0.72002,0.0112 -1.44003,0.0236 -2.15994,0.0401 -0.71325,0.0168 -1.42646,0.0351 -2.1395,0.0591 -0.71943,0.0246 -1.43871,0.0533 -2.15818,0.0768 -0.71618,0.0156 -1.43259,0.005 -2.14891,0.008 -0.70389,1e-5 -1.40779,1e-5 -2.11169,1e-5 -0.69127,1e-5 -1.38255,1e-5 -2.07382,2e-5 -0.67525,0 -1.35049,1e-5 -2.02574,2e-5 -0.65952,0 -1.31905,1e-5 -1.97858,3e-5 -0.65788,1e-5 -1.31576,2e-5 -1.97363,4e-5 -0.66526,2e-5 -1.33052,4e-5 -1.99578,6e-5 -0.68097,3e-5 -1.36193,6e-5 -2.04289,1e-4 -0.69395,4e-5 -1.3879,8e-5 -2.08186,1.4e-4 -0.70232,6e-5 -1.40464,1.2e-4 -2.10696,2.1e-4 -0.71406,9e-5 -1.42813,1.8e-4 -2.14219,2.6e-4 -0.72731,1.3e-4 -1.45463,2.7e-4 -2.18195,5.3e-4 -0.74449,1.9e-4 -1.48899,5.3e-4 -2.23349,8e-4 -0.74343,2.6e-4 -1.48687,5.2e-4 -2.23031,10e-4 -0.74005,5.3e-4 -1.4801,8e-4 -2.22016,0.002 -0.73777,5.3e-4 -1.47554,0.001 -2.21331,0.002 -0.73389,7.9e-4 -1.46777,0.002 -2.20166,0.003 -0.73307,0.001 -1.46615,0.003 -2.19923,0.005 -0.7437,0.002 -1.48739,0.004 -2.23109,0.007 -0.76512,0.003 -1.53024,0.006 -2.29535,0.0107 -0.78923,0.005 -1.57846,0.009 -2.36768,0.0158 -0.81048,0.007 -1.62096,0.014 -2.43142,0.0234 -0.82756,0.01 -1.6551,0.0206 -2.4826,0.0347 -0.85876,0.0147 -1.7175,0.0306 -2.57614,0.0514 -0.88574,0.0218 -1.77144,0.0455 -2.65694,0.0758 -0.91459,0.0317 -1.82899,0.0682 -2.74352,0.10149 -0.93671,0.0261 -1.8739,0.0267 -2.8108,0.0449 -0.95296,0.0154 -1.90591,0.0324 -2.85875,0.0544 -0.96945,0.0226 -1.93885,0.0478 -2.90803,0.0805 -0.9735,0.0336 -1.94687,0.071 -2.91991,0.1161 -0.989125,0.0445 -1.978347,0.0797 -2.968407,0.0957 -0.996058,0.0258 -1.992024,0.055 -2.987826,0.0894 -1.010708,0.0327 -2.021398,0.0562 -3.032725,0.0559 -1.017421,0.01 -2.034831,0.0201 -3.052202,0.034 -1.041588,0.0142 -2.083155,0.0301 -3.12465,0.0502 -1.05986,0.0207 -2.119648,0.0446 -3.179439,0.0685 -1.062347,0.02 -2.124605,0.0154 -3.187089,0.008 -1.083157,-0.005 -2.166311,-0.0104 -3.249454,-0.0175 -1.103307,-0.007 -2.206612,-0.0154 -3.309892,-0.0259 -1.15293,-0.011 -2.305852,-0.0229 -3.458732,-0.0384 -1.166071,-0.016 -2.332122,-0.0338 -3.49808,-0.0569 -1.20174,-0.024 -2.403419,-0.0508 -3.605019,-0.081 -1.251363,-0.0296 -2.502686,-0.0481 -3.754464,-0.0427 -1.275183,-0.004 -2.550369,-0.009 -3.825547,-0.0151 -1.262438,-0.006 -2.524873,-0.0131 -3.787293,-0.0224 -1.237562,-0.009 -2.475116,-0.0195 -3.712644,-0.0327 -1.193377,-0.0126 -2.386785,-0.0303 -3.580252,-0.0274 -1.133459,0.018 -2.266862,0.039 -3.400258,0.0606 -1.044022,0.016 -2.087867,0.01 -3.131915,-0.004 -0.929471,-0.009 -1.858941,-0.0194 -2.788322,-0.0356 -0.798539,-0.0148 -1.597888,-0.0255 -2.394807,-0.0821 -0.649142,-0.039 -1.299456,-0.0564 -1.948209,-0.10291 -0.499994,-0.0354 -0.999514,-0.0765 -1.497965,-0.12976 -0.369086,-0.0341 -0.739926,-0.046 -1.108978,-0.0816 -0.239231,-0.02 -0.477914,-0.0399 -0.718285,-0.0304 -2.834823,0 -2.834823,-1.33634 0,-1.33634 z"
       inkscape:connector-curvature="0" />
    <path
       style="opacity:1;fill:#000000;fill-opacity:1;fill-rule:nonzero;stroke:#000000;stroke-width:0.1;stroke-linecap:round;stroke-linejoin:round;stroke-miterlimit:4;stroke-dasharray:none;stroke-dashoffset:0;stroke-opacity:1;paint-order:markers fill stroke"
       id="path6888"
       d="m 55.994156,187.91489 c 0.04523,0.35845 0.06387,0.71959 0.08238,1.08019 0.02874,0.61061 0.04462,1.22173 0.05995,1.83279 0.01098,0.69492 0.03287,1.38945 0.05177,2.08413 0.01236,0.56007 0.01812,1.12026 0.02405,1.68043 0.02994,2.83466 -1.306335,2.84878 -1.336273,0.0141 v 0 c -0.0058,-0.55282 -0.01154,-1.10567 -0.02363,-1.6584 -0.01871,-0.69556 -0.04101,-1.39097 -0.05184,-2.08676 -0.01503,-0.59945 -0.03055,-1.19896 -0.05862,-1.79797 -0.01635,-0.32026 -0.03251,-0.64097 -0.0707,-0.95953 -0.400905,-2.80633 0.922012,-2.99532 1.322916,-0.18899 z"
       inkscape:connector-curvature="0" />
    <path
       style="opacity:1;fill:#000000;fill-opacity:1;fill-rule:nonzero;stroke:#000000;stroke-width:0.1;stroke-linecap:round;stroke-linejoin:round;stroke-miterlimit:4;stroke-dasharray:none;stroke-dashoffset:0;stroke-opacity:1;paint-order:markers fill stroke"
       id="path6890"
       d="m 53.493278,205.94009 c -0.08143,0.15825 -0.107556,0.33107 -0.13488,0.50457 -0.02732,0.28566 -0.01593,0.5715 0.01416,0.85623 0.03175,0.38456 0.141467,0.75523 0.247811,1.12417 0.123531,0.40251 0.275881,0.795 0.467969,1.16965 0.171667,0.33592 0.39956,0.63473 0.665678,0.90033 0.191468,0.17747 0.41638,0.28983 0.664964,0.36064 0.205909,0.0457 0.407583,0.0438 0.610068,-0.0114 0.199007,-0.0619 0.356386,-0.17972 0.496861,-0.32894 0.166606,-0.20871 0.239647,-0.46229 0.294971,-0.71868 0.0686,-0.40658 0.01371,-0.81523 -0.06249,-1.21602 -0.101462,-0.48969 -0.287562,-0.95339 -0.501025,-1.40348 -0.197811,-0.41336 -0.472022,-0.77743 -0.782355,-1.11158 -0.228351,-0.25327 -0.507632,-0.42574 -0.828667,-0.53195 -0.149071,-0.0508 -0.261604,-0.0384 -0.392983,0.0369 -0.03368,0.034 -0.01603,0.0155 -0.05264,0.0558 -2.164686,1.83039 -3.027542,0.80994 -0.862854,-1.02045 v 0 c 0.228476,-0.18318 0.106958,-0.0983 0.365556,-0.2533 0.453406,-0.19192 0.912607,-0.24343 1.387084,-0.0793 0.522356,0.19014 0.991894,0.46985 1.367554,0.8871 0.399093,0.4362 0.753388,0.90951 1.007804,1.44641 0.260688,0.55456 0.485769,1.1265 0.60638,1.72973 0.106153,0.5815 0.168248,1.17302 0.05113,1.75904 -0.118528,0.49847 -0.29369,0.9768 -0.647885,1.36008 -0.324953,0.32038 -0.693039,0.57189 -1.14019,0.68945 -0.436475,0.0961 -0.87313,0.10819 -1.308182,-0.0118 -0.457073,-0.14529 -0.87712,-0.36073 -1.223965,-0.69926 -0.359326,-0.36745 -0.673727,-0.77373 -0.90642,-1.23441 -0.227354,-0.45125 -0.415325,-0.92019 -0.560473,-1.40457 -0.128444,-0.44595 -0.254309,-0.89525 -0.293274,-1.35975 -0.03911,-0.40007 -0.05424,-0.80261 -0.004,-1.20276 0.05007,-0.30687 0.115755,-0.61114 0.259019,-0.89008 1.267769,-2.53555 2.463035,-1.93791 1.195265,0.59763 z"
       inkscape:connector-curvature="0" />
    <path
       style="opacity:1;fill:#000000;fill-opacity:1;fill-rule:nonzero;stroke:#000000;stroke-width:0.1;stroke-linecap:round;stroke-linejoin:round;stroke-miterlimit:4;stroke-dasharray:none;stroke-dashoffset:0;stroke-opacity:1;paint-order:markers fill stroke"
       id="path6894"
       d="m 134.57021,188.00939 c -0.005,0.2988 0.001,0.59677 0.0185,0.89505 0.0272,0.49131 0.0526,0.98233 0.0946,1.47261 0.0401,0.54973 0.0986,1.09734 0.16262,1.6447 0.0432,0.37807 0.0242,0.18564 0.0564,0.57734 0.22907,2.82556 -1.1029,2.93354 -1.33197,0.10799 v 0 c -0.0276,-0.34682 -0.0106,-0.17009 -0.0518,-0.53011 -0.0656,-0.56109 -0.12539,-1.1225 -0.16681,-1.686 -0.043,-0.50301 -0.0697,-1.00673 -0.0973,-1.51078 -0.0182,-0.3235 -0.0257,-0.64678 -0.0206,-0.9708 0,-2.83482 1.33635,-2.83482 1.33635,0 z"
       inkscape:connector-curvature="0" />
    <path
       style="opacity:1;fill:#000000;fill-opacity:1;fill-rule:nonzero;stroke:#000000;stroke-width:0.1;stroke-linecap:round;stroke-linejoin:round;stroke-miterlimit:4;stroke-dasharray:none;stroke-dashoffset:0;stroke-opacity:1;paint-order:markers fill stroke"
       id="path6896"
       d="m 131.62035,203.32746 c 0.0593,0.23612 0.15306,0.46246 0.25331,0.6838 0.15142,0.35558 0.34196,0.69238 0.52973,1.02958 0.21631,0.40569 0.45613,0.79803 0.68634,1.1959 0.16043,0.27524 0.32668,0.54685 0.49211,0.81909 1.47201,2.42268 0.32995,3.11659 -1.14206,0.69391 v 0 c -0.17037,-0.28042 -0.34148,-0.56028 -0.50675,-0.84376 -0.2339,-0.4043 -0.47745,-0.80308 -0.69733,-1.21527 -0.20622,-0.37074 -0.41436,-0.74154 -0.58119,-1.13219 -0.12499,-0.28029 -0.24269,-0.56605 -0.31909,-0.86394 -0.77879,-2.72575 0.50614,-3.09287 1.28493,-0.36712 z"
       inkscape:connector-curvature="0" />
    <path
       style="opacity:1;fill:#000000;fill-opacity:1;fill-rule:nonzero;stroke:#000000;stroke-width:0.1;stroke-linecap:round;stroke-linejoin:round;stroke-miterlimit:4;stroke-dasharray:none;stroke-dashoffset:0;stroke-opacity:1;paint-order:markers fill stroke"
       id="path6898"
       d="m 134.60223,204.23494 c -0.17794,0.1758 -0.3242,0.38103 -0.46687,0.58563 -0.23807,0.36016 -0.45921,0.73092 -0.67401,1.10529 -0.26804,0.45 -0.51242,0.91322 -0.76062,1.37427 -0.15749,0.30715 -0.3219,0.61074 -0.4871,0.9138 -1.35715,2.48885 -2.5304,1.84908 -1.17325,-0.63977 v 0 c 0.16415,-0.30093 0.32725,-0.60252 0.4837,-0.90753 0.25403,-0.47176 0.50428,-0.9457 0.77841,-1.40625 0.23493,-0.40878 0.47641,-0.8139 0.73815,-1.20624 0.18808,-0.26778 0.38266,-0.53403 0.61665,-0.76414 2.00453,-2.00452 2.94947,-1.05958 0.94494,0.94494 z"
       inkscape:connector-curvature="0" />
    <path
       style="opacity:1;fill:#000000;fill-opacity:1;fill-rule:nonzero;stroke:#000000;stroke-width:0.1;stroke-linecap:round;stroke-linejoin:round;stroke-miterlimit:4;stroke-dasharray:none;stroke-dashoffset:0;stroke-opacity:1;paint-order:markers fill stroke"
       id="path6904"
       d="m 137.76755,209.74193 c 0.0589,0.21918 0.13689,0.43293 0.21595,0.64562 0.062,0.16665 0.16749,0.30377 0.30238,0.41716 0.0737,0.0338 0.16365,0.0421 0.24404,0.0302 0.11283,-0.0283 0.20686,-0.0971 0.29279,-0.17258 0.0905,-0.11192 0.15428,-0.23987 0.19198,-0.37828 0.0496,-0.13535 0.0103,-0.24542 -0.0263,-0.37554 -0.053,-0.14217 -0.15439,-0.26353 -0.26213,-0.3684 -1.9529,-2.05485 -0.98423,-2.97546 0.96867,-0.92061 v 0 c 0.25298,0.27398 0.47989,0.57228 0.58272,0.93743 0.10103,0.37787 0.1355,0.75662 0.01,1.13512 -0.12963,0.38386 -0.31777,0.73906 -0.62628,1.01103 -0.3255,0.25395 -0.68329,0.44484 -1.1045,0.46791 -0.42666,-0.002 -0.83152,-0.0939 -1.16701,-0.37518 -0.28602,-0.26598 -0.52358,-0.57145 -0.65857,-0.94265 -0.0911,-0.24506 -0.17896,-0.4919 -0.24826,-0.74408 -0.77879,-2.72575 0.50615,-3.09287 1.28493,-0.36712 z"
       inkscape:connector-curvature="0" />
    <path
       style="opacity:1;fill:#000000;fill-opacity:1;fill-rule:nonzero;stroke:#000000;stroke-width:0.1;stroke-linecap:round;stroke-linejoin:round;stroke-miterlimit:4;stroke-dasharray:none;stroke-dashoffset:0;stroke-opacity:1;paint-order:markers fill stroke"
       id="path6906"
       d="m 112.09897,187.97234 c -0.12477,0.13238 -0.24729,0.2754 -0.32749,0.43953 -0.13491,0.27444 -0.20688,0.56918 -0.26085,0.86818 -0.0695,0.37809 -0.071,0.76331 -0.0476,1.14566 0.0344,0.4125 0.12737,0.81485 0.24739,1.20994 0.1149,0.35478 0.2823,0.68944 0.50825,0.98599 0.0348,0.0394 0.0696,0.0788 0.10442,0.11819 1.85147,2.14668 0.83951,3.01948 -1.01196,0.87279 v 0 c -0.0556,-0.0655 -0.1113,-0.13096 -0.16694,-0.19643 -0.30969,-0.42631 -0.55836,-0.8905 -0.71366,-1.3962 -0.14753,-0.49575 -0.26334,-1.00032 -0.30165,-1.51762 -0.0267,-0.48895 -0.0232,-0.98079 0.0674,-1.46391 0.0822,-0.44096 0.19794,-0.87475 0.40661,-1.27488 0.17423,-0.30078 0.37841,-0.58631 0.64055,-0.81785 2.17777,-1.81481 3.03328,-0.7882 0.85551,1.02661 z"
       inkscape:connector-curvature="0" />
    <path
       style="opacity:1;fill:#000000;fill-opacity:1;fill-rule:nonzero;stroke:#000000;stroke-width:0.1;stroke-linecap:round;stroke-linejoin:round;stroke-miterlimit:4;stroke-dasharray:none;stroke-dashoffset:0;stroke-opacity:1;paint-order:markers fill stroke"
       id="path6912"
       d="m 155.22425,186.67846 c 0.25372,0.21482 0.45333,0.47853 0.64431,0.74811 0.24857,0.34721 0.42819,0.73111 0.56686,1.13314 0.1425,0.45936 0.1758,0.93684 0.15884,1.41447 -0.0219,0.46099 -0.11237,0.91431 -0.23142,1.35898 -0.0877,0.35284 -0.23285,0.68638 -0.39019,1.01272 -1.23982,2.54932 -2.44158,1.96486 -1.20176,-0.58446 v 0 c 0.12309,-0.25005 0.2354,-0.50655 0.30222,-0.77813 0.0961,-0.34788 0.16609,-0.70391 0.18596,-1.06491 0.0161,-0.31257 -0.005,-0.62545 -0.0888,-0.92837 -0.0938,-0.28167 -0.21922,-0.54877 -0.39251,-0.79148 -0.12382,-0.17516 -0.24608,-0.35128 -0.40899,-0.49346 -2.17777,-1.81481 -1.32226,-2.84142 0.85551,-1.02661 z"
       inkscape:connector-curvature="0" />
    <path
       style="opacity:1;fill:#000000;fill-opacity:1;fill-rule:nonzero;stroke:#000000;stroke-width:0.1;stroke-linecap:round;stroke-linejoin:round;stroke-miterlimit:4;stroke-dasharray:none;stroke-dashoffset:0;stroke-opacity:1;paint-order:markers fill stroke"
       id="path6928"
       d="m 204.86328,187.11309 c 0.0397,0.28318 0.0612,0.56841 0.0816,0.8535 0.0268,0.39137 0.0444,0.78328 0.0604,1.17521 0.0174,0.43803 0.0295,0.87624 0.0405,1.31447 0.007,0.30623 0.004,0.15271 0.0103,0.46054 0.061,2.83417 -1.27507,2.86291 -1.33604,0.0288 v 0 c -0.007,-0.30472 -0.003,-0.1528 -0.0102,-0.45577 -0.0108,-0.43121 -0.0227,-0.86241 -0.0398,-1.29342 -0.0155,-0.37842 -0.0324,-0.75683 -0.0582,-1.13471 -0.0181,-0.25368 -0.0366,-0.50754 -0.0715,-0.75959 -0.4009,-2.80633 0.92201,-2.99531 1.32292,-0.18898 z"
       inkscape:connector-curvature="0" />
    <path
       style="opacity:1;fill:#000000;fill-opacity:1;fill-rule:nonzero;stroke:#000000;stroke-width:0.1;stroke-linecap:round;stroke-linejoin:round;stroke-miterlimit:4;stroke-dasharray:none;stroke-dashoffset:0;stroke-opacity:1;paint-order:markers fill stroke"
       id="path6930"
       d="m 198.44762,200.83832 c -0.004,0.24213 -2.6e-4,0.48323 0.0177,0.72467 0.0322,0.38373 0.0559,0.7681 0.0772,1.15258 0.0244,0.46849 0.041,0.93734 0.0563,1.40621 0.0164,0.47275 0.049,0.94591 0.10139,1.41611 0.009,0.0695 0.0184,0.13907 0.0276,0.2086 0.3703,2.81053 -0.9546,2.9851 -1.3249,0.17456 v 0 c -0.0104,-0.0791 -0.0207,-0.15823 -0.0311,-0.23734 -0.0547,-0.50434 -0.0919,-1.01132 -0.10866,-1.51833 -0.015,-0.45873 -0.0312,-0.91745 -0.055,-1.37582 -0.0208,-0.37633 -0.044,-0.75255 -0.0756,-1.12816 -0.02,-0.27419 -0.0262,-0.54817 -0.0214,-0.82308 0,-2.83482 1.33634,-2.83482 1.33634,0 z"
       inkscape:connector-curvature="0" />
    <path
       style="opacity:1;fill:#000000;fill-opacity:1;fill-rule:nonzero;stroke:#000000;stroke-width:0.1;stroke-linecap:round;stroke-linejoin:round;stroke-miterlimit:4;stroke-dasharray:none;stroke-dashoffset:0;stroke-opacity:1;paint-order:markers fill stroke"
       id="path6932"
       d="m 201.38759,202.17467 c -0.007,0.23975 0.0233,0.47825 0.0437,0.71674 0.0239,0.3336 0.0769,0.66411 0.14015,0.99223 0.049,0.32727 0.14941,0.6394 0.26988,0.94604 0.0727,0.1919 0.17164,0.37208 0.32457,0.51074 0.0938,0.0801 0.0619,0.0261 0.1085,0.022 0.0207,-0.0173 0.0259,-0.0466 0.0459,-0.0745 0.097,-0.12429 0.13376,-0.27257 0.17287,-0.42192 0.0672,-0.25612 0.0672,-0.52218 0.0497,-0.78451 -0.0374,-0.31939 -0.10263,-0.63523 -0.21283,-0.93753 -0.10169,-0.29119 -0.24862,-0.56519 -0.4236,-0.81858 -0.0741,-0.10507 -0.17064,-0.19003 -0.2609,-0.28054 -1.99992,-2.00911 -1.05282,-2.95188 0.9471,-0.94277 v 0 c 0.14892,0.14983 0.30141,0.2978 0.42024,0.47389 0.23471,0.35079 0.43983,0.72273 0.57732,1.12324 0.14607,0.4224 0.24637,0.85864 0.28676,1.30458 0.0214,0.40606 0.0144,0.81537 -0.0936,1.21056 -0.0993,0.36104 -0.23383,0.70756 -0.48976,0.98933 -0.27767,0.28147 -0.59869,0.48078 -1.00554,0.495 -0.40449,-0.003 -0.7659,-0.12032 -1.06124,-0.40755 -0.27553,-0.28036 -0.49392,-0.6021 -0.62961,-0.97371 -0.14984,-0.38289 -0.27319,-0.774 -0.338,-1.18131 -0.0718,-0.37385 -0.13128,-0.7505 -0.15934,-1.13046 -0.0237,-0.27645 -0.0559,-0.55309 -0.0486,-0.83101 0,-2.83482 1.33635,-2.83482 1.33635,0 z"
       inkscape:connector-curvature="0" />
    <path
       style="opacity:1;fill:#000000;fill-opacity:1;fill-rule:nonzero;stroke:#000000;stroke-width:0.1;stroke-linecap:round;stroke-linejoin:round;stroke-miterlimit:4;stroke-dasharray:none;stroke-dashoffset:0;stroke-opacity:1;paint-order:markers fill stroke"
       id="path6936"
       d="m 206.4669,202.34745 c 0.0308,0.23106 0.0842,0.45841 0.14166,0.68412 0.0604,0.28685 0.16601,0.55879 0.28102,0.82714 0.098,0.21915 0.23639,0.4162 0.4234,0.56742 0.13266,0.0965 0.28414,0.18511 0.4517,0.19376 0.10341,-0.003 0.19245,-0.0541 0.27385,-0.11367 0.14062,-0.11421 0.23406,-0.27009 0.321,-0.42615 0.0965,-0.22643 0.1635,-0.46344 0.18525,-0.70859 0.0249,-0.28225 0.003,-0.56415 -0.0704,-0.83731 -0.0566,-0.25725 -0.17199,-0.48484 -0.33403,-0.68998 -0.16264,-0.19815 -0.37941,-0.3316 -0.59414,-0.46488 -0.0412,-0.0269 -0.0825,-0.0539 -0.12376,-0.0808 -2.37184,-1.5526 -1.63994,-2.6707 0.7319,-1.1181 v 0 c 0.0323,0.0213 0.0647,0.0425 0.097,0.0637 0.35354,0.21978 0.69457,0.45996 0.95339,0.79204 0.26275,0.35334 0.46749,0.7376 0.56528,1.17074 0.10443,0.42981 0.14919,0.86846 0.1031,1.31048 -0.0513,0.42538 -0.15693,0.84138 -0.35298,1.22507 -0.19957,0.34475 -0.43202,0.66857 -0.76816,0.89369 -0.36599,0.22115 -0.75759,0.35735 -1.19192,0.30432 -0.41734,-0.0749 -0.80121,-0.23232 -1.12812,-0.50956 -0.32648,-0.2956 -0.59838,-0.63682 -0.77084,-1.04618 -0.14209,-0.33209 -0.26973,-0.67 -0.34767,-1.02376 -0.0691,-0.27201 -0.13145,-0.54627 -0.16947,-0.82455 -0.4009,-2.80633 0.92202,-2.99532 1.32292,-0.18899 z"
       inkscape:connector-curvature="0" />
    <path
       style="opacity:1;fill:#000000;fill-opacity:1;fill-rule:nonzero;stroke:#000000;stroke-width:0.1;stroke-linecap:round;stroke-linejoin:round;stroke-miterlimit:4;stroke-dasharray:none;stroke-dashoffset:0;stroke-opacity:1;paint-order:markers fill stroke"
       id="path6938"
       d="m 213.33413,200.72705 c 0.1383,0.23218 0.28765,0.45732 0.43521,0.68362 0.20306,0.30808 0.39737,0.62178 0.59442,0.93372 0.20665,0.33723 0.40916,0.67682 0.61049,1.01727 0.19432,0.34116 0.392,0.68019 0.58249,1.02354 0.0282,0.0557 0.0565,0.11146 0.0847,0.1672 1.27387,2.53248 0.08,3.13299 -1.19383,0.6005 v 0 c -0.0198,-0.0398 -0.0396,-0.0796 -0.0594,-0.11941 -0.18456,-0.33269 -0.37607,-0.6612 -0.56432,-0.9918 -0.19456,-0.32927 -0.39031,-0.65767 -0.59004,-0.98381 -0.19353,-0.3066 -0.38455,-0.61483 -0.58406,-0.91758 -0.14489,-0.22246 -0.29274,-0.44318 -0.42754,-0.67198 -1.57248,-2.35871 -0.46057,-3.09998 1.11191,-0.74127 z"
       inkscape:connector-curvature="0" />
    <path
       style="opacity:1;fill:#000000;fill-opacity:1;fill-rule:nonzero;stroke:#000000;stroke-width:0.1;stroke-linecap:round;stroke-linejoin:round;stroke-miterlimit:4;stroke-dasharray:none;stroke-dashoffset:0;stroke-opacity:1;paint-order:markers fill stroke"
       id="path6940"
       d="m 215.94356,199.86471 c -0.13242,0.21642 -0.25621,0.43789 -0.38205,0.65818 -0.18983,0.34155 -0.37344,0.6865 -0.55462,1.03271 -0.21395,0.42335 -0.41647,0.8524 -0.63358,1.27413 -0.22263,0.43913 -0.45644,0.87234 -0.69674,1.30202 -0.11434,0.21533 -0.23867,0.42511 -0.35957,0.63677 -1.4061,2.46152 -2.56648,1.79868 -1.16038,-0.66285 v 0 c 0.11895,-0.2082 0.24141,-0.41447 0.35371,-0.62639 0.23308,-0.41643 0.45954,-0.83643 0.67531,-1.26213 0.21905,-0.42379 0.4209,-0.85626 0.63736,-1.28141 0.18892,-0.36065 0.38009,-0.72015 0.57822,-1.07583 0.14112,-0.24688 0.27959,-0.49533 0.43043,-0.73648 1.57248,-2.35871 2.68439,-1.61744 1.11191,0.74128 z"
       inkscape:connector-curvature="0" />
    <path
       style="opacity:1;fill:#000000;fill-opacity:1;fill-rule:nonzero;stroke:#000000;stroke-width:0.1;stroke-linecap:round;stroke-linejoin:round;stroke-miterlimit:4;stroke-dasharray:none;stroke-dashoffset:0;stroke-opacity:1;paint-order:markers fill stroke"
       id="path6944"
       d="m 219.56311,206.35649 c 0.0278,0.13263 0.0797,0.25248 0.15709,0.36326 0.0746,0.0965 0.18413,0.15714 0.29904,0.19347 0.10407,0.0318 0.21266,0.0471 0.31664,0.0106 0.0871,-0.0344 0.14165,-0.0988 0.18869,-0.17572 0.0918,-0.14512 0.13288,-0.30781 0.14109,-0.47771 0.001,-0.20986 -0.0668,-0.40468 -0.16553,-0.58679 -0.0945,-0.16238 -0.24627,-0.27071 -0.40608,-0.36231 -0.11274,-0.0482 -0.23816,-0.0524 -0.35916,-0.0499 -2.83449,-0.0435 -2.81398,-1.37968 0.0205,-1.33619 v 0 c 0.35824,0.0105 0.71085,0.0592 1.02764,0.24105 0.37165,0.22878 0.70125,0.50993 0.90861,0.9023 0.20309,0.41252 0.33436,0.84788 0.30481,1.31345 -0.0444,0.41136 -0.15184,0.80486 -0.39475,1.14706 -0.25535,0.33266 -0.56858,0.58728 -0.98361,0.69098 -0.3686,0.0703 -0.7335,0.0618 -1.08854,-0.0734 -0.37394,-0.15549 -0.70834,-0.37432 -0.93619,-0.71848 -0.17053,-0.27664 -0.30123,-0.56937 -0.35318,-0.89265 -0.4009,-2.80633 0.92201,-2.99532 1.32292,-0.18899 z"
       inkscape:connector-curvature="0" />
    <path
       style="opacity:1;fill:#000000;fill-opacity:1;fill-rule:nonzero;stroke:#000000;stroke-width:0.1;stroke-linecap:round;stroke-linejoin:round;stroke-miterlimit:4;stroke-dasharray:none;stroke-dashoffset:0;stroke-opacity:1;paint-order:markers fill stroke"
       id="path6946"
       d="m 70.410897,189.44023 c -0.03297,0.24265 -0.05299,0.48678 -0.07181,0.73085 -0.02492,0.33673 -0.0066,0.67527 0.0019,1.01243 0.0063,0.40953 0.03435,0.81824 0.06024,1.2269 0.177565,2.82926 -1.15616,2.91296 -1.333722,0.0837 v 0 c -0.02646,-0.42525 -0.05602,-0.85051 -0.06243,-1.27665 -0.0097,-0.38284 -0.02861,-0.76704 0.0016,-1.14934 0.02111,-0.27284 0.04391,-0.54571 0.08127,-0.81689 0.400905,-2.80633 1.723821,-2.61734 1.322917,0.18899 z"
       inkscape:connector-curvature="0" />
    <path
       style="opacity:1;fill:#000000;fill-opacity:1;fill-rule:nonzero;stroke:#000000;stroke-width:0.1;stroke-linecap:round;stroke-linejoin:round;stroke-miterlimit:4;stroke-dasharray:none;stroke-dashoffset:0;stroke-opacity:1;paint-order:markers fill stroke"
       id="path6952"
       d="m 67.219477,205.55468 c 0.05023,0.22864 0.102881,0.45633 0.169299,0.68094 0.09433,0.32802 0.208788,0.65008 0.345184,0.96293 0.123327,0.29937 0.284863,0.5824 0.475152,0.84403 0.122285,0.15181 0.256608,0.30755 0.443589,0.37694 0.07076,0.0192 0.130585,0.0279 0.188312,-0.006 0.04583,-0.0656 0.09287,-0.13065 0.134255,-0.19987 0.116015,-0.19104 0.164579,-0.4047 0.20892,-0.62066 0.04986,-0.29823 0.04013,-0.59626 0.01365,-0.89561 -0.04696,-0.36357 -0.14169,-0.7193 -0.256527,-1.06682 -0.119089,-0.34912 -0.300643,-0.66919 -0.513964,-0.96834 -0.167753,-0.22638 -0.363926,-0.42375 -0.614836,-0.55403 -0.095,-0.0402 -0.211209,-0.10662 -0.312287,-0.0588 0.006,0.001 0.01207,0.003 0.0181,0.004 -2.654766,0.9942 -3.123435,-0.25727 -0.46867,-1.25147 v 0 c 0.0696,-0.0224 0.139198,-0.0447 0.208799,-0.0671 0.423881,-0.0628 0.825267,-0.004 1.204653,0.20582 0.419365,0.24092 0.776023,0.55548 1.057008,0.95209 0.286152,0.41024 0.533135,0.84596 0.691549,1.32278 0.144074,0.44531 0.265253,0.89996 0.317537,1.3662 0.03659,0.42921 0.04129,0.8587 -0.03695,1.28446 -0.07896,0.37285 -0.184472,0.73834 -0.389297,1.06425 -0.21372,0.32772 -0.469815,0.61344 -0.846966,0.75311 -0.396023,0.11368 -0.783748,0.11034 -1.168138,-0.0534 -0.386744,-0.19065 -0.712239,-0.45836 -0.965546,-0.81044 -0.24188,-0.3417 -0.456306,-0.70375 -0.615281,-1.09205 -0.156001,-0.36413 -0.292536,-0.73643 -0.400949,-1.11767 -0.08278,-0.28575 -0.152863,-0.57469 -0.209519,-0.8668 -0.400904,-2.80633 0.922012,-2.99532 1.322917,-0.18899 z"
       inkscape:connector-curvature="0" />
    <path
       style="opacity:1;fill:#000000;fill-opacity:1;fill-rule:nonzero;stroke:#000000;stroke-width:0.1;stroke-linecap:round;stroke-linejoin:round;stroke-miterlimit:4;stroke-dasharray:none;stroke-dashoffset:0;stroke-opacity:1;paint-order:markers fill stroke"
       id="path6954"
       d="m 73.366677,207.69284 c 0.06487,0.2233 0.1061,0.45339 0.145806,0.68246 0.04861,0.29112 0.08105,0.58454 0.111303,0.87803 0.290078,2.81994 -1.039255,2.95669 -1.329333,0.13675 v 0 c -0.02702,-0.26321 -0.05573,-0.52638 -0.09885,-0.78753 -0.04158,-0.24229 -0.09461,-0.48171 -0.151839,-0.72072 -0.400905,-2.80633 0.922012,-2.99532 1.322917,-0.18899 z"
       inkscape:connector-curvature="0" />
    <path
       style="opacity:1;fill:#000000;fill-opacity:1;fill-rule:nonzero;stroke:#000000;stroke-width:0.1;stroke-linecap:round;stroke-linejoin:round;stroke-miterlimit:4;stroke-dasharray:none;stroke-dashoffset:0;stroke-opacity:1;paint-order:markers fill stroke"
       id="path6956"
       d="m 74.424669,203.59473 c 0.06371,0.23025 0.144642,0.45577 0.221919,0.68189 0.115475,0.31498 0.229198,0.63014 0.358995,0.93959 0.134085,0.33148 0.290147,0.65399 0.463931,0.9664 0.133815,0.22012 0.296957,0.42713 0.511889,0.57237 0.1075,0.0606 0.221295,0.12283 0.345675,0.10475 0.01204,-0.0392 0.04186,-0.0707 0.0668,-0.10403 0.09436,-0.1288 0.138568,-0.28413 0.166429,-0.43955 0.04648,-0.26743 0.02676,-0.54044 -0.0056,-0.80823 -0.05458,-0.33486 -0.158165,-0.658 -0.277204,-0.9748 -0.134104,-0.3263 -0.300265,-0.63819 -0.508378,-0.92307 -0.165764,-0.22243 -0.378648,-0.39347 -0.624121,-0.51939 -0.08238,-0.0333 -0.168994,-0.0549 -0.252037,-0.0302 -2.809523,0.37788 -2.987659,-0.94654 -0.178138,-1.32443 v 0 c 0.371866,-0.0366 0.727318,0.006 1.065175,0.17879 0.418309,0.23162 0.791618,0.5247 1.074373,0.91545 0.273296,0.38456 0.502531,0.7974 0.675682,1.2371 0.154419,0.41861 0.289393,0.84541 0.352332,1.28863 0.04532,0.41162 0.06679,0.82883 -0.01492,1.23789 -0.08598,0.37961 -0.214514,0.74654 -0.472297,1.04682 -0.281334,0.30569 -0.609664,0.52816 -1.03741,0.55502 -0.425879,-0.004 -0.817481,-0.1187 -1.169633,-0.36532 -0.359797,-0.27449 -0.665716,-0.60433 -0.888294,-1.00151 -0.195561,-0.35576 -0.375409,-0.7205 -0.527203,-1.09726 -0.140539,-0.33712 -0.265888,-0.6797 -0.39061,-1.02291 -0.08459,-0.2476 -0.171707,-0.49492 -0.242289,-0.74688 -0.778786,-2.72575 0.506145,-3.09287 1.28493,-0.36712 z"
       inkscape:connector-curvature="0" />
    <path
       style="opacity:1;fill:#000000;fill-opacity:1;fill-rule:nonzero;stroke:#000000;stroke-width:0.1;stroke-linecap:round;stroke-linejoin:round;stroke-miterlimit:4;stroke-dasharray:none;stroke-dashoffset:0;stroke-opacity:1;paint-order:markers fill stroke"
       id="path6958"
       d="m 79.121994,204.37394 c 0.128897,-0.19491 0.226406,-0.40635 0.327361,-0.61629 0.14479,-0.29552 0.249174,-0.60753 0.342323,-0.92239 0.08318,-0.29864 0.176205,-0.59407 0.321638,-0.86856 0.30856,-0.51507 0.874739,-0.51084 1.293993,-0.14494 0.193174,0.2486 0.295089,0.54918 0.390808,0.84552 0.09836,0.31535 0.183012,0.63459 0.274547,0.9519 0.107495,0.37562 0.209788,0.75304 0.329092,1.12513 0.09633,0.2729 0.170373,0.55189 0.236135,0.83343 0.640382,2.76154 -0.661424,3.06342 -1.301803,0.30188 v 0 c -0.05672,-0.24684 -0.122695,-0.49068 -0.207603,-0.7296 -0.121941,-0.38463 -0.230203,-0.7735 -0.340172,-1.1617 -0.08729,-0.30467 -0.168878,-0.61092 -0.262929,-0.91364 -0.01654,-0.0524 -0.217948,-0.5082 -0.08531,-0.33082 0.257786,0.18506 0.676315,0.19043 0.842518,-0.13015 -0.09924,0.18839 -0.146507,0.39979 -0.20996,0.60232 -0.114194,0.38266 -0.242951,0.76145 -0.418965,1.12081 -0.127958,0.26602 -0.256278,0.53169 -0.419761,0.77837 -1.572477,2.35871 -2.684386,1.61744 -1.111909,-0.74127 z"
       inkscape:connector-curvature="0" />
    <path
       style="opacity:1;fill:#000000;fill-opacity:1;fill-rule:nonzero;stroke:#000000;stroke-width:0.1;stroke-linecap:round;stroke-linejoin:round;stroke-miterlimit:4;stroke-dasharray:none;stroke-dashoffset:0;stroke-opacity:1;paint-order:markers fill stroke"
       id="path6960"
       d="m 85.880333,202.66976 c 0.113448,0.18408 0.225354,0.36965 0.338929,0.55393 0.168468,0.28368 0.372922,0.54211 0.575667,0.80136 0.241189,0.30398 0.500679,0.59204 0.763251,0.87748 0.142267,0.15331 0.269748,0.3192 0.400828,0.48191 1.778474,2.20754 0.737828,3.04592 -1.040646,0.83838 v 0 c -0.112805,-0.14003 -0.221641,-0.28349 -0.343797,-0.41567 -0.286615,-0.3117 -0.569155,-0.62692 -0.832328,-0.9589 -0.233371,-0.29845 -0.46636,-0.59769 -0.660834,-0.92377 -0.134083,-0.21788 -0.26823,-0.43559 -0.396336,-0.65709 -1.267769,-2.53554 -0.0725,-3.13317 1.195266,-0.59763 z"
       inkscape:connector-curvature="0" />
    <path
       style="opacity:1;fill:#000000;fill-opacity:1;fill-rule:nonzero;stroke:#000000;stroke-width:0.1;stroke-linecap:round;stroke-linejoin:round;stroke-miterlimit:4;stroke-dasharray:none;stroke-dashoffset:0;stroke-opacity:1;paint-order:markers fill stroke"
       id="path6962"
       d="m 87.987562,201.90334 c -0.08316,0.25764 -0.160748,0.51717 -0.23186,0.77843 -0.106555,0.41347 -0.219358,0.82534 -0.330353,1.23766 -0.116771,0.47071 -0.24407,0.93869 -0.358005,1.41011 -0.08915,0.33259 -0.04481,0.16898 -0.132956,0.49085 -0.748858,2.73412 -2.037736,2.38111 -1.288878,-0.35301 v 0 c 0.08355,-0.30501 0.04258,-0.15433 0.122944,-0.45203 0.116798,-0.48248 0.246647,-0.9616 0.366493,-1.44332 0.111413,-0.41381 0.224681,-0.82716 0.331571,-1.24215 0.08766,-0.3204 0.179667,-0.64057 0.292745,-0.95295 1.116693,-2.60562 2.344989,-2.0792 1.228299,0.52641 z"
       inkscape:connector-curvature="0" />
    <path
       style="opacity:1;fill:#000000;fill-opacity:1;fill-rule:nonzero;stroke:#000000;stroke-width:0.1;stroke-linecap:round;stroke-linejoin:round;stroke-miterlimit:4;stroke-dasharray:none;stroke-dashoffset:0;stroke-opacity:1;paint-order:markers fill stroke"
       id="path6966"
       d="m 91.541004,207.69284 c 0.03883,0.14236 0.08012,0.28539 0.153871,0.41429 0.0723,0.11493 0.140512,0.29964 0.278497,0.35495 0.05558,-0.007 0.102931,0.004 0.157414,-0.0176 0.07558,-0.0385 0.131779,-0.10368 0.181261,-0.17091 0.0752,-0.11489 0.125262,-0.24271 0.144724,-0.37851 0.02442,-0.11285 0.0053,-0.20769 -0.05266,-0.30458 -0.07035,-0.10796 -0.172808,-0.1749 -0.285242,-0.23124 -0.0832,-0.0346 -0.167706,-0.0612 -0.258017,-0.0634 -2.814709,-0.33708 -2.65581,-1.66394 0.158899,-1.32687 v 0 c 0.258685,0.0368 0.509603,0.0949 0.742579,0.21908 0.358664,0.20384 0.665515,0.46529 0.85416,0.84037 0.157244,0.36092 0.233487,0.73352 0.151244,1.12593 -0.0762,0.3544 -0.203166,0.69146 -0.43183,0.97807 -0.263945,0.30346 -0.573622,0.54472 -0.97659,0.62877 -0.41406,0.0594 -0.810379,0.0131 -1.170352,-0.21717 -0.287383,-0.22225 -0.52282,-0.48927 -0.679831,-0.82054 -0.133901,-0.26694 -0.237596,-0.54671 -0.291042,-0.84162 -0.400905,-2.80633 0.922012,-2.99532 1.322917,-0.18899 z"
       inkscape:connector-curvature="0" />
    <path
       style="opacity:1;fill:#000000;fill-opacity:1;fill-rule:nonzero;stroke:#000000;stroke-width:0.1;stroke-linecap:round;stroke-linejoin:round;stroke-miterlimit:4;stroke-dasharray:none;stroke-dashoffset:0;stroke-opacity:1;paint-order:markers fill stroke"
       id="path6990"
       d="m 114.49296,182.89845 c 0.022,-0.022 0.044,-0.044 0.066,-0.066 2.00453,-2.00452 2.94947,-1.05958 0.94495,0.94495 v 0 c -0.022,0.022 -0.044,0.044 -0.0661,0.066 -2.00452,2.00452 -2.94946,1.05958 -0.94494,-0.94494 z"
       inkscape:connector-curvature="0" />
    <path
       style="opacity:1;fill:#000000;fill-opacity:1;fill-rule:nonzero;stroke:#000000;stroke-width:0.1;stroke-linecap:round;stroke-linejoin:round;stroke-miterlimit:4;stroke-dasharray:none;stroke-dashoffset:0;stroke-opacity:1;paint-order:markers fill stroke"
       id="path6992"
       d="m 120.01991,179.84914 c 0.18071,-0.0879 0.35941,-0.17816 0.54447,-0.25711 2.61103,-1.10397 3.13144,0.12688 0.52041,1.23085 v 0 c -0.15948,0.0665 -0.31185,0.14636 -0.46724,0.22152 -2.53554,1.26777 -3.13318,0.0725 -0.59764,-1.19526 z"
       inkscape:connector-curvature="0" />
    <path
       style="opacity:1;fill:#000000;fill-opacity:1;fill-rule:nonzero;stroke:#000000;stroke-width:0.1;stroke-linecap:round;stroke-linejoin:round;stroke-miterlimit:4;stroke-dasharray:none;stroke-dashoffset:0;stroke-opacity:1;paint-order:markers fill stroke"
       id="path6994"
       d="m 126.96892,177.71098 c 0.11752,-0.0584 0.24113,-0.10224 0.36433,-0.14662 2.67034,-0.9516 3.11893,0.3072 0.4486,1.25881 v 0 c -0.0726,0.0254 -0.1456,0.0502 -0.2153,0.0831 -2.53554,1.26777 -3.13317,0.0725 -0.59763,-1.19526 z"
       inkscape:connector-curvature="0" />
    <path
       style="opacity:1;fill:#000000;fill-opacity:1;fill-rule:nonzero;stroke:#000000;stroke-width:0.1;stroke-linecap:round;stroke-linejoin:round;stroke-miterlimit:4;stroke-dasharray:none;stroke-dashoffset:0;stroke-opacity:1;paint-order:markers fill stroke"
       id="path6996"
       d="m 133.77382,176.60498 c 0.28061,-0.0778 0.56799,-0.12638 0.85538,-0.17096 0.0582,-0.008 0.11647,-0.0163 0.1747,-0.0244 2.80768,-0.39136 2.99217,0.9322 0.18449,1.32355 v 0 c -0.0517,0.007 -0.10339,0.0144 -0.15508,0.0215 -0.23244,0.0358 -0.46506,0.0738 -0.69237,0.13522 -2.72574,0.77878 -3.09287,-0.50615 -0.36712,-1.28493 z"
       inkscape:connector-curvature="0" />
    <path
       style="opacity:1;fill:#000000;fill-opacity:1;fill-rule:nonzero;stroke:#000000;stroke-width:0.1;stroke-linecap:round;stroke-linejoin:round;stroke-miterlimit:4;stroke-dasharray:none;stroke-dashoffset:0;stroke-opacity:1;paint-order:markers fill stroke"
       id="path7006"
       d="m 141.35722,177.70568 c 0.26459,0.0878 0.52791,0.17938 0.79354,0.264 0.0503,0.0148 0.10053,0.0296 0.15079,0.0443 2.71889,0.80239 2.34064,2.08409 -0.37825,1.28169 v 0 c -0.0597,-0.0177 -0.11934,-0.0353 -0.179,-0.053 -0.25246,-0.0808 -0.50349,-0.16623 -0.7542,-0.2521 -2.72575,-0.77878 -2.35863,-2.06371 0.36712,-1.28493 z"
       inkscape:connector-curvature="0" />
    <path
       style="opacity:1;fill:#000000;fill-opacity:1;fill-rule:nonzero;stroke:#000000;stroke-width:0.1;stroke-linecap:round;stroke-linejoin:round;stroke-miterlimit:4;stroke-dasharray:none;stroke-dashoffset:0;stroke-opacity:1;paint-order:markers fill stroke"
       id="path7008"
       d="m 148.4854,181.01524 c 0.21619,0.16072 0.43799,0.31117 0.64502,0.48411 2.16552,1.82941 1.30313,2.85024 -0.86239,1.02083 v 0 c -0.16616,-0.14303 -0.35113,-0.25884 -0.5239,-0.39303 -2.35872,-1.57247 -1.61745,-2.68438 0.74127,-1.11191 z"
       inkscape:connector-curvature="0" />
    <g
       id="g7041"
       transform="matrix(0.84009603,0,0,0.83935381,22.332776,28.521793)"
       style="stroke-width:1.19086623">
      <path
         inkscape:connector-curvature="0"
         d="m 118.15775,166.36258 c 0.0744,0.31812 0.18382,0.62535 0.29502,0.92937 0.14562,0.41623 0.31981,0.81981 0.51547,1.20934 0.20666,0.40177 0.46863,0.75976 0.73211,1.11522 0.2474,0.34306 0.55593,0.61133 0.88445,0.84907 0.31624,0.20288 0.65476,0.33038 1.01583,0.37545 0.26852,0.0184 0.53151,-0.027 0.76439,-0.18014 0.17133,-0.1138 0.25643,-0.28781 0.3319,-0.485 0.11785,-0.31835 0.17755,-0.65791 0.20247,-1.00015 0.0306,-0.44688 -0.0172,-0.8943 -0.0825,-1.33464 -0.0778,-0.55109 -0.21378,-1.08814 -0.35766,-1.6213 -0.0673,-0.25667 -0.12235,-0.51592 -0.17076,-0.77769 -0.71765,-3.9983 0.96619,-4.37699 1.68383,-0.37867 v 0 c 0.0346,0.20307 0.0823,0.40205 0.13129,0.60137 0.16527,0.61459 0.31932,1.23421 0.40873,1.86924 0.0856,0.60333 0.14521,1.21478 0.0967,1.82605 -0.0522,0.55895 -0.14838,1.1127 -0.35561,1.62859 -0.25019,0.58016 -0.58972,1.07241 -1.10635,1.38386 -0.55755,0.30422 -1.14746,0.45056 -1.77066,0.3745 -0.615,-0.098 -1.20026,-0.3052 -1.73227,-0.67301 -0.46911,-0.34677 -0.9096,-0.73792 -1.26547,-1.22994 -0.33087,-0.44638 -0.65393,-0.90134 -0.91077,-1.40728 -0.22698,-0.45922 -0.43537,-0.93067 -0.6058,-1.42003 -0.13353,-0.36881 -0.26436,-0.74097 -0.35568,-1.12607 -1.0009,-3.92129 0.65049,-4.44944 1.6514,-0.52814 z"
         id="path7010"
         style="opacity:1;fill:#000000;fill-opacity:1;fill-rule:nonzero;stroke:#000000;stroke-width:0.11908662;stroke-linecap:round;stroke-linejoin:round;stroke-miterlimit:4;stroke-dasharray:none;stroke-dashoffset:0;stroke-opacity:1;paint-order:markers fill stroke" />
      <path
         inkscape:connector-curvature="0"
         d="m 128.14111,170.4641 c -0.003,0.16587 0.006,0.33082 0.0348,0.49456 0.0314,0.2083 0.10625,0.40818 0.21246,0.58964 0.0828,0.12362 0.189,0.23256 0.32601,0.29419 0.11244,0.045 0.22574,0.0532 0.34454,0.0356 0.0236,-0.0157 0.0141,-0.0284 0.0173,-0.0532 0.008,-0.0577 0.0237,-0.12048 0.0179,-0.18267 -0.0221,-0.17439 -0.0674,-0.34263 -0.13407,-0.50512 -0.11277,-0.27202 -0.24484,-0.53683 -0.38562,-0.79546 -0.20063,-0.3496 -0.35576,-0.71985 -0.47715,-1.10345 -0.12264,-0.39876 -0.14076,-0.8089 -0.10399,-1.22119 0.0474,-0.40001 0.1971,-0.76136 0.4056,-1.10193 0.21949,-0.34215 0.52214,-0.60288 0.86361,-0.81611 0.35394,-0.21213 0.74166,-0.2853 1.14881,-0.27834 0.21695,0.009 0.41486,0.0807 0.61403,0.15888 2.61442,1.0959 2.09781,2.32835 -0.51662,1.23245 v 0 c -0.0471,-0.0254 -0.0939,-0.0485 -0.14776,-0.0559 -0.14389,-0.0159 -0.27762,0.0139 -0.40484,0.0852 -0.16791,0.0952 -0.3129,0.22094 -0.42312,0.38071 -0.10546,0.16369 -0.18231,0.33119 -0.20988,0.52692 -0.0279,0.23313 -0.016,0.46345 0.0495,0.69031 0.0932,0.30276 0.21919,0.5922 0.37741,0.86714 0.16513,0.30722 0.32292,0.6198 0.45416,0.94312 0.12738,0.33301 0.22013,0.67836 0.22549,1.03744 -0.0194,0.34258 -0.0921,0.67166 -0.29649,0.95564 -0.25149,0.30615 -0.56117,0.5209 -0.96496,0.5675 -0.38589,0.0246 -0.76149,-0.0189 -1.10889,-0.20261 -0.34415,-0.20393 -0.63966,-0.46095 -0.84076,-0.81281 -0.17307,-0.32174 -0.31061,-0.66249 -0.36262,-1.02662 -0.0443,-0.2956 -0.0673,-0.59425 -0.0378,-0.8928 0.40091,-2.80633 1.72382,-2.61734 1.32292,0.18899 z"
         id="path7014"
         style="opacity:1;fill:#000000;fill-opacity:1;fill-rule:nonzero;stroke:#000000;stroke-width:0.11908663;stroke-linecap:round;stroke-linejoin:round;stroke-miterlimit:4;stroke-dasharray:none;stroke-dashoffset:0;stroke-opacity:1;paint-order:markers fill stroke" />
      <path
         inkscape:connector-curvature="0"
         d="m 136.9341,164.40597 c -0.0724,0.24759 -0.14544,0.49453 -0.20516,0.74562 -0.0829,0.31833 -0.11417,0.64367 -0.13607,0.97066 -0.0231,0.37587 -0.0147,0.75408 0.0317,1.12777 0.0561,0.42549 0.15129,0.84517 0.2672,1.25808 0.10897,0.41338 0.2672,0.80981 0.43705,1.20112 0.14311,0.32506 0.3208,0.63297 0.49526,0.94179 1.39439,2.46818 0.23088,3.12549 -1.16351,0.65731 v 0 c -0.19743,-0.34948 -0.39669,-0.6989 -0.55768,-1.0672 -0.19418,-0.44771 -0.37283,-0.9022 -0.49853,-1.37467 -0.13244,-0.4791 -0.24403,-0.96499 -0.30678,-1.4586 -0.0526,-0.45639 -0.0689,-0.91695 -0.038,-1.37579 0.0274,-0.40112 0.0699,-0.80043 0.16963,-1.1911 0.0648,-0.26992 0.1421,-0.53587 0.21997,-0.80212 0.77879,-2.72575 2.06372,-2.35862 1.28493,0.36713 z"
         id="path7016"
         style="opacity:1;fill:#000000;fill-opacity:1;fill-rule:nonzero;stroke:#000000;stroke-width:0.11908663;stroke-linecap:round;stroke-linejoin:round;stroke-miterlimit:4;stroke-dasharray:none;stroke-dashoffset:0;stroke-opacity:1;paint-order:markers fill stroke" />
      <path
         inkscape:connector-curvature="0"
         d="m 140.10052,168.12021 c 0.30903,0.13692 0.5876,0.32978 0.87112,0.51133 0.33642,0.22546 0.66723,0.45912 0.99484,0.69719 0.27591,0.18843 0.53819,0.39589 0.79849,0.60509 2.2081,1.77778 1.37005,2.81869 -0.83806,1.04091 v 0 c -0.24283,-0.19592 -0.48828,-0.38926 -0.74622,-0.5651 -0.30633,-0.2228 -0.61582,-0.44124 -0.92996,-0.65287 -0.22165,-0.14207 -0.4382,-0.29484 -0.67663,-0.40825 -2.60561,-1.11669 -2.0792,-2.34499 0.52642,-1.2283 z"
         id="path7018"
         style="opacity:1;fill:#000000;fill-opacity:1;fill-rule:nonzero;stroke:#000000;stroke-width:0.11908663;stroke-linecap:round;stroke-linejoin:round;stroke-miterlimit:4;stroke-dasharray:none;stroke-dashoffset:0;stroke-opacity:1;paint-order:markers fill stroke" />
      <path
         inkscape:connector-curvature="0"
         d="m 143.0813,166.00958 c -0.0649,0.2672 -0.0982,0.54043 -0.14537,0.81097 -0.0766,0.41768 -0.13671,0.83805 -0.1904,1.25921 -0.0566,0.47343 -0.13516,0.94386 -0.19996,1.41622 -0.0596,0.42578 -0.14864,0.84604 -0.2524,1.26297 -0.6879,2.75009 -1.98431,2.42581 -1.2964,-0.32428 v 0 c 0.093,-0.36973 0.17134,-0.74275 0.22487,-1.12044 0.0643,-0.46816 0.142,-0.93444 0.19829,-1.40363 0.0565,-0.44196 0.11953,-0.8831 0.19984,-1.32144 0.0561,-0.31604 0.093,-0.63604 0.1766,-0.9467 0.77879,-2.72575 2.06372,-2.35863 1.28493,0.36712 z"
         id="path7020"
         style="opacity:1;fill:#000000;fill-opacity:1;fill-rule:nonzero;stroke:#000000;stroke-width:0.11908663;stroke-linecap:round;stroke-linejoin:round;stroke-miterlimit:4;stroke-dasharray:none;stroke-dashoffset:0;stroke-opacity:1;paint-order:markers fill stroke" />
      <path
         inkscape:connector-curvature="0"
         d="m 146.32017,171.78966 c 0.0126,0.0374 0.0511,0.0493 0.081,0.0648 0.0618,1.4e-4 -1.4e-4,-0.0113 0.0619,-0.0223 0.015,-0.0184 0.0223,-0.0472 0.0376,-0.0736 0.0453,-0.0912 0.0767,-0.18732 0.0814,-0.28947 0.0214,-0.13094 -0.038,-0.22877 -0.0892,-0.34333 -0.0513,-0.11062 -0.12853,-0.19416 -0.22941,-0.25563 -0.0167,5.3e-4 -0.0318,0.007 -0.047,0.011 -2.81602,-0.32595 -2.66237,-1.65343 0.15365,-1.32749 v 0 c 0.21821,0.0331 0.4259,0.0738 0.61722,0.19317 0.31445,0.21684 0.56989,0.4856 0.72791,0.83887 0.1469,0.33488 0.24518,0.67974 0.19284,1.04946 -0.0494,0.34077 -0.14851,0.66758 -0.35596,0.94829 -0.24091,0.2914 -0.53036,0.51429 -0.91438,0.57361 -0.34802,0.0413 -0.68122,-0.002 -0.98234,-0.19373 -0.28585,-0.20539 -0.5173,-0.46177 -0.62016,-0.80661 -0.77879,-2.72575 0.50614,-3.09287 1.28493,-0.36712 z"
         id="path7026"
         style="opacity:1;fill:#000000;fill-opacity:1;fill-rule:nonzero;stroke:#000000;stroke-width:0.11908663;stroke-linecap:round;stroke-linejoin:round;stroke-miterlimit:4;stroke-dasharray:none;stroke-dashoffset:0;stroke-opacity:1;paint-order:markers fill stroke" />
      <path
         inkscape:connector-curvature="0"
         d="m 149.5274,164.30611 c 0.0827,0.20882 0.17347,0.41459 0.26235,0.62096 0.13694,0.31924 0.29683,0.62754 0.45141,0.93838 0.18761,0.39807 0.3628,0.80191 0.51384,1.21529 0.178,0.48023 0.28556,0.97911 0.37027,1.48276 0.0817,0.5098 0.11147,1.02722 0.1199,1.543 0.0146,0.51856 -0.066,1.03122 -0.16233,1.53873 -0.10346,0.48331 -0.26521,0.95156 -0.44838,1.40978 -0.1063,0.28962 -0.25197,0.5612 -0.3967,0.83272 -1.33387,2.5014 -2.51304,1.8726 -1.17917,-0.6288 v 0 c 0.12227,-0.22921 0.24815,-0.45699 0.336,-0.70247 0.15279,-0.37715 0.28564,-0.76356 0.37543,-1.16089 0.0798,-0.41882 0.15181,-0.84144 0.13894,-1.2697 -0.005,-0.4483 -0.0328,-0.89834 -0.10167,-1.34159 -0.0706,-0.4236 -0.158,-0.84334 -0.30829,-1.24715 -0.13234,-0.36674 -0.29036,-0.72334 -0.4545,-1.07685 -0.16534,-0.33275 -0.33581,-0.66307 -0.4822,-1.00483 -0.11132,-0.25874 -0.22804,-0.51563 -0.31983,-0.78221 -0.77878,-2.72575 0.50615,-3.09287 1.28493,-0.36713 z"
         id="path7032"
         style="opacity:1;fill:#000000;fill-opacity:1;fill-rule:nonzero;stroke:#000000;stroke-width:0.11908663;stroke-linecap:round;stroke-linejoin:round;stroke-miterlimit:4;stroke-dasharray:none;stroke-dashoffset:0;stroke-opacity:1;paint-order:markers fill stroke" />
    </g>
  </g>
</svg>
