<?xml version="1.0" encoding="UTF-8" standalone="no"?>
<!-- Created with Inkscape (http://www.inkscape.org/) -->

<svg
   xmlns:dc="http://purl.org/dc/elements/1.1/"
   xmlns:cc="http://creativecommons.org/ns#"
   xmlns:rdf="http://www.w3.org/1999/02/22-rdf-syntax-ns#"
   xmlns:svg="http://www.w3.org/2000/svg"
   xmlns="http://www.w3.org/2000/svg"
   xmlns:sodipodi="http://sodipodi.sourceforge.net/DTD/sodipodi-0.dtd"
   xmlns:inkscape="http://www.inkscape.org/namespaces/inkscape"
   width="297mm"
   height="210mm"
   viewBox="0 0 297 210"
   version="1.1"
   id="svg8"
   inkscape:version="0.92.1 r15371"
   sodipodi:docname="squares.svg">
  <defs
     id="defs2" />
  <sodipodi:namedview
     id="base"
     pagecolor="#ffffff"
     bordercolor="#666666"
     borderopacity="1.0"
     inkscape:pageopacity="0.0"
     inkscape:pageshadow="2"
     inkscape:zoom="0.98994949"
     inkscape:cx="599.82249"
     inkscape:cy="415.85014"
     inkscape:document-units="mm"
     inkscape:current-layer="layer1"
     showgrid="false"
     inkscape:window-width="1920"
     inkscape:window-height="1046"
     inkscape:window-x="-11"
     inkscape:window-y="-11"
     inkscape:window-maximized="1" />
  <metadata
     id="metadata5">
    <rdf:RDF>
      <cc:Work
         rdf:about="">
        <dc:format>image/svg+xml</dc:format>
        <dc:type
           rdf:resource="http://purl.org/dc/dcmitype/StillImage" />
        <dc:title></dc:title>
      </cc:Work>
    </rdf:RDF>
  </metadata>
  <g
     inkscape:label="Layer 1"
     inkscape:groupmode="layer"
     id="layer1"
     transform="translate(0,-87)">
    <path
       style="opacity:1;fill:#000000;fill-opacity:1;fill-rule:nonzero;stroke:#000000;stroke-width:0.1;stroke-linecap:round;stroke-linejoin:round;stroke-miterlimit:4;stroke-dasharray:none;stroke-dashoffset:0;stroke-opacity:1;paint-order:markers fill stroke"
       id="path4487"
       d="m 36.482289,117.98477 c -0.0057,0.25992 0.02471,0.51877 0.04429,0.77764 0.02289,0.43988 0.06166,0.8782 0.10243,1.31669 0.05104,0.58574 0.08974,1.17227 0.142653,1.75785 0.06839,0.71295 0.118764,1.42738 0.16301,2.14217 0.04551,0.80382 0.11585,1.60597 0.17227,2.40908 0.05985,0.8713 0.104159,1.74356 0.144328,2.61596 0.04138,0.91816 0.07097,1.83678 0.09779,2.75547 0.0249,0.96109 0.08064,1.9211 0.124778,2.88145 0.04284,0.99645 0.113048,1.99149 0.170378,2.98719 0.05701,1.04049 0.135948,2.07962 0.201914,3.11958 0.06365,1.05872 0.150392,2.11589 0.223102,3.17402 0.0897,1.07734 0.175305,2.15495 0.250378,3.23341 0.09196,1.1032 0.179342,2.20671 0.256199,3.31107 0.09283,1.12822 0.182332,2.25666 0.25985,3.38604 0.0789,1.16451 0.137776,2.33022 0.190828,3.49614 0.05262,1.17973 0.09276,2.35997 0.128881,3.54031 0.03186,1.17085 0.07024,2.34166 0.0791,3.51295 5.29e-4,1.16309 -0.01005,2.32614 -0.01804,3.48919 -0.0078,1.13473 -0.01413,2.26948 -0.01982,3.40422 -0.0055,1.11342 -0.0097,2.22684 -0.01355,3.34026 -0.01841,1.10439 -0.05323,2.20843 -0.08164,3.31259 -0.02487,1.09377 -0.08265,2.18648 -0.129125,3.27947 -0.04582,1.07971 -0.08144,2.15981 -0.113707,3.23999 -0.03164,1.07606 -0.0556,2.15231 -0.07739,3.2286 -0.0181,1.05605 -0.07064,2.11116 -0.11221,3.16647 -0.04048,1.02973 -0.07298,2.05974 -0.102018,3.08984 -0.02812,1.02232 -0.04974,2.0448 -0.06948,3.06732 -0.01921,1.01344 -0.0336,2.02697 -0.04692,3.04051 -0.02241,0.98856 -0.0164,1.9769 0.0011,2.96543 0.01945,0.9783 0.037,1.95664 0.0527,2.93501 0.01532,0.96889 0.02709,1.93784 0.03777,2.90679 0.01032,0.95515 0.01826,1.91032 0.02553,2.86549 0.007,0.92644 0.01238,1.85288 0.01722,2.77933 -0.0066,0.90804 0.0274,1.81542 0.05744,2.72277 0.03078,0.90081 0.05596,1.80178 0.07871,2.70282 0.02183,0.88016 0.03876,1.76043 0.05428,2.64072 0.01492,0.86675 0.0263,1.73357 0.03663,2.60039 0.01,0.84873 0.01773,1.69749 0.02471,2.54626 0.0069,0.83745 0.01199,1.67491 0.01667,2.51238 -0.0051,0.8364 0.01445,1.67213 0.04352,2.50792 0.03103,0.83835 0.05791,1.67685 0.08179,2.51543 0.02331,0.82503 0.04096,1.6502 0.05741,2.4754 0.01564,0.80264 0.02776,1.60534 0.03876,2.40806 0.01053,0.77617 0.01873,1.55238 0.02614,2.32859 0.0071,0.75297 0.01257,1.50595 0.01762,2.25894 0.0047,0.72222 0.0084,1.44444 0.01191,2.16666 0.0031,0.6664 0.0057,1.3328 0.008,1.99919 0.0021,0.62366 0.0039,1.24731 0.0054,1.87096 0.0016,0.59469 0.0026,1.18937 0.0037,1.78406 0.0011,0.57513 0.0019,1.15025 0.0024,1.72538 7.94e-4,0.56193 0.0013,1.12386 0.0016,1.68579 7.1e-5,0.0927 1.45e-4,0.18539 2.17e-4,0.27809 0.0021,2.83482 -1.334114,2.83587 -1.336347,10e-4 v 0 c -7.1e-5,-0.0927 -1.46e-4,-0.18535 -2.17e-4,-0.27802 -5.29e-4,-0.56176 -0.0011,-1.12352 -0.0016,-1.68528 -7.93e-4,-0.57489 -0.0016,-1.14978 -0.0024,-1.72467 -0.0011,-0.59435 -0.0021,-1.18871 -0.0037,-1.78306 -0.0016,-0.62321 -0.0033,-1.24642 -0.0054,-1.86963 -0.0024,-0.66582 -0.0049,-1.33164 -0.008,-1.99746 -0.0035,-0.72136 -0.0072,-1.44271 -0.01188,-2.16406 -0.0051,-0.75174 -0.01048,-1.50346 -0.0176,-2.25518 -0.0074,-0.77436 -0.01558,-1.54871 -0.02606,-2.32303 -0.01098,-0.79995 -0.02305,-1.59989 -0.03863,-2.39976 -0.01638,-0.82139 -0.03392,-1.64276 -0.05714,-2.46399 -0.02379,-0.83578 -0.0506,-1.67148 -0.08153,-2.50703 -0.0295,-0.84878 -0.04926,-1.6975 -0.0443,-2.54689 -0.0047,-0.83629 -0.0098,-1.67258 -0.01664,-2.50886 -0.007,-0.8471 -0.01466,-1.69421 -0.02466,-2.54129 -0.01032,-0.86429 -0.02164,-1.72857 -0.03652,-2.59279 -0.01545,-0.8769 -0.03231,-1.75378 -0.05406,-2.63055 -0.02265,-0.89754 -0.04774,-1.79501 -0.07841,-2.69232 -0.03045,-0.91975 -0.0646,-1.83954 -0.05816,-2.76 -0.0048,-0.92539 -0.01021,-1.85078 -0.0172,-2.77616 -0.0072,-0.95365 -0.01519,-1.90729 -0.02548,-2.86091 -0.01066,-0.96672 -0.02241,-1.93343 -0.03768,-2.90009 -0.01569,-0.97771 -0.03324,-1.95539 -0.05267,-2.93304 -0.01754,-1.00219 -0.02357,-2.00419 -0.0011,-3.00641 0.01336,-1.01628 0.0278,-2.03255 0.04706,-3.04875 0.01982,-1.02646 0.04153,-2.05289 0.06977,-3.07917 0.02918,-1.03508 0.06185,-2.07007 0.102521,-3.10478 0.04124,-1.0468 0.09345,-2.0934 0.111448,-3.14093 0.02188,-1.08057 0.04595,-2.16111 0.07772,-3.24145 0.03244,-1.08581 0.06826,-2.17152 0.114319,-3.25685 0.04616,-1.08553 0.103602,-2.17078 0.12836,-3.25707 0.02816,-1.09425 0.06253,-2.18836 0.08121,-3.28282 0.0038,-1.11412 0.008,-2.22824 0.01355,-3.34235 0.0057,-1.13557 0.01199,-2.27113 0.01982,-3.40668 0.0079,-1.15669 0.01844,-2.31338 0.01805,-3.4701 -0.0085,-1.16099 -0.04724,-2.32148 -0.07851,-3.48203 -0.03591,-1.17371 -0.07582,-2.34732 -0.128124,-3.52044 -0.05257,-1.15567 -0.110895,-2.31112 -0.189074,-3.46538 -0.07746,-1.12896 -0.167164,-2.25695 -0.259763,-3.38476 -0.07683,-1.10436 -0.164443,-2.20784 -0.256196,-3.31105 -0.07508,-1.07886 -0.160964,-2.15684 -0.250462,-3.2346 -0.07285,-1.06047 -0.159832,-2.11997 -0.223562,-3.18104 -0.06612,-1.04254 -0.145283,-2.08426 -0.202386,-3.12735 -0.05762,-1.00085 -0.12819,-2.00104 -0.171177,-3.00265 -0.04448,-0.9678 -0.100605,-1.93526 -0.125619,-2.90382 -0.0266,-0.91119 -0.05593,-1.82233 -0.09695,-2.733 -0.03966,-0.86167 -0.08339,-1.72319 -0.142457,-2.58378 -0.05666,-0.80681 -0.127365,-1.61266 -0.173003,-2.42019 -0.04343,-0.70221 -0.0929,-1.40406 -0.160142,-2.10446 -0.05278,-0.58442 -0.09178,-1.16976 -0.142335,-1.75437 -0.04148,-0.44616 -0.08091,-0.8922 -0.10437,-1.33974 -0.02207,-0.29234 -0.0544,-0.58474 -0.04809,-0.8783 0,-2.83482 1.336347,-2.83482 1.336347,0 z"
       inkscape:connector-curvature="0" />
    <path
       style="opacity:1;fill:#000000;fill-opacity:1;fill-rule:nonzero;stroke:#000000;stroke-width:0.1;stroke-linecap:round;stroke-linejoin:round;stroke-miterlimit:4;stroke-dasharray:none;stroke-dashoffset:0;stroke-opacity:1;paint-order:markers fill stroke"
       id="path4493"
       d="m 35.586217,115.87026 c -0.143547,0.25998 -0.280942,0.52352 -0.410361,0.79082 -0.203369,0.40284 -0.377057,0.81996 -0.543073,1.23934 -0.193995,0.456 -0.361611,0.92194 -0.510421,1.39441 -0.117149,0.40625 -0.233685,0.8127 -0.387802,1.20671 -0.231751,0.70471 -1.207633,1.00971 -1.482204,-0.027 -0.05369,-0.36696 0.01426,-0.73484 0.06395,-1.09818 0.07474,-0.44973 0.156046,-0.89819 0.2622,-1.34165 0.109431,-0.45356 0.235206,-0.90319 0.375999,-1.34799 0.153027,-0.49981 0.424749,-0.91596 0.819031,-1.2544 0.392967,-0.29932 0.835125,-0.39916 1.31994,-0.3632 0.44392,0.06 0.836311,0.26942 1.223375,0.48064 0.395711,0.21627 0.757833,0.48691 1.125789,0.74613 0.343127,0.2403 0.671629,0.50052 0.995442,0.766 2.190935,1.79889 1.342929,2.8317 -0.848006,1.03281 v 0 c -0.29805,-0.24513 -0.601046,-0.48466 -0.917091,-0.70635 -0.326352,-0.22994 -0.646678,-0.47154 -0.996314,-0.66557 -0.231074,-0.12612 -0.459664,-0.26473 -0.719236,-0.32425 -0.125566,-0.0294 -0.229097,-0.002 -0.340209,0.0701 -0.213664,0.14149 -0.303805,0.39203 -0.389223,0.62305 -0.132461,0.41416 -0.247603,0.83389 -0.350409,1.25635 -0.09727,0.39947 -0.167288,0.80443 -0.237271,1.20942 -0.03023,0.22094 -0.06832,0.44187 -0.07561,0.665 -0.57713,-1.18899 -1.276035,0.16121 -1.073414,-0.21098 0.145082,-0.36414 0.244197,-0.74382 0.35665,-1.11881 0.158914,-0.50276 0.336217,-0.99922 0.542526,-1.48472 0.178755,-0.45038 0.365455,-0.89842 0.583623,-1.33137 0.132395,-0.27123 0.269507,-0.54052 0.416851,-0.80398 1.26777,-2.53554 2.463035,-1.93791 1.195263,0.59764 z"
       inkscape:connector-curvature="0" />
    <path
       style="opacity:1;fill:#000000;fill-opacity:1;fill-rule:nonzero;stroke:#000000;stroke-width:0.1;stroke-linecap:round;stroke-linejoin:round;stroke-miterlimit:4;stroke-dasharray:none;stroke-dashoffset:0;stroke-opacity:1;paint-order:markers fill stroke"
       id="path4495"
       d="m 28.920461,250.89601 c 0.240374,0.01 0.479054,-0.0104 0.718288,-0.0304 0.36594,-0.0318 0.732536,-0.0549 1.099259,-0.0754 0.448979,-0.0244 0.898393,-0.0393 1.347803,-0.0529 0.547807,-0.0163 1.095772,-0.0262 1.643732,-0.0355 0.641133,-0.009 1.281335,-0.0513 1.92168,-0.0826 0.723101,-0.0329 1.444635,-0.0934 2.166831,-0.14178 0.765556,-0.0477 1.529115,-0.12245 2.293776,-0.18251 0.781648,-0.0511 1.562145,-0.11379 2.34237,-0.18307 0.769808,-0.0667 1.540449,-0.12086 2.309532,-0.1956 0.756891,-0.0762 1.514845,-0.14053 2.273292,-0.1989 0.733991,-0.0453 1.466665,-0.10417 2.199097,-0.16954 0.707393,-0.0645 1.415582,-0.11946 2.124234,-0.16806 0.686152,-0.0469 1.372955,-0.0829 2.0599,-0.11566 0.675011,-0.0222 1.348746,-0.062 2.022383,-0.10933 0.704252,-0.0502 1.409091,-0.0912 2.114195,-0.12717 0.73488,-0.0372 1.470221,-0.0638 2.205625,-0.088 0.762445,-0.0243 1.525061,-0.0426 2.287704,-0.0593 0.747461,-0.0308 1.494306,-0.0746 2.241484,-0.11148 0.731636,-0.0361 1.463609,-0.0645 2.195666,-0.0904 0.699629,-0.0215 1.399137,-0.0518 2.099159,-0.0536 0.667768,0.006 1.3354,0.0223 2.003054,0.0355 0.621308,0.0123 1.242658,0.0223 1.864019,0.0314 0.616921,0.009 1.233866,0.0153 1.850816,0.0214 0.610291,0.006 1.220594,0.0104 1.830901,0.0144 0.614346,0.004 1.228698,0.007 1.843053,0.01 0.62833,-0.0134 1.256226,-0.0421 1.884254,-0.0652 0.666628,-0.0242 1.333439,-0.0426 2.000297,-0.0589 0.696386,-0.0143 1.391606,-0.0621 2.087081,-0.0987 0.750417,-0.0388 1.501278,-0.0679 2.252216,-0.0944 0.7655,-0.0236 1.53086,-0.0428 2.295694,-0.083 0.792443,-0.0452 1.585174,-0.0849 2.378131,-0.11985 0.775803,-0.0486 1.550963,-0.10669 2.326708,-0.15633 0.748745,-0.0365 1.495288,-0.10392 2.242228,-0.16565 0.709623,-0.0575 1.419875,-0.10397 2.128668,-0.17111 0.675156,-0.0671 1.350975,-0.12697 2.027282,-0.18116 0.632817,-0.0502 1.266357,-0.0902 1.900087,-0.12679 0.59288,-0.0304 1.18361,-0.0923 1.77498,-0.14311 0.59184,-0.0368 1.18503,-0.0444 1.77779,-0.0543 0.55494,-0.0241 1.1092,-0.0615 1.66376,-0.0927 0.55745,-0.0313 1.11525,-0.0556 1.67314,-0.0777 0.56148,-0.0222 1.12318,-0.0382 1.68491,-0.0527 0.60515,-0.0151 1.21039,-0.0257 1.81565,-0.0355 0.63987,-0.01 1.27977,-0.0172 1.91968,-0.0239 0.65912,-0.007 1.31825,-0.0116 1.97738,-0.0161 0.67163,-0.005 1.34326,-0.008 2.01489,-0.0109 0.68098,-0.003 1.36197,-0.005 2.04295,-0.007 0.68566,-0.002 1.37132,-0.004 2.05698,-0.005 0.69812,-0.001 1.39625,-0.002 2.09437,-0.003 0.7198,-7.9e-4 1.43959,-0.002 2.15939,-0.002 0.73354,-5.3e-4 1.46708,-10e-4 2.20062,-0.002 0.74437,-5.3e-4 1.48875,-8e-4 2.23312,-0.001 0.75982,-0.003 1.51931,-0.004 2.27882,0.0191 0.78311,0.0273 1.56624,0.0535 2.34951,0.0759 0.80839,0.023 1.61693,0.0397 2.42549,0.0552 0.8283,0.0155 1.65668,0.0269 2.48506,0.0374 0.83747,0.0214 1.67485,-0.001 2.51207,-0.0208 0.83321,-0.0207 1.66649,-0.0379 2.4998,-0.0538 0.80153,-0.015 1.6031,-0.0267 2.40469,-0.0375 0.76034,-0.0101 1.5207,-0.0181 2.28106,-0.0253 0.72307,-0.007 1.44616,-0.0122 2.16925,-0.017 0.68078,-0.002 1.36124,-0.003 2.04154,-0.0305 0.66056,-0.0302 1.3212,-0.0586 1.98196,-0.0842 0.65785,-0.0246 1.31588,-0.0439 1.97396,-0.0611 0.65739,-0.017 1.31488,-0.0297 1.97238,-0.0413 0.66811,-0.0114 1.33626,-0.02 2.00441,-0.0278 0.66212,-0.008 1.32425,-0.0135 1.98639,-0.0188 0.65035,-0.005 1.30071,-0.009 1.95108,-0.0127 0.62852,0.008 1.25613,-0.0252 1.88371,-0.054 0.63038,-0.0295 1.26095,-0.0548 1.89163,-0.0768 0.63612,-0.0219 1.27241,-0.0382 1.90872,-0.053 0.6411,-0.0307 1.2816,-0.0725 1.92249,-0.10712 0.67884,-0.0367 1.35815,-0.0636 2.03754,-0.0877 0.71212,-0.0281 1.42494,-0.0349 2.13688,-0.0668 0.75476,-0.0408 1.50953,-0.0811 2.26457,-0.11636 0.78686,-0.0359 1.57411,-0.0625 2.3614,-0.0866 0.8032,-0.0245 1.60658,-0.0421 2.40998,-0.0585 0.81349,-0.0315 1.62647,-0.0749 2.43977,-0.11113 0.83189,-0.0365 1.66411,-0.0644 2.4964,-0.09 0.83554,-0.0251 1.67124,-0.0439 2.50697,-0.061 0.82766,-0.0167 1.65539,-0.0295 2.48313,-0.0411 0.80786,-0.0112 1.61574,-0.0199 2.42363,-0.0277 0.80285,-0.008 1.60572,-0.0134 2.40858,-0.0187 0.79557,-0.0204 1.59068,-0.0555 2.38596,-0.0845 0.78878,-0.029 1.57778,-0.0512 2.36682,-0.0718 0.76778,-0.0226 1.53533,-0.039 2.3034,-0.0293 0.74475,0.0136 1.48945,0.0298 2.23419,0.0436 0.72384,0.0135 1.44773,0.024 2.17164,0.0334 0.72701,0.009 1.45406,0.0163 2.1811,0.0226 0.74748,0.0211 1.4944,0.058 2.24156,0.0881 0.74005,0.0296 1.48035,0.0524 2.22069,0.0731 0.74118,0.0202 1.48247,0.0356 2.22379,0.0497 0.7245,0.0133 1.44904,0.024 2.1736,0.0336 0.68339,0.0203 1.36659,-0.002 2.04962,-0.0232 0.64523,-0.0208 1.29053,-0.039 1.93588,-0.0555 0.4371,-0.01 0.87612,-0.0271 1.3067,-0.10704 0.10808,-0.0211 0.20765,-0.0598 0.28259,-0.13137 -0.0279,0.0168 -0.0466,0.0147 -0.0471,0.015 -0.0539,-0.0408 -0.12349,-0.24985 -0.15786,-0.34805 -0.14407,-0.38598 -0.0334,-0.73339 0.22191,-1.037 0.2377,-0.23008 0.54275,-0.31928 0.85865,-0.3783 0.32879,-0.0662 0.66208,-0.056 0.99407,-0.0282 0.39483,0.0389 0.77338,0.15174 1.14265,0.29177 0.42726,0.16806 0.75723,0.45479 1.00591,0.83468 0.2453,0.47384 0.18979,0.96291 0.043,1.45475 -0.17769,0.47948 -0.45925,0.90825 -0.75502,1.32166 -0.28606,0.40362 -0.59093,0.79394 -0.90468,1.17634 -1.79882,2.191 -2.83167,1.34303 -1.03285,-0.84797 v 0 c 0.29559,-0.35977 0.58248,-0.72729 0.85166,-1.1073 0.21329,-0.2964 0.41853,-0.60103 0.5642,-0.93753 0.0399,-0.12099 0.0796,-0.24587 0.0895,-0.36967 -0.0626,-0.13585 -0.20822,-0.21593 -0.34146,-0.27773 -0.25058,-0.0985 -0.50765,-0.1765 -0.77614,-0.20747 -0.21445,-0.0187 -0.42888,-0.0336 -0.6416,0.0115 -0.0277,0.005 -0.20244,0.0631 -0.13815,-0.007 0.0576,-0.0904 0.0912,-0.46885 0.0875,-0.31145 0.0606,0.2568 0.25053,0.48349 0.22508,0.76495 -0.0125,0.35775 -0.10432,0.6867 -0.36247,0.94941 -0.2779,0.2516 -0.59998,0.4136 -0.97069,0.48343 -0.49873,0.089 -1.005,0.11988 -1.51123,0.12809 -0.64302,0.0164 -1.286,0.0346 -1.9289,0.0553 -0.7026,0.0216 -1.40539,0.0442 -2.10836,0.0237 -0.72717,-0.01 -1.45433,-0.0203 -2.18144,-0.0337 -0.74529,-0.0142 -1.49055,-0.0297 -2.2357,-0.05 -0.74579,-0.0209 -1.49154,-0.0439 -2.23703,-0.0737 -0.73315,-0.0295 -1.46607,-0.0655 -2.19951,-0.0871 -0.72895,-0.006 -1.4579,-0.0134 -2.18683,-0.0227 -0.72637,-0.009 -1.45273,-0.02 -2.17904,-0.0336 -0.74214,-0.0138 -1.48422,-0.0299 -2.22636,-0.0435 -0.75078,-0.01 -1.50105,0.007 -2.25155,0.0289 -0.78442,0.0205 -1.56881,0.0426 -2.35299,0.0714 -0.80858,0.0295 -1.61697,0.0654 -2.42586,0.0853 -0.80146,0.005 -1.60291,0.011 -2.40435,0.0187 -0.806,0.008 -1.61199,0.0165 -2.41795,0.0277 -0.82485,0.0115 -1.64968,0.0243 -2.47444,0.041 -0.83117,0.017 -1.66232,0.0357 -2.4933,0.0607 -0.82613,0.0254 -1.65219,0.0531 -2.47793,0.0893 -0.82406,0.0367 -1.64778,0.0809 -2.47206,0.11217 -0.79882,0.0163 -1.59763,0.0339 -2.39625,0.0582 -0.78018,0.0239 -1.56031,0.0503 -2.34006,0.0858 -0.75605,0.0353 -1.51182,0.0758 -2.26759,0.11651 -0.71597,0.0315 -1.43273,0.0396 -2.14888,0.0673 -0.67109,0.0238 -1.3421,0.0503 -2.01266,0.0866 -0.65457,0.0354 -1.30873,0.0785 -1.96357,0.1087 -0.63114,0.0147 -1.26225,0.0308 -1.8932,0.0525 -0.62574,0.0218 -1.25137,0.0469 -1.87681,0.0762 -0.6456,0.0297 -1.29126,0.0632 -1.93782,0.0554 -0.64925,0.004 -1.29849,0.007 -1.94772,0.0126 -0.6605,0.005 -1.321,0.0111 -1.98148,0.0187 -0.6655,0.008 -1.33099,0.0164 -1.99644,0.0277 -0.6537,0.0115 -1.30739,0.0242 -1.96098,0.041 -0.65251,0.0171 -1.30497,0.0363 -1.95726,0.0606 -0.6603,0.0255 -1.32047,0.0539 -1.98057,0.0841 -0.69497,0.0275 -1.3901,0.0294 -2.08556,0.0315 -0.72188,0.005 -1.44374,0.0103 -2.1656,0.017 -0.7586,0.007 -1.51719,0.0151 -2.27575,0.0252 -0.79912,0.0107 -1.59822,0.0224 -2.39727,0.0373 -0.83128,0.0158 -1.66253,0.033 -2.4937,0.0536 -0.85333,0.0201 -1.70682,0.0427 -2.56039,0.0211 -0.8313,-0.0105 -1.6626,-0.0219 -2.49383,-0.0375 -0.81276,-0.0156 -1.62551,-0.0324 -2.4381,-0.0555 -0.784,-0.0224 -1.56786,-0.0487 -2.3517,-0.076 -0.74587,-0.0226 -1.49173,-0.0215 -2.23791,-0.0185 -0.74429,2.7e-4 -1.48858,5.3e-4 -2.23286,0.001 -0.73342,5.3e-4 -1.46683,7.9e-4 -2.20024,0.002 -0.71959,5.3e-4 -1.43918,0.001 -2.15877,0.002 -0.69782,0.001 -1.39565,0.002 -2.09346,0.003 -0.68521,0.001 -1.37042,0.003 -2.05563,0.005 -0.68033,0.002 -1.36066,0.004 -2.04098,0.007 -0.67059,0.003 -1.34118,0.006 -2.01177,0.0109 -0.65755,0.005 -1.31509,0.01 -1.97262,0.0161 -0.63734,0.007 -1.27468,0.0138 -1.91198,0.0238 -0.60098,0.01 -1.20194,0.0203 -1.80281,0.0352 -0.55558,0.0143 -1.11112,0.0301 -1.66645,0.0521 -0.55045,0.0218 -1.10082,0.0458 -1.65085,0.0767 -0.57213,0.0322 -1.14393,0.0713 -1.71651,0.0946 -0.56211,0.009 -1.12457,0.0167 -1.6859,0.0496 -0.60382,0.0518 -1.20699,0.11486 -1.81235,0.14578 -0.6238,0.036 -1.24743,0.0753 -1.87033,0.12475 -0.669888,0.0537 -1.339284,0.11301 -2.008032,0.17948 -0.714094,0.0676 -1.429615,0.1149 -2.144559,0.17251 -0.755181,0.0624 -1.509985,0.13042 -2.266981,0.16747 -0.784546,0.0502 -1.56848,0.10928 -2.353128,0.15776 -0.78922,0.0348 -1.578216,0.0743 -2.366923,0.11931 -0.772498,0.0405 -1.545505,0.0605 -2.318678,0.084 -0.743278,0.0262 -1.486485,0.055 -2.22925,0.0934 -0.707961,0.0372 -1.415661,0.0857 -2.124559,0.10011 -0.661318,0.0161 -1.322586,0.0344 -1.983671,0.0584 -0.646406,0.0238 -1.292675,0.0538 -1.93943,0.0661 -0.615326,-0.003 -1.230651,-0.006 -1.845969,-0.01 -0.611751,-0.004 -1.2235,-0.008 -1.835235,-0.0145 -0.61908,-0.006 -1.238154,-0.0127 -1.8572,-0.0215 -0.623652,-0.009 -1.247288,-0.0192 -1.870885,-0.0316 -0.657966,-0.013 -1.315905,-0.0289 -1.973979,-0.0352 -0.685139,8e-4 -1.36978,0.0326 -2.054548,0.0527 -0.725855,0.0257 -1.451626,0.0538 -2.177066,0.0896 -0.759388,0.0375 -1.51843,0.0823 -2.278144,0.11279 -0.75774,0.0165 -1.515454,0.0347 -2.272996,0.0589 -0.727332,0.0239 -1.454602,0.0502 -2.181418,0.087 -0.696603,0.0355 -1.392941,0.076 -2.088703,0.12562 -0.683604,0.048 -1.367335,0.0884 -2.05232,0.1111 -0.67769,0.0323 -1.355238,0.0678 -2.032143,0.11404 -0.699516,0.048 -1.398574,0.10218 -2.096846,0.1659 -0.737854,0.0659 -1.475963,0.12527 -2.215386,0.1709 -0.749543,0.0577 -1.498594,0.12129 -2.246595,0.19658 -0.772761,0.075 -1.54704,0.12991 -2.320544,0.19662 -0.784746,0.0697 -1.569773,0.13276 -2.355948,0.18421 -0.769768,0.0604 -1.53842,0.13567 -2.309098,0.18362 -0.730248,0.0489 -1.459831,0.11002 -2.191004,0.14318 -0.654521,0.0319 -1.308891,0.0749 -1.96423,0.084 -0.542015,0.009 -1.084035,0.0189 -1.625899,0.035 -0.43807,0.0133 -0.876146,0.0277 -1.313799,0.0514 -0.354462,0.0198 -0.7088,0.042 -1.062503,0.0728 -0.276095,0.023 -0.55213,0.0439 -0.82945,0.035 -2.834822,0 -2.834822,-1.33635 0,-1.33635 z"
       inkscape:connector-curvature="0" />
    <path
       style="opacity:1;fill:#000000;fill-opacity:1;fill-rule:nonzero;stroke:#000000;stroke-width:0.1;stroke-linecap:round;stroke-linejoin:round;stroke-miterlimit:4;stroke-dasharray:none;stroke-dashoffset:0;stroke-opacity:1;paint-order:markers fill stroke"
       id="path4505"
       d="m 55.19235,150.22989 c 0.0281,0.28186 0.06957,0.56164 0.109328,0.84204 0.07228,0.4279 0.148,0.85501 0.238295,1.27951 0.114437,0.56346 0.261847,1.11891 0.409776,1.67422 0.180917,0.68899 0.415176,1.36215 0.640768,2.03736 0.267118,0.79891 0.568364,1.58566 0.87735,2.36912 0.343998,0.89227 0.746117,1.75999 1.148252,2.62705 0.438235,0.95151 0.918445,1.88282 1.409351,2.80799 0.528952,0.98716 1.101352,1.94944 1.690468,2.90156 0.622958,0.99336 1.273058,1.96915 1.924309,2.94406 0.683445,1.01218 1.387753,2.01008 2.107755,2.99654 0.732462,1.00688 1.472923,2.00783 2.227885,2.99796 0.760539,0.99393 1.537829,1.97471 2.31418,2.95627 0.772962,0.9799 1.575425,1.93583 2.38197,2.88809 0.808215,0.95359 1.63994,1.8868 2.472828,2.81879 0.828188,0.91465 1.675815,1.81178 2.543807,2.68872 0.858012,0.8711 1.74367,1.71355 2.631347,2.55408 0.875943,0.82782 1.777664,1.62749 2.699647,2.40351 0.929394,0.77028 1.878219,1.51647 2.82647,2.26324 0.936929,0.74314 1.903201,1.44766 2.880815,2.13598 0.97809,0.68003 1.949317,1.36957 2.935155,2.03842 0.970989,0.65919 1.962097,1.28717 2.970152,1.88787 0.98915,0.58434 1.981057,1.16333 2.988558,1.71551 0.983986,0.5389 1.990797,1.0347 2.999054,1.52618 0.98028,0.46194 1.96615,0.91218 2.96126,1.34127 0.93999,0.41425 1.89675,0.7893 2.85946,1.1471 0.89817,0.34329 1.81231,0.64163 2.72693,0.93741 0.85157,0.27535 1.71798,0.49946 2.58875,0.70444 0.81499,0.19044 1.63818,0.34224 2.4633,0.48111 0.78623,0.12539 1.57462,0.23924 2.36713,0.31648 0.75115,0.065 1.50416,0.10569 2.25705,0.14411 0.72673,0.0362 1.45538,0.0399 2.18275,0.0231 0.73701,-0.0156 1.47232,-0.0624 2.20753,-0.11342 0.74971,-0.0614 1.49644,-0.15482 2.24124,-0.25931 0.75417,-0.10519 1.50331,-0.24389 2.24881,-0.39836 0.76799,-0.15759 1.53168,-0.336 2.29205,-0.52687 0.77912,-0.18193 1.5408,-0.42641 2.30302,-0.6673 0.79409,-0.25407 1.57767,-0.53862 2.36068,-0.82449 0.76363,-0.28798 1.51827,-0.60007 2.26908,-0.91987 0.75106,-0.33234 1.4928,-0.68568 2.23185,-1.04383 0.7417,-0.36226 1.46647,-0.75724 2.18578,-1.1617 0.72587,-0.4108 1.43327,-0.85175 2.12931,-1.31084 0.7206,-0.48174 1.42997,-0.97991 2.14069,-1.476 0.72772,-0.50316 1.43512,-1.03465 2.14484,-1.56264 0.74402,-0.54768 1.47761,-1.10962 2.2041,-1.68033 0.75023,-0.59141 1.49116,-1.19444 2.23038,-1.79954 0.74809,-0.60804 1.4714,-1.24519 2.19664,-1.88001 0.7144,-0.64363 1.42615,-1.29018 2.11786,-1.95823 0.68823,-0.66986 1.3598,-1.35654 2.02707,-2.04718 0.64464,-0.67295 1.24822,-1.38329 1.85497,-2.09008 0.60305,-0.70569 1.18506,-1.42876 1.76326,-2.1548 0.58518,-0.73619 1.14924,-1.4886 1.70572,-2.24659 0.57001,-0.78289 1.12281,-1.57798 1.67108,-2.37618 0.55143,-0.79089 1.06633,-1.60635 1.58573,-2.41839 0.52718,-0.81006 1.03317,-1.63301 1.53001,-2.46191 0.504,-0.83203 0.98856,-1.67514 1.46679,-2.52216 0.47722,-0.84191 0.92896,-1.69785 1.37163,-2.55832 0.43691,-0.84547 0.85028,-1.70279 1.25127,-2.56579 0.386,-0.83099 0.75245,-1.67089 1.10958,-2.51464 0.35077,-0.83286 0.69235,-1.66957 1.03358,-2.50637 0.33495,-0.82629 0.65687,-1.65771 0.97793,-2.48945 0.31358,-0.81823 0.61716,-1.6402 0.92121,-2.46199 0.29861,-0.81286 0.58984,-1.62838 0.8824,-2.44342 0.3047,-0.82673 0.59679,-1.65807 0.90706,-2.48273 0.29601,-0.80728 0.6094,-1.60806 0.8963,-2.41865 0.28576,-0.78358 0.55576,-1.57254 0.82351,-2.36238 0.26387,-0.76878 0.51309,-1.54232 0.76143,-2.31621 0.2462,-0.75572 0.48998,-1.51241 0.7159,-2.27447 0.22989,-0.75382 0.45714,-1.50842 0.68441,-2.26303 0.22177,-0.74307 0.42838,-1.49051 0.64005,-2.23648 0.20674,-0.74529 0.40525,-1.49278 0.60529,-2.23989 0.19645,-0.74041 0.38087,-1.48407 0.55803,-2.22933 0.17642,-0.73922 0.33902,-1.48153 0.50635,-2.22281 0.1664,-0.72334 0.30901,-1.45181 0.46038,-2.17839 0.14787,-0.69621 0.26836,-1.39756 0.37766,-2.10071 0.0967,-0.69874 0.2079,-1.39531 0.30826,-2.09352 0.0983,-0.68822 0.17548,-1.3792 0.24496,-2.07084 0.0661,-0.67303 0.11869,-1.34727 0.16714,-2.02176 0.0295,-0.6215 0.0335,-1.24388 0.0399,-1.86594 0.001,-0.10216 0.002,-0.20431 0.003,-0.30646 0.0261,-2.8347 1.36239,-2.8224 1.33629,0.0123 v 0 c -0.001,0.10268 -0.002,0.20535 -0.003,0.30802 -0.007,0.64939 -0.0108,1.29913 -0.0433,1.94786 -0.0494,0.68713 -0.10298,1.37401 -0.17041,2.05964 -0.0715,0.71052 -0.15082,1.42036 -0.25186,2.12736 -0.10114,0.70327 -0.21304,1.4049 -0.31053,2.1087 -0.1129,0.72563 -0.23735,1.44941 -0.38988,2.16791 -0.15289,0.73385 -0.29697,1.46961 -0.46511,2.2002 -0.16857,0.74617 -0.33214,1.49344 -0.50978,2.23757 -0.18014,0.75746 -0.36752,1.51333 -0.56726,2.26586 -0.20179,0.75351 -0.40198,1.50743 -0.61058,2.25909 -0.21371,0.75281 -0.42213,1.50715 -0.64606,2.25701 -0.22675,0.75283 -0.4534,1.50567 -0.68281,2.25769 -0.22899,0.77145 -0.47516,1.53771 -0.72463,2.30275 -0.25058,0.78081 -0.5021,1.56125 -0.76827,2.33692 -0.26971,0.79554 -0.54164,1.59022 -0.82943,2.37947 -0.29012,0.81871 -0.60588,1.62791 -0.90528,2.44324 -0.30805,0.8182 -0.59743,1.64325 -0.89999,2.46349 -0.29403,0.81912 -0.58672,1.63872 -0.88685,2.45564 -0.30622,0.82765 -0.61199,1.65548 -0.92784,2.47952 -0.32408,0.83956 -0.64907,1.67877 -0.98719,2.51281 -0.34346,0.84227 -0.68731,1.68443 -1.04038,2.52273 -0.36321,0.85789 -0.73578,1.71193 -1.12833,2.55687 -0.40862,0.87916 -0.82969,1.75262 -1.27484,2.61396 -0.45062,0.87583 -0.91052,1.74702 -1.39626,2.60399 -0.48393,0.8571 -0.97437,1.7102 -1.48426,2.55219 -0.50353,0.83999 -1.01635,1.67393 -1.55046,2.49491 -0.52728,0.82437 -1.05023,1.65204 -1.60998,2.45498 -0.55622,0.80971 -1.11706,1.61627 -1.6954,2.41041 -0.56687,0.77203 -1.14145,1.53838 -1.73755,2.28821 -0.58843,0.73889 -1.18088,1.47463 -1.79465,2.19276 -0.62382,0.72667 -1.24476,1.45664 -1.90789,2.14818 -0.67805,0.70176 -1.36051,1.39945 -2.05992,2.08001 -0.70757,0.68293 -1.43494,1.34462 -2.16587,2.00239 -0.73632,0.64452 -1.47087,1.2912 -2.23037,1.90856 -0.74616,0.61076 -1.49408,1.2194 -2.25135,1.81635 -0.73574,0.57786 -1.47854,1.14699 -2.23195,1.70163 -0.72053,0.53601 -1.43881,1.07543 -2.17761,1.58625 -0.72035,0.5028 -1.43935,1.00768 -2.16982,1.49577 -0.72245,0.4764 -1.45677,0.93387 -2.21016,1.36013 -0.74305,0.41766 -1.49177,0.82546 -2.25797,1.19945 -0.7586,0.36749 -1.51985,0.73026 -2.291,1.07073 -0.7724,0.3288 -1.54861,0.64995 -2.33432,0.94565 -0.80141,0.29259 -1.6035,0.58353 -2.41629,0.84341 -0.78785,0.24899 -1.57539,0.50079 -2.38057,0.68927 -0.77847,0.19515 -1.56017,0.37808 -2.34641,0.53931 -0.77388,0.15994 -1.55137,0.30419 -2.33422,0.41316 -0.77566,0.1085 -1.55329,0.20593 -2.33412,0.26902 -0.75595,0.0524 -1.51206,0.10018 -2.26987,0.11628 -0.76015,0.0168 -1.52156,0.0139 -2.28103,-0.0245 -0.77369,-0.0395 -1.5475,-0.0814 -2.31935,-0.14876 -0.82304,-0.0812 -1.6421,-0.19746 -2.45859,-0.32864 -0.85343,-0.14376 -1.70483,-0.30102 -2.54776,-0.49816 -0.90607,-0.21349 -1.80755,-0.44706 -2.69364,-0.73369 -0.93288,-0.30174 -1.86519,-0.60633 -2.78136,-0.95633 -0.98406,-0.36593 -1.96213,-0.74924 -2.92307,-1.17262 -1.01398,-0.43749 -2.0188,-0.8959 -3.01754,-1.36711 -1.027407,-0.50084 -2.053199,-1.00632 -3.055827,-1.55556 -1.021535,-0.55999 -2.027491,-1.14677 -3.030397,-1.73943 -1.030415,-0.61423 -2.043726,-1.25603 -3.0363,-1.92996 -0.992193,-0.67326 -1.969852,-1.36709 -2.954229,-2.05162 -0.997056,-0.70215 -1.982576,-1.42079 -2.938224,-2.17875 -0.959679,-0.75577 -1.919883,-1.51102 -2.860313,-2.29079 -0.941723,-0.79295 -1.86309,-1.60967 -2.757831,-2.45547 -0.898181,-0.85049 -1.794188,-1.70307 -2.662399,-2.58445 -0.883738,-0.89323 -1.747221,-1.80655 -2.590364,-2.73822 -0.840769,-0.94082 -1.680276,-1.88295 -2.496126,-2.84558 -0.816208,-0.96366 -1.628135,-1.93116 -2.410376,-2.92279 -0.781248,-0.98777 -1.563409,-1.97478 -2.328738,-2.97502 -0.760582,-0.99758 -1.506699,-2.00596 -2.244635,-3.02041 -0.730813,-1.00146 -1.445879,-2.01442 -2.139526,-3.04203 -0.659879,-0.98782 -1.31848,-1.97662 -1.949519,-2.98326 -0.604584,-0.97724 -1.191784,-1.96507 -1.734521,-2.97833 -0.502034,-0.94627 -0.992942,-1.89891 -1.441188,-2.87209 -0.4131,-0.89076 -0.82558,-1.78247 -1.179119,-2.69905 -0.317605,-0.80553 -0.627107,-1.61449 -0.901652,-2.4359 -0.234336,-0.70146 -0.476983,-1.40098 -0.664601,-2.11683 -0.1538,-0.57739 -0.306457,-1.1551 -0.425718,-1.74089 -0.09614,-0.45435 -0.178091,-0.91127 -0.254172,-1.36938 -0.03961,-0.27985 -0.08144,-0.55917 -0.109109,-0.8405 -0.400904,-2.80633 0.922012,-2.99531 1.322917,-0.18898 z"
       inkscape:connector-curvature="0" />
    <path
       style="opacity:1;fill:#da03ae;fill-opacity:1;fill-rule:nonzero;stroke:#da03ae;stroke-width:0.1;stroke-linecap:round;stroke-linejoin:round;stroke-miterlimit:4;stroke-dasharray:none;stroke-dashoffset:0;stroke-opacity:1;paint-order:markers fill stroke"
       id="path4547"
       d="m 139.23152,204.87883 c -0.16408,0.0985 -0.32011,0.20992 -0.4774,0.31909 -0.18991,0.12946 -0.34411,0.29384 -0.47905,0.47807 -0.13195,0.18626 -0.20413,0.40406 -0.24516,0.62667 -0.0348,0.18859 -0.0276,0.38311 0.0284,0.56671 0.0467,0.12273 0.13581,0.21665 0.23834,0.29521 0.13121,0.1023 0.28735,0.1307 0.44696,0.15699 0.22274,0.0245 0.44468,0.004 0.66259,-0.0437 0.29274,-0.0781 0.56561,-0.21424 0.82914,-0.36107 0.28802,-0.16584 0.53569,-0.38272 0.75894,-0.62675 0.16278,-0.19033 0.30101,-0.40242 0.37336,-0.64345 0.0347,-0.11256 0.0539,-0.22196 -0.001,-0.32735 -0.0667,-0.0842 -0.15721,-0.14321 -0.24697,-0.19978 -0.15695,-0.0795 -0.32736,-0.0899 -0.50023,-0.0898 -0.21268,0.007 -0.40002,0.0958 -0.58166,0.19793 -0.13446,0.0895 -0.069,0.0423 -0.19638,0.14168 -2.26135,1.70954 -3.06723,0.64353 -0.80588,-1.06601 v 0 c 0.23564,-0.17504 0.11504,-0.0923 0.36171,-0.2485 0.38998,-0.20941 0.80073,-0.36267 1.25031,-0.36115 0.42646,0.0134 0.84263,0.0813 1.21094,0.3123 0.32895,0.22328 0.6179,0.48758 0.76757,0.86642 0.1283,0.39951 0.14565,0.79855 0.008,1.20101 -0.14655,0.4159 -0.36143,0.79755 -0.65983,1.12532 -0.3229,0.34505 -0.67862,0.65454 -1.09241,0.88771 -0.38255,0.21015 -0.77969,0.40074 -1.20703,0.50057 -0.38416,0.0756 -0.77403,0.10947 -1.1638,0.0505 -0.39181,-0.072 -0.76553,-0.19352 -1.07717,-0.45252 -0.30722,-0.26829 -0.55617,-0.58325 -0.66962,-0.98248 -0.0926,-0.38468 -0.12506,-0.77771 -0.0433,-1.16873 0.0895,-0.41446 0.2298,-0.81566 0.48524,-1.1598 0.22475,-0.29542 0.47785,-0.5642 0.78652,-0.77423 0.20954,-0.14515 0.41759,-0.29298 0.64124,-0.41618 2.53554,-1.26777 3.13317,-0.0725 0.59763,1.19526 z"
       inkscape:connector-curvature="0" />
    <path
       style="opacity:1;fill:#000000;fill-opacity:1;fill-rule:nonzero;stroke:#000000;stroke-width:0.1;stroke-linecap:round;stroke-linejoin:round;stroke-miterlimit:4;stroke-dasharray:none;stroke-dashoffset:0;stroke-opacity:1;paint-order:markers fill stroke"
       id="path4549"
       d="m 140.18287,210.99457 c 0,0.25795 0,0.51591 0,0.77387 -0.004,0.26374 0.024,0.52675 0.0442,0.78944 0.21769,2.82645 -1.11471,2.92907 -1.3324,0.10262 v 0 c -0.0229,-0.29683 -0.0526,-0.59402 -0.0482,-0.89206 0,-0.25796 0,-0.51592 0,-0.77387 0,-2.83483 1.33635,-2.83483 1.33635,0 z"
       inkscape:connector-curvature="0" />
    <path
       style="opacity:1;fill:#000000;fill-opacity:1;fill-rule:nonzero;stroke:#000000;stroke-width:0.1;stroke-linecap:round;stroke-linejoin:round;stroke-miterlimit:4;stroke-dasharray:none;stroke-dashoffset:0;stroke-opacity:1;paint-order:markers fill stroke"
       id="path4551"
       d="m 140.18287,220.349 c 0,0.067 0,0.13389 0,0.20083 0,2.83483 -1.33635,2.83483 -1.33635,0 v 0 c 0,-0.0669 0,-0.13388 0,-0.20083 0,-2.83482 1.33635,-2.83482 1.33635,0 z"
       inkscape:connector-curvature="0" />
    <path
       style="opacity:1;fill:#000000;fill-opacity:1;fill-rule:nonzero;stroke:#000000;stroke-width:0.1;stroke-linecap:round;stroke-linejoin:round;stroke-miterlimit:4;stroke-dasharray:none;stroke-dashoffset:0;stroke-opacity:1;paint-order:markers fill stroke"
       id="path4553"
       d="m 140.71741,227.56528 c 0,0.20547 0,0.41094 0,0.61642 0,2.83482 -1.33635,2.83482 -1.33635,0 v 0 c 0,-0.20548 0,-0.41095 0,-0.61642 0,-2.83482 1.33635,-2.83482 1.33635,0 z"
       inkscape:connector-curvature="0" />
    <path
       style="opacity:1;fill:#000000;fill-opacity:1;fill-rule:nonzero;stroke:#000000;stroke-width:0.1;stroke-linecap:round;stroke-linejoin:round;stroke-miterlimit:4;stroke-dasharray:none;stroke-dashoffset:0;stroke-opacity:1;paint-order:markers fill stroke"
       id="path4555"
       d="m 140.45133,234.41979 c 0.0485,0.28876 0.0523,0.58059 0.0506,0.87251 -0.003,0.23698 0.001,0.11271 -0.0136,0.37277 -0.17127,2.82964 -1.50518,2.7489 -1.33391,-0.0807 v 0 c 0.0128,-0.19297 0.009,-0.0929 0.0112,-0.30032 0.002,-0.22609 0.003,-0.45165 -0.0372,-0.67523 -0.4009,-2.80633 0.92201,-2.99532 1.32292,-0.18899 z"
       inkscape:connector-curvature="0" />
    <path
       style="opacity:1;fill:#000000;fill-opacity:1;fill-rule:nonzero;stroke:#000000;stroke-width:0.1;stroke-linecap:round;stroke-linejoin:round;stroke-miterlimit:4;stroke-dasharray:none;stroke-dashoffset:0;stroke-opacity:1;paint-order:markers fill stroke"
       id="path4557"
       d="m 140.45013,243.06691 c 0,0.25796 0,0.51591 0,0.77387 0.01,0.37609 -0.009,0.751 -0.0342,1.12606 -0.005,0.0663 -0.009,0.13252 -0.0135,0.19878 -0.19242,2.82829 -1.52569,2.73758 -1.33327,-0.0907 v 0 c 0.005,-0.0661 0.009,-0.13228 0.0135,-0.19843 0.0234,-0.34503 0.041,-0.68967 0.0311,-1.0357 0,-0.25796 0,-0.51591 0,-0.77387 0,-2.83482 1.33634,-2.83482 1.33634,0 z"
       inkscape:connector-curvature="0" />
    <path
       style="opacity:1;fill:#000000;fill-opacity:1;fill-rule:nonzero;stroke:#000000;stroke-width:0.1;stroke-linecap:round;stroke-linejoin:round;stroke-miterlimit:4;stroke-dasharray:none;stroke-dashoffset:0;stroke-opacity:1;paint-order:markers fill stroke"
       id="path4559"
       d="m 138.76593,253.64642 c 0.13161,0.21258 0.27944,0.41524 0.42561,0.61811 0.23008,0.31901 0.46547,0.63417 0.69676,0.95229 0.27165,0.36263 0.54289,0.72582 0.81777,1.08605 0.14978,0.19436 0.29206,0.39334 0.42982,0.59631 1.5853,2.35011 0.47745,3.09743 -1.10785,0.74732 v 0 c -0.12209,-0.18246 -0.25166,-0.35885 -0.38474,-0.53348 -0.28078,-0.36866 -0.55866,-0.7397 -0.83617,-1.11077 -0.23217,-0.31988 -0.46896,-0.63641 -0.70016,-0.95699 -0.15532,-0.21595 -0.3117,-0.43226 -0.45295,-0.65757 -1.57248,-2.35871 -0.46057,-3.09999 1.11191,-0.74127 z"
       inkscape:connector-curvature="0" />
    <path
       style="opacity:1;fill:#000000;fill-opacity:1;fill-rule:nonzero;stroke:#000000;stroke-width:0.1;stroke-linecap:round;stroke-linejoin:round;stroke-miterlimit:4;stroke-dasharray:none;stroke-dashoffset:0;stroke-opacity:1;paint-order:markers fill stroke"
       id="path4561"
       d="m 141.85935,254.97935 c -0.15483,0.22207 -0.29762,0.45283 -0.44077,0.68264 -0.22117,0.35055 -0.43318,0.70689 -0.63885,1.06674 -0.23531,0.39517 -0.4728,0.78891 -0.71218,1.18161 -0.0356,0.0614 -0.0711,0.12271 -0.10669,0.18407 -1.42339,2.45157 -2.57906,1.78058 -1.15568,-0.67099 v 0 c 0.0404,-0.0696 0.0809,-0.13913 0.12135,-0.2087 0.23296,-0.38207 0.46392,-0.76525 0.69324,-1.14954 0.21435,-0.3744 0.43464,-0.74552 0.66492,-1.11036 0.17562,-0.2813 0.34788,-0.56635 0.54805,-0.83098 1.8148,-2.17777 2.84142,-1.32226 1.02661,0.85551 z"
       inkscape:connector-curvature="0" />
    <path
       style="opacity:1;fill:#000000;fill-opacity:1;fill-rule:nonzero;stroke:#000000;stroke-width:0.1;stroke-linecap:round;stroke-linejoin:round;stroke-miterlimit:4;stroke-dasharray:none;stroke-dashoffset:0;stroke-opacity:1;paint-order:markers fill stroke"
       id="path4565"
       d="m 144.97909,259.46484 c -0.0379,0.21271 -0.0387,0.42705 -0.0372,0.64218 7.9e-4,0.22678 0.0117,0.45675 0.0963,0.66927 0.0244,0.0615 0.0858,0.0723 0.10271,0.0705 -0.0815,-0.0487 0.0284,-0.0467 0.0755,-0.0805 0.0867,-0.0767 0.14411,-0.17861 0.19949,-0.2786 0.0792,-0.18972 0.11383,-0.38999 0.12593,-0.59405 0.0152,-0.24463 -0.0223,-0.48975 -0.099,-0.72186 -0.0603,-0.14184 -0.13868,-0.28425 -0.26474,-0.37766 -0.1543,-0.0838 0.0342,0.0138 -0.0457,-0.0185 -2.50502,-1.32705 -1.87945,-2.50793 0.62558,-1.18088 v 0 c 0.21238,0.1206 0.11063,0.0544 0.30542,0.19837 0.29734,0.2738 0.52774,0.59946 0.65682,0.98622 0.1168,0.39469 0.18632,0.80247 0.15407,1.21569 -0.0342,0.40267 -0.11132,0.79949 -0.30115,1.16088 -0.19182,0.32557 -0.41991,0.62366 -0.76017,0.80615 -0.36077,0.16882 -0.73681,0.25907 -1.13075,0.13991 -0.41684,-0.17225 -0.73477,-0.4529 -0.9042,-0.88081 -0.12027,-0.35778 -0.18073,-0.72647 -0.1725,-1.10512 -0.002,-0.28121 0.004,-0.56208 0.0506,-0.84021 0.4009,-2.80633 1.72382,-2.61734 1.32291,0.18899 z"
       inkscape:connector-curvature="0" />
    <path
       style="opacity:1;fill:#000000;fill-opacity:1;fill-rule:nonzero;stroke:#000000;stroke-width:0.1;stroke-linecap:round;stroke-linejoin:round;stroke-miterlimit:4;stroke-dasharray:none;stroke-dashoffset:0;stroke-opacity:1;paint-order:markers fill stroke"
       id="path4567"
       d="m 35.334929,205.72746 c 0.240374,0.01 0.479055,-0.0104 0.718288,-0.0304 0.380823,-0.0168 0.762254,-0.008 1.143289,-0.004 0.215468,-0.003 0.43049,0.0129 0.645318,0.0268 2.828804,0.18461 2.74178,1.51812 -0.08702,1.33351 v 0 c -0.190397,-0.0125 -0.380934,-0.0277 -0.571944,-0.024 -0.339445,-0.003 -0.67909,-0.0103 -1.018474,-5.3e-4 -0.276098,0.023 -0.552133,0.0439 -0.829453,0.035 -2.834822,0 -2.834822,-1.33635 0,-1.33635 z"
       inkscape:connector-curvature="0" />
    <path
       style="opacity:1;fill:#000000;fill-opacity:1;fill-rule:nonzero;stroke:#000000;stroke-width:0.1;stroke-linecap:round;stroke-linejoin:round;stroke-miterlimit:4;stroke-dasharray:none;stroke-dashoffset:0;stroke-opacity:1;paint-order:markers fill stroke"
       id="path4569"
       d="m 47.723821,204.94027 c 0.24265,0.033 0.486783,0.053 0.730856,0.0718 0.215583,0.015 0.106556,0.008 0.327078,0.0216 2.829211,0.17826 2.745179,1.51196 -0.08403,1.3337 v 0 c -0.232749,-0.0147 -0.117414,-0.007 -0.346004,-0.023 -0.272833,-0.0211 -0.545703,-0.0439 -0.816885,-0.0813 -2.80633,-0.40091 -2.61734,-1.72383 0.188989,-1.32292 z"
       inkscape:connector-curvature="0" />
    <path
       style="opacity:1;fill:#000000;fill-opacity:1;fill-rule:nonzero;stroke:#000000;stroke-width:0.1;stroke-linecap:round;stroke-linejoin:round;stroke-miterlimit:4;stroke-dasharray:none;stroke-dashoffset:0;stroke-opacity:1;paint-order:markers fill stroke"
       id="path4571"
       d="m 56.449221,205.19292 c 0.257956,0 0.515914,0 0.773869,0 0.232664,0 0.465328,0 0.697992,0 2.834823,0 2.834823,1.33635 0,1.33635 v 0 c -0.232664,0 -0.465328,0 -0.697992,0 -0.257955,0 -0.515913,0 -0.773869,0 -2.834822,0 -2.834822,-1.33635 0,-1.33635 z"
       inkscape:connector-curvature="0" />
    <path
       style="opacity:1;fill:#000000;fill-opacity:1;fill-rule:nonzero;stroke:#000000;stroke-width:0.1;stroke-linecap:round;stroke-linejoin:round;stroke-miterlimit:4;stroke-dasharray:none;stroke-dashoffset:0;stroke-opacity:1;paint-order:markers fill stroke"
       id="path4573"
       d="m 67.847318,204.65719 c 0.271179,-0.0374 0.544052,-0.0602 0.816885,-0.0813 0.38245,-0.0385 0.766664,-0.025 1.150077,-0.0148 0.266764,0.007 0.132829,0.004 0.401805,0.0109 2.833798,0.0761 2.797905,1.41201 -0.03589,1.33587 v 0 c -0.269369,-0.007 -0.135588,-0.004 -0.401346,-0.0109 -0.337283,-0.009 -0.675265,-0.0235 -1.011685,0.0113 -0.244073,0.0188 -0.488206,0.0388 -0.730856,0.0718 -2.806329,0.40091 -2.995316,-0.92201 -0.188986,-1.32292 z"
       inkscape:connector-curvature="0" />
    <path
       style="opacity:1;fill:#000000;fill-opacity:1;fill-rule:nonzero;stroke:#000000;stroke-width:0.1;stroke-linecap:round;stroke-linejoin:round;stroke-miterlimit:4;stroke-dasharray:none;stroke-dashoffset:0;stroke-opacity:1;paint-order:markers fill stroke"
       id="path4575"
       d="m 79.701669,204.65838 c 0.257959,0 0.515914,0 0.77387,0 2.834822,0 2.834822,1.33635 0,1.33635 v 0 c -0.257956,0 -0.515911,0 -0.77387,0 -2.834819,0 -2.834819,-1.33635 0,-1.33635 z"
       inkscape:connector-curvature="0" />
    <path
       style="opacity:1;fill:#000000;fill-opacity:1;fill-rule:nonzero;stroke:#000000;stroke-width:0.1;stroke-linecap:round;stroke-linejoin:round;stroke-miterlimit:4;stroke-dasharray:none;stroke-dashoffset:0;stroke-opacity:1;paint-order:markers fill stroke"
       id="path4577"
       d="m 91.901575,204.65719 c 0.237442,-0.0238 0.470167,-0.0771 0.704824,-0.11906 0.354438,-0.0701 0.713427,-0.0958 1.073771,-0.10739 0.243428,-0.005 0.121304,-0.003 0.366372,-0.007 2.834438,-0.0467 2.856433,1.28951 0.02199,1.33616 v 0 c -0.233476,0.004 -0.118059,0.002 -0.346249,0.007 -0.295868,0.009 -0.590286,0.028 -0.881187,0.0873 -0.249801,0.0445 -0.497835,0.10049 -0.750538,0.12641 -2.80633,0.4009 -2.995319,-0.92202 -0.188987,-1.32292 z"
       inkscape:connector-curvature="0" />
    <path
       style="opacity:1;fill:#000000;fill-opacity:1;fill-rule:nonzero;stroke:#000000;stroke-width:0.1;stroke-linecap:round;stroke-linejoin:round;stroke-miterlimit:4;stroke-dasharray:none;stroke-dashoffset:0;stroke-opacity:1;paint-order:markers fill stroke"
       id="path4579"
       d="m 103.22139,204.65838 c 0.25795,0 0.51591,0 0.77387,0 0.17146,0 0.34293,0 0.51439,0 2.83482,0 2.83482,1.33635 0,1.33635 v 0 c -0.17146,0 -0.34293,0 -0.51439,0 -0.25796,0 -0.51592,0 -0.77387,0 -2.83482,0 -2.83482,-1.33635 0,-1.33635 z"
       inkscape:connector-curvature="0" />
    <path
       style="opacity:1;fill:#000000;fill-opacity:1;fill-rule:nonzero;stroke:#000000;stroke-width:0.1;stroke-linecap:round;stroke-linejoin:round;stroke-miterlimit:4;stroke-dasharray:none;stroke-dashoffset:0;stroke-opacity:1;paint-order:markers fill stroke"
       id="path4581"
       d="m 111.94679,204.92446 c 0.28065,-0.0424 0.56274,-0.0621 0.84636,-0.0637 0.0538,5.3e-4 0.10766,0.001 0.16149,0.002 2.83465,0.0308 2.82012,1.3671 -0.0145,1.33626 v 0 c -0.0473,-5.2e-4 -0.0947,-10e-4 -0.14201,-0.002 -0.22208,2.5e-4 -0.44251,0.0171 -0.66231,0.0503 -2.80633,0.40091 -2.99532,-0.92201 -0.18899,-1.32291 z"
       inkscape:connector-curvature="0" />
    <path
       style="opacity:1;fill:#000000;fill-opacity:1;fill-rule:nonzero;stroke:#000000;stroke-width:0.1;stroke-linecap:round;stroke-linejoin:round;stroke-miterlimit:4;stroke-dasharray:none;stroke-dashoffset:0;stroke-opacity:1;paint-order:markers fill stroke"
       id="path4583"
       d="m 120.94488,204.93555 c 0.28062,-0.0778 0.56799,-0.12638 0.85538,-0.17096 0.0582,-0.008 0.11647,-0.0163 0.17471,-0.0244 2.80767,-0.39136 2.99216,0.9322 0.18448,1.32355 v 0 c -0.0517,0.007 -0.10338,0.0144 -0.15508,0.0215 -0.23244,0.0358 -0.46505,0.0738 -0.69236,0.13522 -2.72575,0.77878 -3.09287,-0.50615 -0.36713,-1.28493 z"
       inkscape:connector-curvature="0" />
    <path
       style="opacity:1;fill:#000000;fill-opacity:1;fill-rule:nonzero;stroke:#000000;stroke-width:0.1;stroke-linecap:round;stroke-linejoin:round;stroke-miterlimit:4;stroke-dasharray:none;stroke-dashoffset:0;stroke-opacity:1;paint-order:markers fill stroke"
       id="path4585"
       d="m 129.68107,204.65838 c 0.25796,0 0.51592,0 0.77387,0 0.23266,0 0.46533,0 0.69799,0 2.83483,0 2.83483,1.33635 0,1.33635 v 0 c -0.23266,0 -0.46533,0 -0.69799,0 -0.25795,0 -0.51591,0 -0.77387,0 -2.83482,0 -2.83482,-1.33635 0,-1.33635 z"
       inkscape:connector-curvature="0" />
    <path
       style="opacity:1;fill:#000000;fill-opacity:1;fill-rule:nonzero;stroke:#000000;stroke-width:0.1;stroke-linecap:round;stroke-linejoin:round;stroke-miterlimit:4;stroke-dasharray:none;stroke-dashoffset:0;stroke-opacity:1;paint-order:markers fill stroke"
       id="path4587"
       d="m 21.32621,205.99473 c -0.192297,-0.001 -0.382929,0.0319 -0.571351,0.0675 -0.215105,0.0458 -0.412791,0.13202 -0.600796,0.24408 -0.240823,0.16055 -0.453829,0.35451 -0.646016,0.56989 -0.241247,0.25991 -0.43147,0.55791 -0.601084,0.86767 -0.166607,0.31417 -0.29797,0.64469 -0.376864,0.99146 -0.06901,0.31357 -0.08099,0.63524 -0.05818,0.95452 0.01724,0.21331 0.104403,0.39673 0.226112,0.56827 0.07159,0.0869 0.157068,0.16856 0.269184,0.19632 0.04594,-0.021 0.115364,-0.0304 0.170516,-0.0581 0.160773,-0.0799 0.290337,-0.20864 0.4098,-0.34008 0.204955,-0.23325 0.387519,-0.4867 0.558546,-0.74571 0.184358,-0.29238 0.318041,-0.61253 0.455674,-0.92852 0.130827,-0.33392 0.269426,-0.66418 0.45679,-0.97059 0.297163,-0.46921 0.784038,-0.55124 1.251698,-0.2824 0.270107,0.22867 0.421712,0.54311 0.567887,0.85757 0.148592,0.34606 0.292313,0.69408 0.437344,1.04162 0.162107,0.39631 0.33713,0.78788 0.526336,1.17202 0.127348,0.27111 0.272214,0.53329 0.41262,0.7977 1.329438,2.50375 0.149155,3.13046 -1.180283,0.6267 v 0 c -0.14704,-0.27695 -0.298369,-0.55177 -0.431981,-0.83561 -0.200186,-0.40908 -0.388068,-0.82462 -0.560046,-1.24636 -0.138481,-0.33214 -0.276253,-0.6645 -0.417147,-0.99564 -0.02128,-0.0465 -0.29332,-0.50593 -0.122917,-0.32451 0.235508,0.10321 0.560724,0.0262 0.649789,-0.10296 -0.161018,0.24506 -0.246978,0.53041 -0.365125,0.79658 -0.169082,0.38739 -0.336515,0.77807 -0.567452,1.13375 -0.213103,0.31942 -0.438349,0.63315 -0.695432,0.91887 -0.266301,0.28058 -0.559108,0.53747 -0.924012,0.68149 -0.372347,0.12747 -0.750013,0.17474 -1.130979,0.0441 -0.352508,-0.15158 -0.655883,-0.36915 -0.878016,-0.68798 -0.247208,-0.37428 -0.420958,-0.77935 -0.452612,-1.23256 -0.026,-0.45188 -0.01084,-0.90583 0.09203,-1.34867 0.113492,-0.46217 0.278037,-0.90808 0.506587,-1.32676 0.221325,-0.39899 0.469148,-0.78287 0.780369,-1.11889 0.288359,-0.31566 0.604833,-0.6039 0.969176,-0.8308 0.321107,-0.18186 0.657241,-0.3285 1.021488,-0.39982 0.269863,-0.0505 0.543055,-0.0918 0.818347,-0.0905 2.834822,0 2.834822,1.33635 0,1.33635 z"
       inkscape:connector-curvature="0" />
    <path
       style="opacity:1;fill:#da03ae;fill-opacity:1;fill-rule:nonzero;stroke:#da03ae;stroke-width:0.1;stroke-linecap:round;stroke-linejoin:round;stroke-miterlimit:4;stroke-dasharray:none;stroke-dashoffset:0;stroke-opacity:1;paint-order:markers fill stroke"
       id="path4595"
       d="m 119.87038,193.35478 c 0.0308,0.23898 0.0505,0.47955 0.0701,0.71974 0.0289,0.36763 0.0476,0.73594 0.0646,1.10428 0.0359,0.4085 0.0781,0.8164 0.11341,1.22496 0.0393,0.46166 0.0678,0.92413 0.0935,1.38672 0.0298,0.47805 0.0366,0.9573 0.0698,1.43509 0.0416,0.49757 0.0827,0.99515 0.11851,1.49318 0.0334,0.50579 0.0589,1.0117 0.10607,1.51643 0.0521,0.52134 0.0969,1.04335 0.13672,1.56576 0.0293,0.51914 0.0745,1.03658 0.1269,1.55382 0.0553,0.53202 0.10004,1.06503 0.14025,1.59838 0.0255,0.50897 0.0857,1.01486 0.14005,1.52128 0.0555,0.5137 0.0985,1.0286 0.13733,1.54378 0.0386,0.52106 0.0674,1.04275 0.0936,1.56455 0.0259,0.52548 0.0453,1.05125 0.0629,1.57706 0.0146,0.53256 0.0381,1.06505 0.0346,1.59787 -0.0117,0.50891 -0.032,1.01757 -0.0484,1.52635 -0.0163,0.50855 -0.0287,1.01721 -0.0399,1.52589 -0.0141,0.4845 -0.0243,0.96873 0.0118,1.45241 0.0268,0.31966 0.1256,0.62167 0.27711,0.90259 0.12022,0.20725 0.30062,0.36041 0.49224,0.49858 0.22228,0.14617 0.47353,0.23602 0.72447,0.31894 0.35112,0.12869 0.7099,0.23293 1.07244,0.32372 0.3891,0.0766 0.78443,0.11478 1.17878,0.15262 0.45245,0.042 0.90591,0.0716 1.35946,0.0986 0.48013,0.0279 0.96064,0.0483 1.44121,0.0668 0.49811,0.0188 0.99638,0.0327 1.49467,0.0452 0.51007,0.0127 1.02021,0.022 1.53037,0.0306 0.51808,0.009 1.03619,0.0149 1.5543,0.0207 0.51292,-0.0102 1.02536,-0.0367 1.5379,-0.0578 0.53025,-0.0218 1.06068,-0.0387 1.59116,-0.0539 0.53189,-0.0151 1.06388,-0.0264 1.59589,-0.0367 0.53277,-0.0101 1.06558,-0.0178 1.5984,-0.0247 0.52293,0.004 1.04459,-0.0307 1.56626,-0.0617 0.51994,-0.0296 1.03987,-0.0523 1.55852,-0.0999 0.51098,-0.0507 1.02256,-0.0947 1.53456,-0.13372 0.48499,-0.053 0.96914,-0.11306 1.45433,-0.16427 0.50734,-0.0529 1.0159,-0.0926 1.52468,-0.12848 0.51634,-0.0358 1.03324,-0.0624 1.55024,-0.0866 0.52226,-0.024 1.04478,-0.0419 1.56732,-0.0582 0.50454,-0.006 1.00755,-0.0326 1.51056,-0.0702 0.5062,-0.0395 1.01289,-0.0721 1.51979,-0.10114 0.51634,-0.0291 1.03306,-0.0508 1.54984,-0.0705 0.52645,-0.0169 1.05282,-0.0418 1.57961,-0.0398 2.83479,0.0142 2.82808,1.35054 -0.007,1.33633 v 0 c -0.50754,-0.003 -1.01474,0.024 -1.52197,0.0388 -0.50829,0.0194 -1.01652,0.0407 -1.52439,0.0693 -0.49923,0.0286 -0.99825,0.0607 -1.49678,0.0996 -0.52223,0.0389 -1.04455,0.0669 -1.56833,0.0732 -0.51562,0.0161 -1.0312,0.0337 -1.54654,0.0574 -0.50645,0.0237 -1.01281,0.0497 -1.51863,0.0847 -0.49336,0.0348 -0.98651,0.0731 -1.47848,0.12441 -0.49812,0.0525 -0.99505,0.11524 -1.49315,0.16779 -0.50517,0.0384 -1.0099,0.082 -1.51406,0.132 -0.53284,0.0487 -1.06688,0.0733 -1.60104,0.10309 -0.54229,0.0323 -1.08464,0.068 -1.62823,0.064 -0.53,0.007 -1.05999,0.0145 -1.58994,0.0246 -0.52782,0.0102 -1.05563,0.0215 -1.58334,0.0364 -0.52495,0.0151 -1.04986,0.0318 -1.57458,0.0534 -0.53583,0.0221 -1.07156,0.0503 -1.60782,0.0588 -0.5206,-0.006 -1.0412,-0.0122 -1.56177,-0.0208 -0.51395,-0.009 -1.02788,-0.0181 -1.54175,-0.0308 -0.50417,-0.0128 -1.00832,-0.0268 -1.5123,-0.0458 -0.48991,-0.0189 -0.97976,-0.0396 -1.46922,-0.0682 -0.46971,-0.028 -0.93932,-0.0587 -1.40788,-0.10238 -0.46088,-0.0443 -0.92311,-0.0897 -1.3765,-0.18675 -0.39508,-0.0995 -0.7866,-0.21216 -1.16952,-0.35205 -0.38318,-0.1286 -0.7622,-0.27645 -1.09486,-0.51109 -0.35298,-0.26372 -0.67282,-0.56491 -0.88478,-0.95752 -0.22762,-0.44666 -0.38748,-0.91977 -0.42446,-1.42341 -0.0367,-0.52552 -0.0325,-1.05135 -0.0149,-1.5777 0.0113,-0.51326 0.0238,-1.02651 0.0403,-1.53963 0.0161,-0.49784 0.0357,-0.99557 0.0478,-1.49353 0.005,-0.51441 -0.0212,-1.02856 -0.0339,-1.54274 -0.0174,-0.51842 -0.0365,-1.03679 -0.062,-1.55488 -0.0256,-0.51067 -0.0538,-1.02123 -0.0915,-1.53117 -0.0377,-0.50111 -0.0795,-1.00194 -0.13348,-1.50161 -0.0558,-0.52041 -0.11725,-1.04035 -0.14389,-1.56335 -0.0393,-0.5219 -0.0831,-1.04347 -0.13722,-1.56407 -0.0535,-0.52828 -0.0997,-1.05682 -0.12984,-1.58703 -0.0392,-0.51485 -0.0834,-1.02929 -0.13481,-1.54309 -0.0479,-0.51426 -0.075,-1.02962 -0.10843,-1.54498 -0.0358,-0.49962 -0.0774,-0.99876 -0.11883,-1.49794 -0.0324,-0.48347 -0.0421,-0.9681 -0.0709,-1.45182 -0.0249,-0.44893 -0.0525,-0.89775 -0.0906,-1.34579 -0.0368,-0.42641 -0.0823,-0.852 -0.11695,-1.27858 -0.0162,-0.35273 -0.034,-0.70544 -0.0616,-1.05749 -0.0224,-0.27627 -0.053,-0.55171 -0.0745,-0.828 0,-2.83482 1.33635,-2.83482 1.33635,0 z"
       inkscape:connector-curvature="0" />
    <path
       style="opacity:1;fill:#da03ae;fill-opacity:1;fill-rule:nonzero;stroke:#da03ae;stroke-width:0.1;stroke-linecap:round;stroke-linejoin:round;stroke-miterlimit:4;stroke-dasharray:none;stroke-dashoffset:0;stroke-opacity:1;paint-order:markers fill stroke"
       id="path4597"
       d="m 120.76668,188.35375 c 0.27876,-0.0388 0.55935,-0.0613 0.83994,-0.0815 0.42686,-0.0294 0.85446,-0.0457 1.28202,-0.0606 0.56059,-0.019 1.12141,-0.0301 1.68222,-0.0405 0.69764,-0.0124 1.39535,-0.0201 2.09306,-0.0272 0.81027,0.002 1.6198,-0.0208 2.42941,-0.0505 0.8734,-0.0335 1.74699,-0.0615 2.62067,-0.0866 0.87445,-0.0245 1.74905,-0.0433 2.62367,-0.0606 0.83311,-0.0163 1.66628,-0.0292 2.49946,-0.0409 0.78345,5.3e-4 1.56584,-0.038 2.34825,-0.0732 0.74275,-0.0338 1.48569,-0.0629 2.22873,-0.0896 0.67857,-0.0242 1.3573,-0.0437 2.03606,-0.0616 0.63203,-0.0165 1.26416,-0.0296 1.89629,-0.0416 0.59207,-0.009 1.1838,-0.0154 1.77515,-0.0467 0.57879,-0.0343 1.15769,-0.0667 1.73679,-0.0954 0.56715,-0.0278 1.13457,-0.0493 1.70205,-0.0688 0.55673,-0.0189 1.11359,-0.0333 1.67048,-0.0464 0.54958,-0.0127 1.09921,-0.0225 1.64886,-0.0313 0.54876,-0.0227 1.09609,0.0225 1.63503,0.1241 0.4869,0.10223 0.94214,0.28615 1.36939,0.53785 0.39564,0.22164 0.73164,0.51986 1.03423,0.85419 0.30066,0.34541 0.52051,0.74649 0.71533,1.15805 0.19186,0.41836 0.32824,0.85824 0.45057,1.30096 0.1234,0.4583 0.21187,0.92476 0.29178,1.39226 0.0808,0.48338 0.13948,0.96998 0.19267,1.45704 0.0535,0.49999 0.0928,1.00132 0.1285,1.50285 0.0508,0.50067 0.1074,1.00069 0.15601,1.50158 0.0501,0.52161 0.0879,1.04426 0.12225,1.5671 0.0237,0.51655 0.0644,1.03142 0.11284,1.54614 0.0513,0.5304 0.093,1.06163 0.13048,1.59317 0.037,0.53335 0.0649,1.06726 0.0902,1.60127 0.0401,0.52366 0.0893,1.04656 0.13124,1.57007 0.0427,0.53689 0.0753,1.07449 0.10492,1.61224 0.0291,0.53647 0.051,1.07328 0.0709,1.61015 0.007,0.50984 0.0515,1.01756 0.092,1.52547 0.0416,0.51466 0.0743,1.02997 0.10379,1.54545 0.0293,0.52163 0.0512,1.04364 0.0711,1.56571 0.0197,0.52585 0.0344,1.05187 0.0479,1.57791 -5.3e-4,0.52506 0.0495,1.04785 0.0701,1.57203 0.0106,0.54108 0.022,1.08253 0.008,1.62361 -0.007,0.34776 -0.0365,0.69386 -0.0712,1.03972 -0.28442,2.82051 -1.61403,2.68644 -1.3296,-0.13408 v 0 c 0.0317,-0.31315 0.0589,-0.6264 0.0649,-0.94134 0.0144,-0.51207 8e-4,-1.02463 -0.008,-1.53673 -0.0197,-0.52989 -0.0724,-1.05836 -0.0707,-1.58915 -0.0133,-0.52043 -0.0279,-1.04084 -0.0473,-1.56107 -0.0196,-0.51364 -0.0411,-1.02722 -0.0699,-1.54044 -0.0289,-0.50547 -0.0609,-1.01076 -0.10174,-1.51543 -0.042,-0.52674 -0.0878,-1.05337 -0.0953,-1.58209 -0.0196,-0.5289 -0.0412,-1.05775 -0.0698,-1.58626 -0.029,-0.52665 -0.0609,-1.05317 -0.10267,-1.57898 -0.0431,-0.53795 -0.0944,-1.0752 -0.134,-1.61342 -0.0248,-0.52384 -0.0522,-1.04758 -0.0884,-1.57077 -0.0367,-0.5211 -0.0776,-1.04191 -0.1279,-1.5619 -0.0496,-0.52724 -0.0914,-1.0547 -0.11585,-1.58378 -0.0334,-0.50898 -0.0702,-1.01778 -0.11887,-1.52556 -0.0497,-0.51231 -0.10846,-1.02362 -0.1589,-1.53583 -0.0344,-0.48479 -0.0724,-0.96938 -0.12397,-1.45269 -0.0502,-0.46034 -0.10541,-0.92027 -0.18151,-1.37716 -0.0722,-0.42371 -0.15166,-0.84658 -0.26281,-1.26209 -0.10147,-0.36944 -0.2132,-0.73705 -0.37136,-1.08687 -0.13792,-0.29525 -0.29038,-0.58535 -0.50183,-0.83577 -0.20952,-0.23798 -0.44605,-0.44497 -0.72526,-0.59911 -0.28981,-0.17836 -0.60386,-0.2967 -0.93604,-0.37218 -0.44755,-0.0892 -0.90425,-0.11758 -1.36026,-0.10005 -0.5463,0.009 -1.0926,0.0184 -1.63883,0.0311 -0.55206,0.013 -1.1041,0.0273 -1.656,0.046 -0.56077,0.0193 -1.12149,0.0405 -1.68193,0.068 -0.57764,0.0286 -1.15506,0.061 -1.73239,0.0952 -0.60642,0.0319 -1.21319,0.0396 -1.82033,0.0483 -0.62882,0.0119 -1.25761,0.025 -1.88633,0.0414 -0.67455,0.0178 -1.34905,0.0372 -2.02341,0.0612 -0.73904,0.0265 -1.47799,0.0555 -2.21675,0.0891 -0.79609,0.0357 -1.59219,0.0747 -2.38932,0.0744 -0.83066,0.0117 -1.6613,0.0245 -2.49188,0.0408 -0.87066,0.0172 -1.74129,0.0359 -2.61177,0.0603 -0.8701,0.0249 -1.7401,0.0529 -2.60992,0.0863 -0.82144,0.0302 -1.64283,0.0531 -2.46495,0.0514 -0.694,0.007 -1.388,0.0147 -2.08193,0.027 -0.55349,0.0102 -1.10699,0.0212 -1.66028,0.0399 -0.41111,0.0143 -0.82226,0.0299 -1.2327,0.058 -0.24948,0.0179 -0.49898,0.0374 -0.74687,0.0716 -2.80633,0.4009 -2.99532,-0.92202 -0.18899,-1.32292 z"
       inkscape:connector-curvature="0" />
    <path
       style="opacity:1;fill:#da03ae;fill-opacity:1;fill-rule:nonzero;stroke:#da03ae;stroke-width:0.1;stroke-linecap:round;stroke-linejoin:round;stroke-miterlimit:4;stroke-dasharray:none;stroke-dashoffset:0;stroke-opacity:1;paint-order:markers fill stroke"
       id="path4599"
       d="m 127.33931,195.8547 c -0.033,0.24265 -0.053,0.48678 -0.0718,0.73085 -0.0261,0.35234 -0.0427,0.70527 -0.0579,1.05821 -0.0173,0.41329 -0.0291,0.82679 -0.0398,1.2403 -0.0115,0.45322 -0.0196,0.90651 -0.027,1.35981 -0.0172,0.46829 -0.006,0.93584 0.0138,1.40374 0.0235,0.49999 0.0439,1.00012 0.0619,1.50034 0.0156,0.49605 0.026,0.99183 0.062,1.48689 0.0399,0.49448 0.0753,0.98928 0.10647,1.48439 0.0283,0.49932 0.0867,0.99639 0.13349,1.49422 0.0487,0.52032 0.0859,1.04159 0.11962,1.56306 0.0334,0.52545 0.0583,1.05137 0.0811,1.57736 0.0224,0.52845 0.0392,1.0571 0.0545,1.58579 0.0151,0.53044 0.0264,1.06097 0.0367,1.59152 -0.002,0.39048 0.0788,0.76495 0.21425,1.12847 0.092,0.23746 0.25225,0.42685 0.43727,0.59671 0.19316,0.17174 0.42704,0.28043 0.66332,0.37856 0.31293,0.12406 0.63986,0.20596 0.96733,0.28088 0.39283,0.0871 0.79081,0.14726 1.1892,0.20202 0.4283,0.0671 0.8597,0.092 1.29239,0.1049 0.47628,0.0116 0.95268,0.017 1.42907,0.0225 0.49715,0.006 0.99432,0.01 1.49149,0.0131 0.50939,0.004 1.01878,0.006 1.52818,0.009 0.50792,0.005 1.01538,0.008 1.52293,-0.013 0.52324,-0.0256 1.0465,-0.0506 1.56991,-0.0724 0.50826,-0.0111 1.01487,-0.0423 1.5214,-0.0839 0.49832,-0.047 0.99878,-0.0683 1.49688,-0.11695 0.48852,-0.0553 0.97733,-0.10752 1.46685,-0.15307 0.48113,-0.0317 0.95875,-0.0968 1.43713,-0.155 0.4013,-0.0513 0.80487,-0.0815 1.20613,-0.13256 2.81265,-0.35388 2.97947,0.97201 0.16682,1.3259 v 0 c -0.40322,0.0503 -0.80831,0.0831 -1.2116,0.13323 -0.49088,0.0597 -0.98108,0.12604 -1.47474,0.15904 -0.48803,0.0454 -0.97529,0.0978 -1.46234,0.15264 -0.50454,0.0481 -1.01104,0.0724 -1.5158,0.11863 -0.52441,0.043 -1.04899,0.0755 -1.57516,0.0873 -0.52349,0.0218 -1.04682,0.0468 -1.57013,0.0724 -0.52816,0.0217 -1.05621,0.0196 -1.58474,0.0141 -0.5105,-0.002 -1.021,-0.005 -1.53149,-0.009 -0.49901,-0.004 -0.99802,-0.008 -1.49702,-0.0132 -0.48469,-0.006 -0.96941,-0.0111 -1.454,-0.023 -0.48015,-0.0146 -0.95906,-0.0435 -1.43441,-0.11678 -0.43759,-0.0603 -0.87464,-0.12709 -1.30601,-0.22343 -0.40223,-0.0926 -0.80316,-0.19601 -1.18646,-0.35154 -0.38306,-0.16261 -0.75452,-0.35329 -1.06264,-0.63875 -0.33086,-0.31744 -0.61267,-0.67421 -0.77467,-1.10893 -0.18206,-0.50366 -0.29546,-1.02337 -0.29543,-1.56191 -0.0102,-0.52632 -0.0215,-1.05262 -0.0364,-1.57883 -0.0151,-0.52236 -0.0317,-1.04468 -0.0538,-1.56679 -0.0223,-0.5165 -0.0468,-1.03292 -0.0795,-1.54887 -0.0328,-0.50848 -0.0691,-1.01677 -0.11653,-1.52412 -0.0481,-0.51153 -0.1079,-1.02228 -0.13673,-1.53537 -0.0309,-0.49085 -0.0661,-0.9814 -0.1056,-1.47163 -0.0369,-0.51126 -0.0492,-1.02318 -0.0647,-1.53546 -0.0179,-0.49703 -0.0382,-0.99397 -0.0615,-1.49078 -0.0213,-0.49433 -0.0324,-0.98844 -0.0149,-1.48318 0.007,-0.45759 0.0157,-0.91517 0.0273,-1.37268 0.0109,-0.42116 0.023,-0.84231 0.0406,-1.26325 0.0159,-0.36808 0.0333,-0.73613 0.0607,-1.10357 0.0211,-0.27283 0.0439,-0.5457 0.0813,-0.81688 0.4009,-2.80633 1.72382,-2.61734 1.32292,0.18899 z"
       inkscape:connector-curvature="0" />
    <path
       style="opacity:1;fill:#da03ae;fill-opacity:1;fill-rule:nonzero;stroke:#da03ae;stroke-width:0.1;stroke-linecap:round;stroke-linejoin:round;stroke-miterlimit:4;stroke-dasharray:none;stroke-dashoffset:0;stroke-opacity:1;paint-order:markers fill stroke"
       id="path4603"
       d="m 129.24103,192.91315 c 0.23901,0.0572 0.47843,0.11025 0.72072,0.15184 0.2957,0.0768 0.59371,0.1259 0.89733,0.15546 0.3702,0.0327 0.74142,0.0517 1.11258,0.0696 0.40886,0.0212 0.81738,0.0367 1.22671,0.0267 0.43789,-0.0149 0.87573,-0.0311 1.31367,-0.0447 0.46018,-0.003 0.9185,-0.0438 1.37699,-0.0789 0.49488,-0.0384 0.99037,-0.0682 1.486,-0.095 0.49841,-0.0238 0.99474,-0.0788 1.49169,-0.12248 0.51984,-0.0455 1.04052,-0.0804 1.56138,-0.11191 0.52511,-0.0312 1.05064,-0.0546 1.57624,-0.0759 0.52821,-0.021 1.0566,-0.0367 1.58503,-0.0511 0.50396,-0.002 1.00611,-0.0423 1.50835,-0.0789 0.51093,-0.0379 1.02238,-0.0678 1.53399,-0.0947 0.49259,-0.0195 0.98157,-0.0851 1.47341,-0.11575 0.49437,-0.0261 0.98136,0.0585 1.45294,0.19975 0.43617,0.135 0.79017,0.40774 1.12957,0.70158 0.3274,0.27949 0.58158,0.62399 0.8059,0.98813 0.22546,0.37997 0.38378,0.79271 0.52481,1.20978 0.14252,0.4342 0.243,0.88024 0.33351,1.32764 0.0802,0.4787 0.11479,0.96345 0.14959,1.4471 0.0338,0.48588 0.058,0.97236 0.0799,1.45891 0.0222,0.50129 0.0385,1.00281 0.0533,1.50436 0.0148,0.51203 0.0258,1.02416 0.0358,1.5363 0.007,0.50981 0.0131,1.01921 0.0426,1.52827 0.034,0.52429 0.0653,1.04873 0.0928,1.5734 0.031,0.52379 0.0392,1.04874 0.074,1.57226 0.0421,0.52836 0.0845,1.05667 0.12138,1.58542 0.0369,0.53562 0.065,1.07178 0.0905,1.60805 0.0251,0.53547 0.0439,1.0712 0.0611,1.60697 0.0122,0.50463 0.061,1.00754 0.0989,1.5107 0.0413,0.46617 0.0495,0.93517 0.1006,1.4004 0.30068,2.81883 -1.02813,2.96058 -1.32881,0.14174 v 0 c -0.05,-0.4794 -0.0651,-0.96155 -0.10437,-1.44191 -0.0393,-0.52228 -0.0895,-1.04432 -0.10197,-1.56814 -0.0169,-0.52888 -0.0356,-1.05771 -0.0603,-1.5863 -0.025,-0.52641 -0.0526,-1.05272 -0.0888,-1.5785 -0.037,-0.53066 -0.0797,-1.06086 -0.12176,-1.59114 -0.0342,-0.52936 -0.0449,-1.0599 -0.075,-1.58953 -0.0274,-0.52236 -0.0586,-1.04449 -0.0925,-1.56647 -0.0302,-0.52602 -0.0375,-1.05235 -0.0446,-1.57914 -0.01,-0.50769 -0.0208,-1.01538 -0.0355,-1.52296 -0.0146,-0.49462 -0.0307,-0.98921 -0.0525,-1.48357 -0.0214,-0.47467 -0.0449,-0.94928 -0.0778,-1.42331 -0.0307,-0.42708 -0.0609,-0.85499 -0.12659,-1.27841 -0.0791,-0.39265 -0.16613,-0.7843 -0.29006,-1.16565 -0.10826,-0.32309 -0.22743,-0.64396 -0.39886,-0.93982 -0.14973,-0.24834 -0.31831,-0.48443 -0.54026,-0.67442 -0.19854,-0.17201 -0.39214,-0.35042 -0.64751,-0.43443 -0.31601,-0.10139 -0.64646,-0.15577 -0.9791,-0.14317 -0.49554,0.0292 -0.98795,0.0994 -1.48439,0.11637 -0.50253,0.0264 -1.00491,0.0557 -1.50678,0.093 -0.52256,0.0381 -1.04509,0.0797 -1.56941,0.082 -0.5225,0.0142 -1.04496,0.0297 -1.56723,0.0505 -0.5167,0.0209 -1.03332,0.0439 -1.54953,0.0745 -0.50876,0.0308 -1.01734,0.0648 -1.52511,0.10921 -0.5119,0.045 -1.02317,0.10139 -1.53659,0.12567 -0.48563,0.0262 -0.97111,0.0554 -1.456,0.093 -0.4786,0.0367 -0.9571,0.0782 -1.43743,0.0822 -0.44121,0.0137 -0.88231,0.0302 -1.32347,0.045 -0.44145,0.0103 -0.8821,-0.004 -1.32301,-0.0279 -0.39334,-0.019 -0.78673,-0.0394 -1.17902,-0.0745 -0.33534,-0.0333 -0.66744,-0.0819 -0.99369,-0.1685 -0.22906,-0.0397 -0.45915,-0.0809 -0.68245,-0.14581 -2.80633,-0.4009 -2.61735,-1.72382 0.18899,-1.32291 z"
       inkscape:connector-curvature="0" />
    <path
       style="opacity:1;fill:#da03ae;fill-opacity:1;fill-rule:nonzero;stroke:#da03ae;stroke-width:0.1;stroke-linecap:round;stroke-linejoin:round;stroke-miterlimit:4;stroke-dasharray:none;stroke-dashoffset:0;stroke-opacity:1;paint-order:markers fill stroke"
       id="path4605"
       d="m 132.70051,200.47656 c 0.0386,0.26019 0.0514,0.52326 0.0858,0.78386 0.0541,0.36397 0.0987,0.72915 0.13748,1.09504 0.0472,0.41394 0.0633,0.83068 0.10747,1.24481 0.0534,0.43083 0.10212,0.86217 0.1443,1.29425 0.0448,0.46839 0.0772,0.93784 0.10655,1.40742 0.0299,0.4897 0.0518,0.97983 0.0716,1.47002 0.02,0.50415 0.0347,1.00848 0.0481,1.51285 0.006,0.45855 0.0187,0.91743 0.097,1.37002 0.0514,0.27251 0.18174,0.50756 0.34978,0.72366 0.1484,0.17143 0.33327,0.30632 0.53765,0.40287 0.2826,0.1232 0.58264,0.19784 0.88186,0.26788 0.38179,0.0863 0.76891,0.14501 1.1564,0.19856 0.43493,0.0585 0.87188,0.1 1.30904,0.13765 0.47471,0.0369 0.9496,0.0652 1.42305,0.11643 0.43474,0.0613 0.87306,0.0774 1.31127,0.0911 0.44473,0.0145 0.88908,0.0245 1.33381,0.009 0.45053,-0.009 0.89837,-0.0593 1.34653,-0.10191 0.38127,-0.0393 0.76438,-0.0583 1.14491,-0.10419 2.81518,-0.3331 2.9722,0.99399 0.15702,1.32709 v 0 c -0.39087,0.0455 -0.78365,0.0693 -1.17529,0.10743 -0.4749,0.0452 -0.94956,0.0972 -1.42695,0.10713 -0.47403,0.0162 -0.94768,0.007 -1.42168,-0.009 -0.4724,-0.0148 -0.94494,-0.0334 -1.41372,-0.0982 -0.46366,-0.0504 -0.9289,-0.0765 -1.39376,-0.11358 -0.46002,-0.0397 -0.9198,-0.0835 -1.37746,-0.14534 -0.42867,-0.0594 -0.85685,-0.12518 -1.27907,-0.22141 -0.40295,-0.0951 -0.80602,-0.20056 -1.18206,-0.37776 -0.38003,-0.19974 -0.72994,-0.44778 -0.99796,-0.7885 -0.29174,-0.39271 -0.51549,-0.82153 -0.60141,-1.30863 -0.0839,-0.51449 -0.11207,-1.03385 -0.11479,-1.55497 -0.0132,-0.49819 -0.0278,-0.99636 -0.0475,-1.49434 -0.0194,-0.48043 -0.0408,-0.9608 -0.0701,-1.44074 -0.0283,-0.45406 -0.0596,-0.908 -0.10284,-1.36092 -0.0418,-0.42906 -0.0907,-0.85731 -0.14337,-1.28516 -0.0425,-0.4137 -0.0623,-0.82938 -0.10728,-1.24293 -0.0377,-0.35645 -0.0816,-0.71213 -0.13418,-1.06673 -0.0316,-0.25423 -0.0487,-0.50994 -0.0831,-0.76388 -0.4009,-2.80633 0.92202,-2.99532 1.32292,-0.18899 z"
       inkscape:connector-curvature="0" />
    <path
       style="opacity:1;fill:#da03ae;fill-opacity:1;fill-rule:nonzero;stroke:#da03ae;stroke-width:0.1;stroke-linecap:round;stroke-linejoin:round;stroke-miterlimit:4;stroke-dasharray:none;stroke-dashoffset:0;stroke-opacity:1;paint-order:markers fill stroke"
       id="path4607"
       d="m 132.9828,198.25854 c 0.24265,0.033 0.48678,0.053 0.73085,0.0718 0.35564,0.0272 0.70754,0.0801 1.06394,0.0981 0.40933,0.0164 0.81897,0.023 1.22854,0.0299 0.45393,0.007 0.90789,0.0125 1.36185,0.0172 0.48032,0.005 0.96066,0.008 1.441,0.0116 0.47062,0.0146 0.94047,-0.013 1.41021,-0.0375 0.48955,-0.0263 0.97935,-0.0472 1.46924,-0.0659 0.50462,-0.0189 1.0094,-0.0329 1.5142,-0.0456 0.51431,-0.0127 1.02869,-0.0221 1.54308,-0.0307 0.49967,-0.0452 0.99409,-0.0189 1.48305,0.0901 0.43852,0.11135 0.81802,0.33766 1.15569,0.6323 0.30375,0.28352 0.51378,0.63965 0.69648,1.00821 0.18002,0.37898 0.30161,0.78092 0.41024,1.18499 0.1177,0.44047 0.19674,0.88845 0.24543,1.34134 0.0437,0.46381 0.0687,0.9291 0.0924,1.39428 0.0192,0.45161 0.0725,0.90098 0.11388,1.35095 0.044,0.48098 0.0768,0.96286 0.10642,1.4449 0.0446,0.46259 0.0973,0.92434 0.14184,1.38696 0.033,0.47989 0.036,0.96122 0.042,1.44203 0.0149,0.48415 0.003,0.96752 -0.0211,1.45108 -0.004,0.0779 -0.008,0.15579 -0.012,0.23368 -0.14554,2.83109 -1.48013,2.76248 -1.33458,-0.0686 v 0 c 0.004,-0.0771 0.008,-0.15416 0.0119,-0.23124 0.0226,-0.45602 0.0343,-0.91171 0.0196,-1.36832 -0.006,-0.44366 -0.008,-0.88772 -0.036,-1.33069 -0.0459,-0.47795 -0.1015,-0.95488 -0.14547,-1.43301 -0.0288,-0.46855 -0.0606,-0.93695 -0.10331,-1.40447 -0.043,-0.46808 -0.0981,-0.93555 -0.11776,-1.40537 -0.0224,-0.44071 -0.046,-0.88152 -0.0867,-1.32099 -0.0402,-0.38398 -0.10813,-0.76328 -0.2074,-1.13675 -0.0855,-0.32044 -0.17909,-0.63995 -0.31889,-0.94166 -0.10432,-0.21534 -0.21818,-0.42873 -0.38759,-0.60099 -0.16224,-0.153 -0.35154,-0.26453 -0.56715,-0.32685 -0.38074,-0.0947 -0.76925,-0.0841 -1.1587,-0.0557 -0.51062,0.009 -1.02122,0.0179 -1.53176,0.0305 -0.49903,0.0125 -0.99803,0.0264 -1.49688,0.0451 -0.48371,0.0184 -0.96735,0.0391 -1.45073,0.065 -0.49581,0.0258 -0.9918,0.0539 -1.48853,0.0393 -0.48197,-0.003 -0.96395,-0.007 -1.44591,-0.0116 -0.4569,-0.005 -0.91379,-0.01 -1.37065,-0.0173 -0.42507,-0.007 -0.85022,-0.0141 -1.27502,-0.0315 -0.36773,-0.0194 -0.73122,-0.0692 -1.09782,-0.10033 -0.27283,-0.0211 -0.54571,-0.0439 -0.81689,-0.0813 -2.80633,-0.40091 -2.61734,-1.72382 0.18899,-1.32292 z"
       inkscape:connector-curvature="0" />
    <path
       style="opacity:1;fill:#000000;fill-opacity:1;fill-rule:nonzero;stroke:#000000;stroke-width:0.1;stroke-linecap:round;stroke-linejoin:round;stroke-miterlimit:4;stroke-dasharray:none;stroke-dashoffset:0;stroke-opacity:1;paint-order:markers fill stroke"
       id="path4609"
       d="m 224.29218,256.58638 c 0.15237,0.21818 0.31881,0.42626 0.49608,0.6246 0.30799,0.34373 0.64065,0.6633 0.97403,0.98194 0.44048,0.40451 0.89054,0.79837 1.32577,1.20855 0.43556,0.40656 0.87467,0.80931 1.32085,1.20419 0.0627,0.0542 0.12538,0.10847 0.18806,0.16271 2.14351,1.85515 1.26898,2.86561 -0.87452,1.01046 v 0 c -0.0665,-0.0576 -0.13298,-0.11513 -0.19947,-0.17269 -0.45645,-0.4044 -0.90626,-0.8162 -1.35186,-1.23253 -0.43702,-0.41259 -0.89067,-0.80692 -1.33219,-1.21465 -0.35991,-0.34403 -0.71828,-0.68987 -1.05044,-1.06125 -0.21646,-0.24544 -0.42311,-0.49986 -0.60822,-0.77006 -1.57248,-2.35871 -0.46057,-3.09998 1.11191,-0.74127 z"
       inkscape:connector-curvature="0" />
    <path
       style="opacity:1;fill:#000000;fill-opacity:1;fill-rule:nonzero;stroke:#000000;stroke-width:0.1;stroke-linecap:round;stroke-linejoin:round;stroke-miterlimit:4;stroke-dasharray:none;stroke-dashoffset:0;stroke-opacity:1;paint-order:markers fill stroke"
       id="path4611"
       d="m 229.56862,256.46185 c -0.17527,0.0982 -0.31288,0.25258 -0.44752,0.39889 -0.30209,0.35471 -0.55745,0.74622 -0.81747,1.13199 -0.36771,0.54227 -0.71187,1.09937 -1.05476,1.65744 -0.37365,0.59173 -0.73163,1.19311 -1.10074,1.78764 -0.34419,0.56919 -0.70067,1.13065 -1.08959,1.67039 -1.65936,2.29842 -2.74284,1.51619 -1.08349,-0.78223 v 0 c 0.37178,-0.51385 0.70882,-1.05105 1.03779,-1.5931 0.36809,-0.59269 0.72479,-1.19239 1.09743,-1.78228 0.35274,-0.5741 0.70716,-1.14697 1.08531,-1.70489 0.29898,-0.44336 0.59367,-0.89276 0.94725,-1.29534 0.24557,-0.26182 0.50359,-0.52066 0.82816,-0.68378 2.53554,-1.26777 3.13318,-0.0725 0.59763,1.19527 z"
       inkscape:connector-curvature="0" />
    <path
       style="opacity:1;fill:#000000;fill-opacity:1;fill-rule:nonzero;stroke:#000000;stroke-width:0.1;stroke-linecap:round;stroke-linejoin:round;stroke-miterlimit:4;stroke-dasharray:none;stroke-dashoffset:0;stroke-opacity:1;paint-order:markers fill stroke"
       id="path4615"
       d="m 14.752869,113.59719 c 0.138298,0.23125 0.287804,0.45584 0.443182,0.67591 0.190099,0.25811 0.394787,0.50515 0.629453,0.72386 0.182102,0.16556 0.379119,0.30087 0.620751,0.35393 0.139569,0.0232 0.269546,-0.009 0.391185,-0.0762 0.138344,-0.099 0.228193,-0.2557 0.313972,-0.39957 0.143344,-0.30528 0.292182,-0.59977 0.506632,-0.86179 0.466949,-0.45989 1.019384,-0.35294 1.4581,0.0696 0.322304,0.41094 0.515713,0.90029 0.711771,1.37929 0.276373,0.72149 0.524162,1.4534 0.767489,2.18654 0.300666,0.8904 0.577682,1.78866 0.853267,2.68709 0.2887,0.90001 0.544059,1.80987 0.781784,2.7245 0.205759,0.82275 0.357075,1.65598 0.429073,2.50087 0.05581,0.69172 -0.01609,1.37755 -0.178951,2.04944 -0.142428,0.57256 -0.45312,1.05971 -0.835876,1.49896 -0.35954,0.3925 -0.808289,0.64054 -1.312515,0.7916 -0.499293,0.13109 -0.960654,0.0505 -1.408774,-0.18817 -0.468399,-0.31703 -0.691577,-0.814 -0.836989,-1.34081 -0.151425,-0.61631 -0.11209,-1.24859 -0.0464,-1.87285 0.08768,-0.77776 0.319392,-1.52627 0.558736,-2.26798 0.266081,-0.82487 0.635114,-1.60998 1.012662,-2.38825 0.184752,-0.38682 0.394012,-0.76088 0.603467,-1.13459 1.386811,-2.47244 2.552331,-1.8187 1.16552,0.65375 v 0 c -0.196761,0.35049 -0.393477,0.70124 -0.566708,1.06424 -0.350607,0.72234 -0.695587,1.45014 -0.943289,2.21562 -0.211573,0.65429 -0.421311,1.31353 -0.501632,1.99945 -0.05058,0.46304 -0.09307,0.93374 0.01069,1.39321 0.04245,0.18435 0.104909,0.3685 0.216216,0.52328 0.09634,0.10307 0.247323,0.0757 0.373309,0.0571 0.261589,-0.0634 0.485005,-0.19661 0.673786,-0.38985 0.245668,-0.27285 0.448805,-0.57361 0.540368,-0.93484 0.133873,-0.52956 0.186,-1.07173 0.144672,-1.61793 -0.06286,-0.76931 -0.205981,-1.52686 -0.390769,-2.27613 -0.232733,-0.89596 -0.483061,-1.78715 -0.765992,-2.66873 -0.272538,-0.88871 -0.546545,-1.77724 -0.843979,-2.65798 -0.233834,-0.70457 -0.471902,-1.40791 -0.736137,-2.10178 -0.136369,-0.33399 -0.271162,-0.66974 -0.457728,-0.97964 0.186236,0.04 0.405079,0.0964 0.533569,-0.0984 -0.163221,0.20153 -0.237924,0.4602 -0.374777,0.6816 -0.228914,0.36977 -0.494031,0.71728 -0.893146,0.91595 -0.415277,0.18194 -0.846531,0.26177 -1.295987,0.15501 -0.452553,-0.12844 -0.852308,-0.34749 -1.195029,-0.67395 -0.297121,-0.2832 -0.565125,-0.59383 -0.805217,-0.92703 -0.160708,-0.22958 -0.31898,-0.46164 -0.461674,-0.70293 -1.572476,-2.35872 -0.460567,-3.09999 1.111909,-0.74127 z"
       inkscape:connector-curvature="0" />
  </g>
</svg>
