<?xml version="1.0" encoding="UTF-8" standalone="no"?>
<!-- Created with Inkscape (http://www.inkscape.org/) -->

<svg
   xmlns:dc="http://purl.org/dc/elements/1.1/"
   xmlns:cc="http://creativecommons.org/ns#"
   xmlns:rdf="http://www.w3.org/1999/02/22-rdf-syntax-ns#"
   xmlns:svg="http://www.w3.org/2000/svg"
   xmlns="http://www.w3.org/2000/svg"
   xmlns:sodipodi="http://sodipodi.sourceforge.net/DTD/sodipodi-0.dtd"
   xmlns:inkscape="http://www.inkscape.org/namespaces/inkscape"
   width="297mm"
   height="210mm"
   viewBox="0 0 297 210"
   version="1.1"
   id="svg4751"
   inkscape:version="0.92.1 r15371"
   sodipodi:docname="der-on-vec.svg">
  <defs
     id="defs4745">
    <marker
       inkscape:isstock="true"
       style="overflow:visible;"
       id="marker7278"
       refX="0.0"
       refY="0.0"
       orient="auto"
       inkscape:stockid="Arrow1Mend">
      <path
         transform="scale(0.4) rotate(180) translate(10,0)"
         style="fill-rule:evenodd;stroke:#000000;stroke-width:1pt;stroke-opacity:1;fill:#000000;fill-opacity:1"
         d="M 0.0,0.0 L 5.0,-5.0 L -12.5,0.0 L 5.0,5.0 L 0.0,0.0 z "
         id="path7276" />
    </marker>
    <marker
       inkscape:stockid="Arrow1Mend"
       orient="auto"
       refY="0.0"
       refX="0.0"
       id="Arrow1Mend"
       style="overflow:visible;"
       inkscape:isstock="true"
       inkscape:collect="always">
      <path
         id="path5332"
         d="M 0.0,0.0 L 5.0,-5.0 L -12.5,0.0 L 5.0,5.0 L 0.0,0.0 z "
         style="fill-rule:evenodd;stroke:#0549ff;stroke-width:1pt;stroke-opacity:1;fill:#0549ff;fill-opacity:1"
         transform="scale(0.4) rotate(180) translate(10,0)" />
    </marker>
    <marker
       inkscape:stockid="Arrow1Lend"
       orient="auto"
       refY="0.0"
       refX="0.0"
       id="Arrow1Lend"
       style="overflow:visible;"
       inkscape:isstock="true">
      <path
         id="path5326"
         d="M 0.0,0.0 L 5.0,-5.0 L -12.5,0.0 L 5.0,5.0 L 0.0,0.0 z "
         style="fill-rule:evenodd;stroke:#0549ff;stroke-width:1pt;stroke-opacity:1;fill:#0549ff;fill-opacity:1"
         transform="scale(0.8) rotate(180) translate(12.5,0)" />
    </marker>
    <marker
       inkscape:stockid="Arrow1Lend"
       orient="auto"
       refY="0"
       refX="0"
       id="Arrow1Lend-7"
       style="overflow:visible"
       inkscape:isstock="true">
      <path
         inkscape:connector-curvature="0"
         id="path5326-5"
         d="M 0,0 5,-5 -12.5,0 5,5 Z"
         style="fill:#000000;fill-opacity:1;fill-rule:evenodd;stroke:#000000;stroke-width:1.00000003pt;stroke-opacity:1"
         transform="matrix(-0.8,0,0,-0.8,-10,0)" />
    </marker>
    <marker
       inkscape:stockid="Arrow1Lend"
       orient="auto"
       refY="0"
       refX="0"
       id="Arrow1Lend-7-5"
       style="overflow:visible"
       inkscape:isstock="true">
      <path
         inkscape:connector-curvature="0"
         id="path5326-5-8"
         d="M 0,0 5,-5 -12.5,0 5,5 Z"
         style="fill:#000000;fill-opacity:1;fill-rule:evenodd;stroke:#000000;stroke-width:1.00000003pt;stroke-opacity:1"
         transform="matrix(-0.8,0,0,-0.8,-10,0)" />
    </marker>
  </defs>
  <sodipodi:namedview
     id="base"
     pagecolor="#ffffff"
     bordercolor="#666666"
     borderopacity="1.0"
     inkscape:pageopacity="0.0"
     inkscape:pageshadow="2"
     inkscape:zoom="0.98994949"
     inkscape:cx="577.08924"
     inkscape:cy="396.50098"
     inkscape:document-units="mm"
     inkscape:current-layer="layer1"
     showgrid="false"
     inkscape:window-width="1920"
     inkscape:window-height="1046"
     inkscape:window-x="-11"
     inkscape:window-y="-11"
     inkscape:window-maximized="1" />
  <metadata
     id="metadata4748">
    <rdf:RDF>
      <cc:Work
         rdf:about="">
        <dc:format>image/svg+xml</dc:format>
        <dc:type
           rdf:resource="http://purl.org/dc/dcmitype/StillImage" />
        <dc:title></dc:title>
      </cc:Work>
    </rdf:RDF>
  </metadata>
  <g
     inkscape:label="Layer 1"
     inkscape:groupmode="layer"
     id="layer1"
     transform="translate(0,-87)">
    <path
       style="fill:none;stroke:#000000;stroke-width:0.2;stroke-linecap:butt;stroke-linejoin:miter;stroke-opacity:1;stroke-miterlimit:4;stroke-dasharray:none"
       d="m 97.718453,197.98495 10.525707,13.75607"
       id="path7103"
       inkscape:connector-curvature="0" />
    <path
       style="fill:none;stroke:#000000;stroke-width:0.2;stroke-linecap:butt;stroke-linejoin:miter;stroke-opacity:1;stroke-miterlimit:4;stroke-dasharray:none"
       d="m 190.80285,124.19398 10.5257,13.75607"
       id="path7103-1"
       inkscape:connector-curvature="0" />
    <path
       style="fill:none;stroke:#000000;stroke-width:1.50000004;stroke-linecap:butt;stroke-linejoin:miter;stroke-miterlimit:4;stroke-dasharray:0.37500001,0.37500001;stroke-opacity:1;stroke-dashoffset:0"
       d="M 57.195679,252.09872 244.81889,104.29867"
       id="path5319"
       inkscape:connector-curvature="0" />
    <circle
       style="opacity:1;fill:#da03ae;fill-opacity:1;fill-rule:nonzero;stroke:#da03ae;stroke-width:0.60000002;stroke-linecap:round;stroke-linejoin:round;stroke-miterlimit:4;stroke-dasharray:none;stroke-dashoffset:0;stroke-opacity:1;paint-order:markers fill stroke"
       id="path5302"
       cx="107.84325"
       cy="212.14192"
       r="4.1426778" />
    <circle
       style="opacity:1;fill:#0549ff;fill-opacity:1;fill-rule:nonzero;stroke:#0549ff;stroke-width:0.60000002;stroke-linecap:round;stroke-linejoin:round;stroke-miterlimit:4;stroke-dasharray:none;stroke-dashoffset:0;stroke-opacity:1;paint-order:markers fill stroke"
       id="path5302-2"
       cx="201.52121"
       cy="138.24191"
       r="4.1426778" />
    <path
       style="fill:none;stroke:#0549ff;stroke-width:1;stroke-linecap:butt;stroke-linejoin:miter;stroke-miterlimit:4;stroke-dasharray:none;stroke-opacity:1;marker-end:url(#Arrow1Mend)"
       d="m 199.05137,145.98198 -38.48681,30.46873"
       id="path5321"
       inkscape:connector-curvature="0" />
    <path
       style="fill:none;stroke:#000000;stroke-width:1;stroke-linecap:butt;stroke-linejoin:miter;stroke-miterlimit:4;stroke-dasharray:none;stroke-opacity:1;marker-end:url(#marker7278)"
       d="m 222.61059,129.07998 24.18676,-19.12139"
       id="path5321-4"
       inkscape:connector-curvature="0" />
    <path
       style="fill:none;stroke:#000000;stroke-width:0.2;stroke-linecap:butt;stroke-linejoin:miter;stroke-miterlimit:4;stroke-dasharray:none;stroke-opacity:1"
       d="M 97.718453,197.98495 190.80285,124.19398"
       id="path5321-4-4"
       inkscape:connector-curvature="0" />
    <path
       style="opacity:1;fill:#000000;fill-opacity:1;fill-rule:nonzero;stroke:none;stroke-width:0.2;stroke-linecap:round;stroke-linejoin:round;stroke-miterlimit:4;stroke-dasharray:none;stroke-dashoffset:0;stroke-opacity:1;paint-order:markers fill stroke"
       id="path7120"
       d="m 104.97615,223.17427 c -0.16305,0.21961 -0.30508,0.45319 -0.43641,0.69284 -0.22253,0.42789 -0.37792,0.88332 -0.51434,1.34443 -0.18274,0.63942 -0.25574,1.30262 -0.31406,1.96292 -0.0591,0.78032 -0.0146,1.56169 0.0451,2.3402 0.0602,0.79227 0.21506,1.57131 0.41059,2.33996 0.17038,0.71338 0.41043,1.40574 0.69727,2.07988 0.2418,0.53642 0.52877,1.05224 0.88545,1.52064 0.18615,0.2191 0.0927,0.11542 0.27929,0.31194 1.9414,2.06572 0.96761,2.9809 -0.97379,0.91519 v 0 c -0.25107,-0.26913 -0.1264,-0.12834 -0.373,-0.42323 -0.41749,-0.55899 -0.76684,-1.16379 -1.04824,-1.80281 -0.31181,-0.73744 -0.57607,-1.4935 -0.76235,-2.27319 -0.21314,-0.84321 -0.38222,-1.69762 -0.44767,-2.56644 -0.065,-0.85177 -0.11045,-1.7068 -0.0438,-2.56033 0.0668,-0.74918 0.15424,-1.50071 0.36421,-2.22548 0.16502,-0.55292 0.35481,-1.09863 0.62567,-1.61006 0.17381,-0.31253 0.35916,-0.6195 0.57943,-0.90196 1.81481,-2.17778 2.84142,-1.32227 1.02661,0.8555 z"
       inkscape:connector-curvature="0" />
    <path
       style="opacity:1;fill:#000000;fill-opacity:1;fill-rule:nonzero;stroke:none;stroke-width:0.2;stroke-linecap:round;stroke-linejoin:round;stroke-miterlimit:4;stroke-dasharray:none;stroke-dashoffset:0;stroke-opacity:1;paint-order:markers fill stroke"
       id="path7122"
       d="m 109.19678,226.9856 c 0.27636,0.17401 0.54045,0.36663 0.8063,0.55608 0.40916,0.29978 0.81196,0.60829 1.21377,0.91785 0.35963,0.26917 0.7124,0.54725 1.07676,0.81008 2.29786,1.66013 1.51527,2.74335 -0.78259,1.08322 v 0 c -0.37512,-0.27139 -0.73959,-0.55671 -1.10977,-0.83472 -0.38863,-0.29946 -0.77831,-0.5978 -1.17376,-0.88819 -0.25452,-0.18142 -0.50722,-0.36605 -0.77199,-0.53241 -2.35871,-1.57248 -1.61744,-2.68438 0.74128,-1.11191 z"
       inkscape:connector-curvature="0" />
    <path
       style="opacity:1;fill:#000000;fill-opacity:1;fill-rule:nonzero;stroke:none;stroke-width:0.2;stroke-linecap:round;stroke-linejoin:round;stroke-miterlimit:4;stroke-dasharray:none;stroke-dashoffset:0;stroke-opacity:1;paint-order:markers fill stroke"
       id="path7124"
       d="m 112.37377,225.51791 c -0.0426,0.37991 -0.11152,0.75648 -0.18348,1.13178 -0.12554,0.59569 -0.28402,1.18343 -0.44892,1.7692 -0.1782,0.64482 -0.37834,1.28338 -0.59193,1.91728 -0.90589,2.68618 -2.17217,2.25914 -1.26628,-0.42704 v 0 c 0.20671,-0.61238 0.39964,-1.22954 0.57191,-1.85255 0.15486,-0.54947 0.30382,-1.10071 0.42292,-1.65923 0.0668,-0.34651 0.13073,-0.69433 0.16975,-1.0452 0.35162,-2.81293 1.67764,-2.64717 1.32603,0.16576 z"
       inkscape:connector-curvature="0" />
    <path
       style="opacity:1;fill:#000000;fill-opacity:1;fill-rule:nonzero;stroke:none;stroke-width:0.2;stroke-linecap:round;stroke-linejoin:round;stroke-miterlimit:4;stroke-dasharray:none;stroke-dashoffset:0;stroke-opacity:1;paint-order:markers fill stroke"
       id="path7128"
       d="m 115.85144,230.05441 c 0.0488,0.15922 0.14224,0.29167 0.2532,0.41302 0.11965,0.11271 0.25693,0.2262 0.42026,0.26508 0.12049,0.0135 0.23299,-0.029 0.34087,-0.0776 0.13227,-0.0656 0.22948,-0.17091 0.29503,-0.302 0.0879,-0.1767 0.12032,-0.37196 0.1424,-0.56601 0.014,-0.17085 -0.0388,-0.32812 -0.11752,-0.47693 -0.075,-0.10251 -0.15563,-0.25384 -0.28994,-0.28491 -0.10049,-0.007 -0.19631,0.0168 -0.28861,0.0541 -0.0184,0.01 -0.0368,0.0198 -0.0551,0.0298 -2.57995,1.17478 -3.13374,-0.0414 -0.5538,-1.2162 v 0 c 0.0652,-0.0281 0.13033,-0.0562 0.1955,-0.0844 0.44123,-0.13368 0.88533,-0.16593 1.31667,0.03 0.37856,0.2123 0.67913,0.50134 0.87933,0.89173 0.17843,0.38503 0.28848,0.78812 0.24023,1.21684 -0.0478,0.38215 -0.13284,0.75947 -0.32569,1.09755 -0.23554,0.37058 -0.53079,0.6794 -0.94397,0.85184 -0.41481,0.15755 -0.83897,0.23161 -1.27403,0.0984 -0.37788,-0.14151 -0.71834,-0.34816 -0.99059,-0.65118 -0.23249,-0.27404 -0.42937,-0.57272 -0.52913,-0.9221 -0.77878,-2.72574 0.50615,-3.09287 1.28493,-0.36712 z"
       inkscape:connector-curvature="0" />
    <path
       style="opacity:1;fill:#000000;fill-opacity:1;fill-rule:nonzero;stroke:none;stroke-width:0.2;stroke-linecap:round;stroke-linejoin:round;stroke-miterlimit:4;stroke-dasharray:none;stroke-dashoffset:0;stroke-opacity:1;paint-order:markers fill stroke"
       id="path7130"
       d="m 123.2643,229.32489 c 0.18823,0.27844 0.32323,0.5864 0.44525,0.89811 0.16958,0.43944 0.24691,0.90086 0.27134,1.36899 0.0106,0.40366 -0.0538,0.79767 -0.15766,1.18586 -0.7509,2.73356 -2.03952,2.37958 -1.28862,-0.35398 v 0 c 0.0722,-0.25219 0.11304,-0.50825 0.11129,-0.77165 -0.0109,-0.32334 -0.0683,-0.64098 -0.18187,-0.94495 -0.0856,-0.22204 -0.17836,-0.44269 -0.31164,-0.64111 -1.57248,-2.35871 -0.46057,-3.09998 1.11191,-0.74127 z"
       inkscape:connector-curvature="0" />
    <path
       style="opacity:1;fill:#000000;fill-opacity:1;fill-rule:nonzero;stroke:none;stroke-width:0.2;stroke-linecap:round;stroke-linejoin:round;stroke-miterlimit:4;stroke-dasharray:none;stroke-dashoffset:0;stroke-opacity:1;paint-order:markers fill stroke"
       id="path7134"
       d="m 125.66972,222.10861 c 0.13972,0.17029 0.29118,0.33036 0.44573,0.48718 0.15769,0.15765 0.33358,0.28239 0.54877,0.34232 0.12867,0.0259 0.25019,0.009 0.36436,-0.0531 0.11494,-0.0658 0.17332,-0.17162 0.23353,-0.28421 0.0839,-0.25095 0.20878,-0.4601 0.3812,-0.65903 0.5393,-0.40224 1.0254,-0.0921 1.3516,0.37192 0.22643,0.37217 0.43745,0.75335 0.64711,1.13511 0.31131,0.57753 0.59652,1.16926 0.8786,1.76155 0.3213,0.66516 0.62551,1.33822 0.90131,2.0235 0.2727,0.67081 0.48975,1.36032 0.6502,2.06598 0.14009,0.62566 0.20482,1.26229 0.19222,1.90256 -0.0178,0.55885 -0.16727,1.08768 -0.41564,1.58483 -0.23305,0.43407 -0.58071,0.75798 -1.00867,0.99136 -0.46848,0.22137 -0.92345,0.18675 -1.37842,-0.0373 -0.46476,-0.3125 -0.62059,-0.80188 -0.69081,-1.33036 -0.046,-0.54908 0.0412,-1.09147 0.138,-1.6297 0.11624,-0.57502 0.25667,-1.14519 0.41148,-1.71096 0.0996,-0.35532 0.0507,-0.17907 0.14691,-0.52872 0.75216,-2.73321 2.04061,-2.37864 1.28844,0.35457 v 0 c -0.0973,0.35357 -0.0484,0.17765 -0.14665,0.52779 -0.14508,0.52699 -0.27471,1.05862 -0.38496,1.59401 -0.0736,0.40823 -0.14863,0.81781 -0.12626,1.23495 0.008,0.0927 0.0652,0.25766 0.0264,0.32789 -0.10394,0.004 0.0744,0.0594 0.10716,0.008 0.18971,-0.0723 0.32255,-0.24448 0.42794,-0.41084 0.1673,-0.31231 0.25244,-0.6526 0.2691,-1.00711 0.0152,-0.53081 -0.0469,-1.05831 -0.15986,-1.57716 -0.14211,-0.63654 -0.34207,-1.25654 -0.58647,-1.86141 -0.26504,-0.65988 -0.55901,-1.30731 -0.86807,-1.94772 -0.2707,-0.56912 -0.54487,-1.13751 -0.84332,-1.69263 -0.19083,-0.34756 -0.3837,-0.69399 -0.58622,-1.03492 -0.0112,-0.0208 -0.0554,-0.0698 -0.0329,-0.0627 0.24691,0.078 0.49036,0.14175 0.70494,-0.077 0.20715,-0.28747 -0.14281,0.28711 -0.13265,0.3438 -0.21257,0.3642 -0.47979,0.67422 -0.87152,0.85323 -0.42342,0.1688 -0.85681,0.2238 -1.30219,0.0943 -0.41436,-0.14263 -0.78211,-0.35949 -1.08864,-0.67705 -0.21216,-0.21703 -0.42372,-0.43665 -0.60369,-0.68175 -1.57247,-2.35871 -0.46057,-3.09998 1.11191,-0.74127 z"
       inkscape:connector-curvature="0" />
    <path
       style="opacity:1;fill:#000000;fill-opacity:1;fill-rule:nonzero;stroke:none;stroke-width:0.2;stroke-linecap:round;stroke-linejoin:round;stroke-miterlimit:4;stroke-dasharray:none;stroke-dashoffset:0;stroke-opacity:1;paint-order:markers fill stroke"
       id="path7138"
       d="m 134.68131,226.00791 c 0.12164,0.13464 0.27071,0.23373 0.43252,0.31278 0.12217,0.0534 0.24624,0.0703 0.37757,0.0526 0.0694,-0.0189 0.11259,-0.0773 0.15661,-0.13026 0.0892,-0.10475 0.0984,-0.23498 0.11316,-0.36551 0.0128,-0.16262 -0.0308,-0.31158 -0.11242,-0.45018 -0.0844,-0.13485 -0.20578,-0.22186 -0.34666,-0.28915 -0.13382,-0.0601 -0.28533,-0.0777 -0.43008,-0.0552 -2.82459,0.24062 -2.93802,-1.09091 -0.11343,-1.33153 v 0 c 0.40398,-0.0264 0.80375,0.0173 1.16912,0.20584 0.37541,0.20631 0.69823,0.47281 0.90727,0.85463 0.19311,0.38906 0.30222,0.79896 0.25147,1.23723 -0.0574,0.4155 -0.18123,0.80541 -0.47402,1.1189 -0.28665,0.28756 -0.61522,0.49968 -1.02995,0.53844 -0.37341,0.0187 -0.73691,-0.0267 -1.07612,-0.19553 -0.28326,-0.14767 -0.55082,-0.32259 -0.76998,-0.55813 -2.00452,-2.00453 -1.05958,-2.94947 0.94494,-0.94495 z"
       inkscape:connector-curvature="0" />
    <path
       style="opacity:1;fill:#000000;fill-opacity:1;fill-rule:nonzero;stroke:none;stroke-width:0.2;stroke-linecap:round;stroke-linejoin:round;stroke-miterlimit:4;stroke-dasharray:none;stroke-dashoffset:0;stroke-opacity:1;paint-order:markers fill stroke"
       id="path7140"
       d="m 137.42958,217.8323 c 0.18528,0.2628 0.34507,0.54211 0.49757,0.82481 0.26411,0.46258 0.48741,0.94634 0.72384,1.4232 0.29757,0.61894 0.57756,1.24622 0.83434,1.88313 0.29309,0.71842 0.46259,1.47492 0.58294,2.23876 0.10901,0.76442 0.10637,1.53591 0.0672,2.30503 -0.0377,0.6924 -0.16721,1.37029 -0.33729,2.04066 -0.11691,0.40035 -0.054,0.20232 -0.18838,0.59416 -0.92569,2.67942 -2.18878,2.24305 -1.26309,-0.43638 v 0 c 0.11034,-0.31629 0.058,-0.15408 0.15629,-0.48691 0.14898,-0.5852 0.26504,-1.17596 0.29792,-1.78077 0.0359,-0.67721 0.0402,-1.35647 -0.053,-2.02997 -0.10215,-0.66383 -0.24847,-1.32122 -0.5022,-1.94552 -0.24324,-0.60518 -0.51026,-1.20048 -0.79201,-1.78872 -0.22965,-0.46343 -0.44627,-0.93369 -0.70311,-1.3831 -0.13223,-0.24607 -0.27089,-0.48911 -0.43287,-0.71711 -1.57247,-2.35871 -0.46056,-3.09998 1.11191,-0.74127 z"
       inkscape:connector-curvature="0" />
    <path
       style="opacity:1;fill:#000000;fill-opacity:1;fill-rule:nonzero;stroke:none;stroke-width:0.2;stroke-linecap:round;stroke-linejoin:round;stroke-miterlimit:4;stroke-dasharray:none;stroke-dashoffset:0;stroke-opacity:1;paint-order:markers fill stroke"
       id="path7142"
       d="m 206.8564,150.15257 c -0.12392,0.1858 -0.2194,0.38413 -0.30014,0.59165 -0.13316,0.33264 -0.18513,0.68524 -0.23021,1.03814 -0.0518,0.51123 -0.0227,1.02447 0.01,1.53571 0.0524,0.64645 0.17328,1.28532 0.31392,1.91767 0.14995,0.65967 0.38423,1.29428 0.64469,1.91707 0.246,0.54718 0.52978,1.07731 0.85683,1.58024 0.18915,0.28465 0.41382,0.54071 0.66634,0.76999 2.08522,1.92043 1.17992,2.90341 -0.9053,0.98298 v 0 c -0.33199,-0.30871 -0.63402,-0.64616 -0.88282,-1.02673 -0.36842,-0.5712 -0.69302,-1.17 -0.9683,-1.79176 -0.28997,-0.69605 -0.54986,-1.40552 -0.71613,-2.14262 -0.15464,-0.69992 -0.28767,-1.40685 -0.34291,-2.12244 -0.0376,-0.59635 -0.0669,-1.19525 -0.001,-1.79108 0.0601,-0.46226 0.1378,-0.92289 0.31264,-1.35801 0.11745,-0.29439 0.25509,-0.57773 0.43117,-0.84208 1.57247,-2.35871 2.68438,-1.61744 1.1119,0.74127 z"
       inkscape:connector-curvature="0" />
    <path
       style="opacity:1;fill:#000000;fill-opacity:1;fill-rule:nonzero;stroke:none;stroke-width:0.2;stroke-linecap:round;stroke-linejoin:round;stroke-miterlimit:4;stroke-dasharray:none;stroke-dashoffset:0;stroke-opacity:1;paint-order:markers fill stroke"
       id="path7144"
       d="m 211.56101,151.6156 c 0.25267,0.17396 0.48765,0.37134 0.73679,0.55015 0.37902,0.2706 0.76207,0.53502 1.15193,0.78972 0.37762,0.23372 0.74803,0.47866 1.13222,0.70154 2.45025,1.42565 1.77819,2.58071 -0.67206,1.15506 v 0 c -0.40359,-0.23542 -0.79466,-0.49073 -1.19111,-0.73788 -0.40682,-0.26584 -0.80662,-0.54174 -1.20212,-0.82417 -0.23549,-0.17017 -0.46053,-0.35368 -0.69693,-0.52251 -2.35871,-1.57248 -1.61744,-2.68439 0.74128,-1.11191 z"
       inkscape:connector-curvature="0" />
    <path
       style="opacity:1;fill:#000000;fill-opacity:1;fill-rule:nonzero;stroke:none;stroke-width:0.2;stroke-linecap:round;stroke-linejoin:round;stroke-miterlimit:4;stroke-dasharray:none;stroke-dashoffset:0;stroke-opacity:1;paint-order:markers fill stroke"
       id="path7146"
       d="m 214.38953,150.08076 c -0.0969,0.22891 -0.1692,0.46723 -0.24542,0.70363 -0.13715,0.44508 -0.28147,0.88798 -0.41187,1.3351 -0.16375,0.53894 -0.32061,1.08002 -0.47273,1.62236 -0.0705,0.27741 -0.15379,0.55134 -0.23443,0.82592 -0.79889,2.71992 -2.08108,2.34332 -1.28219,-0.3766 v 0 c 0.0791,-0.26939 0.16103,-0.53808 0.22997,-0.81034 0.1535,-0.54691 0.31153,-1.09263 0.47667,-1.63614 0.13428,-0.45881 0.28152,-0.91368 0.42271,-1.3704 0.0969,-0.30055 0.19001,-0.60369 0.32202,-0.89117 1.26777,-2.53554 2.46304,-1.93791 1.19527,0.59764 z"
       inkscape:connector-curvature="0" />
    <path
       style="opacity:1;fill:#000000;fill-opacity:1;fill-rule:nonzero;stroke:none;stroke-width:0.2;stroke-linecap:round;stroke-linejoin:round;stroke-miterlimit:4;stroke-dasharray:none;stroke-dashoffset:0;stroke-opacity:1;paint-order:markers fill stroke"
       id="path7148"
       d="m 221.4328,154.06616 c 0.002,0.25858 -0.006,0.5173 0.007,0.77561 0.0221,0.36247 0.0472,0.72424 0.0918,1.08466 0.0294,0.20535 0.0504,0.41126 0.0674,0.61793 0.22554,2.82583 -1.10657,2.93215 -1.33211,0.10632 v 0 c -0.0143,-0.18771 -0.0357,-0.37434 -0.0616,-0.56084 -0.0484,-0.39418 -0.077,-0.78978 -0.10038,-1.1862 -0.0119,-0.27906 -0.009,-0.55819 -0.009,-0.83748 0,-2.83482 1.33635,-2.83482 1.33635,0 z"
       inkscape:connector-curvature="0" />
    <path
       style="opacity:1;fill:#000000;fill-opacity:1;fill-rule:nonzero;stroke:none;stroke-width:0.2;stroke-linecap:round;stroke-linejoin:round;stroke-miterlimit:4;stroke-dasharray:none;stroke-dashoffset:0;stroke-opacity:1;paint-order:markers fill stroke"
       id="path7150"
       d="m 222.42129,147.27315 c 0.14037,0.18927 0.29593,0.3677 0.45332,0.54314 0.20131,0.21669 0.409,0.42414 0.65203,0.59369 0.13746,0.0965 0.28079,0.1599 0.4492,0.14459 0.10164,-0.0157 0.17528,-0.0795 0.24558,-0.14959 0.14054,-0.1742 0.25639,-0.36537 0.39796,-0.53943 0.35411,-0.41083 0.83419,-0.43715 1.28231,-0.16924 0.29592,0.25452 0.42699,0.61435 0.56593,0.9668 0.15733,0.43657 0.28353,0.88355 0.42573,1.32517 0.18418,0.58228 0.38214,1.16019 0.5869,1.73553 0.2268,0.66389 0.47329,1.32037 0.72146,1.97644 0.23987,0.64457 0.48941,1.2851 0.71239,1.93584 0.2017,0.58295 0.32937,1.18242 0.36628,1.79757 0.0243,0.5345 -0.10062,1.02311 -0.38363,1.47356 -0.30014,0.41347 -0.71773,0.62868 -1.20743,0.72938 -0.44607,0.0647 -0.87495,-0.0481 -1.29126,-0.19675 -0.45666,-0.1661 -0.79039,-0.48412 -1.05988,-0.87761 -0.27538,-0.42609 -0.3349,-0.90635 -0.31829,-1.40168 0.0408,-0.51884 0.20678,-1.0143 0.37617,-1.50268 0.1799,-0.50426 0.40629,-0.98932 0.61742,-1.4807 0.037,-0.0837 0.0739,-0.16749 0.11084,-0.25124 1.14452,-2.59351 2.36711,-2.05398 1.22259,0.53953 v 0 c -0.0352,0.0798 -0.0705,0.15967 -0.10572,0.23951 -0.19879,0.46218 -0.41209,0.91831 -0.58299,1.39203 -0.12776,0.36585 -0.25804,0.73587 -0.30328,1.12275 -0.0139,0.21309 -0.0148,0.42109 0.10067,0.60953 0.0948,0.16503 0.21939,0.28618 0.40018,0.35504 0.19118,0.0721 0.39,0.14181 0.59701,0.13703 0.13188,-0.011 0.23711,-0.0517 0.32954,-0.15162 0.14844,-0.189 0.16296,-0.4287 0.1637,-0.66329 -0.0229,-0.49294 -0.13901,-0.97037 -0.29621,-1.43746 -0.21811,-0.63748 -0.46352,-1.2645 -0.69804,-1.896 -0.25122,-0.66432 -0.50081,-1.32905 -0.73055,-2.00124 -0.20921,-0.58818 -0.41169,-1.17891 -0.59998,-1.77415 -0.13329,-0.41449 -0.25322,-0.83339 -0.39687,-1.24442 -0.0174,-0.0443 -0.26739,-0.52503 -0.10483,-0.37333 0.17781,0.0768 0.44802,0.0639 0.52805,-0.0607 -0.19239,0.22017 -0.31338,0.49928 -0.54323,0.68895 -0.32742,0.27759 -0.69307,0.47072 -1.13228,0.48283 -0.44599,-0.0117 -0.85673,-0.12717 -1.22182,-0.39326 -0.31957,-0.23121 -0.6064,-0.4972 -0.87107,-0.78977 -0.19933,-0.22284 -0.39644,-0.44969 -0.56981,-0.69347 -1.57247,-2.35872 -0.46057,-3.09999 1.11191,-0.74127 z"
       inkscape:connector-curvature="0" />
    <path
       style="opacity:1;fill:#000000;fill-opacity:1;fill-rule:nonzero;stroke:none;stroke-width:0.2;stroke-linecap:round;stroke-linejoin:round;stroke-miterlimit:4;stroke-dasharray:none;stroke-dashoffset:0;stroke-opacity:1;paint-order:markers fill stroke"
       id="path7152"
       d="m 231.54222,144.405 c 0.15159,0.27146 0.28379,0.55343 0.42219,0.8318 0.24531,0.50898 0.46371,1.02956 0.65689,1.56035 0.24196,0.68544 0.39888,1.39575 0.54395,2.10667 0.14657,0.77911 0.20604,1.57074 0.23875,2.36174 0.0307,0.75911 -0.005,1.5185 -0.0751,2.27434 -0.0156,0.11862 -0.0312,0.23723 -0.0469,0.35584 -0.37413,2.81003 -1.69879,2.63366 -1.32466,-0.17636 v 0 c 0.0137,-0.10136 0.0273,-0.20271 0.041,-0.30406 0.0658,-0.6963 0.0979,-1.39608 0.0703,-2.09547 -0.0287,-0.71963 -0.0822,-1.43992 -0.21292,-2.14911 -0.13172,-0.64681 -0.27228,-1.29357 -0.49074,-1.91774 -0.17496,-0.48374 -0.37505,-0.95727 -0.59731,-1.42127 -0.13798,-0.27754 -0.26961,-0.55849 -0.42083,-0.8291 -1.26777,-2.53554 -0.0725,-3.13317 1.19526,-0.59763 z"
       inkscape:connector-curvature="0" />
    <path
       style="opacity:1;fill:#000000;fill-opacity:1;fill-rule:nonzero;stroke:none;stroke-width:0.2;stroke-linecap:round;stroke-linejoin:round;stroke-miterlimit:4;stroke-dasharray:none;stroke-dashoffset:0;stroke-opacity:1;paint-order:markers fill stroke"
       id="path7154"
       d="m 248.33253,126.08233 c -0.21958,0.0232 -0.4311,0.0837 -0.63691,0.1615 -0.24846,0.10341 -0.45908,0.27221 -0.6533,0.45512 -0.21141,0.20544 -0.36737,0.45093 -0.49109,0.71618 -0.12612,0.27793 -0.18491,0.57876 -0.20895,0.88137 -0.0139,0.27644 0.0476,0.541 0.15931,0.79176 0.0823,0.15846 0.1765,0.31276 0.33205,0.40565 0.0607,0.0363 0.0945,0.008 0.152,-0.0145 0.13272,-0.0575 0.23177,-0.15427 0.32261,-0.26337 0.19901,-0.22574 0.34598,-0.48766 0.4778,-0.75633 0.14787,-0.31941 0.26316,-0.65319 0.34777,-0.99461 0.0848,-0.35117 0.18638,-0.69389 0.37417,-1.00403 0.31939,-0.45276 0.8113,-0.50243 1.27712,-0.2506 0.29801,0.2122 0.50994,0.51804 0.71457,0.81613 0.23251,0.34787 0.46477,0.69598 0.70162,1.04092 0.22015,0.32134 0.45544,0.63117 0.70996,0.92592 1.8484,2.14934 0.83519,3.02068 -1.0132,0.87134 v 0 c -0.28494,-0.33245 -0.55173,-0.67914 -0.79855,-1.04102 -0.238,-0.34688 -0.4717,-0.69672 -0.70541,-1.04648 -0.097,-0.14531 -0.21665,-0.28718 -0.30955,-0.42881 0.21544,0.0586 0.41599,0.0207 0.54771,-0.16502 -0.12886,0.16692 -0.12607,0.41883 -0.20305,0.60996 -0.11118,0.43189 -0.25333,0.856 -0.44555,1.25921 -0.18617,0.37353 -0.39612,0.73568 -0.6748,1.04919 -0.28331,0.3117 -0.60846,0.56708 -1.02226,0.67961 -0.43027,0.0877 -0.84395,0.0585 -1.21923,-0.1927 -0.35122,-0.2565 -0.61931,-0.58172 -0.79725,-0.98155 -0.18696,-0.457 -0.29588,-0.9338 -0.25874,-1.43125 0.0448,-0.46 0.13542,-0.91546 0.33385,-1.33649 0.20141,-0.41583 0.45199,-0.80192 0.78982,-1.12167 0.32655,-0.29849 0.68091,-0.56703 1.09766,-0.72757 0.29536,-0.10739 0.59736,-0.1955 0.91083,-0.2308 2.80633,-0.4009 2.99532,0.92201 0.18899,1.32292 z"
       inkscape:connector-curvature="0" />
    <path
       style="opacity:1;fill:#000000;fill-opacity:1;fill-rule:nonzero;stroke:none;stroke-width:0.2;stroke-linecap:round;stroke-linejoin:round;stroke-miterlimit:4;stroke-dasharray:none;stroke-dashoffset:0;stroke-opacity:1;paint-order:markers fill stroke"
       id="path7166"
       d="m 243.27062,121.53756 c 0.27832,0.005 0.55574,-0.001 0.83351,-0.0183 0.46212,-0.0316 0.92469,-0.0558 1.38739,-0.0769 0.53003,-0.0275 1.06101,-0.0323 1.59082,-0.0631 0.49327,-0.0284 0.98456,-0.0618 1.47008,-0.15561 0.0756,0.0344 0.46139,-0.18955 0.39459,-0.15966 -0.0571,0.0553 -0.0461,-0.0273 -0.0501,-0.0764 -0.0849,-0.2659 -0.0631,-0.53928 -0.004,-0.80672 0.12429,-0.39425 0.41183,-0.65115 0.75882,-0.85045 0.3292,-0.16508 0.68921,-0.22358 1.05114,-0.26259 0.41221,-0.0424 0.80848,0.01 1.19369,0.15814 0.38453,0.18013 0.62777,0.49181 0.80057,0.86804 0.0835,0.20532 0.09,0.41504 0.0888,0.63228 -0.10768,2.83278 -1.44306,2.78201 -1.33539,-0.0508 v 0 c 0.005,-0.0208 0.0136,-0.0408 0.0151,-0.0627 -0.0193,-0.053 -0.0405,-0.10649 -0.0786,-0.15144 -0.16565,-0.0901 -0.36121,-0.068 -0.54321,-0.0647 -0.19205,0.02 -0.38421,0.038 -0.56433,0.11343 -0.0313,0.0143 -0.095,0.0713 -0.0946,0.0122 -0.001,0.0214 0.0177,0.30497 0.0463,0.3839 0.0193,0.37149 -0.0358,0.72415 -0.26921,1.02749 -0.31886,0.33175 -0.70597,0.51479 -1.15843,0.6025 -0.54342,0.10284 -1.09226,0.14778 -1.64426,0.17716 -0.53505,0.0302 -1.07106,0.0374 -1.60633,0.0639 -0.45609,0.0208 -0.91204,0.0447 -1.36756,0.0759 -0.30468,0.0184 -0.60912,0.0259 -0.91437,0.0208 -2.83482,0 -2.83482,-1.33635 0,-1.33635 z"
       inkscape:connector-curvature="0" />
    <path
       style="opacity:1;fill:#000000;fill-opacity:1;fill-rule:nonzero;stroke:none;stroke-width:0.2;stroke-linecap:round;stroke-linejoin:round;stroke-miterlimit:4;stroke-dasharray:none;stroke-dashoffset:0;stroke-opacity:1;paint-order:markers fill stroke"
       id="path7178"
       d="m 124.22021,160.01382 c 0.21627,0.21284 0.40387,0.45226 0.58485,0.69511 0.2387,0.32299 0.47303,0.64928 0.70253,0.97887 0.26725,0.38357 0.52101,0.77632 0.77723,1.16727 0.25124,0.39099 0.51145,0.77583 0.77315,1.15983 0.24436,0.34011 0.48348,0.68452 0.7542,1.00443 0.20649,0.24983 0.46765,0.42988 0.75198,0.57864 0.20335,0.10259 0.41194,0.15562 0.6384,0.1413 0.20442,-0.026 0.39922,-0.10112 0.56483,-0.22349 0.0141,-0.0151 0.0283,-0.0303 0.0424,-0.0454 2.12726,-1.87377 3.01056,-0.87097 0.8833,1.0028 v 0 c -0.0617,0.0516 -0.12329,0.10323 -0.18494,0.15485 -0.38713,0.24799 -0.80796,0.42192 -1.27286,0.44719 -0.45736,0.004 -0.89222,-0.0824 -1.30007,-0.29816 -0.432,-0.23333 -0.8301,-0.51639 -1.14587,-0.89769 -0.29781,-0.35593 -0.56749,-0.73343 -0.8357,-1.11196 -0.26619,-0.39071 -0.53085,-0.78228 -0.7866,-1.17995 -0.24935,-0.38066 -0.49643,-0.76299 -0.75645,-1.1365 -0.22143,-0.31864 -0.44829,-0.63357 -0.67873,-0.94574 -0.1409,-0.19099 -0.2874,-0.37944 -0.45659,-0.54646 -2.00452,-2.00452 -1.05958,-2.94946 0.94494,-0.94494 z"
       inkscape:connector-curvature="0" />
    <path
       style="opacity:1;fill:#000000;fill-opacity:1;fill-rule:nonzero;stroke:none;stroke-width:0.2;stroke-linecap:round;stroke-linejoin:round;stroke-miterlimit:4;stroke-dasharray:none;stroke-dashoffset:0;stroke-opacity:1;paint-order:markers fill stroke"
       id="path7180"
       d="m 122.69854,163.28338 c 0.26199,-0.12665 0.53134,-0.23672 0.79333,-0.36337 0.376,-0.17278 0.73825,-0.3739 1.0942,-0.58443 0.25448,-0.1531 0.4981,-0.32263 0.73614,-0.49987 2.27713,-1.68847 3.07308,-0.61502 0.79596,1.07344 v 0 c -0.27635,0.20422 -0.55793,0.40125 -0.85323,0.5775 -0.38869,0.22868 -0.78315,0.44885 -1.19319,0.63733 -0.27997,0.13444 -0.56644,0.25408 -0.8468,0.3877 -2.60561,1.11669 -3.13202,-0.11161 -0.52641,-1.2283 z"
       inkscape:connector-curvature="0" />
    <path
       style="opacity:1;fill:#000000;fill-opacity:1;fill-rule:nonzero;stroke:none;stroke-width:0.2;stroke-linecap:round;stroke-linejoin:round;stroke-miterlimit:4;stroke-dasharray:none;stroke-dashoffset:0;stroke-opacity:1;paint-order:markers fill stroke"
       id="path7194"
       d="m 131.70376,154.13389 c 0.21615,0.24441 0.41009,0.50802 0.60767,0.76753 0.31181,0.40848 0.59289,0.83897 0.87756,1.26648 0.34154,0.50812 0.68802,1.01287 1.04473,1.51047 0.37584,0.52425 0.76015,1.04207 1.14686,1.55834 0.29121,0.39505 0.58987,0.78366 0.90064,1.1635 1.79479,2.1943 0.76038,3.04037 -1.03441,0.84607 v 0 c -0.32271,-0.39464 -0.63324,-0.79813 -0.93581,-1.20843 -0.39231,-0.52377 -0.78208,-1.04921 -1.16347,-1.58101 -0.36554,-0.51014 -0.72091,-1.02738 -1.07088,-1.54832 -0.26901,-0.40408 -0.53403,-0.81137 -0.82849,-1.19761 -0.16141,-0.212 -0.32269,-0.42418 -0.48934,-0.63208 -2.00452,-2.00452 -1.05958,-2.94946 0.94494,-0.94494 z"
       inkscape:connector-curvature="0" />
    <path
       style="opacity:1;fill:#000000;fill-opacity:1;fill-rule:nonzero;stroke:none;stroke-width:0.2;stroke-linecap:round;stroke-linejoin:round;stroke-miterlimit:4;stroke-dasharray:none;stroke-dashoffset:0;stroke-opacity:1;paint-order:markers fill stroke"
       id="path7196"
       d="m 140.04,152.25351 c -0.11919,-0.0216 -0.23772,-0.006 -0.35508,0.0204 -0.16377,0.0442 -0.30023,0.14726 -0.42551,0.25772 -0.16717,0.15455 -0.28121,0.34615 -0.37094,0.55263 -0.0977,0.24326 -0.093,0.49394 -0.0809,0.75018 0.0268,0.33122 0.12377,0.65102 0.24213,0.95981 0.1124,0.28488 0.29622,0.52402 0.50892,0.74024 0.16037,0.1641 0.35282,0.26963 0.57105,0.33311 0.13354,0.0321 0.25625,0.0326 0.38285,-0.0171 0.13171,-0.0602 0.22497,-0.16939 0.31151,-0.28159 0.1412,-0.19069 0.2299,-0.40737 0.29681,-0.63292 0.0948,-0.31191 0.11807,-0.63744 0.14487,-0.96047 0.0105,-0.35821 -0.002,-0.71589 0.0183,-1.07384 0.0209,-0.3785 0.14378,-0.70395 0.37411,-1.00104 0.33602,-0.34041 0.76003,-0.34277 1.18699,-0.20497 0.31741,0.11556 0.60505,0.29798 0.8818,0.48879 0.30246,0.20768 0.59633,0.42763 0.88934,0.64833 0.0417,0.0296 0.0833,0.0591 0.125,0.0886 2.30972,1.64361 1.53491,2.73242 -0.7748,1.08881 v 0 c -0.0516,-0.0368 -0.10312,-0.0736 -0.15467,-0.11038 -0.27952,-0.21095 -0.56027,-0.42066 -0.84891,-0.61901 -0.16913,-0.11989 -0.34651,-0.23304 -0.53674,-0.31621 -0.15173,-0.0524 0.17314,-0.0419 0.23143,-0.1769 0.0744,-0.14591 -0.0718,0.13449 -0.0394,0.19033 -0.0218,0.36933 -7e-5,0.73897 -0.0207,1.10847 -0.035,0.41796 -0.0737,0.83777 -0.19874,1.24049 -0.1211,0.38823 -0.28425,0.75988 -0.53621,1.08296 -0.26076,0.31489 -0.56096,0.58453 -0.95609,0.71749 -0.39493,0.1131 -0.78874,0.13092 -1.18681,0.012 -0.42339,-0.1424 -0.8103,-0.35137 -1.12296,-0.67741 -0.33435,-0.35112 -0.62217,-0.73901 -0.79717,-1.19586 -0.16522,-0.44254 -0.29797,-0.8997 -0.32698,-1.37387 -0.0189,-0.46503 0.0107,-0.92347 0.1977,-1.35718 0.17759,-0.38615 0.40448,-0.74234 0.72745,-1.02485 0.3082,-0.25462 0.64449,-0.46931 1.0426,-0.55014 0.32185,-0.0556 0.64751,-0.0785 0.96693,0.008 2.72575,0.77878 2.35862,2.06371 -0.36713,1.28493 z"
       inkscape:connector-curvature="0" />
    <path
       style="opacity:1;fill:#000000;fill-opacity:1;fill-rule:nonzero;stroke:none;stroke-width:0.2;stroke-linecap:round;stroke-linejoin:round;stroke-miterlimit:4;stroke-dasharray:none;stroke-dashoffset:0;stroke-opacity:1;paint-order:markers fill stroke"
       id="path7198"
       d="m 135.67941,149.70293 c 0.23872,-0.14159 0.46713,-0.29947 0.6982,-0.45301 0.32153,-0.21388 0.64109,-0.43003 0.94966,-0.66236 0.27525,-0.1901 0.52996,-0.40533 0.73961,-0.66647 0.0389,0.003 0.13883,-0.27207 0.0861,-0.18917 -0.001,0.0108 0.006,0.0386 -0.003,0.0324 -0.11505,-0.0797 -0.085,-0.604 -0.0714,-0.71701 0.0936,-0.39581 0.37211,-0.64392 0.70968,-0.839 0.31931,-0.16765 0.66408,-0.21259 1.01891,-0.18844 0.41044,0.0551 0.7155,0.29154 0.97366,0.59912 0.11995,0.15596 0.193,0.33543 0.26487,0.51621 1.02262,2.64394 -0.22374,3.12601 -1.24637,0.48207 v 0 c -0.0192,-0.0528 -0.0409,-0.10485 -0.0578,-0.15828 -0.0244,-0.0349 -0.057,-0.0676 -0.0647,-0.10915 -0.0802,-0.0147 -0.16003,-0.003 -0.23784,0.0257 -0.1191,0.0585 -0.0507,0.004 -0.0453,-0.091 -0.0159,-0.23216 0.0663,0.34795 0.0917,0.34418 0.0121,0.42866 -0.11249,0.80559 -0.38629,1.14105 -0.28243,0.33871 -0.60468,0.63711 -0.96958,0.88649 -0.32967,0.24683 -0.66915,0.47917 -1.01236,0.70666 -0.23047,0.15311 -0.45806,0.31123 -0.69646,0.45185 -2.35871,1.57247 -3.09999,0.46057 -0.74127,-1.11191 z"
       inkscape:connector-curvature="0" />
    <path
       style="opacity:1;fill:#000000;fill-opacity:1;fill-rule:nonzero;stroke:none;stroke-width:0.2;stroke-linecap:round;stroke-linejoin:round;stroke-miterlimit:4;stroke-dasharray:none;stroke-dashoffset:0;stroke-opacity:1;paint-order:markers fill stroke"
       id="path7200"
       d="m 145.67735,145.42374 c 0.15928,0.22937 0.33974,0.44288 0.51272,0.66182 0.30023,0.37561 0.59964,0.75188 0.90019,1.12726 0.3774,0.46004 0.74882,0.92493 1.12624,1.38498 0.39612,0.46387 0.80119,0.91977 1.21402,1.36881 0.32636,0.33996 0.65124,0.68133 0.982,1.01703 1.98904,2.01988 1.03686,2.95752 -0.95219,0.93764 v 0 c -0.34129,-0.34677 -0.67714,-0.69882 -1.01361,-1.05026 -0.42978,-0.46755 -0.85155,-0.94224 -1.26341,-1.42567 -0.38074,-0.46416 -0.75555,-0.93313 -1.13624,-1.39732 -0.30243,-0.37776 -0.60373,-0.75639 -0.90585,-1.13437 -0.19498,-0.24713 -0.39859,-0.48804 -0.57578,-0.74865 -1.57247,-2.35872 -0.46056,-3.09999 1.11191,-0.74127 z"
       inkscape:connector-curvature="0" />
  </g>
</svg>
