<?xml version="1.0" encoding="UTF-8" standalone="no"?>
<!-- Created with Inkscape (http://www.inkscape.org/) -->

<svg
   xmlns:dc="http://purl.org/dc/elements/1.1/"
   xmlns:cc="http://creativecommons.org/ns#"
   xmlns:rdf="http://www.w3.org/1999/02/22-rdf-syntax-ns#"
   xmlns:svg="http://www.w3.org/2000/svg"
   xmlns="http://www.w3.org/2000/svg"
   xmlns:sodipodi="http://sodipodi.sourceforge.net/DTD/sodipodi-0.dtd"
   xmlns:inkscape="http://www.inkscape.org/namespaces/inkscape"
   width="297mm"
   height="210mm"
   viewBox="0 0 297 210"
   version="1.1"
   id="svg5498"
   inkscape:version="0.92.1 r15371"
   sodipodi:docname="xn-to-a.svg">
  <defs
     id="defs5492" />
  <sodipodi:namedview
     id="base"
     pagecolor="#ffffff"
     bordercolor="#666666"
     borderopacity="1.0"
     inkscape:pageopacity="0.0"
     inkscape:pageshadow="2"
     inkscape:zoom="0.98994949"
     inkscape:cx="469.66138"
     inkscape:cy="395.71217"
     inkscape:document-units="mm"
     inkscape:current-layer="layer1"
     showgrid="false"
     inkscape:window-width="1920"
     inkscape:window-height="1046"
     inkscape:window-x="-11"
     inkscape:window-y="-11"
     inkscape:window-maximized="1" />
  <metadata
     id="metadata5495">
    <rdf:RDF>
      <cc:Work
         rdf:about="">
        <dc:format>image/svg+xml</dc:format>
        <dc:type
           rdf:resource="http://purl.org/dc/dcmitype/StillImage" />
        <dc:title></dc:title>
      </cc:Work>
    </rdf:RDF>
  </metadata>
  <g
     inkscape:label="Layer 1"
     inkscape:groupmode="layer"
     id="layer1"
     transform="translate(0,-87)">
    <path
       style="opacity:1;fill:#000000;fill-opacity:1;fill-rule:nonzero;stroke:#000000;stroke-width:0.39700001;stroke-linecap:round;stroke-linejoin:round;stroke-miterlimit:4;stroke-dasharray:none;stroke-dashoffset:0;stroke-opacity:1;paint-order:markers fill stroke"
       id="path6045"
       d="m 40.051286,178.73205 c 0.283189,-0.0397 0.568417,-0.0612 0.853508,-0.0816 0.430224,-0.0285 0.861082,-0.0454 1.291945,-0.0606 0.555887,-0.0392 1.11165,-0.0793 1.667992,-0.11174 0.721127,-0.0396 1.44078,-0.10184 2.161436,-0.14937 0.870286,-0.056 1.74153,-0.0946 2.612893,-0.12907 0.958024,-0.0368 1.916404,-0.0633 2.87482,-0.0874 0.987446,-0.0134 1.973794,-0.0611 2.960237,-0.10453 0.988499,-0.0441 1.977377,-0.0789 2.966339,-0.11068 0.963766,-0.0275 1.926328,-0.0865 2.889226,-0.13464 0.96927,-0.0486 1.939063,-0.0854 2.908964,-0.11846 0.987494,-0.0234 1.974131,-0.0636 2.960643,-0.11249 0.99731,-0.0511 1.995083,-0.092 2.993012,-0.12861 1.005789,-0.0459 2.012037,-0.0578 3.018689,-0.0565 1.016198,0.007 2.032542,0.002 3.048585,0.0222 1.031827,0.0286 2.063543,0.0609 3.095405,0.0884 1.044276,0.0307 2.089063,0.0407 3.133206,0.0753 1.027952,0.042 2.055842,0.085 3.083984,0.12217 1.027472,0.0463 2.055431,0.0578 3.083763,0.0569 1.045996,-0.003 2.091984,-0.009 3.137977,-0.0132 1.027547,-0.004 2.055098,-0.008 3.08265,-0.0111 1.001689,-0.003 2.003377,-0.005 3.005069,-0.008 0.992724,-0.002 1.985449,-0.004 2.978173,-0.005 0.993978,-0.0169 1.987618,-0.0493 2.981378,-0.0755 0.99882,-0.0265 1.99778,-0.0471 2.99677,-0.0655 0.99722,-0.0181 1.9945,-0.032 2.9918,-0.0445 1.00627,-0.001 2.01172,-0.0409 3.01721,-0.0758 1.02041,-0.0358 2.04105,-0.0649 3.06175,-0.0911 0.99294,-0.0251 1.986,-0.0447 2.9791,-0.0627 0.95632,-0.0169 1.9127,-0.0302 2.8691,-0.0423 0.91914,-0.0114 1.83832,-0.0204 2.7575,-0.0285 0.88195,-0.008 1.76391,-0.0138 2.64587,-0.0192 0.87951,-0.005 1.75902,-0.009 2.63853,-0.013 0.8957,-0.004 1.7914,-0.006 2.68711,-0.009 0.91213,-0.002 1.82425,-0.004 2.73638,-0.006 0.95345,-0.002 1.9069,-0.003 2.86036,-0.004 1.00802,-0.001 2.01605,-0.002 3.02407,-0.003 1.00657,-8e-4 2.01313,-0.001 3.01969,-0.002 0.98327,0.0138 1.96618,0.0455 2.94919,0.0713 0.95335,0.0223 1.90657,0.0407 2.85931,0.0822 0.90942,0.0433 1.81899,0.0832 2.72875,0.11862 0.86557,0.0369 1.73193,0.0522 2.59733,0.0923 0.84348,0.0463 1.6869,0.0933 2.53071,0.13348 0.84808,0.0401 1.69659,0.0702 2.54517,0.0973 0.86625,0.0275 1.73272,0.0475 2.59921,0.0659 0.89013,0.0184 1.78036,0.0322 2.67059,0.0445 0.92721,0.0125 1.85445,0.0216 2.7817,0.0301 0.9339,0.008 1.86782,0.0145 2.80174,0.0203 0.91769,0.006 1.83539,0.01 2.75308,0.0137 0.88108,0.004 1.76217,0.007 2.64326,0.009 0.84039,0.002 1.68079,0.004 2.52119,0.006 0.79452,0.002 1.58903,0.003 2.38355,0.004 0.74125,0.001 1.48249,0.002 2.22374,0.003 0.69866,8e-4 1.39731,0.001 2.09597,0.002 0.69342,5.2e-4 1.38684,10e-4 2.08026,10e-4 0.71136,0.003 1.42228,-0.0325 2.13304,-0.0582 0.75292,-0.0246 1.5044,-0.0807 2.25634,-0.12513 0.79253,-0.0353 1.58316,-0.1003 2.37427,-0.15793 0.82842,-0.0578 1.65753,-0.10246 2.48552,-0.16648 0.86564,-0.0698 1.73221,-0.12691 2.59914,-0.17772 0.86552,-0.0392 1.7292,-0.10739 2.5933,-0.16909 0.85239,-0.0605 1.70546,-0.11034 2.55882,-0.1549 0.83142,-0.0429 1.6633,-0.0759 2.49528,-0.10563 0.82181,-0.0291 1.64384,-0.0512 2.46592,-0.0712 0.80478,-0.0229 1.61004,-0.002 2.41482,0.0115 0.75698,0.009 1.51391,0.0329 2.27097,0.0267 0.75361,-0.014 1.50706,-0.035 2.26059,-0.0524 0.77206,-0.0176 1.5442,-0.031 2.31636,-0.0432 0.78179,-0.0121 1.56361,-0.0211 2.34544,-0.0293 0.77296,-0.008 1.54595,-0.0141 2.31893,-0.0198 0.75859,-0.005 1.51719,-0.01 2.27579,-0.0133 0.72419,-0.004 1.44838,-0.006 2.17258,-0.009 0.68745,-0.002 1.37491,-0.004 2.06236,-0.006 0.65546,-0.002 1.31092,-0.003 1.96639,-0.004 0.63671,-0.001 1.27343,-0.002 1.91014,-0.003 0.61243,-7.9e-4 1.22486,-10e-4 1.83729,-0.002 0.5982,-5.3e-4 1.1964,-7.9e-4 1.7946,-0.001 0.59484,-2.7e-4 1.18968,-5.3e-4 1.78452,-7.9e-4 0.57595,-2.3e-4 1.1519,-5.3e-4 1.72785,-5.3e-4 0.5625,-1.6e-4 1.125,-2.7e-4 1.68749,-2.7e-4 0.55341,-1e-4 1.10681,-1.9e-4 1.66022,-2.6e-4 0.52521,8e-4 1.05009,0.006 1.5748,-0.0189 0.26751,-0.0205 0.53736,-0.0476 0.78317,-0.16089 -0.0359,-0.0123 -0.0907,0.0531 -0.11401,0.11356 -0.01,0.14207 -0.12932,-0.098 -0.14444,-0.11954 -0.14725,-0.18291 -0.327,-0.33768 -0.50264,-0.49262 -0.2359,-0.17813 -0.45507,-0.37296 -0.63308,-0.60921 -0.33931,-0.65139 0.035,-1.13243 0.70002,-1.22089 0.35017,-0.0113 0.69604,0.0617 1.03562,0.13889 0.41835,0.10756 0.8244,0.25444 1.22724,0.40885 0.44012,0.16651 0.84996,0.37941 1.21463,0.67715 0.3934,0.35852 0.56004,0.81725 0.58609,1.33616 -0.0367,0.587 -0.37642,1.04348 -0.74872,1.47025 -0.40956,0.43182 -0.87063,0.81075 -1.33639,1.17971 -0.46994,0.37172 -0.95753,0.72046 -1.45197,1.05866 -2.34033,1.59972 -3.09444,0.49648 -0.75411,-1.10324 v 0 c 0.46899,-0.32033 0.93115,-0.65116 1.37685,-1.00337 0.4036,-0.31896 0.80307,-0.64627 1.16274,-1.01496 0.15786,-0.17684 0.31535,-0.35667 0.41531,-0.57414 0.0404,-0.11234 -0.0443,-0.24467 -0.11172,-0.32785 -0.23653,-0.21626 -0.54103,-0.32483 -0.83106,-0.45057 -0.34479,-0.1322 -0.6916,-0.25932 -1.04886,-0.35441 -0.21028,-0.0493 -0.42386,-0.0954 -0.63982,-0.10822 0.36724,-0.12519 0.51734,-0.55072 0.30011,-0.87667 0.0558,0.0957 0.30639,0.26899 0.42316,0.37347 0.25268,0.22451 0.50872,0.45047 0.70971,0.72429 0.21546,0.30651 0.40104,0.62209 0.38193,1.01212 -0.0685,0.43999 -0.27163,0.79137 -0.68844,0.99013 -0.398,0.16612 -0.81684,0.24764 -1.24789,0.26818 -0.54581,0.0257 -1.09174,0.022 -1.63805,0.0204 -0.55338,8e-5 -1.10676,1.6e-4 -1.66014,2.6e-4 -0.56245,1.1e-4 -1.12491,2.3e-4 -1.68737,2.7e-4 -0.5759,1.6e-4 -1.15179,2.6e-4 -1.72769,5.3e-4 -0.59476,2.4e-4 -1.18952,5.2e-4 -1.78428,7.9e-4 -0.59807,2.6e-4 -1.19614,7.9e-4 -1.79422,10e-4 -0.61227,5.3e-4 -1.22454,0.001 -1.8368,0.002 -0.63646,8e-4 -1.27292,0.002 -1.90938,0.003 -0.65515,10e-4 -1.3103,0.002 -1.96545,0.004 -0.68699,0.002 -1.37397,0.004 -2.06095,0.006 -0.72355,0.003 -1.44709,0.005 -2.17063,0.009 -0.7576,0.004 -1.5152,0.008 -2.2728,0.0133 -0.77153,0.006 -1.54305,0.0116 -2.31456,0.0197 -0.7795,0.008 -1.559,0.0172 -2.33845,0.0292 -0.76888,0.0121 -1.53774,0.0254 -2.30652,0.043 -0.76036,0.0176 -1.52063,0.0389 -2.28107,0.0527 -0.76811,0.006 -1.53606,-0.0166 -2.30408,-0.0268 -0.78637,-0.0134 -1.57323,-0.034 -2.3596,-0.0117 -0.81699,0.0199 -1.63393,0.0419 -2.45067,0.0707 -0.82468,0.0295 -1.64926,0.0621 -2.47338,0.10467 -0.84485,0.0441 -1.68943,0.0935 -2.53332,0.15332 -0.86976,0.0621 -1.73911,0.13065 -2.6103,0.17019 -0.85866,0.0503 -1.71696,0.10692 -2.57433,0.17604 -0.82996,0.0641 -1.66101,0.10922 -2.49142,0.16692 -0.79721,0.0581 -1.59395,0.12344 -2.39259,0.15914 -0.7621,0.045 -1.52374,0.10184 -2.28685,0.12658 -0.72707,0.0263 -1.4543,0.0621 -2.18199,0.0591 -0.69354,-2.6e-4 -1.38708,-7.9e-4 -2.08061,-10e-4 -0.6988,-5.3e-4 -1.3976,-0.001 -2.09639,-0.002 -0.74144,-8e-4 -1.48288,-0.002 -2.22432,-0.003 -0.79478,-10e-4 -1.58956,-0.003 -2.38434,-0.004 -0.8408,-0.002 -1.68161,-0.004 -2.52241,-0.006 -0.88163,-0.003 -1.76326,-0.006 -2.64488,-0.009 -0.91855,-0.004 -1.8371,-0.008 -2.75564,-0.0137 -0.93522,-0.006 -1.87044,-0.012 -2.80564,-0.0203 -0.92938,-0.008 -1.85876,-0.0175 -2.7881,-0.0301 -0.89351,-0.0124 -1.787,-0.0263 -2.6804,-0.0447 -0.87126,-0.0185 -1.74249,-0.0386 -2.61351,-0.0663 -0.85555,-0.0273 -1.71101,-0.0577 -2.56605,-0.0981 -0.84336,-0.0401 -1.68635,-0.087 -2.52939,-0.13342 -0.86197,-0.0404 -1.72496,-0.0546 -2.5871,-0.0919 -0.91182,-0.0355 -1.82345,-0.0755 -2.73493,-0.11888 -0.94504,-0.0412 -1.89057,-0.0591 -2.83621,-0.0814 -0.9711,-0.0255 -1.9421,-0.0567 -2.91345,-0.0708 -1.00646,5.3e-4 -2.01292,0.001 -3.01938,0.002 -1.00784,7.9e-4 -2.01569,0.002 -3.02353,0.003 -0.95317,10e-4 -1.90634,0.002 -2.85951,0.004 -0.91171,0.002 -1.82342,0.003 -2.73513,0.006 -0.89508,0.002 -1.79016,0.005 -2.68524,0.009 -0.87858,0.004 -1.75717,0.008 -2.63575,0.013 -0.88078,0.005 -1.76156,0.0115 -2.64232,0.0192 -0.91753,0.008 -1.83505,0.0171 -2.75254,0.0285 -0.95396,0.012 -1.90791,0.0253 -2.86179,0.0422 -0.98966,0.0179 -1.97929,0.0374 -2.9688,0.0624 -1.01669,0.0262 -2.03331,0.0551 -3.04972,0.0908 -1.01538,0.0353 -2.03073,0.0751 -3.0469,0.0765 -0.99467,0.0125 -1.98931,0.0264 -2.98389,0.0444 -0.9955,0.0184 -1.99097,0.0388 -2.98629,0.0653 -1.00483,0.0264 -2.00953,0.0594 -3.014589,0.0759 -0.99242,0.001 -1.98484,0.003 -2.977258,0.005 -1.001268,0.002 -2.002533,0.004 -3.003796,0.008 -1.027017,0.003 -2.054032,0.007 -3.081044,0.011 -1.047512,0.004 -2.095018,0.01 -3.142535,0.0132 -1.044798,7.9e-4 -2.089227,-0.0109 -3.133157,-0.0578 -1.026858,-0.0371 -2.05347,-0.08 -3.080133,-0.12204 -1.041223,-0.0347 -2.083118,-0.0441 -3.124473,-0.075 -1.02897,-0.0275 -2.057794,-0.0596 -3.086729,-0.0882 -1.007637,-0.0205 -2.015596,-0.0149 -3.023391,-0.022 -0.989735,-10e-4 -1.979052,0.0103 -2.967932,0.0556 -0.992188,0.0364 -1.984216,0.0771 -2.975782,0.12786 -0.993389,0.0493 -1.98691,0.0897 -2.981285,0.11336 -0.962859,0.0328 -1.925609,0.0694 -2.88784,0.11757 -0.970812,0.0485 -1.941285,0.10795 -2.912975,0.13561 -0.983692,0.0316 -1.967299,0.0662 -2.95053,0.11008 -0.994831,0.0438 -1.989577,0.0917 -2.985416,0.1054 -0.952018,0.0239 -1.903997,0.0502 -2.855629,0.0868 -0.859639,0.034 -1.719165,0.072 -2.577746,0.12722 -0.72405,0.0477 -1.44708,0.11034 -2.171615,0.15 -0.566639,0.033 -1.132607,0.0749 -1.698892,0.11318 -0.414774,0.0145 -0.829543,0.0308 -1.243711,0.058 -0.253685,0.018 -0.507545,0.0366 -0.759587,0.0715 -2.80633,0.4009 -2.995319,-0.92201 -0.188989,-1.32292 z"
       inkscape:connector-curvature="0" />
    <path
       style="opacity:1;fill:#da03ae;fill-opacity:1;fill-rule:nonzero;stroke:#da03ae;stroke-width:0.39700001;stroke-linecap:round;stroke-linejoin:round;stroke-miterlimit:4;stroke-dasharray:none;stroke-dashoffset:0;stroke-opacity:1;paint-order:markers fill stroke"
       id="path6047"
       d="m 136.97682,174.01688 c 0.0431,0.30254 0.0559,0.60813 0.0877,0.91182 0.0596,0.51115 0.10079,1.02412 0.13762,1.53733 0.0404,0.60964 0.10555,1.21732 0.15818,1.826 0.051,0.6313 0.10478,1.26266 0.12838,1.89567 0.009,0.4182 0.008,0.20861 0.002,0.62876 -0.0425,2.8345 -1.37874,2.81445 -1.3362,-0.0201 v 0 c 0.006,-0.36572 0.006,-0.17902 -0.001,-0.56012 -0.0216,-0.61084 -0.0762,-1.21994 -0.1243,-1.82916 -0.0532,-0.61519 -0.11902,-1.22936 -0.15972,-1.84554 -0.0358,-0.49956 -0.0759,-0.99886 -0.13405,-1.4964 -0.0289,-0.28628 -0.0434,-0.57393 -0.0812,-0.85932 -0.4009,-2.80633 0.92202,-2.99531 1.32292,-0.18898 z"
       inkscape:connector-curvature="0" />
    <path
       style="opacity:1;fill:#da03ae;fill-opacity:1;fill-rule:nonzero;stroke:#da03ae;stroke-width:0.39700001;stroke-linecap:round;stroke-linejoin:round;stroke-miterlimit:4;stroke-dasharray:none;stroke-dashoffset:0;stroke-opacity:1;paint-order:markers fill stroke"
       id="path6049"
       d="m 137.22669,196.09113 c -0.22618,-0.035 -0.45311,-0.05 -0.68167,-0.0503 -0.29105,0.0106 -0.57739,0.0617 -0.85739,0.13971 -0.30852,0.0901 -0.58736,0.24639 -0.84427,0.43641 -0.25317,0.19548 -0.44698,0.4482 -0.62169,0.71298 -0.16212,0.25732 -0.28798,0.53592 -0.34883,0.83425 -0.0579,0.26067 -0.05,0.5211 0.0226,0.77672 0.0507,0.13413 0.117,0.28695 0.25663,0.34811 0.11478,0.0246 0.23198,8e-4 0.34413,-0.0255 0.24962,-0.0664 0.46896,-0.20435 0.67696,-0.353 0.27021,-0.20795 0.49917,-0.46164 0.72629,-0.71428 0.23717,-0.27229 0.42025,-0.5852 0.60904,-0.89151 0.20689,-0.35802 0.46523,-0.66756 0.80183,-0.90737 0.42141,-0.25134 0.8499,-0.23214 1.28529,-0.035 0.33548,0.18443 0.601,0.46016 0.85664,0.73956 0.27489,0.30103 0.52542,0.62324 0.77609,0.94441 0.23961,0.32179 0.47579,0.64717 0.73641,0.95245 1.83501,2.16077 0.81642,3.0258 -1.0186,0.86503 v 0 c -0.27122,-0.32067 -0.52274,-0.65751 -0.77161,-0.9957 -0.22909,-0.29405 -0.45808,-0.58911 -0.70903,-0.86499 -0.14343,-0.15738 -0.28718,-0.31591 -0.46017,-0.44184 0.0222,-0.0127 0.049,-0.0307 0.0523,-0.0561 -0.19528,0.0952 -0.28781,0.33762 -0.41178,0.50116 -0.23136,0.37467 -0.45924,0.75464 -0.75367,1.08447 -0.29493,0.32657 -0.59509,0.65164 -0.9512,0.91341 -0.36505,0.2533 -0.75225,0.47587 -1.1914,0.57134 -0.47452,0.0842 -0.94107,0.0729 -1.36282,-0.19118 -0.38231,-0.28575 -0.65809,-0.6465 -0.7862,-1.11345 -0.11195,-0.46338 -0.13982,-0.9326 -0.0312,-1.40127 0.10813,-0.45565 0.28186,-0.88885 0.54073,-1.28156 0.26554,-0.39482 0.56446,-0.7665 0.94892,-1.05319 0.39137,-0.28013 0.81201,-0.51392 1.27863,-0.64417 0.39635,-0.10569 0.80056,-0.17908 1.21199,-0.18636 0.2902,0.002 0.57893,0.0198 0.86608,0.0637 2.80632,0.40091 2.61734,1.72382 -0.18899,1.32292 z"
       inkscape:connector-curvature="0" />
    <path
       style="opacity:1;fill:#000000;fill-opacity:1;fill-rule:nonzero;stroke:#000000;stroke-width:0.39700001;stroke-linecap:round;stroke-linejoin:round;stroke-miterlimit:4;stroke-dasharray:none;stroke-dashoffset:0;stroke-opacity:1;paint-order:markers fill stroke"
       id="path6051"
       d="m 54.245499,172.33595 c -0.144643,0.22923 -0.280604,0.46328 -0.415047,0.69868 -0.210026,0.39165 -0.376999,0.80352 -0.524076,1.22225 -0.18564,0.5387 -0.298183,1.09579 -0.367554,1.66013 -0.06859,0.63645 -0.04275,1.27379 0.031,1.90787 0.08016,0.63391 0.288237,1.24049 0.524822,1.8308 0.242978,0.55791 0.572881,1.07046 0.926251,1.56361 1.648008,2.30658 0.560676,3.08346 -1.087329,0.77688 v 0 c -0.41439,-0.58144 -0.799872,-1.18622 -1.080183,-1.84542 -0.278474,-0.70111 -0.519927,-1.42139 -0.611237,-2.17388 -0.08356,-0.73999 -0.11257,-1.484 -0.02929,-2.22616 0.08398,-0.65878 0.214429,-1.30996 0.433353,-1.9386 0.174958,-0.4937 0.372547,-0.97981 0.62385,-1.4403 0.14971,-0.26205 0.302178,-0.52209 0.463524,-0.77714 1.572477,-2.35871 2.684386,-1.61744 1.111909,0.74128 z"
       inkscape:connector-curvature="0" />
    <path
       style="opacity:1;fill:#000000;fill-opacity:1;fill-rule:nonzero;stroke:#000000;stroke-width:0.39700001;stroke-linecap:round;stroke-linejoin:round;stroke-miterlimit:4;stroke-dasharray:none;stroke-dashoffset:0;stroke-opacity:1;paint-order:markers fill stroke"
       id="path6053"
       d="m 222.95583,171.3274 c 0.16941,0.23441 0.34383,0.46532 0.51938,0.69519 0.28808,0.36432 0.56055,0.7406 0.82315,1.12359 0.3313,0.44885 0.57813,0.94594 0.78478,1.46178 0.22636,0.58064 0.30767,1.19037 0.31943,1.8091 -0.002,0.65622 -0.14544,1.29661 -0.32142,1.92493 -0.15736,0.53932 -0.37681,1.0564 -0.61775,1.5628 -1.2216,2.5581 -2.4275,1.98223 -1.2059,-0.57587 v 0 c 0.2096,-0.437 0.39946,-0.88382 0.53737,-1.34929 0.14285,-0.50363 0.26377,-1.01661 0.2715,-1.543 -0.004,-0.45656 -0.0608,-0.90521 -0.22499,-1.33484 -0.16751,-0.42522 -0.37128,-0.83262 -0.64561,-1.20054 -0.24917,-0.36434 -0.50897,-0.72143 -0.78274,-1.06775 -0.19277,-0.25258 -0.38504,-0.50585 -0.56911,-0.76482 -1.57248,-2.35872 -0.46057,-3.09999 1.11191,-0.74128 z"
       inkscape:connector-curvature="0" />
    <path
       style="opacity:1;fill:#000000;fill-opacity:1;fill-rule:nonzero;stroke:#000000;stroke-width:0.39700001;stroke-linecap:round;stroke-linejoin:round;stroke-miterlimit:4;stroke-dasharray:none;stroke-dashoffset:0;stroke-opacity:1;paint-order:markers fill stroke"
       id="path6059"
       d="m 137.77863,208.22738 c 0.0197,0.28977 0.0121,0.58075 0.011,0.87103 -0.002,0.36005 -0.003,0.7201 -0.004,1.08015 -8e-4,0.26606 -2.7e-4,0.1323 -0.001,0.40127 -0.007,2.83482 -1.34328,2.83155 -1.33634,-0.003 v 0 c 5.2e-4,-0.26937 2.6e-4,-0.13541 0.001,-0.40188 0.001,-0.36054 0.002,-0.72108 0.004,-1.08161 8e-4,-0.2255 1.1e-4,-0.45143 0.002,-0.67671 -0.4009,-2.80633 0.92202,-2.99532 1.32292,-0.18899 z"
       inkscape:connector-curvature="0" />
    <path
       style="opacity:1;fill:#000000;fill-opacity:1;fill-rule:nonzero;stroke:#000000;stroke-width:0.39700001;stroke-linecap:round;stroke-linejoin:round;stroke-miterlimit:4;stroke-dasharray:none;stroke-dashoffset:0;stroke-opacity:1;paint-order:markers fill stroke"
       id="path6061"
       d="m 137.76282,220.97803 c -0.0399,0.22256 -0.0353,0.44793 -0.0459,0.6727 -0.01,0.1502 -0.0212,0.30029 -0.032,0.45042 -0.20287,2.82755 -1.53579,2.73192 -1.33293,-0.0956 v 0 c 0.0101,-0.14086 0.0207,-0.28169 0.0303,-0.4226 0.0149,-0.26498 0.01,-0.53139 0.0576,-0.79386 0.4009,-2.80633 1.72382,-2.61735 1.32292,0.18898 z"
       inkscape:connector-curvature="0" />
    <path
       style="opacity:1;fill:#000000;fill-opacity:1;fill-rule:nonzero;stroke:#000000;stroke-width:0.39700001;stroke-linecap:round;stroke-linejoin:round;stroke-miterlimit:4;stroke-dasharray:none;stroke-dashoffset:0;stroke-opacity:1;paint-order:markers fill stroke"
       id="path6063"
       d="m 138.31198,229.16889 c 0,0.25796 0,0.51592 0,0.77388 -0.008,0.23539 -0.0296,0.47001 -0.0483,0.70471 -0.2245,2.82592 -1.55665,2.72009 -1.33215,-0.10583 v 0 c 0.0159,-0.19953 0.0336,-0.39898 0.0441,-0.59888 0,-0.25796 0,-0.51592 0,-0.77388 0,-2.83482 1.33635,-2.83482 1.33635,0 z"
       inkscape:connector-curvature="0" />
    <path
       style="opacity:1;fill:#000000;fill-opacity:1;fill-rule:nonzero;stroke:#000000;stroke-width:0.39700001;stroke-linecap:round;stroke-linejoin:round;stroke-miterlimit:4;stroke-dasharray:none;stroke-dashoffset:0;stroke-opacity:1;paint-order:markers fill stroke"
       id="path6065"
       d="m 138.31198,237.45425 c 0,0.25796 0,0.51591 0,0.77387 0,0.11218 0,0.22436 0,0.33654 0,2.83482 -1.33635,2.83482 -1.33635,0 v 0 c 0,-0.11218 0,-0.22436 0,-0.33654 0,-0.25796 0,-0.51591 0,-0.77387 0,-2.83482 1.33635,-2.83482 1.33635,0 z"
       inkscape:connector-curvature="0" />
    <path
       style="opacity:1;fill:#000000;fill-opacity:1;fill-rule:nonzero;stroke:#000000;stroke-width:0.39700001;stroke-linecap:round;stroke-linejoin:round;stroke-miterlimit:4;stroke-dasharray:none;stroke-dashoffset:0;stroke-opacity:1;paint-order:markers fill stroke"
       id="path6067"
       d="m 138.31198,248.14503 c 0,0.25796 0,0.51591 0,0.77387 0,0.23267 0,0.46533 0,0.69799 0,2.83482 -1.33635,2.83482 -1.33635,0 v 0 c 0,-0.23266 0,-0.46532 0,-0.69799 0,-0.25796 0,-0.51591 0,-0.77387 0,-2.83482 1.33635,-2.83482 1.33635,0 z"
       inkscape:connector-curvature="0" />
    <path
       style="opacity:1;fill:#000000;fill-opacity:1;fill-rule:nonzero;stroke:#000000;stroke-width:0.39700001;stroke-linecap:round;stroke-linejoin:round;stroke-miterlimit:4;stroke-dasharray:none;stroke-dashoffset:0;stroke-opacity:1;paint-order:markers fill stroke"
       id="path6069"
       d="m 138.84652,258.83581 c 0,0.25796 0,0.51591 0,0.77387 0,2.83482 -1.33635,2.83482 -1.33635,0 v 0 c 0,-0.25796 0,-0.51591 0,-0.77387 0,-2.83482 1.33635,-2.83482 1.33635,0 z"
       inkscape:connector-curvature="0" />
    <path
       style="opacity:1;fill:#000000;fill-opacity:1;fill-rule:nonzero;stroke:#000000;stroke-width:0.39700001;stroke-linecap:round;stroke-linejoin:round;stroke-miterlimit:4;stroke-dasharray:none;stroke-dashoffset:0;stroke-opacity:1;paint-order:markers fill stroke"
       id="path6071"
       d="m 137.46865,187.39114 c -0.0654,0.20743 -0.0813,0.42224 -0.0964,0.63768 -0.0141,0.22503 -0.0225,0.45036 -0.031,0.67567 -0.10625,2.83283 -1.44166,2.78274 -1.33541,-0.0501 v 0 c 0.009,-0.2402 0.0181,-0.48043 0.0334,-0.72032 0.0222,-0.30735 0.0539,-0.61398 0.14444,-0.91006 0.77878,-2.72575 2.06371,-2.35863 1.28493,0.36712 z"
       inkscape:connector-curvature="0" />
    <path
       style="opacity:1;fill:#000000;fill-opacity:1;fill-rule:nonzero;stroke:#000000;stroke-width:0.39700001;stroke-linecap:round;stroke-linejoin:round;stroke-miterlimit:4;stroke-dasharray:none;stroke-dashoffset:0;stroke-opacity:1;paint-order:markers fill stroke"
       id="path6073"
       d="m 224.90731,186.40577 c -3e-5,0.26927 0.004,0.53837 -0.009,0.80739 -0.0163,0.23766 -0.0353,0.47513 -0.0525,0.71274 -0.20478,2.82741 -1.53763,2.73088 -1.33286,-0.0965 v 0 c 0.0165,-0.22778 0.0344,-0.45545 0.0507,-0.68324 0.014,-0.24649 0.004,-0.49356 0.007,-0.74036 0,-2.83482 1.33635,-2.83482 1.33635,0 z"
       inkscape:connector-curvature="0" />
    <path
       style="opacity:1;fill:#000000;fill-opacity:1;fill-rule:nonzero;stroke:#000000;stroke-width:0.39700001;stroke-linecap:round;stroke-linejoin:round;stroke-miterlimit:4;stroke-dasharray:none;stroke-dashoffset:0;stroke-opacity:1;paint-order:markers fill stroke"
       id="path6075"
       d="m 225.42722,197.19105 c -0.0227,0.22336 -0.012,0.45009 -0.0104,0.67457 0.002,0.22164 8e-4,0.10961 0.003,0.33608 0.0223,2.83473 -1.31398,2.84526 -1.3363,0.0105 v 0 c -0.002,-0.22675 -8e-4,-0.11442 -0.003,-0.33701 -0.002,-0.29087 -0.0137,-0.58406 0.0238,-0.87316 0.4009,-2.80633 1.72382,-2.61734 1.32292,0.18899 z"
       inkscape:connector-curvature="0" />
    <path
       style="opacity:1;fill:#000000;fill-opacity:1;fill-rule:nonzero;stroke:#000000;stroke-width:0.39700001;stroke-linecap:round;stroke-linejoin:round;stroke-miterlimit:4;stroke-dasharray:none;stroke-dashoffset:0;stroke-opacity:1;paint-order:markers fill stroke"
       id="path6077"
       d="m 225.70911,205.91645 c 0.0321,0.21269 0.0507,0.42821 0.0697,0.64271 0.004,0.0529 0.008,0.10569 0.0126,0.15854 0.22512,2.82587 -1.10701,2.93199 -1.33213,0.10612 v 0 c -0.004,-0.049 -0.008,-0.0979 -0.0117,-0.14691 -0.0224,-0.25381 -0.0541,-0.50658 -0.0749,-0.76046 0,-2.83482 1.33635,-2.83482 1.33635,0 z"
       inkscape:connector-curvature="0" />
    <path
       style="opacity:1;fill:#000000;fill-opacity:1;fill-rule:nonzero;stroke:#000000;stroke-width:0.39700001;stroke-linecap:round;stroke-linejoin:round;stroke-miterlimit:4;stroke-dasharray:none;stroke-dashoffset:0;stroke-opacity:1;paint-order:markers fill stroke"
       id="path6079"
       d="m 226.4963,214.83084 c -0.033,0.24264 -0.053,0.48678 -0.0718,0.73085 -0.0111,0.23722 -0.0357,0.47294 -0.0645,0.70855 -0.34609,2.81362 -1.67244,2.65047 -1.32635,-0.16315 v 0 c 0.0266,-0.21562 0.0488,-0.43117 0.0585,-0.64836 0.0211,-0.27283 0.0439,-0.5457 0.0813,-0.81688 0.40091,-2.80633 1.72382,-2.61734 1.32292,0.18899 z"
       inkscape:connector-curvature="0" />
    <path
       style="opacity:1;fill:#000000;fill-opacity:1;fill-rule:nonzero;stroke:#000000;stroke-width:0.39700001;stroke-linecap:round;stroke-linejoin:round;stroke-miterlimit:4;stroke-dasharray:none;stroke-dashoffset:0;stroke-opacity:1;paint-order:markers fill stroke"
       id="path6081"
       d="m 225.70911,223.28897 c 0.0239,0.22446 0.0492,0.44827 0.0839,0.67145 0.0386,0.23843 0.0701,0.47789 0.10012,0.71752 0.35165,2.81293 -0.97438,2.9787 -1.32603,0.16577 v 0 c -0.0283,-0.2266 -0.0581,-0.45301 -0.0946,-0.67845 -0.045,-0.29068 -0.0806,-0.58268 -0.0997,-0.87629 0,-2.83483 1.33634,-2.83483 1.33634,0 z"
       inkscape:connector-curvature="0" />
    <path
       style="opacity:1;fill:#000000;fill-opacity:1;fill-rule:nonzero;stroke:#000000;stroke-width:0.39700001;stroke-linecap:round;stroke-linejoin:round;stroke-miterlimit:4;stroke-dasharray:none;stroke-dashoffset:0;stroke-opacity:1;paint-order:markers fill stroke"
       id="path6083"
       d="m 227.31273,234.24702 c 0,0.25795 0,0.51591 0,0.77386 0.0107,0.36245 -0.021,0.7236 -0.0481,1.0846 -0.2117,2.8269 -1.54432,2.7271 -1.33261,-0.0998 v 0 c 0.0246,-0.32783 0.0553,-0.65562 0.0443,-0.9848 0,-0.25795 0,-0.51591 0,-0.77386 0,-2.83483 1.33635,-2.83483 1.33635,0 z"
       inkscape:connector-curvature="0" />
    <path
       style="opacity:1;fill:#000000;fill-opacity:1;fill-rule:nonzero;stroke:#000000;stroke-width:0.39700001;stroke-linecap:round;stroke-linejoin:round;stroke-miterlimit:4;stroke-dasharray:none;stroke-dashoffset:0;stroke-opacity:1;paint-order:markers fill stroke"
       id="path6085"
       d="m 227.58,245.20507 c 0.009,0.2682 -0.0111,0.53496 -0.0354,0.80179 -0.0291,0.25369 -0.0415,0.50744 -0.041,0.76257 0.002,2.83482 -1.33419,2.83583 -1.33634,0.001 v 0 c 1e-4,-0.29588 0.0132,-0.5906 0.0465,-0.88479 0.0207,-0.22668 0.0397,-0.45264 0.0299,-0.68059 0,-2.83482 1.33635,-2.83482 1.33635,0 z"
       inkscape:connector-curvature="0" />
    <path
       style="opacity:1;fill:#000000;fill-opacity:1;fill-rule:nonzero;stroke:#000000;stroke-width:0.39700001;stroke-linecap:round;stroke-linejoin:round;stroke-miterlimit:4;stroke-dasharray:none;stroke-dashoffset:0;stroke-opacity:1;paint-order:markers fill stroke"
       id="path6087"
       d="m 228.11454,255.89585 c -0.004,0.24213 -2.6e-4,0.48322 0.0177,0.72466 0.0252,0.24863 0.0223,0.49891 0.0219,0.74846 -0.005,2.83482 -1.34171,2.83229 -1.33635,-0.003 v 0 c 5.3e-4,-0.21588 0.005,-0.4325 -0.0182,-0.64752 -0.02,-0.2742 -0.0262,-0.54817 -0.0214,-0.82308 0,-2.83482 1.33634,-2.83482 1.33634,0 z"
       inkscape:connector-curvature="0" />
    <path
       style="opacity:1;fill:#000000;fill-opacity:1;fill-rule:nonzero;stroke:#000000;stroke-width:0.39700001;stroke-linecap:round;stroke-linejoin:round;stroke-miterlimit:4;stroke-dasharray:none;stroke-dashoffset:0;stroke-opacity:1;paint-order:markers fill stroke"
       id="path6089"
       d="m 141.53542,264.80865 c 0.24265,0.033 0.48679,0.053 0.73086,0.0718 0.35233,0.0261 0.70526,0.0427 1.0582,0.0579 0.4133,0.0173 0.82679,0.0291 1.2403,0.0398 0.44133,-0.006 0.88228,-0.028 1.32328,-0.0449 0.47348,-0.0225 0.94792,-0.0227 1.42103,-0.052 0.47107,-0.0367 0.94204,-0.0744 1.41344,-0.10674 0.50155,-0.0239 1.00078,-0.0775 1.50048,-0.1247 0.56477,-0.0494 1.1298,-0.0987 1.69643,-0.11945 0.55969,-0.0119 1.11957,-0.01 1.67936,-0.009 0.55618,-0.002 1.1119,-0.002 1.66761,0.0218 0.55936,0.0302 1.1183,0.0576 1.67852,0.0575 0.59033,-0.004 1.18061,-0.013 1.77091,-0.0198 0.61375,0.0171 1.22692,0.0278 1.84093,0.0222 0.6323,-0.008 1.2646,-0.0158 1.89691,-0.0228 0.64323,-0.007 1.28647,-0.0124 1.92972,-0.0173 0.63795,-0.005 1.27591,-0.008 1.91388,-0.0117 0.62055,-0.003 1.2411,-0.006 1.86166,-0.008 0.62762,-0.002 1.25526,-0.004 1.88288,-0.005 0.65224,-0.002 1.30448,-0.003 1.95672,-0.004 0.6468,-0.005 1.29379,0.007 1.94042,-0.0101 0.66033,-0.0246 1.32049,-0.0533 1.98083,-0.0779 0.6736,-0.0151 1.34601,-0.0493 2.01832,-0.0922 0.68015,-0.045 1.36077,-0.0823 2.04159,-0.11556 0.6709,-0.0228 1.34053,-0.063 2.00999,-0.11151 0.66814,-0.0506 1.33695,-0.0913 2.00595,-0.12866 0.63973,-0.0353 1.27982,-0.0633 1.92,-0.089 0.60623,-0.024 1.21265,-0.0428 1.8191,-0.06 0.60311,-0.0169 1.20633,-0.0291 1.80956,-0.0405 0.58961,-0.011 1.17926,-0.0195 1.76892,-0.0273 0.59187,-0.008 1.18377,-0.0132 1.77568,-0.0184 0.58476,-0.005 1.16954,-0.009 1.75431,-0.0124 0.58299,0.006 1.16502,-0.0118 1.74717,-0.0402 0.57748,-0.0301 1.15512,-0.0564 1.73289,-0.08 0.56511,-0.0228 1.13041,-0.0403 1.69574,-0.0563 0.54636,-0.0129 1.0924,-0.0227 1.63793,-0.0564 0.54842,-0.0375 1.09704,-0.0718 1.6459,-0.10216 0.54674,-0.0299 1.09382,-0.0527 1.64096,-0.0734 0.54292,-0.0202 1.08601,-0.0356 1.62912,-0.0495 0.54023,-0.0137 1.08054,-0.024 1.62087,-0.0334 0.5384,-0.009 1.07683,-0.0161 1.61528,-0.0225 0.53715,-0.006 1.07432,-0.0109 1.61149,-0.0152 0.53631,-0.004 1.07262,-0.007 1.60894,-0.0102 0.53573,-0.003 1.07147,-0.005 1.6072,-0.007 0.53535,-0.002 1.0707,-0.003 1.60604,-0.005 0.53622,-0.0107 1.07155,0.004 1.60702,0.0304 0.42531,0.01 0.8508,0.0127 1.2752,-0.0189 0.13436,0.0329 0.41464,-0.16702 0.20125,-0.0225 -0.1628,0.11231 -0.104,0.26957 -0.14168,0.41868 -0.005,0.0187 -0.0187,-0.0337 -0.0281,-0.0506 -0.14449,-0.16179 -0.23253,-0.36471 -0.30238,-0.5687 -0.12187,-0.54425 0.21089,-0.90838 0.70136,-1.05574 0.28439,-0.0545 0.57295,-0.0264 0.85629,0.018 0.35478,0.043 0.65304,0.18346 0.92052,0.41718 0.28685,0.30578 0.36933,0.68246 0.36559,1.08856 -0.025,0.4507 -0.25579,0.81676 -0.53353,1.15567 -0.30777,0.35227 -0.66281,0.65894 -1.02357,0.95512 -0.38604,0.31277 -0.79057,0.60301 -1.20322,0.87955 -2.35642,1.57592 -3.09931,0.46509 -0.7429,-1.11083 v 0 c 0.37734,-0.25175 0.74628,-0.51759 1.0993,-0.8025 0.29651,-0.24225 0.58882,-0.49269 0.84493,-0.77822 0.0891,-0.10276 0.18973,-0.20762 0.22334,-0.34192 0.008,-0.0533 -0.006,-0.1165 0.0494,-0.0768 0.0888,0.007 -0.18905,-0.0819 -0.22158,-0.068 -0.11307,-0.0225 -0.22993,-0.0321 -0.34464,-0.0313 0.23926,-0.1102 0.36937,-0.37264 0.28947,-0.6302 -0.0201,-0.0367 0.1477,0.29083 0.1965,0.31336 0.20525,0.40188 0.26554,0.81464 -0.04,1.19301 -0.30412,0.27774 -0.65869,0.40145 -1.06888,0.43101 -0.47909,0.0345 -0.95934,0.0343 -1.4394,0.0208 -0.51219,-0.0256 -1.02415,-0.0394 -1.53707,-0.0287 -0.53483,10e-4 -1.06965,0.003 -1.60447,0.005 -0.53497,0.002 -1.06993,0.004 -1.60488,0.007 -0.53517,0.003 -1.07034,0.006 -1.6055,0.0102 -0.53547,0.004 -1.07094,0.009 -1.6064,0.0151 -0.53594,0.006 -1.07187,0.0132 -1.60776,0.0224 -0.53663,0.009 -1.07325,0.0196 -1.60979,0.0331 -0.53768,0.0138 -1.07534,0.029 -1.61284,0.049 -0.5394,0.0204 -1.07873,0.0429 -1.61773,0.0723 -0.54609,0.0302 -1.09193,0.0644 -1.63759,0.10168 -0.56033,0.0344 -1.12114,0.0456 -1.68233,0.0583 -0.55976,0.0158 -1.11947,0.0331 -1.67901,0.0557 -0.57416,0.0234 -1.14821,0.0496 -1.72208,0.0795 -0.60125,0.0294 -1.20243,0.0479 -1.80453,0.0418 -0.58352,0.003 -1.16704,0.007 -1.75055,0.0124 -0.58991,0.005 -1.17982,0.0107 -1.76971,0.0183 -0.58712,0.008 -1.17424,0.0162 -1.76132,0.0272 -0.59901,0.0113 -1.19802,0.0234 -1.79691,0.0402 -0.60123,0.017 -1.20242,0.0357 -1.80342,0.0595 -0.63322,0.0254 -1.26636,0.0531 -1.89914,0.088 -0.66164,0.0369 -1.3231,0.0772 -1.9839,0.12725 -0.67989,0.0492 -1.35999,0.0901 -2.04134,0.1134 -0.67417,0.0329 -1.34814,0.0699 -2.02165,0.11444 -0.68406,0.0436 -1.36826,0.0785 -2.05363,0.094 -0.66559,0.0248 -1.331,0.0539 -1.9966,0.0784 -0.6573,0.0163 -1.31488,0.007 -1.97234,0.0105 -0.65187,0.001 -1.30374,0.002 -1.95561,0.004 -0.62709,0.002 -1.25418,0.003 -1.88127,0.005 -0.61984,0.002 -1.23969,0.005 -1.85953,0.008 -0.63688,0.003 -1.27376,0.007 -1.91064,0.0117 -0.64169,0.005 -1.28338,0.0101 -1.92505,0.0172 -0.63319,0.007 -1.26635,0.0153 -1.89953,0.0228 -0.61284,0.006 -1.22496,-0.003 -1.83751,-0.0222 -0.59558,0.007 -1.19113,0.0159 -1.78673,0.0199 -0.57961,-2.5e-4 -1.15795,-0.027 -1.73663,-0.0588 -0.53652,-0.0236 -1.07307,-0.0224 -1.61006,-0.0206 -0.54373,-2.6e-4 -1.08755,-0.002 -1.6312,0.008 -0.5405,0.0184 -1.07933,0.0686 -1.61807,0.11436 -0.51111,0.0483 -1.02177,0.10275 -1.53474,0.1275 -0.47511,0.0326 -0.94977,0.071 -1.42459,0.10745 -0.4829,0.0284 -0.96681,0.0321 -1.45008,0.0534 -0.46961,0.0181 -0.93919,0.0424 -1.40921,0.0454 -0.42117,-0.0109 -0.84231,-0.023 -1.26326,-0.0406 -0.36807,-0.0159 -0.73613,-0.0333 -1.10356,-0.0607 -0.27283,-0.0211 -0.5457,-0.0439 -0.81688,-0.0813 -2.80633,-0.40091 -2.61735,-1.72382 0.18898,-1.32292 z"
       inkscape:connector-curvature="0" />
    <path
       style="opacity:1;fill:#000000;fill-opacity:1;fill-rule:nonzero;stroke:#000000;stroke-width:0.39700001;stroke-linecap:round;stroke-linejoin:round;stroke-miterlimit:4;stroke-dasharray:none;stroke-dashoffset:0;stroke-opacity:1;paint-order:markers fill stroke"
       id="path6091"
       d="m 140.47073,263.30574 c 0.25493,-0.1987 0.53398,-0.36257 0.82069,-0.51041 0.34279,-0.18863 0.70727,-0.32971 1.07192,-0.46888 0.2854,-0.10465 0.57755,-0.18694 0.88056,-0.21621 0.66562,-0.004 0.97937,0.51726 0.71751,1.12357 -0.15944,0.2615 -0.39962,0.45061 -0.64776,0.62258 -0.26352,0.16952 -0.52589,0.34109 -0.79257,0.5057 -0.29227,0.19321 -0.59281,0.37338 -0.8894,0.55986 -0.23298,0.14965 -0.49978,0.2789 -0.67428,0.50122 -0.0421,0.0843 -0.0617,0.17019 -0.046,0.2628 0.0363,0.16401 0.13032,0.30385 0.2227,0.44094 0.17874,0.24052 0.41385,0.43161 0.65402,0.60757 0.33701,0.23649 0.6943,0.43906 1.06372,0.61971 0.4111,0.18564 0.82875,0.35668 1.25256,0.5111 2.66291,0.97219 2.20461,2.2275 -0.45829,1.25531 v 0 c -0.4681,-0.17119 -0.92999,-0.35947 -1.38326,-0.56686 -0.44194,-0.21774 -0.87025,-0.46075 -1.27212,-0.74688 -0.36206,-0.27192 -0.71196,-0.56694 -0.97124,-0.94274 -0.2271,-0.34739 -0.41654,-0.71516 -0.44383,-1.13783 -0.002,-0.43854 0.10229,-0.84259 0.38271,-1.19063 0.27839,-0.3014 0.60315,-0.54556 0.96219,-0.74512 0.30005,-0.18855 0.60393,-0.37091 0.89964,-0.56623 0.24961,-0.15342 0.49441,-0.31463 0.7412,-0.47241 0.0488,-0.032 0.27738,-0.23456 0.21972,-0.14471 -0.13056,0.39815 0.12973,0.867 0.57987,0.83426 -0.18029,0.0112 -0.35043,0.0793 -0.52111,0.13351 -0.31954,0.12195 -0.63991,0.24317 -0.93964,0.41 -0.19993,0.10121 -0.39295,0.21489 -0.57396,0.34739 -2.17777,1.81481 -3.03328,0.7882 -0.85551,-1.02661 z"
       inkscape:connector-curvature="0" />
    <path
       style="opacity:1;fill:#000000;fill-opacity:1;fill-rule:nonzero;stroke:#000000;stroke-width:0.39700001;stroke-linecap:round;stroke-linejoin:round;stroke-miterlimit:4;stroke-dasharray:none;stroke-dashoffset:0;stroke-opacity:1;paint-order:markers fill stroke"
       id="path6093"
       d="m 175.46125,273.51943 c -0.0346,-0.0932 -0.0935,-0.17018 -0.16082,-0.24203 -0.11196,-0.0844 -0.23848,-0.13166 -0.37507,-0.15799 -0.19164,-0.0188 -0.38137,0.007 -0.56346,0.0668 -0.18505,0.0702 -0.32361,0.20555 -0.43683,0.36351 -0.12937,0.19918 -0.17738,0.41672 -0.18546,0.65025 0.003,0.31882 0.10053,0.6215 0.21652,0.91468 0.14567,0.32109 0.33002,0.62257 0.54757,0.89962 0.23674,0.27275 0.43043,0.55554 0.54242,0.90073 0.0848,0.3836 -0.0176,0.74501 -0.1643,1.09737 -0.15054,0.31104 -0.31718,0.61336 -0.45726,0.9294 -0.13754,0.32815 -0.25007,0.66714 -0.32514,1.01498 -0.0734,0.34947 -0.10932,0.70452 -0.0893,1.06108 0.0103,0.32867 0.10442,0.64248 0.21774,0.94837 0.0934,0.24113 0.2417,0.44396 0.43561,0.61207 0.15083,0.13221 0.32595,0.18385 0.51971,0.21295 0.22674,0.019 0.43883,-0.0634 0.64971,-0.13379 0.32572,-0.11682 0.62619,-0.294 0.92182,-0.47158 2.43304,-1.45482 3.11885,-0.30787 0.6858,1.14695 v 0 c -0.37981,0.22627 -0.76617,0.44906 -1.18615,0.59277 -0.42403,0.14046 -0.85528,0.25265 -1.30595,0.18122 -0.4381,-0.0838 -0.84656,-0.2352 -1.18323,-0.53913 -0.34721,-0.32245 -0.62672,-0.69619 -0.7931,-1.14447 -0.15592,-0.43383 -0.28231,-0.87908 -0.29687,-1.34328 -0.0191,-0.47528 0.0171,-0.94868 0.11988,-1.41412 0.0989,-0.43364 0.23199,-0.85901 0.40868,-1.26773 0.13828,-0.30926 0.29446,-0.6091 0.44899,-0.91045 0.0219,-0.0489 0.078,-0.28132 0.1079,-0.20718 -0.004,-0.16548 -0.24677,-0.2978 -0.31283,-0.44698 -0.29331,-0.38118 -0.54768,-0.79139 -0.73729,-1.23459 -0.18242,-0.47512 -0.32139,-0.96681 -0.30478,-1.4813 0.0375,-0.50181 0.16365,-0.97496 0.46428,-1.38811 0.29785,-0.37067 0.65081,-0.67745 1.11261,-0.82466 0.41141,-0.11611 0.83359,-0.16813 1.25781,-0.0841 0.40673,0.10605 0.78377,0.27395 1.07523,0.58775 0.22456,0.27078 0.41023,0.56859 0.46843,0.92194 0.4009,2.80633 -0.92201,2.99532 -1.32292,0.18899 z"
       inkscape:connector-curvature="0" />
    <path
       style="opacity:1;fill:#000000;fill-opacity:1;fill-rule:nonzero;stroke:#000000;stroke-width:0.39700001;stroke-linecap:round;stroke-linejoin:round;stroke-miterlimit:4;stroke-dasharray:none;stroke-dashoffset:0;stroke-opacity:1;paint-order:markers fill stroke"
       id="path6095"
       d="m 181.15282,281.44532 c 0.1814,-0.11915 0.32346,-0.2841 0.47146,-0.44019 0.1989,-0.24115 0.39463,-0.47931 0.63691,-0.67853 0.39113,-0.28761 0.80978,-0.26239 1.20671,-0.0106 0.27074,0.23333 0.38382,0.56426 0.50773,0.88702 0.11366,0.32588 0.21066,0.65769 0.30602,0.98939 0.10097,0.36321 0.19606,0.72839 0.31908,1.0849 0.91986,2.68143 -0.34417,3.11506 -1.26403,0.43363 v 0 c -0.12919,-0.37839 -0.23393,-0.76425 -0.33951,-1.14977 -0.0845,-0.29491 -0.17133,-0.5896 -0.26951,-0.8802 -0.0196,-0.0513 -0.22716,-0.44884 -0.061,-0.29543 0.13296,0.0619 0.30708,0.097 0.42243,-0.01 -0.20761,0.13414 -0.31039,0.38994 -0.49525,0.54919 -0.21681,0.22852 -0.43324,0.4601 -0.69979,0.63248 -2.35872,1.57248 -3.09999,0.46057 -0.74127,-1.11191 z"
       inkscape:connector-curvature="0" />
    <path
       style="opacity:1;fill:#da03ae;fill-opacity:1;fill-rule:nonzero;stroke:#da03ae;stroke-width:0.39700001;stroke-linecap:round;stroke-linejoin:round;stroke-miterlimit:4;stroke-dasharray:none;stroke-dashoffset:0;stroke-opacity:1;paint-order:markers fill stroke"
       id="path6097"
       d="m 80.581761,174.64591 c 0,0.2825 0,0.565 0,0.8475 0,0.46821 0,0.93642 0,1.40463 7.94e-4,0.52749 0.02408,1.05561 0.06539,1.58149 0.03238,0.36119 0.06624,0.72224 0.09824,1.08347 0.250113,2.82377 -1.081022,2.94167 -1.331135,0.11791 v 0 c -0.03242,-0.36609 -0.06687,-0.73198 -0.09945,-1.09805 -0.04295,-0.56035 -0.06924,-1.12279 -0.0694,-1.68482 0,-0.46821 0,-0.93642 0,-1.40463 0,-0.2825 0,-0.565 0,-0.8475 0,-2.83482 1.336347,-2.83482 1.336347,0 z"
       inkscape:connector-curvature="0" />
    <path
       style="opacity:1;fill:#da03ae;fill-opacity:1;fill-rule:nonzero;stroke:#da03ae;stroke-width:0.39700001;stroke-linecap:round;stroke-linejoin:round;stroke-miterlimit:4;stroke-dasharray:none;stroke-dashoffset:0;stroke-opacity:1;paint-order:markers fill stroke"
       id="path6099"
       d="m 73.602452,190.15161 c 0.110596,0.23279 0.256966,0.44597 0.403281,0.65727 0.270806,0.35283 0.568394,0.68405 0.864565,1.01552 0.36716,0.41507 0.749991,0.81549 1.131965,1.21676 0.389133,0.39591 0.784995,0.78529 1.15984,1.19488 1.91194,2.09301 0.925285,2.99431 -0.986655,0.9013 v 0 c -0.367892,-0.40359 -0.759767,-0.78421 -1.141187,-1.17488 -0.391592,-0.41151 -0.784045,-0.82215 -1.160524,-1.24773 -0.333041,-0.37282 -0.667996,-0.74542 -0.967459,-1.14624 -0.196366,-0.28476 -0.389924,-0.57391 -0.532125,-0.89047 -1.11669,-2.60561 0.111607,-3.13203 1.228299,-0.52641 z"
       inkscape:connector-curvature="0" />
    <path
       style="opacity:1;fill:#da03ae;fill-opacity:1;fill-rule:nonzero;stroke:#da03ae;stroke-width:0.39700001;stroke-linecap:round;stroke-linejoin:round;stroke-miterlimit:4;stroke-dasharray:none;stroke-dashoffset:0;stroke-opacity:1;paint-order:markers fill stroke"
       id="path6101"
       d="m 77.254861,189.94451 c -0.163179,0.26634 -0.308668,0.54279 -0.453983,0.8191 -0.248851,0.46485 -0.473035,0.94226 -0.704567,1.41586 -0.282622,0.58626 -0.558929,1.17508 -0.825177,1.76892 -0.176569,0.40311 -0.347183,0.80883 -0.517257,1.21471 -1.095669,2.61452 -2.328167,2.09802 -1.232498,-0.5165 v 0 c 0.174352,-0.41599 0.349175,-0.83185 0.530357,-1.24492 0.272304,-0.60735 0.554948,-1.20955 0.844015,-1.80913 0.237292,-0.48538 0.467329,-0.97455 0.722371,-1.45096 0.152564,-0.2901 0.305594,-0.58022 0.476464,-0.86009 1.406467,-2.46132 2.566742,-1.7983 1.160275,0.66301 z"
       inkscape:connector-curvature="0" />
    <path
       style="opacity:1;fill:#da03ae;fill-opacity:1;fill-rule:nonzero;stroke:#da03ae;stroke-width:0.39700001;stroke-linecap:round;stroke-linejoin:round;stroke-miterlimit:4;stroke-dasharray:none;stroke-dashoffset:0;stroke-opacity:1;paint-order:markers fill stroke"
       id="path6103"
       d="m 82.453841,195.13117 c 0.0414,0.30403 0.06152,0.61042 0.0818,0.91642 0.02328,0.42694 0.04009,0.85373 0.07771,1.2797 0.02175,0.23265 0.0421,0.46542 0.06213,0.69822 0.242838,2.8244 -1.088599,2.93888 -1.331436,0.11447 v 0 c -0.01992,-0.23188 -0.04025,-0.46374 -0.06189,-0.69548 -0.03826,-0.43565 -0.05706,-0.87202 -0.07994,-1.30869 -0.01799,-0.2723 -0.03531,-0.545 -0.07128,-0.81565 -0.400905,-2.80633 0.922012,-2.99532 1.322916,-0.18899 z"
       inkscape:connector-curvature="0" />
    <path
       style="opacity:1;fill:#000000;fill-opacity:1;fill-rule:nonzero;stroke:#000000;stroke-width:0.39700001;stroke-linecap:round;stroke-linejoin:round;stroke-miterlimit:4;stroke-dasharray:none;stroke-dashoffset:0;stroke-opacity:1;paint-order:markers fill stroke"
       id="path6105"
       d="m 96.206814,173.13775 c -0.141777,0.19954 -0.26163,0.41408 -0.372697,0.63192 -0.173445,0.30724 -0.298032,0.63687 -0.428146,0.96362 -0.157184,0.35717 -0.253482,0.73111 -0.327806,1.11258 -0.09651,0.45197 -0.118195,0.91221 -0.122557,1.37268 0.0011,0.52504 0.07073,1.04475 0.162565,1.56054 0.11,0.5319 0.264184,1.05359 0.457668,1.56083 0.18274,0.50176 0.423918,0.97833 0.665938,1.45325 0.216754,0.43925 0.48891,0.84621 0.787051,1.23358 0.132148,0.17055 0.283646,0.32338 0.437419,0.47396 2.017406,1.99155 1.07858,2.94257 -0.938826,0.95102 v 0 c -0.196308,-0.19498 -0.390454,-0.39215 -0.559334,-0.61217 -0.34598,-0.45314 -0.664031,-0.92734 -0.916972,-1.43964 -0.26407,-0.51821 -0.525034,-1.0392 -0.7249,-1.58644 -0.220893,-0.58604 -0.401249,-1.18712 -0.523997,-1.80181 -0.104878,-0.5972 -0.183854,-1.19906 -0.182891,-1.80675 0.0059,-0.54224 0.03524,-1.08418 0.147508,-1.61644 0.09125,-0.46206 0.210156,-0.91601 0.397648,-1.34969 0.145904,-0.36618 0.288054,-0.73455 0.480864,-1.07957 0.135369,-0.26219 0.279226,-0.52136 0.449556,-0.76274 1.572477,-2.35871 2.684386,-1.61744 1.111909,0.74127 z"
       inkscape:connector-curvature="0" />
    <path
       style="opacity:1;fill:#000000;fill-opacity:1;fill-rule:nonzero;stroke:#000000;stroke-width:0.39700001;stroke-linecap:round;stroke-linejoin:round;stroke-miterlimit:4;stroke-dasharray:none;stroke-dashoffset:0;stroke-opacity:1;paint-order:markers fill stroke"
       id="path6107"
       d="m 180.49374,173.00284 c 0.1106,0.2108 0.23454,0.41416 0.35177,0.62132 0.16728,0.32452 0.34762,0.64199 0.52031,0.96361 0.21699,0.39144 0.41691,0.79232 0.60481,1.19846 0.21273,0.4591 0.37158,0.93798 0.4916,1.42871 0.13466,0.54195 0.15891,1.09745 0.14932,1.65286 -0.0203,0.5974 -0.13227,1.18493 -0.25658,1.76778 -0.1439,0.61131 -0.32116,1.21453 -0.51815,1.8107 -0.18476,0.5729 -0.40373,1.13294 -0.63984,1.68629 -0.16279,0.35292 -0.0825,0.18 -0.24062,0.51881 -1.19859,2.56896 -2.40962,2.00394 -1.21102,-0.56502 v 0 c 0.15056,-0.3227 0.0764,-0.16326 0.22254,-0.47833 0.22158,-0.51911 0.42744,-1.04431 0.60038,-1.58197 0.18256,-0.54955 0.34497,-1.10621 0.47981,-1.66946 0.10665,-0.49916 0.20657,-1.00166 0.22735,-1.51321 0.009,-0.44115 -0.004,-0.88245 -0.11185,-1.31331 -0.0978,-0.40693 -0.23048,-0.80296 -0.40615,-1.18354 -0.17617,-0.38223 -0.36513,-0.75882 -0.56917,-1.12698 -0.16789,-0.31318 -0.34418,-0.62185 -0.50628,-0.93813 -0.12793,-0.22696 -0.26391,-0.44938 -0.38349,-0.68096 -1.26777,-2.53554 -0.0725,-3.13317 1.19526,-0.59763 z"
       inkscape:connector-curvature="0" />
    <path
       style="opacity:1;fill:#000000;fill-opacity:1;fill-rule:nonzero;stroke:#000000;stroke-width:0.39700001;stroke-linecap:round;stroke-linejoin:round;stroke-miterlimit:4;stroke-dasharray:none;stroke-dashoffset:0;stroke-opacity:1;paint-order:markers fill stroke"
       id="path6109"
       d="m 182.14537,188.98397 c 0.0374,0.27118 0.0601,0.54405 0.0813,0.81689 0.0106,0.22526 0.0333,0.44909 0.0591,0.67299 0.32448,2.81619 -1.00309,2.96915 -1.32756,0.15296 v 0 c -0.0276,-0.24052 -0.0521,-0.48109 -0.0639,-0.72299 -0.0188,-0.24408 -0.0388,-0.48821 -0.0718,-0.73086 -0.4009,-2.80633 0.92202,-2.99532 1.32292,-0.18899 z"
       inkscape:connector-curvature="0" />
    <path
       style="opacity:1;fill:#000000;fill-opacity:1;fill-rule:nonzero;stroke:#000000;stroke-width:0.39700001;stroke-linecap:round;stroke-linejoin:round;stroke-miterlimit:4;stroke-dasharray:none;stroke-dashoffset:0;stroke-opacity:1;paint-order:markers fill stroke"
       id="path6111"
       d="m 182.67991,197.26933 c 0.039,0.256 0.0492,0.51534 0.0852,0.77156 0.0296,0.19527 0.0144,0.095 0.0455,0.3008 0.42368,2.80299 -0.89766,3.00271 -1.32134,0.19973 v 0 c -0.0322,-0.21338 -0.016,-0.1058 -0.0486,-0.32274 -0.0329,-0.25295 -0.0493,-0.50755 -0.0837,-0.76037 -0.40091,-2.80632 0.92201,-2.99531 1.32291,-0.18898 z"
       inkscape:connector-curvature="0" />
    <path
       style="opacity:1;fill:#000000;fill-opacity:1;fill-rule:nonzero;stroke:#000000;stroke-width:0.39700001;stroke-linecap:round;stroke-linejoin:round;stroke-miterlimit:4;stroke-dasharray:none;stroke-dashoffset:0;stroke-opacity:1;paint-order:markers fill stroke"
       id="path6113"
       d="m 182.94718,205.82195 c 0.0403,0.25452 0.0929,0.5071 0.13417,0.76169 0.45259,2.79846 -0.86662,3.01181 -1.3192,0.21335 v 0 c -0.0424,-0.26273 -0.0975,-0.52312 -0.13789,-0.78605 -0.4009,-2.80633 0.92202,-2.99532 1.32292,-0.18899 z"
       inkscape:connector-curvature="0" />
    <path
       style="opacity:1;fill:#000000;fill-opacity:1;fill-rule:nonzero;stroke:#000000;stroke-width:0.39700001;stroke-linecap:round;stroke-linejoin:round;stroke-miterlimit:4;stroke-dasharray:none;stroke-dashoffset:0;stroke-opacity:1;paint-order:markers fill stroke"
       id="path6115"
       d="m 183.21326,214.73634 c -0.01,0.22795 0.009,0.45391 0.0299,0.68059 0.0325,0.34211 0.0554,0.685 0.0757,1.02801 0.16713,2.82989 -1.16689,2.90868 -1.33402,0.0788 v 0 c -0.0194,-0.32886 -0.0413,-0.6576 -0.0725,-0.98559 -0.0243,-0.26684 -0.0446,-0.53359 -0.0354,-0.8018 0,-2.83482 1.33635,-2.83482 1.33635,0 z"
       inkscape:connector-curvature="0" />
    <path
       style="opacity:1;fill:#000000;fill-opacity:1;fill-rule:nonzero;stroke:#000000;stroke-width:0.39700001;stroke-linecap:round;stroke-linejoin:round;stroke-miterlimit:4;stroke-dasharray:none;stroke-dashoffset:0;stroke-opacity:1;paint-order:markers fill stroke"
       id="path6117"
       d="m 183.4659,224.71981 c -0.033,0.24265 -0.053,0.48678 -0.0718,0.73085 -0.004,0.0533 -0.007,0.10658 -0.0111,0.15987 -0.19709,2.82797 -1.53021,2.73505 -1.33311,-0.0929 v 0 c 0.004,-0.0566 0.008,-0.11328 0.0119,-0.16992 0.0211,-0.27283 0.0439,-0.5457 0.0813,-0.81688 0.4009,-2.80633 1.72382,-2.61734 1.32292,0.18899 z"
       inkscape:connector-curvature="0" />
    <path
       style="opacity:1;fill:#000000;fill-opacity:1;fill-rule:nonzero;stroke:#000000;stroke-width:0.39700001;stroke-linecap:round;stroke-linejoin:round;stroke-miterlimit:4;stroke-dasharray:none;stroke-dashoffset:0;stroke-opacity:1;paint-order:markers fill stroke"
       id="path6119"
       d="m 184.01507,233.44521 c -0.01,0.22795 0.009,0.45391 0.0299,0.68059 0.0265,0.27997 0.0464,0.56048 0.0646,0.8411 0.1832,2.82889 -1.15035,2.91525 -1.33355,0.0864 v 0 c -0.0174,-0.26899 -0.0364,-0.53789 -0.0619,-0.80626 -0.0243,-0.26683 -0.0446,-0.53359 -0.0354,-0.80179 0,-2.83482 1.33635,-2.83482 1.33635,0 z"
       inkscape:connector-curvature="0" />
    <path
       style="opacity:1;fill:#000000;fill-opacity:1;fill-rule:nonzero;stroke:#000000;stroke-width:0.39700001;stroke-linecap:round;stroke-linejoin:round;stroke-miterlimit:4;stroke-dasharray:none;stroke-dashoffset:0;stroke-opacity:1;paint-order:markers fill stroke"
       id="path6121"
       d="m 184.54961,242.53237 c 0,0.25796 0,0.51591 0,0.77387 0,0.17147 0,0.34293 0,0.5144 0,2.83482 -1.33635,2.83482 -1.33635,0 v 0 c 0,-0.17147 0,-0.34293 0,-0.5144 0,-0.25796 0,-0.51591 0,-0.77387 0,-2.83482 1.33635,-2.83482 1.33635,0 z"
       inkscape:connector-curvature="0" />
    <path
       style="opacity:1;fill:#000000;fill-opacity:1;fill-rule:nonzero;stroke:#000000;stroke-width:0.39700001;stroke-linecap:round;stroke-linejoin:round;stroke-miterlimit:4;stroke-dasharray:none;stroke-dashoffset:0;stroke-opacity:1;paint-order:markers fill stroke"
       id="path6123"
       d="m 185.35142,252.68861 c 0.006,0.21811 0.0366,0.43559 0.0567,0.65301 0.0168,0.31547 0.0678,0.62715 0.10997,0.93985 0.0235,0.26413 0.0141,0.13394 0.0288,0.39053 0.1586,2.83038 -1.17565,2.90515 -1.33425,0.0748 v 0 c -0.0106,-0.19632 -0.004,-0.10073 -0.0189,-0.28677 -0.0446,-0.33121 -0.0976,-0.66157 -0.11631,-0.99563 -0.0238,-0.25821 -0.0602,-0.51625 -0.0623,-0.77576 0,-2.83482 1.33635,-2.83482 1.33635,0 z"
       inkscape:connector-curvature="0" />
    <path
       style="opacity:1;fill:#000000;fill-opacity:1;fill-rule:nonzero;stroke:#000000;stroke-width:0.39700001;stroke-linecap:round;stroke-linejoin:round;stroke-miterlimit:4;stroke-dasharray:none;stroke-dashoffset:0;stroke-opacity:1;paint-order:markers fill stroke"
       id="path6125"
       d="m 142.33723,235.67627 c 0.25394,0.0344 0.50965,0.0515 0.76388,0.0831 0.3546,0.0526 0.71028,0.0965 1.06673,0.13418 0.39244,0.0509 0.78811,0.0487 1.18298,0.0496 0.45423,-2.6e-4 0.90847,-0.002 1.36271,-0.003 0.47115,0.001 0.94179,0.001 1.4124,-0.0222 0.48871,-0.0323 0.97874,-0.0452 1.46687,-0.0853 0.4747,-0.0437 0.94905,-0.0883 1.42178,-0.14989 0.47888,-0.0527 0.95258,-0.14014 1.42782,-0.21751 0.48736,-0.0767 0.97153,-0.17178 1.45836,-0.25195 0.5013,-0.0974 1.00341,-0.18968 1.50758,-0.27087 0.52181,-0.0829 1.04649,-0.1454 1.57169,-0.2021 0.52655,-0.0558 1.05442,-0.0977 1.58251,-0.13571 0.5293,-0.0374 1.0592,-0.0655 1.58919,-0.0911 0.53448,-0.0277 1.06877,-0.0483 1.60397,-0.042 0.50683,0.0104 1.01357,0.0241 1.52038,0.0355 0.4999,0.0138 0.99994,-0.0132 1.49944,-0.0313 0.52202,-0.0192 1.04417,-0.0345 1.56636,-0.0482 0.52653,-0.0136 1.05314,-0.0238 1.57976,-0.0331 0.52914,-0.009 1.05832,-0.0161 1.5875,-0.0223 0.52055,-0.0217 1.04041,-0.0571 1.56057,-0.0863 0.53508,-0.0299 1.07051,-0.0529 1.60601,-0.0738 0.53518,-0.0205 1.07054,-0.036 1.60593,-0.05 0.45893,-2.6e-4 0.91486,-0.0476 1.3677,-0.11809 0.14037,-0.0169 0.38402,-0.0978 0.46514,-0.13978 -0.10768,0.0682 -0.16281,0.16107 -0.19453,0.28409 -0.0252,0.0978 0.007,0.14305 -0.006,0.14435 -0.018,0.002 -0.0139,-0.0333 -0.0208,-0.05 -0.0689,-0.14421 -0.17371,-0.26296 -0.27303,-0.3865 -0.17187,-0.18669 -0.35514,-0.36346 -0.54008,-0.53731 -0.2259,-0.20612 -0.41034,-0.44041 -0.5189,-0.72757 -0.17848,-0.62106 0.30105,-1.0228 0.88122,-1.00011 0.27004,0.0437 0.50989,0.17109 0.74657,0.30079 0.2708,0.15091 0.51181,0.34184 0.73984,0.55036 0.31343,0.28997 0.54257,0.64101 0.71052,1.03054 0.16772,0.45274 0.15658,0.91149 0.0502,1.37462 -0.12335,0.44296 -0.35852,0.83668 -0.62117,1.20932 -0.22388,0.31765 -0.49239,0.59744 -0.75986,0.87766 -1.95736,2.0506 -2.92402,1.1279 -0.96667,-0.92271 v 0 c 0.22324,-0.23387 0.4504,-0.46454 0.63761,-0.7296 0.16746,-0.23223 0.32113,-0.47638 0.41152,-0.75015 0.0504,-0.1855 0.0695,-0.3632 0.0121,-0.55163 -0.0765,-0.21439 -0.21796,-0.39434 -0.37835,-0.55392 -0.14788,-0.13671 -0.30133,-0.26376 -0.47799,-0.36257 -0.0309,-0.0169 -0.36753,-0.17885 -0.24915,-0.14423 0.38056,-0.0269 0.64911,-0.41362 0.52126,-0.78008 -0.067,-0.0682 0.13774,0.19375 0.17823,0.20722 0.22877,0.21642 0.45767,0.4345 0.66459,0.6721 0.18329,0.22803 0.36074,0.46001 0.47427,0.7325 0.17154,0.44386 0.13898,0.88054 -0.24743,1.20201 -0.31369,0.20566 -0.66647,0.30789 -1.0349,0.37121 -0.509,0.0785 -1.02149,0.13172 -1.53716,0.13338 -0.52975,0.0139 -1.05947,0.0292 -1.58902,0.0495 -0.52784,0.0206 -1.0556,0.0432 -1.58303,0.0727 -0.53985,0.0303 -1.07937,0.0676 -1.6197,0.0883 -0.5266,0.006 -1.0532,0.0131 -1.57976,0.0222 -0.52278,0.009 -1.04554,0.0194 -1.56823,0.0329 -0.51776,0.0136 -1.03549,0.0287 -1.55308,0.0478 -0.52567,0.019 -1.05187,0.0467 -1.57795,0.0318 -0.50219,-0.0113 -1.00432,-0.0248 -1.50652,-0.0353 -0.50833,-0.006 -1.01574,0.0148 -1.5234,0.0406 -0.51944,0.025 -1.0388,0.0525 -1.55757,0.0892 -0.51227,0.0369 -1.02433,0.0774 -1.53511,0.13145 -0.50214,0.0541 -1.0038,0.11374 -1.50272,0.19283 -0.50263,0.0808 -1.00297,0.17395 -1.50288,0.27011 -0.48762,0.0802 -0.97249,0.1758 -1.46068,0.25233 -0.48928,0.0796 -0.97709,0.16911 -1.47007,0.22369 -0.49429,0.0642 -0.9902,0.11134 -1.48656,0.15673 -0.50209,0.04 -1.00575,0.0562 -1.50842,0.088 -0.49132,0.0242 -0.98265,0.0255 -1.47452,0.0238 -0.45659,0.001 -0.91319,0.003 -1.36978,0.003 -0.44082,-0.001 -0.88245,-0.001 -1.32059,-0.057 -0.36588,-0.0388 -0.73106,-0.0834 -1.09503,-0.13749 -0.2606,-0.0344 -0.52367,-0.0472 -0.78386,-0.0858 -2.80633,-0.4009 -2.61734,-1.72381 0.18899,-1.32291 z"
       inkscape:connector-curvature="0" />
    <path
       style="opacity:1;fill:#000000;fill-opacity:1;fill-rule:nonzero;stroke:#000000;stroke-width:0.39700001;stroke-linecap:round;stroke-linejoin:round;stroke-miterlimit:4;stroke-dasharray:none;stroke-dashoffset:0;stroke-opacity:1;paint-order:markers fill stroke"
       id="path6165"
       d="m 141.07917,234.85864 c 0.25644,-0.0315 0.51303,-0.0566 0.76852,-0.0953 0.35798,-0.0467 0.71179,-0.11847 1.06741,-0.17971 0.39911,-0.0764 0.79542,-0.16497 1.18999,-0.26191 0.27039,-0.0574 0.14083,-0.0308 0.3886,-0.0802 2.78011,-0.55424 3.04139,0.75632 0.26127,1.31056 v 0 c -0.21935,0.0437 -0.10891,0.0212 -0.3313,0.0675 -0.42501,0.10424 -0.85193,0.19958 -1.28194,0.28108 -0.36459,0.0627 -0.72737,0.13611 -1.09435,0.18406 -0.25908,0.0391 -0.51902,0.0667 -0.77922,0.0969 -2.80633,0.40091 -2.99531,-0.92201 -0.18898,-1.32292 z"
       inkscape:connector-curvature="0" />
    <path
       style="opacity:1;fill:#000000;fill-opacity:1;fill-rule:nonzero;stroke:#000000;stroke-width:0.39700001;stroke-linecap:round;stroke-linejoin:round;stroke-miterlimit:4;stroke-dasharray:none;stroke-dashoffset:0;stroke-opacity:1;paint-order:markers fill stroke"
       id="path6167"
       d="m 141.1973,236.02318 c 0.23048,0.1036 0.44792,0.23315 0.66769,0.35721 0.30238,0.18725 0.60861,0.36816 0.90968,0.55751 0.29189,0.17472 0.57303,0.36633 0.8557,0.55535 2.35632,1.57606 1.61336,2.68684 -0.74296,1.11079 v 0 c -0.2724,-0.18224 -0.5432,-0.36714 -0.82471,-0.53525 -0.28295,-0.17833 -0.57155,-0.34742 -0.85504,-0.5249 -0.20007,-0.11312 -0.39757,-0.23223 -0.60799,-0.32544 -2.53554,-1.26778 -1.93791,-2.46304 0.59763,-1.19527 z"
       inkscape:connector-curvature="0" />
    <path
       style="opacity:1;fill:#000000;fill-opacity:1;fill-rule:nonzero;stroke:#000000;stroke-width:0.39700001;stroke-linecap:round;stroke-linejoin:round;stroke-miterlimit:4;stroke-dasharray:none;stroke-dashoffset:0;stroke-opacity:1;paint-order:markers fill stroke"
       id="path6169"
       d="m 157.71155,242.10814 c 0.0708,0.0431 -0.28201,-0.0764 -0.34212,-0.0853 -0.23674,-0.0257 -0.46316,0.0145 -0.68889,0.0817 -0.25224,0.0897 -0.48473,0.22771 -0.6803,0.41024 -0.16461,0.15705 -0.2736,0.34464 -0.34207,0.55929 -0.0376,0.15799 -0.004,0.30995 0.0522,0.45821 0.0722,0.1576 0.18539,0.29221 0.32779,0.3905 0.21681,0.12513 0.44512,0.22537 0.6582,0.35782 0.37066,0.2398 0.51869,0.60204 0.51641,1.03226 -0.0237,0.31318 -0.11887,0.61373 -0.18974,0.91808 -0.0608,0.26532 -0.0903,0.53789 -0.0747,0.80972 0.0259,0.29619 0.0991,0.57991 0.2213,0.85019 0.10482,0.22008 0.2498,0.42211 0.45672,0.55489 0.16782,0.0914 0.34067,0.12079 0.5286,0.11028 0.26916,-0.035 0.52938,-0.12099 0.78118,-0.21988 2.64515,-1.01952 3.12575,0.22742 0.48061,1.24693 v 0 c -0.39915,0.1519 -0.81072,0.28298 -1.23995,0.30912 -0.47845,2.2e-4 -0.92951,-0.0962 -1.33464,-0.36439 -0.38779,-0.29295 -0.70089,-0.65365 -0.89762,-1.10315 -0.1808,-0.42413 -0.30185,-0.86543 -0.33136,-1.32772 -0.0133,-0.39316 0.0161,-0.78618 0.10852,-1.16975 0.0507,-0.21655 0.11021,-0.43111 0.15521,-0.64873 0.0111,-0.0814 0.12289,0.22609 0.10383,0.13072 -0.24498,-0.16264 -0.53612,-0.24639 -0.76653,-0.43431 -0.33856,-0.27602 -0.61997,-0.60235 -0.77131,-1.01919 -0.138,-0.43576 -0.18775,-0.87833 -0.0462,-1.32271 0.15508,-0.42655 0.37903,-0.81116 0.71863,-1.11958 0.35467,-0.30539 0.74996,-0.55517 1.20058,-0.69449 0.42479,-0.11705 0.85656,-0.17799 1.29654,-0.11007 0.37958,0.0758 0.74614,0.19655 1.04402,0.4544 2.00452,2.00453 1.05958,2.94947 -0.94494,0.94494 z"
       inkscape:connector-curvature="0" />
    <path
       style="opacity:1;fill:#000000;fill-opacity:1;fill-rule:nonzero;stroke:#000000;stroke-width:0.39700001;stroke-linecap:round;stroke-linejoin:round;stroke-miterlimit:4;stroke-dasharray:none;stroke-dashoffset:0;stroke-opacity:1;paint-order:markers fill stroke"
       id="path6171"
       d="m 163.85211,246.39925 c 0.27459,-0.13839 0.57032,-0.21251 0.87311,-0.25448 0.42336,-0.0442 0.79038,0.1001 1.12528,0.34626 0.31818,0.26162 0.48211,0.62333 0.59048,1.01051 0.0874,0.38964 0.075,0.79039 0.0442,1.18567 -0.0378,0.39589 -0.11806,0.78626 -0.20817,1.17309 -0.0836,0.29245 -0.1262,0.58561 -0.11401,0.88863 0.008,0.0971 0.0316,0.18453 0.11317,0.23871 0.12645,0.0967 0.2723,0.14966 0.4235,0.1922 0.18531,0.0488 0.3744,0.0805 0.56323,0.11187 2.7961,0.46694 2.57599,1.78503 -0.22011,1.31809 v 0 c -0.24296,-0.0408 -0.48611,-0.0828 -0.72374,-0.14896 -0.37123,-0.11346 -0.72273,-0.27319 -1.00577,-0.54655 -0.28884,-0.31846 -0.46751,-0.68407 -0.48588,-1.12054 -0.0123,-0.41978 0.0345,-0.83157 0.14819,-1.23696 0.0755,-0.32322 0.14444,-0.64906 0.17779,-0.9797 0.0218,-0.2416 0.0312,-0.48681 -0.003,-0.72772 -0.026,-0.10465 -0.051,-0.21843 -0.12005,-0.30305 -0.0419,-0.046 -0.0718,-0.079 -0.1405,-0.0754 -0.15373,0.0131 -0.30087,0.058 -0.44039,0.12361 -2.53554,1.26777 -3.13318,0.0725 -0.59764,-1.19526 z"
       inkscape:connector-curvature="0" />
    <path
       style="opacity:1;fill:#da03ae;fill-opacity:1;fill-rule:nonzero;stroke:#da03ae;stroke-width:0.39700001;stroke-linecap:round;stroke-linejoin:round;stroke-miterlimit:4;stroke-dasharray:none;stroke-dashoffset:0;stroke-opacity:1;paint-order:markers fill stroke"
       id="path6177"
       d="m 119.33584,175.44772 c 0.003,0.2468 -0.007,0.49387 0.007,0.74035 0.0269,0.35742 0.0536,0.71483 0.0761,1.07257 0.0259,0.42236 0.0438,0.84514 0.0601,1.26796 0.0172,0.45848 0.0294,0.91711 0.0405,1.37576 -7.9e-4,0.22148 0.0171,0.44228 0.0329,0.66298 0.20154,2.82765 -1.13143,2.92265 -1.33297,0.095 v 0 c -0.0171,-0.24159 -0.0359,-0.48333 -0.0359,-0.72572 -0.0109,-0.45231 -0.0229,-0.9046 -0.0399,-1.35673 -0.0158,-0.41203 -0.0333,-0.82402 -0.0585,-1.23559 -0.0228,-0.36328 -0.0504,-0.72619 -0.077,-1.08921 -0.0123,-0.26901 -0.009,-0.53811 -0.009,-0.80738 0,-2.83482 1.33635,-2.83482 1.33635,0 z"
       inkscape:connector-curvature="0" />
    <path
       style="opacity:1;fill:#da03ae;fill-opacity:1;fill-rule:nonzero;stroke:#da03ae;stroke-width:0.39700001;stroke-linecap:round;stroke-linejoin:round;stroke-miterlimit:4;stroke-dasharray:none;stroke-dashoffset:0;stroke-opacity:1;paint-order:markers fill stroke"
       id="path6179"
       d="m 116.61633,187.16812 c 0.11345,0.18409 0.22535,0.36966 0.33893,0.55394 0.17892,0.2862 0.35159,0.57631 0.53708,0.85837 0.21763,0.3419 0.44677,0.67654 0.68301,1.00581 0.25504,0.3534 0.50855,0.70774 0.75715,1.06575 0.0369,0.0513 0.0737,0.10269 0.11063,0.15403 1.65268,2.30324 0.56692,3.08231 -1.08575,0.77908 v 0 c -0.0409,-0.0571 -0.0818,-0.11411 -0.12272,-0.17116 -0.24468,-0.35275 -0.49453,-0.70162 -0.7458,-1.04965 -0.24641,-0.34467 -0.48697,-0.6938 -0.71427,-1.05142 -0.19149,-0.29308 -0.37236,-0.59276 -0.55719,-0.89002 -0.13409,-0.21788 -0.26823,-0.4356 -0.39634,-0.65709 -1.26777,-2.53554 -0.0725,-3.13318 1.19527,-0.59764 z"
       inkscape:connector-curvature="0" />
    <path
       style="opacity:1;fill:#da03ae;fill-opacity:1;fill-rule:nonzero;stroke:#da03ae;stroke-width:0.39700001;stroke-linecap:round;stroke-linejoin:round;stroke-miterlimit:4;stroke-dasharray:none;stroke-dashoffset:0;stroke-opacity:1;paint-order:markers fill stroke"
       id="path6181"
       d="m 120.0599,186.66898 c -0.0948,0.26693 -0.20494,0.52796 -0.31456,0.78909 -0.16477,0.42541 -0.36303,0.83623 -0.55631,1.24908 -0.23406,0.48799 -0.47487,0.97269 -0.71128,1.45953 -0.25187,0.4974 -0.48847,1.00224 -0.73343,1.50298 -0.11682,0.23997 -0.2294,0.48177 -0.34695,0.72139 -1.24976,2.54447 -2.44923,1.95533 -1.19948,-0.58914 v 0 c 0.11755,-0.23901 0.22922,-0.48066 0.34624,-0.71993 0.24472,-0.49927 0.48004,-1.00315 0.73156,-1.49913 0.2337,-0.48108 0.47151,-0.96016 0.70305,-1.44229 0.18574,-0.39674 0.37679,-0.79127 0.53464,-1.20028 0.1111,-0.264 0.2206,-0.52844 0.31823,-0.79772 1.11669,-2.60561 2.34498,-2.07919 1.22829,0.52642 z"
       inkscape:connector-curvature="0" />
    <path
       style="opacity:1;fill:#da03ae;fill-opacity:1;fill-rule:nonzero;stroke:#da03ae;stroke-width:0.39700001;stroke-linecap:round;stroke-linejoin:round;stroke-miterlimit:4;stroke-dasharray:none;stroke-dashoffset:0;stroke-opacity:1;paint-order:markers fill stroke"
       id="path6183"
       d="m 121.8908,190.80718 c 0.27458,-0.13838 0.57032,-0.2125 0.8731,-0.25447 0.39343,-0.0557 0.76209,0.0368 1.116,0.20243 0.35486,0.18573 0.60377,0.47654 0.79806,0.8192 0.16807,0.33495 0.23476,0.70157 0.26714,1.07123 0.028,0.36252 -0.008,0.72454 -0.0367,1.08566 -0.035,0.29562 -0.0975,0.58969 -0.0441,0.88622 0.0322,0.1424 0.10766,0.25508 0.21861,0.34611 0.16736,0.13494 0.37206,0.20033 0.56628,0.28455 2.59705,1.13645 2.06133,2.36071 -0.53573,1.22426 v 0 c -0.33332,-0.14784 -0.67518,-0.27986 -0.94605,-0.53532 -0.31953,-0.31274 -0.54868,-0.67828 -0.62535,-1.12598 -0.0526,-0.39791 -0.0355,-0.79098 0.0343,-1.18648 0.0233,-0.29138 0.0562,-0.58331 0.0364,-0.87595 -0.0105,-0.18638 -0.042,-0.3728 -0.11416,-0.54591 -0.0385,-0.1047 -0.11999,-0.18633 -0.21005,-0.24921 -0.113,-0.067 -0.22742,-0.0948 -0.35971,-0.0747 -0.15372,0.0131 -0.30086,0.058 -0.44039,0.12361 -2.53554,1.26777 -3.13317,0.0725 -0.59763,-1.19527 z"
       inkscape:connector-curvature="0" />
    <path
       style="opacity:1;fill:#000000;fill-opacity:1;fill-rule:nonzero;stroke:#000000;stroke-width:0.39700001;stroke-linecap:round;stroke-linejoin:round;stroke-miterlimit:4;stroke-dasharray:none;stroke-dashoffset:0;stroke-opacity:1;paint-order:markers fill stroke"
       id="path6185"
       d="m 123.51789,173.3332 c -0.10055,0.2092 -0.20561,0.41638 -0.31113,0.62323 -0.13173,0.26563 -0.26466,0.53055 -0.39061,0.79908 -0.14005,0.30105 -0.23806,0.61842 -0.32624,0.93774 -0.10727,0.36438 -0.15907,0.73856 -0.1979,1.11517 -0.0443,0.4136 -0.0354,0.83015 -0.0139,1.24475 0.0325,0.41551 0.10443,0.82617 0.20751,1.22964 0.10389,0.43108 0.25984,0.84548 0.42806,1.25471 0.13592,0.34106 0.34072,0.64043 0.58471,0.91184 0.10659,0.11723 0.23024,0.21513 0.35523,0.3114 2.23159,1.7482 1.40748,2.80018 -0.82411,1.05198 v 0 c -0.1871,-0.14819 -0.37247,-0.29854 -0.53176,-0.47763 -0.33879,-0.38674 -0.62875,-0.80917 -0.82014,-1.2897 -0.19223,-0.46805 -0.36807,-0.94294 -0.4877,-1.43557 -0.12214,-0.48862 -0.21118,-0.98502 -0.24639,-1.4881 -0.0246,-0.48347 -0.0325,-0.96906 0.0193,-1.45125 0.047,-0.45057 0.11253,-0.89829 0.23938,-1.33442 0.10899,-0.39147 0.23162,-0.77992 0.40441,-1.14869 0.13243,-0.28161 0.27185,-0.55961 0.40987,-0.83842 0.10393,-0.20355 0.20836,-0.40694 0.30617,-0.61339 1.26777,-2.53554 2.46304,-1.93791 1.19526,0.59763 z"
       inkscape:connector-curvature="0" />
    <path
       style="opacity:1;fill:#000000;fill-opacity:1;fill-rule:nonzero;stroke:#000000;stroke-width:0.39700001;stroke-linecap:round;stroke-linejoin:round;stroke-miterlimit:4;stroke-dasharray:none;stroke-dashoffset:0;stroke-opacity:1;paint-order:markers fill stroke"
       id="path6189"
       d="m 149.38113,171.7522 c 0.18815,0.19729 0.36393,0.40479 0.5335,0.61816 0.24028,0.31362 0.44498,0.65179 0.62887,1.00086 0.2031,0.39607 0.34752,0.81735 0.47653,1.24218 0.14436,0.45271 0.2101,0.92299 0.26822,1.39286 0.0506,0.48051 0.0499,0.96306 0.0159,1.44439 -0.0356,0.47705 -0.10707,0.95039 -0.19371,1.42055 -0.0863,0.4867 -0.2224,0.96218 -0.34836,1.43954 -0.0944,0.33147 -0.0462,0.16837 -0.14436,0.48937 -0.83068,2.71038 -2.10837,2.31879 -1.27768,-0.39159 v 0 c 0.0883,-0.28749 0.0449,-0.14125 0.12993,-0.43877 0.11752,-0.44523 0.2456,-0.88846 0.32655,-1.34233 0.0789,-0.42166 0.14213,-0.84657 0.17486,-1.27449 0.0303,-0.39417 0.0287,-0.78927 -0.009,-1.18308 -0.0485,-0.39424 -0.0991,-0.78956 -0.22097,-1.16934 -0.10387,-0.34459 -0.2185,-0.68701 -0.38119,-1.00908 -0.14333,-0.2755 -0.30487,-0.54129 -0.49154,-0.78985 -0.13784,-0.1736 -0.27929,-0.34375 -0.43206,-0.50444 -2.00452,-2.00452 -1.05958,-2.94946 0.94494,-0.94494 z"
       inkscape:connector-curvature="0" />
    <path
       style="opacity:1;fill:#000000;fill-opacity:1;fill-rule:nonzero;stroke:#000000;stroke-width:0.39700001;stroke-linecap:round;stroke-linejoin:round;stroke-miterlimit:4;stroke-dasharray:none;stroke-dashoffset:0;stroke-opacity:1;paint-order:markers fill stroke"
       id="path6191"
       d="m 150.87365,186.40577 c -0.004,0.24213 -2.7e-4,0.48323 0.0177,0.72466 0.0127,0.27148 0.0539,0.53966 0.0926,0.80826 0.40395,2.8059 -0.91876,2.99632 -1.32271,0.19043 v 0 c -0.0431,-0.29911 -0.0872,-0.59811 -0.1026,-0.90027 -0.02,-0.2742 -0.0262,-0.54817 -0.0214,-0.82308 0,-2.83482 1.33635,-2.83482 1.33635,0 z"
       inkscape:connector-curvature="0" />
    <path
       style="opacity:1;fill:#000000;fill-opacity:1;fill-rule:nonzero;stroke:#000000;stroke-width:0.39700001;stroke-linecap:round;stroke-linejoin:round;stroke-miterlimit:4;stroke-dasharray:none;stroke-dashoffset:0;stroke-opacity:1;paint-order:markers fill stroke"
       id="path6193"
       d="m 151.67546,195.7602 c 0.0349,0.22453 0.0547,0.45186 0.064,0.67902 2.6e-4,0.0576 5.3e-4,0.11529 7.9e-4,0.17294 0.01,2.8348 -1.32632,2.83953 -1.33634,0.005 v 0 c -5e-5,-0.0442 -1e-4,-0.0883 -1.6e-4,-0.13252 -0.005,-0.24273 -0.0507,-0.48195 -0.0648,-0.72415 0,-2.83482 1.33634,-2.83482 1.33634,0 z"
       inkscape:connector-curvature="0" />
    <path
       style="opacity:1;fill:#000000;fill-opacity:1;fill-rule:nonzero;stroke:#000000;stroke-width:0.39700001;stroke-linecap:round;stroke-linejoin:round;stroke-miterlimit:4;stroke-dasharray:none;stroke-dashoffset:0;stroke-opacity:1;paint-order:markers fill stroke"
       id="path6195"
       d="m 151.40819,202.97648 c 0,0.25796 0,0.51591 0,0.77387 0,2.83482 -1.33635,2.83482 -1.33635,0 v 0 c 0,-0.25796 0,-0.51591 0,-0.77387 0,-2.83482 1.33635,-2.83482 1.33635,0 z"
       inkscape:connector-curvature="0" />
    <path
       style="opacity:1;fill:#000000;fill-opacity:1;fill-rule:nonzero;stroke:#000000;stroke-width:0.39700001;stroke-linecap:round;stroke-linejoin:round;stroke-miterlimit:4;stroke-dasharray:none;stroke-dashoffset:0;stroke-opacity:1;paint-order:markers fill stroke"
       id="path6197"
       d="m 151.66083,210.01998 c -0.0332,0.2198 -0.05,0.44023 -0.0503,0.66232 0.006,0.16891 -0.004,0.33777 -0.0129,0.50638 -0.14601,2.83106 -1.48058,2.76223 -1.33458,-0.0688 v 0 c 0.008,-0.14734 0.018,-0.29485 0.0112,-0.4425 0.002,-0.28361 0.0213,-0.56571 0.0637,-0.84635 0.4009,-2.80634 1.72382,-2.61735 1.32291,0.18898 z"
       inkscape:connector-curvature="0" />
    <path
       style="opacity:1;fill:#000000;fill-opacity:1;fill-rule:nonzero;stroke:#000000;stroke-width:0.39700001;stroke-linecap:round;stroke-linejoin:round;stroke-miterlimit:4;stroke-dasharray:none;stroke-dashoffset:0;stroke-opacity:1;paint-order:markers fill stroke"
       id="path6199"
       d="m 151.40819,217.6763 c 0,0.25796 0,0.51592 0,0.77388 0,0.055 0,0.10993 0,0.16489 0,2.83482 -1.33635,2.83482 -1.33635,0 v 0 c 0,-0.055 0,-0.10993 0,-0.16489 0,-0.25796 0,-0.51592 0,-0.77388 0,-2.83482 1.33635,-2.83482 1.33635,0 z"
       inkscape:connector-curvature="0" />
    <path
       style="opacity:1;fill:#000000;fill-opacity:1;fill-rule:nonzero;stroke:#000000;stroke-width:0.39700001;stroke-linecap:round;stroke-linejoin:round;stroke-miterlimit:4;stroke-dasharray:none;stroke-dashoffset:0;stroke-opacity:1;paint-order:markers fill stroke"
       id="path6201"
       d="m 151.94392,225.5999 c 0.038,0.27927 0.0654,0.55977 0.0751,0.84143 4e-5,0.0576 9e-5,0.11525 1.3e-4,0.17288 -0.002,2.83482 -1.33884,2.83364 -1.33635,-0.001 v 0 c 1.4e-4,-0.0445 2.7e-4,-0.0891 5.3e-4,-0.13365 -0.004,-0.23121 -0.0341,-0.46115 -0.0622,-0.6905 -0.4009,-2.80633 0.92202,-2.99532 1.32292,-0.18898 z"
       inkscape:connector-curvature="0" />
    <path
       style="opacity:1;fill:#000000;fill-opacity:1;fill-rule:nonzero;stroke:#000000;stroke-width:0.39700001;stroke-linecap:round;stroke-linejoin:round;stroke-miterlimit:4;stroke-dasharray:none;stroke-dashoffset:0;stroke-opacity:1;paint-order:markers fill stroke"
       id="path6203"
       d="m 127.37014,215.36379 c 0.22358,0.0398 0.44914,0.0387 0.67523,0.0372 0.34454,0.005 0.68734,-0.0305 1.03023,-0.0588 0.42293,-0.0351 0.84654,-0.0609 1.27028,-0.084 0.44796,-0.0406 0.89527,-0.0878 1.34331,-0.12766 0.48725,-0.0428 0.97536,-0.0744 1.46361,-0.10306 0.50973,-0.0268 1.01944,-0.0578 1.52993,-0.0621 0.51677,0.004 1.0334,0.0189 1.55006,0.0302 0.50592,-0.005 1.0115,-0.027 1.51712,-0.0441 0.52563,-0.0179 1.05139,-0.0317 1.57717,-0.0443 0.55339,-0.002 1.10551,-0.0294 1.65778,-0.0618 0.63837,-0.0389 1.27723,-0.0686 1.91622,-0.0949 0.67447,-0.0274 1.3492,-0.0474 2.02395,-0.0662 0.6455,-0.0177 1.29108,-0.0317 1.93668,-0.0446 0.60102,-0.002 1.20089,-0.0268 1.80076,-0.0617 0.58061,-0.0394 1.16254,-0.0577 1.74281,-0.1015 0.56153,-0.053 1.12463,-0.0897 1.68556,-0.14854 0.55843,-0.0655 1.1173,-0.12663 1.67693,-0.18079 0.55937,-0.0506 1.11897,-0.10168 1.68026,-0.12416 0.52781,-0.0128 1.05585,-0.0112 1.58379,-0.0115 0.0771,-0.003 0.15418,-0.005 0.23128,-0.008 2.83341,-0.0893 2.87551,1.24639 0.0421,1.33569 v 0 c -0.0909,0.003 -0.18177,0.006 -0.27266,0.008 -0.51088,2.6e-4 -1.02185,-0.001 -1.53263,0.0105 -0.53568,0.02 -1.06959,0.0721 -1.60346,0.11895 -0.55635,0.0538 -1.11192,0.11488 -1.66709,0.1798 -0.57395,0.0594 -1.14984,0.0987 -1.7244,0.15201 -0.5877,0.0436 -1.17686,0.064 -1.7649,0.10297 -0.61683,0.0359 -1.2337,0.061 -1.8517,0.0637 -0.64213,0.0128 -1.28424,0.0268 -1.92626,0.0444 -0.66879,0.0185 -1.33755,0.0384 -2.00606,0.0655 -0.63125,0.026 -1.26237,0.0554 -1.893,0.0938 -0.5677,0.0333 -1.1353,0.0607 -1.70412,0.0637 -0.52129,0.0124 -1.04254,0.0261 -1.56367,0.0439 -0.53046,0.018 -1.06091,0.0418 -1.59173,0.0446 -0.50377,-0.011 -1.0075,-0.0251 -1.51136,-0.0299 -0.48755,0.003 -0.97434,0.0358 -1.46118,0.0598 -0.47481,0.0278 -0.94949,0.0585 -1.42332,0.10009 -0.46331,0.0412 -0.92576,0.0911 -1.38918,0.13094 -0.41139,0.0224 -0.82266,0.0473 -1.23327,0.0814 -0.37657,0.031 -0.75319,0.0686 -1.13154,0.0632 -0.29192,0.002 -0.58375,-0.002 -0.87251,-0.0506 -2.80633,-0.40091 -2.61734,-1.72383 0.18899,-1.32292 z"
       inkscape:connector-curvature="0" />
    <path
       style="opacity:1;fill:#000000;fill-opacity:1;fill-rule:nonzero;stroke:#000000;stroke-width:0.39700001;stroke-linecap:round;stroke-linejoin:round;stroke-miterlimit:4;stroke-dasharray:none;stroke-dashoffset:0;stroke-opacity:1;paint-order:markers fill stroke"
       id="path6205"
       d="m 130.1319,211.64891 c 0.26298,0.0743 0.52272,0.16149 0.77713,0.26136 0.32918,0.12873 0.65736,0.26043 0.98144,0.40158 0.34033,0.14683 0.68112,0.29295 1.01767,0.44832 0.35043,0.16463 0.70883,0.31126 1.06263,0.46823 0.41647,0.16343 0.79227,0.39937 1.13629,0.68264 0.31641,0.26864 0.5353,0.60554 0.67869,0.9911 0.11799,0.39399 0.0744,0.78008 -0.0518,1.16398 -0.15188,0.40289 -0.43706,0.72957 -0.72287,1.04337 -0.31602,0.34021 -0.6669,0.64561 -1.0048,0.96365 -0.36731,0.32294 -0.71286,0.66892 -1.06083,1.01217 -0.15269,0.14584 -0.29083,0.30486 -0.4251,0.46738 -1.81413,2.17834 -2.84101,1.32315 -1.02688,-0.85518 v 0 c 0.16338,-0.19502 0.32953,-0.38754 0.51364,-0.56369 0.35544,-0.35045 0.70825,-0.70389 1.08326,-1.03378 0.31341,-0.29498 0.63885,-0.57819 0.93393,-0.89171 0.16407,-0.17908 0.34071,-0.3608 0.44739,-0.58099 0.0401,-0.0987 0.0644,-0.1874 0.0487,-0.29546 -0.0247,-0.15938 -0.16549,-0.28505 -0.27035,-0.39549 -0.24468,-0.20987 -0.52198,-0.36934 -0.82246,-0.48703 -0.35968,-0.16055 -0.72506,-0.30843 -1.08135,-0.47673 -0.32738,-0.15246 -0.66035,-0.29276 -0.99157,-0.43655 -0.30921,-0.13619 -0.62393,-0.25976 -0.93824,-0.38357 -0.21252,-0.0855 -0.43141,-0.15623 -0.65163,-0.21867 -2.72575,-0.77878 -2.35863,-2.06371 0.36712,-1.28493 z"
       inkscape:connector-curvature="0" />
    <path
       style="opacity:1;fill:#000000;fill-opacity:1;fill-rule:nonzero;stroke:#000000;stroke-width:0.39700001;stroke-linecap:round;stroke-linejoin:round;stroke-miterlimit:4;stroke-dasharray:none;stroke-dashoffset:0;stroke-opacity:1;paint-order:markers fill stroke"
       id="path6207"
       d="m 151.75317,213.02433 c 0.23136,-0.13344 0.46224,-0.26814 0.69525,-0.3989 0.30114,-0.17137 0.59542,-0.35421 0.88848,-0.53896 0.3339,-0.20011 0.65679,-0.41766 0.97962,-0.63499 0.34668,-0.22968 0.69276,-0.46008 1.04545,-0.68053 0.12268,-0.079 0.24709,-0.15506 0.36863,-0.23581 2.36447,-1.56381 3.10166,-0.44919 0.73719,1.11462 v 0 c -0.13173,0.0868 -0.26545,0.17029 -0.39853,0.25503 -0.34,0.21159 -0.6725,0.43457 -1.00656,0.65531 -0.33398,0.22475 -0.66813,0.44964 -1.01333,0.65695 -0.31262,0.19693 -0.6266,0.39177 -0.94791,0.5743 -0.20316,0.11353 -0.40273,0.23349 -0.60702,0.34489 -2.35871,1.57247 -3.09999,0.46056 -0.74127,-1.11191 z"
       inkscape:connector-curvature="0" />
    <path
       style="opacity:1;fill:#000000;fill-opacity:1;fill-rule:nonzero;stroke:#000000;stroke-width:0.39700001;stroke-linecap:round;stroke-linejoin:round;stroke-miterlimit:4;stroke-dasharray:none;stroke-dashoffset:0;stroke-opacity:1;paint-order:markers fill stroke"
       id="path6209"
       d="m 152.28429,215.00903 c 0.22354,0.18168 0.44889,0.36176 0.67732,0.53736 0.35113,0.2632 0.67662,0.55841 1.00208,0.85216 0.38613,0.34271 0.73971,0.71923 1.09826,1.08997 0.21907,0.23736 0.43788,0.47429 0.66952,0.69946 2.02906,1.97968 1.09583,2.93619 -0.93323,0.95651 v 0 c -0.24015,-0.23502 -0.4704,-0.47897 -0.697,-0.72707 -0.33743,-0.34907 -0.66967,-0.70413 -1.03299,-1.0269 -0.29965,-0.27053 -0.59865,-0.5433 -0.92214,-0.78546 -0.24164,-0.18647 -0.48065,-0.37678 -0.71733,-0.56942 -2.17777,-1.81481 -1.32226,-2.84142 0.85551,-1.02661 z"
       inkscape:connector-curvature="0" />
    <path
       style="opacity:1;fill:#000000;fill-opacity:1;fill-rule:nonzero;stroke:#000000;stroke-width:0.39700001;stroke-linecap:round;stroke-linejoin:round;stroke-miterlimit:4;stroke-dasharray:none;stroke-dashoffset:0;stroke-opacity:1;paint-order:markers fill stroke"
       id="path6211"
       d="m 165.89538,209.37497 c -0.0416,0.0263 -0.13264,0.013 -0.19276,0.0331 -0.11635,0.0179 -0.20303,0.0681 -0.27758,0.15276 -0.061,0.0921 -0.0623,0.20429 -0.0702,0.31098 -0.006,0.17684 0.0369,0.33916 0.10773,0.49927 0.0991,0.20636 0.22653,0.38835 0.38909,0.54854 0.18441,0.17384 0.41679,0.27858 0.63107,0.40897 0.35983,0.21017 0.56143,0.52559 0.63788,0.92977 0.0396,0.34589 -0.0723,0.66538 -0.20407,0.97827 -0.13722,0.27676 -0.27868,0.55107 -0.41501,0.82828 -0.14787,0.28839 -0.25658,0.59118 -0.33304,0.90535 -0.0661,0.29009 -0.0637,0.58394 -0.0291,0.87753 0.0376,0.24585 0.11024,0.47669 0.24133,0.68788 0.11033,0.17174 0.2729,0.28315 0.45065,0.37596 0.18266,0.0979 0.37623,0.13607 0.58113,0.14113 0.2178,0.007 0.43252,-0.026 0.63588,-0.10349 2.67468,-0.93933 3.11748,0.32152 0.44281,1.26085 v 0 c -0.37029,0.12512 -0.75243,0.19671 -1.1453,0.17733 -0.40656,-0.025 -0.79985,-0.10667 -1.16022,-0.30582 -0.38371,-0.21724 -0.72687,-0.48577 -0.95759,-0.86974 -0.21694,-0.37991 -0.36295,-0.78436 -0.41733,-1.22074 -0.0457,-0.44936 -0.046,-0.90003 0.0606,-1.34218 0.10191,-0.40624 0.24003,-0.80021 0.4311,-1.17398 0.12497,-0.25391 0.25129,-0.50689 0.38272,-0.75752 0.0234,-0.0554 0.0941,-0.25207 0.11519,-0.25236 0.0802,0.0981 0.12107,0.10015 -0.0169,0.002 -0.30535,-0.19017 -0.63535,-0.34543 -0.88617,-0.61233 -0.27782,-0.28861 -0.50924,-0.60945 -0.67153,-0.97788 -0.14323,-0.36272 -0.23132,-0.73593 -0.20154,-1.12909 0.0422,-0.4142 0.15462,-0.80535 0.44332,-1.11944 0.2753,-0.2648 0.58875,-0.46165 0.97087,-0.53053 0.35579,-0.063 0.71772,-0.0704 1.05463,0.0816 2.53554,1.26777 1.9379,2.46304 -0.59764,1.19527 z"
       inkscape:connector-curvature="0" />
    <path
       style="opacity:1;fill:#000000;fill-opacity:1;fill-rule:nonzero;stroke:#000000;stroke-width:0.39700001;stroke-linecap:round;stroke-linejoin:round;stroke-miterlimit:4;stroke-dasharray:none;stroke-dashoffset:0;stroke-opacity:1;paint-order:markers fill stroke"
       id="path6213"
       d="m 171.86452,215.06472 c 0.18132,-0.24648 0.39879,-0.46187 0.63494,-0.65523 0.30806,-0.24519 0.66126,-0.3886 1.04716,-0.44922 0.45111,-0.0392 0.81228,0.14617 1.11008,0.47069 0.2285,0.29847 0.30256,0.65484 0.33165,1.02058 0.018,0.17444 -0.036,0.36994 0.0522,0.53095 0.0842,0.11863 0.19258,0.21404 0.30797,0.30114 0.25745,0.20067 0.51883,0.39543 0.76177,0.61378 0.30733,0.28459 0.53056,0.63669 0.72591,1.00331 0.19467,0.37128 0.3075,0.77402 0.38451,1.18383 0.0664,0.40226 0.0487,0.80662 -0.0211,1.20625 -0.091,0.40615 -0.2751,0.7771 -0.50808,1.11882 -0.24709,0.33978 -0.57511,0.59322 -0.93926,0.79493 -0.39016,0.20223 -0.78712,0.20973 -1.19601,0.0714 -0.0603,-0.0322 -0.12065,-0.0644 -0.18098,-0.0966 -2.4435,-1.4372 -1.766,-2.58907 0.6775,-1.15187 v 0 c -0.004,0.001 -0.007,0.002 -0.0109,0.003 -0.0975,0.0288 0.059,0.0262 0.0772,-0.003 0.18449,-0.0926 0.34729,-0.22007 0.47622,-0.38236 0.13156,-0.18043 0.22827,-0.38257 0.29023,-0.59734 0.0486,-0.23776 0.0533,-0.48017 0.0211,-0.72091 -0.0499,-0.27721 -0.12199,-0.55065 -0.25205,-0.80238 -0.1202,-0.23058 -0.25335,-0.45588 -0.44236,-0.63783 -0.2163,-0.19937 -0.45855,-0.36694 -0.6875,-0.55113 -0.30127,-0.24027 -0.57442,-0.51311 -0.73087,-0.87227 -0.10766,-0.3012 -0.15895,-0.60608 -0.13904,-0.92682 -0.001,-0.0682 -0.039,-0.21814 -0.0137,-0.23734 0.0133,0.002 0.0848,0.0218 0.0748,-0.0135 -0.14054,0.0109 -0.2645,0.0814 -0.37822,0.16447 -0.13432,0.10466 -0.25051,0.22647 -0.36117,0.35565 -1.57247,2.35872 -2.68438,1.61745 -1.1119,-0.74127 z"
       inkscape:connector-curvature="0" />
  </g>
</svg>
