<?xml version="1.0" encoding="UTF-8" standalone="no"?>
<!-- Created with Inkscape (http://www.inkscape.org/) -->

<svg
   xmlns:dc="http://purl.org/dc/elements/1.1/"
   xmlns:cc="http://creativecommons.org/ns#"
   xmlns:rdf="http://www.w3.org/1999/02/22-rdf-syntax-ns#"
   xmlns:svg="http://www.w3.org/2000/svg"
   xmlns="http://www.w3.org/2000/svg"
   version="1.2"
   width="315"
   height="300"
   id="svg2985">
  <defs
     id="defs2987">
    <marker
       refX="0"
       refY="0"
       orient="auto"
       id="Arrow2Mstart"
       style="overflow:visible">
      <path
         d="M 8.7185878,4.0337352 -2.2072895,0.01601326 8.7185884,-4.0017078 c -1.7454984,2.3720609 -1.7354408,5.6174519 -6e-7,8.035443 z"
         transform="scale(0.6,0.6)"
         id="path3826"
         style="fill-rule:evenodd;stroke-width:0.625;stroke-linejoin:round" />
    </marker>
    <marker
       refX="0"
       refY="0"
       orient="auto"
       id="Arrow2Mend"
       style="overflow:visible">
      <path
         d="M 8.7185878,4.0337352 -2.2072895,0.01601326 8.7185884,-4.0017078 c -1.7454984,2.3720609 -1.7354408,5.6174519 -6e-7,8.035443 z"
         transform="scale(-0.6,-0.6)"
         id="path3829"
         style="fill-rule:evenodd;stroke-width:0.625;stroke-linejoin:round" />
    </marker>
    <marker
       refX="0"
       refY="0"
       orient="auto"
       id="Arrow2Lstart"
       style="overflow:visible">
      <path
         d="M 8.7185878,4.0337352 -2.2072895,0.01601326 8.7185884,-4.0017078 c -1.7454984,2.3720609 -1.7354408,5.6174519 -6e-7,8.035443 z"
         transform="matrix(1.1,0,0,1.1,1.1,0)"
         id="path3820"
         style="fill-rule:evenodd;stroke-width:0.625;stroke-linejoin:round" />
    </marker>
    <marker
       refX="0"
       refY="0"
       orient="auto"
       id="Arrow1Mend"
       style="overflow:visible">
      <path
         d="M 0,0 5,-5 -12.5,0 5,5 0,0 z"
         transform="matrix(-0.4,0,0,-0.4,-4,0)"
         id="path3811"
         style="fill-rule:evenodd;stroke:#000000;stroke-width:1pt" />
    </marker>
    <marker
       refX="0"
       refY="0"
       orient="auto"
       id="Arrow1Mstart"
       style="overflow:visible">
      <path
         d="M 0,0 5,-5 -12.5,0 5,5 0,0 z"
         transform="matrix(0.4,0,0,0.4,4,0)"
         id="path3808"
         style="fill-rule:evenodd;stroke:#000000;stroke-width:1pt" />
    </marker>
    <marker
       refX="0"
       refY="0"
       orient="auto"
       id="Torso"
       style="overflow:visible">
      <g
         transform="scale(0.7,0.7)"
         id="g4014">
        <path
           d="m -4.7792281,-3.239542 c 2.350374,0.3659393 5.30026732,1.9375477 5.03715532,3.62748546 C -0.00518779,2.0778819 -2.2126741,2.6176539 -4.5630471,2.2517169 -6.9134221,1.8857769 -8.521035,0.75201414 -8.257922,-0.93792336 -7.994809,-2.6278615 -7.1296041,-3.6054813 -4.7792281,-3.239542 z"
           id="path4016"
           style="fill:none;stroke:#000000;stroke-width:1.25" />
        <path
           d="M 4.4598789,0.08866574 C -2.5564571,-4.378332 5.2248769,-3.9061806 -0.84829578,-8.7197331"
           id="path4018"
           style="fill:none;stroke:#000000;stroke-width:1pt" />
        <path
           d="M 4.9298719,0.05752074 C -1.3872731,1.7494689 1.8027579,5.4782079 -4.9448731,7.5462725"
           id="path4020"
           style="fill:none;stroke:#000000;stroke-width:1pt" />
        <rect
           width="2.6366582"
           height="2.7608147"
           x="-10.391706"
           y="-1.7408575"
           transform="matrix(0.527536,-0.849533,0.887668,0.460484,0,0)"
           id="rect4022"
           style="fill-rule:evenodd;stroke-width:1pt" />
        <rect
           width="2.7327356"
           height="2.8614161"
           x="4.9587269"
           y="-7.9629307"
           transform="matrix(0.671205,-0.741272,0.790802,0.612072,0,0)"
           id="rect4024"
           style="fill-rule:evenodd;stroke-width:1pt" />
        <path
           d="m 16.779951,-28.685045 a 0.60731727,0.60731727 0 1 0 -1.214634,0 0.60731727,0.60731727 0 1 0 1.214634,0 z"
           transform="matrix(0,-1.109517,1.109517,0,25.96648,19.71619)"
           id="path4026"
           style="fill:#ff0000;fill-opacity:0.75;fill-rule:evenodd;stroke:#000000;stroke-width:1pt" />
        <path
           d="m 16.779951,-28.685045 a 0.60731727,0.60731727 0 1 0 -1.214634,0 0.60731727,0.60731727 0 1 0 1.214634,0 z"
           transform="matrix(0,-1.109517,1.109517,0,26.8245,16.99126)"
           id="path4028"
           style="fill:#ff0000;fill-opacity:0.75;fill-rule:evenodd;stroke:#000000;stroke-width:1pt" />
      </g>
    </marker>
    <marker
       refX="0"
       refY="0"
       orient="auto"
       id="DotL"
       style="overflow:visible">
      <path
         d="m -2.5,-1 c 0,2.76 -2.24,5 -5,5 -2.76,0 -5,-2.24 -5,-5 0,-2.76 2.24,-5 5,-5 2.76,0 5,2.24 5,5 z"
         transform="matrix(0.8,0,0,0.8,5.92,0.8)"
         id="path3863"
         style="fill-rule:evenodd;stroke:#000000;stroke-width:1pt" />
    </marker>
    <marker
       refX="0"
       refY="0"
       orient="auto"
       id="Arrow2Lend"
       style="overflow:visible">
      <path
         d="M 8.7185878,4.0337352 -2.2072895,0.01601326 8.7185884,-4.0017078 c -1.7454984,2.3720609 -1.7354408,5.6174519 -6e-7,8.035443 z"
         transform="matrix(-1.1,0,0,-1.1,-1.1,0)"
         id="path3823"
         style="fill-rule:evenodd;stroke-width:0.625;stroke-linejoin:round" />
    </marker>
    <marker
       refX="0"
       refY="0"
       orient="auto"
       id="DotL-4"
       style="overflow:visible">
      <path
         d="m -2.5,-1 c 0,2.76 -2.24,5 -5,5 -2.76,0 -5,-2.24 -5,-5 0,-2.76 2.24,-5 5,-5 2.76,0 5,2.24 5,5 z"
         transform="matrix(0.8,0,0,0.8,5.92,0.8)"
         id="path3863-2"
         style="fill-rule:evenodd;stroke:#000000;stroke-width:1pt" />
    </marker>
    <marker
       refX="0"
       refY="0"
       orient="auto"
       id="DotLK"
       style="overflow:visible">
      <path
         d="m -2.5,-1 c 0,2.76 -2.24,5 -5,5 -2.76,0 -5,-2.24 -5,-5 0,-2.76 2.24,-5 5,-5 2.76,0 5,2.24 5,5 z"
         transform="matrix(0.8,0,0,0.8,5.92,0.8)"
         id="path6314"
         style="fill:#c8c8c8;fill-rule:evenodd;stroke:#c8c8c8;stroke-width:1pt" />
    </marker>
    <marker
       refX="0"
       refY="0"
       orient="auto"
       id="DotL-4-4"
       style="overflow:visible">
      <path
         d="m -2.5,-1 c 0,2.76 -2.24,5 -5,5 -2.76,0 -5,-2.24 -5,-5 0,-2.76 2.24,-5 5,-5 2.76,0 5,2.24 5,5 z"
         transform="matrix(0.8,0,0,0.8,5.92,0.8)"
         id="path3863-2-0"
         style="fill-rule:evenodd;stroke:#000000;stroke-width:1pt" />
    </marker>
    <marker
       refX="0"
       refY="0"
       orient="auto"
       id="DotL-4-2"
       style="overflow:visible">
      <path
         d="m -2.5,-1 c 0,2.76 -2.24,5 -5,5 -2.76,0 -5,-2.24 -5,-5 0,-2.76 2.24,-5 5,-5 2.76,0 5,2.24 5,5 z"
         transform="matrix(0.8,0,0,0.8,5.92,0.8)"
         id="path3863-2-4"
         style="fill-rule:evenodd;stroke:#000000;stroke-width:1pt" />
    </marker>
    <marker
       refX="0"
       refY="0"
       orient="auto"
       id="DotL-4-40"
       style="overflow:visible">
      <path
         d="m -2.5,-1 c 0,2.76 -2.24,5 -5,5 -2.76,0 -5,-2.24 -5,-5 0,-2.76 2.24,-5 5,-5 2.76,0 5,2.24 5,5 z"
         transform="matrix(0.8,0,0,0.8,5.92,0.8)"
         id="path3863-2-09"
         style="fill-rule:evenodd;stroke:#000000;stroke-width:1pt" />
    </marker>
    <marker
       refX="0"
       refY="0"
       orient="auto"
       id="DotL-4w"
       style="overflow:visible">
      <path
         d="m -2.5,-1 c 0,2.76 -2.24,5 -5,5 -2.76,0 -5,-2.24 -5,-5 0,-2.76 2.24,-5 5,-5 2.76,0 5,2.24 5,5 z"
         transform="matrix(0.8,0,0,0.8,5.92,0.8)"
         id="path7619"
         style="fill:#1e1e1e;fill-rule:evenodd;stroke:#1e1e1e;stroke-width:1pt" />
    </marker>
    <marker
       refX="0"
       refY="0"
       orient="auto"
       id="DotL-4wW"
       style="overflow:visible">
      <path
         d="m -2.5,-1 c 0,2.76 -2.24,5 -5,5 -2.76,0 -5,-2.24 -5,-5 0,-2.76 2.24,-5 5,-5 2.76,0 5,2.24 5,5 z"
         transform="matrix(0.8,0,0,0.8,5.92,0.8)"
         id="path7704"
         style="fill:#464646;fill-rule:evenodd;stroke:#464646;stroke-width:1pt" />
    </marker>
    <marker
       refX="0"
       refY="0"
       orient="auto"
       id="DotL-4e"
       style="overflow:visible">
      <path
         d="m -2.5,-1 c 0,2.76 -2.24,5 -5,5 -2.76,0 -5,-2.24 -5,-5 0,-2.76 2.24,-5 5,-5 2.76,0 5,2.24 5,5 z"
         transform="matrix(0.8,0,0,0.8,5.92,0.8)"
         id="path7793"
         style="fill:#787878;fill-rule:evenodd;stroke:#787878;stroke-width:1pt" />
    </marker>
    <marker
       refX="0"
       refY="0"
       orient="auto"
       id="DotL-4e3"
       style="overflow:visible">
      <path
         d="m -2.5,-1 c 0,2.76 -2.24,5 -5,5 -2.76,0 -5,-2.24 -5,-5 0,-2.76 2.24,-5 5,-5 2.76,0 5,2.24 5,5 z"
         transform="matrix(0.8,0,0,0.8,5.92,0.8)"
         id="path7886"
         style="fill:#646478;fill-rule:evenodd;stroke:#646478;stroke-width:1pt" />
    </marker>
    <marker
       refX="0"
       refY="0"
       orient="auto"
       id="DotL-4e3l"
       style="overflow:visible">
      <path
         d="m -2.5,-1 c 0,2.76 -2.24,5 -5,5 -2.76,0 -5,-2.24 -5,-5 0,-2.76 2.24,-5 5,-5 2.76,0 5,2.24 5,5 z"
         transform="matrix(0.8,0,0,0.8,5.92,0.8)"
         id="path7983"
         style="fill:#646478;fill-rule:evenodd;stroke:#646478;stroke-width:1pt" />
    </marker>
    <marker
       refX="0"
       refY="0"
       orient="auto"
       id="DotL-4e3lq"
       style="overflow:visible">
      <path
         d="m -2.5,-1 c 0,2.76 -2.24,5 -5,5 -2.76,0 -5,-2.24 -5,-5 0,-2.76 2.24,-5 5,-5 2.76,0 5,2.24 5,5 z"
         transform="matrix(0.8,0,0,0.8,5.92,0.8)"
         id="path8084"
         style="fill:#646464;fill-rule:evenodd;stroke:#646464;stroke-width:1pt" />
    </marker>
    <marker
       refX="0"
       refY="0"
       orient="auto"
       id="DotL-4d"
       style="overflow:visible">
      <path
         d="m -2.5,-1 c 0,2.76 -2.24,5 -5,5 -2.76,0 -5,-2.24 -5,-5 0,-2.76 2.24,-5 5,-5 2.76,0 5,2.24 5,5 z"
         transform="matrix(0.8,0,0,0.8,5.92,0.8)"
         id="path8189"
         style="fill:#828282;fill-rule:evenodd;stroke:#828282;stroke-width:1pt" />
    </marker>
    <marker
       refX="0"
       refY="0"
       orient="auto"
       id="DotL-4G"
       style="overflow:visible">
      <path
         d="m -2.5,-1 c 0,2.76 -2.24,5 -5,5 -2.76,0 -5,-2.24 -5,-5 0,-2.76 2.24,-5 5,-5 2.76,0 5,2.24 5,5 z"
         transform="matrix(0.8,0,0,0.8,5.92,0.8)"
         id="path8298"
         style="fill:#828282;fill-rule:evenodd;stroke:#828282;stroke-width:1pt" />
    </marker>
    <marker
       refX="0"
       refY="0"
       orient="auto"
       id="DotL-4Gl"
       style="overflow:visible">
      <path
         d="m -2.5,-1 c 0,2.76 -2.24,5 -5,5 -2.76,0 -5,-2.24 -5,-5 0,-2.76 2.24,-5 5,-5 2.76,0 5,2.24 5,5 z"
         transform="matrix(0.8,0,0,0.8,5.92,0.8)"
         id="path8413"
         style="fill:#969696;fill-rule:evenodd;stroke:#969696;stroke-width:1pt" />
    </marker>
    <marker
       refX="0"
       refY="0"
       orient="auto"
       id="DotLKq"
       style="overflow:visible">
      <path
         d="m -2.5,-1 c 0,2.76 -2.24,5 -5,5 -2.76,0 -5,-2.24 -5,-5 0,-2.76 2.24,-5 5,-5 2.76,0 5,2.24 5,5 z"
         transform="matrix(0.8,0,0,0.8,5.92,0.8)"
         id="path8535"
         style="fill:#c8c8c8;fill-rule:evenodd;stroke:#c8c8c8;stroke-width:1pt" />
    </marker>
    <marker
       refX="0"
       refY="0"
       orient="auto"
       id="Arrow2Lstartm"
       style="overflow:visible">
      <path
         d="M 8.7185878,4.0337352 -2.2072895,0.01601326 8.7185884,-4.0017078 c -1.7454984,2.3720609 -1.7354408,5.6174519 -6e-7,8.035443 z"
         transform="matrix(1.1,0,0,1.1,1.1,0)"
         id="path10017"
         style="fill:#007f00;fill-rule:evenodd;stroke:#007f00;stroke-width:0.625;stroke-linejoin:round" />
    </marker>
    <marker
       refX="0"
       refY="0"
       orient="auto"
       id="Arrow2LendV"
       style="overflow:visible">
      <path
         d="M 8.7185878,4.0337352 -2.2072895,0.01601326 8.7185884,-4.0017078 c -1.7454984,2.3720609 -1.7354408,5.6174519 -6e-7,8.035443 z"
         transform="matrix(-1.1,0,0,-1.1,-1.1,0)"
         id="path10020"
         style="fill:#007f00;fill-rule:evenodd;stroke:#007f00;stroke-width:0.625;stroke-linejoin:round" />
    </marker>
    <marker
       refX="0"
       refY="0"
       orient="auto"
       id="Arrow2Mstart6"
       style="overflow:visible">
      <path
         d="M 8.7185878,4.0337352 -2.2072895,0.01601326 8.7185884,-4.0017078 c -1.7454984,2.3720609 -1.7354408,5.6174519 -6e-7,8.035443 z"
         transform="scale(0.6,0.6)"
         id="path12651"
         style="fill:#007f00;fill-rule:evenodd;stroke:#007f00;stroke-width:0.625;stroke-linejoin:round" />
    </marker>
    <marker
       refX="0"
       refY="0"
       orient="auto"
       id="Arrow2Mendk"
       style="overflow:visible">
      <path
         d="M 8.7185878,4.0337352 -2.2072895,0.01601326 8.7185884,-4.0017078 c -1.7454984,2.3720609 -1.7354408,5.6174519 -6e-7,8.035443 z"
         transform="scale(-0.6,-0.6)"
         id="path12654"
         style="fill:#007f00;fill-rule:evenodd;stroke:#007f00;stroke-width:0.625;stroke-linejoin:round" />
    </marker>
    <marker
       refX="0"
       refY="0"
       orient="auto"
       id="Arrow2MstartW"
       style="overflow:visible">
      <path
         d="M 8.7185878,4.0337352 -2.2072895,0.01601326 8.7185884,-4.0017078 c -1.7454984,2.3720609 -1.7354408,5.6174519 -6e-7,8.035443 z"
         transform="scale(0.6,0.6)"
         id="path12945"
         style="fill:#007f00;fill-rule:evenodd;stroke:#007f00;stroke-width:0.625;stroke-linejoin:round" />
    </marker>
    <marker
       refX="0"
       refY="0"
       orient="auto"
       id="Arrow2Mendt"
       style="overflow:visible">
      <path
         d="M 8.7185878,4.0337352 -2.2072895,0.01601326 8.7185884,-4.0017078 c -1.7454984,2.3720609 -1.7354408,5.6174519 -6e-7,8.035443 z"
         transform="scale(-0.6,-0.6)"
         id="path12948"
         style="fill:#007f00;fill-rule:evenodd;stroke:#007f00;stroke-width:0.625;stroke-linejoin:round" />
    </marker>
  </defs>
  <metadata
     id="metadata2990">
    <rdf:RDF>
      <cc:Work
         rdf:about="">
        <dc:format>image/svg+xml</dc:format>
        <dc:type
           rdf:resource="http://purl.org/dc/dcmitype/StillImage" />
        <dc:title></dc:title>
      </cc:Work>
    </rdf:RDF>
  </metadata>
  <path
     d="m 208.16566,135.12651 c 16.69509,19.89901 28.24088,44.43006 28.58434,65.79536"
     id="path13209"
     style="fill:none;stroke:#007f00;stroke-width:1.5;stroke-linecap:butt;stroke-miterlimit:4;stroke-opacity:1;stroke-dasharray:none;stroke-dashoffset:0" />
  <g
     transform="translate(0,-752.36218)"
     id="layer1">
    <path
       d="M 113.62685,1015.6828 225.98554,802.8885"
       id="path8487-5"
       style="fill:none;stroke:#aaaaaa;stroke-width:2;stroke-linecap:butt;stroke-linejoin:miter;stroke-miterlimit:4;stroke-opacity:1;stroke-dasharray:none" />
    <path
       d="M 107.83602,1014.3262 236.49899,810.97485"
       id="path8487-7"
       style="fill:none;stroke:#8c8c8c;stroke-width:2;stroke-linecap:butt;stroke-linejoin:miter;stroke-miterlimit:4;stroke-opacity:1;stroke-dasharray:none" />
    <path
       d="M 103.16754,1010.767 248.23855,818.77662"
       id="path8487-52"
       style="fill:none;stroke:#6e6e6e;stroke-width:2;stroke-linecap:butt;stroke-linejoin:miter;stroke-miterlimit:4;stroke-opacity:1;stroke-dasharray:none" />
    <path
       d="M 99.7725,1004.9702 262.94729,828.10896"
       id="path8487-8"
       style="fill:none;stroke:#464646;stroke-width:2;stroke-linecap:butt;stroke-linejoin:miter;stroke-miterlimit:4;stroke-opacity:1;stroke-dasharray:none" />
    <path
       d="M 119.85937,1015.5345 215.1368,794.56367"
       id="path8487"
       style="fill:none;stroke:#c8c8c8;stroke-width:2;stroke-linecap:butt;stroke-linejoin:miter;stroke-miterlimit:4;stroke-opacity:1;stroke-dasharray:none" />
    <path
       d="m 53.806202,1043.2857 0,-280.00003"
       id="path3028"
       style="fill:none;stroke:#000000;stroke-width:1.5;stroke-linecap:butt;stroke-linejoin:miter;stroke-miterlimit:4;stroke-opacity:1;stroke-dasharray:none;marker-end:url(#Arrow2Lend)" />
    <path
       d="m 23.806203,1013.2857 280.714277,0"
       id="path4242"
       style="fill:none;stroke:#000000;stroke-width:1.5;stroke-linecap:butt;stroke-linejoin:miter;stroke-miterlimit:4;stroke-opacity:1;stroke-dasharray:none;marker-end:url(#Arrow2Lend)" />
    <path
       d="m 53.806202,988.28567 c 0,0 52.622028,6.12423 96.693798,-38.42349 36.54033,-36.93492 58.21429,-171.42858 58.21429,-171.42858"
       id="path4432"
       style="fill:none;stroke:#007cff;stroke-width:3;stroke-linecap:butt;stroke-linejoin:miter;stroke-miterlimit:4;stroke-opacity:1;stroke-dasharray:none" />
    <path
       d="m 53.806202,838.28567 142.731698,0 0,175.00003"
       id="path4434"
       style="fill:none;stroke:#000000;stroke-width:1.20000005;stroke-linecap:butt;stroke-linejoin:miter;stroke-miterlimit:4;stroke-opacity:1;stroke-dasharray:3.60000014, 3.60000014;stroke-dashoffset:0;marker-mid:url(#DotLKq);marker-end:none" />
    <path
       d="m 53.806202,953.28567 92.999998,0 137,0"
       id="path4434-8"
       style="fill:none;stroke:#000000;stroke-width:1.20000005;stroke-linecap:butt;stroke-linejoin:miter;stroke-miterlimit:4;stroke-opacity:1;stroke-dasharray:3.60000014, 3.60000014;stroke-dashoffset:0;marker-start:none;marker-mid:url(#DotL-4);marker-end:none" />
    <path
       d="m 146.8062,953.28567 0,60.00003"
       id="path7344"
       style="fill:none;stroke:#000000;stroke-width:1.20000005;stroke-linecap:butt;stroke-linejoin:miter;stroke-miterlimit:4;stroke-opacity:1;stroke-dasharray:3.60000014, 3.60000014;stroke-dashoffset:0" />
    <path
       d="m 156.07182,943.28567 0,0"
       id="path7346"
       style="fill:none;stroke:#464646;stroke-width:1.20000005;stroke-linecap:butt;stroke-linejoin:miter;stroke-miterlimit:4;stroke-opacity:1;stroke-dasharray:none;marker-start:url(#DotL-4wW)" />
    <path
       d="m 165.46245,928.28567 0,0"
       id="path7346-2"
       style="fill:none;stroke:#646464;stroke-width:1.20000005;stroke-linecap:butt;stroke-linejoin:miter;stroke-miterlimit:4;stroke-opacity:1;stroke-dasharray:none;marker-start:url(#DotL-4e3lq)" />
    <path
       d="m 172.83489,912.52918 0,0"
       id="path7346-5"
       style="fill:none;stroke:#828282;stroke-width:1.20000005;stroke-linecap:butt;stroke-linejoin:miter;stroke-miterlimit:4;stroke-opacity:1;stroke-dasharray:none;marker-start:url(#DotL-4d)" />
    <path
       d="m 183.06071,884.53044 0,0"
       id="path7346-7"
       style="fill:none;stroke:#969696;stroke-width:1.20000005;stroke-linecap:butt;stroke-linejoin:miter;stroke-miterlimit:4;stroke-opacity:1;stroke-dasharray:none;marker-start:url(#DotL-4Gl)" />
    <text
       x="257.84909"
       y="857.92743"
       id="text3570"
       xml:space="preserve"
       style="font-size:20px;font-style:italic;font-variant:normal;font-weight:normal;font-stretch:normal;line-height:125%;letter-spacing:0px;word-spacing:0px;fill:#000000;fill-opacity:1;stroke:none;font-family:Sans;-inkscape-font-specification:Courier Italic"><tspan
         x="257.84909"
         y="857.92743"
         id="tspan3572"><tspan
           x="257.84909"
           y="857.92743"
           id="tspan3574"
           style="font-size:24px;font-weight:bold;font-family:Liberation Serif;-inkscape-font-specification:Liberation Serif Bold Italic">C</tspan></tspan></text>
    <path
       d="m 212.66557,800.28958 43.14063,45.99609 -37.96875,-27.97656"
       id="path8669"
       style="fill:none;stroke:#007f00;stroke-width:1px;stroke-linecap:butt;stroke-linejoin:miter;stroke-opacity:1" />
    <path
       d="m 223.31792,831.79349 32.48828,14.49218 -25.46875,-3.84375"
       id="path8673"
       style="fill:none;stroke:#007f00;stroke-width:1px;stroke-linecap:butt;stroke-linejoin:miter;stroke-opacity:1" />
    <path
       d="m 255.8062,846.28567 -9.67188,0.0391"
       id="path8675"
       style="fill:none;stroke:#007f00;stroke-width:1px;stroke-linecap:butt;stroke-linejoin:miter;stroke-opacity:1" />
    <path
       d="M 202.48471,812.06456 184.71865,799.69019"
       id="path8677"
       style="fill:none;stroke:#007f00;stroke-width:1px;stroke-linecap:butt;stroke-linejoin:miter;stroke-opacity:1" />
    <text
       x="172.52248"
       y="800.82812"
       id="text3576"
       xml:space="preserve"
       style="font-size:20px;font-style:italic;font-variant:normal;font-weight:bold;font-stretch:normal;line-height:125%;letter-spacing:0px;word-spacing:0px;fill:#000000;fill-opacity:1;stroke:none;font-family:Liberation Serif;-inkscape-font-specification:Sans Italic"><tspan
         x="172.52248"
         y="800.82812"
         id="tspan3578"><tspan
           x="172.52248"
           y="800.82812"
           id="tspan3580"
           style="font-size:24px">F</tspan></tspan></text>
    <flowRoot
       transform="translate(-49.499998,55.499997)"
       id="flowRoot8687"
       xml:space="preserve"
       style="font-size:24px;font-style:italic;font-variant:normal;font-weight:bold;font-stretch:normal;line-height:125%;letter-spacing:0px;word-spacing:0px;fill:#000000;fill-opacity:1;stroke:none;font-family:Liberation Serif;-inkscape-font-specification:Sans Italic"><flowRegion
         id="flowRegion8689"><rect
           width="35.355339"
           height="41.012192"
           x="449.01282"
           y="445.66458"
           id="rect8691"
           style="font-size:24px" /></flowRegion><flowPara
         id="flowPara8693" /></flowRoot>    <text
       x="405.87677"
       y="520.96356"
       id="text8695"
       xml:space="preserve"
       style="font-size:20px;font-style:italic;font-variant:normal;font-weight:bold;font-stretch:normal;line-height:125%;letter-spacing:0px;word-spacing:0px;fill:#000000;fill-opacity:1;stroke:none;font-family:Liberation Serif;-inkscape-font-specification:Sans Italic"><tspan
         x="405.87677"
         y="520.96356"
         id="tspan8697" /></text>
    <text
       x="71.181198"
       y="897.01562"
       id="text3558"
       xml:space="preserve"
       style="font-size:24px;font-style:italic;font-variant:normal;font-weight:bold;font-stretch:normal;line-height:125%;letter-spacing:0px;word-spacing:0px;fill:#000000;fill-opacity:1;stroke:none;font-family:Liberation Serif;-inkscape-font-specification:Sans Italic"><tspan
         x="71.181198"
         y="897.01562"
         id="tspan3560"
         style="letter-spacing:2px"><tspan
           x="71.181198"
           y="897.01562"
           id="tspan3562"
           style="letter-spacing:2px">∆y</tspan></tspan></text>
    <text
       x="14.833775"
       y="841.14124"
       id="text3552"
       xml:space="preserve"
       style="font-size:24px;font-style:italic;font-variant:normal;font-weight:bold;font-stretch:normal;line-height:125%;letter-spacing:0px;word-spacing:0px;fill:#000000;fill-opacity:1;stroke:none;font-family:Liberation Serif;-inkscape-font-specification:Sans Italic"><tspan
         x="14.833775"
         y="841.14124"
         id="tspan3554"><tspan
           x="14.833775"
           y="841.14124"
           id="tspan3556">f(x)</tspan></tspan></text>
    <text
       x="7.2697821"
       y="958.8501"
       id="text3542"
       xml:space="preserve"
       style="font-size:24px;font-style:italic;font-variant:normal;font-weight:bold;font-stretch:normal;line-height:125%;letter-spacing:0px;word-spacing:0px;fill:#000000;fill-opacity:1;stroke:none;font-family:Liberation Serif;-inkscape-font-specification:Sans Italic"><tspan
         x="43.101147"
         y="0"
         id="tspan3544"
         style="letter-spacing:0px"><tspan
           x="7.2697821"
           y="958.8501"
           id="tspan3546"
           style="letter-spacing:0px">f(x</tspan><tspan
           x="35.301037"
           y="958.8501"
           id="tspan3548"
           style="font-size:10px;line-height:125%;letter-spacing:0px;baseline-shift:sub">0</tspan><tspan
           x="43.101147"
           y="958.8501"
           id="tspan3550"
           style="letter-spacing:0px">)</tspan></tspan></text>
    <text
       x="158.3687"
       y="993.89062"
       id="text3536"
       xml:space="preserve"
       style="font-size:24px;font-style:italic;font-variant:normal;font-weight:bold;font-stretch:normal;line-height:125%;letter-spacing:0px;word-spacing:0px;fill:#000000;fill-opacity:1;stroke:none;font-family:Liberation Serif;-inkscape-font-specification:Sans Italic"><tspan
         x="158.3687"
         y="993.89062"
         id="tspan3538"
         style="letter-spacing:2.5px"><tspan
           x="158.3687"
           y="993.89062"
           id="tspan3540"
           style="letter-spacing:2.5px">∆x</tspan></tspan></text>
    <flowRoot
       transform="translate(-49.499998,55.499997)"
       id="flowRoot8768"
       xml:space="preserve"
       style="font-size:20px;font-style:italic;font-variant:normal;font-weight:bold;font-stretch:normal;line-height:125%;letter-spacing:0px;word-spacing:0px;fill:#000000;fill-opacity:1;stroke:none;font-family:Liberation Serif;-inkscape-font-specification:Sans Italic"><flowRegion
         id="flowRegion8770"><rect
           width="43.840622"
           height="48.790367"
           x="593.26257"
           y="456.27118"
           id="rect8772" /></flowRegion><flowPara
         id="flowPara8774" /></flowRoot>    <text
       x="226.80621"
       y="911.28571"
       id="text3564"
       xml:space="preserve"
       style="font-size:20px;font-style:italic;font-variant:normal;font-weight:bold;font-stretch:normal;line-height:125%;letter-spacing:0px;word-spacing:0px;fill:#000000;fill-opacity:1;stroke:none;font-family:Liberation Serif;-inkscape-font-specification:Sans Italic"><tspan
         x="226.80621"
         y="911.28571"
         id="tspan3566"><tspan
           x="226.80621"
           y="911.28571"
           id="tspan3568"
           style="font-size:24px">α</tspan></tspan></text>
    <flowRoot
       transform="translate(-49.499998,55.499997)"
       id="flowRoot8786"
       xml:space="preserve"
       style="font-size:24px;font-style:italic;font-variant:normal;font-weight:bold;font-stretch:normal;line-height:125%;letter-spacing:0px;word-spacing:0px;fill:#000000;fill-opacity:1;stroke:none;font-family:Liberation Serif;-inkscape-font-specification:Sans Italic"><flowRegion
         id="flowRegion8788"><rect
           width="38.890873"
           height="32.526913"
           x="509.82397"
           y="589.20721"
           id="rect8790"
           style="font-size:24px" /></flowRegion><flowPara
         id="flowPara8792" /></flowRoot>    <text
       x="137.16341"
       y="1032.0536"
       id="text3528"
       xml:space="preserve"
       style="font-size:20px;font-style:italic;font-variant:normal;font-weight:bold;font-stretch:normal;line-height:125%;letter-spacing:0px;word-spacing:0px;fill:#000000;fill-opacity:1;stroke:none;font-family:Liberation Serif;-inkscape-font-specification:Sans Italic"><tspan
         x="149.16341"
         y="0"
         id="tspan3530"><tspan
           x="137.16341"
           y="1032.0536"
           id="tspan3532"
           style="font-size:24px">x</tspan><tspan
           x="149.16341"
           y="1032.0536"
           id="tspan3534"
           style="font-size:10px;baseline-shift:sub">0</tspan></tspan></text>
    <flowRoot
       transform="translate(-49.499998,55.499997)"
       id="flowRoot8804"
       xml:space="preserve"
       style="font-size:24px;font-style:italic;font-variant:normal;font-weight:bold;font-stretch:normal;line-height:125%;letter-spacing:0px;word-spacing:0px;fill:#000000;fill-opacity:1;stroke:none;font-family:Liberation Serif;-inkscape-font-specification:Sans Italic"><flowRegion
         id="flowRegion8806"><rect
           width="64.346718"
           height="32.526913"
           x="555.78595"
           y="596.27832"
           id="rect8808"
           style="font-size:24px" /></flowRegion><flowPara
         id="flowPara8810" /></flowRoot>    <text
       x="188.80005"
       y="1032.0616"
       id="text3522"
       xml:space="preserve"
       style="font-size:20px;font-style:italic;font-variant:normal;font-weight:bold;font-stretch:normal;line-height:125%;letter-spacing:0px;word-spacing:0px;fill:#000000;fill-opacity:1;stroke:none;font-family:Liberation Serif;-inkscape-font-specification:Sans Italic"><tspan
         x="188.80005"
         y="1032.0616"
         id="tspan3524"><tspan
           x="188.80005"
           y="1032.0616"
           id="tspan3526"
           style="font-size:24px">x</tspan></tspan></text>
    <path
       d="m 103.8062,951.22501 0,-111.52513"
       id="path8820"
       style="fill:none;stroke:#007f00;stroke-width:1.5;stroke-linecap:butt;stroke-linejoin:miter;stroke-miterlimit:4;stroke-opacity:1;stroke-dasharray:none;marker-start:url(#Arrow2Mstart6);marker-end:url(#Arrow2Mendk)" />
    <path
       d="m 148.8062,971.28567 45.75,0"
       id="path10235"
       style="fill:none;stroke:#007f00;stroke-width:1.5;stroke-linecap:butt;stroke-linejoin:miter;stroke-miterlimit:4;stroke-opacity:1;stroke-dasharray:none;marker-start:url(#Arrow2MstartW);marker-end:url(#Arrow2Mendt)" />
  </g>
</svg>
