<?xml version="1.0" encoding="UTF-8" standalone="no"?>
<!-- Created with Inkscape (http://www.inkscape.org/) -->

<svg
   xmlns:dc="http://purl.org/dc/elements/1.1/"
   xmlns:cc="http://creativecommons.org/ns#"
   xmlns:rdf="http://www.w3.org/1999/02/22-rdf-syntax-ns#"
   xmlns:svg="http://www.w3.org/2000/svg"
   xmlns="http://www.w3.org/2000/svg"
   xmlns:sodipodi="http://sodipodi.sourceforge.net/DTD/sodipodi-0.dtd"
   xmlns:inkscape="http://www.inkscape.org/namespaces/inkscape"
   width="297mm"
   height="210mm"
   viewBox="0 0 297 210"
   version="1.1"
   id="svg8"
   inkscape:version="0.92.1 r15371"
   sodipodi:docname="Apples.svg">
  <defs
     id="defs2" />
  <sodipodi:namedview
     id="base"
     pagecolor="#ffffff"
     bordercolor="#666666"
     borderopacity="1.0"
     inkscape:pageopacity="0.0"
     inkscape:pageshadow="2"
     inkscape:zoom="0.98994949"
     inkscape:cx="588.83952"
     inkscape:cy="404.98408"
     inkscape:document-units="mm"
     inkscape:current-layer="layer1"
     showgrid="false"
     inkscape:window-width="1920"
     inkscape:window-height="1046"
     inkscape:window-x="-11"
     inkscape:window-y="-11"
     inkscape:window-maximized="1" />
  <metadata
     id="metadata5">
    <rdf:RDF>
      <cc:Work
         rdf:about="">
        <dc:format>image/svg+xml</dc:format>
        <dc:type
           rdf:resource="http://purl.org/dc/dcmitype/StillImage" />
        <dc:title></dc:title>
      </cc:Work>
    </rdf:RDF>
  </metadata>
  <g
     inkscape:label="Layer 1"
     inkscape:groupmode="layer"
     id="layer1"
     transform="translate(0,-87)">
    <path
       style="opacity:1;fill:#000000;fill-opacity:1;fill-rule:nonzero;stroke:none;stroke-width:0.39700001;stroke-linecap:round;stroke-linejoin:round;stroke-miterlimit:4;stroke-dasharray:none;stroke-dashoffset:0;stroke-opacity:1;paint-order:markers fill stroke"
       id="path4493"
       d="m 63.09814,168.87629 c -0.186114,-0.17835 -0.380646,-0.34884 -0.578295,-0.51441 -0.28181,-0.24193 -0.584705,-0.45599 -0.898194,-0.65436 -0.381384,-0.23149 -0.778968,-0.43319 -1.190231,-0.60555 -0.507185,-0.2037 -1.023932,-0.38159 -1.555136,-0.51063 -0.637294,-0.14958 -1.287441,-0.21867 -1.938308,-0.27427 -0.737817,-0.0494 -1.477211,-0.0509 -2.215788,-0.0226 -0.81919,0.0273 -1.63299,0.12272 -2.444827,0.22975 -0.866735,0.11792 -1.721717,0.30548 -2.564214,0.53853 -0.907325,0.25883 -1.791163,0.58848 -2.661269,0.95139 -0.866606,0.36935 -1.709666,0.79083 -2.543755,1.22784 -0.779735,0.39629 -1.516356,0.8637 -2.234327,1.36119 -0.66099,0.46263 -1.264189,0.99749 -1.84332,1.55725 -0.506449,0.51503 -0.966099,1.07112 -1.367729,1.67096 -0.34186,0.51343 -0.616921,1.06425 -0.81553,1.64756 -0.17017,0.50244 -0.238443,1.02889 -0.256125,1.55678 -0.0024,0.52804 0.0481,1.05288 0.182737,1.56362 0.138957,0.5028 0.383453,0.96347 0.667912,1.3975 0.313272,0.47491 0.72287,0.87237 1.15449,1.23838 0.508074,0.42855 1.067147,0.79123 1.637536,1.13028 0.636428,0.38045 1.297246,0.71738 1.964129,1.04061 0.693452,0.32514 1.408131,0.60053 2.122688,0.87478 0.730491,0.26811 1.465586,0.52351 2.199902,0.78092 0.712343,0.24566 1.427097,0.48421 2.143607,0.7174 0.704233,0.22546 1.410644,0.44385 2.118556,0.65748 0.706519,0.2041 1.409456,0.42049 2.10979,0.64483 0.666215,0.20299 1.324943,0.42825 1.981784,0.65942 0.617173,0.2146 1.220703,0.4641 1.814433,0.73637 0.541933,0.25802 1.073381,0.53678 1.590445,0.84149 0.51394,0.30172 0.985986,0.66578 1.43777,1.05268 0.438237,0.37016 0.818764,0.80012 1.194379,1.23178 0.353063,0.41782 0.666703,0.86632 0.953701,1.33141 0.281475,0.46343 0.500052,0.9597 0.697223,1.46355 0.177127,0.43293 0.321016,0.87814 0.514212,1.30436 0.07832,0.15329 0.147256,0.3241 0.285356,0.43162 0.03291,-0.0389 -0.137875,-0.0275 -0.05089,-0.059 0.150921,-0.0401 0.287396,-0.12919 0.419523,-0.21054 0.273093,-0.17861 0.54337,-0.36138 0.814764,-0.54257 0.367215,-0.25181 0.737989,-0.49797 1.114909,-0.73499 0.467995,-0.29832 0.948269,-0.57699 1.430351,-0.85181 0.552926,-0.3053 1.10799,-0.60666 1.670737,-0.89351 0.604748,-0.31449 1.223233,-0.6015 1.843181,-0.88451 0.643728,-0.28991 1.288526,-0.57759 1.937395,-0.85586 0.650235,-0.27788 1.309987,-0.53198 1.970201,-0.78493 0.652121,-0.24531 1.308709,-0.47847 1.967386,-0.7055 0.652889,-0.23026 1.306068,-0.45997 1.964397,-0.67427 0.6488,-0.21799 1.29967,-0.42998 1.95371,-0.63171 0.654895,-0.20416 1.306985,-0.41702 1.959615,-0.62828 0.65484,-0.22372 1.31022,-0.44569 1.9653,-0.66871 0.64564,-0.21954 1.28924,-0.44558 1.92991,-0.6793 0.62667,-0.22618 1.24891,-0.46469 1.86705,-0.71321 0.61448,-0.25354 1.22392,-0.51844 1.82873,-0.79423 0.59558,-0.27408 1.18097,-0.56788 1.7539,-0.88646 0.5816,-0.31146 1.14599,-0.65267 1.70049,-1.00971 0.56735,-0.36847 1.11353,-0.76783 1.65366,-1.17471 0.54908,-0.4226 1.0975,-0.84735 1.61588,-1.30741 0.52576,-0.4703 1.02203,-0.97051 1.50318,-1.48583 0.490559,-0.52928 0.948859,-1.08588 1.389009,-1.65729 0.42896,-0.56714 0.8241,-1.15875 1.19029,-1.76803 0.35147,-0.59529 0.6605,-1.21344 0.94565,-1.84273 0.26113,-0.59725 0.46964,-1.21516 0.66258,-1.83718 0.18281,-0.57823 0.28622,-1.17672 0.3643,-1.77679 0.0758,-0.59861 0.0908,-1.20249 0.0876,-1.80514 -0.006,-0.59792 -0.0807,-1.19045 -0.18145,-1.77885 -0.11193,-0.57465 -0.28453,-1.13627 -0.48533,-1.68558 -0.1966,-0.52852 -0.44222,-1.0347 -0.71214,-1.529 -0.27178,-0.4794 -0.59174,-0.928 -0.93604,-1.3574 -0.34145,-0.40803 -0.71876,-0.78364 -1.1173,-1.13543 -0.3911,-0.33668 -0.824469,-0.61745 -1.269279,-0.87683 -0.4537,-0.26639 -0.9425,-0.45919 -1.43777,-0.63178 -0.55864,-0.19292 -1.13608,-0.32134 -1.71406,-0.44024 -0.64756,-0.13865 -1.30723,-0.19878 -1.96584,-0.25559 -0.70598,-0.0696 -1.41531,-0.0804 -2.12401,-0.0919 -0.73878,-0.01 -1.47831,0.009 -2.21628,0.0438 -0.76635,0.0389 -1.53007,0.11749 -2.29222,0.20468 -0.75548,0.0992 -1.50916,0.21052 -2.25909,0.34551 -0.77063,0.1471 -1.53299,0.33271 -2.29252,0.52826 -0.82094,0.21155 -1.623675,0.48387 -2.420785,0.77066 -0.84135,0.3093 -1.665079,0.6636 -2.482779,1.03014 -0.850101,0.38474 -1.677303,0.81926 -2.49319,1.27151 -0.836801,0.47008 -1.656437,0.96884 -2.461893,1.49053 -0.781576,0.52016 -1.560023,1.0455 -2.320972,1.5955 -0.683583,0.49003 -1.332931,1.02397 -1.965934,1.57703 -0.27536,0.23358 -0.522753,0.49606 -0.768641,0.75953 -1.936998,2.06984 -2.912732,1.15674 -0.975733,-0.91311 v 0 c 0.277212,-0.29551 0.556128,-0.58988 0.86528,-0.85291 0.664144,-0.57991 1.345504,-1.1397 2.062451,-1.65377 0.779613,-0.56297 1.576369,-1.10175 2.377205,-1.63398 0.831275,-0.53815 1.677,-1.05297 2.54065,-1.53777 0.849075,-0.47012 1.709611,-0.92224 2.594293,-1.32206 0.848699,-0.3802 1.703653,-0.74767 2.577003,-1.06813 0.83633,-0.30068 1.67875,-0.58562 2.540045,-0.80736 0.79153,-0.20353 1.58599,-0.39683 2.38918,-0.54935 0.77802,-0.13959 1.55976,-0.25589 2.34359,-0.35792 0.79157,-0.0905 1.5848,-0.17171 2.38074,-0.21183 0.76635,-0.0361 1.53421,-0.0558 2.3014,-0.0452 0.73981,0.0121 1.48022,0.0244 2.2172,0.0967 0.71052,0.0614 1.42189,0.12861 2.12045,0.27811 0.63599,0.13116 1.2709,0.27442 1.88534,0.48758 0.57608,0.20184 1.14375,0.42933 1.671429,0.7397 0.51938,0.30442 1.02493,0.63432 1.48058,1.02988 0.45474,0.40362 0.88693,0.83269 1.27519,1.30145 0.39191,0.49134 0.75744,1.00358 1.06565,1.55233 0.3012,0.55341 0.57542,1.12021 0.79462,1.71174 0.2266,0.62543 0.42343,1.2638 0.54693,1.91831 0.11175,0.66036 0.19438,1.32538 0.20036,1.99623 0.003,0.66282 -0.0148,1.32688 -0.0988,1.98515 -0.0887,0.67554 -0.20731,1.34881 -0.41313,1.99981 -0.20977,0.67499 -0.43703,1.34533 -0.72183,1.99297 -0.30699,0.67607 -0.63921,1.3404 -1.01765,1.97975 -0.39326,0.65263 -0.81608,1.28725 -1.2767,1.89457 -0.46606,0.60473 -0.95154,1.19369 -1.47093,1.75379 -0.5102,0.54616 -1.036709,1.07612 -1.594219,1.57446 -0.54598,0.48196 -1.11939,0.9315 -1.69755,1.37413 -0.56642,0.42651 -1.13933,0.84493 -1.73439,1.23097 -0.57891,0.3724 -1.1678,0.72886 -1.77471,1.05416 -0.60408,0.33534 -1.22075,0.64569 -1.84862,0.93426 -0.62335,0.28405 -1.25138,0.55715 -1.88472,0.81822 -0.63163,0.25371 -1.26723,0.4977 -1.90752,0.72872 -0.64978,0.23685 -1.30236,0.46634 -1.95715,0.6889 -0.66144,0.22508 -1.32305,0.44947 -1.98433,0.67502 -0.65855,0.21317 -1.31658,0.4279 -1.977415,0.63391 -0.6475,0.19958 -1.29171,0.40979 -1.93401,0.62547 -0.65108,0.21172 -1.296817,0.43946 -1.94253,0.66695 -0.644398,0.22193 -1.286627,0.45022 -1.924643,0.68996 -0.643927,0.24665 -1.287476,0.49423 -1.921663,0.76523 -0.639445,0.2741 -1.274752,0.55778 -1.909133,0.84335 -0.60256,0.27496 -1.20373,0.55374 -1.791407,0.85952 -0.544247,0.27713 -1.080685,0.569 -1.615556,0.86375 -0.465368,0.26529 -0.929209,0.53393 -1.380831,0.82214 -0.366633,0.23052 -0.727088,0.4702 -1.084268,0.71514 -0.28815,0.19235 -0.574797,0.38687 -0.865759,0.57497 -0.266076,0.1589 -0.539702,0.31623 -0.847439,0.3769 -0.384683,0.0648 -0.754237,0.0296 -1.068851,-0.22554 -0.285453,-0.25179 -0.494757,-0.55859 -0.646975,-0.90809 -0.20098,-0.44787 -0.358256,-0.91215 -0.540792,-1.36761 -0.167235,-0.4297 -0.351809,-0.85343 -0.590484,-1.24913 -0.247523,-0.40363 -0.519859,-0.79172 -0.824079,-1.15497 -0.332637,-0.38302 -0.668179,-0.76613 -1.056434,-1.09468 -0.391165,-0.33693 -0.800761,-0.65322 -1.246433,-0.91569 -0.477341,-0.2822 -0.968915,-0.53862 -1.469091,-0.77802 -0.556017,-0.25597 -1.121974,-0.48878 -1.700205,-0.69015 -0.644959,-0.22699 -1.291714,-0.44828 -1.945952,-0.64737 -0.693081,-0.2222 -1.388899,-0.436 -2.088126,-0.63809 -0.717085,-0.2165 -1.4327,-0.43765 -2.146062,-0.66611 -0.725988,-0.23639 -1.450282,-0.47795 -2.172033,-0.727 -0.746625,-0.26174 -1.494087,-0.52133 -2.236648,-0.79441 -0.749916,-0.28783 -1.499661,-0.57769 -2.226934,-0.91997 -0.701156,-0.34016 -1.395849,-0.69484 -2.065049,-1.09501 -0.634399,-0.37876 -1.256197,-0.78318 -1.82091,-1.26171 -0.52769,-0.45247 -1.026901,-0.94285 -1.408652,-1.52836 -0.358744,-0.55856 -0.669534,-1.14799 -0.841153,-1.79341 -0.158988,-0.63686 -0.235024,-1.28713 -0.223364,-1.94453 0.02688,-0.65925 0.112887,-1.31605 0.32844,-1.94297 0.241298,-0.69069 0.560491,-1.34811 0.969442,-1.95652 0.456091,-0.67661 0.97332,-1.30743 1.548701,-1.887 0.631706,-0.60927 1.28991,-1.19117 2.010696,-1.69448 0.763323,-0.52836 1.546833,-1.02454 2.375114,-1.44636 0.868765,-0.4549 1.746888,-0.89353 2.649678,-1.27755 0.922049,-0.38405 1.858714,-0.73281 2.820249,-1.00619 0.902137,-0.24791 1.816825,-0.45009 2.744745,-0.57512 0.853094,-0.1124 1.708378,-0.21148 2.569147,-0.24026 0.793377,-0.0294 1.58768,-0.0284 2.380133,0.0265 0.720032,0.0618 1.43909,0.14117 2.143718,0.30814 0.598638,0.14897 1.183563,0.34385 1.754955,0.57691 0.478705,0.20291 0.943456,0.43615 1.386863,0.70847 0.363297,0.23102 0.714976,0.47938 1.042231,0.75987 0.226526,0.19099 0.450485,0.38619 0.663281,0.59237 2.004521,2.00452 1.05958,2.94946 -0.94494,0.94494 z"
       inkscape:connector-curvature="0" />
    <path
       style="opacity:1;fill:#000000;fill-opacity:1;fill-rule:nonzero;stroke:none;stroke-width:0.39700001;stroke-linecap:round;stroke-linejoin:round;stroke-miterlimit:4;stroke-dasharray:none;stroke-dashoffset:0;stroke-opacity:1;paint-order:markers fill stroke"
       id="path4495"
       d="m 27.935089,146.93806 c 0.302977,-0.0851 0.613492,-0.13581 0.926068,-0.16781 0.434716,-0.0305 0.870731,-0.0367 1.306312,-0.045 0.597633,0.008 1.194908,0.0335 1.792322,0.0514 0.767921,0.0374 1.535247,0.0838 2.301827,0.14251 0.890894,0.0671 1.779836,0.15816 2.668058,0.25383 0.952283,0.11362 1.90322,0.23782 2.851521,0.38097 0.977685,0.14112 1.948521,0.32628 2.91316,0.53815 0.961625,0.19451 1.904595,0.46347 2.845702,0.73769 0.922187,0.27785 1.836396,0.5823 2.744743,0.90235 0.894458,0.31889 1.782577,0.65412 2.660676,1.01561 0.859121,0.35671 1.712357,0.72669 2.553782,1.12338 0.828413,0.3909 1.638366,0.81933 2.439654,1.26274 0.770194,0.42208 1.50376,0.90518 2.248506,1.36934 0.715547,0.42922 1.403599,0.90071 2.081689,1.38624 0.634717,0.43726 1.251095,0.89978 1.848993,1.38601 0.553328,0.45233 1.069832,0.94714 1.580592,1.44634 0.480692,0.44985 0.899675,0.95601 1.3019,1.47531 0.378799,0.4773 0.679413,1.00662 0.985282,1.53134 0.144367,0.24268 0.274661,0.49306 0.403709,0.74405 1.294472,2.52202 0.105585,3.13224 -1.188889,0.61023 v 0 c -0.117824,-0.23 -0.237101,-0.45927 -0.369409,-0.68141 -0.276336,-0.47428 -0.545025,-0.95457 -0.887346,-1.38609 -0.364477,-0.47094 -0.7425,-0.93119 -1.179536,-1.33796 -0.481542,-0.47111 -0.968423,-0.93825 -1.489922,-1.36541 -0.576138,-0.46945 -1.171562,-0.9141 -1.783485,-1.33596 -0.654804,-0.46908 -1.31926,-0.92452 -2.010584,-1.33868 -0.724977,-0.45214 -1.439111,-0.92265 -2.188671,-1.33417 -0.775917,-0.42961 -1.560327,-0.84455 -2.362546,-1.22326 -0.82114,-0.38746 -1.654194,-0.74798 -2.492621,-1.09639 -0.856665,-0.35296 -1.72339,-0.67954 -2.596028,-0.99092 -0.88501,-0.31208 -1.7759,-0.60849 -2.674324,-0.8797 -0.912416,-0.26586 -1.826382,-0.52753 -2.758853,-0.71551 -0.935598,-0.20597 -1.877443,-0.38499 -2.825773,-0.52197 -0.9295,-0.1405 -1.861656,-0.26189 -2.79504,-0.37366 -0.874538,-0.0942 -1.749774,-0.18399 -2.626945,-0.25005 -0.745924,-0.0571 -1.492559,-0.10218 -2.239759,-0.1392 -0.575611,-0.0172 -1.151085,-0.0405 -1.726861,-0.051 -0.40136,0.008 -0.803047,0.0135 -1.203754,0.0391 -0.232137,0.02 -0.461854,0.0624 -0.687027,0.12254 -2.725748,0.77878 -3.092871,-0.50615 -0.367123,-1.28493 z"
       inkscape:connector-curvature="0" />
    <path
       style="opacity:1;fill:#000000;fill-opacity:1;fill-rule:nonzero;stroke:none;stroke-width:0.39700001;stroke-linecap:round;stroke-linejoin:round;stroke-miterlimit:4;stroke-dasharray:none;stroke-dashoffset:0;stroke-opacity:1;paint-order:markers fill stroke"
       id="path4497"
       d="m 41.592439,149.97923 c -0.160004,0.14114 -0.30811,0.29671 -0.440828,0.4638 -0.184107,0.22051 -0.321543,0.4738 -0.458327,0.72499 -0.191995,0.33081 -0.347845,0.6804 -0.503819,1.02909 -0.172371,0.40246 -0.322596,0.81388 -0.459095,1.22973 -0.17086,0.50977 -0.331295,1.02283 -0.495535,1.53474 -0.177276,0.59042 -0.38771,1.17012 -0.593133,1.75114 -0.227904,0.63337 -0.488844,1.25417 -0.757552,1.87111 -0.287856,0.66265 -0.631468,1.29822 -0.993053,1.92293 -0.381074,0.66124 -0.817493,1.28672 -1.276691,1.89537 -0.512977,0.66306 -1.067131,1.29148 -1.63685,1.90583 -0.612487,0.64953 -1.269138,1.25472 -1.947265,1.83459 -0.696756,0.58686 -1.433499,1.12372 -2.194097,1.62425 -0.754432,0.50627 -1.564811,0.91465 -2.383125,1.305 -0.810808,0.38655 -1.658761,0.68319 -2.506441,0.97616 -0.801124,0.27762 -1.617546,0.50749 -2.430412,0.74754 -0.730639,0.22099 -1.470054,0.40752 -2.217139,0.563 -0.439537,0.0774 -0.221176,0.044 -0.654998,0.10104 -2.811343,0.36411 -2.982981,-0.96117 -0.17164,-1.32528 v 0 c 0.360974,-0.0458 0.176056,-0.0182 0.554543,-0.0841 0.711322,-0.14781 1.415158,-0.32575 2.110748,-0.53627 0.79339,-0.2343 1.590357,-0.45834 2.372399,-0.72897 0.800428,-0.27661 1.601841,-0.55482 2.367717,-0.91932 0.763564,-0.36402 1.520809,-0.7427 2.224471,-1.2156 0.714454,-0.46874 1.405189,-0.97361 2.059816,-1.52337 0.639299,-0.54591 1.257948,-1.11611 1.835666,-1.72745 0.53922,-0.58119 1.064035,-1.17532 1.550074,-1.80223 0.426932,-0.5651 0.832795,-1.14575 1.186852,-1.75998 0.336489,-0.58049 0.656495,-1.17098 0.924296,-1.78688 0.256188,-0.58788 0.505161,-1.17937 0.722762,-1.78281 0.201091,-0.56876 0.407382,-1.1361 0.580657,-1.71415 0.16537,-0.51486 0.326578,-1.03099 0.498465,-1.54375 0.151323,-0.45936 0.317179,-0.91407 0.508862,-1.3583 0.170566,-0.38071 0.341717,-0.762 0.550709,-1.12363 0.176041,-0.3215 0.356518,-0.64291 0.592513,-0.9253 0.164497,-0.20091 0.339262,-0.39625 0.534512,-0.56785 2.00452,-2.00452 2.949461,-1.05958 0.944938,0.94494 z"
       inkscape:connector-curvature="0" />
    <path
       style="opacity:1;fill:#000000;fill-opacity:1;fill-rule:nonzero;stroke:none;stroke-width:0.39700001;stroke-linecap:round;stroke-linejoin:round;stroke-miterlimit:4;stroke-dasharray:none;stroke-dashoffset:0;stroke-opacity:1;paint-order:markers fill stroke"
       id="path4499"
       d="m 16.200109,168.91849 c -0.119268,-0.2855 -0.196355,-0.5856 -0.26639,-0.88619 -0.08468,-0.37818 -0.139793,-0.76196 -0.189595,-1.14601 -0.05837,-0.43871 -0.09519,-0.8789 -0.106331,-1.32123 -0.019,-0.48817 0.03646,-0.97374 0.09128,-1.45777 0.06224,-0.51432 0.173736,-1.02002 0.293788,-1.52333 0.135467,-0.5254 0.323006,-1.03494 0.537065,-1.53284 0.234677,-0.54222 0.54053,-1.04691 0.865264,-1.53877 0.336441,-0.4778 0.690226,-0.94315 1.068215,-1.38882 0.373653,-0.43195 0.770319,-0.84325 1.172798,-1.24823 0.410167,-0.40449 0.845544,-0.78183 1.299879,-1.13562 0.450607,-0.35188 0.927881,-0.66792 1.415513,-0.96568 0.468932,-0.29437 0.962096,-0.54655 1.451493,-0.80444 0.476184,-0.23943 0.959599,-0.46445 1.442789,-0.68936 0.502259,-0.23077 1.010039,-0.44852 1.522566,-0.65538 0.549212,-0.21503 1.109583,-0.40054 1.671775,-0.57836 0.578152,-0.18784 1.159042,-0.3676 1.741117,-0.54296 0.588965,-0.18543 1.17933,-0.36653 1.767081,-0.5558 0.581734,-0.18795 1.160653,-0.38458 1.739609,-0.58093 0.468953,-0.15808 0.939911,-0.31063 1.406742,-0.47488 2.674628,-0.93946 3.117493,0.32138 0.442865,1.26083 v 0 c -0.471551,0.16538 -0.946759,0.32036 -1.420416,0.4796 -0.585539,0.19857 -1.171062,0.39737 -1.759405,0.58747 -0.595802,0.19164 -1.194067,0.37558 -1.791113,0.56329 -0.576294,0.1735 -1.15135,0.35158 -1.723715,0.53759 -0.529439,0.16723 -1.057148,0.34179 -1.574599,0.54345 -0.491077,0.19799 -0.977456,0.40672 -1.458677,0.62766 -0.463301,0.21555 -0.926663,0.4315 -1.383691,0.66006 -0.464794,0.24485 -0.933554,0.48361 -1.378847,0.76321 -0.445075,0.27079 -0.880087,0.55938 -1.291178,0.87989 -0.410146,0.31785 -0.801491,0.65903 -1.172032,1.02248 -0.378087,0.38026 -0.750898,0.76627 -1.102294,1.17154 -0.34425,0.40406 -0.663853,0.82801 -0.971701,1.26034 -0.281863,0.42575 -0.549026,0.86156 -0.752983,1.33112 -0.184761,0.42665 -0.345466,0.86374 -0.464262,1.3137 -0.107571,0.45069 -0.209171,0.9031 -0.265792,1.36359 -0.04796,0.42327 -0.100137,0.84773 -0.08318,1.27472 0.0093,0.3959 0.04372,0.78964 0.09568,1.18233 0.04396,0.3403 0.092,0.68047 0.16613,1.01575 0.05159,0.22391 0.106595,0.44801 0.19286,0.66156 1.116692,2.60562 -0.111607,3.13203 -1.228297,0.52642 z"
       inkscape:connector-curvature="0" />
    <path
       style="opacity:1;fill:#000000;fill-opacity:1;fill-rule:nonzero;stroke:none;stroke-width:0.39700001;stroke-linecap:round;stroke-linejoin:round;stroke-miterlimit:4;stroke-dasharray:none;stroke-dashoffset:0;stroke-opacity:1;paint-order:markers fill stroke"
       id="path4493-3"
       d="m 156.18554,226.98946 c -0.18612,-0.17835 -0.38065,-0.34884 -0.5783,-0.51441 -0.28181,-0.24193 -0.5847,-0.45599 -0.89819,-0.65436 -0.38139,-0.23149 -0.77897,-0.43319 -1.19023,-0.60555 -0.50719,-0.2037 -1.02394,-0.38159 -1.55514,-0.51063 -0.63729,-0.14958 -1.28744,-0.21867 -1.93831,-0.27427 -0.73781,-0.0494 -1.47721,-0.0509 -2.21578,-0.0226 -0.81919,0.0273 -1.63299,0.12272 -2.44483,0.22975 -0.86674,0.11792 -1.72172,0.30548 -2.56422,0.53853 -0.90732,0.25883 -1.79116,0.58848 -2.66127,0.95139 -0.8666,0.36935 -1.70966,0.79083 -2.54375,1.22784 -0.77973,0.39629 -1.51636,0.8637 -2.23433,1.36119 -0.66099,0.46263 -1.26419,0.99749 -1.84332,1.55725 -0.50645,0.51503 -0.9661,1.07112 -1.36773,1.67096 -0.34186,0.51343 -0.61692,1.06425 -0.81553,1.64756 -0.17017,0.50244 -0.23844,1.02889 -0.25612,1.55678 -0.002,0.52804 0.0481,1.05288 0.18274,1.56362 0.13895,0.5028 0.38345,0.96347 0.66791,1.3975 0.31327,0.47491 0.72287,0.87237 1.15449,1.23838 0.50807,0.42855 1.06714,0.79123 1.63753,1.13028 0.63643,0.38045 1.29725,0.71738 1.96413,1.04061 0.69345,0.32514 1.40813,0.60053 2.12269,0.87478 0.73049,0.26811 1.46559,0.52351 2.1999,0.78092 0.71235,0.24566 1.4271,0.48421 2.14361,0.7174 0.70423,0.22546 1.41064,0.44385 2.11856,0.65748 0.70651,0.2041 1.40945,0.42049 2.10979,0.64483 0.66621,0.20299 1.32494,0.42825 1.98178,0.65942 0.61717,0.2146 1.2207,0.4641 1.81443,0.73637 0.54194,0.25802 1.07338,0.53678 1.59045,0.84149 0.51394,0.30172 0.98598,0.66578 1.43777,1.05268 0.43824,0.37016 0.81876,0.80012 1.19438,1.23178 0.35306,0.41782 0.6667,0.86632 0.9537,1.33141 0.28147,0.46343 0.50005,0.9597 0.69722,1.46355 0.17713,0.43293 0.32102,0.87814 0.51421,1.30436 0.0783,0.15329 0.14726,0.3241 0.28536,0.43162 0.0329,-0.0389 -0.13788,-0.0275 -0.0509,-0.059 0.15092,-0.0401 0.28739,-0.12919 0.41952,-0.21054 0.27309,-0.17861 0.54337,-0.36138 0.81477,-0.54257 0.36721,-0.25181 0.73798,-0.49797 1.1149,-0.73499 0.468,-0.29832 0.94827,-0.57699 1.43036,-0.85181 0.55292,-0.3053 1.10799,-0.60666 1.67073,-0.89351 0.60475,-0.31449 1.22324,-0.6015 1.84318,-0.88451 0.64373,-0.28991 1.28853,-0.57759 1.9374,-0.85586 0.65023,-0.27788 1.30999,-0.53198 1.9702,-0.78493 0.65212,-0.24531 1.30871,-0.47847 1.96739,-0.7055 0.65288,-0.23026 1.30606,-0.45997 1.96439,-0.67427 0.6488,-0.21799 1.29967,-0.42998 1.95371,-0.63171 0.65489,-0.20416 1.30698,-0.41702 1.95961,-0.62828 0.65484,-0.22372 1.31022,-0.44569 1.9653,-0.66871 0.64564,-0.21954 1.28924,-0.44558 1.92991,-0.6793 0.62667,-0.22618 1.24891,-0.46469 1.86705,-0.71321 0.61448,-0.25354 1.22392,-0.51844 1.82873,-0.79423 0.59558,-0.27408 1.18097,-0.56788 1.7539,-0.88646 0.5816,-0.31146 1.14599,-0.65267 1.70049,-1.00971 0.56735,-0.36847 1.11353,-0.76783 1.65366,-1.17471 0.54908,-0.4226 1.0975,-0.84735 1.61588,-1.30741 0.52576,-0.4703 1.02203,-0.97051 1.50318,-1.48583 0.49056,-0.52928 0.94886,-1.08588 1.38901,-1.65729 0.42896,-0.56714 0.8241,-1.15875 1.19029,-1.76803 0.35147,-0.59529 0.6605,-1.21344 0.94565,-1.84273 0.26113,-0.59725 0.46964,-1.21516 0.66258,-1.83718 0.18281,-0.57823 0.28622,-1.17672 0.3643,-1.77679 0.0758,-0.59861 0.0908,-1.20249 0.0876,-1.80514 -0.006,-0.59792 -0.0807,-1.19045 -0.18145,-1.77885 -0.11193,-0.57465 -0.28453,-1.13627 -0.48533,-1.68558 -0.1966,-0.52852 -0.44222,-1.0347 -0.71214,-1.529 -0.27178,-0.4794 -0.59174,-0.928 -0.93604,-1.3574 -0.34145,-0.40803 -0.71876,-0.78364 -1.1173,-1.13543 -0.3911,-0.33668 -0.82447,-0.61745 -1.26928,-0.87683 -0.4537,-0.26639 -0.9425,-0.45919 -1.43777,-0.63178 -0.55864,-0.19292 -1.13608,-0.32134 -1.71406,-0.44024 -0.64756,-0.13865 -1.30723,-0.19878 -1.96584,-0.25559 -0.70598,-0.0696 -1.41531,-0.0804 -2.12401,-0.0919 -0.73878,-0.01 -1.47831,0.009 -2.21628,0.0438 -0.76635,0.0389 -1.53007,0.11749 -2.29222,0.20468 -0.75548,0.0992 -1.50916,0.21052 -2.25909,0.34551 -0.77063,0.1471 -1.53299,0.33271 -2.29252,0.52826 -0.82094,0.21155 -1.62367,0.48387 -2.42078,0.77066 -0.84134,0.3093 -1.66508,0.6636 -2.48278,1.03014 -0.8501,0.38474 -1.6773,0.81926 -2.49319,1.27151 -0.8368,0.47008 -1.65643,0.96884 -2.46189,1.49053 -0.78158,0.52016 -1.56002,1.0455 -2.32097,1.5955 -0.68358,0.49003 -1.33293,1.02397 -1.96594,1.57703 -0.27536,0.23358 -0.52275,0.49606 -0.76864,0.75953 -1.937,2.06984 -2.91273,1.15674 -0.97573,-0.91311 v 0 c 0.27721,-0.29551 0.55613,-0.58988 0.86528,-0.85291 0.66414,-0.57991 1.3455,-1.1397 2.06245,-1.65377 0.77961,-0.56297 1.57637,-1.10175 2.37721,-1.63398 0.83127,-0.53815 1.677,-1.05297 2.54065,-1.53777 0.84907,-0.47012 1.70961,-0.92224 2.59429,-1.32206 0.8487,-0.3802 1.70365,-0.74767 2.577,-1.06813 0.83634,-0.30068 1.67875,-0.58562 2.54004,-0.80736 0.79153,-0.20353 1.58599,-0.39683 2.38918,-0.54935 0.77802,-0.13959 1.55976,-0.25589 2.34359,-0.35792 0.79157,-0.0905 1.5848,-0.17171 2.38074,-0.21183 0.76635,-0.0361 1.53421,-0.0558 2.3014,-0.0452 0.73981,0.0121 1.48022,0.0244 2.2172,0.0967 0.71052,0.0614 1.42189,0.12861 2.12045,0.27811 0.63599,0.13116 1.2709,0.27442 1.88534,0.48758 0.57608,0.20184 1.14375,0.42933 1.67143,0.7397 0.51938,0.30442 1.02493,0.63432 1.48058,1.02988 0.45474,0.40362 0.88693,0.83269 1.27519,1.30145 0.39191,0.49134 0.75744,1.00358 1.06565,1.55233 0.3012,0.55341 0.57542,1.12021 0.79462,1.71174 0.2266,0.62543 0.42343,1.2638 0.54693,1.91831 0.11175,0.66036 0.19438,1.32538 0.20036,1.99623 0.003,0.66282 -0.0148,1.32688 -0.0988,1.98515 -0.0887,0.67554 -0.20731,1.34881 -0.41313,1.99981 -0.20977,0.67499 -0.43703,1.34533 -0.72183,1.99297 -0.30699,0.67607 -0.63921,1.3404 -1.01765,1.97975 -0.39326,0.65263 -0.81608,1.28725 -1.2767,1.89457 -0.46606,0.60473 -0.95154,1.19369 -1.47093,1.75379 -0.5102,0.54616 -1.03671,1.07612 -1.59422,1.57446 -0.54598,0.48196 -1.11939,0.9315 -1.69755,1.37413 -0.56642,0.42651 -1.13933,0.84493 -1.73439,1.23097 -0.57891,0.3724 -1.1678,0.72886 -1.77471,1.05416 -0.60408,0.33534 -1.22075,0.64569 -1.84862,0.93426 -0.62335,0.28405 -1.25138,0.55715 -1.88472,0.81822 -0.63163,0.25371 -1.26723,0.4977 -1.90752,0.72872 -0.64978,0.23685 -1.30236,0.46634 -1.95715,0.6889 -0.66144,0.22508 -1.32305,0.44947 -1.98433,0.67502 -0.65855,0.21317 -1.31658,0.4279 -1.97741,0.63391 -0.6475,0.19958 -1.29171,0.40979 -1.93401,0.62547 -0.65108,0.21172 -1.29681,0.43946 -1.94253,0.66695 -0.64439,0.22193 -1.28663,0.45022 -1.92464,0.68996 -0.64393,0.24665 -1.28748,0.49423 -1.92166,0.76523 -0.63945,0.2741 -1.27475,0.55778 -1.90914,0.84335 -0.60256,0.27496 -1.20373,0.55374 -1.7914,0.85952 -0.54425,0.27713 -1.08069,0.569 -1.61556,0.86375 -0.46537,0.26529 -0.92921,0.53393 -1.38083,0.82214 -0.36663,0.23052 -0.72709,0.4702 -1.08427,0.71514 -0.28815,0.19235 -0.57479,0.38687 -0.86576,0.57497 -0.26607,0.1589 -0.5397,0.31623 -0.84744,0.3769 -0.38468,0.0648 -0.75423,0.0296 -1.06885,-0.22554 -0.28545,-0.25179 -0.49475,-0.55859 -0.64697,-0.90809 -0.20098,-0.44787 -0.35826,-0.91215 -0.54079,-1.36761 -0.16724,-0.4297 -0.35181,-0.85343 -0.59049,-1.24913 -0.24752,-0.40363 -0.51986,-0.79172 -0.82408,-1.15497 -0.33263,-0.38302 -0.66818,-0.76613 -1.05643,-1.09468 -0.39117,-0.33693 -0.80076,-0.65322 -1.24643,-0.91569 -0.47735,-0.2822 -0.96892,-0.53862 -1.46909,-0.77802 -0.55602,-0.25597 -1.12198,-0.48878 -1.70021,-0.69015 -0.64496,-0.22699 -1.29171,-0.44828 -1.94595,-0.64737 -0.69308,-0.2222 -1.3889,-0.436 -2.08813,-0.63809 -0.71708,-0.2165 -1.4327,-0.43765 -2.14606,-0.66611 -0.72599,-0.23639 -1.45028,-0.47795 -2.17203,-0.727 -0.74663,-0.26174 -1.49409,-0.52133 -2.23665,-0.79441 -0.74992,-0.28783 -1.49966,-0.57769 -2.22693,-0.91997 -0.70116,-0.34016 -1.39585,-0.69484 -2.06505,-1.09501 -0.6344,-0.37876 -1.2562,-0.78318 -1.82091,-1.26171 -0.52769,-0.45247 -1.02691,-0.94285 -1.40866,-1.52836 -0.35874,-0.55856 -0.66953,-1.14799 -0.84115,-1.79341 -0.15899,-0.63686 -0.23502,-1.28713 -0.22336,-1.94453 0.0269,-0.65925 0.11288,-1.31605 0.32844,-1.94297 0.24129,-0.69069 0.56049,-1.34811 0.96944,-1.95652 0.45609,-0.67661 0.97332,-1.30743 1.5487,-1.887 0.63171,-0.60927 1.28991,-1.19117 2.0107,-1.69448 0.76332,-0.52836 1.54683,-1.02454 2.37511,-1.44636 0.86877,-0.4549 1.74689,-0.89353 2.64968,-1.27755 0.92205,-0.38405 1.85871,-0.73281 2.82025,-1.00619 0.90213,-0.24791 1.81682,-0.45009 2.74474,-0.57512 0.8531,-0.1124 1.70838,-0.21148 2.56915,-0.24026 0.79338,-0.0294 1.58768,-0.0284 2.38013,0.0265 0.72003,0.0618 1.43909,0.14117 2.14372,0.30814 0.59864,0.14897 1.18356,0.34385 1.75496,0.57691 0.4787,0.20291 0.94345,0.43615 1.38686,0.70847 0.3633,0.23102 0.71497,0.47938 1.04223,0.75987 0.22653,0.19099 0.45048,0.38619 0.66328,0.59237 2.00452,2.00452 1.05958,2.94946 -0.94494,0.94494 z"
       inkscape:connector-curvature="0" />
    <path
       style="opacity:1;fill:#000000;fill-opacity:1;fill-rule:nonzero;stroke:none;stroke-width:0.39700001;stroke-linecap:round;stroke-linejoin:round;stroke-miterlimit:4;stroke-dasharray:none;stroke-dashoffset:0;stroke-opacity:1;paint-order:markers fill stroke"
       id="path4495-2"
       d="m 121.02249,205.05123 c 0.30297,-0.0851 0.61349,-0.13581 0.92606,-0.16781 0.43472,-0.0305 0.87073,-0.0367 1.30632,-0.045 0.59763,0.008 1.1949,0.0335 1.79232,0.0514 0.76792,0.0374 1.53524,0.0838 2.30182,0.14251 0.8909,0.0671 1.77984,0.15816 2.66806,0.25383 0.95229,0.11362 1.90322,0.23782 2.85152,0.38097 0.97769,0.14112 1.94852,0.32628 2.91316,0.53815 0.96163,0.19451 1.9046,0.46347 2.84571,0.73769 0.92218,0.27785 1.83639,0.5823 2.74474,0.90235 0.89446,0.31889 1.78258,0.65412 2.66067,1.01561 0.85913,0.35671 1.71236,0.72669 2.55379,1.12338 0.82841,0.3909 1.63836,0.81933 2.43965,1.26274 0.7702,0.42208 1.50376,0.90518 2.24851,1.36934 0.71554,0.42922 1.4036,0.90071 2.08169,1.38624 0.63471,0.43726 1.25109,0.89978 1.84899,1.38601 0.55333,0.45233 1.06983,0.94714 1.58059,1.44634 0.48069,0.44985 0.89968,0.95601 1.3019,1.47531 0.3788,0.4773 0.67941,1.00662 0.98528,1.53134 0.14437,0.24268 0.27466,0.49306 0.40371,0.74405 1.29447,2.52202 0.10559,3.13224 -1.18889,0.61023 v 0 c -0.11782,-0.23 -0.2371,-0.45927 -0.36941,-0.68141 -0.27633,-0.47428 -0.54502,-0.95457 -0.88734,-1.38609 -0.36448,-0.47094 -0.7425,-0.93119 -1.17954,-1.33796 -0.48154,-0.47111 -0.96842,-0.93825 -1.48992,-1.36541 -0.57614,-0.46945 -1.17156,-0.9141 -1.78348,-1.33596 -0.65481,-0.46908 -1.31926,-0.92452 -2.01059,-1.33868 -0.72498,-0.45214 -1.43911,-0.92265 -2.18867,-1.33417 -0.77592,-0.42961 -1.56033,-0.84455 -2.36255,-1.22326 -0.82114,-0.38746 -1.65419,-0.74798 -2.49262,-1.09639 -0.85666,-0.35296 -1.72339,-0.67954 -2.59603,-0.99092 -0.88501,-0.31208 -1.77589,-0.60849 -2.67432,-0.8797 -0.91241,-0.26586 -1.82638,-0.52753 -2.75885,-0.71551 -0.9356,-0.20597 -1.87745,-0.38499 -2.82578,-0.52197 -0.9295,-0.1405 -1.86165,-0.26189 -2.79504,-0.37366 -0.87453,-0.0942 -1.74977,-0.18399 -2.62694,-0.25005 -0.74592,-0.0571 -1.49256,-0.10218 -2.23976,-0.1392 -0.57561,-0.0172 -1.15108,-0.0405 -1.72686,-0.051 -0.40136,0.008 -0.80305,0.0135 -1.20375,0.0391 -0.23214,0.02 -0.46186,0.0624 -0.68703,0.12254 -2.72575,0.77878 -3.09287,-0.50615 -0.36712,-1.28493 z"
       inkscape:connector-curvature="0" />
    <path
       style="opacity:1;fill:#000000;fill-opacity:1;fill-rule:nonzero;stroke:none;stroke-width:0.39700001;stroke-linecap:round;stroke-linejoin:round;stroke-miterlimit:4;stroke-dasharray:none;stroke-dashoffset:0;stroke-opacity:1;paint-order:markers fill stroke"
       id="path4497-0"
       d="m 134.67984,208.0924 c -0.16001,0.14114 -0.30811,0.29671 -0.44083,0.4638 -0.18411,0.22051 -0.32155,0.4738 -0.45833,0.72499 -0.19199,0.33081 -0.34784,0.6804 -0.50382,1.02909 -0.17237,0.40246 -0.32259,0.81388 -0.45909,1.22973 -0.17086,0.50977 -0.3313,1.02283 -0.49554,1.53474 -0.17727,0.59042 -0.38771,1.17012 -0.59313,1.75114 -0.22791,0.63337 -0.48885,1.25417 -0.75755,1.87111 -0.28786,0.66265 -0.63147,1.29822 -0.99306,1.92293 -0.38107,0.66124 -0.81749,1.28672 -1.27669,1.89537 -0.51297,0.66306 -1.06713,1.29148 -1.63685,1.90583 -0.61248,0.64953 -1.26914,1.25472 -1.94726,1.83459 -0.69676,0.58686 -1.4335,1.12372 -2.1941,1.62425 -0.75443,0.50627 -1.56481,0.91465 -2.38312,1.305 -0.81081,0.38655 -1.65877,0.68319 -2.50645,0.97616 -0.80112,0.27762 -1.61754,0.50749 -2.43041,0.74754 -0.73064,0.22099 -1.47005,0.40752 -2.21714,0.563 -0.43953,0.0774 -0.22117,0.044 -0.65499,0.10104 -2.81135,0.36411 -2.98299,-0.96117 -0.17164,-1.32528 v 0 c 0.36097,-0.0458 0.17605,-0.0182 0.55454,-0.0841 0.71132,-0.14781 1.41516,-0.32575 2.11075,-0.53627 0.79339,-0.2343 1.59035,-0.45834 2.3724,-0.72897 0.80042,-0.27661 1.60184,-0.55482 2.36771,-0.91932 0.76357,-0.36402 1.52081,-0.7427 2.22447,-1.2156 0.71446,-0.46874 1.40519,-0.97361 2.05982,-1.52337 0.6393,-0.54591 1.25795,-1.11611 1.83567,-1.72745 0.53922,-0.58119 1.06403,-1.17532 1.55007,-1.80223 0.42693,-0.5651 0.83279,-1.14575 1.18685,-1.75998 0.33649,-0.58049 0.6565,-1.17098 0.9243,-1.78688 0.25619,-0.58788 0.50516,-1.17937 0.72276,-1.78281 0.20109,-0.56876 0.40738,-1.1361 0.58066,-1.71415 0.16537,-0.51486 0.32657,-1.03099 0.49846,-1.54375 0.15132,-0.45936 0.31718,-0.91407 0.50886,-1.3583 0.17057,-0.38071 0.34172,-0.762 0.55071,-1.12363 0.17604,-0.3215 0.35652,-0.64291 0.59252,-0.9253 0.16449,-0.20091 0.33926,-0.39625 0.53451,-0.56785 2.00452,-2.00452 2.94946,-1.05958 0.94494,0.94494 z"
       inkscape:connector-curvature="0" />
    <path
       style="opacity:1;fill:#000000;fill-opacity:1;fill-rule:nonzero;stroke:none;stroke-width:0.39700001;stroke-linecap:round;stroke-linejoin:round;stroke-miterlimit:4;stroke-dasharray:none;stroke-dashoffset:0;stroke-opacity:1;paint-order:markers fill stroke"
       id="path4499-9"
       d="m 109.28751,227.03166 c -0.11927,-0.2855 -0.19636,-0.5856 -0.26639,-0.88619 -0.0847,-0.37818 -0.1398,-0.76196 -0.1896,-1.14601 -0.0584,-0.43871 -0.0952,-0.8789 -0.10633,-1.32123 -0.019,-0.48817 0.0365,-0.97374 0.0913,-1.45777 0.0622,-0.51432 0.17374,-1.02002 0.29379,-1.52333 0.13546,-0.5254 0.323,-1.03494 0.53706,-1.53284 0.23468,-0.54222 0.54053,-1.04691 0.86527,-1.53877 0.33644,-0.4778 0.69022,-0.94315 1.06821,-1.38882 0.37365,-0.43195 0.77032,-0.84325 1.1728,-1.24823 0.41017,-0.40449 0.84554,-0.78183 1.29988,-1.13562 0.45061,-0.35188 0.92788,-0.66792 1.41551,-0.96568 0.46893,-0.29437 0.9621,-0.54655 1.45149,-0.80444 0.47619,-0.23943 0.9596,-0.46445 1.44279,-0.68936 0.50226,-0.23077 1.01004,-0.44852 1.52257,-0.65538 0.54921,-0.21503 1.10958,-0.40054 1.67177,-0.57836 0.57816,-0.18784 1.15905,-0.3676 1.74112,-0.54296 0.58897,-0.18543 1.17933,-0.36653 1.76708,-0.5558 0.58174,-0.18795 1.16066,-0.38458 1.73961,-0.58093 0.46895,-0.15808 0.93991,-0.31063 1.40674,-0.47488 2.67463,-0.93946 3.1175,0.32138 0.44287,1.26083 v 0 c -0.47155,0.16538 -0.94676,0.32036 -1.42042,0.4796 -0.58554,0.19857 -1.17106,0.39737 -1.7594,0.58747 -0.5958,0.19164 -1.19407,0.37558 -1.79112,0.56329 -0.57629,0.1735 -1.15135,0.35158 -1.72371,0.53759 -0.52944,0.16723 -1.05715,0.34179 -1.5746,0.54345 -0.49108,0.19799 -0.97746,0.40672 -1.45868,0.62766 -0.4633,0.21555 -0.92666,0.4315 -1.38369,0.66006 -0.46479,0.24485 -0.93355,0.48361 -1.37884,0.76321 -0.44508,0.27079 -0.88009,0.55938 -1.29118,0.87989 -0.41015,0.31785 -0.80149,0.65903 -1.17203,1.02248 -0.37809,0.38026 -0.7509,0.76627 -1.1023,1.17154 -0.34425,0.40406 -0.66385,0.82801 -0.9717,1.26034 -0.28186,0.42575 -0.54903,0.86156 -0.75298,1.33112 -0.18476,0.42665 -0.34547,0.86374 -0.46426,1.3137 -0.10758,0.45069 -0.20918,0.9031 -0.2658,1.36359 -0.048,0.42327 -0.10013,0.84773 -0.0832,1.27472 0.009,0.3959 0.0437,0.78964 0.0957,1.18233 0.044,0.3403 0.092,0.68047 0.16613,1.01575 0.0516,0.22391 0.1066,0.44801 0.19286,0.66156 1.1167,2.60562 -0.1116,3.13203 -1.22829,0.52642 z"
       inkscape:connector-curvature="0" />
    <path
       style="opacity:1;fill:#000000;fill-opacity:1;fill-rule:nonzero;stroke:none;stroke-width:0.39700001;stroke-linecap:round;stroke-linejoin:round;stroke-miterlimit:4;stroke-dasharray:none;stroke-dashoffset:0;stroke-opacity:1;paint-order:markers fill stroke"
       id="path4493-2"
       d="m 206.69948,192.77897 c -0.18611,-0.17835 -0.38064,-0.34884 -0.57829,-0.51441 -0.28181,-0.24193 -0.58471,-0.45599 -0.8982,-0.65436 -0.38138,-0.23149 -0.77897,-0.43319 -1.19023,-0.60555 -0.50718,-0.2037 -1.02393,-0.38159 -1.55514,-0.51063 -0.63729,-0.14958 -1.28744,-0.21867 -1.9383,-0.27427 -0.73782,-0.0494 -1.47722,-0.0509 -2.21579,-0.0226 -0.81919,0.0273 -1.63299,0.12272 -2.44483,0.22975 -0.86673,0.11792 -1.72172,0.30548 -2.56421,0.53853 -0.90733,0.25883 -1.79117,0.58848 -2.66127,0.95139 -0.86661,0.36935 -1.70967,0.79083 -2.54376,1.22784 -0.77973,0.39629 -1.51635,0.8637 -2.23432,1.36119 -0.66099,0.46263 -1.26419,0.99749 -1.84332,1.55725 -0.50645,0.51503 -0.9661,1.07112 -1.36773,1.67096 -0.34186,0.51343 -0.61692,1.06425 -0.81553,1.64756 -0.17017,0.50244 -0.23845,1.02889 -0.25613,1.55678 -0.002,0.52804 0.0481,1.05288 0.18274,1.56362 0.13896,0.5028 0.38345,0.96347 0.66791,1.3975 0.31327,0.47491 0.72287,0.87237 1.15449,1.23838 0.50807,0.42855 1.06715,0.79123 1.63754,1.13028 0.63643,0.38045 1.29724,0.71738 1.96413,1.04061 0.69345,0.32514 1.40813,0.60053 2.12268,0.87478 0.73049,0.26811 1.46559,0.52351 2.19991,0.78092 0.71234,0.24566 1.42709,0.48421 2.1436,0.7174 0.70424,0.22546 1.41065,0.44385 2.11856,0.65748 0.70652,0.2041 1.40945,0.42049 2.10979,0.64483 0.66621,0.20299 1.32494,0.42825 1.98178,0.65942 0.61718,0.2146 1.22071,0.4641 1.81444,0.73637 0.54193,0.25802 1.07338,0.53678 1.59044,0.84149 0.51394,0.30172 0.98599,0.66578 1.43777,1.05268 0.43824,0.37016 0.81877,0.80012 1.19438,1.23178 0.35306,0.41782 0.6667,0.86632 0.9537,1.33141 0.28148,0.46343 0.50006,0.9597 0.69723,1.46355 0.17712,0.43293 0.32101,0.87814 0.51421,1.30436 0.0783,0.15329 0.14725,0.3241 0.28535,0.43162 0.0329,-0.0389 -0.13787,-0.0275 -0.0509,-0.059 0.15092,-0.0401 0.2874,-0.12919 0.41953,-0.21054 0.27309,-0.17861 0.54337,-0.36138 0.81476,-0.54257 0.36722,-0.25181 0.73799,-0.49797 1.11491,-0.73499 0.46799,-0.29832 0.94827,-0.57699 1.43035,-0.85181 0.55293,-0.3053 1.10799,-0.60666 1.67074,-0.89351 0.60475,-0.31449 1.22323,-0.6015 1.84318,-0.88451 0.64373,-0.28991 1.28852,-0.57759 1.93739,-0.85586 0.65024,-0.27788 1.30999,-0.53198 1.97021,-0.78493 0.65212,-0.24531 1.3087,-0.47847 1.96738,-0.7055 0.65289,-0.23026 1.30607,-0.45997 1.96439,-0.67427 0.64881,-0.21799 1.29968,-0.42998 1.95371,-0.63171 0.65489,-0.20416 1.30699,-0.41702 1.95961,-0.62828 0.65485,-0.22372 1.31022,-0.44569 1.96531,-0.66871 0.64563,-0.21954 1.28923,-0.44558 1.9299,-0.6793 0.62667,-0.22618 1.24891,-0.46469 1.86705,-0.71321 0.61448,-0.25354 1.22392,-0.51844 1.82874,-0.79423 0.59558,-0.27408 1.18097,-0.56788 1.75389,-0.88646 0.5816,-0.31146 1.14599,-0.65267 1.7005,-1.00971 0.56734,-0.36847 1.11353,-0.76783 1.65365,-1.17471 0.54909,-0.4226 1.0975,-0.84735 1.61589,-1.30741 0.52575,-0.4703 1.02203,-0.97051 1.50318,-1.48583 0.49055,-0.52928 0.94886,-1.08588 1.38901,-1.65729 0.42895,-0.56714 0.8241,-1.15875 1.19028,-1.76803 0.35147,-0.59529 0.66051,-1.21344 0.94565,-1.84273 0.26114,-0.59725 0.46965,-1.21516 0.66258,-1.83718 0.18282,-0.57823 0.28623,-1.17672 0.3643,-1.77679 0.0758,-0.59861 0.0908,-1.20249 0.0876,-1.80514 -0.006,-0.59792 -0.0807,-1.19045 -0.18145,-1.77885 -0.11193,-0.57465 -0.28452,-1.13627 -0.48532,-1.68558 -0.19661,-0.52852 -0.44223,-1.0347 -0.71215,-1.529 -0.27178,-0.4794 -0.59173,-0.928 -0.93604,-1.3574 -0.34145,-0.40803 -0.71876,-0.78364 -1.1173,-1.13543 -0.3911,-0.33668 -0.82447,-0.61745 -1.26928,-0.87683 -0.4537,-0.26639 -0.9425,-0.45919 -1.43777,-0.63178 -0.55864,-0.19292 -1.13608,-0.32134 -1.71406,-0.44024 -0.64756,-0.13865 -1.30723,-0.19878 -1.96584,-0.25559 -0.70598,-0.0696 -1.41531,-0.0804 -2.12401,-0.0919 -0.73878,-0.01 -1.47831,0.009 -2.21628,0.0438 -0.76635,0.0389 -1.53007,0.11749 -2.29222,0.20468 -0.75548,0.0992 -1.50916,0.21052 -2.25909,0.34551 -0.77063,0.1471 -1.53299,0.33271 -2.29252,0.52826 -0.82094,0.21155 -1.62367,0.48387 -2.42078,0.77066 -0.84134,0.3093 -1.66507,0.6636 -2.48277,1.03014 -0.8501,0.38474 -1.6773,0.81926 -2.49319,1.27151 -0.8368,0.47008 -1.65644,0.96884 -2.46189,1.49053 -0.78158,0.52016 -1.56003,1.0455 -2.32098,1.5955 -0.68358,0.49003 -1.33293,1.02397 -1.96593,1.57703 -0.27536,0.23358 -0.52275,0.49606 -0.76864,0.75953 -1.937,2.06984 -2.91273,1.15674 -0.97573,-0.91311 v 0 c 0.27721,-0.29551 0.55612,-0.58988 0.86528,-0.85291 0.66414,-0.57991 1.3455,-1.1397 2.06245,-1.65377 0.77961,-0.56297 1.57637,-1.10175 2.3772,-1.63398 0.83128,-0.53815 1.677,-1.05297 2.54065,-1.53777 0.84908,-0.47012 1.70961,-0.92224 2.59429,-1.32206 0.8487,-0.3802 1.70366,-0.74767 2.57701,-1.06813 0.83633,-0.30068 1.67874,-0.58562 2.54003,-0.80736 0.79153,-0.20353 1.58599,-0.39683 2.38918,-0.54935 0.77802,-0.13959 1.55976,-0.25589 2.34359,-0.35792 0.79157,-0.0905 1.5848,-0.17171 2.38074,-0.21183 0.76635,-0.0361 1.53421,-0.0558 2.3014,-0.0452 0.73981,0.0121 1.48022,0.0244 2.2172,0.0967 0.71052,0.0614 1.42189,0.12861 2.12045,0.27811 0.63599,0.13116 1.2709,0.27442 1.88534,0.48758 0.57608,0.20184 1.14375,0.42933 1.67143,0.7397 0.51938,0.30442 1.02493,0.63432 1.48058,1.02988 0.45474,0.40362 0.88693,0.83269 1.27519,1.30145 0.39192,0.49134 0.75745,1.00358 1.06565,1.55233 0.3012,0.55341 0.57542,1.12021 0.79462,1.71174 0.2266,0.62543 0.42343,1.2638 0.54693,1.91831 0.11175,0.66036 0.19438,1.32538 0.20037,1.99623 0.003,0.66282 -0.0148,1.32688 -0.0988,1.98515 -0.0887,0.67554 -0.20732,1.34881 -0.41314,1.99981 -0.20977,0.67499 -0.43702,1.34533 -0.72182,1.99297 -0.30699,0.67607 -0.63922,1.3404 -1.01765,1.97975 -0.39327,0.65263 -0.81609,1.28725 -1.2767,1.89457 -0.46607,0.60473 -0.95155,1.19369 -1.47093,1.75379 -0.51021,0.54616 -1.03672,1.07612 -1.59422,1.57446 -0.54599,0.48196 -1.1194,0.9315 -1.69756,1.37413 -0.56642,0.42651 -1.13933,0.84493 -1.73438,1.23097 -0.57891,0.3724 -1.16781,0.72886 -1.77472,1.05416 -0.60408,0.33534 -1.22075,0.64569 -1.84862,0.93426 -0.62335,0.28405 -1.25138,0.55715 -1.88471,0.81822 -0.63163,0.25371 -1.26723,0.4977 -1.90753,0.72872 -0.64978,0.23685 -1.30235,0.46634 -1.95715,0.6889 -0.66144,0.22508 -1.32304,0.44947 -1.98433,0.67502 -0.65855,0.21317 -1.31658,0.4279 -1.9774,0.63391 -0.64751,0.19958 -1.29171,0.40979 -1.93401,0.62547 -0.65108,0.21172 -1.29682,0.43946 -1.94253,0.66695 -0.6444,0.22193 -1.28663,0.45022 -1.92464,0.68996 -0.64393,0.24665 -1.28748,0.49423 -1.92167,0.76523 -0.63944,0.2741 -1.27475,0.55778 -1.90913,0.84335 -0.60256,0.27496 -1.20373,0.55374 -1.79141,0.85952 -0.54424,0.27713 -1.08068,0.569 -1.61555,0.86375 -0.46537,0.26529 -0.92921,0.53393 -1.38083,0.82214 -0.36664,0.23052 -0.72709,0.4702 -1.08427,0.71514 -0.28815,0.19235 -0.5748,0.38687 -0.86576,0.57497 -0.26608,0.1589 -0.5397,0.31623 -0.84744,0.3769 -0.38468,0.0648 -0.75424,0.0296 -1.06885,-0.22554 -0.28545,-0.25179 -0.49476,-0.55859 -0.64698,-0.90809 -0.20098,-0.44787 -0.35825,-0.91215 -0.54079,-1.36761 -0.16723,-0.4297 -0.35181,-0.85343 -0.59048,-1.24913 -0.24753,-0.40363 -0.51986,-0.79172 -0.82408,-1.15497 -0.33264,-0.38302 -0.66818,-0.76613 -1.05644,-1.09468 -0.39116,-0.33693 -0.80076,-0.65322 -1.24643,-0.91569 -0.47734,-0.2822 -0.96892,-0.53862 -1.46909,-0.77802 -0.55602,-0.25597 -1.12198,-0.48878 -1.70021,-0.69015 -0.64496,-0.22699 -1.29171,-0.44828 -1.94595,-0.64737 -0.69308,-0.2222 -1.3889,-0.436 -2.08812,-0.63809 -0.71709,-0.2165 -1.43271,-0.43765 -2.14607,-0.66611 -0.72599,-0.23639 -1.45028,-0.47795 -2.17203,-0.727 -0.74663,-0.26174 -1.49409,-0.52133 -2.23665,-0.79441 -0.74991,-0.28783 -1.49966,-0.57769 -2.22693,-0.91997 -0.70116,-0.34016 -1.39585,-0.69484 -2.06505,-1.09501 -0.6344,-0.37876 -1.2562,-0.78318 -1.82091,-1.26171 -0.52769,-0.45247 -1.0269,-0.94285 -1.40865,-1.52836 -0.35875,-0.55856 -0.66954,-1.14799 -0.84116,-1.79341 -0.15898,-0.63686 -0.23502,-1.28713 -0.22336,-1.94453 0.0269,-0.65925 0.11289,-1.31605 0.32844,-1.94297 0.2413,-0.69069 0.56049,-1.34811 0.96944,-1.95652 0.45609,-0.67661 0.97332,-1.30743 1.5487,-1.887 0.63171,-0.60927 1.28991,-1.19117 2.0107,-1.69448 0.76332,-0.52836 1.54683,-1.02454 2.37511,-1.44636 0.86877,-0.4549 1.74689,-0.89353 2.64968,-1.27755 0.92205,-0.38405 1.85871,-0.73281 2.82025,-1.00619 0.90214,-0.24791 1.81683,-0.45009 2.74475,-0.57512 0.85309,-0.1124 1.70837,-0.21148 2.56914,-0.24026 0.79338,-0.0294 1.58768,-0.0284 2.38014,0.0265 0.72003,0.0618 1.43909,0.14117 2.14371,0.30814 0.59864,0.14897 1.18357,0.34385 1.75496,0.57691 0.4787,0.20291 0.94346,0.43615 1.38686,0.70847 0.3633,0.23102 0.71498,0.47938 1.04223,0.75987 0.22653,0.19099 0.45049,0.38619 0.66328,0.59237 2.00453,2.00452 1.05959,2.94946 -0.94493,0.94494 z"
       inkscape:connector-curvature="0" />
    <path
       style="opacity:1;fill:#000000;fill-opacity:1;fill-rule:nonzero;stroke:none;stroke-width:0.39700001;stroke-linecap:round;stroke-linejoin:round;stroke-miterlimit:4;stroke-dasharray:none;stroke-dashoffset:0;stroke-opacity:1;paint-order:markers fill stroke"
       id="path4495-0"
       d="m 171.53643,170.84074 c 0.30298,-0.0851 0.61349,-0.13581 0.92607,-0.16781 0.43471,-0.0305 0.87073,-0.0367 1.30631,-0.045 0.59763,0.008 1.19491,0.0335 1.79232,0.0514 0.76792,0.0374 1.53525,0.0838 2.30183,0.14251 0.89089,0.0671 1.77983,0.15816 2.66806,0.25383 0.95228,0.11362 1.90322,0.23782 2.85152,0.38097 0.97768,0.14112 1.94852,0.32628 2.91316,0.53815 0.96162,0.19451 1.90459,0.46347 2.8457,0.73769 0.92219,0.27785 1.8364,0.5823 2.74474,0.90235 0.89446,0.31889 1.78258,0.65412 2.66068,1.01561 0.85912,0.35671 1.71235,0.72669 2.55378,1.12338 0.82841,0.3909 1.63837,0.81933 2.43965,1.26274 0.7702,0.42208 1.50376,0.90518 2.24851,1.36934 0.71555,0.42922 1.4036,0.90071 2.08169,1.38624 0.63472,0.43726 1.2511,0.89978 1.84899,1.38601 0.55333,0.45233 1.06984,0.94714 1.5806,1.44634 0.48069,0.44985 0.89967,0.95601 1.3019,1.47531 0.3788,0.4773 0.67941,1.00662 0.98528,1.53134 0.14437,0.24268 0.27466,0.49306 0.40371,0.74405 1.29447,2.52202 0.10558,3.13224 -1.18889,0.61023 v 0 c -0.11783,-0.23 -0.2371,-0.45927 -0.36941,-0.68141 -0.27634,-0.47428 -0.54503,-0.95457 -0.88735,-1.38609 -0.36447,-0.47094 -0.7425,-0.93119 -1.17953,-1.33796 -0.48154,-0.47111 -0.96843,-0.93825 -1.48993,-1.36541 -0.57614,-0.46945 -1.17156,-0.9141 -1.78348,-1.33596 -0.65481,-0.46908 -1.31926,-0.92452 -2.01059,-1.33868 -0.72497,-0.45214 -1.43911,-0.92265 -2.18867,-1.33417 -0.77591,-0.42961 -1.56032,-0.84455 -2.36254,-1.22326 -0.82114,-0.38746 -1.6542,-0.74798 -2.49262,-1.09639 -0.85667,-0.35296 -1.72339,-0.67954 -2.59603,-0.99092 -0.88501,-0.31208 -1.7759,-0.60849 -2.67433,-0.8797 -0.91241,-0.26586 -1.82638,-0.52753 -2.75885,-0.71551 -0.9356,-0.20597 -1.87744,-0.38499 -2.82577,-0.52197 -0.9295,-0.1405 -1.86166,-0.26189 -2.79504,-0.37366 -0.87454,-0.0942 -1.74978,-0.18399 -2.62695,-0.25005 -0.74592,-0.0571 -1.49256,-0.10218 -2.23976,-0.1392 -0.57561,-0.0172 -1.15108,-0.0405 -1.72686,-0.051 -0.40136,0.008 -0.80304,0.0135 -1.20375,0.0391 -0.23214,0.02 -0.46186,0.0624 -0.68703,0.12254 -2.72575,0.77878 -3.09287,-0.50615 -0.36712,-1.28493 z"
       inkscape:connector-curvature="0" />
    <path
       style="opacity:1;fill:#000000;fill-opacity:1;fill-rule:nonzero;stroke:none;stroke-width:0.39700001;stroke-linecap:round;stroke-linejoin:round;stroke-miterlimit:4;stroke-dasharray:none;stroke-dashoffset:0;stroke-opacity:1;paint-order:markers fill stroke"
       id="path4497-8"
       d="m 185.19378,173.88191 c -0.16001,0.14114 -0.30811,0.29671 -0.44083,0.4638 -0.18411,0.22051 -0.32154,0.4738 -0.45833,0.72499 -0.19199,0.33081 -0.34784,0.6804 -0.50382,1.02909 -0.17237,0.40246 -0.32259,0.81388 -0.45909,1.22973 -0.17086,0.50977 -0.3313,1.02283 -0.49554,1.53474 -0.17727,0.59042 -0.38771,1.17012 -0.59313,1.75114 -0.2279,0.63337 -0.48884,1.25417 -0.75755,1.87111 -0.28786,0.66265 -0.63147,1.29822 -0.99305,1.92293 -0.38108,0.66124 -0.8175,1.28672 -1.27669,1.89537 -0.51298,0.66306 -1.06714,1.29148 -1.63685,1.90583 -0.61249,0.64953 -1.26914,1.25472 -1.94727,1.83459 -0.69676,0.58686 -1.4335,1.12372 -2.1941,1.62425 -0.75443,0.50627 -1.56481,0.91465 -2.38312,1.305 -0.81081,0.38655 -1.65876,0.68319 -2.50644,0.97616 -0.80113,0.27762 -1.61755,0.50749 -2.43042,0.74754 -0.73063,0.22099 -1.47005,0.40752 -2.21713,0.563 -0.43954,0.0774 -0.22118,0.044 -0.655,0.10104 -2.81135,0.36411 -2.98298,-0.96117 -0.17164,-1.32528 v 0 c 0.36097,-0.0458 0.17605,-0.0182 0.55454,-0.0841 0.71132,-0.14781 1.41516,-0.32575 2.11075,-0.53627 0.79339,-0.2343 1.59036,-0.45834 2.3724,-0.72897 0.80043,-0.27661 1.60184,-0.55482 2.36772,-0.91932 0.76356,-0.36402 1.5208,-0.7427 2.22447,-1.2156 0.71445,-0.46874 1.40519,-0.97361 2.05981,-1.52337 0.6393,-0.54591 1.25795,-1.11611 1.83567,-1.72745 0.53922,-0.58119 1.06403,-1.17532 1.55007,-1.80223 0.42693,-0.5651 0.8328,-1.14575 1.18685,-1.75998 0.33649,-0.58049 0.6565,-1.17098 0.9243,-1.78688 0.25619,-0.58788 0.50516,-1.17937 0.72276,-1.78281 0.20109,-0.56876 0.40738,-1.1361 0.58066,-1.71415 0.16537,-0.51486 0.32658,-1.03099 0.49846,-1.54375 0.15133,-0.45936 0.31718,-0.91407 0.50887,-1.3583 0.17056,-0.38071 0.34171,-0.762 0.55071,-1.12363 0.17604,-0.3215 0.35651,-0.64291 0.59251,-0.9253 0.1645,-0.20091 0.33926,-0.39625 0.53451,-0.56785 2.00452,-2.00452 2.94946,-1.05958 0.94494,0.94494 z"
       inkscape:connector-curvature="0" />
    <path
       style="opacity:1;fill:#000000;fill-opacity:1;fill-rule:nonzero;stroke:none;stroke-width:0.39700001;stroke-linecap:round;stroke-linejoin:round;stroke-miterlimit:4;stroke-dasharray:none;stroke-dashoffset:0;stroke-opacity:1;paint-order:markers fill stroke"
       id="path4499-4"
       d="m 159.80145,192.82117 c -0.11927,-0.2855 -0.19636,-0.5856 -0.26639,-0.88619 -0.0847,-0.37818 -0.1398,-0.76196 -0.1896,-1.14601 -0.0584,-0.43871 -0.0952,-0.8789 -0.10633,-1.32123 -0.019,-0.48817 0.0365,-0.97374 0.0913,-1.45777 0.0622,-0.51432 0.17374,-1.02002 0.29379,-1.52333 0.13547,-0.5254 0.32301,-1.03494 0.53706,-1.53284 0.23468,-0.54222 0.54053,-1.04691 0.86527,-1.53877 0.33644,-0.4778 0.69022,-0.94315 1.06821,-1.38882 0.37366,-0.43195 0.77032,-0.84325 1.1728,-1.24823 0.41017,-0.40449 0.84555,-0.78183 1.29988,-1.13562 0.45061,-0.35188 0.92788,-0.66792 1.41551,-0.96568 0.46894,-0.29437 0.9621,-0.54655 1.4515,-0.80444 0.47618,-0.23943 0.9596,-0.46445 1.44279,-0.68936 0.50226,-0.23077 1.01004,-0.44852 1.52256,-0.65538 0.54921,-0.21503 1.10959,-0.40054 1.67178,-0.57836 0.57815,-0.18784 1.15904,-0.3676 1.74111,-0.54296 0.58897,-0.18543 1.17933,-0.36653 1.76709,-0.5558 0.58173,-0.18795 1.16065,-0.38458 1.7396,-0.58093 0.46896,-0.15808 0.93992,-0.31063 1.40675,-0.47488 2.67462,-0.93946 3.11749,0.32138 0.44286,1.26083 v 0 c -0.47155,0.16538 -0.94676,0.32036 -1.42041,0.4796 -0.58554,0.19857 -1.17107,0.39737 -1.75941,0.58747 -0.5958,0.19164 -1.19407,0.37558 -1.79111,0.56329 -0.5763,0.1735 -1.15135,0.35158 -1.72372,0.53759 -0.52944,0.16723 -1.05715,0.34179 -1.5746,0.54345 -0.49107,0.19799 -0.97745,0.40672 -1.45867,0.62766 -0.46331,0.21555 -0.92667,0.4315 -1.3837,0.66006 -0.46479,0.24485 -0.93355,0.48361 -1.37884,0.76321 -0.44508,0.27079 -0.88009,0.55938 -1.29118,0.87989 -0.41015,0.31785 -0.80149,0.65903 -1.17203,1.02248 -0.37809,0.38026 -0.7509,0.76627 -1.1023,1.17154 -0.34425,0.40406 -0.66385,0.82801 -0.9717,1.26034 -0.28186,0.42575 -0.54902,0.86156 -0.75298,1.33112 -0.18476,0.42665 -0.34547,0.86374 -0.46426,1.3137 -0.10757,0.45069 -0.20917,0.9031 -0.26579,1.36359 -0.048,0.42327 -0.10014,0.84773 -0.0832,1.27472 0.009,0.3959 0.0437,0.78964 0.0957,1.18233 0.044,0.3403 0.092,0.68047 0.16613,1.01575 0.0516,0.22391 0.10659,0.44801 0.19286,0.66156 1.11669,2.60562 -0.11161,3.13203 -1.2283,0.52642 z"
       inkscape:connector-curvature="0" />
  </g>
</svg>
