<?xml version="1.0" encoding="UTF-8" standalone="no"?>
<!-- Created with Inkscape (http://www.inkscape.org/) -->

<svg
   xmlns:dc="http://purl.org/dc/elements/1.1/"
   xmlns:cc="http://creativecommons.org/ns#"
   xmlns:rdf="http://www.w3.org/1999/02/22-rdf-syntax-ns#"
   xmlns:svg="http://www.w3.org/2000/svg"
   xmlns="http://www.w3.org/2000/svg"
   xmlns:sodipodi="http://sodipodi.sourceforge.net/DTD/sodipodi-0.dtd"
   xmlns:inkscape="http://www.inkscape.org/namespaces/inkscape"
   width="297mm"
   height="210mm"
   viewBox="0 0 297 210"
   version="1.1"
   id="svg4834"
   inkscape:version="0.92.1 r15371"
   sodipodi:docname="Diff-Int.svg">
  <defs
     id="defs4828" />
  <sodipodi:namedview
     id="base"
     pagecolor="#ffffff"
     bordercolor="#666666"
     borderopacity="1.0"
     inkscape:pageopacity="0.0"
     inkscape:pageshadow="2"
     inkscape:zoom="0.98994949"
     inkscape:cx="565.52724"
     inkscape:cy="418.12714"
     inkscape:document-units="mm"
     inkscape:current-layer="layer1"
     showgrid="false"
     inkscape:window-width="1920"
     inkscape:window-height="1046"
     inkscape:window-x="-11"
     inkscape:window-y="-11"
     inkscape:window-maximized="1" />
  <metadata
     id="metadata4831">
    <rdf:RDF>
      <cc:Work
         rdf:about="">
        <dc:format>image/svg+xml</dc:format>
        <dc:type
           rdf:resource="http://purl.org/dc/dcmitype/StillImage" />
        <dc:title></dc:title>
      </cc:Work>
    </rdf:RDF>
  </metadata>
  <g
     inkscape:label="Layer 1"
     inkscape:groupmode="layer"
     id="layer1"
     transform="translate(0,-87)">
    <path
       style="opacity:1;fill:#000000;fill-opacity:1;fill-rule:nonzero;stroke:none;stroke-width:0.39700001;stroke-linecap:round;stroke-linejoin:round;stroke-miterlimit:4;stroke-dasharray:none;stroke-dashoffset:0;stroke-opacity:1;paint-order:markers fill stroke"
       id="path5379"
       d="m 74.464867,141.65699 c -0.09456,-0.24113 -0.193101,-0.48048 -0.320175,-0.70648 -0.127315,-0.19386 -0.24343,-0.40682 -0.448747,-0.52757 -0.06596,-0.0374 -0.174953,-0.0631 -0.216294,-0.0229 -0.0204,0.10687 -0.12347,0.24633 -0.169958,0.36344 -0.161893,0.46899 -0.20851,0.96702 -0.247218,1.45864 -0.05369,0.78728 -0.02665,1.57721 0.01606,2.36424 0.05756,0.94519 0.113861,1.89032 0.187539,2.8344 0.07445,0.916 0.140322,1.83266 0.201663,2.74962 0.03879,0.81677 0.0691,1.63441 0.04139,2.45189 -0.02323,0.63088 -0.156451,1.24669 -0.35219,1.8445 -0.128783,0.3967 -0.366792,0.71312 -0.677704,0.98245 -2.201743,1.78565 -3.043507,0.74774 -0.841761,-1.03791 v 0 c 0.135525,-0.0672 0.194281,-0.23527 0.250418,-0.36327 0.158863,-0.47676 0.266049,-0.96849 0.285705,-1.47242 0.02788,-0.77214 -0.0048,-1.54453 -0.03922,-2.31605 -0.061,-0.91204 -0.126534,-1.82378 -0.200591,-2.73486 -0.07448,-0.95475 -0.131543,-1.91056 -0.189653,-2.86644 -0.04533,-0.84679 -0.07334,-1.6966 -0.01368,-2.54351 0.05256,-0.63952 0.121724,-1.28589 0.355751,-1.88876 0.227748,-0.49652 0.526229,-0.94079 1.069554,-1.12246 0.464338,-0.0918 0.90265,-0.0413 1.306999,0.22494 0.357217,0.26274 0.635812,0.58836 0.852123,0.97666 0.145116,0.2664 0.270597,0.54173 0.37829,0.82544 1.11669,2.60561 -0.111606,3.13203 -1.228296,0.52642 z"
       inkscape:connector-curvature="0" />
    <path
       style="opacity:1;fill:#000000;fill-opacity:1;fill-rule:nonzero;stroke:none;stroke-width:0.39700001;stroke-linecap:round;stroke-linejoin:round;stroke-miterlimit:4;stroke-dasharray:none;stroke-dashoffset:0;stroke-opacity:1;paint-order:markers fill stroke"
       id="path5383"
       d="m 68.02552,148.80894 c 0.337799,-0.0801 0.67999,-0.14229 1.022022,-0.20167 0.569023,-0.0848 1.138041,-0.16986 1.7087,-0.2432 0.680675,-0.0907 1.358826,-0.19733 2.036903,-0.30532 0.443129,-0.0653 0.883473,-0.14786 1.324562,-0.22543 2.791981,-0.49097 3.023428,0.82518 0.23145,1.31616 v 0 c -0.448165,0.0788 -0.895599,0.1625 -1.345819,0.22898 -0.691378,0.11012 -1.382869,0.2187 -2.0769,0.31108 -0.551352,0.0707 -1.101032,0.15326 -1.650897,0.23449 -0.295304,0.051 -0.59006,0.10632 -0.882899,0.16984 -2.725748,0.77879 -3.092873,-0.50614 -0.367122,-1.28493 z"
       inkscape:connector-curvature="0" />
    <path
       style="opacity:1;fill:#000000;fill-opacity:1;fill-rule:nonzero;stroke:none;stroke-width:0.39700001;stroke-linecap:round;stroke-linejoin:round;stroke-miterlimit:4;stroke-dasharray:none;stroke-dashoffset:0;stroke-opacity:1;paint-order:markers fill stroke"
       id="path5387"
       d="m 84.826045,138.53171 c 0.174263,-0.1956 0.363882,-0.37745 0.54949,-0.56229 0.307371,-0.28487 0.615698,-0.56903 0.931158,-0.84495 0.413256,-0.34893 0.841068,-0.67916 1.275879,-1.00056 0.515747,-0.38467 1.051529,-0.74004 1.589882,-1.09184 0.611184,-0.4082 1.244353,-0.78121 1.876128,-1.15622 0.716637,-0.43373 1.459492,-0.82116 2.197074,-1.21746 0.811548,-0.42997 1.643052,-0.81949 2.476058,-1.20552 0.912183,-0.41787 1.84195,-0.79458 2.774016,-1.16526 1.030036,-0.40736 2.08084,-0.75764 3.13227,-1.1047 1.11527,-0.35685 2.23622,-0.6955 3.36622,-1.00253 1.17207,-0.31071 2.35302,-0.58535 3.53712,-0.84585 1.24033,-0.2626 2.48611,-0.49836 3.73595,-0.7109 1.29123,-0.20556 2.5847,-0.39705 3.88076,-0.56964 1.32231,-0.172 2.64836,-0.31457 3.97773,-0.41865 1.36068,-0.0959 2.72358,-0.15553 4.08638,-0.21134 1.3725,-0.0583 2.74658,-0.0639 4.12008,-0.0751 1.32972,0.002 2.65917,0.0252 3.98813,0.0689 1.24336,0.0382 2.4851,0.11498 3.72565,0.20482 1.15349,0.0949 2.30535,0.20747 3.4542,0.34778 1.06652,0.12389 2.12869,0.27921 3.18958,0.44353 0.99263,0.14729 1.98109,0.32093 2.96554,0.51518 0.92802,0.1766 1.8475,0.39589 2.75887,0.64385 0.85379,0.22223 1.69221,0.49736 2.52953,0.77393 0.77572,0.26576 1.5457,0.54819 2.31139,0.84151 0.70594,0.26871 1.40758,0.54876 2.10533,0.83804 0.66228,0.28673 1.3144,0.59665 1.96483,0.90918 0.60089,0.29835 1.19848,0.60353 1.79231,0.91568 0.51541,0.26947 1.03524,0.53045 1.55051,0.80017 0.36877,0.1965 0.73633,0.39511 1.12906,0.54003 0.14577,0.0992 0.38625,0.0282 0.11904,0.0797 -0.0923,0.0199 -0.22282,0.16072 -0.26293,0.20182 -0.0253,-0.21753 -0.0941,-0.42563 -0.17582,-0.62769 -0.13838,-0.34811 -0.30461,-0.68477 -0.47921,-1.01596 -0.19464,-0.37764 -0.40619,-0.74667 -0.63317,-1.10578 -0.17612,-0.27924 -0.3541,-0.55954 -0.56097,-0.81741 -0.46227,-0.62092 -0.3698,-0.27771 0.91453,-1.02239 0.18119,0.20715 0.3758,0.40107 0.56583,0.59986 0.25468,0.26942 0.49886,0.54847 0.74034,0.82972 0.29986,0.34428 0.53441,0.73493 0.74325,1.13893 0.21986,0.42398 0.36489,0.87506 0.44519,1.34446 0.0785,0.52193 -0.0338,1.00883 -0.25763,1.47795 -0.24869,0.46583 -0.64721,0.80896 -1.0607,1.12371 -0.43548,0.31075 -0.9204,0.53826 -1.41171,0.74456 -0.48054,0.19837 -0.97774,0.34835 -1.48394,0.46414 -0.0801,0.0147 -0.1602,0.0294 -0.24029,0.044 -2.78982,0.50314 -3.027,-0.812 -0.23719,-1.31513 v 0 c 0.0604,-0.0107 0.12079,-0.0213 0.18119,-0.032 0.43143,-0.0974 0.85457,-0.22578 1.26422,-0.39376 0.38862,-0.16208 0.77352,-0.33818 1.12164,-0.57773 0.24995,-0.18738 0.50584,-0.38382 0.6709,-0.65424 0.11577,-0.20941 0.16494,-0.42626 0.13449,-0.66702 -0.0492,-0.33266 -0.16347,-0.64783 -0.31465,-0.94797 -0.15927,-0.31198 -0.33779,-0.61411 -0.56871,-0.87947 -0.22639,-0.26372 -0.45506,-0.52556 -0.69377,-0.77824 -0.18135,-0.19102 -0.37011,-0.37483 -0.54161,-0.57509 0.32583,-0.28723 0.67985,-0.54533 0.9775,-0.86167 0.0286,-0.0304 -0.0454,-0.0701 -0.0673,-0.10566 -0.033,-0.0535 0.21402,0.2817 0.16621,0.21355 0.23374,0.29772 0.44473,0.61284 0.64389,0.93457 0.24445,0.38914 0.47504,0.78723 0.6852,1.19599 0.19617,0.37373 0.38345,0.75322 0.53892,1.14591 0.12958,0.33169 0.23604,0.67344 0.26672,1.03023 0.0155,0.46515 -0.10615,0.87408 -0.53961,1.11417 -0.38466,0.12928 -0.74564,0.10802 -1.12006,-0.0552 -0.44236,-0.16836 -0.86381,-0.38058 -1.27903,-0.6072 -0.5157,-0.27046 -1.03657,-0.53103 -1.55244,-0.80119 -0.57936,-0.30497 -1.16288,-0.60222 -1.74904,-0.8939 -0.62837,-0.30205 -1.25843,-0.60139 -1.89791,-0.87926 -0.6865,-0.28479 -1.37698,-0.56011 -2.07157,-0.82457 -0.74612,-0.28601 -1.49655,-0.56102 -2.25234,-0.82046 -0.81487,-0.26916 -1.63063,-0.53748 -2.46161,-0.75348 -0.88072,-0.24018 -1.76963,-0.4514 -2.66653,-0.62219 -0.96637,-0.19095 -1.9368,-0.36094 -2.91123,-0.50561 -1.04679,-0.16214 -2.09482,-0.31553 -3.14718,-0.43765 -1.12701,-0.13789 -2.25704,-0.24788 -3.38859,-0.34141 -1.22305,-0.0886 -2.44726,-0.16447 -3.67308,-0.20205 -1.31068,-0.0432 -2.62184,-0.066 -3.93327,-0.0682 -1.3589,0.0111 -2.71838,0.0163 -4.07629,0.074 -1.34632,0.0551 -2.69273,0.11395 -4.03697,0.20841 -1.30525,0.10177 -2.60714,0.24251 -3.90547,0.41102 -1.28015,0.17039 -2.55771,0.35966 -3.83313,0.56242 -1.22874,0.20884 -2.45345,0.44072 -3.67287,0.69862 -1.16295,0.25572 -2.32279,0.52542 -3.47396,0.83033 -1.10703,0.30046 -2.20493,0.63277 -3.29757,0.9819 -1.02618,0.33872 -2.05194,0.68006 -3.057327,1.07745 -0.909127,0.36152 -1.816127,0.72861 -2.705944,1.13598 -0.809133,0.37496 -1.616999,0.75288 -2.405444,1.17023 -0.720852,0.38731 -1.447101,0.76551 -2.147472,1.18943 -0.615264,0.36519 -1.232148,0.72798 -1.827212,1.12574 -0.516845,0.33774 -1.031589,0.67832 -1.526601,1.04784 -0.405675,0.29981 -0.804997,0.60748 -1.191085,0.93237 -0.293939,0.25631 -0.579737,0.52193 -0.867283,0.78537 -0.184992,0.18422 -0.373608,0.36546 -0.547516,0.56032 -2.004523,2.00452 -2.949464,1.05958 -0.944941,-0.94494 z"
       inkscape:connector-curvature="0" />
    <path
       style="opacity:1;fill:#000000;fill-opacity:1;fill-rule:nonzero;stroke:none;stroke-width:0.39700001;stroke-linecap:round;stroke-linejoin:round;stroke-miterlimit:4;stroke-dasharray:none;stroke-dashoffset:0;stroke-opacity:1;paint-order:markers fill stroke"
       id="path5389"
       d="m 175.60629,135.4184 c 0.0449,-0.0797 0.0522,-0.1662 0.0593,-0.25516 -0.008,-0.0788 -0.0634,-0.14808 -0.1082,-0.21101 -0.1134,-0.14396 -0.2696,-0.24026 -0.4267,-0.32947 -0.19642,-0.1125 -0.41235,-0.16562 -0.63569,-0.18731 -0.20305,-0.01 -0.39017,0.0592 -0.56958,0.14657 -0.25198,0.13745 -0.41425,0.36727 -0.56984,0.60064 -0.27222,0.42062 -0.40365,0.89999 -0.52343,1.38047 -0.16979,0.70312 -0.23879,1.42396 -0.3069,2.14236 -0.0852,0.82869 -0.10658,1.66156 -0.12802,2.49374 -0.0201,0.83548 -0.034,1.6711 -0.0473,2.50671 -0.0101,0.75744 -0.0165,1.51465 -0.051,2.27143 -0.0134,0.6241 -0.098,1.24159 -0.23936,1.8487 -0.0826,0.3236 -0.21241,0.62954 -0.38252,0.91594 -1.47761,2.41927 -2.61807,1.72272 -1.14046,-0.69655 v 0 c 0.10515,-0.15964 0.16666,-0.3429 0.22195,-0.52462 0.12464,-0.52653 0.19454,-1.06276 0.20544,-1.60438 0.034,-0.74358 0.0395,-1.4876 0.0498,-2.23183 0.0134,-0.83999 0.0274,-1.67998 0.0476,-2.51985 0.0223,-0.86284 0.0454,-1.72636 0.13355,-2.58558 0.0747,-0.78546 0.15337,-1.57309 0.34111,-2.34133 0.15956,-0.63231 0.34994,-1.25788 0.71466,-1.80685 0.29759,-0.43174 0.63319,-0.82902 1.11506,-1.06249 0.40747,-0.18279 0.83222,-0.30459 1.28423,-0.26042 0.40453,0.0512 0.79778,0.15135 1.15285,0.35962 0.33811,0.19956 0.65553,0.43127 0.87843,0.76142 0.20276,0.32639 0.34762,0.67378 0.31408,1.06703 -0.0334,0.30586 -0.10681,0.6024 -0.27706,0.86349 -1.57248,2.35872 -2.68438,1.61744 -1.11191,-0.74127 z"
       inkscape:connector-curvature="0" />
    <path
       style="opacity:1;fill:#000000;fill-opacity:1;fill-rule:nonzero;stroke:none;stroke-width:0.39700001;stroke-linecap:round;stroke-linejoin:round;stroke-miterlimit:4;stroke-dasharray:none;stroke-dashoffset:0;stroke-opacity:1;paint-order:markers fill stroke"
       id="path5391"
       d="m 166.46977,142.11612 c 0.36685,-0.0467 0.73661,-0.0639 1.10569,-0.0824 0.61333,-0.0347 1.22758,-0.0216 1.84153,-0.0334 0.69415,-0.0108 1.38786,-0.0284 2.07997,-0.0844 0.32634,-0.0237 0.65041,-0.0695 0.97459,-0.11236 2.81038,-0.37149 2.9855,0.95333 0.17512,1.32483 v 0 c -0.34689,0.0458 -0.69374,0.094 -1.04291,0.11961 -0.71925,0.0572 -1.43996,0.0781 -2.16131,0.0885 -0.60015,0.0114 -1.20057,-0.001 -1.80013,0.0319 -0.32825,0.0164 -0.65708,0.0312 -0.98356,0.0707 -2.80633,0.4009 -2.99532,-0.92201 -0.18899,-1.32292 z"
       inkscape:connector-curvature="0" />
    <path
       style="opacity:1;fill:#000000;fill-opacity:1;fill-rule:nonzero;stroke:none;stroke-width:0.39700001;stroke-linecap:round;stroke-linejoin:round;stroke-miterlimit:4;stroke-dasharray:none;stroke-dashoffset:0;stroke-opacity:1;paint-order:markers fill stroke"
       id="path5395"
       d="m 183.9488,131.85804 c -0.0905,0.27607 -0.16846,0.55664 -0.24124,0.83795 -0.10829,0.43968 -0.21808,0.87899 -0.33034,1.31769 -0.14705,0.53644 -0.32108,1.06513 -0.50541,1.58979 -0.94071,2.67418 -2.20134,2.23073 -1.26063,-0.44346 v 0 c 0.17178,-0.48765 0.3333,-0.97926 0.47141,-1.4776 0.11266,-0.44031 0.22293,-0.88122 0.33158,-1.32253 0.0851,-0.32615 0.17449,-0.65204 0.28337,-0.97107 0.99537,-2.65432 2.24663,-2.1851 1.25126,0.46923 z"
       inkscape:connector-curvature="0" />
    <path
       style="opacity:1;fill:#000000;fill-opacity:1;fill-rule:nonzero;stroke:none;stroke-width:0.39700001;stroke-linecap:round;stroke-linejoin:round;stroke-miterlimit:4;stroke-dasharray:none;stroke-dashoffset:0;stroke-opacity:1;paint-order:markers fill stroke"
       id="path5397"
       d="m 117.46495,96.603211 c -0.009,0.260476 0.0118,0.519517 0.0309,0.779002 0.022,0.41467 0.0618,0.827501 0.10494,1.240386 0.0495,0.488068 0.0992,0.976354 0.12131,1.466521 0.0272,0.47925 -0.0185,0.95567 -0.14944,1.41684 -0.12898,0.44361 -0.40643,0.75143 -0.81235,0.95855 -0.36182,0.14633 -0.75074,0.14757 -1.13406,0.12906 -0.33487,-0.0348 -0.6712,-0.0479 -1.00757,-0.0336 -0.34478,0.004 -0.67642,0.082 -0.99699,0.20348 -0.28433,0.11326 -0.52095,0.30033 -0.73515,0.5145 -0.17437,0.18371 -0.30787,0.39784 -0.39916,0.63333 -0.0404,0.13123 -0.029,0.25962 0.0232,0.38468 0.0423,0.0654 0.0873,0.0533 0.15069,0.074 0.22441,0.0511 0.45229,0.0631 0.68151,0.0547 0.36891,-0.012 0.73473,-0.0565 1.10064,-0.10173 0.29123,-0.0367 0.58318,-0.0671 0.87526,-0.0961 2.82095,-0.28016 2.95302,1.04964 0.13207,1.3298 v 0 c -0.28145,0.0279 -0.56277,0.0572 -0.8434,0.0926 -0.40874,0.0505 -0.81772,0.0984 -1.22979,0.11138 -0.4104,0.008 -0.82219,-0.0172 -1.21412,-0.15045 -0.42909,-0.18206 -0.7617,-0.45696 -0.92561,-0.90687 -0.12832,-0.43385 -0.15092,-0.86949 0.0136,-1.29998 0.16887,-0.39955 0.39155,-0.77014 0.69965,-1.0796 0.35329,-0.34213 0.74439,-0.63736 1.20845,-0.81411 0.45425,-0.16445 0.92245,-0.27816 1.40845,-0.28501 0.37763,-0.0131 0.75563,-0.006 1.13163,0.0346 0.16335,0.0108 0.32982,0.009 0.49141,-0.004 0.0262,0.0763 0.0692,-0.0603 0.10101,-0.13114 0.10341,-0.31358 0.10497,-0.65034 0.0951,-0.97726 -0.0192,-0.463239 -0.0702,-0.924442 -0.11535,-1.385716 -0.0445,-0.426475 -0.0855,-0.852982 -0.10858,-1.281263 -0.0214,-0.291994 -0.0433,-0.583884 -0.0345,-0.876931 0,-2.834822 1.33634,-2.834822 1.33634,0 z"
       inkscape:connector-curvature="0" />
    <path
       style="opacity:1;fill:#000000;fill-opacity:1;fill-rule:nonzero;stroke:none;stroke-width:0.39700001;stroke-linecap:round;stroke-linejoin:round;stroke-miterlimit:4;stroke-dasharray:none;stroke-dashoffset:0;stroke-opacity:1;paint-order:markers fill stroke"
       id="path5399"
       d="m 107.69,108.17134 c 0.34578,-0.033 0.69065,-0.0737 1.03604,-0.11061 0.62945,-0.0625 1.25763,-0.13747 1.88581,-0.21156 0.88154,-0.11496 1.76292,-0.23131 2.64523,-0.34023 1.04538,-0.13306 2.08998,-0.27206 3.1353,-0.40556 1.03528,-0.13307 2.07332,-0.24258 3.11201,-0.345 0.85481,-0.098 1.70929,-0.19923 2.56325,-0.30439 0.44556,-0.0504 0.88781,-0.12523 1.3325,-0.1817 2.8126,-0.35419 2.97957,0.97169 0.16696,1.32587 v 0 c -0.44601,0.0556 -0.88923,0.13282 -1.33615,0.18216 -0.86468,0.10646 -1.72987,0.20906 -2.59544,0.30796 -1.02595,0.10114 -2.05127,0.20924 -3.07385,0.34068 -1.04719,0.13372 -2.09365,0.27301 -3.14089,0.40627 -0.8847,0.10916 -1.76845,0.22602 -2.65239,0.34109 -0.63306,0.0747 -1.26612,0.15013 -1.90044,0.21321 -0.33743,0.036 -0.67434,0.0761 -1.01219,0.10783 -2.81293,0.35162 -2.97868,-0.97441 -0.16575,-1.32602 z"
       inkscape:connector-curvature="0" />
    <path
       style="opacity:1;fill:#000000;fill-opacity:1;fill-rule:nonzero;stroke:none;stroke-width:0.39700001;stroke-linecap:round;stroke-linejoin:round;stroke-miterlimit:4;stroke-dasharray:none;stroke-dashoffset:0;stroke-opacity:1;paint-order:markers fill stroke"
       id="path5401"
       d="m 115.3268,111.83757 c 0.026,0.23765 0.0511,0.47507 0.0851,0.71186 0.0513,0.3716 0.12836,0.7391 0.20946,1.10518 0.0889,0.43763 0.19504,0.87142 0.28896,1.30798 0.10655,0.4537 0.112,0.90309 -0.0167,1.35006 -0.15234,0.41553 -0.45137,0.67318 -0.8503,0.83909 -0.31087,0.096 -0.63645,0.12627 -0.9588,0.15781 -0.32809,0.0211 -0.65412,0.0567 -0.97462,0.13089 -0.30115,0.0771 -0.5846,0.19133 -0.84441,0.36158 -0.21676,0.14939 -0.38307,0.3494 -0.52518,0.56809 -0.0959,0.16819 -0.17384,0.3508 -0.1829,0.54612 0.002,0.13837 0.057,0.25826 0.13485,0.36918 0.0948,0.12585 0.22839,0.2054 0.37419,0.25971 0.23477,0.0825 0.48568,0.0631 0.72907,0.0411 0.35618,-0.0437 0.69297,-0.1697 1.0177,-0.31697 0.3833,-0.18757 0.7469,-0.41448 1.09093,-0.66644 0.24015,-0.17565 0.12433,-0.088 0.34786,-0.26237 2.23776,-1.7403 3.05814,-0.6854 0.82038,1.0549 v 0 c -0.25605,0.19864 -0.12856,0.10268 -0.3822,0.2882 -0.42062,0.3043 -0.86185,0.58238 -1.33135,0.8056 -0.46444,0.20564 -0.94561,0.37755 -1.45451,0.42899 -0.4641,0.0354 -0.93191,0.0349 -1.36976,-0.14709 -0.38959,-0.17744 -0.73901,-0.41229 -0.97625,-0.77855 -0.22417,-0.37422 -0.36434,-0.77527 -0.32967,-1.21855 0.0516,-0.40811 0.17419,-0.79545 0.39891,-1.14386 0.2502,-0.37108 0.54367,-0.7076 0.92091,-0.95579 0.39372,-0.24598 0.81461,-0.42936 1.26763,-0.53752 0.37526,-0.083 0.75495,-0.13491 1.13883,-0.15729 0.21057,-0.0204 0.4215,-0.0413 0.6292,-0.0827 -0.005,0.036 -0.003,0.0476 0.0378,0.005 0.11454,-0.18361 -0.006,-0.46702 -0.018,-0.65865 -0.0932,-0.43389 -0.19891,-0.86494 -0.2872,-1.29989 -0.0883,-0.39902 -0.17142,-0.79975 -0.22757,-1.20474 -0.0428,-0.29926 -0.0778,-0.59959 -0.0986,-0.90124 0,-2.83483 1.33634,-2.83483 1.33634,0 z"
       inkscape:connector-curvature="0" />
    <path
       style="opacity:1;fill:#000000;fill-opacity:1;fill-rule:nonzero;stroke:none;stroke-width:0.39700001;stroke-linecap:round;stroke-linejoin:round;stroke-miterlimit:4;stroke-dasharray:none;stroke-dashoffset:0;stroke-opacity:1;paint-order:markers fill stroke"
       id="path5403"
       d="m 121.28102,113.44661 c 0.23317,0.21814 0.4587,0.44475 0.67724,0.67752 0.28347,0.31524 0.56929,0.62775 0.86816,0.92845 0.33317,0.35798 0.68212,0.70038 1.03108,1.04281 0.17062,0.17361 0.35086,0.33723 0.53079,0.50102 2.09569,1.90901 1.19577,2.89692 -0.89992,0.98792 v 0 c -0.19205,-0.17505 -0.38431,-0.35003 -0.56685,-0.53512 -0.35301,-0.34641 -0.70619,-0.69269 -1.04319,-1.05485 -0.30805,-0.31027 -0.60393,-0.63154 -0.89578,-0.95709 -0.18022,-0.19334 -0.36927,-0.37806 -0.55703,-0.56405 -2.17777,-1.81481 -1.32227,-2.84142 0.8555,-1.02661 z"
       inkscape:connector-curvature="0" />
    <path
       style="opacity:1;fill:#000000;fill-opacity:1;fill-rule:nonzero;stroke:none;stroke-width:0.39700001;stroke-linecap:round;stroke-linejoin:round;stroke-miterlimit:4;stroke-dasharray:none;stroke-dashoffset:0;stroke-opacity:1;paint-order:markers fill stroke"
       id="path5405"
       d="m 125.2478,112.02696 c -0.18008,0.1701 -0.30961,0.38362 -0.44704,0.58751 -0.24539,0.39689 -0.46143,0.81057 -0.68053,1.22224 -0.27195,0.53446 -0.5467,1.0675 -0.81664,1.60298 -0.28352,0.55479 -0.57777,1.10415 -0.8899,1.64339 -1.42147,2.45268 -2.57767,1.7826 -1.1562,-0.67008 v 0 c 0.29973,-0.51644 0.58058,-1.04357 0.85284,-1.57494 0.27445,-0.54423 0.55346,-1.08615 0.83023,-1.62919 0.24084,-0.45253 0.4786,-0.90733 0.7521,-1.34134 0.18542,-0.27506 0.3676,-0.55608 0.6102,-0.78551 2.00452,-2.00452 2.94946,-1.05958 0.94494,0.94494 z"
       inkscape:connector-curvature="0" />
    <path
       style="opacity:1;fill:#000000;fill-opacity:1;fill-rule:nonzero;stroke:none;stroke-width:0.39700001;stroke-linecap:round;stroke-linejoin:round;stroke-miterlimit:4;stroke-dasharray:none;stroke-dashoffset:0;stroke-opacity:1;paint-order:markers fill stroke"
       id="path5407"
       d="m 43.971262,187.56303 c 0.295098,-0.0663 0.590611,-0.13077 0.886066,-0.19585 0.395788,-0.0867 0.796436,-0.14762 1.197703,-0.2022 0.45422,-0.0454 0.911111,-0.0542 1.367149,-0.0661 2.833855,-0.074 2.868737,1.2619 0.03488,1.33589 v 0 c -0.407619,0.0106 -0.815824,0.0188 -1.222203,0.0544 -0.36523,0.0495 -0.729959,0.10443 -1.090234,0.18311 -0.268674,0.0591 -0.536784,0.12036 -0.806238,0.17568 -2.725748,0.77878 -3.092871,-0.50615 -0.367123,-1.28493 z"
       inkscape:connector-curvature="0" />
    <path
       style="opacity:1;fill:#000000;fill-opacity:1;fill-rule:nonzero;stroke:none;stroke-width:0.39700001;stroke-linecap:round;stroke-linejoin:round;stroke-miterlimit:4;stroke-dasharray:none;stroke-dashoffset:0;stroke-opacity:1;paint-order:markers fill stroke"
       id="path5409"
       d="m 56.453285,186.78163 c 0.274873,-0.10543 0.555421,-0.1967 0.836152,-0.28541 0.252161,-0.0792 0.509548,-0.13874 0.767768,-0.19403 2.772754,-0.58996 3.050863,0.71713 0.278109,1.30708 v 0 c -0.216635,0.0457 -0.432459,0.0956 -0.64403,0.16145 -0.238668,0.0751 -0.476486,0.15381 -0.711586,0.2392 -2.605612,1.11669 -3.132027,-0.1116 -0.526413,-1.22829 z"
       inkscape:connector-curvature="0" />
    <path
       style="opacity:1;fill:#000000;fill-opacity:1;fill-rule:nonzero;stroke:none;stroke-width:0.39700001;stroke-linecap:round;stroke-linejoin:round;stroke-miterlimit:4;stroke-dasharray:none;stroke-dashoffset:0;stroke-opacity:1;paint-order:markers fill stroke"
       id="path5411"
       d="m 69.21392,186.80773 c 0.277857,-0.14602 0.569338,-0.26572 0.861213,-0.38067 0.39806,-0.15602 0.814718,-0.25346 1.231747,-0.34272 0.498686,-0.0854 1.004302,-0.11949 1.508527,-0.15378 2.828306,-0.19211 2.918865,1.14117 0.09056,1.33328 v 0 c -0.441018,0.0299 -0.882946,0.0597 -1.320109,0.1274 -0.345755,0.0736 -0.691975,0.15151 -1.022395,0.27975 -0.232122,0.0908 -0.463098,0.18653 -0.686528,0.29701 -2.461315,1.40647 -3.124329,0.2462 -0.663015,-1.16027 z"
       inkscape:connector-curvature="0" />
    <path
       style="opacity:1;fill:#000000;fill-opacity:1;fill-rule:nonzero;stroke:none;stroke-width:0.39700001;stroke-linecap:round;stroke-linejoin:round;stroke-miterlimit:4;stroke-dasharray:none;stroke-dashoffset:0;stroke-opacity:1;paint-order:markers fill stroke"
       id="path5413"
       d="m 84.245251,185.68225 c 0.271486,0 0.542969,0 0.814456,0 0.463521,0 0.927039,0 1.39056,0 0.28697,0 0.573942,0 0.860912,0 2.834822,0 2.834822,1.33634 0,1.33634 v 0 c -0.28697,0 -0.573942,0 -0.860912,0 -0.463521,0 -0.927039,0 -1.39056,0 -0.271487,0 -0.54297,0 -0.814456,0 -2.83482,0 -2.83482,-1.33634 0,-1.33634 z"
       inkscape:connector-curvature="0" />
    <path
       style="opacity:1;fill:#000000;fill-opacity:1;fill-rule:nonzero;stroke:none;stroke-width:0.39700001;stroke-linecap:round;stroke-linejoin:round;stroke-miterlimit:4;stroke-dasharray:none;stroke-dashoffset:0;stroke-opacity:1;paint-order:markers fill stroke"
       id="path5415"
       d="m 102.59236,184.87925 c 0.27806,-0.0341 0.55661,-0.06 0.83435,-0.097 0.43341,-0.0602 0.86907,-0.10135 1.3049,-0.13905 0.31687,-0.0254 0.15805,-0.0131 0.47647,-0.0368 2.82702,-0.21005 2.92604,1.12263 0.099,1.33268 v 0 c -0.30795,0.0229 -0.15448,0.011 -0.4604,0.0355 -0.41542,0.0359 -0.83068,0.0748 -1.24377,0.13234 -0.27349,0.0364 -0.54761,0.0633 -0.82158,0.0952 -2.806327,0.40091 -2.995314,-0.92201 -0.18898,-1.32291 z"
       inkscape:connector-curvature="0" />
    <path
       style="opacity:1;fill:#000000;fill-opacity:1;fill-rule:nonzero;stroke:none;stroke-width:0.39700001;stroke-linecap:round;stroke-linejoin:round;stroke-miterlimit:4;stroke-dasharray:none;stroke-dashoffset:0;stroke-opacity:1;paint-order:markers fill stroke"
       id="path5417"
       d="m 117.02491,184.34471 c 0.27118,-0.0374 0.54405,-0.0601 0.81688,-0.0813 0.383,-0.0188 0.76356,-0.066 1.14492,-0.10415 0.40281,-0.0407 0.80662,-0.0697 1.21051,-0.0969 2.82841,-0.19066 2.91828,1.14266 0.0899,1.33332 v 0 c -0.38952,0.0263 -0.77898,0.0541 -1.16746,0.0933 -0.39133,0.0391 -0.78191,0.0871 -1.17489,0.10681 -0.24407,0.0188 -0.4882,0.0388 -0.73085,0.0718 -2.80633,0.40091 -2.99532,-0.92201 -0.18899,-1.32291 z"
       inkscape:connector-curvature="0" />
    <path
       style="opacity:1;fill:#000000;fill-opacity:1;fill-rule:nonzero;stroke:none;stroke-width:0.39700001;stroke-linecap:round;stroke-linejoin:round;stroke-miterlimit:4;stroke-dasharray:none;stroke-dashoffset:0;stroke-opacity:1;paint-order:markers fill stroke"
       id="path5419"
       d="m 133.86289,183.27563 c 0.27118,-0.0374 0.54405,-0.0601 0.81689,-0.0813 0.30197,-0.0226 0.60441,-0.0379 0.90687,-0.0522 2.83166,-0.13382 2.89475,1.20104 0.0631,1.33486 v 0 c -0.28916,0.0137 -0.5783,0.0282 -0.86701,0.0497 -0.24407,0.0188 -0.4882,0.0389 -0.73085,0.0718 -2.80633,0.40091 -2.99532,-0.92201 -0.18899,-1.32291 z"
       inkscape:connector-curvature="0" />
    <path
       style="opacity:1;fill:#000000;fill-opacity:1;fill-rule:nonzero;stroke:none;stroke-width:0.39700001;stroke-linecap:round;stroke-linejoin:round;stroke-miterlimit:4;stroke-dasharray:none;stroke-dashoffset:0;stroke-opacity:1;paint-order:markers fill stroke"
       id="path5421"
       d="m 147.58813,182.74228 c 0.2396,-0.007 0.47865,-0.0369 0.71764,-0.0571 0.35853,-0.0332 0.71885,-0.0414 1.07729,-0.0745 0.0632,-0.007 0.12642,-0.0131 0.18964,-0.0197 2.81975,-0.29186 2.95734,1.03739 0.13758,1.32925 v 0 c -0.0692,0.007 -0.13838,0.0143 -0.20758,0.0214 -0.36101,0.0317 -0.72336,0.0439 -1.08447,0.0752 -0.27638,0.0233 -0.55264,0.0584 -0.8301,0.0619 -2.83482,0 -2.83482,-1.33635 0,-1.33635 z"
       inkscape:connector-curvature="0" />
    <path
       style="opacity:1;fill:#000000;fill-opacity:1;fill-rule:nonzero;stroke:none;stroke-width:0.39700001;stroke-linecap:round;stroke-linejoin:round;stroke-miterlimit:4;stroke-dasharray:none;stroke-dashoffset:0;stroke-opacity:1;paint-order:markers fill stroke"
       id="path5423"
       d="m 160.1498,182.20774 c 0.25795,0 0.51591,0 0.77387,0 0.32077,-0.0196 0.64094,-0.048 0.96151,-0.0706 2.82778,-0.19975 2.92194,1.13328 0.0942,1.33303 v 0 c -0.35188,0.0248 -0.70324,0.0584 -1.05568,0.0739 -0.25796,0 -0.51592,0 -0.77387,0 -2.83483,0 -2.83483,-1.33635 0,-1.33635 z"
       inkscape:connector-curvature="0" />
    <path
       style="opacity:1;fill:#000000;fill-opacity:1;fill-rule:nonzero;stroke:none;stroke-width:0.39700001;stroke-linecap:round;stroke-linejoin:round;stroke-miterlimit:4;stroke-dasharray:none;stroke-dashoffset:0;stroke-opacity:1;paint-order:markers fill stroke"
       id="path5425"
       d="m 175.9187,182.47501 c 0.24037,0.01 0.47905,-0.0104 0.71829,-0.0304 2.82499,-0.23582 2.93616,1.0959 0.11116,1.33171 v 0 c -0.2761,0.023 -0.55213,0.0439 -0.82945,0.035 -2.83482,0 -2.83482,-1.33635 0,-1.33635 z"
       inkscape:connector-curvature="0" />
    <path
       style="opacity:1;fill:#000000;fill-opacity:1;fill-rule:nonzero;stroke:none;stroke-width:0.39700001;stroke-linecap:round;stroke-linejoin:round;stroke-miterlimit:4;stroke-dasharray:none;stroke-dashoffset:0;stroke-opacity:1;paint-order:markers fill stroke"
       id="path5427"
       d="m 188.38587,182.20655 c 0.28806,-0.02 0.57742,-0.0121 0.86601,-0.011 0.45225,-0.007 0.90353,0.026 1.35477,0.051 0.27905,0.0153 0.55826,0.0273 0.83746,0.0394 2.83217,0.12262 2.77437,1.45772 -0.0578,1.33509 v 0 c -0.28458,-0.0123 -0.56916,-0.0245 -0.85358,-0.0401 -0.42832,-0.0237 -0.85663,-0.0562 -1.28592,-0.049 -0.2239,-8e-4 -0.44831,-2e-4 -0.67195,-0.002 -2.80633,0.4009 -2.99532,-0.92202 -0.18899,-1.32292 z"
       inkscape:connector-curvature="0" />
    <path
       style="opacity:1;fill:#000000;fill-opacity:1;fill-rule:nonzero;stroke:none;stroke-width:0.39700001;stroke-linecap:round;stroke-linejoin:round;stroke-miterlimit:4;stroke-dasharray:none;stroke-dashoffset:0;stroke-opacity:1;paint-order:markers fill stroke"
       id="path5429"
       d="m 208.88734,181.68783 c 0.25205,0.0349 0.50591,0.0535 0.75959,0.0715 0.39034,0.0254 0.78228,0.007 1.17301,-0.002 0.31218,-0.007 0.15528,-0.003 0.4707,-0.01 2.83424,-0.0577 2.86142,1.27841 0.0272,1.33607 v 0 c -0.31388,0.006 -0.15766,0.003 -0.46868,0.01 -0.43218,0.009 -0.86558,0.0286 -1.29729,-0.001 -0.28509,-0.0204 -0.57032,-0.0419 -0.8535,-0.0816 -2.80633,-0.4009 -2.61735,-1.72382 0.18898,-1.32291 z"
       inkscape:connector-curvature="0" />
    <path
       style="opacity:1;fill:#000000;fill-opacity:1;fill-rule:nonzero;stroke:none;stroke-width:0.39700001;stroke-linecap:round;stroke-linejoin:round;stroke-miterlimit:4;stroke-dasharray:none;stroke-dashoffset:0;stroke-opacity:1;paint-order:markers fill stroke"
       id="path5431"
       d="m 181.3839,213.373 c 0.0516,-0.17871 0.0728,-0.36486 0.0734,-0.55052 0.003,-0.20093 -0.0294,-0.39852 -0.10578,-0.58428 -0.0883,-0.19589 -0.20463,-0.36774 -0.35624,-0.51899 -0.0939,-0.0862 -0.19547,-0.1661 -0.32762,-0.15875 -0.12005,0.0118 -0.22508,0.0827 -0.31428,0.16153 -0.24387,0.19556 -0.37932,0.48127 -0.52222,0.75178 -0.23661,0.46567 -0.38116,0.96858 -0.5129,1.47171 -0.16909,0.6759 -0.2776,1.36458 -0.37668,2.05356 -0.0973,0.79797 -0.1426,1.60053 -0.1662,2.40362 -0.0312,0.86071 -0.0103,1.72174 0.007,2.58244 0.006,0.81148 0.0521,1.62162 0.0942,2.43178 0.0229,0.7571 0.0376,1.51492 0.0256,2.27233 0.005,0.66335 -0.0841,1.31681 -0.25733,1.95574 -0.1311,0.48248 -0.35729,0.92448 -0.64529,1.3303 -0.26815,0.35072 -0.61823,0.5711 -1.03975,0.68535 -0.0735,0.008 -0.14696,0.0162 -0.22044,0.0242 -2.82765,0.2015 -2.92264,-1.13146 -0.095,-1.33297 v 0 c 0.003,0.003 0.007,0.005 0.01,0.008 0.1061,0.007 0.18981,-0.0978 0.26063,-0.16485 0.20109,-0.27326 0.35079,-0.57687 0.44171,-0.90475 0.14881,-0.52915 0.21261,-1.07274 0.20954,-1.62285 0.0124,-0.72693 -0.003,-1.45429 -0.0239,-2.18095 -0.0429,-0.82416 -0.089,-1.64831 -0.0958,-2.47378 -0.0181,-0.88299 -0.0389,-1.76632 -0.007,-2.64931 0.0254,-0.85357 0.074,-1.70665 0.17926,-2.55458 0.10655,-0.73923 0.22413,-1.47797 0.40695,-2.20286 0.15883,-0.6022 0.3374,-1.20232 0.62465,-1.75792 0.2366,-0.44495 0.48996,-0.88617 0.90101,-1.19484 0.38301,-0.27351 0.79932,-0.46353 1.28255,-0.41848 0.43421,0.0678 0.8141,0.23739 1.12397,0.55787 0.27148,0.28767 0.49463,0.60748 0.64452,0.9759 0.12594,0.3489 0.20152,0.70965 0.19082,1.08281 -0.009,0.29999 -0.0381,0.6002 -0.12454,0.88903 -0.77879,2.72575 -2.06372,2.35863 -1.28493,-0.36712 z"
       inkscape:connector-curvature="0" />
    <path
       style="opacity:1;fill:#000000;fill-opacity:1;fill-rule:nonzero;stroke:none;stroke-width:0.39700001;stroke-linecap:round;stroke-linejoin:round;stroke-miterlimit:4;stroke-dasharray:none;stroke-dashoffset:0;stroke-opacity:1;paint-order:markers fill stroke"
       id="path5433"
       d="m 172.08243,220.42609 c 0.35845,-0.0452 0.71959,-0.0639 1.08019,-0.0824 0.62438,-0.0309 1.24766,-0.0812 1.87173,-0.11846 0.77855,-0.0456 1.55697,-0.10091 2.33357,-0.17288 0.61095,-0.0569 1.22073,-0.12211 1.82918,-0.20125 2.81117,-0.36546 2.98345,0.95974 0.17228,1.32519 v 0 c -0.62486,0.0812 -1.25108,0.14836 -1.87851,0.20674 -0.79105,0.0729 -1.58385,0.12997 -2.37688,0.17617 -0.62785,0.0375 -1.25488,0.0881 -1.88304,0.11909 -0.32026,0.0163 -0.64097,0.0325 -0.95953,0.0707 -2.80633,0.4009 -2.99532,-0.92201 -0.18899,-1.32292 z"
       inkscape:connector-curvature="0" />
    <path
       style="opacity:1;fill:#000000;fill-opacity:1;fill-rule:nonzero;stroke:none;stroke-width:0.39700001;stroke-linecap:round;stroke-linejoin:round;stroke-miterlimit:4;stroke-dasharray:none;stroke-dashoffset:0;stroke-opacity:1;paint-order:markers fill stroke"
       id="path5467"
       d="m 78.897553,232.79939 c 0.146344,0.19353 0.294201,0.38597 0.447371,0.57433 0.247978,0.32747 0.509307,0.64441 0.762971,0.96739 0.289279,0.36196 0.576077,0.72656 0.879515,1.07689 0.309734,0.37461 0.636516,0.73446 0.978495,1.0798 0.359733,0.3566 0.73647,0.69543 1.112602,1.03454 0.380939,0.34138 0.774695,0.66754 1.166259,0.99648 0.393851,0.3225 0.789229,0.64308 1.18767,0.95988 0.405918,0.32288 0.822492,0.63215 1.240478,0.93916 0.442581,0.33488 0.902083,0.64623 1.356294,0.96487 0.46619,0.32543 0.943477,0.63417 1.421823,0.94126 0.489325,0.32068 0.983287,0.63432 1.482979,0.9386 0.504687,0.31557 1.025321,0.60443 1.548397,0.88809 0.55704,0.29692 1.119915,0.58292 1.688661,0.85674 0.590232,0.2945 1.19798,0.55223 1.809996,0.79756 0.638881,0.26561 1.295754,0.48335 1.952429,0.69983 0.68934,0.21491 1.38321,0.41491 2.082167,0.59609 0.72669,0.18279 1.46368,0.31974 2.19842,0.46533 0.76212,0.15404 1.53089,0.27081 2.30077,0.37794 0.78701,0.10765 1.57735,0.18753 2.36827,0.2598 0.80412,0.0729 1.60973,0.12701 2.41558,0.17629 0.82078,0.0493 1.64224,0.086 2.46381,0.11928 0.81524,0.0357 1.63168,0.0247 2.44746,0.0209 0.8098,-0.017 1.61894,-0.0513 2.42723,-0.1028 0.80188,-0.0479 1.60272,-0.11336 2.40135,-0.20001 0.78902,-0.0814 1.57404,-0.19512 2.36061,-0.29644 0.75963,-0.0988 1.51293,-0.2366 2.26492,-0.38104 0.73709,-0.13653 1.46986,-0.29601 2.19821,-0.47315 0.72189,-0.1725 1.43526,-0.37764 2.15243,-0.56819 0.72349,-0.19555 1.44327,-0.40417 2.16389,-0.60991 0.73095,-0.2123 1.45678,-0.44136 2.18354,-0.66739 0.73042,-0.22232 1.46091,-0.44457 2.18878,-0.67511 0.729,-0.22971 1.45611,-0.46543 2.18075,-0.70853 0.69606,-0.23053 1.3872,-0.47586 2.07374,-0.7333 0.64652,-0.24417 1.2914,-0.49269 1.93728,-0.73859 0.60857,-0.23444 1.21141,-0.48308 1.81442,-0.73131 0.58433,-0.24388 1.16379,-0.49901 1.74401,-0.7524 0.56672,-0.24703 1.12597,-0.51013 1.68145,-0.78136 0.55742,-0.27035 1.11473,-0.541 1.66974,-0.81626 0.53093,-0.25889 1.05472,-0.53242 1.57785,-0.80671 0.52485,-0.26665 1.04491,-0.54225 1.56435,-0.81921 0.49348,-0.26399 0.97164,-0.55289 1.44407,-0.85238 0.44759,-0.29637 0.89477,-0.59317 1.32343,-0.91654 0.42415,-0.31555 0.83473,-0.64872 1.24896,-0.97706 0.42649,-0.34666 0.85465,-0.69112 1.28346,-1.03489 0.45272,-0.3701 0.90653,-0.73894 1.35152,-1.11831 0.41822,-0.36138 0.82967,-0.7307 1.20811,-1.13389 0.0536,-0.0618 0.10725,-0.12356 0.16088,-0.18534 1.86258,-2.13705 2.87,-1.25901 1.00741,0.87804 v 0 c -0.0652,0.0745 -0.13032,0.14901 -0.19548,0.22352 -0.41319,0.43747 -0.85772,0.84266 -1.31406,1.23471 -0.45529,0.38796 -0.91929,0.76553 -1.38252,1.14394 -0.43074,0.3453 -0.86076,0.69135 -1.28921,1.03947 -0.42297,0.33527 -0.84236,0.67529 -1.27544,0.99753 -0.45789,0.34395 -0.9333,0.66268 -1.41157,0.97749 -0.50071,0.31741 -1.00795,0.62299 -1.53085,0.90292 -0.52219,0.27839 -1.04494,0.55553 -1.57257,0.82355 -0.53206,0.27889 -1.06475,0.55705 -1.60468,0.8204 -0.55754,0.27642 -1.11728,0.54842 -1.67721,0.81994 -0.57251,0.27937 -1.14882,0.55054 -1.73285,0.80511 -0.5889,0.25715 -1.17702,0.51606 -1.77011,0.76347 -0.61404,0.25276 -1.22794,0.50584 -1.84766,0.74448 -0.64804,0.2467 -1.29506,0.49605 -1.94374,0.74103 -0.70122,0.26269 -1.40692,0.51358 -2.11781,0.74894 -0.73183,0.24538 -1.46606,0.48364 -2.20227,0.71555 -0.7301,0.2311 -1.46271,0.45429 -2.19535,0.67717 -0.73674,0.22908 -1.47252,0.46129 -2.21355,0.67634 -0.72851,0.20794 -1.45617,0.41885 -2.1876,0.61644 -0.72638,0.19293 -1.44888,0.40073 -2.18008,0.57522 -0.74946,0.18187 -1.50321,0.34657 -2.2616,0.48693 -0.77897,0.14962 -1.55941,0.29177 -2.3463,0.39408 -0.79554,0.10243 -1.58952,0.21743 -2.38755,0.29963 -0.81827,0.0883 -1.63866,0.15622 -2.46025,0.20507 -0.83447,0.053 -1.66984,0.0886 -2.50587,0.10549 -0.83588,0.004 -1.67243,0.0147 -2.50775,-0.022 -0.83075,-0.0336 -1.66137,-0.0708 -2.49132,-0.12067 -0.81921,-0.0501 -1.63818,-0.10522 -2.45563,-0.17935 -0.81184,-0.0742 -1.62307,-0.15638 -2.43088,-0.26701 -0.79515,-0.11074 -1.58913,-0.23162 -2.37628,-0.39067 -0.76014,-0.15064 -1.52254,-0.29268 -2.274156,-0.48264 -0.726806,-0.18862 -1.448486,-0.3963 -2.165133,-0.6205 -0.683295,-0.22534 -1.366581,-0.45258 -2.031487,-0.72868 -0.639768,-0.2568 -1.275167,-0.52623 -1.892403,-0.83389 -0.587979,-0.28334 -1.170133,-0.57877 -1.745967,-0.88606 -0.542605,-0.29447 -1.082728,-0.59421 -1.606431,-0.92148 -0.508529,-0.30994 -1.011629,-0.62876 -1.50967,-0.9553 -0.493737,-0.31698 -0.986224,-0.6359 -1.467377,-0.97185 -0.4621,-0.32424 -0.929537,-0.64112 -1.379876,-0.98179 -0.431773,-0.31715 -0.861944,-0.63681 -1.281255,-0.97034 -0.407726,-0.32442 -0.812663,-0.6523 -1.21557,-0.9827 -0.403278,-0.33907 -0.808916,-0.67517 -1.201309,-1.02699 -0.395184,-0.35628 -0.790715,-0.71261 -1.16826,-1.0877 -0.362228,-0.36715 -0.710562,-0.74764 -1.039111,-1.14538 -0.316492,-0.36693 -0.617879,-0.74677 -0.919742,-1.12573 -0.248687,-0.31724 -0.506002,-0.6277 -0.748781,-0.94962 -0.179523,-0.22109 -0.353169,-0.44652 -0.522145,-0.67577 -1.572477,-2.35871 -0.460568,-3.09999 1.111906,-0.74127 z"
       inkscape:connector-curvature="0" />
    <path
       style="opacity:1;fill:#000000;fill-opacity:1;fill-rule:nonzero;stroke:none;stroke-width:0.39700001;stroke-linecap:round;stroke-linejoin:round;stroke-miterlimit:4;stroke-dasharray:none;stroke-dashoffset:0;stroke-opacity:1;paint-order:markers fill stroke"
       id="path5469"
       d="m 77.092634,233.00516 c -0.04034,0.26293 -0.09552,0.52332 -0.137882,0.78605 -0.05362,0.34352 -0.08861,0.68951 -0.120496,1.0356 -0.0267,0.41465 -0.07002,0.82718 -0.120846,1.23947 -0.04186,0.31429 -0.07962,0.62799 -0.09523,0.94467 0.121624,0.65932 -1.118917,0.99155 -1.392356,0.23565 -0.06962,-0.25916 -0.111385,-0.52442 -0.169519,-0.78603 -0.07561,-0.33239 -0.136271,-0.66769 -0.208732,-1.00075 -0.07273,-0.38481 -0.171387,-0.76375 -0.257194,-1.14571 -0.114535,-0.44672 -0.160713,-0.89799 -0.125277,-1.35714 0.0517,-0.4856 0.279662,-0.87451 0.627403,-1.20516 0.337331,-0.28094 0.74988,-0.41141 1.172311,-0.49804 0.424884,-0.0774 0.859274,-0.0766 1.289746,-0.0852 0.485055,-0.0109 0.969915,0.0208 1.45429,0.0429 0.490694,0.0226 0.981599,0.0401 1.472554,0.0558 2.83337,0.0907 2.790611,1.42636 -0.04276,1.33566 v 0 c -0.497004,-0.0159 -0.993955,-0.0336 -1.490691,-0.0565 -0.455243,-0.0208 -0.910961,-0.0514 -1.366825,-0.0418 -0.351485,0.007 -0.70662,0.003 -1.054377,0.0596 -0.188114,0.0361 -0.381508,0.0774 -0.543926,0.18418 -0.115948,0.0722 -0.164523,0.19543 -0.186626,0.3269 -0.03625,0.32044 0.02506,0.63431 0.09809,0.94621 0.08627,0.38483 0.185772,0.76661 0.259085,1.15427 0.07235,0.33263 0.133255,0.66741 0.208442,0.99942 0.04751,0.21993 0.08784,0.44167 0.135869,0.66133 -1.281245,0.35631 -1.244627,0.74016 -1.214213,0.10809 0.01749,-0.34913 0.05706,-0.69543 0.103627,-1.04184 0.04917,-0.39876 0.09084,-0.79764 0.116456,-1.19873 0.03477,-0.37639 0.07325,-0.75263 0.131985,-1.12617 0.04128,-0.25459 0.09383,-0.50717 0.134173,-0.76168 0.400904,-2.80634 1.723821,-2.61735 1.322916,0.18898 z"
       inkscape:connector-curvature="0" />
    <path
       style="opacity:1;fill:#000000;fill-opacity:1;fill-rule:nonzero;stroke:none;stroke-width:0.39700001;stroke-linecap:round;stroke-linejoin:round;stroke-miterlimit:4;stroke-dasharray:none;stroke-dashoffset:0;stroke-opacity:1;paint-order:markers fill stroke"
       id="path5475"
       d="m 64.798236,210.55452 c -0.02252,0.27972 -0.01545,0.56303 -0.003,0.84336 0.01926,0.54378 0.08064,1.08421 0.145714,1.62398 0.08298,0.68863 0.183441,1.37503 0.28819,2.06064 0.106828,0.71065 0.236566,1.41755 0.350549,2.12708 0.105444,0.65097 0.192976,1.30431 0.254698,1.96083 0.264859,2.82243 -1.065643,2.94728 -1.330502,0.12486 v 0 c -0.05876,-0.62742 -0.142994,-1.25166 -0.243634,-1.87377 -0.114474,-0.7129 -0.245012,-1.42312 -0.352128,-2.13717 -0.106879,-0.69955 -0.209222,-1.39994 -0.293921,-2.10257 -0.0692,-0.57434 -0.133389,-1.14951 -0.154148,-1.72807 -0.01439,-0.36199 -0.02421,-0.72753 0.01527,-1.08816 0.400905,-2.80633 1.723821,-2.61734 1.322917,0.18899 z"
       inkscape:connector-curvature="0" />
    <path
       style="opacity:1;fill:#000000;fill-opacity:1;fill-rule:nonzero;stroke:none;stroke-width:0.39700001;stroke-linecap:round;stroke-linejoin:round;stroke-miterlimit:4;stroke-dasharray:none;stroke-dashoffset:0;stroke-opacity:1;paint-order:markers fill stroke"
       id="path5477"
       d="m 62.689326,209.72029 c 0.05176,-0.31814 0.178126,-0.61016 0.328917,-0.89237 0.203486,-0.38507 0.500944,-0.69973 0.805442,-1.00542 0.373602,-0.36641 0.79365,-0.6788 1.221198,-0.97846 0.470453,-0.34065 0.983366,-0.61531 1.495388,-0.88699 0.408617,-0.21872 0.839512,-0.38149 1.287004,-0.49821 2.747317,-0.69891 3.076784,0.59619 0.32947,1.2951 v 0 c -0.34608,0.0846 -0.674843,0.21813 -0.990454,0.38376 -0.463746,0.24571 -0.929468,0.49253 -1.355275,0.80127 -0.363715,0.25401 -0.721969,0.51758 -1.041104,0.82718 -0.214122,0.21441 -0.43212,0.42715 -0.576318,0.69768 -0.07847,0.14213 -0.149961,0.28469 -0.181351,0.44545 -0.400904,2.80633 -1.723821,2.61734 -1.322917,-0.18899 z"
       inkscape:connector-curvature="0" />
    <path
       style="opacity:1;fill:#000000;fill-opacity:1;fill-rule:nonzero;stroke:none;stroke-width:0.39700001;stroke-linecap:round;stroke-linejoin:round;stroke-miterlimit:4;stroke-dasharray:none;stroke-dashoffset:0;stroke-opacity:1;paint-order:markers fill stroke"
       id="path5479"
       d="m 64.372812,215.0807 c 0.248621,-0.0278 0.488093,-0.10247 0.727943,-0.16997 0.4553,-0.13937 0.904557,-0.29977 1.35096,-0.46545 0.595317,-0.23261 1.187775,-0.47252 1.780122,-0.71258 0.415964,-0.16607 0.829553,-0.33778 1.246214,-0.50211 2.637252,-1.03976 3.127401,0.20345 0.490145,1.24321 v 0 c -0.412781,0.16269 -0.82238,0.33305 -1.234485,0.49742 -0.604763,0.24503 -1.209526,0.4902 -1.817531,0.72709 -0.480211,0.17779 -0.963226,0.35061 -1.453412,0.4988 -0.296703,0.0835 -0.593762,0.17059 -0.900967,0.20651 -2.806329,0.4009 -2.995319,-0.92202 -0.188989,-1.32292 z"
       inkscape:connector-curvature="0" />
    <path
       style="opacity:1;fill:#000000;fill-opacity:1;fill-rule:nonzero;stroke:none;stroke-width:0.39700001;stroke-linecap:round;stroke-linejoin:round;stroke-miterlimit:4;stroke-dasharray:none;stroke-dashoffset:0;stroke-opacity:1;paint-order:markers fill stroke"
       id="path5481"
       d="m 118.04102,258.27428 c 0.0228,-0.17075 0.0303,-0.34165 0.016,-0.51368 -0.0104,-0.21572 -0.0692,-0.42235 -0.17177,-0.61175 -0.0313,-0.0792 -0.14365,-0.15097 -0.15311,-0.15174 0.0517,0.0323 0.0726,0.0274 0.0296,0.0757 -0.1307,0.12755 -0.21281,0.28752 -0.28807,0.45149 -0.15858,0.36403 -0.24054,0.75465 -0.32019,1.14181 -0.088,0.57126 -0.13339,1.14866 -0.1575,1.72585 -0.0242,0.74385 -0.0262,1.48783 -0.01,2.23179 0.0234,0.85938 0.0454,1.71879 0.0644,2.57828 0.0201,0.92929 0.0346,1.85869 0.0478,2.7881 0.002,0.93103 0.0416,1.86117 0.078,2.7913 0.0351,0.87542 0.0649,1.75103 0.0927,2.62671 0.0262,0.77668 0.0501,1.55314 0.0444,2.3303 -0.004,0.66735 -0.0711,1.32779 -0.23264,1.9752 -0.1314,0.49158 -0.35907,0.9402 -0.65458,1.35147 -0.2691,0.36917 -0.61705,0.60641 -1.05043,0.73723 -0.39537,0.0885 -0.77781,0.0216 -1.15705,-0.0978 -0.35855,-0.12572 -0.68264,-0.3276 -0.98609,-0.5529 -0.3357,-0.23008 -0.60542,-0.52411 -0.83013,-0.86061 -0.14226,-0.24851 -0.075,-0.11826 -0.20017,-0.39163 -1.14525,-2.59319 0.0772,-3.13306 1.22244,-0.53988 v 0 c 0.0533,0.13151 0.0218,0.0643 0.0965,0.20064 0.13283,0.21259 0.30763,0.38314 0.51572,0.52431 0.17974,0.13912 0.37573,0.2605 0.58656,0.34652 0.13683,0.0441 0.26547,0.091 0.41195,0.0791 0.13907,-0.004 0.22445,-0.13838 0.31155,-0.23314 0.2018,-0.26854 0.34657,-0.56869 0.43855,-0.89243 0.14109,-0.54161 0.18354,-1.09728 0.19151,-1.65608 0.006,-0.75967 -0.0184,-1.51864 -0.0437,-2.27786 -0.0277,-0.87236 -0.0574,-1.74465 -0.0923,-2.61675 -0.0369,-0.94128 -0.0768,-1.88256 -0.0789,-2.82473 -0.0131,-0.9259 -0.0276,-1.85179 -0.0476,-2.77757 -0.0189,-0.85945 -0.041,-1.71883 -0.0644,-2.57818 -0.017,-0.77285 -0.0149,-1.54575 0.0106,-2.31847 0.0284,-0.6487 0.078,-1.29806 0.18393,-1.93919 0.10211,-0.49209 0.21293,-0.98648 0.42243,-1.44606 0.18658,-0.38366 0.41078,-0.74509 0.76531,-0.99662 0.37292,-0.2277 0.76957,-0.33861 1.19949,-0.19519 0.3717,0.16894 0.65502,0.42718 0.84748,0.79137 0.17208,0.35385 0.29328,0.72718 0.31101,1.12357 0.0186,0.32465 0.01,0.6505 -0.0645,0.9687 -0.77878,2.72575 -2.06371,2.35863 -1.28493,-0.36712 z"
       inkscape:connector-curvature="0" />
  </g>
</svg>
