<?xml version="1.0" encoding="UTF-8" standalone="no"?>
<!-- Created with Inkscape (http://www.inkscape.org/) -->

<svg
   xmlns:dc="http://purl.org/dc/elements/1.1/"
   xmlns:cc="http://creativecommons.org/ns#"
   xmlns:rdf="http://www.w3.org/1999/02/22-rdf-syntax-ns#"
   xmlns:svg="http://www.w3.org/2000/svg"
   xmlns="http://www.w3.org/2000/svg"
   xmlns:sodipodi="http://sodipodi.sourceforge.net/DTD/sodipodi-0.dtd"
   xmlns:inkscape="http://www.inkscape.org/namespaces/inkscape"
   width="297mm"
   height="210mm"
   viewBox="0 0 297 210"
   version="1.1"
   id="svg8"
   inkscape:version="0.92.1 r15371"
   sodipodi:docname="Length.svg">
  <defs
     id="defs2" />
  <sodipodi:namedview
     id="base"
     pagecolor="#ffffff"
     bordercolor="#666666"
     borderopacity="1.0"
     inkscape:pageopacity="0.0"
     inkscape:pageshadow="2"
     inkscape:zoom="0.98994949"
     inkscape:cx="500.81968"
     inkscape:cy="435.96859"
     inkscape:document-units="mm"
     inkscape:current-layer="layer1"
     showgrid="false"
     inkscape:window-width="1920"
     inkscape:window-height="1046"
     inkscape:window-x="-11"
     inkscape:window-y="-11"
     inkscape:window-maximized="1" />
  <metadata
     id="metadata5">
    <rdf:RDF>
      <cc:Work
         rdf:about="">
        <dc:format>image/svg+xml</dc:format>
        <dc:type
           rdf:resource="http://purl.org/dc/dcmitype/StillImage" />
        <dc:title></dc:title>
      </cc:Work>
    </rdf:RDF>
  </metadata>
  <g
     inkscape:label="Layer 1"
     inkscape:groupmode="layer"
     id="layer1"
     transform="translate(0,-87)">
    <path
       style="opacity:1;fill:#000000;fill-opacity:1;fill-rule:nonzero;stroke:none;stroke-width:0.39700001;stroke-linecap:round;stroke-linejoin:round;stroke-miterlimit:4;stroke-dasharray:none;stroke-dashoffset:0;stroke-opacity:1;paint-order:markers fill stroke"
       id="path4487"
       d="m 41.015978,191.03306 c 0.07772,0.30779 0.15059,0.6167 0.212341,0.92815 0.10926,0.47189 0.193617,0.94869 0.266618,1.42736 0.101036,0.57053 0.18918,1.14306 0.266279,1.71728 0.0703,0.60789 0.1586,1.2134 0.23948,1.81992 0.08059,0.60439 0.145304,1.21069 0.204174,1.81752 0.05585,0.58342 0.09919,1.16791 0.138681,1.75263 0.04327,0.50218 0.09959,1.00296 0.195077,1.49804 0.06087,0.38483 0.183325,0.74945 0.372539,1.08898 0.160017,0.27346 0.387252,0.49042 0.632566,0.68612 0.259492,0.20049 0.567679,0.31961 0.87259,0.43199 0.377606,0.13535 0.767938,0.22786 1.160108,0.30909 0.446606,0.0722 0.898152,0.10725 1.348859,0.14243 0.498121,0.0393 0.99872,0.0297 1.497994,0.0283 0.537205,0.007 1.073428,-0.0113 1.609789,-0.0385 0.581395,-0.0197 1.160394,-0.0758 1.739865,-0.12396 0.60057,-0.0502 1.20187,-0.0906 1.803387,-0.12742 0.59698,-0.0504 1.193327,-0.10771 1.790351,-0.15767 0.602853,-0.0669 1.206794,-0.12513 1.808834,-0.19903 0.622446,-0.074 1.242772,-0.16265 1.863051,-0.25262 0.63982,-0.0838 1.278675,-0.17346 1.917488,-0.26468 0.654352,-0.0851 1.308169,-0.17284 1.961494,-0.26558 0.657145,-0.0945 1.317003,-0.16823 1.97731,-0.2365 0.620374,-0.0613 1.241711,-0.10921 1.861244,-0.17864 0.613672,-0.0732 1.228833,-0.13219 1.844473,-0.18585 0.603261,-0.0519 1.207397,-0.0926 1.811724,-0.12965 0.572977,-0.0315 1.143741,-0.0938 1.715209,-0.14481 0.569781,-0.0545 1.141648,-0.0829 1.711693,-0.13343 0.603361,-0.0617 1.207392,-0.1156 1.812076,-0.1624 0.647136,-0.0494 1.295185,-0.0854 1.943351,-0.11799 0.669803,-0.0231 1.338376,-0.0628 2.006788,-0.11081 0.686324,-0.0498 1.373193,-0.0913 2.060324,-0.12815 0.671131,-0.0355 1.342617,-0.0636 2.014214,-0.0886 0.649259,-0.0237 1.298678,-0.0425 1.948138,-0.0597 0.613465,-0.0161 1.227013,-0.0287 1.840579,-0.0403 0.589886,-0.027 1.179137,-0.0661 1.76875,-0.0985 0.592569,-0.0296 1.185035,-0.0544 1.776624,-0.0999 0.610455,-0.0502 1.221365,-0.0941 1.832679,-0.13231 0.619239,-0.0276 1.236337,-0.0854 1.853785,-0.13799 0.648951,-0.055 1.298884,-0.0968 1.949018,-0.13477 0.653106,-0.0536 1.305732,-0.11244 1.959118,-0.16269 0.670999,-0.0515 1.342843,-0.0907 2.01487,-0.12574 0.68068,-0.035 1.36177,-0.0609 2.0429,-0.0849 0.66911,-0.0234 1.3384,-0.0409 2.00771,-0.0572 0.65891,-0.0155 1.3179,-0.0275 1.9769,-0.0386 0.62999,-0.0105 1.26002,-0.0187 1.89006,-0.026 0.62011,-0.007 1.24025,-0.0125 1.86039,-0.0175 0.59366,-0.005 1.18733,-0.008 1.78101,-0.0118 0.58542,-0.003 1.17085,-0.006 1.75627,-0.008 0.59272,-0.002 1.18545,-0.004 1.77817,-0.005 0.6021,-0.002 1.20421,-0.003 1.80632,-0.004 0.61911,-0.004 1.23768,0.0316 1.85606,0.0576 0.61523,0.0263 1.23069,0.0467 1.84621,0.065 0.61831,0.002 1.23652,-0.0149 1.85466,-0.0277 0.64027,-0.0132 1.2806,-0.0237 1.92094,-0.033 0.65014,-0.009 1.30031,-0.0163 1.95048,-0.0226 0.66179,-0.006 1.32359,-0.011 1.9854,-0.0152 0.64766,0.005 1.29447,-0.0133 1.94136,-0.0423 0.64725,-0.0313 1.29471,-0.0575 1.94227,-0.0812 0.63327,-0.0209 1.26637,-0.0365 1.89882,-0.0755 0.62628,-0.0424 1.25276,-0.0814 1.87957,-0.11511 0.62695,-0.0333 1.25425,-0.0591 1.88166,-0.0821 0.62927,-0.0266 1.25933,-0.0311 1.88836,-0.0626 0.64919,-0.0396 1.29836,-0.0791 1.94785,-0.1136 0.66938,-0.0356 1.33923,-0.0612 2.00913,-0.0849 0.69046,-0.0237 1.38109,-0.0415 2.07177,-0.0574 0.70083,-0.0133 1.40053,-0.0607 2.10042,-0.0973 0.72505,-0.0383 1.45052,-0.0674 2.17609,-0.0934 0.73446,-0.0229 1.46748,-0.0779 2.20088,-0.12205 0.74961,-0.0422 1.49949,-0.0749 2.24838,-0.12873 0.74588,-0.0607 1.49343,-0.0984 2.2393,-0.15852 0.73103,-0.0658 1.46243,-0.12703 2.1943,-0.18276 0.69889,-0.0481 1.39548,-0.12442 2.09294,-0.18944 0.6495,-0.051 1.2974,-0.11522 1.94489,-0.18696 0.61866,-0.0699 1.2385,-0.12832 1.85882,-0.18124 0.59316,-0.05 1.18715,-0.089 1.78133,-0.12459 0.5745,-0.0339 1.14941,-0.0601 1.72441,-0.0839 0.56169,-0.0229 1.12358,-0.0405 1.6855,-0.0565 0.57883,-0.0189 1.15808,0.006 1.73672,0.0216 0.58286,0.0168 1.16581,0.0296 1.74878,0.0412 0.6002,0.0119 1.20046,0.0205 1.80072,0.0285 0.60803,0.008 1.2161,0.0138 1.82416,0.0192 0.59336,0.005 1.18673,0.009 1.7801,0.013 0.57442,0.004 1.14884,0.006 1.72326,0.009 0.56143,0.002 1.12287,0.004 1.68431,0.006 0.55268,0.002 1.10536,0.003 1.65804,0.004 0.53409,0.0149 1.06742,0.0488 1.60098,0.0758 0.51818,0.0262 1.03664,0.0463 1.55516,0.0645 0.50102,0.0265 1.00176,0.0252 1.50302,0.0113 0.5157,-0.002 1.03124,0.0154 1.54672,0.0279 0.51157,0.0125 1.02319,0.0222 1.53482,0.0309 0.48846,0.016 0.97692,0.0116 1.46231,-0.0479 2.81506,-0.33413 2.97257,0.9929 0.15751,1.32704 v 0 c -0.54557,0.0632 -1.09373,0.0772 -1.64265,0.057 -0.51484,-0.009 -1.02966,-0.0186 -1.54442,-0.0311 -0.49236,-0.012 -0.98474,-0.028 -1.47728,-0.028 -0.52919,0.0146 -1.05795,0.0158 -1.58688,-0.0116 -0.52547,-0.0184 -1.05089,-0.0388 -1.57602,-0.0653 -0.51193,-0.026 -1.02364,-0.0579 -1.53599,-0.0741 -0.55311,-0.001 -1.10621,-0.002 -1.65931,-0.004 -0.56204,-0.002 -1.12408,-0.004 -1.68612,-0.006 -0.57527,-0.002 -1.15054,-0.005 -1.72581,-0.009 -0.59456,-0.004 -1.18912,-0.008 -1.78366,-0.013 -0.61004,-0.005 -1.22008,-0.0113 -1.83008,-0.0193 -0.60326,-0.008 -1.2065,-0.0167 -1.80969,-0.0286 -0.58637,-0.0118 -1.17272,-0.0246 -1.75896,-0.0415 -0.55365,-0.0153 -1.10789,-0.0394 -1.66171,-0.0216 -0.55616,0.0158 -1.11227,0.0332 -1.66819,0.0559 -0.56683,0.0235 -1.13357,0.0493 -1.6999,0.0827 -0.58293,0.0349 -1.16569,0.0731 -1.74763,0.12215 -0.60911,0.0519 -1.21775,0.10927 -1.82522,0.17794 -0.65518,0.0726 -1.3108,0.13763 -1.968,0.18932 -0.70498,0.0657 -1.40909,0.14274 -2.11552,0.19135 -0.73003,0.0556 -1.45959,0.11678 -2.1888,0.18233 -0.74967,0.06 -1.50091,0.0988 -2.25058,0.15939 -0.75406,0.0541 -1.50906,0.0876 -2.26385,0.12975 -0.74416,0.0447 -1.48794,0.10046 -2.23318,0.1236 -0.71826,0.0258 -1.43643,0.0546 -2.15417,0.0925 -0.71295,0.0373 -1.42572,0.0854 -2.13964,0.0988 -0.68514,0.0157 -1.37025,0.0334 -2.05518,0.0569 -0.662,0.0234 -1.32395,0.0487 -1.98543,0.0839 -0.6511,0.0346 -1.30187,0.0743 -1.95269,0.11385 -0.63484,0.0311 -1.27057,0.0375 -1.90565,0.0634 -0.61977,0.0226 -1.23943,0.0482 -1.85874,0.081 -0.6233,0.0335 -1.24626,0.0723 -1.86902,0.1145 -0.64354,0.0396 -1.2877,0.0563 -1.93207,0.0772 -0.64396,0.0236 -1.28784,0.0497 -1.93149,0.0808 -0.66392,0.0297 -1.32779,0.0488 -1.99249,0.0436 -0.66041,0.004 -1.32081,0.009 -1.98121,0.0152 -0.64798,0.006 -1.29596,0.0132 -1.9439,0.0225 -0.63754,0.009 -1.27506,0.0197 -1.91252,0.0328 -0.64068,0.0133 -1.28144,0.0315 -1.92231,0.0275 -0.62094,-0.0185 -1.24183,-0.0391 -1.86249,-0.0656 -0.59894,-0.0252 -1.19808,-0.0604 -1.79773,-0.0564 -0.60173,0.001 -1.20347,0.002 -1.8052,0.004 -0.59216,0.002 -1.18432,0.003 -1.77648,0.005 -0.58457,0.002 -1.16914,0.005 -1.75371,0.008 -0.5926,0.003 -1.1852,0.007 -1.77779,0.0118 -0.6186,0.005 -1.2372,0.0105 -1.85579,0.0175 -0.6277,0.007 -1.25538,0.0154 -1.88304,0.0259 -0.65561,0.011 -1.31121,0.0229 -1.96673,0.0384 -0.66445,0.0162 -1.32889,0.0336 -1.99314,0.0568 -0.67367,0.0238 -1.3473,0.0493 -2.02052,0.084 -0.66106,0.0344 -1.321924,0.073 -1.981965,0.12361 -0.661543,0.0509 -1.322268,0.11101 -1.983605,0.16436 -0.638331,0.0373 -1.276469,0.0782 -1.913644,0.13223 -0.627462,0.0534 -1.25459,0.11195 -1.883857,0.14021 -0.60493,0.0378 -1.20945,0.0813 -1.813531,0.13097 -0.601313,0.0462 -1.20347,0.0721 -1.805789,0.10186 -0.605634,0.0333 -1.210876,0.074 -1.816862,0.10027 -0.610139,0.0115 -1.220261,0.0241 -1.8303,0.04 -0.644702,0.0171 -1.289367,0.0357 -1.933868,0.0593 -0.664332,0.0247 -1.328553,0.0525 -1.992427,0.0876 -0.679079,0.0364 -1.357902,0.0774 -2.036183,0.12663 -0.677905,0.0486 -1.355997,0.0891 -2.035304,0.11256 -0.636167,0.032 -1.27222,0.0672 -1.907376,0.11569 -0.599954,0.0464 -1.199232,0.10015 -1.797878,0.16123 -0.569606,0.0499 -1.140828,0.0796 -1.710174,0.1333 -0.583769,0.0521 -1.166826,0.1156 -1.752148,0.14759 -0.592939,0.0364 -1.185693,0.0762 -1.777593,0.12711 -0.604718,0.0527 -1.208965,0.11066 -1.811742,0.18259 -0.623326,0.0698 -1.248378,0.11873 -1.87258,0.17986 -0.643464,0.0665 -1.2865,0.13821 -1.926879,0.23032 -0.652976,0.0927 -1.306436,0.18046 -1.960448,0.26543 -0.637832,0.0911 -1.275697,0.18061 -1.914539,0.26426 -0.630089,0.0914 -1.260258,0.18128 -1.892532,0.25656 -0.619028,0.0755 -1.239827,0.13648 -1.859743,0.20427 -0.606965,0.0508 -1.2132,0.10959 -1.820204,0.15983 -0.591778,0.0362 -1.183344,0.076 -1.77419,0.12531 -0.593799,0.0494 -1.187156,0.1064 -1.782908,0.12684 -0.557681,0.0283 -1.115296,0.0475 -1.673839,0.0402 -0.535241,0.002 -1.071803,0.0105 -1.605775,-0.0324 -0.506981,-0.0396 -1.015071,-0.0795 -1.516605,-0.16632 -0.457681,-0.0954 -0.912913,-0.20515 -1.353163,-0.36462 -0.440566,-0.16436 -0.87766,-0.34972 -1.248249,-0.64597 -0.378873,-0.30949 -0.724106,-0.6561 -0.965925,-1.08647 -0.248584,-0.46414 -0.428416,-0.95499 -0.511312,-1.47722 -0.10359,-0.54838 -0.170191,-1.10212 -0.215694,-1.65831 -0.03859,-0.57172 -0.08091,-1.14322 -0.135477,-1.71366 -0.05728,-0.59093 -0.120243,-1.18135 -0.198689,-1.76989 -0.08081,-0.60616 -0.169098,-1.21131 -0.239337,-1.81884 -0.07594,-0.56645 -0.163602,-1.13109 -0.262938,-1.69394 -0.06975,-0.45945 -0.151762,-0.9168 -0.256545,-1.3697 -0.05398,-0.27511 -0.119197,-0.54759 -0.186206,-0.81973 -0.778785,-2.72575 0.506146,-3.09287 1.284931,-0.36712 z"
       inkscape:connector-curvature="0" />
    <path
       style="opacity:1;fill:#000000;fill-opacity:1;fill-rule:nonzero;stroke:none;stroke-width:0.39700001;stroke-linecap:round;stroke-linejoin:round;stroke-miterlimit:4;stroke-dasharray:none;stroke-dashoffset:0;stroke-opacity:1;paint-order:markers fill stroke"
       id="path4489"
       d="m 39.080765,187.8507 c 0.264737,-0.11479 0.53644,-0.21085 0.807148,-0.31023 0.393931,-0.13989 0.799423,-0.24293 1.201386,-0.35652 0.492985,-0.13758 0.995595,-0.23426 1.500045,-0.31819 0.582064,-0.0952 1.16859,-0.15794 1.755484,-0.21406 0.677346,-0.052 1.352756,-0.12485 2.029208,-0.18691 0.79271,-0.0714 1.587119,-0.12126 2.381644,-0.16719 0.850326,-0.0477 1.701311,-0.0822 2.552372,-0.1135 0.864767,-0.0315 1.729798,-0.0548 2.594859,-0.0764 0.845018,-0.0112 1.689105,-0.0425 2.533123,-0.0835 0.820788,-0.042 1.641899,-0.077 2.463126,-0.10903 0.792006,-0.0304 1.58424,-0.054 2.376519,-0.0758 0.766506,-0.0206 1.533128,-0.0365 2.299769,-0.0512 0.753726,-0.0116 1.507199,-0.0208 2.260343,-0.0535 0.762603,-0.0337 1.525043,-0.0657 2.286606,-0.11822 0.764111,-0.0561 1.528723,-0.10471 2.293641,-0.14821 0.744358,-0.0389 1.486837,-0.10672 2.230054,-0.16253 0.752025,-0.0555 1.504831,-0.0993 2.257877,-0.1381 0.739683,-0.0377 1.479749,-0.0669 2.219894,-0.0936 0.713401,-0.0212 1.425221,-0.077 2.137429,-0.12148 0.693925,-0.0428 1.388263,-0.0784 2.082786,-0.10997 0.663687,-0.0438 1.326526,-0.0993 1.990035,-0.14574 0.654986,-0.0356 1.308483,-0.0873 1.961822,-0.14503 0.664027,-0.0605 1.329034,-0.10907 1.9944,-0.15206 0.68467,-0.0598 1.369134,-0.12143 2.054286,-0.17557 0.71533,-0.0444 1.428371,-0.11661 2.142249,-0.17902 0.759264,-0.0663 1.519764,-0.11689 2.280526,-0.16234 0.76836,-0.0341 1.53475,-0.0983 2.301613,-0.15533 0.79335,-0.0598 1.587706,-0.10464 2.38221,-0.14578 0.808114,-0.0296 1.614451,-0.0902 2.421151,-0.14446 0.82304,-0.0562 1.6469,-0.099 2.4709,-0.13821 0.80036,-0.0531 1.60024,-0.1129 2.40064,-0.16552 0.78356,-0.0508 1.56777,-0.0906 2.3521,-0.12719 0.74846,-0.0345 1.49723,-0.0616 2.24607,-0.086 0.71905,-0.0231 1.43824,-0.0415 2.15746,-0.058 0.69838,-0.016 1.39683,-0.028 2.0953,-0.0391 0.67513,-0.0108 1.35031,-0.0189 2.02549,-0.0264 0.65395,-0.007 1.30791,-0.0128 1.96187,-0.0178 0.64376,-0.005 1.28753,-0.009 1.93131,-0.012 0.63282,-0.003 1.26566,-0.006 1.89849,-0.008 0.62532,-0.002 1.25063,-0.004 1.87595,-0.005 0.62354,-0.002 1.24709,-0.003 1.87063,-0.004 0.62354,-0.001 1.24709,-0.002 1.87063,-0.002 0.62093,-8e-4 1.24186,-0.001 1.86279,-0.002 0.60634,-5.3e-4 1.21267,-7.9e-4 1.81901,-0.001 0.60038,-2.6e-4 1.20076,-5.3e-4 1.80114,-7.9e-4 0.5862,-2.1e-4 1.17241,-2.7e-4 1.75862,-5.3e-4 0.59049,-1.4e-4 1.18098,-2.5e-4 1.77147,-2.7e-4 0.57365,-9e-5 1.1473,-1.6e-4 1.72095,-2.3e-4 0.56748,-6e-5 1.13495,-1.1e-4 1.70242,-1.6e-4 0.57784,-4e-5 1.15567,-7e-5 1.73351,-1e-4 0.56511,-3e-5 1.13022,-6e-5 1.69533,-7e-5 0.56104,-0.0166 1.12157,-0.0469 1.68229,-0.0717 0.57471,-0.0253 1.14963,-0.0453 1.72461,-0.0634 0.56234,-0.0175 1.1248,-0.0309 1.68728,-0.0431 0.55338,-0.0118 1.10681,-0.0208 1.66025,-0.029 0.54728,-0.008 1.09458,-0.014 1.6419,-0.0196 0.56304,-0.006 1.12611,-0.01 1.68917,-0.0132 0.58944,-0.004 1.17888,-0.006 1.76832,-0.009 0.60209,-3e-5 1.2035,-0.0373 1.8048,-0.0648 0.6314,-0.029 1.26308,-0.0514 1.89483,-0.0714 0.63344,-0.0196 1.267,-0.0347 1.90058,-0.0487 0.62829,-0.0133 1.25665,-0.0235 1.88502,-0.0328 0.60255,-0.009 1.20513,-0.0158 1.80772,-0.0221 0.5806,-0.006 1.1612,-0.0107 1.74181,-0.0149 0.55675,-0.002 1.11307,-0.003 1.66926,-0.0289 0.55541,-0.0297 1.11088,-0.0582 1.66653,-0.0832 0.54493,-0.0282 1.09086,-0.0344 1.63549,-0.0676 0.54255,-0.0401 1.08501,-0.0812 1.62786,-0.11701 0.54511,-0.0356 1.0907,-0.0628 1.63638,-0.0875 0.54191,-0.0242 1.08404,-0.0425 1.62621,-0.0591 0.53956,-0.0163 1.07923,-0.0286 1.61891,-0.0398 0.53795,-0.011 1.07595,-0.0193 1.61396,-0.0268 0.53685,-0.007 1.07372,-0.013 1.6106,-0.0181 0.5361,-0.005 1.07221,-0.009 1.60833,-0.0122 0.5356,-0.003 1.0712,-0.006 1.6068,-0.008 0.53526,-0.002 1.07051,-0.004 1.60577,-0.006 0.53502,-0.002 1.07004,-0.003 1.60506,-0.004 0.51854,8e-4 1.03665,0.003 1.55468,-0.0213 0.50932,-0.028 1.01869,-0.0548 1.52825,-0.0781 0.51978,-0.0326 1.03968,-0.0355 1.56011,-0.0247 0.50778,0.006 1.01438,0.025 1.51928,0.0802 0.52735,0.0594 1.01939,0.24463 1.48617,0.48886 0.40882,0.23455 0.76422,0.54895 1.09798,0.87887 0.31454,0.32005 0.55508,0.70021 0.79793,1.07481 0.24922,0.38409 0.43728,0.8013 0.60458,1.22606 0.15668,0.43379 0.29034,0.87588 0.42188,1.31789 0.13979,0.47233 0.24494,0.95364 0.33961,1.43672 0.0996,0.50425 0.17087,1.01245 0.21183,1.52463 0.0353,0.50845 0.0553,1.0178 0.0744,1.52707 0.005,0.52516 -0.0138,1.05021 -0.027,1.57515 -0.0131,0.51705 -0.0234,1.03417 -0.0327,1.5513 -0.0123,0.52689 -0.009,1.05412 -0.0309,1.5807 -0.0276,0.51582 -0.0614,1.03097 -0.11412,1.54484 -0.0362,0.34411 -0.0152,0.17001 -0.0636,0.52225 -0.38947,2.80794 -1.71315,2.62434 -1.32368,-0.1836 v 0 c 0.0431,-0.30748 0.0236,-0.14905 0.0579,-0.47538 0.0502,-0.48767 0.0818,-0.97657 0.10837,-1.46609 0.023,-0.51517 0.0164,-1.0312 0.0299,-1.54668 0.009,-0.52037 0.0197,-1.04072 0.0329,-1.561 0.0125,-0.49704 0.0296,-0.99414 0.0275,-1.49139 -0.0184,-0.49077 -0.0376,-0.98162 -0.0712,-1.47164 -0.0362,-0.46154 -0.10173,-0.91915 -0.19113,-1.37354 -0.0862,-0.44125 -0.18168,-0.88098 -0.30906,-1.31247 -0.12058,-0.40588 -0.24364,-0.81161 -0.385,-1.21075 -0.13346,-0.34191 -0.28249,-0.67837 -0.4822,-0.98766 -0.19083,-0.29503 -0.37638,-0.59736 -0.61874,-0.85383 -0.23857,-0.23942 -0.4937,-0.46798 -0.7821,-0.64592 -0.31492,-0.17093 -0.64904,-0.29809 -1.00723,-0.34103 -0.46494,-0.0528 -0.93187,-0.0656 -1.39952,-0.0723 -0.49074,-0.0103 -0.98086,-0.008 -1.471,0.0235 -0.50911,0.0233 -1.01803,0.0502 -1.52692,0.0781 -0.538,0.0251 -1.07607,0.0242 -1.61459,0.0228 -0.5346,10e-4 -1.0692,0.002 -1.6038,0.004 -0.53463,0.002 -1.06926,0.003 -1.60389,0.006 -0.53468,0.002 -1.06935,0.005 -1.60403,0.008 -0.53474,0.003 -1.06949,0.007 -1.60422,0.0121 -0.53485,0.005 -1.0697,0.0106 -1.60452,0.018 -0.53501,0.007 -1.07001,0.0157 -1.60497,0.0267 -0.53526,0.0111 -1.07051,0.0233 -1.60565,0.0395 -0.53567,0.0164 -1.0713,0.0345 -1.6067,0.0583 -0.53653,0.0243 -1.07296,0.051 -1.60891,0.086 -0.54549,0.036 -1.09057,0.0775 -1.63577,0.11751 -0.55132,0.0326 -1.10372,0.0412 -1.65534,0.0686 -0.555,0.025 -1.10982,0.0536 -1.6646,0.0832 -0.57363,0.0266 -1.1474,0.0289 -1.7216,0.0303 -0.57919,0.004 -1.15838,0.009 -1.73755,0.0149 -0.60063,0.006 -1.20125,0.0132 -1.80185,0.0221 -0.62519,0.009 -1.25037,0.0194 -1.8755,0.0327 -0.6293,0.0139 -1.25859,0.029 -1.88776,0.0484 -0.6255,0.0198 -1.25093,0.042 -1.87609,0.0706 -0.61976,0.0283 -1.23964,0.0664 -1.86022,0.0662 -0.58839,0.002 -1.17679,0.005 -1.76517,0.009 -0.56148,0.004 -1.12295,0.008 -1.68442,0.0132 -0.5452,0.006 -1.09039,0.0116 -1.63557,0.0195 -0.55038,0.008 -1.10075,0.0171 -1.65107,0.0289 -0.5581,0.0121 -1.11618,0.0254 -1.67415,0.0428 -0.56933,0.018 -1.13862,0.0377 -1.70769,0.0628 -0.58036,0.0257 -1.16053,0.0576 -1.74128,0.073 -0.5651,2e-5 -1.13021,4e-5 -1.69531,7e-5 -0.57783,4e-5 -1.15565,7e-5 -1.73348,1.1e-4 -0.56745,4e-5 -1.13491,9e-5 -1.70236,1.6e-4 -0.57363,6e-5 -1.14726,1.4e-4 -1.72089,2.3e-4 -0.59045,1e-4 -1.18091,2.1e-4 -1.77137,2.7e-4 -0.58615,1.4e-4 -1.1723,2.6e-4 -1.75845,5.3e-4 -0.60032,2.2e-4 -1.20063,5.3e-4 -1.80094,7.9e-4 -0.60622,2.7e-4 -1.21244,7.9e-4 -1.81867,10e-4 -0.62077,5.3e-4 -1.24155,0.001 -1.86233,0.002 -0.6233,7.9e-4 -1.24661,0.002 -1.86991,0.002 -0.62319,0.001 -1.24638,0.002 -1.86957,0.004 -0.62481,0.002 -1.24963,0.003 -1.87444,0.005 -0.6321,0.002 -1.26419,0.005 -1.89629,0.008 -0.64269,0.003 -1.28538,0.007 -1.92806,0.012 -0.65243,0.005 -1.30486,0.0105 -1.95727,0.0177 -0.67301,0.007 -1.34602,0.0155 -2.019,0.0263 -0.69536,0.0111 -1.39072,0.023 -2.086,0.0389 -0.71488,0.0164 -1.42972,0.0347 -2.14442,0.0576 -0.74263,0.0243 -1.4852,0.0511 -2.22745,0.0853 -0.77588,0.0362 -1.55162,0.0755 -2.32673,0.12577 -0.80842,0.0531 -1.61629,0.11389 -2.42471,0.16688 -0.81529,0.0388 -1.63046,0.0811 -2.44481,0.13672 -0.81355,0.0547 -1.626756,0.11568 -2.44173,0.14568 -0.784469,0.0406 -1.568792,0.0848 -2.35212,0.14388 -0.773364,0.0575 -1.546267,0.12211 -2.321128,0.15664 -0.74852,0.0447 -1.49678,0.0944 -2.243826,0.15964 -0.717582,0.0627 -1.43433,0.1352 -2.153364,0.17994 -0.691523,0.0546 -1.382308,0.11733 -2.073405,0.17694 -0.654857,0.0423 -1.309357,0.0901 -1.962893,0.14966 -0.661419,0.0584 -1.323028,0.11081 -1.986108,0.14694 -0.674423,0.0472 -1.348137,0.10401 -2.022809,0.14764 -0.686966,0.0312 -1.373751,0.0664 -2.060127,0.10875 -0.723882,0.0452 -1.447372,0.10178 -2.172473,0.12321 -0.733264,0.0265 -1.466448,0.0553 -2.199248,0.0927 -0.742635,0.0383 -1.485033,0.0814 -2.22666,0.13612 -0.751276,0.0564 -1.501804,0.12494 -2.254239,0.16413 -0.759608,0.0432 -1.518904,0.0915 -2.277708,0.14721 -0.772919,0.0532 -1.546709,0.0861 -2.320684,0.12013 -0.763892,0.033 -1.528098,0.043 -2.292578,0.0545 -0.762894,0.0146 -1.525764,0.0304 -2.288524,0.0509 -0.787143,0.0216 -1.574239,0.0451 -2.36111,0.0753 -0.817022,0.0319 -1.633929,0.0667 -2.450517,0.10848 -0.85448,0.0414 -1.709045,0.0732 -2.56453,0.0846 -0.859795,0.0215 -1.719561,0.0446 -2.579063,0.0759 -0.841737,0.031 -1.683398,0.0651 -2.524411,0.11218 -0.779528,0.045 -1.558949,0.0939 -2.336707,0.16383 -0.674775,0.0619 -1.348507,0.13462 -2.024176,0.18644 -0.55621,0.0531 -1.112102,0.11211 -1.663766,0.20208 -0.455769,0.0754 -0.909926,0.16213 -1.355424,0.28586 -0.369451,0.1044 -0.742183,0.19889 -1.104942,0.32527 -0.248391,0.0909 -0.498044,0.1778 -0.740593,0.2838 -2.605611,1.11669 -3.132023,-0.11161 -0.526412,-1.2283 z"
       inkscape:connector-curvature="0" />
    <path
       style="opacity:1;fill:#000000;fill-opacity:1;fill-rule:nonzero;stroke:none;stroke-width:0.39700001;stroke-linecap:round;stroke-linejoin:round;stroke-miterlimit:4;stroke-dasharray:none;stroke-dashoffset:0;stroke-opacity:1;paint-order:markers fill stroke"
       id="path4491"
       d="m 60.803816,187.20758 c 0,0.25796 0,0.51591 0,0.77387 -0.0013,0.3248 0.03385,0.64865 0.05768,0.97234 0.0327,0.38884 0.03932,0.77948 0.07415,1.16806 0.04466,0.41439 0.08646,0.82904 0.122369,1.24429 0.02352,0.27206 0.01418,0.13493 0.02783,0.41138 0.132792,2.83171 -1.202086,2.89431 -1.334881,0.0626 v 0 c -0.0098,-0.22397 -0.0024,-0.10428 -0.02434,-0.35891 -0.03584,-0.41501 -0.07812,-0.82934 -0.122304,-1.24353 -0.03353,-0.39469 -0.04459,-0.79085 -0.07557,-1.18579 -0.02622,-0.35633 -0.06386,-0.71281 -0.06129,-1.07044 0,-0.25796 0,-0.51591 0,-0.77387 0,-2.83482 1.336347,-2.83482 1.336347,0 z"
       inkscape:connector-curvature="0" />
    <path
       style="opacity:1;fill:#000000;fill-opacity:1;fill-rule:nonzero;stroke:none;stroke-width:0.39700001;stroke-linecap:round;stroke-linejoin:round;stroke-miterlimit:4;stroke-dasharray:none;stroke-dashoffset:0;stroke-opacity:1;paint-order:markers fill stroke"
       id="path4497"
       d="m 78.444798,186.04401 c 0.02784,0.25545 0.07933,0.50733 0.120732,0.76081 0.0622,0.36013 0.08761,0.72517 0.139989,1.08654 0.06466,0.39528 0.119676,0.79192 0.167481,1.18956 0.02156,0.19581 0.04328,0.39161 0.06584,0.5873 0.324541,2.81619 -1.003022,2.96918 -1.327563,0.153 v 0 c -0.0223,-0.1936 -0.04387,-0.38727 -0.0651,-0.58098 -0.04654,-0.38809 -0.100801,-0.7751 -0.163724,-1.16091 -0.04933,-0.35261 -0.07794,-0.70789 -0.13585,-1.0594 -0.04269,-0.26216 -0.09566,-0.52278 -0.124728,-0.78693 -0.400904,-2.80634 0.922012,-2.99532 1.322917,-0.18899 z"
       inkscape:connector-curvature="0" />
    <path
       style="opacity:1;fill:#000000;fill-opacity:1;fill-rule:nonzero;stroke:none;stroke-width:0.39700001;stroke-linecap:round;stroke-linejoin:round;stroke-miterlimit:4;stroke-dasharray:none;stroke-dashoffset:0;stroke-opacity:1;paint-order:markers fill stroke"
       id="path4505"
       d="m 96.608039,184.08405 c 0.07787,0.26625 0.155204,0.5322 0.219977,0.80212 0.07556,0.36748 0.148394,0.73545 0.223129,1.10316 0.08945,0.41762 0.137935,0.84229 0.211661,1.26256 0.04347,0.2858 0.02315,0.14365 0.06106,0.42641 0.375383,2.80985 -0.949195,2.98681 -1.324578,0.17695 v 0 c -0.03328,-0.2501 -0.01558,-0.12521 -0.05312,-0.37466 -0.0703,-0.40803 -0.119716,-0.81962 -0.204618,-1.22519 -0.07166,-0.3528 -0.142248,-0.70571 -0.213283,-1.0586 -0.05972,-0.25109 -0.132747,-0.49803 -0.205164,-0.74562 -0.778785,-2.72575 0.506146,-3.09287 1.284931,-0.36713 z"
       inkscape:connector-curvature="0" />
    <path
       style="opacity:1;fill:#000000;fill-opacity:1;fill-rule:nonzero;stroke:none;stroke-width:0.39700001;stroke-linecap:round;stroke-linejoin:round;stroke-miterlimit:4;stroke-dasharray:none;stroke-dashoffset:0;stroke-opacity:1;paint-order:markers fill stroke"
       id="path4507"
       d="m 116.12861,183.46581 c -0.007,0.23974 0.0233,0.47824 0.0437,0.71673 0.0315,0.36718 0.053,0.73509 0.0723,1.10307 0.0215,0.42168 0.0361,0.84365 0.0495,1.26564 0.0895,2.83341 -1.24623,2.87558 -1.33568,0.0422 v 0 c -0.013,-0.41275 -0.0274,-0.82548 -0.0483,-1.23792 -0.0185,-0.35318 -0.039,-0.70629 -0.0692,-1.05869 -0.0237,-0.27645 -0.0559,-0.55309 -0.0486,-0.831 0,-2.83483 1.33635,-2.83483 1.33635,0 z"
       inkscape:connector-curvature="0" />
    <path
       style="opacity:1;fill:#000000;fill-opacity:1;fill-rule:nonzero;stroke:none;stroke-width:0.39700001;stroke-linecap:round;stroke-linejoin:round;stroke-miterlimit:4;stroke-dasharray:none;stroke-dashoffset:0;stroke-opacity:1;paint-order:markers fill stroke"
       id="path4509"
       d="m 134.5714,182.83677 c 0.0374,0.27118 0.0601,0.54406 0.0813,0.81689 0.0449,0.3273 0.0907,0.65439 0.12904,0.98254 0.0501,0.41854 0.0457,0.84127 0.0483,1.26213 0.002,0.44217 0.002,0.88434 0.003,1.32652 -0.003,0.0821 -0.005,0.16417 -0.008,0.24626 -0.097,2.83316 -1.43259,2.78742 -1.33557,-0.0457 v 0 c 0.002,-0.0662 0.005,-0.13244 0.007,-0.19866 -5.3e-4,-0.44006 -10e-4,-0.88013 -0.003,-1.32018 -0.002,-0.37177 0.004,-0.74544 -0.0393,-1.11526 -0.0403,-0.3455 -0.0913,-0.68948 -0.1341,-1.03465 -0.0188,-0.24408 -0.0388,-0.48821 -0.0718,-0.73086 -0.4009,-2.80633 0.92201,-2.99532 1.32292,-0.18899 z"
       inkscape:connector-curvature="0" />
    <path
       style="opacity:1;fill:#000000;fill-opacity:1;fill-rule:nonzero;stroke:none;stroke-width:0.39700001;stroke-linecap:round;stroke-linejoin:round;stroke-miterlimit:4;stroke-dasharray:none;stroke-dashoffset:0;stroke-opacity:1;paint-order:markers fill stroke"
       id="path4511"
       d="m 155.13534,183.29303 c -0.033,0.24265 -0.053,0.48678 -0.0718,0.73085 -0.0284,0.35961 -0.0372,0.72035 -0.0678,1.07973 -0.0497,0.36013 -0.0601,0.7229 -0.0682,1.08578 -0.005,0.26213 -0.008,0.5243 -0.0114,0.78646 -0.0351,2.8346 -1.37131,2.81807 -1.33624,-0.0165 v 0 c 0.003,-0.26663 0.006,-0.53325 0.0116,-0.79985 0.009,-0.39169 0.0206,-0.78349 0.0729,-1.17231 0.0322,-0.35465 0.036,-0.71136 0.0666,-1.06623 0.0211,-0.27283 0.0439,-0.5457 0.0813,-0.81688 0.40091,-2.80633 1.72382,-2.61734 1.32292,0.18899 z"
       inkscape:connector-curvature="0" />
    <path
       style="opacity:1;fill:#000000;fill-opacity:1;fill-rule:nonzero;stroke:none;stroke-width:0.39700001;stroke-linecap:round;stroke-linejoin:round;stroke-miterlimit:4;stroke-dasharray:none;stroke-dashoffset:0;stroke-opacity:1;paint-order:markers fill stroke"
       id="path4513"
       d="m 174.66063,182.664 c 0,0.25795 0,0.51591 0,0.77387 0,0.36029 0,0.72058 0,1.08088 -0.003,0.40882 0.008,0.81787 -0.009,1.22642 -0.12528,2.83206 -1.46033,2.773 -1.33504,-0.0591 v 0 c 0.0189,-0.38867 0.001,-0.77837 0.007,-1.16736 0,-0.3603 0,-0.72059 0,-1.08088 0,-0.25796 0,-0.51592 0,-0.77387 0,-2.83482 1.33635,-2.83482 1.33635,0 z"
       inkscape:connector-curvature="0" />
    <path
       style="opacity:1;fill:#000000;fill-opacity:1;fill-rule:nonzero;stroke:none;stroke-width:0.39700001;stroke-linecap:round;stroke-linejoin:round;stroke-miterlimit:4;stroke-dasharray:none;stroke-dashoffset:0;stroke-opacity:1;paint-order:markers fill stroke"
       id="path4515"
       d="m 69.346547,186.75675 c 0.05405,0.17883 0.06767,0.36592 0.09637,0.54963 0.429725,2.80207 -0.891178,3.00464 -1.320903,0.20258 v 0 c -0.01942,-0.12843 -0.02869,-0.2592 -0.0604,-0.38509 -0.778785,-2.72575 0.506145,-3.09287 1.28493,-0.36712 z"
       inkscape:connector-curvature="0" />
    <path
       style="opacity:1;fill:#000000;fill-opacity:1;fill-rule:nonzero;stroke:none;stroke-width:0.39700001;stroke-linecap:round;stroke-linejoin:round;stroke-miterlimit:4;stroke-dasharray:none;stroke-dashoffset:0;stroke-opacity:1;paint-order:markers fill stroke"
       id="path4517"
       d="m 88.322683,184.88586 c 0.0091,0.0348 0.01826,0.0696 0.0274,0.10447 0.714401,2.74333 -0.578816,3.0801 -1.293217,0.33678 v 0 c -0.0064,-0.0247 -0.01273,-0.0494 -0.0191,-0.0741 -0.778785,-2.72575 0.506145,-3.09288 1.28493,-0.36713 z"
       inkscape:connector-curvature="0" />
    <path
       style="opacity:1;fill:#000000;fill-opacity:1;fill-rule:nonzero;stroke:none;stroke-width:0.39700001;stroke-linecap:round;stroke-linejoin:round;stroke-miterlimit:4;stroke-dasharray:none;stroke-dashoffset:0;stroke-opacity:1;paint-order:markers fill stroke"
       id="path4523"
       d="m 106.77417,184.00034 c 5.3e-4,0.13995 -0.004,0.27968 0.007,0.41931 0.17034,2.8297 -1.1636,2.91 -1.33393,0.0803 v 0 c -0.009,-0.16656 -0.0116,-0.3328 -0.009,-0.49961 0,-2.83482 1.33634,-2.83482 1.33634,0 z"
       inkscape:connector-curvature="0" />
    <path
       style="opacity:1;fill:#000000;fill-opacity:1;fill-rule:nonzero;stroke:none;stroke-width:0.39700001;stroke-linecap:round;stroke-linejoin:round;stroke-miterlimit:4;stroke-dasharray:none;stroke-dashoffset:0;stroke-opacity:1;paint-order:markers fill stroke"
       id="path4527"
       d="m 125.48423,183.37131 c 0.0165,0.11702 0.0288,0.23456 0.0413,0.35204 0.2993,2.81898 -1.02958,2.96007 -1.32888,0.1411 v 0 c -0.0107,-0.1015 -0.0212,-0.20304 -0.0353,-0.30415 -0.40091,-2.80633 0.92201,-2.99532 1.32291,-0.18899 z"
       inkscape:connector-curvature="0" />
    <path
       style="opacity:1;fill:#000000;fill-opacity:1;fill-rule:nonzero;stroke:none;stroke-width:0.39700001;stroke-linecap:round;stroke-linejoin:round;stroke-miterlimit:4;stroke-dasharray:none;stroke-dashoffset:0;stroke-opacity:1;paint-order:markers fill stroke"
       id="path4529"
       d="m 145.26099,183.19854 c 0,0.15578 0,0.31157 0,0.46736 0,2.83482 -1.33635,2.83482 -1.33635,0 v 0 c 0,-0.15579 0,-0.31158 0,-0.46736 0,-2.83482 1.33635,-2.83482 1.33635,0 z"
       inkscape:connector-curvature="0" />
    <path
       style="opacity:1;fill:#000000;fill-opacity:1;fill-rule:nonzero;stroke:none;stroke-width:0.39700001;stroke-linecap:round;stroke-linejoin:round;stroke-miterlimit:4;stroke-dasharray:none;stroke-dashoffset:0;stroke-opacity:1;paint-order:markers fill stroke"
       id="path4531"
       d="m 165.03893,182.39673 c 0,0.10936 0,0.21873 0,0.32809 0,2.83483 -1.33635,2.83483 -1.33635,0 v 0 c 0,-0.10936 0,-0.21873 0,-0.32809 0,-2.83482 1.33635,-2.83482 1.33635,0 z"
       inkscape:connector-curvature="0" />
    <path
       style="opacity:1;fill:#000000;fill-opacity:1;fill-rule:nonzero;stroke:none;stroke-width:0.39700001;stroke-linecap:round;stroke-linejoin:round;stroke-miterlimit:4;stroke-dasharray:none;stroke-dashoffset:0;stroke-opacity:1;paint-order:markers fill stroke"
       id="path4537"
       d="m 59.829231,171.51577 c 0.24856,-0.0404 0.500478,-0.0349 0.750872,-0.0546 0.315581,-0.0276 0.631687,-0.0481 0.947949,-0.0659 0.387469,-0.0211 0.775274,-0.035 1.163097,-0.0476 0.422273,-0.0307 0.843868,-0.0699 1.266011,-0.1024 0.439277,-0.0303 0.875625,-0.0926 1.313084,-0.14179 0.463347,-0.0406 0.923401,-0.10878 1.384433,-0.16903 0.479456,-0.0632 0.958418,-0.13467 1.434798,-0.21828 0.507577,-0.0959 1.017347,-0.17883 1.528574,-0.25254 0.512035,-0.0882 1.02443,-0.17368 1.538582,-0.24869 0.499702,-0.0682 0.995365,-0.16234 1.493543,-0.24076 0.491075,-0.0659 0.980329,-0.14078 1.469052,-0.2221 0.496591,-0.0838 0.995952,-0.14905 1.496047,-0.20768 0.488881,-0.0459 0.975793,-0.10419 1.46228,-0.17038 0.495263,-0.0687 0.992344,-0.12267 1.489948,-0.17105 0.509059,-0.0486 1.019181,-0.0847 1.529469,-0.11736 0.517369,-0.0325 1.035206,-0.0568 1.553115,-0.0788 0.512548,-0.0371 1.024332,-0.0839 1.536697,-0.12355 0.529622,-0.0406 1.059903,-0.0716 1.590315,-0.0997 0.531524,-0.0277 1.063369,-0.0485 1.595269,-0.0674 0.532545,-0.0186 1.065233,-0.0326 1.597945,-0.0453 0.53321,-0.0125 1.066483,-0.022 1.599766,-0.0306 0.533649,-0.008 1.067324,-0.0148 1.601007,-0.0206 0.53394,-0.006 1.067893,-0.01 1.601849,-0.0139 0.534138,-0.004 1.068279,-0.007 1.602422,-0.009 0.534268,-0.003 1.068538,-0.005 1.602809,-0.006 0.534358,-0.002 1.068715,-0.003 1.603073,-0.004 0.518078,8e-4 1.035735,0.003 1.553298,-0.0217 0.509021,-0.0281 1.018095,-0.0549 1.527345,-0.0784 0.50903,-0.012 1.01589,-0.0594 1.52302,-0.10155 0.52659,-0.0442 1.05388,-0.079 1.58136,-0.11035 0.53005,-0.031 1.06051,-0.0543 1.59103,-0.0755 0.53158,-0.0209 1.06333,-0.0366 1.59511,-0.0508 0.53323,-0.0233 1.06609,-0.0189 1.5993,-0.001 0.50642,0.0188 1.01289,0.036 1.51943,0.051 0.51314,0.015 1.02638,0.0263 1.53963,0.0365 0.49793,0.0191 0.99521,0.0118 1.49288,-0.008 0.50222,-0.0216 1.00453,-0.0407 1.50692,-0.0575 0.49276,-0.0358 0.98649,-0.065 1.47779,-0.11772 0.47701,-0.0562 0.95407,-0.10923 1.42876,-0.18268 0.47609,-0.0747 0.95377,-0.13709 1.42924,-0.21568 0.47848,-0.0688 0.95137,-0.16873 1.42634,-0.25751 0.45838,-0.0851 0.91564,-0.17919 1.37052,-0.28166 0.4623,-0.0968 0.91724,-0.22375 1.37587,-0.33592 0.3986,-0.10905 0.79999,-0.2057 1.17892,-0.373 0.25777,-0.12136 0.48112,-0.29371 0.67128,-0.5041 0.0849,-0.11783 0.20686,-0.25213 0.20843,-0.40667 0.01,-0.0647 0.01,-0.11114 -0.0433,-0.14716 -0.0967,-0.0855 -0.21196,-0.14351 -0.32744,-0.19887 -0.24594,-0.139 -0.50595,-0.24642 -0.77274,-0.3375 -0.32327,-0.10602 -0.6565,-0.17593 -0.99016,-0.23976 -0.38319,-0.0808 -0.77174,-0.11365 -1.16188,-0.13493 -0.43769,-0.0237 -0.87523,-0.0366 -1.31342,-0.0261 -0.46919,0.0194 -0.93924,0.0229 -1.40785,0.054 -0.47123,0.0389 -0.94238,0.0783 -1.414,0.11224 -0.49544,0.0351 -0.99144,0.0611 -1.48754,0.0847 -0.50813,0.0237 -1.01651,0.0412 -1.52493,0.0571 -0.48128,0.0308 -0.96169,0.0735 -1.44263,0.10902 -0.50485,0.037 -1.0103,0.0647 -1.51585,0.0899 -0.50772,0.0286 -1.01652,0.0348 -1.52396,0.0677 -0.5175,0.0406 -1.03494,0.0815 -1.55282,0.11702 -0.52837,0.0358 -1.05727,0.063 -1.58627,0.0876 -0.53055,0.0243 -1.06135,0.0425 -1.59219,0.0591 -0.51546,0.0139 -1.03063,0.0229 -1.54515,0.0579 -0.49774,0.028 -0.99318,0.0779 -1.48846,0.13322 -0.51936,0.0593 -1.03992,0.10692 -1.56087,0.14964 -0.52594,0.0424 -1.052646,0.0743 -1.579476,0.10319 -0.524595,0.0393 -1.050414,0.0316 -1.57588,0.0236 -0.504319,-0.009 -1.008647,-0.0171 -1.51299,-0.0243 -0.506064,-0.003 -1.01087,-0.0459 -1.515655,-0.0783 -0.493594,-0.0318 -0.987616,-0.0561 -1.48173,-0.0781 -0.5064,-0.0221 -1.013016,-0.0385 -1.519667,-0.0534 -0.508897,-0.0108 -1.01778,-0.0344 -1.526839,-0.0282 -0.50188,0.011 -1.003223,0.0287 -1.503584,0.0694 -0.494522,0.0332 -0.985335,0.10211 -1.476984,0.16255 -0.507751,0.0784 -1.015296,0.15755 -1.524423,0.2266 -0.526672,0.0705 -1.055381,0.12399 -1.584471,0.17246 -0.529743,0.0477 -1.060436,0.0835 -1.591291,0.11604 -0.531424,0.032 -1.063273,0.0561 -1.595197,0.078 -0.532484,0.0215 -1.065159,0.0377 -1.597869,0.0524 -0.498115,0.0293 -0.995381,0.0712 -1.493126,0.10608 -0.515855,0.0359 -1.032245,0.0631 -1.548741,0.0877 -0.501417,0.0429 -1.003988,0.0775 -1.503944,0.13551 -0.482664,0.0609 -0.965534,0.11775 -1.445911,0.19484 -0.488723,0.0821 -0.979691,0.14922 -1.471586,0.20898 -0.484413,0.0473 -0.966851,0.10685 -1.448858,0.17401 -0.492303,0.0699 -0.986518,0.12464 -1.48127,0.17371 -0.497658,0.0458 -0.992571,0.11693 -1.488858,0.17542 -0.49358,0.0451 -0.983142,0.12174 -1.473761,0.19045 -0.478518,0.0543 -0.952519,0.13885 -1.427938,0.21432 -0.436605,0.0751 -0.866772,0.17897 -1.297424,0.28159 -0.396727,0.10738 -0.792988,0.21614 -1.179655,0.35604 -0.381223,0.13751 -0.756291,0.29203 -1.121307,0.46812 -0.334777,0.15383 -0.652489,0.34408 -0.948216,0.56347 -0.230844,0.17908 -0.421386,0.39938 -0.572564,0.64828 -1.506149,2.40161 -2.638277,1.6916 -1.132131,-0.71001 v 0 c 0.247499,-0.38774 0.544108,-0.73855 0.914432,-1.01591 0.36459,-0.26519 0.749879,-0.50294 1.16051,-0.69072 0.407027,-0.19436 0.823206,-0.36908 1.247987,-0.52107 0.433697,-0.15458 0.876096,-0.28082 1.321223,-0.39816 0.463785,-0.11049 0.927349,-0.22144 1.39768,-0.30146 0.48346,-0.0767 0.965536,-0.16245 1.452094,-0.21793 0.500245,-0.07 0.999482,-0.14785 1.502701,-0.19418 0.504465,-0.0594 1.007531,-0.13175 1.513417,-0.17808 0.477181,-0.0473 0.953844,-0.1 1.428654,-0.16744 0.489784,-0.0682 0.980038,-0.12897 1.472256,-0.17706 0.475025,-0.0576 0.949134,-0.12249 1.421069,-0.20186 0.500092,-0.0801 1.00267,-0.13997 1.505162,-0.203 0.52956,-0.0602 1.06145,-0.0996 1.592625,-0.14269 0.506544,-0.0241 1.012986,-0.0508 1.518901,-0.0859 0.516562,-0.0362 1.032589,-0.0805 1.549659,-0.10885 0.526714,-0.0146 1.053396,-0.0306 1.579888,-0.0518 0.522973,-0.0215 1.045874,-0.0451 1.568355,-0.0766 0.51748,-0.0317 1.034801,-0.0666 1.551199,-0.11298 0.509834,-0.0466 1.019305,-0.098 1.526813,-0.16592 0.514625,-0.0697 1.027459,-0.15081 1.54088,-0.22873 0.509939,-0.0627 1.019093,-0.13352 1.53199,-0.16815 0.531535,-0.043 1.064088,-0.0626 1.597226,-0.0737 0.527003,-0.005 1.053756,0.0161 1.580571,0.0287 0.513315,0.0151 1.026597,0.0318 1.539655,0.0542 0.502918,0.0224 1.00574,0.0471 1.508125,0.0795 0.482584,0.031 0.965184,0.0724 1.448972,0.0757 0.504833,0.007 1.009648,0.0154 1.514454,0.0243 0.494218,0.008 0.988753,0.016 1.48214,-0.0217 0.514843,-0.0282 1.029558,-0.0593 1.543538,-0.10073 0.50792,-0.0416 1.01545,-0.088 1.52181,-0.14585 0.5145,-0.0574 1.02927,-0.10892 1.54628,-0.13841 0.53076,-0.0359 1.06211,-0.0466 1.59384,-0.0603 0.52404,-0.0164 1.04804,-0.0344 1.5718,-0.0583 0.51919,-0.0241 1.03829,-0.0507 1.55687,-0.0859 0.52008,-0.0357 1.0397,-0.077 1.55943,-0.11746 0.51371,-0.0322 1.02853,-0.041 1.54252,-0.0687 0.49485,-0.0246 0.98959,-0.0517 1.48375,-0.0879 0.4998,-0.0369 0.99901,-0.0821 1.4993,-0.11199 0.50123,-0.0157 1.00242,-0.0329 1.50336,-0.0562 0.48526,-0.023 0.97043,-0.0484 1.45503,-0.0827 0.47483,-0.0341 0.94915,-0.0742 1.42362,-0.11289 0.48697,-0.0308 0.97509,-0.0378 1.46264,-0.0564 0.47312,-0.0109 0.94562,0.002 1.41818,0.0277 0.44999,0.0249 0.89832,0.0651 1.34042,0.15687 0.39567,0.0761 0.79049,0.1609 1.17328,0.28858 0.3199,0.11083 0.63386,0.2375 0.92994,0.40311 0.33429,0.16803 0.6504,0.36791 0.86524,0.68342 0.20293,0.34538 0.30203,0.7114 0.22557,1.11311 -0.0885,0.40027 -0.26473,0.7595 -0.54275,1.06487 -0.3218,0.33996 -0.68863,0.62688 -1.11856,0.81984 -0.45014,0.1921 -0.91888,0.3226 -1.39232,0.44468 -0.46682,0.114 -0.92985,0.24321 -1.40039,0.34166 -0.47073,0.10538 -0.94355,0.20353 -1.41782,0.29138 -0.48415,0.0904 -0.96625,0.19208 -1.45394,0.26237 -0.48006,0.0793 -0.96224,0.1428 -1.44296,0.21787 -0.49572,0.0766 -0.99382,0.13268 -1.49198,0.19092 -0.52339,0.0549 -1.04896,0.0889 -1.57397,0.12442 -0.50001,0.0168 -0.99994,0.0358 -1.49977,0.0572 -0.5238,0.0203 -1.04731,0.0278 -1.57136,0.008 -0.5176,-0.0103 -1.03519,-0.0217 -1.55268,-0.0368 -0.50805,-0.0151 -1.01602,-0.0323 -1.52394,-0.0511 -0.50657,-0.0168 -1.01271,-0.0211 -1.5193,0.002 -0.52595,0.0141 -1.05187,0.0296 -1.57762,0.0503 -0.52186,0.0208 -1.04366,0.0438 -1.56506,0.0742 -0.51705,0.0307 -1.03392,0.0648 -1.55009,0.10813 -0.52348,0.0435 -1.04675,0.0919 -1.57217,0.10471 -0.50878,0.0234 -1.017366,0.0503 -1.525914,0.0783 -0.537522,0.0252 -1.07511,0.0245 -1.613156,0.0231 -0.533874,0.001 -1.06775,0.002 -1.601626,0.004 -0.533557,0.002 -1.067113,0.004 -1.600666,0.006 -0.533083,0.003 -1.066165,0.006 -1.59924,0.009 -0.532384,0.004 -1.064762,0.008 -1.597128,0.0138 -0.531344,0.006 -1.062683,0.0121 -1.59399,0.0205 -0.529807,0.009 -1.059601,0.0179 -1.589331,0.0303 -0.527534,0.0126 -1.055039,0.0265 -1.582407,0.0449 -0.524179,0.0186 -1.048308,0.0391 -1.572122,0.0664 -0.519591,0.0275 -1.039056,0.0578 -1.557872,0.0976 -0.527786,0.0408 -1.05492,0.0897 -1.583018,0.12632 -0.508336,0.0216 -1.0166,0.0454 -1.52441,0.0773 -0.495673,0.0317 -0.991187,0.0667 -1.485672,0.11383 -0.480605,0.0467 -0.96071,0.0987 -1.439048,0.16512 -0.494686,0.0673 -0.989841,0.12689 -1.486953,0.1735 -0.478742,0.056 -0.956789,0.11843 -1.432168,0.19863 -0.492596,0.082 -0.985737,0.15775 -1.480717,0.22399 -0.503153,0.0791 -1.003724,0.17442 -1.508453,0.24302 -0.514911,0.075 -1.027872,0.16157 -1.540796,0.24901 -0.498083,0.0717 -0.994664,0.15283 -1.489168,0.24626 -0.495395,0.0862 -0.993095,0.16159 -1.491628,0.22695 -0.469027,0.0613 -0.937109,0.13034 -1.408456,0.17195 -0.452917,0.0508 -0.904687,0.11515 -1.359533,0.14619 -0.441841,0.034 -0.883028,0.0763 -1.325205,0.10564 -0.377261,0.0123 -0.754507,0.0258 -1.13143,0.0462 -0.306795,0.0172 -0.613428,0.0372 -0.919554,0.064 -0.222054,0.0171 -0.44487,0.0136 -0.665419,0.0452 -2.806332,0.4009 -2.995319,-0.92202 -0.188989,-1.32292 z"
       inkscape:connector-curvature="0" />
    <path
       style="opacity:1;fill:#000000;fill-opacity:1;fill-rule:nonzero;stroke:none;stroke-width:0.39700001;stroke-linecap:round;stroke-linejoin:round;stroke-miterlimit:4;stroke-dasharray:none;stroke-dashoffset:0;stroke-opacity:1;paint-order:markers fill stroke"
       id="path4603"
       d="m 118.4303,165.099 c 0.0516,0.0285 0.10821,0.045 0.16458,0.0609 0.0903,0.0251 0.18268,0.0399 0.27584,0.0488 0.1126,0.011 0.22587,0.0119 0.33881,0.007 0.11999,-0.006 0.23912,-0.0229 0.3577,-0.0415 0.10812,-0.019 0.21427,-0.0472 0.31935,-0.0786 0.0538,-0.0172 0.10631,-0.0382 0.16041,-0.0545 0.14282,-0.0267 0.0692,-0.0257 0.10812,0.32013 7.9e-4,0.008 -0.11413,0.0501 -0.12269,0.0535 -0.0774,0.0291 -0.1556,0.0553 -0.23523,0.0776 -0.0942,0.0298 -0.18975,0.0544 -0.28609,0.076 -0.10702,0.0243 -0.21668,0.0333 -0.32583,0.0422 -0.11423,0.0116 -0.22903,0.01 -0.34365,0.008 -0.10864,0.001 -0.21695,-0.006 -0.32497,-0.0171 -0.0533,-0.0132 -0.13438,0.0184 -0.0264,-0.0147 0.0175,-0.0869 0.0376,-0.17328 0.0524,-0.26066 0.002,-0.0129 -0.0425,-0.0171 0.0381,-0.002 0.0756,0.012 0.15202,0.0183 0.22833,0.0242 0.10107,0.006 0.20217,0.0146 0.30348,0.0154 0.10383,10e-4 0.20721,-0.006 0.31058,-0.0147 0.0959,-0.01 0.19086,-0.0274 0.28315,-0.0553 0.67938,-0.20176 0.77448,0.1185 0.0951,0.32026 v 0 c -0.11457,0.0335 -0.23172,0.0568 -0.35068,0.068 -0.11366,0.009 -0.22737,0.0172 -0.34151,0.0158 -0.10881,-0.001 -0.2174,-0.009 -0.32593,-0.0164 -0.0889,-0.007 -0.1779,-0.0144 -0.26588,-0.0293 -0.24749,-0.0487 -0.20933,-0.0517 -0.17533,-0.36479 0.0692,-0.0245 0.13555,-0.0266 0.20842,-0.0183 0.0981,0.01 0.1964,0.0166 0.29507,0.0154 0.10425,0.001 0.20867,0.003 0.31257,-0.007 0.0937,-0.008 0.18808,-0.0146 0.28005,-0.0352 0.0908,-0.0203 0.18074,-0.0438 0.26946,-0.0718 0.0687,-0.019 0.13608,-0.0418 0.20288,-0.0668 0.0253,-0.01 0.0497,-0.0207 0.0743,-0.0319 0.005,-0.002 0.0138,-0.0125 0.0163,-0.007 0.14134,0.30413 0.0139,0.32673 0.14249,0.29618 -0.0544,0.0164 -0.10697,0.0385 -0.16144,0.0548 -0.11947,0.0356 -0.24017,0.0675 -0.36314,0.0886 -0.13113,0.0206 -0.2629,0.0388 -0.39559,0.0452 -0.12833,0.005 -0.25698,0.005 -0.38491,-0.008 -0.11324,-0.0111 -0.22562,-0.0292 -0.33534,-0.06 -0.0821,-0.0236 -0.164,-0.0497 -0.23869,-0.0921 -0.61533,-0.35162 -0.44957,-0.64169 0.16576,-0.29007 z"
       inkscape:connector-curvature="0" />
    <path
       style="opacity:1;fill:#000000;fill-opacity:1;fill-rule:nonzero;stroke:none;stroke-width:0.39700001;stroke-linecap:round;stroke-linejoin:round;stroke-miterlimit:4;stroke-dasharray:none;stroke-dashoffset:0;stroke-opacity:1;paint-order:markers fill stroke"
       id="path4605"
       d="m 118.26113,165.39516 c 0.0336,0.029 0.0746,0.0472 0.11373,0.0674 0.0642,0.0341 0.13223,0.0578 0.20278,0.0743 0.0873,0.0196 0.17573,0.0311 0.26489,0.0368 0.0991,0.002 0.198,-0.004 0.29626,-0.0163 0.10497,-0.0175 0.2075,-0.0474 0.30788,-0.0823 0.0673,-0.0244 0.12953,-0.0586 0.18787,-0.0996 0.003,-0.003 0.006,-0.005 0.009,-0.008 0.0119,-0.013 -0.0347,0.0267 -0.0298,0.0436 0.0575,0.19799 0.0245,0.18201 0.10144,0.21484 -0.038,0.009 -0.0773,0.0148 -0.11556,0.0237 -0.082,0.0203 -0.16514,0.0354 -0.24855,0.0486 -0.10007,0.0153 -0.2008,0.0256 -0.30158,0.0349 -0.07,0.006 -0.0357,0.003 -0.10292,0.009 -0.70621,0.0594 -0.73423,-0.27347 -0.028,-0.3329 v 0 c 0.0662,-0.006 0.0328,-0.003 0.1003,-0.008 0.0936,-0.009 0.18709,-0.0181 0.28001,-0.0322 0.0762,-0.012 0.15219,-0.0259 0.22712,-0.0445 0.0701,-0.0156 0.14159,-0.0321 0.21374,-0.031 0.23068,0.0286 0.23923,0.2619 0.0866,0.356 -0.0839,0.0585 -0.1738,0.10698 -0.27032,0.14163 -0.12237,0.042 -0.24715,0.0784 -0.37527,0.098 -0.11934,0.0148 -0.23943,0.0226 -0.35975,0.0182 -0.10797,-0.007 -0.2152,-0.0212 -0.32081,-0.0453 -0.0966,-0.0234 -0.19028,-0.0557 -0.27837,-0.1024 -0.0697,-0.036 -0.14023,-0.0722 -0.19667,-0.12796 -0.50113,-0.50113 -0.2649,-0.73737 0.23623,-0.23624 z"
       inkscape:connector-curvature="0" />
    <path
       style="opacity:1;fill:#000000;fill-opacity:1;fill-rule:nonzero;stroke:none;stroke-width:0.39700001;stroke-linecap:round;stroke-linejoin:round;stroke-miterlimit:4;stroke-dasharray:none;stroke-dashoffset:0;stroke-opacity:1;paint-order:markers fill stroke"
       id="path4607"
       d="m 58.733073,174.83826 c 0.03157,0.12581 0.05329,0.25385 0.07365,0.38187 0.03132,0.19316 0.04947,0.3875 0.0554,0.58299 0.04142,1.4168 -0.626468,1.43633 -0.667888,0.0195 v 0 c -0.0047,-0.16701 -0.0208,-0.33286 -0.04744,-0.49789 -0.02077,-0.13153 -0.04608,-0.26207 -0.07518,-0.39201 -0.200451,-1.40316 0.461008,-1.49766 0.661459,-0.0945 z"
       inkscape:connector-curvature="0" />
    <path
       style="opacity:1;fill:#000000;fill-opacity:1;fill-rule:nonzero;stroke:none;stroke-width:0.39700001;stroke-linecap:round;stroke-linejoin:round;stroke-miterlimit:4;stroke-dasharray:none;stroke-dashoffset:0;stroke-opacity:1;paint-order:markers fill stroke"
       id="path4609"
       d="m 58.999746,178.76091 c -0.0039,0.11137 0.01124,0.22196 0.02164,0.33262 0.01982,0.12204 0.04005,0.24398 0.05797,0.36631 0.205153,1.40249 -0.455985,1.4992 -0.661138,0.0967 v 0 c -0.01953,-0.13372 -0.04319,-0.26676 -0.06208,-0.40057 -0.01233,-0.13138 -0.02868,-0.26285 -0.02455,-0.39507 0,-1.41741 0.668173,-1.41741 0.668173,0 z"
       inkscape:connector-curvature="0" />
    <path
       style="opacity:1;fill:#000000;fill-opacity:1;fill-rule:nonzero;stroke:none;stroke-width:0.39700001;stroke-linecap:round;stroke-linejoin:round;stroke-miterlimit:4;stroke-dasharray:none;stroke-dashoffset:0;stroke-opacity:1;paint-order:markers fill stroke"
       id="path4611"
       d="m 59.267613,182.05454 c 0.01902,0.13963 0.03271,0.27988 0.03754,0.42071 0.04036,1.41684 -0.627546,1.43586 -0.667903,0.019 v 0 c -0.0021,-0.11561 -0.01707,-0.23058 -0.03109,-0.34525 -0.200451,-1.40317 0.461007,-1.49766 0.661458,-0.0945 z"
       inkscape:connector-curvature="0" />
    <path
       style="opacity:1;fill:#000000;fill-opacity:1;fill-rule:nonzero;stroke:none;stroke-width:0.39700001;stroke-linecap:round;stroke-linejoin:round;stroke-miterlimit:4;stroke-dasharray:none;stroke-dashoffset:0;stroke-opacity:1;paint-order:markers fill stroke"
       id="path4613"
       d="m 127.02044,167.88925 c 0.0151,0.10855 0.0249,0.21772 0.0343,0.32688 0.12123,1.41222 -0.54449,1.46937 -0.66573,0.0572 v 0 c -0.008,-0.0967 -0.0169,-0.19337 -0.0301,-0.28953 -0.20045,-1.40317 0.46101,-1.49766 0.66146,-0.0945 z"
       inkscape:connector-curvature="0" />
    <path
       style="opacity:1;fill:#000000;fill-opacity:1;fill-rule:nonzero;stroke:none;stroke-width:0.39700001;stroke-linecap:round;stroke-linejoin:round;stroke-miterlimit:4;stroke-dasharray:none;stroke-dashoffset:0;stroke-opacity:1;paint-order:markers fill stroke"
       id="path4615"
       d="m 127.28771,170.96285 c 0.0116,0.0828 0.0196,0.16599 0.0276,0.24917 0.13472,1.411 -0.53043,1.47451 -0.66515,0.0635 v 0 c -0.007,-0.0728 -0.0139,-0.14569 -0.0239,-0.21819 -0.20045,-1.40316 0.46101,-1.49765 0.66146,-0.0945 z"
       inkscape:connector-curvature="0" />
    <path
       style="opacity:1;fill:#000000;fill-opacity:1;fill-rule:nonzero;stroke:none;stroke-width:0.39700001;stroke-linecap:round;stroke-linejoin:round;stroke-miterlimit:4;stroke-dasharray:none;stroke-dashoffset:0;stroke-opacity:1;paint-order:markers fill stroke"
       id="path4617"
       d="m 127.55438,174.21733 c 0,0.0547 0,0.10937 0,0.16405 0,1.41741 -0.66817,1.41741 -0.66817,0 v 0 c 0,-0.0547 0,-0.10936 0,-0.16405 0,-1.41741 0.66817,-1.41741 0.66817,0 z"
       inkscape:connector-curvature="0" />
    <path
       style="opacity:1;fill:#000000;fill-opacity:1;fill-rule:nonzero;stroke:none;stroke-width:0.39700001;stroke-linecap:round;stroke-linejoin:round;stroke-miterlimit:4;stroke-dasharray:none;stroke-dashoffset:0;stroke-opacity:1;paint-order:markers fill stroke"
       id="path4623"
       d="m 127.95588,177.37732 c 0.0116,0.0828 0.0197,0.16598 0.0276,0.24918 0.13471,1.41099 -0.53044,1.47449 -0.66515,0.0635 v 0 c -0.007,-0.0728 -0.0139,-0.14569 -0.0239,-0.21819 -0.20045,-1.40316 0.46101,-1.49766 0.66146,-0.0945 z"
       inkscape:connector-curvature="0" />
    <path
       style="opacity:1;fill:#000000;fill-opacity:1;fill-rule:nonzero;stroke:none;stroke-width:0.39700001;stroke-linecap:round;stroke-linejoin:round;stroke-miterlimit:4;stroke-dasharray:none;stroke-dashoffset:0;stroke-opacity:1;paint-order:markers fill stroke"
       id="path4627"
       d="m 128.22255,180.6318 c 0,0.0149 0,0.0298 0,0.0446 0,1.41741 -0.66817,1.41741 -0.66817,0 v 0 c 0,-0.0149 0,-0.0298 0,-0.0446 0,-1.41741 0.66817,-1.41741 0.66817,0 z"
       inkscape:connector-curvature="0" />
  </g>
</svg>
