<?xml version="1.0" encoding="UTF-8" standalone="no"?>
<!-- Created with Inkscape (http://www.inkscape.org/) -->

<svg
   xmlns:dc="http://purl.org/dc/elements/1.1/"
   xmlns:cc="http://creativecommons.org/ns#"
   xmlns:rdf="http://www.w3.org/1999/02/22-rdf-syntax-ns#"
   xmlns:svg="http://www.w3.org/2000/svg"
   xmlns="http://www.w3.org/2000/svg"
   xmlns:sodipodi="http://sodipodi.sourceforge.net/DTD/sodipodi-0.dtd"
   xmlns:inkscape="http://www.inkscape.org/namespaces/inkscape"
   width="297mm"
   height="210mm"
   viewBox="0 0 297 210"
   version="1.1"
   id="svg4635"
   inkscape:version="0.92.1 r15371"
   sodipodi:docname="Numbers.svg">
  <defs
     id="defs4629" />
  <sodipodi:namedview
     id="base"
     pagecolor="#ffffff"
     bordercolor="#666666"
     borderopacity="1.0"
     inkscape:pageopacity="0.0"
     inkscape:pageshadow="2"
     inkscape:zoom="0.98994949"
     inkscape:cx="498.18965"
     inkscape:cy="397.84916"
     inkscape:document-units="mm"
     inkscape:current-layer="layer1"
     showgrid="false"
     inkscape:window-width="1920"
     inkscape:window-height="1046"
     inkscape:window-x="-11"
     inkscape:window-y="-11"
     inkscape:window-maximized="1" />
  <metadata
     id="metadata4632">
    <rdf:RDF>
      <cc:Work
         rdf:about="">
        <dc:format>image/svg+xml</dc:format>
        <dc:type
           rdf:resource="http://purl.org/dc/dcmitype/StillImage" />
        <dc:title></dc:title>
      </cc:Work>
    </rdf:RDF>
  </metadata>
  <g
     inkscape:label="Layer 1"
     inkscape:groupmode="layer"
     id="layer1"
     transform="translate(0,-87)">
    <path
       style="opacity:1;fill:#000000;fill-opacity:1;fill-rule:nonzero;stroke:none;stroke-width:0.39700001;stroke-linecap:round;stroke-linejoin:round;stroke-miterlimit:4;stroke-dasharray:none;stroke-dashoffset:0;stroke-opacity:1;paint-order:markers fill stroke"
       id="path5180"
       d="m 65.222649,145.00087 c -0.21497,0.1179 -0.38596,0.2942 -0.55021,0.47307 -0.28197,0.32762 -0.51672,0.69188 -0.73307,1.06503 -0.30491,0.52949 -0.53803,1.09602 -0.75234,1.66696 -0.26803,0.6957 -0.47712,1.4115 -0.66329,2.13277 -0.19644,0.76784 -0.33784,1.54674 -0.44434,2.33157 -0.10287,0.80192 -0.10841,1.60993 -0.0824,2.41651 0.03,0.80113 0.16617,1.59104 0.3436,2.37105 0.16478,0.76756 0.44886,1.49619 0.77937,2.2053 0.32367,0.70273 0.74917,1.34765 1.21092,1.96565 0.4759,0.62504 1.02304,1.18749 1.6023,1.71602 0.5785,0.52684 1.21659,0.97793 1.8861,1.38015 0.66721,0.40024 1.387,0.68511 2.12328,0.92765 0.77133,0.2402 1.57026,0.35893 2.37061,0.44919 0.8489,0.0822 1.70218,0.0684 2.55173,0.009 0.8938,-0.0535 1.77668,-0.19949 2.65261,-0.37906 0.90102,-0.1885 1.78221,-0.4559 2.65403,-0.74862 0.86195,-0.28825 1.69856,-0.64389 2.52675,-1.01652 0.77721,-0.35795 1.53992,-0.74835 2.27087,-1.19345 0.67547,-0.41337 1.30728,-0.88822 1.91277,-1.39715 0.56028,-0.47889 1.0639,-1.01551 1.5324,-1.58306 0.44447,-0.53459 0.81634,-1.12031 1.15732,-1.72443 0.31321,-0.58107 0.57483,-1.18801 0.78162,-1.81454 0.20082,-0.61751 0.32353,-1.25589 0.40959,-1.89839 0.0846,-0.6386 0.093,-1.28344 0.0712,-1.92621 -0.0192,-0.63444 -0.10867,-1.26415 -0.2287,-1.8866 -0.11823,-0.62343 -0.2895,-1.23542 -0.48594,-1.8383 -0.19799,-0.59539 -0.46639,-1.16273 -0.75321,-1.71949 -0.29944,-0.55679 -0.6511,-1.08275 -1.01048,-1.60201 -0.37546,-0.51221 -0.76747,-1.01239 -1.16902,-1.50437 -0.39156,-0.48333 -0.80948,-0.94434 -1.24221,-1.39091 -0.42719,-0.44572 -0.88154,-0.86323 -1.34455,-1.27109 -0.45207,-0.38549 -0.91344,-0.76081 -1.40216,-1.099 -0.48599,-0.34349 -1.00451,-0.63559 -1.53011,-0.91304 -0.54597,-0.28208 -1.12283,-0.4938 -1.70754,-0.67895 -0.6548,-0.20867 -1.32697,-0.34684 -2.0053,-0.4505 -0.7552,-0.11365 -1.51508,-0.0826 -2.27022,0.004 -0.86842,0.12284 -1.70906,0.37546 -2.52855,0.68141 -0.8616,0.34346 -1.6792,0.77955 -2.45813,1.28082 -0.36377,0.23184 -0.69562,0.50683 -1.02672,0.78176 -2.18311,1.80837 -3.03559,0.77924 -0.85247,-1.02913 v 0 c 0.37334,-0.30858 0.74793,-0.61664 1.15744,-0.87731 0.86064,-0.55092 1.76214,-1.03336 2.71424,-1.40874 0.92173,-0.34133 1.8666,-0.62412 2.84339,-0.75662 0.87293,-0.098 1.75143,-0.13013 2.62374,0.003 0.74656,0.11503 1.48649,0.26778 2.20717,0.49775 0.66017,0.21032 1.31133,0.45087 1.92731,0.77106 0.57306,0.30313 1.13812,0.62261 1.66829,0.99713 0.52954,0.36922 1.03344,0.77308 1.52303,1.19373 0.4895,0.43134 0.96952,0.87326 1.42137,1.34438 0.45848,0.47416 0.90226,0.96266 1.3174,1.4755 0.42369,0.51942 0.83772,1.04723 1.23261,1.58893 0.3921,0.56705 0.77486,1.14201 1.09979,1.75095 0.31898,0.62084 0.6164,1.25388 0.83582,1.91782 0.21268,0.65607 0.39933,1.32151 0.52747,1.99975 0.13175,0.6912 0.23121,1.38994 0.25187,2.09426 0.0229,0.71747 0.013,1.43706 -0.0826,2.14973 -0.0993,0.72456 -0.23734,1.4447 -0.46588,2.14087 -0.23712,0.70716 -0.52855,1.39486 -0.88627,2.05015 -0.38056,0.672 -0.79591,1.3234 -1.29081,1.91838 -0.52106,0.62896 -1.08028,1.22454 -1.70304,1.75495 -0.65826,0.55183 -1.34457,1.06761 -2.07846,1.51592 -0.77897,0.47159 -1.58822,0.89083 -2.41621,1.26988 -0.86854,0.39043 -1.74602,0.76268 -2.64988,1.06472 -0.92343,0.30948 -1.85681,0.59196 -2.81115,0.79087 -0.9341,0.19078 -1.87562,0.3457 -2.82859,0.40302 -0.93031,0.0634 -1.86464,0.078 -2.79397,-0.0145 -0.89161,-0.10133 -1.78111,-0.23759 -2.63951,-0.50818 -0.83024,-0.27506 -1.64157,-0.59987 -2.3938,-1.05197 -0.744,-0.44961 -1.45479,-0.951 -2.09793,-1.53833 -0.6407,-0.58655 -1.2463,-1.2103 -1.77213,-1.90373 -0.51504,-0.69238 -0.98969,-1.41472 -1.35128,-2.20095 -0.36901,-0.79551 -0.68551,-1.61335 -0.87089,-2.47335 -0.19495,-0.86338 -0.34417,-1.73763 -0.37597,-2.62411 -0.0274,-0.88088 -0.0199,-1.76332 0.0939,-2.63888 0.11407,-0.83674 0.26492,-1.66732 0.47468,-2.48593 0.19862,-0.76726 0.42132,-1.52875 0.70639,-2.26898 0.24161,-0.64055 0.50483,-1.27563 0.84853,-1.86927 0.26765,-0.45714 0.55679,-0.90397 0.9087,-1.30177 0.25832,-0.27567 0.53213,-0.54021 0.86609,-0.72362 2.46131,-1.40646 3.12433,-0.24619 0.66301,1.16028 z"
       inkscape:connector-curvature="0" />
    <path
       style="opacity:1;fill:#000000;fill-opacity:1;fill-rule:nonzero;stroke:none;stroke-width:0.39700001;stroke-linecap:round;stroke-linejoin:round;stroke-miterlimit:4;stroke-dasharray:none;stroke-dashoffset:0;stroke-opacity:1;paint-order:markers fill stroke"
       id="path5182"
       d="m 75.503639,155.94495 c -0.005,0.31112 -0.0387,0.62129 -0.0612,0.93158 -0.0454,0.41199 -0.098,0.8231 -0.1411,1.23536 -0.0451,0.43883 -0.0774,0.8788 -0.10673,1.31892 -0.18837,2.82855 -1.52176,2.73975 -1.33339,-0.0888 v 0 c 0.0304,-0.45694 0.0641,-0.91373 0.11104,-1.36933 0.0417,-0.39819 0.0909,-0.79547 0.13736,-1.19313 0.0202,-0.27802 0.0507,-0.55606 0.0577,-0.8346 0,-2.83482 1.33635,-2.83482 1.33635,0 z"
       inkscape:connector-curvature="0" />
    <path
       style="opacity:1;fill:#000000;fill-opacity:1;fill-rule:nonzero;stroke:none;stroke-width:0.39700001;stroke-linecap:round;stroke-linejoin:round;stroke-miterlimit:4;stroke-dasharray:none;stroke-dashoffset:0;stroke-opacity:1;paint-order:markers fill stroke"
       id="path5184"
       d="m 77.909069,155.13523 c 0.005,0.29539 -0.002,0.5899 -0.021,0.88466 -0.0215,0.42562 -0.0657,0.84903 -0.11156,1.27253 -0.0545,0.4911 -0.12271,0.98118 -0.20195,1.46893 -0.0806,0.46171 -0.15082,0.92512 -0.23561,1.38609 -0.51347,2.78793 -1.82771,2.54588 -1.31424,-0.24205 v 0 c 0.0834,-0.45204 0.15162,-0.90664 0.23097,-1.35938 0.0762,-0.46392 0.13997,-0.93045 0.19226,-1.39761 0.0438,-0.40448 0.0866,-0.80874 0.1066,-1.2153 0.0174,-0.26587 0.0228,-0.53138 0.0181,-0.79787 0,-2.83482 1.33635,-2.83482 1.33635,0 z"
       inkscape:connector-curvature="0" />
    <path
       style="opacity:1;fill:#000000;fill-opacity:1;fill-rule:nonzero;stroke:none;stroke-width:0.39700001;stroke-linecap:round;stroke-linejoin:round;stroke-miterlimit:4;stroke-dasharray:none;stroke-dashoffset:0;stroke-opacity:1;paint-order:markers fill stroke"
       id="path5200"
       d="m 76.945269,153.38416 c 0.28082,0.074 0.55589,0.16859 0.82647,0.27361 0.3519,0.14102 0.69992,0.29238 1.04188,0.45603 0.38831,0.18034 0.76149,0.39049 1.13439,0.60017 0.39917,0.20958 0.78933,0.43535 1.17905,0.66179 0.41258,0.23962 0.8105,0.50313 1.21963,0.74835 0.30698,0.19416 0.61128,0.39931 0.96251,0.50285 0.1366,0.034 0.26743,0.0181 0.39111,-0.046 0.1115,-0.0625 0.1672,-0.17341 0.22729,-0.28149 0.12172,-0.23464 0.19669,-0.48894 0.26649,-0.74273 0.0921,-0.36914 0.15146,-0.74527 0.2068,-1.12134 0.0624,-0.43532 0.10653,-0.8729 0.1467,-1.31073 0.0421,-0.46905 0.0726,-0.93902 0.10026,-1.4091 0.0211,-0.28122 0.0292,-0.56242 0.0281,-0.8443 -0.009,-2.83481 1.32752,-2.83897 1.33634,-0.004 v 0 c 7.9e-4,0.30947 -0.007,0.61837 -0.0304,0.92711 -0.0286,0.48461 -0.0601,0.96909 -0.10354,1.45263 -0.0425,0.46214 -0.0893,0.924 -0.15539,1.38346 -0.0636,0.43055 -0.13266,0.86108 -0.24098,1.28306 -0.10151,0.36459 -0.21593,0.72787 -0.40059,1.06035 -0.21587,0.36101 -0.48066,0.67394 -0.87674,0.84477 -0.42375,0.16155 -0.85736,0.2137 -1.29981,0.0822 -0.44664,-0.14696 -0.85633,-0.36777 -1.24591,-0.63078 -0.40341,-0.24246 -0.79676,-0.50125 -1.20327,-0.73867 -0.38426,-0.22331 -0.76906,-0.44571 -1.16263,-0.65241 -0.34801,-0.19571 -0.69587,-0.39263 -1.05844,-0.56061 -0.31152,-0.15064 -0.63028,-0.28664 -0.95099,-0.41641 -0.23002,-0.0917 -0.46612,-0.16912 -0.70545,-0.23269 -2.72574,-0.77879 -2.35862,-2.06372 0.36713,-1.28493 z"
       inkscape:connector-curvature="0" />
    <path
       style="opacity:1;fill:#000000;fill-opacity:1;fill-rule:nonzero;stroke:none;stroke-width:0.39700001;stroke-linecap:round;stroke-linejoin:round;stroke-miterlimit:4;stroke-dasharray:none;stroke-dashoffset:0;stroke-opacity:1;paint-order:markers fill stroke"
       id="path5202"
       d="m 52.107343,143.20357 c -0.152095,0.20919 -0.280177,0.4335 -0.40813,0.65778 -0.177361,0.32633 -0.356883,0.65152 -0.520319,0.98511 -0.184639,0.40827 -0.348451,0.82518 -0.506288,1.24439 -0.186097,0.50141 -0.311536,1.02142 -0.424093,1.54332 -0.134543,0.59589 -0.207809,1.20125 -0.264853,1.80856 -0.04368,0.65269 -0.05143,1.30671 -0.04031,1.96051 0.01111,0.70336 0.06379,1.40524 0.12701,2.10556 0.05807,0.73176 0.146677,1.46045 0.226857,2.18999 0.08421,0.72185 0.192188,1.44037 0.299881,2.15898 0.111554,0.69354 0.24402,1.38332 0.373181,2.07372 0.123823,0.65475 0.283446,1.30146 0.451242,1.94604 0.164735,0.61573 0.359341,1.22255 0.557424,1.82815 0.192731,0.58755 0.414743,1.16437 0.649023,1.7364 0.218599,0.55111 0.474546,1.08682 0.742693,1.61532 0.259803,0.54398 0.565222,1.06336 0.867977,1.58393 0.295777,0.51511 0.632132,1.00566 0.988594,1.48032 0.367007,0.48934 0.791137,0.93086 1.215187,1.37018 0.44349,0.46667 0.93022,0.88906 1.42708,1.29735 0.5208,0.43673 1.07792,0.82719 1.64984,1.19344 0.60694,0.39089 1.24122,0.73664 1.87799,1.07587 0.66009,0.35139 1.33434,0.67512 2.01326,0.98824 0.69539,0.32326 1.39989,0.6253 2.10946,0.91584 0.70578,0.28839 1.42378,0.54444 2.1421,0.7993 0.71437,0.25329 1.44332,0.46147 2.17016,0.67522 0.72308,0.20034 1.44745,0.39652 2.17668,0.57335 0.7254,0.16495 1.45106,0.3289 2.18011,0.47704 0.71977,0.14683 1.44609,0.25717 2.17329,0.35949 0.71065,0.0821 1.42488,0.1272 2.13871,0.17083 0.71485,0.0429 1.4303,0.0747 2.14583,0.10383 0.72529,0.0397 1.45156,0.0306 2.17751,0.0235 0.73516,0.003 1.46932,-0.0351 2.20344,-0.0689 0.72863,-0.0344 1.45698,-0.0855 2.18333,-0.15291 0.72064,-0.0679 1.44083,-0.13869 2.15753,-0.24064 0.71799,-0.1022 1.43425,-0.2172 2.14786,-0.34648 0.72466,-0.12329 1.4451,-0.26783 2.16428,-0.41933 0.72375,-0.15871 1.44135,-0.34313 2.15863,-0.52837 0.72407,-0.19062 1.4362,-0.42146 2.1471,-0.65541 0.70905,-0.24001 1.40767,-0.50875 2.103841,-0.78342 0.6851,-0.27692 1.36173,-0.57475 2.0302,-0.88959 0.65172,-0.29626 1.28517,-0.63002 1.91703,-0.96593 0.60758,-0.33343 1.20952,-0.67714 1.80141,-1.03772 0.58924,-0.36135 1.15618,-0.75698 1.71615,-1.1617 0.57325,-0.4169 1.12932,-0.85656 1.68052,-1.30196 0.54673,-0.44325 1.06585,-0.91896 1.59728,-1.38018 0.52978,-0.44479 1.01536,-0.93815 1.50381,-1.42697 0.51627,-0.50641 0.97375,-1.06595 1.4228,-1.63139 0.47302,-0.59665 0.88702,-1.23565 1.2978,-1.87566 0.41197,-0.63733 0.76179,-1.30911 1.09839,-1.98813 0.34128,-0.68738 0.60809,-1.40716 0.86233,-2.13014 0.26858,-0.77051 0.47036,-1.56093 0.65427,-2.35511 0.19292,-0.80956 0.3144,-1.63174 0.41461,-2.457 0.0965,-0.8365 0.1422,-1.67868 0.16411,-2.52021 0.0273,-0.8643 -0.003,-1.72807 -0.0513,-2.59092 -0.0575,-0.86531 -0.15214,-1.72753 -0.2853,-2.58434 -0.14538,-0.84327 -0.34028,-1.67701 -0.56683,-2.50189 -0.22397,-0.83554 -0.53598,-1.64112 -0.8751,-2.43543 -0.3514,-0.79254 -0.73462,-1.57102 -1.15912,-2.32693 -0.42607,-0.753 -0.90046,-1.47529 -1.39595,-2.18387 -0.51114,-0.7055 -1.06329,-1.37974 -1.61886,-2.05032 -0.56851,-0.66885 -1.16046,-1.31698 -1.76595,-1.95235 -0.5882,-0.59656 -1.18301,-1.18681 -1.80109,-1.75246 -0.60009,-0.55299 -1.23151,-1.06957 -1.87,-1.57709 -0.63821,-0.49386 -1.30824,-0.94421 -1.98604,-1.38139 -0.68717,-0.44359 -1.39125,-0.8592 -2.09815,-1.2702 -0.68879,-0.38725 -1.38334,-0.76417 -2.09501,-1.10777 -0.696661,-0.34236 -1.409291,-0.65086 -2.129551,-0.9398 -0.7214,-0.28602 -1.45807,-0.52811 -2.1956,-0.76809 -0.72689,-0.2469 -1.47128,-0.43409 -2.21405,-0.6254 -0.75905,-0.19747 -1.5267,-0.35801 -2.29797,-0.4992 -0.78378,-0.14129 -1.57305,-0.24848 -2.36334,-0.34557 -0.79257,-0.10757 -1.59135,-0.14872 -2.38957,-0.18694 -0.81402,-0.0368 -1.62986,-0.039 -2.44444,-0.0214 -0.8264,0.0159 -1.65121,0.0638 -2.47594,0.11582 -0.83845,0.0673 -1.67617,0.14217 -2.51283,0.22885 -0.84493,0.091 -1.68916,0.19114 -2.53186,0.30116 -0.82159,0.11252 -1.64476,0.21225 -2.46619,0.32592 -0.80259,0.10317 -1.60101,0.23535 -2.39584,0.38659 -0.79043,0.13926 -1.56689,0.34311 -2.34074,0.55348 -0.79512,0.22028 -1.57143,0.50076 -2.34047,0.79801 -0.81741,0.31708 -1.61609,0.67792 -2.4021,1.06557 -0.86598,0.42452 -1.70709,0.8967 -2.53338,1.39341 -0.88086,0.52157 -1.72337,1.10406 -2.53634,1.72531 -0.8143,0.62315 -1.55532,1.32853 -2.26354,2.06776 -0.45687,0.50962 -0.23235,0.25029 -0.67342,0.77812 -1.81943,2.1739 -2.844217,1.31621 -1.02478,-0.8577 v 0 c 0.48101,-0.57389 0.23642,-0.29219 0.73359,-0.84527 0.75638,-0.78832 1.54809,-1.54042 2.41725,-2.20511 0.85287,-0.65048 1.73542,-1.26199 2.659,-1.8086 0.8582,-0.51538 1.73146,-1.00585 2.63072,-1.44653 0.82185,-0.40501 1.65688,-0.78223 2.51149,-1.11355 0.8121,-0.31347 1.63189,-0.60908 2.47157,-0.84101 0.8072,-0.21924 1.61725,-0.4311 2.44161,-0.57673 0.8169,-0.15513 1.63738,-0.29143 2.46221,-0.39748 0.82487,-0.11414 1.65149,-0.21438 2.47653,-0.32731 0.85441,-0.11134 1.71031,-0.2132 2.56699,-0.30528 0.85448,-0.0885 1.71006,-0.16502 2.56641,-0.23331 0.84329,-0.0532 1.68671,-0.10178 2.53171,-0.11817 0.84537,-0.0177 1.69198,-0.016 2.53675,0.0226 0.83134,0.0399 1.66317,0.0838 2.48865,0.19539 0.81632,0.1004 1.63159,0.21132 2.44117,0.35747 0.80226,0.14715 1.60083,0.31408 2.39043,0.51956 0.76972,0.19826 1.54086,0.39318 2.29422,0.64874 0.76597,0.24925 1.53078,0.50148 2.27992,0.79869 0.74848,0.30064 1.489261,0.62103 2.213371,0.97684 0.74193,0.35911 1.46714,0.75075 2.18505,1.15562 0.72479,0.42139 1.44648,0.84784 2.15104,1.30261 0.71451,0.46127 1.42078,0.93647 2.09302,1.45815 0.66282,0.52691 1.31793,1.06367 1.94097,1.63767 0.64008,0.58652 1.25724,1.19729 1.86605,1.81613 0.62673,0.65783 1.23949,1.32886 1.82755,2.02167 0.57876,0.69866 1.15363,1.40141 1.68504,2.1372 0.52058,0.74493 1.01875,1.50452 1.46638,2.29607 0.44684,0.79841 0.85321,1.61893 1.22263,2.45607 0.36229,0.85005 0.69488,1.7125 0.93467,2.60632 0.23934,0.87399 0.44616,1.75712 0.59865,2.65072 0.13906,0.90007 0.23964,1.80556 0.29899,2.71454 0.0501,0.89939 0.0811,1.79978 0.0529,2.70067 -0.0237,0.88359 -0.0712,1.76784 -0.17341,2.64612 -0.10617,0.87243 -0.23574,1.74153 -0.43934,2.59742 -0.1953,0.84216 -0.41034,1.68014 -0.69557,2.4971 -0.27266,0.77403 -0.55972,1.54421 -0.92559,2.28004 -0.35849,0.72305 -0.7327,1.43761 -1.17106,2.11641 -0.43505,0.67777 -0.87486,1.35353 -1.37611,1.98511 -0.48078,0.60488 -0.9717,1.20252 -1.52382,1.74468 -0.51083,0.51118 -1.01944,1.02621 -1.57319,1.49164 -0.54328,0.47148 -1.07394,0.95782 -1.63334,1.41037 -0.56991,0.46043 -1.14493,0.91482 -1.7377,1.34568 -0.5885,0.42512 -1.18446,0.84048 -1.80378,1.21991 -0.61425,0.37389 -1.23858,0.7309 -1.86925,1.07636 -0.65102,0.34597 -1.30377,0.68956 -1.9751,0.99499 -0.69446,0.32671 -1.39707,0.63645 -2.10887,0.92359 -0.720151,0.28413 -1.442981,0.56177 -2.176551,0.80971 -0.73849,0.24303 -1.47846,0.48222 -2.23069,0.67993 -0.73673,0.19027 -1.47386,0.37947 -2.21731,0.54212 -0.73168,0.15414 -1.46466,0.30109 -2.20188,0.4267 -0.73039,0.13193 -1.46331,0.25023 -2.19815,0.35459 -0.73823,0.10435 -1.47977,0.1789 -2.22204,0.24818 -0.7469,0.0688 -1.49572,0.12212 -2.24495,0.15718 -0.75023,0.0345 -1.50052,0.0726 -2.25181,0.0702 -0.7484,0.007 -1.49714,0.0161 -2.24487,-0.0245 -0.72463,-0.0295 -1.44917,-0.0618 -2.17311,-0.10522 -0.74884,-0.0458 -1.49814,-0.0933 -2.24343,-0.18138 -0.75396,-0.10617 -1.50697,-0.22093 -2.25322,-0.37324 -0.74542,-0.15158 -1.48744,-0.31894 -2.22907,-0.48794 -0.74993,-0.18213 -1.49506,-0.38335 -2.23857,-0.58996 -0.7503,-0.22067 -1.50263,-0.43606 -2.23996,-0.69785 -0.73834,-0.26197 -1.47622,-0.52551 -2.20164,-0.82203 -0.72754,-0.29792 -1.44985,-0.60774 -2.1629,-0.9391 -0.70204,-0.32398 -1.39932,-0.6588 -2.0819,-1.02233 -0.66846,-0.35633 -1.33404,-0.71992 -1.97117,-1.13047 -0.61538,-0.39552 -1.21588,-0.81536 -1.77683,-1.28588 -0.53628,-0.44105 -1.06093,-0.89802 -1.54001,-1.40163 -0.462487,-0.47928 -0.923222,-0.96253 -1.322946,-1.49672 -0.386694,-0.51683 -0.753116,-1.04964 -1.074463,-1.60997 -0.315645,-0.54277 -0.63328,-1.08475 -0.904756,-1.65159 -0.283961,-0.56076 -0.555482,-1.12885 -0.787495,-1.71333 -0.246192,-0.60196 -0.479732,-1.2089 -0.682373,-1.82711 -0.206595,-0.63163 -0.409062,-1.26469 -0.580549,-1.90697 -0.175594,-0.67464 -0.342032,-1.35166 -0.471549,-2.03694 -0.132114,-0.70623 -0.267528,-1.41186 -0.381211,-2.1214 -0.110284,-0.73591 -0.220634,-1.47178 -0.306642,-2.21104 -0.08112,-0.73817 -0.17059,-1.47551 -0.229446,-2.21592 -0.06605,-0.73277 -0.120629,-1.46718 -0.132229,-2.20312 -0.01172,-0.70308 -0.0031,-1.40651 0.04601,-2.10826 0.06228,-0.66009 0.143502,-1.31799 0.289155,-1.96574 0.126997,-0.58594 0.26974,-1.16938 0.479724,-1.73205 0.173143,-0.45925 0.352795,-0.91611 0.557385,-1.36245 0.176254,-0.35797 0.367511,-0.70808 0.559011,-1.05808 0.143299,-0.25118 0.287822,-0.50183 0.456965,-0.73686 1.572474,-2.35872 2.684383,-1.61745 1.111908,0.74127 z"
       inkscape:connector-curvature="0" />
    <path
       style="opacity:1;fill:#000000;fill-opacity:1;fill-rule:nonzero;stroke:none;stroke-width:0.39700001;stroke-linecap:round;stroke-linejoin:round;stroke-miterlimit:4;stroke-dasharray:none;stroke-dashoffset:0;stroke-opacity:1;paint-order:markers fill stroke"
       id="path5204"
       d="m 95.626569,162.24311 c 0.22807,-0.16566 0.47418,-0.30299 0.71488,-0.4487 0.3265,-0.19539 0.66985,-0.36147 1.01652,-0.51761 0.40399,-0.17888 0.827,-0.30705 1.25284,-0.42166 0.44907,-0.11766 0.90587,-0.20124 1.3636,-0.27671 0.479741,-0.0847 0.952541,-0.0587 1.415571,0.0866 0.45168,0.17245 0.73478,0.50862 0.91806,0.94289 0.14613,0.45368 0.0554,0.90692 -0.0746,1.35078 -0.18142,0.51925 -0.45462,0.99851 -0.74446,1.46349 -0.33134,0.53826 -0.70115,1.05088 -1.06278,1.56876 -0.36339,0.5182 -0.729921,1.03413 -1.096831,1.54984 -0.2673,0.36909 -0.51028,0.75587 -0.66155,1.18725 -0.0403,0.15846 -0.0923,0.34795 -0.0128,0.50346 0.0616,0.0857 0.15835,0.13195 0.24755,0.18383 0.25307,0.12911 0.52453,0.2073 0.80117,0.26546 0.370871,0.068 0.744741,0.12375 1.120941,0.1507 0.39052,0.023 0.78117,0.0298 1.17197,0.0142 0.19404,-0.004 0.38605,-0.0211 0.57731,-0.0529 2.79889,-0.4499 3.01098,0.86951 0.21208,1.31942 v 0 c -0.24432,0.0384 -0.48954,0.0637 -0.73708,0.0688 -0.44169,0.017 -0.88334,0.0102 -1.32462,-0.017 -0.43649,-0.0341 -0.870891,-0.094 -1.300891,-0.17665 -0.42246,-0.0919 -0.83717,-0.21879 -1.21656,-0.43109 -0.36794,-0.22943 -0.68152,-0.5071 -0.82827,-0.92905 -0.12641,-0.45378 -0.1245,-0.90603 0.033,-1.35507 0.20072,-0.54171 0.48491,-1.04154 0.82887,-1.50611 0.36466,-0.51254 0.72895,-1.02528 1.0901,-1.54029 0.34865,-0.49915 0.705551,-0.993 1.025091,-1.51176 0.2278,-0.36352 0.44388,-0.73661 0.59753,-1.13854 0.05,-0.16125 0.0974,-0.32438 0.10512,-0.49416 -0.005,-0.0671 -0.0345,-0.11371 -0.094,-0.14954 -0.24568,-0.10025 -0.51607,-0.0685 -0.77293,-0.0348 -0.414241,0.0681 -0.827761,0.143 -1.234321,0.24879 -0.35721,0.0955 -0.7125,0.20125 -1.05178,0.35006 -0.29795,0.1333 -0.59283,0.27588 -0.87358,0.44275 -0.22388,0.13472 -0.45237,0.26227 -0.66396,0.41639 -2.35871,1.57248 -3.09999,0.46057 -0.74127,-1.11191 z"
       inkscape:connector-curvature="0" />
    <path
       style="opacity:1;fill:#000000;fill-opacity:1;fill-rule:nonzero;stroke:none;stroke-width:0.39700001;stroke-linecap:round;stroke-linejoin:round;stroke-miterlimit:4;stroke-dasharray:none;stroke-dashoffset:0;stroke-opacity:1;paint-order:markers fill stroke"
       id="path5214"
       d="m 105.29398,161.91243 c -0.14184,0.23358 -0.265,0.47785 -0.39759,0.71682 -0.22139,0.41062 -0.43751,0.82406 -0.66576,1.23093 -0.2583,0.4581 -0.50623,0.922 -0.76646,1.37898 -0.25934,0.48412 -0.55749,0.94445 -0.86274,1.40032 -0.0539,0.0764 -0.10778,0.15274 -0.16167,0.22911 -1.63615,2.315 -2.727451,1.54371 -1.0913,-0.77129 v 0 c 0.0475,-0.0671 0.095,-0.13424 0.14257,-0.20136 0.28744,-0.42926 0.56883,-0.86226 0.81222,-1.31866 0.25928,-0.45415 0.50482,-0.91606 0.76213,-1.37134 0.22754,-0.4049 0.44168,-0.81704 0.66273,-1.22549 0.15029,-0.27036 0.28858,-0.54762 0.45396,-0.80929 1.57248,-2.35871 2.68439,-1.61744 1.11191,0.74127 z"
       inkscape:connector-curvature="0" />
    <path
       style="opacity:1;fill:#000000;fill-opacity:1;fill-rule:nonzero;stroke:none;stroke-width:0.39700001;stroke-linecap:round;stroke-linejoin:round;stroke-miterlimit:4;stroke-dasharray:none;stroke-dashoffset:0;stroke-opacity:1;paint-order:markers fill stroke"
       id="path5218"
       d="m 96.806919,165.10249 c 0.2668,-0.0293 0.53398,-0.0551 0.80061,-0.0871 0.53303,-0.0577 1.06586,-0.11846 1.59695,-0.19206 0.66072,-0.0871 1.318451,-0.19432 1.977751,-0.29118 0.64639,-0.10664 1.29266,-0.21332 1.93674,-0.33312 0.30121,-0.0571 0.60258,-0.11197 0.90521,-0.16095 2.79875,-0.45082 3.01127,0.86852 0.21252,1.31934 v 0 c -0.29208,0.0468 -0.58267,0.10079 -0.87339,0.15543 -0.66074,0.12287 -1.32371,0.23246 -1.98687,0.34146 -0.66309,0.0974 -1.32461,0.20525 -1.989121,0.2928 -0.53905,0.0742 -1.07966,0.13689 -1.62066,0.19512 -0.31928,0.0383 -0.639,0.0732 -0.95974,0.0966 -2.83482,0 -2.83482,-1.33635 0,-1.33635 z"
       inkscape:connector-curvature="0" />
    <path
       style="opacity:1;fill:#000000;fill-opacity:1;fill-rule:nonzero;stroke:none;stroke-width:0.39700001;stroke-linecap:round;stroke-linejoin:round;stroke-miterlimit:4;stroke-dasharray:none;stroke-dashoffset:0;stroke-opacity:1;paint-order:markers fill stroke"
       id="path5222"
       d="m 43.463327,136.34848 c -0.174424,0.18376 -0.346403,0.37183 -0.50247,0.57158 -0.265938,0.32417 -0.488241,0.6787 -0.705493,1.03625 -0.272529,0.46974 -0.483828,0.97017 -0.68661,1.47279 -0.264115,0.64957 -0.433337,1.33018 -0.585256,2.0129 -0.178564,0.89417 -0.316325,1.79631 -0.44977,2.69818 -0.154342,1.03388 -0.261821,2.07323 -0.336638,3.1156 -0.07651,1.16866 -0.124465,2.33892 -0.168542,3.50916 -0.03322,1.26292 -0.03566,2.5262 -0.01831,3.78934 0.02469,1.28678 0.09351,2.5713 0.187775,3.85462 0.09087,1.28385 0.250746,2.56019 0.427961,3.83443 0.175329,1.25803 0.423161,2.50412 0.678889,3.74779 0.253071,1.21737 0.567986,2.4205 0.902031,3.61778 0.324794,1.1925 0.738126,2.35728 1.163245,3.51685 0.412981,1.15294 0.911442,2.27144 1.427581,3.38102 0.510643,1.09097 1.089533,2.14726 1.690518,3.19047 0.597588,1.0242 1.250572,2.01412 1.913284,2.99686 0.668277,0.97257 1.380247,1.91346 2.108049,2.8419 0.727009,0.93551 1.516663,1.819 2.312467,2.69578 0.799301,0.87934 1.653616,1.70455 2.528728,2.50743 0.907503,0.82071 1.851263,1.60031 2.804483,2.36705 0.97364,0.77047 1.97762,1.50185 2.98948,2.22107 1.02276,0.7271 2.08479,1.39623 3.14555,2.06584 1.08532,0.69209 2.19555,1.34347 3.30922,1.98851 1.10604,0.62173 2.2307,1.21041 3.3638,1.78115 1.10037,0.55364 2.21521,1.07792 3.33813,1.58405 1.07317,0.49275 2.17479,0.91875 3.27749,1.33976 1.05311,0.40637 2.13183,0.73854 3.21908,1.03936 1.0616,0.30414 2.13598,0.55868 3.21601,0.7875 1.0635,0.2347 2.14406,0.37069 3.22472,0.49618 1.10135,0.12803 2.20595,0.21979 3.31296,0.27932 1.14531,0.0617 2.29266,0.0619 3.43913,0.0465 1.18718,-0.0189 2.37097,-0.10823 3.55264,-0.21839 1.24177,-0.1223 2.477061,-0.29444 3.706991,-0.50323 1.28942,-0.20847 2.56897,-0.47044 3.84348,-0.75488 1.30925,-0.29745 2.60639,-0.64435 3.89772,-1.01101 1.30446,-0.36299 2.59097,-0.78318 3.86863,-1.23033 1.27539,-0.43975 2.52652,-0.94499 3.76673,-1.47476 1.23617,-0.53711 2.4468,-1.12894 3.64816,-1.73911 1.19918,-0.60946 2.36613,-1.27722 3.51164,-1.98159 1.14536,-0.72017 2.23987,-1.51634 3.32256,-2.32643 1.12587,-0.8415 2.17314,-1.77889 3.20633,-2.72981 1.0569,-0.98374 2.04307,-2.03819 2.99211,-3.12524 0.96466,-1.12608 1.82891,-2.33262 2.66409,-3.55625 0.86072,-1.26477 1.6018,-2.60438 2.29887,-3.96447 0.71458,-1.40094 1.31477,-2.85537 1.85309,-4.3318 0.5383,-1.51406 0.95206,-3.06794 1.30247,-4.63495 0.34338,-1.58279 0.52345,-3.19152 0.63249,-4.80529 0.0987,-1.60692 0.0462,-3.2165 -0.0498,-4.82181 -0.10216,-1.63819 -0.34475,-3.26289 -0.60627,-4.88186 -0.27454,-1.62434 -0.64347,-3.22963 -1.06195,-4.82225 -0.4131,-1.5715 -0.92876,-3.11207 -1.47939,-4.63982 -0.55594,-1.51453 -1.18019,-3.00241 -1.8543,-4.46778 -0.67405,-1.45227 -1.41035,-2.87337 -2.17952,-4.27711 -0.77612,-1.39933 -1.66473,-2.73013 -2.56967,-4.04812 -0.91203,-1.31851 -1.90587,-2.57561 -2.93921,-3.80026 -1.02748,-1.21851 -2.12636,-2.37388 -3.25467,-3.49874 -1.12969,-1.12034 -2.32765,-2.16717 -3.55664,-3.17634 -1.25827,-1.0298 -2.57357,-1.98587 -3.91657,-2.90129 -1.35834,-0.93311 -2.76808,-1.78652 -4.19582,-2.60816 -1.42017,-0.82264 -2.89506,-1.54281 -4.37752,-2.24458 -1.48296,-0.70674 -2.99545,-1.34676 -4.51652,-1.96603 -1.5364,-0.61476 -3.10414,-1.1442 -4.6792,-1.64966 -1.583461,-0.50377 -3.186241,-0.94182 -4.794751,-1.35731 -1.58649,-0.40503 -3.18472,-0.75893 -4.79116,-1.07464 -1.58959,-0.32294 -3.1894,-0.59002 -4.79339,-0.82979 -1.58668,-0.2362 -3.18049,-0.41535 -4.77838,-0.55406 -1.56175,-0.14268 -3.12815,-0.20938 -4.69546,-0.24618 -1.49219,-0.0345 -2.98311,0.0132 -4.47155,0.11638 -1.45128,0.10542 -2.89147,0.31451 -4.32552,0.55559 -1.40305,0.23912 -2.77504,0.6155 -4.13206,1.0388 -1.36484,0.43448 -2.6712,1.02596 -3.94472,1.67654 -1.30508,0.67566 -2.52878,1.49135 -3.72255,2.34479 -1.216643,0.88402 -2.351134,1.87225 -3.441813,2.90571 -1.064988,1.00518 -2.005042,2.1287 -2.854129,3.3192 -0.131638,0.20113 -0.263277,0.40226 -0.394915,0.6034 -1.554173,2.37081 -2.671786,1.63817 -1.11761,-0.73265 v 0 c 0.141742,-0.21589 0.283488,-0.43179 0.42523,-0.64768 0.900941,-1.25869 1.894258,-2.4493 3.022571,-3.5126 1.135862,-1.07498 2.316692,-2.10352 3.583756,-3.0227 1.24807,-0.8913 2.52758,-1.74273 3.89209,-2.44781 1.34147,-0.68374 2.71697,-1.306 4.15447,-1.76202 1.41491,-0.4406 2.84546,-0.83219 4.30826,-1.08086 1.47687,-0.24801 2.96011,-0.46273 4.45473,-0.57087 1.5296,-0.10557 3.06175,-0.15492 4.59517,-0.11919 1.59542,0.0376 3.18993,0.1057 4.77969,0.25081 1.62529,0.14128 3.24647,0.3234 4.86036,0.56374 1.6241,0.2429 3.24399,0.51328 4.85355,0.8402 1.63206,0.32094 3.25586,0.68037 4.86765,1.09203 1.63337,0.42205 3.26093,0.86702 4.868851,1.37875 1.60731,0.51589 3.20702,1.05667 4.77477,1.68439 1.54394,0.62866 3.07909,1.27857 4.5844,1.99589 1.51466,0.71716 3.02129,1.45366 4.47234,2.29421 1.45701,0.83876 2.89566,1.70992 4.28198,2.66223 1.37562,0.93813 2.72312,1.91754 4.01198,2.97276 1.26186,1.03678 2.49217,2.11188 3.65207,3.26275 1.15511,1.15227 2.28052,2.3353 3.33249,3.58334 1.06147,1.25866 2.08262,2.55049 3.01945,3.90555 0.93013,1.35496 1.84268,2.72359 2.63994,4.16238 0.78406,1.43123 1.53463,2.88017 2.22167,4.36088 0.68955,1.50002 1.32886,3.02273 1.89739,4.57307 0.56389,1.56513 1.09162,3.14352 1.5147,4.75342 0.42899,1.6344 0.80761,3.2817 1.08869,4.94866 0.26848,1.66322 0.51662,3.33238 0.62099,5.01534 0.0989,1.66194 0.15212,3.32829 0.0491,4.9918 -0.11449,1.6815 -0.30288,3.35778 -0.66171,5.00683 -0.36388,1.62316 -0.79235,3.23292 -1.35116,4.80107 -0.55801,1.528 -1.17909,3.03358 -1.91934,4.48347 -0.72313,1.40943 -1.49169,2.79763 -2.38434,4.10822 -0.86538,1.26712 -1.76117,2.51627 -2.76124,3.68182 -0.98142,1.1232 -2.00075,2.21314 -3.09368,3.22947 -1.06659,0.98146 -2.14846,1.94808 -3.31073,2.81652 -1.11529,0.83429 -2.24303,1.65383 -3.42327,2.39485 -1.17652,0.72302 -2.37482,1.40891 -3.60634,2.03464 -1.22772,0.62347 -2.46503,1.22796 -3.7284,1.77656 -1.26773,0.54136 -2.54664,1.05759 -3.85023,1.50716 -1.30293,0.45585 -2.61488,0.88425 -3.94505,1.25452 -1.31583,0.37349 -2.63756,0.72689 -3.97166,1.02975 -1.29693,0.28931 -2.59896,0.55586 -3.91101,0.76813 -1.26299,0.21408 -2.531431,0.39104 -3.806561,0.51629 -1.21695,0.11321 -2.43609,0.20479 -3.65869,0.22403 -1.1764,0.0157 -2.35369,0.0151 -3.52888,-0.0483 -1.13452,-0.0612 -2.2666,-0.15501 -3.39531,-0.28632 -1.12189,-0.13042 -2.24349,-0.27289 -3.34759,-0.5163 -1.10666,-0.23469 -2.20762,-0.49539 -3.29547,-0.8069 -1.12778,-0.31242 -2.24674,-0.65725 -3.33918,-1.07882 -1.12717,-0.43037 -2.25301,-0.86638 -3.35005,-1.36993 -1.14037,-0.51421 -2.2727,-1.04648 -3.39018,-1.60888 -1.15619,-0.58263 -2.30399,-1.18315 -3.43233,-1.81821 -1.12833,-0.65358 -2.2531,-1.31371 -3.35277,-2.01486 -1.08142,-0.68267 -2.16388,-1.36525 -3.20645,-2.10667 -1.0334,-0.73465 -2.05872,-1.48176 -3.05287,-2.26903 -0.97568,-0.78499 -1.94168,-1.58315 -2.870331,-2.42365 -0.904989,-0.8305 -1.788187,-1.68444 -2.614795,-2.59396 -0.817367,-0.90064 -1.627897,-1.8086 -2.374673,-2.7695 -0.747368,-0.95357 -1.478327,-1.92006 -2.164262,-2.91915 -0.6803,-1.00888 -1.350177,-2.02542 -1.963317,-3.07703 -0.620175,-1.07699 -1.217332,-2.16759 -1.74421,-3.29387 -0.531807,-1.14356 -1.044747,-2.29658 -1.470586,-3.48465 -0.437179,-1.1928 -0.861528,-2.39118 -1.195753,-3.61774 -0.342177,-1.22705 -0.664667,-2.4601 -0.923792,-3.70774 -0.261417,-1.27186 -0.51443,-2.54625 -0.693526,-3.83282 -0.181163,-1.30286 -0.344059,-2.60796 -0.43711,-3.92063 -0.09615,-1.30979 -0.166204,-2.62083 -0.191238,-3.93415 -0.01762,-1.28601 -0.01511,-2.57219 0.01913,-3.85798 0.04466,-1.18543 0.09331,-2.37088 0.171037,-3.55469 0.07749,-1.07575 0.188238,-2.14845 0.347599,-3.21544 0.138282,-0.93376 0.280853,-1.86784 0.467397,-2.79333 0.16845,-0.75402 0.358188,-1.50499 0.650365,-2.22226 0.230023,-0.56963 0.472437,-1.13569 0.783841,-1.66666 0.246176,-0.40495 0.500488,-0.80503 0.800682,-1.17289 0.190521,-0.23766 0.392189,-0.46718 0.604316,-0.68582 2.004521,-2.00452 2.949461,-1.05958 0.944941,0.94494 z"
       inkscape:connector-curvature="0" />
    <path
       style="opacity:1;fill:#000000;fill-opacity:1;fill-rule:nonzero;stroke:none;stroke-width:0.39700001;stroke-linecap:round;stroke-linejoin:round;stroke-miterlimit:4;stroke-dasharray:none;stroke-dashoffset:0;stroke-opacity:1;paint-order:markers fill stroke"
       id="path5230"
       d="m 94.465149,195.32016 c -0.0345,0.1967 -0.0317,0.39473 -0.002,0.59154 0.0335,0.3133 0.15395,0.60209 0.27539,0.88914 0.15207,0.36619 0.36359,0.70025 0.58644,1.02634 0.24834,0.35711 0.54761,0.67178 0.86167,0.97087 0.3067,0.28241 0.64833,0.52353 1.0172,0.71704 0.33001,0.17126 0.68639,0.26317 1.05496,0.29371 0.38886,0.0188 0.76793,-0.0677 1.13625,-0.18305 0.41498,-0.14361 0.763921,-0.40182 1.099041,-0.6775 0.38886,-0.33352 0.66147,-0.76636 0.9096,-1.20837 0.28304,-0.5205 0.47972,-1.07704 0.62562,-1.64944 0.14536,-0.57837 0.20334,-1.1716 0.20243,-1.76654 -0.0108,-0.56807 -0.0943,-1.12754 -0.2314,-1.67776 -0.11541,-0.47742 -0.34117,-0.90533 -0.61464,-1.30867 -0.24457,-0.35398 -0.56312,-0.64033 -0.91489,-0.88373 -0.33236,-0.23109 -0.706171,-0.37239 -1.092651,-0.48116 -0.3801,-0.10057 -0.76595,-0.11432 -1.15489,-0.0776 -0.38062,0.0451 -0.73867,0.17688 -1.07857,0.34876 -0.29427,0.14973 -0.52686,0.36977 -0.73064,0.62483 -0.159,0.21759 -0.24995,0.46271 -0.29715,0.72564 -0.0356,0.23973 0.0213,0.4704 0.10177,0.69455 0.1288,0.2681 0.32802,0.48512 0.53984,0.68936 0.31413,0.28351 0.68288,0.48632 1.05256,0.68594 0.46209,0.24644 0.95324,0.43184 1.43953,0.62391 0.51359,0.20387 1.034041,0.38861 1.554061,0.57506 0.52967,0.18984 1.05807,0.38321 1.58694,0.5753 0.53321,0.18279 1.05882,0.38655 1.58906,0.57754 0.47491,0.19147 0.95654,0.36306 1.44423,0.51859 2.70077,0.86143 2.29468,2.13459 -0.40608,1.27315 v 0 c -0.50341,-0.16059 -1.0011,-0.33657 -1.4912,-0.53453 -0.53125,-0.19153 -1.05802,-0.39539 -1.59226,-0.5787 -0.52716,-0.19149 -1.05385,-0.38428 -1.58184,-0.57346 -0.533361,-0.19136 -1.067131,-0.38106 -1.593951,-0.59009 -0.53561,-0.21167 -1.07564,-0.4178 -1.58374,-0.69106 -0.47869,-0.25879 -0.95059,-0.53198 -1.35115,-0.90574 -0.35899,-0.35388 -0.68423,-0.73957 -0.87108,-1.21473 -0.14888,-0.45088 -0.2342,-0.91358 -0.14692,-1.38803 0.1003,-0.47389 0.27002,-0.92059 0.57121,-1.30661 0.32885,-0.39887 0.7063,-0.74397 1.17266,-0.97793 0.49201,-0.24111 1.00801,-0.42651 1.55685,-0.48307 0.55144,-0.0452 1.10033,-0.0236 1.63729,0.12378 0.529831,0.15266 1.041141,0.35544 1.495921,0.67391 0.48117,0.34329 0.92099,0.73857 1.25473,1.23141 0.3564,0.53519 0.65088,1.10394 0.80253,1.73358 0.16025,0.65602 0.26095,1.32274 0.27022,1.99949 -0.003,0.7068 -0.0697,1.41159 -0.2448,2.09839 -0.17835,0.68462 -0.41386,1.35163 -0.75632,1.97334 -0.33239,0.58451 -0.70541,1.14872 -1.22635,1.58467 -0.47078,0.38391 -0.97018,0.72968 -1.553471,0.92102 -0.53745,0.1625 -1.08958,0.27662 -1.65472,0.23587 -0.54415,-0.0558 -1.0723,-0.18741 -1.55878,-0.44564 -0.47282,-0.25614 -0.91772,-0.56002 -1.3104,-0.92946 -0.38041,-0.36475 -0.74239,-0.74893 -1.04242,-1.18409 -0.27197,-0.3997 -0.52718,-0.81106 -0.71329,-1.25904 -0.16763,-0.39723 -0.32044,-0.80166 -0.36915,-1.23356 -0.0392,-0.31834 -0.0509,-0.63843 0.004,-0.9562 0.40091,-2.80633 1.72382,-2.61734 1.32292,0.18899 z"
       inkscape:connector-curvature="0" />
    <path
       style="opacity:1;fill:#000000;fill-opacity:1;fill-rule:nonzero;stroke:none;stroke-width:0.39700001;stroke-linecap:round;stroke-linejoin:round;stroke-miterlimit:4;stroke-dasharray:none;stroke-dashoffset:0;stroke-opacity:1;paint-order:markers fill stroke"
       id="path5232"
       d="m 99.276009,191.57838 c -0.0627,0.31255 -0.11439,0.62705 -0.17306,0.94038 -0.0767,0.46665 -0.16426,0.93137 -0.24286,1.39769 -0.0759,0.5113 -0.15711,1.02153 -0.24185,1.53143 -0.0687,0.36157 -0.0341,0.18268 -0.10375,0.5367 -0.54774,2.7814 -1.8589,2.52319 -1.31117,-0.25821 v 0 c 0.0661,-0.33568 0.0339,-0.16982 0.0966,-0.49757 0.0849,-0.51096 0.16614,-1.02226 0.24238,-1.53458 0.08,-0.47424 0.16886,-0.94691 0.24708,-1.42144 0.0551,-0.2944 0.1024,-0.59021 0.16366,-0.88338 0.4009,-2.80633 1.72382,-2.61735 1.32292,0.18898 z"
       inkscape:connector-curvature="0" />
    <path
       style="opacity:1;fill:#000000;fill-opacity:1;fill-rule:nonzero;stroke:none;stroke-width:0.39700001;stroke-linecap:round;stroke-linejoin:round;stroke-miterlimit:4;stroke-dasharray:none;stroke-dashoffset:0;stroke-opacity:1;paint-order:markers fill stroke"
       id="path5244"
       d="m 115.31218,211.89087 c -0.0314,0.27515 -0.0816,0.5479 -0.13863,0.81877 -0.0799,0.3875 -0.19673,0.76578 -0.33471,1.13616 -0.14187,0.41481 -0.36114,0.7923 -0.61059,1.15026 -0.27531,0.38377 -0.60746,0.72062 -0.95175,1.04196 -0.35923,0.33538 -0.73873,0.64767 -1.10709,0.97263 -0.39112,0.32639 -0.76818,0.66795 -1.13777,1.01834 -0.40028,0.36895 -0.77524,0.76295 -1.14021,1.1664 -0.37674,0.4077 -0.72726,0.83757 -1.0538,1.28619 -0.31921,0.45765 -0.60992,0.93431 -0.87684,1.42409 -0.25821,0.48481 -0.49461,0.9804 -0.683,1.49657 -0.16906,0.5003 -0.30802,1.01105 -0.40867,1.52944 -0.0908,0.50301 -0.15221,1.01014 -0.18625,1.51994 -0.0382,0.49361 -0.0381,0.98773 -0.028,1.48225 0.0214,0.53713 0.0132,1.07469 -0.0188,1.61115 -0.0315,0.5516 -0.12008,1.09728 -0.23373,1.63726 -0.10405,0.52169 -0.26773,1.02752 -0.44162,1.52922 -0.18437,0.51518 -0.41472,1.01221 -0.66504,1.49822 -0.26821,0.50706 -0.58348,0.98733 -0.90143,1.46415 -0.31277,0.46466 -0.63941,0.91975 -0.95339,1.38358 -0.29545,0.44187 -0.59836,0.87871 -0.87163,1.33484 -0.24512,0.4136 -0.43742,0.85427 -0.61158,1.30141 -0.16942,0.4365 -0.26398,0.89689 -0.35544,1.35466 -0.0828,0.4382 -0.1047,0.88248 -0.11748,1.32706 -0.008,0.458 0.0464,0.91236 0.11077,1.36474 0.0668,0.47294 0.22023,0.92458 0.39632,1.36632 0.19667,0.49067 0.46803,0.94431 0.74951,1.38981 0.29318,0.46618 0.63698,0.8968 1.00108,1.30889 0.34624,0.39487 0.74984,0.72698 1.17523,1.03184 0.4149,0.29258 0.87019,0.51673 1.34395,0.69523 0.50298,0.19195 1.02823,0.302 1.55643,0.396 0.56733,0.0968 1.14325,0.12913 1.71694,0.16499 0.5985,0.0169 1.19784,0.0238 1.79642,0.007 0.60257,-0.0242 1.20488,-0.0544 1.80738,-0.0803 0.5858,-0.025 1.17181,-0.0448 1.75786,-0.0627 0.58363,-0.0232 1.16768,-0.003 1.74996,0.038 0.58339,0.0366 1.14453,0.18841 1.68777,0.39626 0.48266,0.20514 0.9312,0.47801 1.34818,0.79426 0.39628,0.30936 0.71065,0.69901 0.99157,1.112 0.26842,0.41076 0.47458,0.85646 0.63944,1.31743 0.15569,0.46867 0.25455,0.95187 0.32088,1.44036 0.0587,0.48063 0.0948,0.96363 0.12846,1.44654 0.0337,0.49473 0.0582,0.99 0.0804,1.48535 0.0227,0.48665 0.06,0.97357 0.11711,1.45747 0.0398,0.4668 0.14105,0.92092 0.26038,1.37256 0.11885,0.44252 0.28524,0.86643 0.48489,1.27796 0.21572,0.43877 0.48768,0.84562 0.77857,1.23738 0.30988,0.40087 0.64076,0.78548 0.99042,1.15211 0.35832,0.34926 0.75812,0.65047 1.164,0.94141 0.41646,0.28704 0.85839,0.53548 1.30567,0.77079 0.45353,0.22311 0.92513,0.40873 1.40938,0.55304 0.5007,0.14405 1.01483,0.22066 1.53114,0.28033 0.55009,0.0621 1.10466,0.0689 1.65757,0.082 0.56093,0.0124 1.12192,0.021 1.68292,0.0289 0.56263,0.005 1.12482,0.0102 1.68676,0.0393 0.59712,0.0276 1.18151,0.14008 1.7616,0.27679 0.58473,0.13699 1.13559,0.37228 1.67083,0.63948 0.50826,0.26804 0.98176,0.59562 1.44364,0.93588 0.42962,0.32694 0.84361,0.67436 1.25154,1.02788 0.31637,0.28836 0.66613,0.53129 1.03919,0.73929 0.26722,0.14396 0.55819,0.22064 0.86008,0.23442 0.34387,0.003 0.66482,-0.12143 0.97567,-0.2554 0.52023,-0.23061 0.99925,-0.5377 1.47436,-0.84784 0.65643,-0.43158 1.28275,-0.906 1.92052,-1.36406 0.79419,-0.55501 1.59449,-1.10133 2.40227,-1.63639 0.9,-0.57801 1.84031,-1.08782 2.7842,-1.58936 0.97522,-0.51654 1.98952,-0.95163 3.01839,-1.34826 1.01618,-0.39951 2.05723,-0.72883 3.10571,-1.03136 0.99789,-0.28387 2.01692,-0.48636 3.04075,-0.64968 0.96653,-0.15026 1.94163,-0.23251 2.91798,-0.28198 0.90332,-0.0499 1.80741,-0.0375 2.71076,-8e-4 0.83514,0.0423 1.6646,0.15473 2.48873,0.29244 0.74123,0.12385 1.47487,0.28844 2.20318,0.47266 0.65265,0.1642 1.30241,0.34034 1.94684,0.53436 0.58415,0.16396 1.1468,0.39082 1.70522,0.62557 0.48438,0.21684 0.96093,0.45111 1.43394,0.69163 0.40475,0.2159 0.82695,0.3942 1.25697,0.55256 0.4456,0.16335 0.90719,0.27468 1.36961,0.37805 0.49675,0.0987 1.00137,0.1368 1.50691,0.14337 0.61946,0.005 1.23722,-0.0524 1.85168,-0.12548 0.71748,-0.10007 1.43076,-0.22825 2.13836,-0.38311 0.77617,-0.16325 1.54149,-0.37239 2.3062,-0.58164 0.75305,-0.20434 1.49251,-0.45261 2.22834,-0.71103 0.67761,-0.23238 1.32789,-0.53273 1.97282,-0.84234 0.56841,-0.28895 1.12475,-0.60109 1.65941,-0.94862 0.49905,-0.31017 0.96266,-0.67093 1.42515,-1.03192 0.43302,-0.34165 0.83853,-0.71613 1.2309,-1.10326 0.39591,-0.38428 0.75243,-0.8047 1.09725,-1.23447 0.32229,-0.38704 0.57638,-0.81726 0.79587,-1.26852 0.18059,-0.3915 0.28168,-0.80792 0.35079,-1.23125 0.0544,-0.40821 0.0159,-0.82055 -0.049,-1.22495 -0.0931,-0.46838 -0.22065,-0.92897 -0.37261,-1.38142 -0.18317,-0.52114 -0.35121,-1.04731 -0.48004,-1.58457 -0.13546,-0.54461 -0.18486,-1.10063 -0.18644,-1.66015 -0.001,-0.58873 0.15762,-1.14577 0.37789,-1.68562 0.25169,-0.5638 0.61441,-1.05932 1.02896,-1.51249 0.42905,-0.46324 0.93251,-0.84434 1.45489,-1.19478 0.54287,-0.35896 1.13531,-0.62932 1.73722,-0.87165 0.60474,-0.23551 1.23766,-0.37044 1.8749,-0.48058 0.64362,-0.10489 1.29522,-0.11551 1.94543,-0.10362 0.65542,0.0126 1.30883,0.0708 1.96048,0.13867 0.66239,0.0638 1.3232,0.13972 1.98364,0.22097 0.64101,0.0599 1.28396,0.1041 1.92761,0.12004 0.63099,0.0165 1.2614,-0.0269 1.88825,-0.0954 0.65711,-0.0764 1.29698,-0.24605 1.92831,-0.43804 0.72995,-0.22983 1.44361,-0.50781 2.14611,-0.81048 0.79961,-0.35175 1.57537,-0.75234 2.34494,-1.16469 0.8593,-0.4526 1.70224,-0.93483 2.54345,-1.41993 0.90468,-0.51188 1.79569,-1.04728 2.69602,-1.56668 0.90901,-0.51561 1.81743,-1.03223 2.73332,-1.53555 0.84313,-0.46583 1.68762,-0.92924 2.53567,-1.38605 0.75085,-0.3933 1.50078,-0.78853 2.26017,-1.16517 0.6435,-0.3318 1.2943,-0.64974 1.92944,-0.99743 0.56278,-0.29999 1.10943,-0.62883 1.64265,-0.97837 0.48891,-0.31976 0.93256,-0.7038 1.34651,-1.11463 0.43515,-0.43016 0.80414,-0.91829 1.15737,-1.41591 0.36197,-0.51679 0.6457,-1.07968 0.89363,-1.65811 0.26802,-0.619 0.44712,-1.26793 0.57649,-1.92835 0.12866,-0.68674 0.10687,-1.37946 0.009,-2.06725 -0.10337,-0.73563 -0.38334,-1.41427 -0.7381,-2.06023 -0.42408,-0.73793 -1.00101,-1.36553 -1.59931,-1.96383 -0.72147,-0.69858 -1.52796,-1.29793 -2.34496,-1.87827 -0.91781,-0.63966 -1.88973,-1.1966 -2.87353,-1.72719 -1.04927,-0.56284 -2.13324,-1.05545 -3.22583,-1.52709 -1.10696,-0.4713 -2.2222,-0.92312 -3.33813,-1.37274 -1.04828,-0.43278 -2.09804,-0.86215 -3.13632,-1.31853 -0.93501,-0.40019 -1.85421,-0.83519 -2.75347,-1.31006 -0.78413,-0.4076 -1.51823,-0.89779 -2.21486,-1.43955 -0.59162,-0.46318 -1.07309,-1.03257 -1.48591,-1.6559 -0.37402,-0.59494 -0.54905,-1.26187 -0.63306,-1.95165 -0.0712,-0.70256 0.0683,-1.39146 0.25983,-2.06314 0.23199,-0.71955 0.5729,-1.39456 0.93208,-2.05722 0.40002,-0.70323 0.84103,-1.38229 1.28647,-2.05735 0.44089,-0.66634 0.8836,-1.33194 1.31403,-2.00513 0.41729,-0.64397 0.81049,-1.303 1.16493,-1.98359 0.34842,-0.65159 0.6467,-1.32795 0.89612,-2.02311 0.22954,-0.65666 0.37982,-1.33623 0.48858,-2.02218 0.0919,-0.67674 0.10742,-1.35979 0.0789,-2.04118 -0.018,-0.72193 -0.14656,-1.43174 -0.28478,-2.13821 -0.14258,-0.73035 -0.36327,-1.44086 -0.60841,-2.14228 -0.25777,-0.7014 -0.56311,-1.38452 -0.88174,-2.06008 -0.31829,-0.65051 -0.66809,-1.28537 -1.026,-1.9148 -0.34469,-0.61914 -0.70849,-1.22731 -1.06128,-1.84182 -0.34428,-0.59107 -0.68267,-1.18536 -0.99456,-1.79422 -0.31566,-0.58391 -0.58188,-1.1908 -0.82143,-1.80919 -0.23013,-0.60387 -0.44065,-1.214 -0.62715,-1.83267 -0.18772,-0.59134 -0.35649,-1.18835 -0.53202,-1.78335 -0.16636,-0.52883 -0.34505,-1.05369 -0.55845,-1.56547 -0.18247,-0.47184 -0.42168,-0.91656 -0.69617,-1.34042 -0.26857,-0.41345 -0.61125,-0.76983 -0.97169,-1.10325 -0.40148,-0.36153 -0.86716,-0.64138 -1.34172,-0.89515 -0.56984,-0.28885 -1.16426,-0.5257 -1.7669,-0.73615 -0.66656,-0.23027 -1.35302,-0.39379 -2.04093,-0.54517 -0.72152,-0.16909 -1.44732,-0.3176 -2.17611,-0.45147 -0.70648,-0.14196 -1.41481,-0.27416 -2.12131,-0.41596 -0.67748,-0.14294 -1.35005,-0.30695 -2.02354,-0.46719 -0.62393,-0.16063 -1.24999,-0.31223 -1.87231,-0.479 -0.56646,-0.15167 -1.12958,-0.31469 -1.69856,-0.4569 -0.54751,-0.14995 -1.09807,-0.28744 -1.65246,-0.40941 -0.5462,-0.12001 -1.09865,-0.20745 -1.65222,-0.28505 -0.57829,-0.0699 -1.16002,-0.0911 -1.74194,-0.0796 -0.64847,0.009 -1.29153,0.0891 -1.93195,0.18413 -0.68023,0.11159 -1.35018,0.27935 -2.01261,0.46834 -0.71139,0.20714 -1.40191,0.47703 -2.08486,0.76256 -0.7102,0.32137 -1.39399,0.69715 -2.06894,1.08611 -0.67505,0.392 -1.32601,0.82303 -1.96872,1.26546 -0.61654,0.43334 -1.22561,0.87709 -1.8355,1.3197 -0.54497,0.41391 -1.09278,0.82401 -1.65095,1.21999 -0.50656,0.37859 -1.03401,0.72751 -1.56226,1.0747 -0.5246,0.3595 -1.07458,0.67978 -1.62261,1.00178 -0.5383,0.32656 -1.09091,0.62805 -1.63953,0.93653 -0.52147,0.28967 -1.03969,0.58513 -1.56841,0.86147 -0.53913,0.27809 -1.12279,0.43732 -1.7198,0.52642 -0.55943,0.0748 -1.11066,-0.0182 -1.65417,-0.14422 -0.50155,-0.12739 -0.98649,-0.31011 -1.46562,-0.50369 -0.45225,-0.18053 -0.9032,-0.36423 -1.36179,-0.52819 -0.41969,-0.15575 -0.85316,-0.26148 -1.29847,-0.30423 -0.41502,-0.0385 -0.83051,-0.0188 -1.2398,0.0562 -0.39813,0.0603 -0.76939,0.20714 -1.13007,0.37986 -0.38992,0.19437 -0.73772,0.45283 -1.0716,0.72974 -0.39953,0.34594 -0.75259,0.73997 -1.08793,1.14715 -0.42968,0.50117 -0.78539,1.05741 -1.14589,1.60854 -0.43882,0.66316 -0.84498,1.34631 -1.24027,2.03596 -0.43457,0.76502 -0.86486,1.53239 -1.27811,2.30914 -0.4262,0.80556 -0.87079,1.60106 -1.30733,2.401 -0.43142,0.79823 -0.88639,1.58215 -1.37917,2.34398 -0.48078,0.74732 -1.01356,1.45773 -1.56228,2.15588 -0.52136,0.65879 -1.07335,1.29303 -1.63954,1.9135 -0.52637,0.57553 -1.07687,1.12832 -1.64019,1.66753 -0.53625,0.50411 -1.07505,1.0055 -1.61113,1.5098 -0.54047,0.50225 -1.07083,1.01471 -1.58258,1.5462 -0.56555,0.5606 -1.08907,1.1605 -1.60092,1.76983 -0.5419,0.64646 -1.06437,1.30891 -1.57956,1.97675 -0.53773,0.6816 -1.03707,1.3919 -1.53271,2.1043 -0.50463,0.70851 -0.98888,1.43102 -1.48031,2.14866 -0.48043,0.70225 -0.98611,1.38656 -1.50103,2.06376 -0.48552,0.63077 -0.99434,1.24357 -1.5112,1.84882 -0.47374,0.55515 -0.99252,1.06782 -1.53078,1.55968 -0.50091,0.46178 -1.06562,0.84175 -1.63968,1.20482 -0.58336,0.36743 -1.2236,0.6196 -1.87812,0.82641 -0.65269,0.21043 -1.33387,0.28298 -2.01457,0.32704 -0.65764,0.0349 -1.31433,-0.0111 -1.96867,-0.073 -0.63453,-0.0695 -1.26367,-0.17618 -1.89275,-0.28259 -0.58955,-0.11501 -1.17901,-0.22987 -1.77115,-0.33087 -0.54342,-0.0931 -1.0891,-0.16861 -1.63861,-0.21326 -0.50399,-0.0502 -1.00916,-0.0453 -1.51408,-0.0189 -0.50714,0.0345 -1.00822,0.1097 -1.50669,0.20639 -0.52206,0.0901 -1.03031,0.24086 -1.53729,0.39152 -0.50072,0.15835 -0.99119,0.346 -1.48174,0.53285 -0.37813,0.16077 -0.7631,0.30505 -1.13726,0.47496 -2.58342,1.1671 -3.1336,-0.0507 -0.55018,-1.21784 v 0 c 0.39931,-0.17963 0.80797,-0.33681 1.21179,-0.50596 0.5218,-0.19874 1.04373,-0.39783 1.57676,-0.56501 0.54861,-0.163 1.09908,-0.32416 1.66378,-0.42248 0.55953,-0.10825 1.12248,-0.19135 1.6917,-0.22899 0.56425,-0.029 1.12895,-0.0334 1.69212,0.0216 0.58829,0.0484 1.17275,0.12775 1.75452,0.22786 0.59147,0.101 1.18048,0.21474 1.76922,0.33055 0.59699,0.10098 1.1939,0.20278 1.79594,0.26983 0.58404,0.0555 1.16997,0.0992 1.75711,0.0698 0.57363,-0.0364 1.14868,-0.0909 1.69905,-0.2682 0.54502,-0.17056 1.07927,-0.37654 1.56537,-0.68143 0.50799,-0.32053 1.00927,-0.65378 1.45251,-1.06203 0.49796,-0.45401 0.97744,-0.92774 1.41554,-1.44057 0.50055,-0.58597 0.99329,-1.17927 1.46364,-1.78983 0.50159,-0.65953 0.9942,-1.32598 1.46217,-2.00994 0.49332,-0.72034 0.97944,-1.44559 1.48595,-2.15684 0.50822,-0.73035 1.02046,-1.45839 1.5716,-2.15735 0.52663,-0.68249 1.0606,-1.35954 1.61453,-2.02017 0.53152,-0.6323 1.07498,-1.255 1.66163,-1.83728 0.52726,-0.54696 1.0726,-1.07542 1.6293,-1.59238 0.53335,-0.50173 1.06935,-1.00062 1.60298,-1.50206 0.54186,-0.5181 1.07083,-1.04984 1.5771,-1.60295 0.54437,-0.59591 1.07452,-1.20562 1.57584,-1.83834 0.52359,-0.6659 1.03242,-1.34312 1.491,-2.05611 0.47508,-0.73355 0.91219,-1.48928 1.328,-2.25802 0.43428,-0.79581 0.87659,-1.58719 1.30063,-2.38857 0.41992,-0.7891 0.85684,-1.56883 1.29846,-2.34598 0.40833,-0.71236 0.82821,-1.41783 1.28132,-2.10293 0.38751,-0.59241 0.77226,-1.18855 1.23355,-1.72761 0.38996,-0.47166 0.80093,-0.9276 1.26685,-1.32628 0.41954,-0.34624 0.85947,-0.66623 1.34967,-0.90695 0.46974,-0.22198 0.95477,-0.40818 1.47105,-0.48886 0.53198,-0.0917 1.07056,-0.12314 1.60921,-0.0696 0.55167,0.0594 1.0917,0.18009 1.61225,0.37544 0.47555,0.1705 0.94376,0.35987 1.41271,0.5476 0.41453,0.16815 0.83392,0.32736 1.26719,0.44085 0.38122,0.0892 0.76625,0.17045 1.16033,0.12314 0.44855,-0.0616 0.88663,-0.18305 1.2921,-0.38835 0.51677,-0.26959 1.02253,-0.55932 1.53226,-0.84188 0.54133,-0.30409 1.08636,-0.6017 1.6174,-0.92381 0.52877,-0.31052 1.05959,-0.61913 1.56548,-0.96625 0.51509,-0.33856 1.02952,-0.6786 1.52325,-1.04807 0.55436,-0.39291 1.09753,-0.80105 1.63904,-1.21144 0.6189,-0.44915 1.23698,-0.89947 1.86278,-1.33899 0.67224,-0.46253 1.35322,-0.91295 2.05933,-1.32261 0.72405,-0.41688 1.45778,-0.81943 2.22084,-1.1612 0.73177,-0.30545 1.47177,-0.59373 2.2341,-0.81477 0.71843,-0.2041 1.44475,-0.38591 2.18262,-0.50497 0.69713,-0.1032 1.39736,-0.18876 2.10314,-0.19834 0.65225,-0.0113 1.30445,0.0115 1.9524,0.0924 0.58762,0.0826 1.17403,0.17574 1.75381,0.30335 0.56668,0.12488 1.12973,0.2645 1.68935,0.41808 0.57617,0.14422 1.14667,0.30851 1.72022,0.46251 0.61016,0.16354 1.22404,0.31195 1.8357,0.46975 0.65811,0.15659 1.31528,0.31695 1.9772,0.45702 0.69936,0.14037 1.40054,0.27112 2.09985,0.41184 0.74413,0.1368 1.4853,0.28815 2.22203,0.46074 0.74005,0.16314 1.4782,0.34049 2.19507,0.58896 0.66807,0.23442 1.32736,0.49721 1.95807,0.82038 0.57373,0.30978 1.13505,0.65166 1.61856,1.09317 0.44063,0.41085 0.85771,0.85029 1.18558,1.35867 0.31543,0.4919 0.59488,1.00528 0.8067,1.55115 0.23054,0.55627 0.42715,1.12534 0.60618,1.70023 0.17482,0.59259 0.34288,1.18718 0.52986,1.77612 0.17632,0.58613 0.37617,1.16383 0.59392,1.73591 0.22225,0.57547 0.47045,1.13964 0.7647,1.6825 0.30164,0.59005 0.6309,1.16494 0.96393,1.73775 0.35363,0.61619 0.71856,1.22587 1.06407,1.84671 0.37454,0.65913 0.74073,1.32385 1.07303,2.00543 0.33816,0.71792 0.66233,1.44378 0.93467,2.18956 0.26538,0.76165 0.50386,1.53323 0.65818,2.3261 0.15111,0.77325 0.28782,1.55069 0.30852,2.34058 0.0302,0.77015 0.0131,1.54214 -0.0946,2.30657 -0.12403,0.76792 -0.29166,1.52911 -0.55092,2.26396 -0.27173,0.75103 -0.59106,1.48374 -0.96854,2.18819 -0.37365,0.7149 -0.78474,1.40895 -1.22402,2.0856 -0.4342,0.67829 -0.87982,1.34952 -1.32436,2.02104 -0.4244,0.64295 -0.84462,1.28966 -1.22724,1.95858 -0.3137,0.5775 -0.61382,1.16431 -0.82244,1.7895 -0.14557,0.50022 -0.26279,1.01364 -0.21671,1.53862 0.053,0.48355 0.16664,0.95229 0.42257,1.37277 0.32794,0.50443 0.71624,0.96108 1.19051,1.33563 0.63376,0.49506 1.30348,0.94049 2.01785,1.31213 0.87057,0.46055 1.76151,0.88037 2.66687,1.26821 1.02548,0.45097 2.06257,0.8746 3.09789,1.30235 1.12608,0.45371 2.25146,0.90969 3.36845,1.38538 1.1282,0.48723 2.24734,0.99647 3.33075,1.57794 1.03173,0.5571 2.05092,1.14183 3.01299,1.81392 0.87791,0.62414 1.74311,1.27059 2.51664,2.02348 0.6872,0.68957 1.34445,1.41648 1.827,2.26856 0.42758,0.78997 0.76441,1.61979 0.88834,2.51637 0.11305,0.83562 0.13821,1.67708 -0.0218,2.51006 -0.1503,0.75202 -0.3534,1.49197 -0.65988,2.19702 -0.28681,0.66413 -0.6141,1.31062 -1.03163,1.90367 -0.39846,0.56071 -0.81727,1.10861 -1.30802,1.59306 -0.47922,0.47108 -0.98869,0.91446 -1.55321,1.28159 -0.56314,0.3685 -1.13974,0.71627 -1.73376,1.03299 -0.65116,0.35557 -1.31708,0.68301 -1.97686,1.02214 -0.74601,0.36975 -1.48239,0.75844 -2.22009,1.14444 -0.84477,0.45499 -1.68593,0.91669 -2.52579,1.38068 -0.90781,0.49884 -1.80815,1.01099 -2.70917,1.52196 -0.90043,0.51935 -1.7914,1.05492 -2.69618,1.56676 -0.85326,0.49205 -1.70838,0.98101 -2.57993,1.44022 -0.80321,0.43028 -1.61324,0.8477 -2.44796,1.21433 -0.74858,0.32156 -1.50845,0.61816 -2.28636,0.86173 -0.71115,0.21514 -1.43212,0.40359 -2.17218,0.48778 -0.6861,0.0738 -1.37586,0.12147 -2.06639,0.10275 -0.68673,-0.0181 -1.37283,-0.0633 -2.05659,-0.1296 -0.65224,-0.0802 -1.30484,-0.15528 -1.95903,-0.21817 -0.61389,-0.064 -1.22939,-0.11969 -1.84684,-0.1317 -0.56587,-0.0108 -1.133,-0.005 -1.69351,0.0844 -0.54464,0.0936 -1.08617,0.20435 -1.60384,0.40372 -0.5165,0.20688 -1.02594,0.43601 -1.4924,0.74243 -0.43623,0.29064 -0.85776,0.60587 -1.21637,0.99095 -0.312,0.33275 -0.58042,0.70127 -0.77525,1.11568 -0.15819,0.37651 -0.27622,0.76257 -0.27665,1.17564 -0.002,0.45577 0.0402,0.90776 0.15032,1.35135 0.11689,0.49908 0.27956,0.98545 0.44722,1.4695 0.17432,0.52364 0.323,1.05614 0.42554,1.59887 0.0835,0.54558 0.12892,1.10013 0.0471,1.64937 -0.0922,0.55082 -0.22971,1.09213 -0.4686,1.59984 -0.26453,0.53907 -0.56994,1.05427 -0.95429,1.51817 -0.37746,0.47015 -0.76873,0.92924 -1.20159,1.34999 -0.42949,0.42254 -0.87259,0.83197 -1.3465,1.20472 -0.49322,0.38497 -0.98863,0.76832 -1.52036,1.09974 -0.58321,0.37734 -1.18802,0.7195 -1.80835,1.03219 -0.68909,0.33047 -1.38433,0.65 -2.10812,0.89835 -0.76552,0.26884 -1.53505,0.52648 -2.31844,0.73915 -0.78709,0.21537 -1.57495,0.43009 -2.3738,0.59825 -0.75002,0.16343 -1.50576,0.30017 -2.26637,0.40462 -0.67335,0.0793 -1.35021,0.1412 -2.02898,0.13459 -0.59684,-0.0101 -1.19286,-0.0549 -1.7787,-0.17551 -0.52036,-0.1167 -1.03932,-0.24395 -1.54054,-0.42851 -0.47873,-0.17722 -0.94932,-0.37539 -1.40049,-0.61534 -0.44371,-0.22636 -0.89152,-0.44529 -1.3454,-0.65054 -0.51528,-0.21665 -1.0338,-0.42776 -1.57321,-0.57806 -0.6251,-0.18893 -1.25594,-0.35858 -1.88908,-0.51834 -0.69274,-0.17576 -1.39077,-0.33199 -2.09584,-0.45011 -0.76898,-0.1292 -1.54306,-0.23435 -2.32232,-0.27518 -0.86287,-0.0352 -1.7264,-0.0477 -2.58926,2e-4 -0.92859,0.0463 -1.85596,0.12488 -2.77525,0.26709 -0.96985,0.15365 -1.93499,0.34605 -2.88031,0.61394 -1.01139,0.29147 -2.01557,0.60891 -2.99567,0.99438 -0.97891,0.37669 -1.94382,0.79038 -2.87169,1.28133 -0.90593,0.4813 -1.80879,0.96976 -2.67329,1.52337 -0.79381,0.52572 -1.58014,1.06266 -2.36076,1.60776 -0.65401,0.46947 -1.29613,0.95593 -1.96964,1.39769 -0.54153,0.35328 -1.08976,0.69943 -1.68382,0.95937 -0.50566,0.21125 -1.02869,0.38394 -1.58491,0.35816 -0.50021,-0.0386 -0.98416,-0.15647 -1.42601,-0.40264 -0.45055,-0.25441 -0.87658,-0.54643 -1.26054,-0.89503 -0.38098,-0.33083 -0.76828,-0.65523 -1.16905,-0.96185 -0.40021,-0.29552 -0.80989,-0.58091 -1.24888,-0.8165 -0.4419,-0.22215 -0.89583,-0.41982 -1.3793,-0.53372 -0.50203,-0.11861 -1.00674,-0.21979 -1.52391,-0.24287 -0.54518,-0.0284 -1.09063,-0.0323 -1.63647,-0.0376 -0.56526,-0.008 -1.13051,-0.0166 -1.69569,-0.0291 -0.59382,-0.0141 -1.1893,-0.0228 -1.77999,-0.0905 -0.59471,-0.0693 -1.18675,-0.16073 -1.76297,-0.32835 -0.56521,-0.17211 -1.11798,-0.38484 -1.64646,-0.65022 -0.50119,-0.26452 -0.9964,-0.54351 -1.46202,-0.86746 -0.47329,-0.34025 -0.93871,-0.69375 -1.35279,-1.10582 -0.38673,-0.4073 -0.75465,-0.83267 -1.09655,-1.27843 -0.33915,-0.45977 -0.65676,-0.93649 -0.90769,-1.45113 -0.23527,-0.48915 -0.43332,-0.99273 -0.5736,-1.51802 -0.13521,-0.51284 -0.24791,-1.02951 -0.29565,-1.55893 -0.0594,-0.51554 -0.1014,-1.03375 -0.12474,-1.55215 -0.0218,-0.48438 -0.0457,-0.96868 -0.0785,-1.45245 -0.0316,-0.45444 -0.0653,-0.90896 -0.11977,-1.36135 -0.0529,-0.39838 -0.13269,-0.79211 -0.25708,-1.175 -0.12182,-0.35512 -0.28507,-0.69528 -0.48607,-1.01267 -0.19755,-0.29503 -0.41675,-0.5757 -0.69614,-0.7987 -0.31394,-0.24298 -0.65595,-0.44711 -1.01855,-0.60943 -0.4174,-0.16396 -0.84977,-0.28066 -1.29943,-0.30953 -0.53742,-0.038 -1.07651,-0.0571 -1.61521,-0.0354 -0.58052,0.0178 -1.161,0.0373 -1.74127,0.0621 -0.60961,0.0262 -1.21902,0.0569 -1.82871,0.081 -0.63846,0.0168 -1.2777,0.0115 -1.91601,-0.009 -0.62442,-0.0391 -1.25101,-0.0762 -1.86827,-0.18317 -0.61013,-0.10917 -1.21621,-0.24066 -1.79698,-0.46261 -0.58088,-0.22283 -1.14059,-0.49745 -1.64901,-0.85937 -0.50555,-0.36484 -0.98528,-0.76257 -1.3974,-1.23307 -0.41007,-0.4663 -0.79817,-0.95255 -1.1287,-1.47935 -0.325,-0.51569 -0.63536,-1.04234 -0.86157,-1.61033 -0.21332,-0.54029 -0.39656,-1.09321 -0.47714,-1.67091 -0.0748,-0.52745 -0.13419,-1.05766 -0.1235,-1.59151 0.0152,-0.5196 0.0447,-1.03886 0.14292,-1.55063 0.10712,-0.53407 0.22171,-1.06978 0.421,-1.57849 0.20227,-0.51669 0.42622,-1.02551 0.71066,-1.50314 0.28664,-0.47649 0.60093,-0.93488 0.9109,-1.39637 0.31247,-0.46107 0.63672,-0.91399 0.94815,-1.37578 0.29049,-0.43523 0.57924,-0.8732 0.82557,-1.33537 0.22196,-0.42914 0.42571,-0.86835 0.58995,-1.32312 0.15571,-0.44906 0.3045,-0.90114 0.39689,-1.36836 0.1014,-0.47525 0.17892,-0.95595 0.20721,-1.44161 0.0312,-0.50038 0.0361,-1.00195 0.0166,-1.50297 -0.0107,-0.53346 -0.01,-1.06661 0.0308,-1.59907 0.0385,-0.56617 0.10617,-1.12958 0.20836,-1.68803 0.11676,-0.58723 0.27043,-1.16712 0.46588,-1.73331 0.21386,-0.57652 0.47268,-1.13362 0.76411,-1.67517 0.29548,-0.54024 0.61581,-1.06687 0.96992,-1.57095 0.35492,-0.48608 0.73405,-0.95329 1.14272,-1.39553 0.38799,-0.42867 0.78677,-0.84718 1.21179,-1.23966 0.38139,-0.36144 0.77015,-0.71429 1.17363,-1.0511 0.35972,-0.31662 0.72939,-0.62187 1.08038,-0.94845 0.27733,-0.25691 0.5456,-0.52607 0.7689,-0.83235 0.18792,-0.26353 0.3492,-0.54366 0.45284,-0.85192 0.11706,-0.30704 0.21112,-0.62269 0.27854,-0.94443 0.0523,-0.24085 0.0946,-0.48409 0.12265,-0.72897 0.4009,-2.80633 1.72382,-2.61734 1.32292,0.18899 z"
       inkscape:connector-curvature="0" />
    <path
       style="opacity:1;fill:#000000;fill-opacity:1;fill-rule:nonzero;stroke:none;stroke-width:0.39700001;stroke-linecap:round;stroke-linejoin:round;stroke-miterlimit:4;stroke-dasharray:none;stroke-dashoffset:0;stroke-opacity:1;paint-order:markers fill stroke"
       id="path5246"
       d="m 135.3343,240.22405 c 0.39332,-0.15321 0.78559,-0.30911 1.17835,-0.46378 0.72562,-0.27674 1.4481,-0.56164 2.17371,-0.83842 0.82008,-0.31503 1.6403,-0.62972 2.45934,-0.94745 0.73188,-0.27716 1.46368,-0.55453 2.18683,-0.85393 0.0951,-0.0387 0.19019,-0.0774 0.28529,-0.11604 2.62595,-1.06799 3.12941,0.16989 0.50346,1.23788 v 0 c -0.0926,0.0376 -0.18518,0.0753 -0.27776,0.11296 -0.73244,0.30296 -1.47324,0.58466 -2.21455,0.86504 -0.8214,0.31859 -1.64393,0.63425 -2.46638,0.95015 -0.72114,0.27502 -1.43912,0.55829 -2.1603,0.83322 -0.39954,0.15733 -0.79855,0.31602 -1.19877,0.47163 -2.65433,0.99537 -3.12355,-0.25589 -0.46922,-1.25126 z"
       inkscape:connector-curvature="0" />
    <path
       style="opacity:1;fill:#000000;fill-opacity:1;fill-rule:nonzero;stroke:none;stroke-width:0.39700001;stroke-linecap:round;stroke-linejoin:round;stroke-miterlimit:4;stroke-dasharray:none;stroke-dashoffset:0;stroke-opacity:1;paint-order:markers fill stroke"
       id="path5248"
       d="m 140.18406,241.90334 c 0.0518,0.34357 0.10027,0.68736 0.13867,1.03283 0.0602,0.58191 0.0962,1.16596 0.12924,1.74993 0.0334,0.64839 0.0942,1.29505 0.14452,1.94229 0.0521,0.58499 0.0686,1.17303 0.13123,1.75703 0.0337,0.25271 0.0159,0.13091 0.0526,0.36548 0.43512,2.80124 -0.88539,3.00635 -1.32051,0.20512 v 0 c -0.0427,-0.27643 -0.0221,-0.13288 -0.0611,-0.43075 -0.0618,-0.59634 -0.0839,-1.19594 -0.13454,-1.79328 -0.0511,-0.6566 -0.11266,-1.31261 -0.14641,-1.97038 -0.0317,-0.56002 -0.066,-1.12013 -0.12324,-1.67822 -0.0366,-0.33153 -0.0832,-0.66141 -0.13338,-0.99106 -0.4009,-2.80633 0.92201,-2.99532 1.32292,-0.18899 z"
       inkscape:connector-curvature="0" />
    <path
       style="opacity:1;fill:#000000;fill-opacity:1;fill-rule:nonzero;stroke:none;stroke-width:0.39700001;stroke-linecap:round;stroke-linejoin:round;stroke-miterlimit:4;stroke-dasharray:none;stroke-dashoffset:0;stroke-opacity:1;paint-order:markers fill stroke"
       id="path5250"
       d="m 142.58829,241.73056 c 0.011,0.29171 0.0354,0.58399 0.0642,0.87467 0.0559,0.53565 0.10246,1.07205 0.16209,1.60731 0.0632,0.64061 0.13723,1.27979 0.21356,1.91894 0.0786,0.65631 0.14352,1.31414 0.20282,1.97245 0.0427,0.41529 0.0547,0.83278 0.0674,1.24979 0.0864,2.8335 -1.24936,2.87422 -1.33573,0.0407 v 0 c -0.0119,-0.39058 -0.0223,-0.78169 -0.0626,-1.17064 -0.0581,-0.64543 -0.12169,-1.29038 -0.19878,-1.93385 -0.0767,-0.64265 -0.15122,-1.28536 -0.21478,-1.92948 -0.0603,-0.54124 -0.10752,-1.0836 -0.16396,-1.62523 -0.0323,-0.33394 -0.061,-0.66936 -0.0706,-1.00467 0,-2.83482 1.33635,-2.83482 1.33635,0 z"
       inkscape:connector-curvature="0" />
    <path
       style="opacity:1;fill:#000000;fill-opacity:1;fill-rule:nonzero;stroke:none;stroke-width:0.39700001;stroke-linecap:round;stroke-linejoin:round;stroke-miterlimit:4;stroke-dasharray:none;stroke-dashoffset:0;stroke-opacity:1;paint-order:markers fill stroke"
       id="path5252"
       d="m 137.40825,256.28031 c 0.35498,-0.17333 0.72209,-0.31826 1.08926,-0.46317 0.64005,-0.257 1.29093,-0.48528 1.93761,-0.72475 0.80566,-0.29626 1.62016,-0.56701 2.43538,-0.83549 0.83514,-0.27536 1.67253,-0.54311 2.51662,-0.78975 0.52993,-0.14859 0.26554,-0.078 0.79313,-0.21185 2.74819,-0.69545 3.07602,0.60007 0.32783,1.29551 v 0 c -0.49008,0.12371 -0.24126,0.0576 -0.74627,0.19908 -0.82962,0.24226 -1.65248,0.50579 -2.47329,0.7763 -0.79979,0.26339 -1.59895,0.52882 -2.38939,0.81941 -0.6378,0.23613 -1.27975,0.46117 -1.91102,0.71458 -0.33084,0.13057 -0.66208,0.2598 -0.98223,0.4154 -2.53554,1.26777 -3.13317,0.0725 -0.59763,-1.19527 z"
       inkscape:connector-curvature="0" />
    <path
       style="opacity:1;fill:#000000;fill-opacity:1;fill-rule:nonzero;stroke:none;stroke-width:0.39700001;stroke-linecap:round;stroke-linejoin:round;stroke-miterlimit:4;stroke-dasharray:none;stroke-dashoffset:0;stroke-opacity:1;paint-order:markers fill stroke"
       id="path5254"
       d="m 14.906323,144.06249 c -0.174709,0.20395 -0.330949,0.42306 -0.481449,0.64524 -0.184245,0.27622 -0.317157,0.58046 -0.436767,0.88883 -0.130265,0.33445 -0.188312,0.68919 -0.227832,1.04402 -0.04283,0.45621 -0.03024,0.91581 -0.02806,1.3735 0.0029,0.49926 0.0057,0.99852 0.0082,1.49778 0.01399,2.83479 -1.322338,2.84138 -1.336331,0.007 v 0 c -0.0025,-0.49934 -0.0053,-0.99868 -0.0082,-1.49802 -0.0024,-0.51012 -0.01492,-1.02225 0.03656,-1.5305 0.05404,-0.46946 0.137332,-0.93716 0.310742,-1.37918 0.157346,-0.40128 0.33455,-0.79576 0.576543,-1.15435 0.175683,-0.25767 0.357093,-0.51223 0.559982,-0.74943 1.814808,-2.17777 2.841419,-1.32226 1.02661,0.85551 z"
       inkscape:connector-curvature="0" />
    <path
       style="opacity:1;fill:#000000;fill-opacity:1;fill-rule:nonzero;stroke:none;stroke-width:0.39700001;stroke-linecap:round;stroke-linejoin:round;stroke-miterlimit:4;stroke-dasharray:none;stroke-dashoffset:0;stroke-opacity:1;paint-order:markers fill stroke"
       id="path5256"
       d="m 13.722857,161.19873 c -0.05874,0.20584 -0.09265,0.4159 -0.110362,0.62877 -0.02789,0.2908 0.01453,0.58102 0.04805,0.86936 0.03537,0.31009 0.08352,0.61924 0.14518,0.92518 0.552375,2.78049 -0.758358,3.04088 -1.310733,0.2604 v 0 c -0.06707,-0.34143 -0.123284,-0.68547 -0.161866,-1.03135 -0.0439,-0.37811 -0.09006,-0.75859 -0.05194,-1.13959 0.02676,-0.29761 0.07405,-0.59218 0.156736,-0.87989 0.778785,-2.72575 2.063715,-2.35863 1.28493,0.36712 z"
       inkscape:connector-curvature="0" />
    <path
       style="opacity:1;fill:#000000;fill-opacity:1;fill-rule:nonzero;stroke:none;stroke-width:0.39700001;stroke-linecap:round;stroke-linejoin:round;stroke-miterlimit:4;stroke-dasharray:none;stroke-dashoffset:0;stroke-opacity:1;paint-order:markers fill stroke"
       id="path5258"
       d="m 16.092059,172.23642 c -0.0841,0.19724 -0.132052,0.40395 -0.16425,0.61493 -0.04531,0.31056 -0.03389,0.62554 -0.01539,0.9377 0.04172,0.40518 0.113011,0.80704 0.19307,1.20623 0.101035,0.50083 0.205778,1.00099 0.318622,1.49931 0.625084,2.76505 -0.678372,3.05972 -1.303455,0.29467 v 0 c -0.114998,-0.50949 -0.222632,-1.02065 -0.325715,-1.53266 -0.09123,-0.45983 -0.1742,-0.9225 -0.216601,-1.38972 -0.02347,-0.40782 -0.03241,-0.81882 0.02949,-1.22406 0.05169,-0.31978 0.127599,-0.63412 0.255931,-0.93281 1.116691,-2.60561 2.344989,-2.0792 1.228298,0.52641 z"
       inkscape:connector-curvature="0" />
    <path
       style="opacity:1;fill:#000000;fill-opacity:1;fill-rule:nonzero;stroke:none;stroke-width:0.39700001;stroke-linecap:round;stroke-linejoin:round;stroke-miterlimit:4;stroke-dasharray:none;stroke-dashoffset:0;stroke-opacity:1;paint-order:markers fill stroke"
       id="path5260"
       d="m 20.447311,188.7167 c 0.02784,0.25546 0.07933,0.50733 0.120733,0.76081 0.05281,0.31315 0.161618,0.61122 0.258076,0.91248 0.124797,0.36102 0.272053,0.71344 0.416845,1.0667 1.075025,2.62308 -0.161505,3.12985 -1.23653,0.50677 v 0 c -0.158141,-0.3859 -0.318583,-0.7711 -0.453068,-1.16612 -0.116477,-0.3641 -0.243193,-0.72582 -0.304244,-1.10472 -0.04269,-0.26215 -0.09566,-0.52277 -0.124729,-0.78693 -0.400904,-2.80633 0.922012,-2.99532 1.322917,-0.18899 z"
       inkscape:connector-curvature="0" />
    <path
       style="opacity:1;fill:#000000;fill-opacity:1;fill-rule:nonzero;stroke:none;stroke-width:0.39700001;stroke-linecap:round;stroke-linejoin:round;stroke-miterlimit:4;stroke-dasharray:none;stroke-dashoffset:0;stroke-opacity:1;paint-order:markers fill stroke"
       id="path5262"
       d="m 26.048885,201.1893 c 0.0702,0.29793 0.146839,0.59421 0.223339,0.89062 0.117034,0.4489 0.260296,0.88982 0.410163,1.32865 0.189545,0.54135 0.434166,1.06037 0.67391,1.5806 0.280562,0.60657 0.570974,1.20851 0.85929,1.81141 0.200776,0.42146 0.09961,0.21181 0.303456,0.62898 1.244314,2.54713 0.04358,3.13371 -1.200732,0.58657 v 0 c -0.209251,-0.42844 -0.106511,-0.2154 -0.308324,-0.63905 -0.291018,-0.60862 -0.584179,-1.21626 -0.867357,-1.82859 -0.258969,-0.56195 -0.521615,-1.12329 -0.725038,-1.7085 -0.160505,-0.47109 -0.313893,-0.94448 -0.439361,-1.4263 -0.07354,-0.28525 -0.148589,-0.57011 -0.214277,-0.85727 -0.778785,-2.72574 0.506145,-3.09287 1.284931,-0.36712 z"
       inkscape:connector-curvature="0" />
    <path
       style="opacity:1;fill:#000000;fill-opacity:1;fill-rule:nonzero;stroke:none;stroke-width:0.39700001;stroke-linecap:round;stroke-linejoin:round;stroke-miterlimit:4;stroke-dasharray:none;stroke-dashoffset:0;stroke-opacity:1;paint-order:markers fill stroke"
       id="path5264"
       d="m 34.848371,219.28398 c 0.123402,0.26779 0.234675,0.54084 0.363233,0.80633 0.178395,0.37759 0.374007,0.74705 0.578578,1.11106 0.24407,0.42669 0.499589,0.84604 0.770998,1.25587 0.318058,0.48833 0.63191,0.97904 0.962938,1.45878 1.609561,2.33356 0.509511,3.09232 -1.100053,0.75876 v 0 c -0.335722,-0.48692 -0.654957,-0.98435 -0.977336,-1.4801 -0.289079,-0.4372 -0.561981,-0.88412 -0.82191,-1.33928 -0.217683,-0.38835 -0.426691,-0.78201 -0.616902,-1.18461 -0.136372,-0.28373 -0.256876,-0.57427 -0.387845,-0.86039 -1.11669,-2.60561 0.111606,-3.13203 1.228299,-0.52642 z"
       inkscape:connector-curvature="0" />
    <path
       style="opacity:1;fill:#000000;fill-opacity:1;fill-rule:nonzero;stroke:none;stroke-width:0.39700001;stroke-linecap:round;stroke-linejoin:round;stroke-miterlimit:4;stroke-dasharray:none;stroke-dashoffset:0;stroke-opacity:1;paint-order:markers fill stroke"
       id="path5266"
       d="m 43.850504,232.20774 c 0.196207,0.26361 0.38101,0.53574 0.566804,0.80681 0.254256,0.35726 0.504406,0.7174 0.764042,1.07081 0.317606,0.41617 0.638524,0.82983 0.959152,1.2437 0.180477,0.24192 0.352205,0.48998 0.522181,0.73931 1.595761,2.34303 0.491247,3.09528 -1.104513,0.75225 v 0 c -0.154414,-0.22696 -0.310804,-0.45247 -0.47411,-0.67318 -0.327612,-0.42293 -0.655722,-0.8455 -0.979826,-1.2711 -0.268076,-0.36519 -0.526841,-0.73699 -0.789204,-1.10628 -0.162211,-0.23666 -0.325435,-0.4726 -0.491136,-0.70681 -1.814809,-2.17777 -0.788196,-3.03328 1.02661,-0.85551 z"
       inkscape:connector-curvature="0" />
    <path
       style="opacity:1;fill:#000000;fill-opacity:1;fill-rule:nonzero;stroke:none;stroke-width:0.39700001;stroke-linecap:round;stroke-linejoin:round;stroke-miterlimit:4;stroke-dasharray:none;stroke-dashoffset:0;stroke-opacity:1;paint-order:markers fill stroke"
       id="path5268"
       d="m 57.833548,247.08002 c 0.109714,0.2388 0.228057,0.47352 0.35733,0.70235 0.176189,0.31036 0.405037,0.58492 0.632031,0.8586 0.292897,0.34331 0.621737,0.65233 0.940179,0.97114 0.0595,0.0606 0.119007,0.12111 0.178509,0.18167 1.986711,2.02217 1.033449,2.95872 -0.953262,0.93654 v 0 c -0.05702,-0.0581 -0.114041,-0.1161 -0.171064,-0.17414 -0.347263,-0.34818 -0.705712,-0.68594 -1.023273,-1.06247 -0.278233,-0.33596 -0.554538,-0.67591 -0.76871,-1.05771 -0.151048,-0.27085 -0.292523,-0.5468 -0.420037,-0.82957 -1.11669,-2.60561 0.111607,-3.13203 1.228297,-0.52641 z"
       inkscape:connector-curvature="0" />
    <path
       style="opacity:1;fill:#000000;fill-opacity:1;fill-rule:nonzero;stroke:none;stroke-width:0.39700001;stroke-linecap:round;stroke-linejoin:round;stroke-miterlimit:4;stroke-dasharray:none;stroke-dashoffset:0;stroke-opacity:1;paint-order:markers fill stroke"
       id="path5270"
       d="m 68.706571,258.13288 c 0.175712,0.23893 0.360613,0.47057 0.549806,0.6989 0.260062,0.31539 0.55059,0.6036 0.846003,0.88546 0.354981,0.3415 0.722773,0.66945 1.098862,0.98747 0.21168,0.17381 0.420002,0.35133 0.626208,0.53157 2.133309,1.86687 1.25326,2.87252 -0.880052,1.00565 v 0 c -0.20049,-0.17569 -0.403783,-0.34786 -0.609616,-0.51728 -0.396031,-0.33563 -0.784172,-0.68071 -1.158184,-1.04082 -0.332909,-0.31799 -0.659342,-0.64398 -0.952437,-0.99968 -0.188155,-0.2273 -0.374663,-0.45623 -0.5472,-0.69576 -1.814809,-2.17777 -0.788199,-3.03328 1.02661,-0.85551 z"
       inkscape:connector-curvature="0" />
    <path
       style="opacity:1;fill:#000000;fill-opacity:1;fill-rule:nonzero;stroke:none;stroke-width:0.39700001;stroke-linecap:round;stroke-linejoin:round;stroke-miterlimit:4;stroke-dasharray:none;stroke-dashoffset:0;stroke-opacity:1;paint-order:markers fill stroke"
       id="path5272"
       d="m 79.319709,267.39386 c 0.233058,0.20042 0.462357,0.40479 0.698201,0.60198 0.313291,0.26752 0.642705,0.51539 0.979022,0.75304 0.266327,0.18469 0.526846,0.37745 0.791297,0.56476 2.312906,1.63911 1.540219,2.72943 -0.772684,1.09031 v 0 c -0.26417,-0.1873 -0.524695,-0.37965 -0.790726,-0.56435 -0.365169,-0.2589 -0.723593,-0.52781 -1.064164,-0.81861 -0.235231,-0.19674 -0.464579,-0.3999 -0.696455,-0.60052 -2.17777,-1.81481 -1.32226,-2.84142 0.855509,-1.02661 z"
       inkscape:connector-curvature="0" />
    <path
       style="opacity:1;fill:#000000;fill-opacity:1;fill-rule:nonzero;stroke:none;stroke-width:0.39700001;stroke-linecap:round;stroke-linejoin:round;stroke-miterlimit:4;stroke-dasharray:none;stroke-dashoffset:0;stroke-opacity:1;paint-order:markers fill stroke"
       id="path5274"
       d="m 92.327575,275.3372 c 0.25631,0.13317 0.509773,0.27181 0.766874,0.40349 0.388276,0.20939 0.791721,0.38731 1.196324,0.5621 0.507873,0.21517 1.02606,0.40358 1.546064,0.58694 0.381719,0.12514 0.187364,0.0608 0.58302,0.19318 2.688312,0.89955 2.264261,2.16683 -0.424051,1.26728 v 0 c -0.397788,-0.13312 -0.196622,-0.0664 -0.603522,-0.20022 -0.54881,-0.19366 -1.095576,-0.39301 -1.631495,-0.62042 -0.431665,-0.18648 -0.8617,-0.37717 -1.276295,-0.59983 -0.274833,-0.14118 -0.546454,-0.28848 -0.819933,-0.43224 -2.461315,-1.40647 -1.798301,-2.56674 0.663014,-1.16028 z"
       inkscape:connector-curvature="0" />
    <path
       style="opacity:1;fill:#000000;fill-opacity:1;fill-rule:nonzero;stroke:none;stroke-width:0.39700001;stroke-linecap:round;stroke-linejoin:round;stroke-miterlimit:4;stroke-dasharray:none;stroke-dashoffset:0;stroke-opacity:1;paint-order:markers fill stroke"
       id="path5276"
       d="m 109.28488,280.33718 c 0.30345,0.0814 0.6062,0.16559 0.90726,0.25555 0.47541,0.13223 0.95014,0.26704 1.42602,0.39761 0.59306,0.16622 1.19314,0.30381 1.79208,0.44649 0.43927,0.10675 0.88247,0.19571 1.32639,0.28051 2.78436,0.53249 2.53335,1.84505 -0.25101,1.31257 v 0 c -0.46358,-0.0887 -0.92643,-0.18167 -1.38519,-0.29314 -0.61362,-0.14631 -1.22838,-0.28754 -1.83603,-0.45776 -0.48578,-0.13342 -0.97054,-0.27069 -1.45575,-0.40614 -0.29548,-0.0888 -0.593,-0.17055 -0.89089,-0.25076 -2.72575,-0.77878 -2.35863,-2.06371 0.36712,-1.28493 z"
       inkscape:connector-curvature="0" />
    <path
       style="opacity:1;fill:#000000;fill-opacity:1;fill-rule:nonzero;stroke:none;stroke-width:0.39700001;stroke-linecap:round;stroke-linejoin:round;stroke-miterlimit:4;stroke-dasharray:none;stroke-dashoffset:0;stroke-opacity:1;paint-order:markers fill stroke"
       id="path5278"
       d="m 128.43922,283.78478 c 0.30458,0.0608 0.61047,0.1138 0.91507,0.17456 0.41389,0.0762 0.8276,0.15319 1.24145,0.22968 0.21922,0.047 0.44269,0.0662 0.66533,0.0884 2.82059,0.28365 2.68688,1.61329 -0.13372,1.32964 v 0 c -0.25917,-0.0263 -0.5191,-0.0507 -0.77454,-0.10395 -0.42004,-0.0777 -0.83994,-0.15574 -1.25999,-0.23324 -0.28057,-0.056 -0.5626,-0.10341 -0.84259,-0.16216 -2.80633,-0.4009 -2.61734,-1.72382 0.18899,-1.32292 z"
       inkscape:connector-curvature="0" />
    <path
       style="opacity:1;fill:#000000;fill-opacity:1;fill-rule:nonzero;stroke:none;stroke-width:0.39700001;stroke-linecap:round;stroke-linejoin:round;stroke-miterlimit:4;stroke-dasharray:none;stroke-dashoffset:0;stroke-opacity:1;paint-order:markers fill stroke"
       id="path5280"
       d="m 146.25178,284.3047 c 0.30028,0.0258 0.60105,0.0495 0.90039,0.085 0.41123,0.0564 0.82396,0.0997 1.23726,0.13757 0.51149,0.055 1.02489,0.0646 1.53874,0.0667 0.10049,-1e-5 0.20099,-2e-5 0.30149,-3e-5 2.83482,-2.3e-4 2.83493,1.33612 1.1e-4,1.33635 v 0 c -0.10246,10e-6 -0.20491,10e-6 -0.30736,2e-5 -0.55265,-0.002 -1.10489,-0.014 -1.65503,-0.0723 -0.42617,-0.0391 -0.8518,-0.0836 -1.27587,-0.14168 -0.24601,-0.0306 -0.49401,-0.0426 -0.73973,-0.0753 -2.83482,0 -2.83482,-1.33635 0,-1.33635 z"
       inkscape:connector-curvature="0" />
    <path
       style="opacity:1;fill:#000000;fill-opacity:1;fill-rule:nonzero;stroke:none;stroke-width:0.39700001;stroke-linecap:round;stroke-linejoin:round;stroke-miterlimit:4;stroke-dasharray:none;stroke-dashoffset:0;stroke-opacity:1;paint-order:markers fill stroke"
       id="path5282"
       d="m 169.24487,283.23562 c 0.2861,0 0.57221,0 0.85832,0 0.40873,-0.003 0.81766,0.007 1.22619,-0.008 0.24093,-0.0111 0.48174,-0.0247 0.72257,-0.0377 2.83069,-0.15297 2.90281,1.18143 0.0721,1.33441 v 0 c -0.24941,0.0135 -0.49878,0.0276 -0.7483,0.0388 -0.42406,0.014 -0.84833,0.007 -1.27258,0.008 -0.28611,0 -0.57222,0 -0.85832,0 -2.83482,0 -2.83482,-1.33635 0,-1.33635 z"
       inkscape:connector-curvature="0" />
    <path
       style="opacity:1;fill:#000000;fill-opacity:1;fill-rule:nonzero;stroke:none;stroke-width:0.39700001;stroke-linecap:round;stroke-linejoin:round;stroke-miterlimit:4;stroke-dasharray:none;stroke-dashoffset:0;stroke-opacity:1;paint-order:markers fill stroke"
       id="path5284"
       d="m 185.71318,281.63081 c 0.35544,-0.0449 0.71355,-0.0634 1.0711,-0.0823 0.56082,-0.0428 1.12105,-0.0904 1.68048,-0.14847 0.70409,-0.0678 1.4053,-0.16287 2.10361,-0.27491 0.50855,-0.0829 0.25451,-0.0395 0.76211,-0.12995 2.79099,-0.49656 3.02507,0.81913 0.23408,1.31569 v 0 c -0.52801,0.0938 -0.26636,0.0493 -0.78492,0.1338 -0.72276,0.1155 -1.44834,0.21451 -2.17702,0.28458 -0.58178,0.0603 -1.1644,0.11002 -1.74766,0.15374 -0.31799,0.0168 -0.63647,0.0328 -0.95279,0.0708 -2.80634,0.4009 -2.99532,-0.92201 -0.18899,-1.32292 z"
       inkscape:connector-curvature="0" />
    <path
       style="opacity:1;fill:#000000;fill-opacity:1;fill-rule:nonzero;stroke:none;stroke-width:0.39700001;stroke-linecap:round;stroke-linejoin:round;stroke-miterlimit:4;stroke-dasharray:none;stroke-dashoffset:0;stroke-opacity:1;paint-order:markers fill stroke"
       id="path5286"
       d="m 205.66932,277.63286 c 0.2675,-0.0647 0.53495,-0.12951 0.80272,-0.19331 0.34615,-0.0862 0.68416,-0.19969 1.02184,-0.31371 0.32899,-0.11782 0.6511,-0.25402 0.96825,-0.40049 2.57494,-1.18572 3.13388,0.0281 0.55895,1.21383 v 0 c -0.36031,0.1655 -0.72569,0.3206 -1.09969,0.45278 -0.37648,0.12712 -0.75379,0.25238 -1.13992,0.34761 -0.24846,0.0591 -0.49633,0.12036 -0.74502,0.17822 -2.72575,0.77878 -3.09287,-0.50615 -0.36713,-1.28493 z"
       inkscape:connector-curvature="0" />
    <path
       style="opacity:1;fill:#000000;fill-opacity:1;fill-rule:nonzero;stroke:none;stroke-width:0.39700001;stroke-linecap:round;stroke-linejoin:round;stroke-miterlimit:4;stroke-dasharray:none;stroke-dashoffset:0;stroke-opacity:1;paint-order:markers fill stroke"
       id="path5288"
       d="m 222.69493,270.70426 c 0.19481,-0.11393 0.39045,-0.22531 0.57493,-0.35561 0.31317,-0.21044 0.61216,-0.44049 0.9072,-0.67535 0.38357,-0.30838 0.75461,-0.63184 1.12363,-0.95734 0.074,-0.0636 0.14799,-0.12716 0.22199,-0.19075 2.15049,-1.84704 3.0212,-0.83328 0.87071,1.01376 v 0 c -0.0696,0.0597 -0.13917,0.11948 -0.20875,0.17921 -0.38599,0.34041 -0.77421,0.67855 -1.17556,1.00086 -0.31731,0.25233 -0.63887,0.49952 -0.97531,0.72609 -0.26001,0.17951 -0.53078,0.34402 -0.81243,0.48742 -2.60561,1.1167 -3.13202,-0.1116 -0.52641,-1.22829 z"
       inkscape:connector-curvature="0" />
    <path
       style="opacity:1;fill:#000000;fill-opacity:1;fill-rule:nonzero;stroke:none;stroke-width:0.39700001;stroke-linecap:round;stroke-linejoin:round;stroke-miterlimit:4;stroke-dasharray:none;stroke-dashoffset:0;stroke-opacity:1;paint-order:markers fill stroke"
       id="path5290"
       d="m 232.20129,263.00373 c 0.18696,-0.13366 0.35847,-0.28618 0.53451,-0.43359 0.29575,-0.24192 0.58371,-0.49304 0.86945,-0.74662 0.37009,-0.34917 0.72778,-0.71124 1.08747,-1.07105 2.0042,-2.00484 2.9493,-1.06005 0.94509,0.94479 v 0 c -0.37851,0.37863 -0.75465,0.75996 -1.14561,1.12583 -0.29563,0.2623 -0.59353,0.52208 -0.89941,0.77243 -0.21331,0.1779 -0.42242,0.36043 -0.65022,0.52012 -2.35872,1.57247 -3.09999,0.46056 -0.74128,-1.11191 z"
       inkscape:connector-curvature="0" />
    <path
       style="opacity:1;fill:#000000;fill-opacity:1;fill-rule:nonzero;stroke:none;stroke-width:0.39700001;stroke-linecap:round;stroke-linejoin:round;stroke-miterlimit:4;stroke-dasharray:none;stroke-dashoffset:0;stroke-opacity:1;paint-order:markers fill stroke"
       id="path5292"
       d="m 241.28849,253.38378 c 0.10838,-0.27983 0.23164,-0.55335 0.36285,-0.82313 0.22288,-0.43809 0.48366,-0.85511 0.7434,-1.27187 0.21323,-0.33827 0.42963,-0.67444 0.65011,-1.00803 1.5634,-2.36473 2.67815,-1.62774 1.11475,0.737 v 0 c -0.21398,0.32356 -0.42379,0.64976 -0.63075,0.97786 -0.23537,0.37765 -0.4725,0.75498 -0.67644,1.15091 -0.12233,0.2499 -0.23485,0.50429 -0.33562,0.76368 -1.11669,2.60561 -2.34499,2.07919 -1.2283,-0.52642 z"
       inkscape:connector-curvature="0" />
    <path
       style="opacity:1;fill:#000000;fill-opacity:1;fill-rule:nonzero;stroke:none;stroke-width:0.39700001;stroke-linecap:round;stroke-linejoin:round;stroke-miterlimit:4;stroke-dasharray:none;stroke-dashoffset:0;stroke-opacity:1;paint-order:markers fill stroke"
       id="path5294"
       d="m 248.70736,240.99454 c 0.0596,-0.31561 0.11471,-0.63187 0.17513,-0.94733 0.075,-0.45584 0.16919,-0.90775 0.26807,-1.35889 0.11368,-0.53752 0.22263,-1.07607 0.33987,-1.61283 0.0844,-0.39308 0.0432,-0.19536 0.12348,-0.59317 0.56104,-2.77875 1.87096,-2.51427 1.30992,0.26448 v 0 c -0.084,0.41558 -0.0413,0.21085 -0.12791,0.61422 -0.11758,0.53688 -0.22595,1.07577 -0.34,1.61341 -0.0964,0.4396 -0.18797,0.87994 -0.26094,1.32417 -0.055,0.28708 -0.10334,0.57528 -0.16159,0.86169 -0.35162,2.81293 -1.67765,2.64718 -1.32603,-0.16575 z"
       inkscape:connector-curvature="0" />
    <path
       style="opacity:1;fill:#000000;fill-opacity:1;fill-rule:nonzero;stroke:none;stroke-width:0.39700001;stroke-linecap:round;stroke-linejoin:round;stroke-miterlimit:4;stroke-dasharray:none;stroke-dashoffset:0;stroke-opacity:1;paint-order:markers fill stroke"
       id="path5296"
       d="m 251.36579,224.6091 c -0.058,-0.24779 -0.10611,-0.4978 -0.15995,-0.74657 -0.10349,-0.44879 -0.15997,-0.9046 -0.19271,-1.36333 -0.0172,-0.27621 -0.027,-0.5528 -0.0373,-0.82932 -0.10611,-2.83284 1.2293,-2.88286 1.33541,-0.05 v 0 c 0.01,0.26187 0.019,0.5238 0.035,0.78539 0.0275,0.39538 0.0759,0.78795 0.16578,1.17464 0.0605,0.27977 0.1174,0.56022 0.17676,0.84024 0.40091,2.80632 -0.92201,2.99531 -1.32292,0.18898 z"
       inkscape:connector-curvature="0" />
    <path
       style="opacity:1;fill:#000000;fill-opacity:1;fill-rule:nonzero;stroke:none;stroke-width:0.39700001;stroke-linecap:round;stroke-linejoin:round;stroke-miterlimit:4;stroke-dasharray:none;stroke-dashoffset:0;stroke-opacity:1;paint-order:markers fill stroke"
       id="path5298"
       d="m 251.64415,205.45477 c -0.0808,-0.28227 -0.15823,-0.56557 -0.23475,-0.84913 -0.11697,-0.47534 -0.22498,-0.95279 -0.31884,-1.43324 -0.11747,-0.62974 -0.19282,-1.26622 -0.26106,-1.90285 -0.0114,-0.11728 -0.0228,-0.23456 -0.0342,-0.35184 -0.27366,-2.82159 1.05644,-2.95059 1.33011,-0.12901 v 0 c 0.0109,0.11286 0.0219,0.22572 0.0328,0.33858 0.064,0.59861 0.13432,1.19713 0.24396,1.7894 0.0874,0.44951 0.18912,0.89597 0.29741,1.3409 0.0748,0.27719 0.14973,0.55433 0.22946,0.83006 0.77879,2.72575 -0.50614,3.09287 -1.28493,0.36713 z"
       inkscape:connector-curvature="0" />
    <path
       style="opacity:1;fill:#000000;fill-opacity:1;fill-rule:nonzero;stroke:none;stroke-width:0.39700001;stroke-linecap:round;stroke-linejoin:round;stroke-miterlimit:4;stroke-dasharray:none;stroke-dashoffset:0;stroke-opacity:1;paint-order:markers fill stroke"
       id="path5300"
       d="m 250.3078,189.15132 c -0.0842,-0.27981 -0.15336,-0.56356 -0.22553,-0.84667 -0.10903,-0.43185 -0.20986,-0.8657 -0.31719,-1.29794 -0.0678,-0.26833 -0.12624,-0.53879 -0.18348,-0.80952 -0.58542,-2.77371 0.72213,-3.04968 1.30754,-0.27596 v 0 c 0.0538,0.25551 0.10902,0.5107 0.17302,0.76391 0.10636,0.42961 0.20705,0.86061 0.31515,1.2898 0.0688,0.27063 0.13387,0.54212 0.21542,0.80926 0.77879,2.72575 -0.50614,3.09287 -1.28493,0.36712 z"
       inkscape:connector-curvature="0" />
    <path
       style="opacity:1;fill:#000000;fill-opacity:1;fill-rule:nonzero;stroke:none;stroke-width:0.39700001;stroke-linecap:round;stroke-linejoin:round;stroke-miterlimit:4;stroke-dasharray:none;stroke-dashoffset:0;stroke-opacity:1;paint-order:markers fill stroke"
       id="path5302"
       d="m 247.10057,174.18423 c -0.0849,-0.28321 -0.19162,-0.55911 -0.29535,-0.83581 -0.10649,-0.28822 -0.21302,-0.57643 -0.32168,-0.86385 -1.0019,-2.65186 0.2482,-3.12416 1.25011,-0.4723 v 0 c 0.10896,0.28857 0.21602,0.57784 0.32292,0.86718 0.11622,0.3102 0.23487,0.61982 0.32893,0.93766 0.77878,2.72575 -0.50615,3.09287 -1.28493,0.36712 z"
       inkscape:connector-curvature="0" />
    <path
       style="opacity:1;fill:#000000;fill-opacity:1;fill-rule:nonzero;stroke:none;stroke-width:0.39700001;stroke-linecap:round;stroke-linejoin:round;stroke-miterlimit:4;stroke-dasharray:none;stroke-dashoffset:0;stroke-opacity:1;paint-order:markers fill stroke"
       id="path5304"
       d="m 242.04286,159.29678 c -0.10123,-0.27574 -0.24316,-0.53326 -0.37281,-0.79599 -0.21166,-0.42714 -0.44803,-0.84131 -0.67368,-1.2611 -0.19103,-0.34473 -0.36965,-0.69619 -0.55172,-1.04571 -1.30966,-2.51416 -0.12447,-3.13154 1.18519,-0.61738 v 0 c 0.17941,0.34441 0.35527,0.69081 0.54364,1.03044 0.23311,0.43377 0.47739,0.8617 0.69545,1.30339 0.13951,0.28401 0.29252,0.56229 0.40222,0.85994 1.1167,2.60561 -0.1116,3.13203 -1.22829,0.52641 z"
       inkscape:connector-curvature="0" />
    <path
       style="opacity:1;fill:#000000;fill-opacity:1;fill-rule:nonzero;stroke:none;stroke-width:0.39700001;stroke-linecap:round;stroke-linejoin:round;stroke-miterlimit:4;stroke-dasharray:none;stroke-dashoffset:0;stroke-opacity:1;paint-order:markers fill stroke"
       id="path5306"
       d="m 235.48698,146.96019 c -0.1954,-0.1833 -0.38567,-0.37203 -0.57502,-0.56172 -0.30785,-0.30063 -0.60458,-0.61158 -0.88848,-0.93488 -0.35888,-0.41018 -0.70819,-0.82843 -1.05817,-1.24617 -0.27165,-0.33241 -0.54336,-0.66474 -0.81151,-0.99997 -1.77049,-2.21395 -0.72682,-3.04857 1.04367,-0.83462 v 0 c 0.26173,0.32736 0.52718,0.65169 0.7922,0.97639 0.34359,0.41012 0.68642,0.82082 1.03875,1.22351 0.26428,0.30214 0.54238,0.59094 0.82933,0.87165 0.18907,0.18941 0.37891,0.37794 0.57417,0.56087 2.00453,2.00452 1.05959,2.94946 -0.94494,0.94494 z"
       inkscape:connector-curvature="0" />
    <path
       style="opacity:1;fill:#000000;fill-opacity:1;fill-rule:nonzero;stroke:none;stroke-width:0.39700001;stroke-linecap:round;stroke-linejoin:round;stroke-miterlimit:4;stroke-dasharray:none;stroke-dashoffset:0;stroke-opacity:1;paint-order:markers fill stroke"
       id="path5308"
       d="m 225.28991,135.14771 c -0.19408,-0.22981 -0.39695,-0.45196 -0.60013,-0.67369 -0.33688,-0.36164 -0.67355,-0.72366 -1.02287,-1.07335 -0.42909,-0.43059 -0.87503,-0.8434 -1.32266,-1.25447 -0.53147,-0.48199 -1.067,-0.95912 -1.61053,-1.42749 -0.39733,-0.33933 -0.803,-0.66837 -1.21352,-0.99154 -2.22708,-1.75394 -1.40026,-2.8038 0.82682,-1.04986 v 0 c 0.42585,0.33551 0.84691,0.67681 1.25908,1.02908 0.55416,0.47758 1.10017,0.96409 1.64205,1.45554 0.46196,0.42424 0.92195,0.85054 1.3648,1.2949 0.36226,0.36353 0.71278,0.73847 1.06212,1.11441 0.2173,0.23718 0.43414,0.47493 0.64145,0.72096 1.8148,2.17777 0.7882,3.03328 -1.02661,0.85551 z"
       inkscape:connector-curvature="0" />
    <path
       style="opacity:1;fill:#000000;fill-opacity:1;fill-rule:nonzero;stroke:none;stroke-width:0.39700001;stroke-linecap:round;stroke-linejoin:round;stroke-miterlimit:4;stroke-dasharray:none;stroke-dashoffset:0;stroke-opacity:1;paint-order:markers fill stroke"
       id="path5310"
       d="m 210.75607,123.82332 c -0.27592,-0.14043 -0.55015,-0.28412 -0.8235,-0.42949 -0.43804,-0.21874 -0.8647,-0.45912 -1.2853,-0.70948 -0.51413,-0.30541 -1.03021,-0.6075 -1.54391,-0.91367 -0.28481,-0.16769 -0.57365,-0.32835 -0.86229,-0.48931 -2.47584,-1.38073 -1.82495,-2.54785 0.65089,-1.16712 v 0 c 0.29981,0.16722 0.59981,0.33417 0.89558,0.5085 0.51362,0.30614 1.02964,0.60819 1.5437,0.91355 0.40185,0.23964 0.81009,0.46862 1.2288,0.67766 0.2853,0.15173 0.57213,0.30046 0.85904,0.44908 2.46131,1.40647 1.7983,2.56675 -0.66301,1.16028 z"
       inkscape:connector-curvature="0" />
    <path
       style="opacity:1;fill:#000000;fill-opacity:1;fill-rule:nonzero;stroke:none;stroke-width:0.39700001;stroke-linecap:round;stroke-linejoin:round;stroke-miterlimit:4;stroke-dasharray:none;stroke-dashoffset:0;stroke-opacity:1;paint-order:markers fill stroke"
       id="path5312"
       d="m 196.02502,116.58286 c -0.22487,-0.15762 -0.46086,-0.29836 -0.69105,-0.44794 -0.32809,-0.21727 -0.67119,-0.40903 -1.01478,-0.60019 -0.44059,-0.23578 -0.88724,-0.46036 -1.33543,-0.68134 -0.35659,-0.17448 -0.71225,-0.3508 -1.06925,-0.52446 -2.54923,-1.24003 -1.96467,-2.44175 0.58455,-1.20171 v 0 c 0.35922,0.17474 0.71708,0.35215 1.07589,0.5277 0.46786,0.23089 0.93434,0.46514 1.39397,0.71204 0.37045,0.20611 0.73978,0.41394 1.09376,0.64777 0.23424,0.15256 0.47472,0.29558 0.70361,0.45622 2.35872,1.57248 1.61744,2.68439 -0.74127,1.11191 z"
       inkscape:connector-curvature="0" />
    <path
       style="opacity:1;fill:#000000;fill-opacity:1;fill-rule:nonzero;stroke:none;stroke-width:0.39700001;stroke-linecap:round;stroke-linejoin:round;stroke-miterlimit:4;stroke-dasharray:none;stroke-dashoffset:0;stroke-opacity:1;paint-order:markers fill stroke"
       id="path5314"
       d="m 178.92445,108.69556 c -0.36011,-0.0617 -0.71976,-0.12547 -1.07798,-0.19739 -0.58702,-0.11641 -1.17185,-0.24393 -1.75541,-0.37657 -0.35757,-0.0861 -0.71452,-0.17433 -1.07066,-0.26617 -2.74489,-0.70836 -2.41097,-2.00231 0.33392,-1.29395 v 0 c 0.34363,0.0887 0.68812,0.17361 1.03308,0.25705 0.57268,0.1303 1.14667,0.25531 1.72277,0.36957 0.32574,0.0657 0.65304,0.12242 0.98003,0.18143 2.81293,0.35161 2.64718,1.67764 -0.16575,1.32603 z"
       inkscape:connector-curvature="0" />
    <path
       style="opacity:1;fill:#000000;fill-opacity:1;fill-rule:nonzero;stroke:none;stroke-width:0.39700001;stroke-linecap:round;stroke-linejoin:round;stroke-miterlimit:4;stroke-dasharray:none;stroke-dashoffset:0;stroke-opacity:1;paint-order:markers fill stroke"
       id="path5316"
       d="m 158.07371,101.47772 c -0.31002,-0.0475 -0.62056,-0.0943 -0.92987,-0.14676 -0.47421,-0.0757 -0.94506,-0.16686 -1.40947,-0.28922 -0.26133,-0.0643 -0.51576,-0.15044 -0.76937,-0.23945 -2.67274,-0.944809 -2.22735,-2.204751 0.44539,-1.259939 v 0 c 0.21944,0.07828 0.44015,0.152267 0.66673,0.207741 0.42512,0.113797 0.85749,0.192957 1.2917,0.263598 0.2972,0.0512 0.59586,0.0958 0.89388,0.14112 2.80633,0.4009 2.61734,1.72382 -0.18899,1.32291 z"
       inkscape:connector-curvature="0" />
    <path
       style="opacity:1;fill:#000000;fill-opacity:1;fill-rule:nonzero;stroke:none;stroke-width:0.39700001;stroke-linecap:round;stroke-linejoin:round;stroke-miterlimit:4;stroke-dasharray:none;stroke-dashoffset:0;stroke-opacity:1;paint-order:markers fill stroke"
       id="path5318"
       d="m 148.45572,98.004774 c -0.29846,-0.02764 -0.59504,-0.06927 -0.89187,-0.110376 -0.43979,-0.04965 -0.87849,-0.106449 -1.31708,-0.165753 -0.35166,-0.05625 -0.70327,-0.112444 -1.05555,-0.164635 -2.80419,-0.415643 -2.60825,-1.737549 0.19593,-1.321905 v 0 c 0.34666,0.05141 0.69276,0.106132 1.03868,0.162244 0.44002,0.0595 0.88016,0.116177 1.32134,0.166335 0.29101,0.0403 0.58168,0.08108 0.8743,0.108062 2.81293,0.351617 2.64718,1.677645 -0.16575,1.326028 z"
       inkscape:connector-curvature="0" />
    <path
       style="opacity:1;fill:#000000;fill-opacity:1;fill-rule:nonzero;stroke:none;stroke-width:0.39700001;stroke-linecap:round;stroke-linejoin:round;stroke-miterlimit:4;stroke-dasharray:none;stroke-dashoffset:0;stroke-opacity:1;paint-order:markers fill stroke"
       id="path5320"
       d="m 133.94117,95.613608 c -0.33946,0.04286 -0.68126,0.06294 -1.02271,0.0822 -0.53784,0.02916 -1.07627,0.04498 -1.61465,0.06008 -0.566,0.01885 -1.13245,3.18e-4 -1.69841,-0.01154 -2.8342,-0.05938 -2.80621,-1.395434 0.028,-1.336054 v 0 c 0.54415,0.0114 1.08879,0.02977 1.63297,0.01178 0.52583,-0.01474 1.05171,-0.0301 1.57702,-0.05849 0.30337,-0.01703 0.60701,-0.03453 0.90881,-0.07088 2.80633,-0.400904 2.99531,0.922012 0.18898,1.322917 z"
       inkscape:connector-curvature="0" />
    <path
       style="opacity:1;fill:#000000;fill-opacity:1;fill-rule:nonzero;stroke:none;stroke-width:0.39700001;stroke-linecap:round;stroke-linejoin:round;stroke-miterlimit:4;stroke-dasharray:none;stroke-dashoffset:0;stroke-opacity:1;paint-order:markers fill stroke"
       id="path5322"
       d="m 111.83608,94.795984 c -0.29574,-0.03865 -0.59389,-0.05227 -0.89065,-0.0809 -0.53687,-0.0554 -1.07461,-0.0999 -1.61143,-0.155786 -0.70837,-0.06548 -1.41476,-0.149699 -2.12244,-0.221926 -2.82016,-0.28792 -2.68444,-1.617357 0.13572,-1.329437 v 0 c 0.70858,0.07236 1.41585,0.156615 2.12511,0.222201 0.53403,0.05561 1.069,0.09973 1.60308,0.154942 0.31634,0.03142 0.63455,0.04364 0.9496,0.08799 2.80633,0.400904 2.61734,1.72382 -0.18899,1.322916 z"
       inkscape:connector-curvature="0" />
    <path
       style="opacity:1;fill:#000000;fill-opacity:1;fill-rule:nonzero;stroke:none;stroke-width:0.39700001;stroke-linecap:round;stroke-linejoin:round;stroke-miterlimit:4;stroke-dasharray:none;stroke-dashoffset:0;stroke-opacity:1;paint-order:markers fill stroke"
       id="path5324"
       d="m 93.488982,93.474259 c -0.284686,0 -0.569372,0 -0.854059,0 -0.406839,0 -0.813675,0 -1.220512,0 -0.47929,0.0015 -0.957863,-0.03458 -1.436256,-0.06046 -0.510956,-0.02402 -1.021916,-0.0557 -1.533533,-0.05808 -0.54482,0.0025 -1.089155,0.01527 -1.632918,0.04902 -0.571085,0.03021 -1.140572,0.08422 -1.707971,0.155054 -0.592034,0.07557 -1.179348,0.184074 -1.765654,0.294747 -0.606565,0.111819 -1.209225,0.243937 -1.811414,0.377063 -0.616932,0.136616 -1.238422,0.250888 -1.858013,0.374534 -0.417822,0.08133 -0.20882,0.04143 -0.627004,0.119718 -2.786438,0.521523 -3.032284,-0.792016 -0.245848,-1.313538 v 0 c 0.406654,-0.07609 0.202877,-0.0372 0.611327,-0.116687 0.610593,-0.121851 1.223061,-0.234447 1.831076,-0.36887 0.615677,-0.136107 1.231881,-0.270967 1.852017,-0.38538 0.613846,-0.115856 1.228839,-0.228901 1.84872,-0.307735 0.594813,-0.0736 1.191625,-0.131174 1.790251,-0.162703 0.573936,-0.0354 1.148492,-0.0494 1.723532,-0.05154 0.533006,0.0039 1.065343,0.03364 1.597639,0.06001 0.454348,0.02459 0.908876,0.05939 1.364049,0.05851 0.406837,0 0.813673,0 1.220512,0 0.284687,0 0.569373,0 0.854059,0 2.83482,0 2.83482,1.336347 0,1.336347 z"
       inkscape:connector-curvature="0" />
    <path
       style="opacity:1;fill:#000000;fill-opacity:1;fill-rule:nonzero;stroke:none;stroke-width:0.39700001;stroke-linecap:round;stroke-linejoin:round;stroke-miterlimit:4;stroke-dasharray:none;stroke-dashoffset:0;stroke-opacity:1;paint-order:markers fill stroke"
       id="path5326"
       d="m 65.876513,97.206139 c -0.261503,0.09888 -0.532421,0.168876 -0.804071,0.233237 -2.759141,0.650653 -3.065862,-0.650018 -0.306721,-1.300672 v 0 c 0.251804,-0.05904 0.50084,-0.127754 0.74367,-0.217495 2.725748,-0.778786 3.09287,0.506145 0.367122,1.28493 z"
       inkscape:connector-curvature="0" />
    <path
       style="opacity:1;fill:#000000;fill-opacity:1;fill-rule:nonzero;stroke:none;stroke-width:0.39700001;stroke-linecap:round;stroke-linejoin:round;stroke-miterlimit:4;stroke-dasharray:none;stroke-dashoffset:0;stroke-opacity:1;paint-order:markers fill stroke"
       id="path5328"
       d="m 54.961604,99.869907 c -0.291433,0.124174 -0.587542,0.237213 -0.88692,0.340693 -0.413684,0.15416 -0.835666,0.28414 -1.257485,0.41381 -0.493612,0.14465 -0.992098,0.27272 -1.491113,0.39735 -0.34898,0.0827 -0.177501,0.0406 -0.514503,0.12623 -2.747664,0.69753 -3.076483,-0.59773 -0.328819,-1.295259 v 0 c 0.352615,-0.0894 0.179366,-0.047 0.519671,-0.127538 0.475927,-0.11874 0.951298,-0.240934 1.422241,-0.378186 0.407527,-0.125179 0.815184,-0.250694 1.214736,-0.399882 0.288285,-0.09892 0.572104,-0.210152 0.852969,-0.328479 2.654327,-0.995373 3.12355,0.255889 0.469223,1.251261 z"
       inkscape:connector-curvature="0" />
    <path
       style="opacity:1;fill:#000000;fill-opacity:1;fill-rule:nonzero;stroke:none;stroke-width:0.39700001;stroke-linecap:round;stroke-linejoin:round;stroke-miterlimit:4;stroke-dasharray:none;stroke-dashoffset:0;stroke-opacity:1;paint-order:markers fill stroke"
       id="path5366"
       d="m 40.218637,104.42242 c -0.207375,0.0724 -0.401857,0.17144 -0.591304,0.28153 -0.309814,0.16402 -0.596479,0.3652 -0.869169,0.5845 -0.214945,0.17712 -0.426749,0.35748 -0.63491,0.54251 -2.119421,1.88262 -3.006897,0.88352 -0.887476,-0.9991 v 0 c 0.225718,-0.20038 0.455234,-0.39594 0.688416,-0.58759 0.326719,-0.25958 0.667182,-0.50181 1.036241,-0.69837 0.284305,-0.16267 0.577985,-0.309 0.89108,-0.40841 2.72575,-0.77879 3.092873,0.50614 0.367122,1.28493 z"
       inkscape:connector-curvature="0" />
    <path
       style="opacity:1;fill:#000000;fill-opacity:1;fill-rule:nonzero;stroke:none;stroke-width:0.39700001;stroke-linecap:round;stroke-linejoin:round;stroke-miterlimit:4;stroke-dasharray:none;stroke-dashoffset:0;stroke-opacity:1;paint-order:markers fill stroke"
       id="path5374"
       d="m 29.45557,112.36981 c -0.206743,0.13902 -0.38699,0.31253 -0.56995,0.48054 -0.274653,0.26561 -0.532847,0.54706 -0.777824,0.84008 -0.288626,0.36365 -0.548026,0.74959 -0.800894,1.13863 -0.04705,0.0724 -0.09411,0.14472 -0.14116,0.21708 -1.545398,2.37654 -2.665712,1.64803 -1.120315,-0.72851 v 0 c 0.04713,-0.0725 0.09425,-0.14494 0.141376,-0.21741 0.282613,-0.43391 0.572409,-0.86446 0.896986,-1.26842 0.283102,-0.33681 0.579906,-0.66182 0.898182,-0.96595 0.233791,-0.21451 0.466846,-0.43239 0.732326,-0.60795 2.358716,-1.57248 3.099986,-0.46057 0.741273,1.11191 z"
       inkscape:connector-curvature="0" />
    <path
       style="opacity:1;fill:#000000;fill-opacity:1;fill-rule:nonzero;stroke:none;stroke-width:0.39700001;stroke-linecap:round;stroke-linejoin:round;stroke-miterlimit:4;stroke-dasharray:none;stroke-dashoffset:0;stroke-opacity:1;paint-order:markers fill stroke"
       id="path5384"
       d="m 20.251713,126.4227 c -0.149239,0.1972 -0.288783,0.40124 -0.415404,0.61365 -0.195412,0.31769 -0.358468,0.65363 -0.529677,0.98459 -0.196542,0.40551 -0.37105,0.82106 -0.541754,1.23794 -0.126407,0.30615 -0.234074,0.61929 -0.337588,0.93373 -0.887825,2.69221 -2.156943,2.27368 -1.269119,-0.41852 v 0 c 0.113622,-0.344 0.231651,-0.68663 0.370035,-1.02164 0.185708,-0.45347 0.375998,-0.90539 0.591558,-1.34565 0.184274,-0.35601 0.360477,-0.71698 0.570998,-1.05859 0.163245,-0.27022 0.339616,-0.53229 0.534341,-0.78101 1.814808,-2.17777 2.841419,-1.32227 1.02661,0.8555 z"
       inkscape:connector-curvature="0" />
    <path
       style="opacity:1;fill:#000000;fill-opacity:1;fill-rule:nonzero;stroke:none;stroke-width:0.39700001;stroke-linecap:round;stroke-linejoin:round;stroke-miterlimit:4;stroke-dasharray:none;stroke-dashoffset:0;stroke-opacity:1;paint-order:markers fill stroke"
       id="path5392"
       d="m 169.56789,122.62285 c -0.039,0.29271 -0.0544,0.58795 -0.0709,0.88259 -0.0294,0.56484 -0.0443,1.13029 -0.0584,1.69568 -0.0179,0.74862 -0.0295,1.49738 -0.04,2.24614 -0.011,0.8144 -0.0193,1.62884 -0.0271,2.44328 0.001,0.72823 -0.0144,1.45568 -0.0518,2.18292 -0.14577,2.83107 -1.48035,2.76235 -1.33458,-0.0687 v 0 c 0.0365,-0.7086 0.0512,-1.4174 0.0501,-2.12698 0.008,-0.81646 0.0161,-1.63291 0.0272,-2.44933 0.0106,-0.75365 0.0223,-1.50731 0.0403,-2.26083 0.0145,-0.57916 0.0299,-1.15839 0.0601,-1.73699 0.0187,-0.33282 0.037,-0.66625 0.0822,-0.99675 0.40091,-2.80633 1.72382,-2.61734 1.32292,0.18899 z"
       inkscape:connector-curvature="0" />
    <path
       style="opacity:1;fill:#000000;fill-opacity:1;fill-rule:nonzero;stroke:none;stroke-width:0.39700001;stroke-linecap:round;stroke-linejoin:round;stroke-miterlimit:4;stroke-dasharray:none;stroke-dashoffset:0;stroke-opacity:1;paint-order:markers fill stroke"
       id="path5394"
       d="m 171.70605,122.62285 c -0.041,0.31061 -0.0533,0.62397 -0.0803,0.93593 -0.0572,0.57934 -0.0986,1.16001 -0.13458,1.74101 -0.0458,0.72901 -0.065,1.45933 -0.10722,2.18849 -0.0506,0.75488 -0.1,1.5098 -0.14383,2.26511 -0.0265,0.66504 -0.0823,1.32793 -0.15362,1.9895 -0.30415,2.81846 -1.63278,2.67508 -1.32863,-0.14337 v 0 c 0.0691,-0.63964 0.12284,-1.28053 0.14815,-1.92356 0.0438,-0.7554 0.0931,-1.51043 0.14384,-2.2654 0.0428,-0.73079 0.0609,-1.46284 0.10753,-2.19347 0.0367,-0.59216 0.0788,-1.18398 0.13707,-1.77447 0.0297,-0.33623 0.0416,-0.67419 0.0886,-1.00876 0.4009,-2.80633 1.72382,-2.61734 1.32292,0.18899 z"
       inkscape:connector-curvature="0" />
    <path
       style="opacity:1;fill:#000000;fill-opacity:1;fill-rule:nonzero;stroke:none;stroke-width:0.39700001;stroke-linecap:round;stroke-linejoin:round;stroke-miterlimit:4;stroke-dasharray:none;stroke-dashoffset:0;stroke-opacity:1;paint-order:markers fill stroke"
       id="path5400"
       d="m 167.97889,121.34857 c 0.007,-0.3496 0.10119,-0.68272 0.22106,-1.00828 0.16674,-0.41677 0.42282,-0.78485 0.68984,-1.14209 0.3072,-0.40849 0.68474,-0.74866 1.09024,-1.05589 0.4494,-0.34351 0.96707,-0.55939 1.49741,-0.7418 0.57013,-0.17852 1.16198,-0.25388 1.75693,-0.27334 0.59337,-0.0232 1.17925,0.0715 1.7582,0.1898 0.55362,0.11775 1.08266,0.30854 1.59111,0.55441 0.44864,0.22288 0.8387,0.5299 1.18482,0.88871 0.33063,0.36478 0.50551,0.79323 0.5673,1.27571 0.0227,0.50977 -0.15003,0.9797 -0.36051,1.434 -0.24055,0.51211 -0.58617,0.96249 -0.93062,1.40758 -0.36776,0.46071 -0.76844,0.89306 -1.18721,1.30742 -0.37265,0.36962 -0.78818,0.69029 -1.14867,1.07228 -0.14671,0.17425 -0.27794,0.35892 -0.29465,0.59042 -0.003,0.21378 0.0976,0.40899 0.19729,0.59252 0.22842,0.39402 0.51485,0.75062 0.79354,1.10963 0.36373,0.46535 0.74458,0.91687 1.12881,1.36529 0.42149,0.48355 0.84489,0.96548 1.271,1.44495 0.38972,0.44422 0.77957,0.8885 1.17772,1.32522 0.17322,0.19134 0.35598,0.37359 0.53482,0.55961 1.96451,2.04375 1.00107,2.96983 -0.96343,0.92607 v 0 c -0.18704,-0.19462 -0.37818,-0.38532 -0.5592,-0.58565 -0.40165,-0.44107 -0.7957,-0.88908 -1.18892,-1.33766 -0.4313,-0.48558 -0.86024,-0.97331 -1.2868,-1.46307 -0.39824,-0.46485 -0.79286,-0.93299 -1.16973,-1.41546 -0.32782,-0.42254 -0.66288,-0.84378 -0.92348,-1.31248 -0.22368,-0.44096 -0.39453,-0.90184 -0.33338,-1.40589 0.0866,-0.5021 0.29846,-0.93792 0.64759,-1.31395 0.37261,-0.39016 0.78964,-0.72928 1.17838,-1.10256 0.37749,-0.37215 0.73751,-0.76154 1.06977,-1.17493 0.28403,-0.36648 0.57461,-0.73432 0.77623,-1.15453 0.11203,-0.23774 0.22261,-0.4786 0.24084,-0.74511 0.018,-0.17828 -0.10728,-0.34034 -0.20436,-0.47776 -0.23174,-0.24841 -0.49933,-0.45443 -0.80296,-0.60927 -0.40631,-0.20045 -0.83121,-0.34979 -1.27455,-0.44655 -0.47739,-0.099 -0.96036,-0.18181 -1.45012,-0.16297 -0.46116,0.0112 -0.91966,0.0704 -1.36311,0.20193 -0.39771,0.13524 -0.78887,0.28713 -1.12615,0.54493 -0.30677,0.22917 -0.59217,0.4828 -0.82458,0.78955 -0.1917,0.25529 -0.38122,0.51458 -0.50799,0.80975 -0.0674,0.17499 -0.12463,0.35085 -0.13613,0.53946 0,2.83483 -1.33635,2.83483 -1.33635,0 z"
       inkscape:connector-curvature="0" />
  </g>
</svg>
