<?xml version="1.0" encoding="UTF-8" standalone="no"?>
<!-- Created with Inkscape (http://www.inkscape.org/) -->

<svg
   xmlns:dc="http://purl.org/dc/elements/1.1/"
   xmlns:cc="http://creativecommons.org/ns#"
   xmlns:rdf="http://www.w3.org/1999/02/22-rdf-syntax-ns#"
   xmlns:svg="http://www.w3.org/2000/svg"
   xmlns="http://www.w3.org/2000/svg"
   xmlns:sodipodi="http://sodipodi.sourceforge.net/DTD/sodipodi-0.dtd"
   xmlns:inkscape="http://www.inkscape.org/namespaces/inkscape"
   width="297mm"
   height="210mm"
   viewBox="0 0 297 210"
   version="1.1"
   id="svg8"
   inkscape:version="0.92.1 r15371"
   sodipodi:docname="X-Y-Z.svg">
  <defs
     id="defs2" />
  <sodipodi:namedview
     id="base"
     pagecolor="#ffffff"
     bordercolor="#666666"
     borderopacity="1.0"
     inkscape:pageopacity="0.0"
     inkscape:pageshadow="2"
     inkscape:zoom="0.98994949"
     inkscape:cx="552.17791"
     inkscape:cy="384.72789"
     inkscape:document-units="mm"
     inkscape:current-layer="layer1"
     showgrid="false"
     inkscape:window-width="1920"
     inkscape:window-height="1046"
     inkscape:window-x="-11"
     inkscape:window-y="-11"
     inkscape:window-maximized="1" />
  <metadata
     id="metadata5">
    <rdf:RDF>
      <cc:Work
         rdf:about="">
        <dc:format>image/svg+xml</dc:format>
        <dc:type
           rdf:resource="http://purl.org/dc/dcmitype/StillImage" />
        <dc:title></dc:title>
      </cc:Work>
    </rdf:RDF>
  </metadata>
  <g
     inkscape:label="Layer 1"
     inkscape:groupmode="layer"
     id="layer1"
     transform="translate(0,-87)">
    <path
       style="opacity:1;fill:#000000;fill-opacity:1;fill-rule:nonzero;stroke:none;stroke-width:0.39700001;stroke-linecap:round;stroke-linejoin:round;stroke-miterlimit:4;stroke-dasharray:none;stroke-dashoffset:0;stroke-opacity:1;paint-order:markers fill stroke"
       id="path4485"
       d="m 52.550491,197.01867 c -0.197631,0.18235 -0.352592,0.40331 -0.514006,0.61691 -0.268172,0.37787 -0.504328,0.77606 -0.724096,1.18356 -0.29277,0.55938 -0.495261,1.15724 -0.690737,1.75554 -0.254879,0.77941 -0.428662,1.58098 -0.580896,2.38566 -0.176405,0.97652 -0.30598,1.96086 -0.398102,2.9487 -0.09789,1.13199 -0.151794,2.26678 -0.181296,3.40239 -0.03405,1.22598 -0.02807,2.45261 7.94e-4,3.67858 0.02937,1.26067 0.110879,2.51937 0.213622,3.77595 0.104508,1.27295 0.279794,2.53745 0.469916,3.79987 0.182565,1.23859 0.438031,2.46387 0.727763,3.68127 0.27695,1.16629 0.622493,2.31329 1.012748,3.44611 0.374597,1.08445 0.817555,2.14194 1.290056,3.18674 0.470087,1.00892 0.993698,1.99128 1.547315,2.95648 0.541205,0.93667 1.125355,1.84667 1.731531,2.74228 0.574717,0.8266 1.18972,1.62366 1.826059,2.40341 0.578464,0.7071 1.207111,1.36964 1.856197,2.01163 0.587486,0.5653 1.223079,1.07484 1.884022,1.5508 0.61083,0.44191 1.272465,0.80143 1.950209,1.12794 0.648967,0.31967 1.338694,0.52722 2.040374,0.69202 0.709758,0.15479 1.435274,0.19556 2.159505,0.18729 0.777362,-0.0215 1.546143,-0.14561 2.301764,-0.32304 0.814843,-0.19928 1.598295,-0.49777 2.357771,-0.85042 0.841092,-0.38484 1.620451,-0.88314 2.375598,-1.41339 0.824027,-0.58762 1.574856,-1.26537 2.309956,-1.95843 0.781425,-0.73413 1.493342,-1.53509 2.163913,-2.37034 0.694457,-0.88284 1.304303,-1.82566 1.861468,-2.79968 0.596379,-1.03616 1.077926,-2.13052 1.538314,-3.2319 0.473038,-1.14072 0.837681,-2.321 1.166691,-3.5099 0.337677,-1.2196 0.544242,-2.46957 0.739288,-3.71826 0.192386,-1.30343 0.289404,-2.61725 0.371486,-3.93131 0.07062,-1.26353 0.08225,-2.52912 0.04134,-3.7937 -0.03402,-1.15997 -0.140817,-2.31519 -0.270169,-3.46778 -0.127717,-1.08666 -0.320378,-2.16445 -0.536617,-3.23657 -0.210809,-1.03657 -0.498737,-2.05464 -0.811758,-3.06427 -0.300997,-0.95416 -0.663175,-1.88701 -1.054869,-2.80711 -0.388292,-0.87275 -0.834449,-1.7182 -1.292739,-2.55578 -0.447558,-0.82272 -0.921178,-1.63058 -1.424413,-2.42037 -0.497184,-0.78622 -1.052613,-1.53198 -1.624703,-2.26457 -0.587642,-0.75401 -1.243333,-1.44819 -1.91547,-2.12624 -0.686615,-0.68113 -1.409676,-1.32372 -2.153547,-1.9413 -0.720637,-0.58555 -1.483198,-1.11418 -2.277157,-1.59453 -0.782566,-0.46788 -1.619631,-0.82572 -2.477757,-1.12753 -0.883322,-0.29619 -1.808991,-0.42035 -2.733384,-0.49927 -1.039984,-0.0865 -2.078794,0.0143 -3.11055,0.14013 -1.117957,0.13852 -2.21265,0.40768 -3.294809,0.71366 -1.032126,0.28353 -2.017543,0.69853 -2.980743,1.15985 -2.5572,1.2235 -3.13396,0.018 -0.576762,-1.20547 v 0 c 1.032277,-0.49342 2.088695,-0.9364 3.194256,-1.24041 1.148451,-0.32407 2.310366,-0.60793 3.496689,-0.7542 1.123526,-0.13629 2.25484,-0.24085 3.386963,-0.14495 1.036539,0.0905 2.073441,0.23415 3.062795,0.57039 0.94407,0.33376 1.865196,0.72876 2.72592,1.24495 0.849712,0.51577 1.667378,1.08094 2.438397,1.70939 0.77674,0.64546 1.532136,1.31659 2.248863,2.0286 0.709004,0.71555 1.39971,1.44907 2.01966,2.24458 0.598128,0.76637 1.178481,1.54678 1.698496,2.36904 0.51885,0.815 1.008081,1.64807 1.469659,2.49693 0.479105,0.87609 0.945298,1.76054 1.350021,2.67393 0.409033,0.96199 0.787535,1.93715 1.101651,2.93473 0.326125,1.05296 0.625792,2.11478 0.845301,3.1958 0.223586,1.11024 0.422918,2.22629 0.554623,3.35159 0.133225,1.18786 0.242646,2.37849 0.277815,3.57392 0.04161,1.30667 0.03041,2.61437 -0.04325,3.91991 -0.08474,1.35522 -0.185751,2.71015 -0.384911,4.05429 -0.203144,1.29936 -0.419796,2.59968 -0.771747,3.86863 -0.34448,1.24277 -0.726514,2.47638 -1.221629,3.66868 -0.481894,1.15237 -0.987541,2.29661 -1.611675,3.38068 -0.593079,1.03392 -1.240385,2.03579 -1.979411,2.97259 -0.709957,0.88243 -1.462331,1.72971 -2.288932,2.50562 -0.782058,0.73696 -1.582256,1.4561 -2.459336,2.08014 -0.820857,0.57483 -1.668108,1.1145 -2.581707,1.53207 -0.843081,0.38878 -1.711486,0.72045 -2.615644,0.93907 -0.851262,0.19699 -1.716381,0.33742 -2.591803,0.35783 -0.8319,0.007 -1.665036,-0.0416 -2.479598,-0.22293 -0.795782,-0.18854 -1.577914,-0.42691 -2.314252,-0.78911 -0.747662,-0.36132 -1.477246,-0.75969 -2.151245,-1.2477 -0.716248,-0.51747 -1.406144,-1.07003 -2.042224,-1.68474 -0.682355,-0.67565 -1.343443,-1.3727 -1.951622,-2.11667 -0.66135,-0.81076 -1.300578,-1.63949 -1.897375,-2.49927 -0.624591,-0.92314 -1.226499,-1.86112 -1.784111,-2.82657 -0.574498,-1.00249 -1.118352,-2.02256 -1.605677,-3.07064 -0.489294,-1.08266 -0.947923,-2.17853 -1.335911,-3.30218 -0.404098,-1.17426 -0.762362,-2.36309 -1.049276,-3.57193 -0.298098,-1.25389 -0.561107,-2.51587 -0.749136,-3.79152 -0.194604,-1.29235 -0.373407,-2.58695 -0.48038,-3.89008 -0.104627,-1.28234 -0.187854,-2.56683 -0.217689,-3.85333 -0.02919,-1.24804 -0.03556,-2.49673 -7.94e-4,-3.74476 0.03041,-1.1656 0.08584,-2.33038 0.186667,-3.49224 0.09682,-1.0294 0.230864,-2.05535 0.415649,-3.07291 0.163426,-0.8609 0.350544,-1.71828 0.623687,-2.5521 0.220628,-0.67439 0.453101,-1.34686 0.785558,-1.97614 0.252865,-0.46613 0.523222,-0.92261 0.83334,-1.35342 0.198514,-0.26265 0.393726,-0.53041 0.635185,-0.75611 2.004523,-2.00453 2.949461,-1.05958 0.944941,0.94494 z"
       inkscape:connector-curvature="0" />
    <path
       style="opacity:1;fill:#000000;fill-opacity:1;fill-rule:nonzero;stroke:none;stroke-width:0.39700001;stroke-linecap:round;stroke-linejoin:round;stroke-miterlimit:4;stroke-dasharray:none;stroke-dashoffset:0;stroke-opacity:1;paint-order:markers fill stroke"
       id="path4487"
       d="m 60.343573,253.49584 c 0.271187,0.22119 0.548727,0.43464 0.821529,0.65407 0.508682,0.39909 1.011033,0.80632 1.506611,1.22155 0.634455,0.52338 1.257416,1.06035 1.876647,1.60157 0.645592,0.57997 1.273882,1.17883 1.902426,1.77712 0.572114,0.55845 1.134205,1.12778 1.673442,1.71813 0.07373,0.0803 0.147455,0.16054 0.221181,0.2408 1.917626,2.08781 0.933426,2.99178 -0.9842,0.90398 v 0 c -0.07469,-0.0813 -0.149389,-0.16265 -0.224083,-0.24397 -0.517565,-0.56771 -1.058691,-1.11377 -1.607704,-1.651 -0.614844,-0.58526 -1.229429,-1.17107 -1.860515,-1.73888 -0.612294,-0.5352 -1.2283,-1.06615 -1.855693,-1.58364 -0.488479,-0.40971 -0.984324,-0.81072 -1.485786,-1.20445 -0.278754,-0.2243 -0.56229,-0.44249 -0.839364,-0.66867 -2.177772,-1.81481 -1.322263,-2.84142 0.855509,-1.02661 z"
       inkscape:connector-curvature="0" />
    <path
       style="opacity:1;fill:#000000;fill-opacity:1;fill-rule:nonzero;stroke:none;stroke-width:0.39700001;stroke-linecap:round;stroke-linejoin:round;stroke-miterlimit:4;stroke-dasharray:none;stroke-dashoffset:0;stroke-opacity:1;paint-order:markers fill stroke"
       id="path4489"
       d="m 67.999501,252.11703 c -0.177245,0.20185 -0.337532,0.41763 -0.477743,0.64724 -0.318211,0.55983 -0.609028,1.13497 -0.898461,1.71009 -0.402569,0.81347 -0.786897,1.6357 -1.171916,2.45756 -0.420971,0.90048 -0.869355,1.7874 -1.320769,2.67283 -0.213532,0.42268 -0.439893,0.83857 -0.667348,1.25384 -1.362083,2.48615 -2.534065,1.84406 -1.171982,-0.64209 v 0 c 0.221186,-0.4036 0.441238,-0.80785 0.648779,-1.21872 0.444667,-0.87219 0.886524,-1.74576 1.301184,-2.63278 0.390343,-0.83322 0.780047,-1.66678 1.18836,-2.49141 0.307626,-0.61119 0.616376,-1.22273 0.95785,-1.81585 0.218879,-0.34682 0.458634,-0.68292 0.756537,-0.96733 2.177769,-1.81481 3.033278,-0.78819 0.855509,1.02662 z"
       inkscape:connector-curvature="0" />
    <path
       style="opacity:1;fill:#000000;fill-opacity:1;fill-rule:nonzero;stroke:none;stroke-width:0.39700001;stroke-linecap:round;stroke-linejoin:round;stroke-miterlimit:4;stroke-dasharray:none;stroke-dashoffset:0;stroke-opacity:1;paint-order:markers fill stroke"
       id="path4491"
       d="m 56.671352,254.08607 c 0.202261,-0.29291 0.47036,-0.5226 0.757507,-0.7281 0.391571,-0.27794 0.830393,-0.47314 1.276134,-0.64538 0.298865,-0.11568 0.14723,-0.0579 0.454945,-0.17327 2.654501,-0.99491 3.123504,0.25644 0.469003,1.25134 v 0 c -0.295272,0.11062 -0.147153,0.0542 -0.444338,0.16925 -0.344811,0.13178 -0.686234,0.27833 -0.989187,0.49269 -0.155734,0.10449 -0.297977,0.22472 -0.412155,0.37474 -1.572474,2.35871 -2.684383,1.61744 -1.111909,-0.74127 z"
       inkscape:connector-curvature="0" />
    <path
       style="opacity:1;fill:#000000;fill-opacity:1;fill-rule:nonzero;stroke:none;stroke-width:0.39700001;stroke-linecap:round;stroke-linejoin:round;stroke-miterlimit:4;stroke-dasharray:none;stroke-dashoffset:0;stroke-opacity:1;paint-order:markers fill stroke"
       id="path4493"
       d="m 68.040688,249.40772 c 0.269812,-0.20828 0.564555,-0.3823 0.862407,-0.54694 0.373282,-0.21819 0.768292,-0.39273 1.171027,-0.54808 2.646162,-1.01688 3.125523,0.23053 0.479364,1.24741 v 0 c -0.346538,0.13256 -0.68572,0.28298 -1.006067,0.47142 -0.223904,0.12253 -0.444069,0.2534 -0.651222,0.4028 -2.177769,1.81481 -3.033278,0.7882 -0.855509,-1.02661 z"
       inkscape:connector-curvature="0" />
    <path
       style="opacity:1;fill:#000000;fill-opacity:1;fill-rule:nonzero;stroke:none;stroke-width:0.39700001;stroke-linecap:round;stroke-linejoin:round;stroke-miterlimit:4;stroke-dasharray:none;stroke-dashoffset:0;stroke-opacity:1;paint-order:markers fill stroke"
       id="path4495"
       d="m 59.70271,263.34657 c 0.220083,-0.23603 0.490373,-0.41073 0.76985,-0.56721 0.348155,-0.18597 0.723805,-0.30839 1.101696,-0.41717 2.725192,-0.78072 3.09323,0.50395 0.368035,1.28467 v 0 c -0.281257,0.0801 -0.562006,0.16747 -0.822917,0.30188 -0.172017,0.0933 -0.339215,0.19617 -0.471723,0.34277 -2.004523,2.00453 -2.949464,1.05958 -0.944941,-0.94494 z"
       inkscape:connector-curvature="0" />
    <path
       style="opacity:1;fill:#000000;fill-opacity:1;fill-rule:nonzero;stroke:none;stroke-width:0.39700001;stroke-linecap:round;stroke-linejoin:round;stroke-miterlimit:4;stroke-dasharray:none;stroke-dashoffset:0;stroke-opacity:1;paint-order:markers fill stroke"
       id="path4497"
       d="m 70.235963,261.93465 c 0.228446,-0.14774 0.457964,-0.29253 0.693626,-0.42877 0.366025,-0.21315 0.750882,-0.38968 1.136348,-0.5641 0.289806,-0.1249 0.583396,-0.24096 0.876732,-0.35729 2.635273,-1.04478 3.127785,0.1975 0.492511,1.24228 v 0 c -0.273836,0.10852 -0.547801,0.21701 -0.818692,0.33268 -0.345194,0.15595 -0.690409,0.31257 -1.018128,0.5034 -0.210994,0.12195 -0.417086,0.25056 -0.621125,0.38371 -2.358715,1.57247 -3.099988,0.46057 -0.741272,-1.11191 z"
       inkscape:connector-curvature="0" />
    <path
       style="opacity:1;fill:#000000;fill-opacity:1;fill-rule:nonzero;stroke:none;stroke-width:0.39700001;stroke-linecap:round;stroke-linejoin:round;stroke-miterlimit:4;stroke-dasharray:none;stroke-dashoffset:0;stroke-opacity:1;paint-order:markers fill stroke"
       id="path4499"
       d="m 126.67554,192.9157 c -0.10204,0.21068 -0.20158,0.4215 -0.2826,0.64127 -0.12825,0.39073 -0.22447,0.79182 -0.31434,1.19292 -0.12883,0.59158 -0.19771,1.19349 -0.28184,1.79238 -0.11373,0.76458 -0.19424,1.53336 -0.26659,2.30278 -0.0732,0.89908 -0.14598,1.79814 -0.22211,2.69701 -0.086,0.97637 -0.14763,1.95421 -0.1809,2.93373 -0.0302,1.03094 -0.0464,2.06222 -0.0621,3.09347 -0.0152,1.05378 -0.002,2.10823 0.0291,3.16163 0.0329,1.04543 0.10876,2.08889 0.19496,3.13108 0.0868,1.01998 0.24165,2.03168 0.40849,3.04102 0.1598,0.98114 0.39893,1.94579 0.66419,2.90291 0.26599,0.94385 0.59937,1.86613 0.95083,2.78089 0.349,0.89131 0.73457,1.7678 1.15958,2.62537 0.42102,0.83719 0.8892,1.64798 1.38128,2.44492 0.48043,0.78368 1.02205,1.52684 1.58398,2.25338 0.53894,0.70509 1.12256,1.37321 1.72184,2.02709 0.55794,0.60886 1.15684,1.17934 1.77227,1.72953 0.58166,0.50139 1.17685,0.98772 1.80094,1.43541 0.58398,0.42292 1.19864,0.80022 1.8257,1.15513 0.59666,0.33104 1.22692,0.59165 1.86473,0.83083 0.63467,0.23507 1.28766,0.40881 1.9499,0.54446 0.66832,0.14215 1.34869,0.20629 2.02816,0.26647 0.67601,0.0486 1.35354,0.0558 2.0305,0.0287 0.6819,-0.0243 1.35883,-0.11783 2.02921,-0.24083 0.69712,-0.13196 1.38061,-0.31865 2.05493,-0.53743 0.67482,-0.22268 1.32183,-0.51685 1.95741,-0.83232 0.66552,-0.32267 1.29034,-0.71897 1.89825,-1.13815 0.63809,-0.45066 1.22492,-0.9663 1.80035,-1.49297 0.58087,-0.54586 1.1061,-1.14458 1.59917,-1.76975 0.50806,-0.65525 0.95783,-1.35185 1.38563,-2.06118 0.45212,-0.74868 0.84321,-1.53068 1.21976,-2.31925 0.39736,-0.8403 0.73789,-1.705 1.06079,-2.57606 0.32879,-0.93389 0.59605,-1.88823 0.84483,-2.84608 0.26164,-1.01372 0.45315,-2.0432 0.62864,-3.07471 0.17136,-1.04681 0.31559,-2.09813 0.42045,-3.15368 0.10234,-1.05726 0.15766,-2.11763 0.1729,-3.1795 0.0182,-1.07128 -0.0446,-2.14173 -0.14246,-3.20801 -0.10331,-1.04929 -0.30501,-2.08522 -0.51649,-3.11707 -0.20516,-1.00382 -0.48645,-1.98892 -0.79423,-2.96536 -0.30122,-0.94382 -0.6905,-1.85622 -1.09662,-2.7588 -0.40874,-0.8777 -0.8718,-1.7283 -1.36464,-2.56117 -0.49867,-0.81065 -1.0478,-1.58787 -1.61166,-2.35399 -0.55823,-0.74358 -1.16545,-1.44842 -1.78871,-2.13778 -0.63288,-0.69561 -1.28568,-1.37239 -1.95707,-2.03081 -0.66065,-0.65737 -1.38265,-1.24833 -2.10178,-1.83964 -0.69969,-0.57396 -1.43085,-1.10689 -2.17015,-1.62816 -0.7359,-0.50094 -1.49365,-0.96918 -2.26412,-1.41482 -0.77186,-0.44275 -1.57457,-0.82695 -2.37876,-1.20635 -0.8119,-0.38679 -1.65961,-0.68668 -2.51647,-0.95561 -0.89739,-0.28611 -1.82171,-0.46351 -2.75496,-0.57846 -1.0026,-0.11577 -2.00905,-0.0736 -3.00827,0.0453 -1.01018,0.13335 -1.97523,0.45432 -2.90292,0.86544 -0.74837,0.34596 -1.42407,0.81093 -2.06246,1.32749 -2.20752,1.7785 -3.04591,0.73786 -0.83839,-1.04064 v 0 c 0.7319,-0.58744 1.50505,-1.11809 2.36211,-1.50979 1.05105,-0.46062 2.14228,-0.8233 3.28562,-0.9697 1.10601,-0.12863 2.21981,-0.17494 3.32904,-0.0443 1.01298,0.12679 2.01669,0.31854 2.99087,0.62974 0.91461,0.28778 1.81931,0.60886 2.68604,1.0219 0.83797,0.39539 1.67398,0.79663 2.47802,1.25838 0.80467,0.46613 1.59667,0.95479 2.3648,1.47928 0.76614,0.54037 1.52367,1.0931 2.24875,1.68806 0.74928,0.61613 1.50057,1.23293 2.18888,1.9179 0.69028,0.67741 1.36201,1.37315 2.01272,2.08878 0.6529,0.72286 1.28923,1.46172 1.87355,2.24172 0.5902,0.80219 1.16464,1.61631 1.68557,2.46575 0.51771,0.87583 1.00449,1.77012 1.43316,2.69334 0.42724,0.95044 0.83603,1.91141 1.15244,2.90536 0.32128,1.02037 0.61461,2.04987 0.82881,3.09877 0.2211,1.08024 0.43111,2.16484 0.53811,3.2634 0.10158,1.11332 0.1671,2.23088 0.14787,3.34937 -0.0164,1.09958 -0.0729,2.19768 -0.17934,3.29247 -0.10859,1.08619 -0.2558,2.16821 -0.43281,3.24539 -0.18207,1.0691 -0.38119,2.13599 -0.65265,3.18661 -0.26039,1.00126 -0.54009,1.99885 -0.88527,2.97465 -0.3372,0.9087 -0.6929,1.81075 -1.10787,2.68728 -0.39537,0.82765 -0.80682,1.64799 -1.28145,2.43375 -0.45708,0.75709 -0.93808,1.5003 -1.48128,2.19925 -0.53864,0.68056 -1.11102,1.33353 -1.74561,1.92718 -0.62087,0.5679 -1.25517,1.12265 -1.94432,1.60753 -0.66073,0.45477 -1.34004,0.88418 -2.06278,1.23493 -0.69459,0.34401 -1.4019,0.66411 -2.13935,0.90642 -0.73074,0.23615 -1.47124,0.43849 -2.22656,0.58068 -0.73254,0.13315 -1.47187,0.23542 -2.21684,0.26153 -0.7338,0.0282 -1.46826,0.0216 -2.20092,-0.0328 -0.73016,-0.0648 -1.46101,-0.13592 -2.17916,-0.28861 -0.73033,-0.15057 -1.45076,-0.34244 -2.15061,-0.60238 -0.70277,-0.26418 -1.39674,-0.55319 -2.05371,-0.91918 -0.66857,-0.37911 -1.32419,-0.78156 -1.94703,-1.23279 -0.66173,-0.47665 -1.29556,-0.99055 -1.9119,-1.52452 -0.64797,-0.58009 -1.27897,-1.18095 -1.86654,-1.82267 -0.62429,-0.68146 -1.23206,-1.37796 -1.79378,-2.11251 -0.5903,-0.76378 -1.15899,-1.54516 -1.66387,-2.36878 -0.51383,-0.83245 -1.00242,-1.67959 -1.44185,-2.55414 -0.44245,-0.89509 -0.84618,-1.80875 -1.20939,-2.73898 -0.36669,-0.95498 -0.714,-1.91798 -0.99121,-2.90337 -0.27756,-1.00288 -0.52742,-2.01373 -0.69477,-3.04166 -0.17272,-1.04507 -0.33215,-2.09273 -0.42184,-3.14882 -0.0881,-1.06559 -0.16532,-2.13251 -0.19892,-3.20141 -0.0318,-1.07343 -0.0453,-2.14789 -0.0296,-3.2217 0.0158,-1.03965 0.0321,-2.07935 0.0627,-3.11869 0.0342,-1.00197 0.0969,-2.00226 0.1849,-3.00102 0.0765,-0.90301 0.14945,-1.80621 0.22322,-2.70943 0.0744,-0.78973 0.15713,-1.57881 0.27373,-2.36361 0.0893,-0.63476 0.16311,-1.27261 0.30133,-1.89932 0.10377,-0.46062 0.21436,-0.92149 0.36676,-1.36873 0.1189,-0.31393 0.25545,-0.62202 0.42211,-0.91376 1.57248,-2.35872 2.68439,-1.61745 1.11191,0.74127 z"
       inkscape:connector-curvature="0" />
    <path
       style="opacity:1;fill:#000000;fill-opacity:1;fill-rule:nonzero;stroke:none;stroke-width:0.39700001;stroke-linecap:round;stroke-linejoin:round;stroke-miterlimit:4;stroke-dasharray:none;stroke-dashoffset:0;stroke-opacity:1;paint-order:markers fill stroke"
       id="path4505"
       d="m 132.69813,250.80152 c -0.0433,-0.34955 0.0238,-0.69087 0.10694,-1.02867 0.11004,-0.39984 0.26662,-0.78495 0.43985,-1.16108 0.1677,-0.41244 0.42068,-0.76802 0.7413,-1.07348 0.368,-0.31115 0.79707,-0.40054 1.26555,-0.36168 0.44262,0.0635 0.81699,0.28938 1.17115,0.54824 0.34002,0.25936 0.66993,0.53149 0.99561,0.80854 0.29669,0.25354 0.58896,0.51028 0.9176,0.72205 0.22212,0.14012 0.47191,0.2275 0.73302,0.25257 0.21644,0.007 0.41598,-0.0944 0.60192,-0.19479 0.25532,-0.15262 0.46075,-0.36981 0.63729,-0.6063 0.22022,-0.31021 0.3798,-0.6561 0.52561,-1.00578 0.13404,-0.32824 0.22134,-0.67295 0.29911,-1.01809 0.0918,-0.30636 5.3e-4,-0.43604 0.0906,-0.007 1.50269,0.0378 1.22694,-0.22473 1.1261,0.68162 -0.0569,0.47149 -0.0601,0.94576 -0.061,1.41985 0.004,0.65716 -0.002,1.31451 0.0159,1.97146 0.0363,0.70466 0.0516,1.4094 0.0519,2.1149 8e-4,0.66665 -0.002,1.33296 -0.0296,1.99908 -0.0241,0.67405 -0.15802,1.33301 -0.35088,1.97705 -0.18691,0.59208 -0.47387,1.1389 -0.83437,1.64191 -0.36376,0.48724 -0.83469,0.86238 -1.34922,1.17749 -0.52203,0.30247 -1.095,0.4818 -1.67916,0.61688 -0.56864,0.12724 -1.1492,0.10819 -1.72409,0.0467 -0.50823,-0.0623 -0.99212,-0.20845 -1.45273,-0.4286 -0.28665,-0.17084 -0.14903,-0.0799 -0.41336,-0.27201 -2.27451,-1.69198 -1.47691,-2.7642 0.79761,-1.07222 v 0 c 0.1294,0.10075 0.0625,0.0531 0.20087,0.14279 0.31934,0.16037 0.6598,0.25299 1.01395,0.30173 0.42575,0.0487 0.85655,0.0696 1.27889,-0.0208 0.44646,-0.10146 0.88585,-0.23148 1.28714,-0.45827 0.36594,-0.21648 0.69867,-0.48014 0.95935,-0.8196 0.27996,-0.37647 0.48839,-0.79688 0.6359,-1.24246 0.16372,-0.53571 0.27406,-1.08481 0.29492,-1.64629 0.0271,-0.64736 0.0288,-1.29492 0.0285,-1.94281 -2.3e-4,-0.69361 -0.0158,-1.3864 -0.0514,-2.0792 -0.0178,-0.66991 -0.0126,-1.34015 -0.0164,-2.01026 0.001,-0.52296 0.007,-1.04612 0.0693,-1.56616 0.0102,-0.0908 0.12119,-0.86553 0.1472,-0.87177 0.42192,-0.10121 0.86041,-0.11281 1.29062,-0.16921 0.0671,0.28231 0.0594,0.52972 -0.0229,0.80906 -0.0952,0.42102 -0.20523,0.84041 -0.37013,1.24026 -0.19149,0.45526 -0.40474,0.90344 -0.69827,1.30331 -0.30177,0.38645 -0.64573,0.73902 -1.07988,0.9776 -0.43391,0.2214 -0.89077,0.38732 -1.38717,0.33531 -0.46041,-0.0647 -0.90291,-0.20196 -1.29521,-0.45907 -0.37403,-0.24611 -0.71683,-0.53 -1.05401,-0.82401 -0.30137,-0.25711 -0.6074,-0.50877 -0.9217,-0.74994 -0.16206,-0.12077 -0.32409,-0.24316 -0.52308,-0.29563 -0.0811,-0.019 -0.14335,-0.0307 -0.21859,0.0188 -0.20691,0.1671 -0.32475,0.41209 -0.43133,0.64998 -0.13931,0.2977 -0.26249,0.60383 -0.35488,0.91952 -0.0425,0.17117 -0.0919,0.34076 -0.0813,0.51907 0.40091,2.80633 -0.92201,2.99532 -1.32291,0.18899 z"
       inkscape:connector-curvature="0" />
    <path
       style="opacity:1;fill:#000000;fill-opacity:1;fill-rule:nonzero;stroke:none;stroke-width:0.39700001;stroke-linecap:round;stroke-linejoin:round;stroke-miterlimit:4;stroke-dasharray:none;stroke-dashoffset:0;stroke-opacity:1;paint-order:markers fill stroke"
       id="path4507"
       d="m 209.11781,195.45589 c -0.17753,0.15644 -0.32425,0.33678 -0.46456,0.52592 -0.21999,0.30343 -0.37851,0.64491 -0.52402,0.98865 -0.22365,0.4985 -0.37229,1.02352 -0.52121,1.54758 -0.19427,0.6868 -0.32728,1.3886 -0.4653,2.08826 -0.16735,0.85019 -0.28245,1.70922 -0.386,2.56911 -0.12472,0.98446 -0.17373,1.97565 -0.21973,2.96618 -0.0421,1.07299 -0.024,2.14676 0.0341,3.21863 0.061,1.13052 0.18614,2.25643 0.34051,3.37762 0.15853,1.11689 0.39904,2.21936 0.67184,3.31319 0.26929,1.057 0.59483,2.09846 0.96882,3.12281 0.35413,0.96384 0.79356,1.89144 1.26034,2.80482 0.44777,0.85073 0.96343,1.66186 1.51757,2.44654 0.52824,0.73905 1.12326,1.42782 1.74119,2.09264 0.5669,0.61609 1.18043,1.18503 1.81414,1.73111 0.5737,0.49163 1.18095,0.93969 1.81122,1.35549 0.59541,0.39662 1.23796,0.70885 1.895,0.98765 0.67195,0.28774 1.38044,0.46552 2.09092,0.62714 0.72156,0.1472 1.45223,0.23899 2.18536,0.30239 0.71531,0.0658 1.43416,0.0648 2.15108,0.033 0.7476,-0.0369 1.48506,-0.15769 2.22013,-0.29152 0.78365,-0.14479 1.55371,-0.35239 2.30881,-0.60557 0.80392,-0.27656 1.57817,-0.62602 2.33492,-1.01141 0.81327,-0.41852 1.58362,-0.91368 2.32845,-1.44293 0.7981,-0.55943 1.54488,-1.18721 2.27614,-1.83025 0.75271,-0.65135 1.44579,-1.36554 2.11194,-2.10389 0.67029,-0.75722 1.25869,-1.5793 1.82864,-2.41294 0.57569,-0.85283 1.07547,-1.75213 1.55636,-2.66065 0.46536,-0.89652 0.87845,-1.81792 1.25814,-2.75349 0.38062,-0.91534 0.69531,-1.85576 0.99188,-2.80106 0.30222,-0.9753 0.53395,-1.96991 0.74431,-2.9684 0.21826,-1.00071 0.34534,-2.01702 0.46141,-3.03358 0.1077,-1.02116 0.14411,-2.04701 0.16957,-3.07283 0.0137,-1.05577 -0.009,-2.11131 -0.0625,-3.16568 -0.056,-1.06012 -0.21718,-2.10956 -0.41048,-3.15205 -0.18944,-1.06244 -0.49261,-2.09674 -0.84054,-3.1165 -0.35079,-1.03076 -0.79124,-2.02685 -1.25808,-3.00931 -0.47876,-0.98603 -1.02032,-1.9394 -1.59617,-2.87145 -0.58726,-0.93081 -1.24228,-1.81431 -1.9414,-2.66336 -0.72144,-0.85255 -1.53945,-1.61281 -2.38872,-2.33506 -0.88679,-0.75891 -1.86474,-1.39595 -2.86697,-1.98933 -1.02858,-0.59991 -2.12784,-1.05692 -3.24235,-1.46841 -1.14631,-0.40869 -2.33277,-0.66958 -3.52956,-0.8755 -1.24246,-0.20411 -2.50118,-0.25374 -3.75778,-0.22713 -1.30934,0.0252 -2.59631,0.25855 -3.86398,0.57006 -1.27199,0.31909 -2.45116,0.87637 -3.58595,1.52053 -1.117,0.64254 -2.08002,1.49193 -2.98218,2.4028 -0.1399,0.15495 -0.2798,0.30991 -0.4197,0.46487 -1.90203,2.10202 -2.89293,1.20539 -0.9909,-0.89663 v 0 c 0.15398,-0.16981 0.30796,-0.33963 0.46193,-0.50945 0.98972,-0.996 2.04784,-1.9226 3.27217,-2.62433 1.24261,-0.70262 2.5349,-1.30845 3.92664,-1.65575 1.36326,-0.33304 2.74715,-0.5819 4.15471,-0.60817 1.34176,-0.0264 2.68567,0.0264 4.01207,0.24628 1.27714,0.22059 2.54312,0.50125 3.76591,0.93898 1.18974,0.44036 2.36273,0.93033 3.46028,1.57222 1.06696,0.63291 2.10765,1.3128 3.05191,2.12139 0.90862,0.77423 1.78368,1.58925 2.55446,2.50362 0.73667,0.89615 1.428,1.82784 2.04647,2.81028 0.60103,0.97392 1.16687,1.96975 1.66619,3.00015 0.48856,1.02885 0.94878,2.07224 1.3159,3.15157 0.36819,1.08127 0.68857,2.17814 0.88965,3.30432 0.20352,1.10067 0.3726,2.20871 0.43112,3.3279 0.0548,1.08791 0.0787,2.177 0.0638,3.26633 -0.0265,1.06541 -0.0652,2.13084 -0.17779,3.19132 -0.12096,1.05816 -0.2545,2.11588 -0.48151,3.15757 -0.21948,1.04045 -0.46155,2.07678 -0.77693,3.093 -0.3078,0.97983 -0.63422,1.95463 -1.02871,2.90356 -0.39701,0.97718 -0.82857,1.93975 -1.31526,2.876 -0.5046,0.95288 -1.02994,1.89558 -1.63435,2.78975 -0.604,0.88293 -1.22879,1.75276 -1.93976,2.55406 -0.70106,0.77609 -1.43015,1.52703 -2.22166,2.21214 -0.76637,0.67324 -1.54893,1.3304 -2.38502,1.91636 -0.79882,0.56607 -1.62404,1.0968 -2.49604,1.54425 -0.81596,0.41437 -1.65047,0.79086 -2.51721,1.08771 -0.81582,0.27166 -1.6466,0.49769 -2.49301,0.65285 -0.79486,0.14457 -1.59278,0.27258 -2.40111,0.31183 -0.77489,0.0333 -1.55175,0.0347 -2.32487,-0.0367 -0.7941,-0.0691 -1.58562,-0.16915 -2.36678,-0.33079 -0.78774,-0.17983 -1.57231,-0.38087 -2.31713,-0.70039 -0.73101,-0.31171 -1.44593,-0.66063 -2.10867,-1.10248 -0.67699,-0.44815 -1.33071,-0.92906 -1.9471,-1.45832 -0.6707,-0.57874 -1.32035,-1.18138 -1.92068,-1.83379 -0.65799,-0.70913 -1.29181,-1.44337 -1.85397,-2.23171 -0.58975,-0.83699 -1.13972,-1.7014 -1.61564,-2.60894 -0.49125,-0.9622 -0.95318,-1.93965 -1.32574,-2.95494 -0.38918,-1.0688 -0.72997,-2.15469 -1.01003,-3.25747 -0.28392,-1.14043 -0.53435,-2.28981 -0.69903,-3.45425 -0.15899,-1.15778 -0.28835,-2.32033 -0.35103,-3.48771 -0.0599,-1.11651 -0.0792,-2.23497 -0.0346,-3.35262 0.0476,-1.02322 0.0991,-2.04707 0.22789,-3.06401 0.10768,-0.893 0.2277,-1.78504 0.40168,-2.66793 0.14516,-0.73552 0.28601,-1.47306 0.49092,-2.19489 0.16431,-0.57812 0.33168,-1.15622 0.5774,-1.70641 0.18871,-0.44004 0.39574,-0.87538 0.68122,-1.26232 0.20363,-0.27291 0.42292,-0.53116 0.68111,-0.75472 2.17777,-1.81481 3.03328,-0.78819 0.85551,1.02662 z"
       inkscape:connector-curvature="0" />
    <path
       style="opacity:1;fill:#000000;fill-opacity:1;fill-rule:nonzero;stroke:none;stroke-width:0.39700001;stroke-linecap:round;stroke-linejoin:round;stroke-miterlimit:4;stroke-dasharray:none;stroke-dashoffset:0;stroke-opacity:1;paint-order:markers fill stroke"
       id="path4509"
       d="m 215.74592,241.57188 c 0.32408,-0.1346 0.669,-0.20609 1.01223,-0.27187 0.48289,-0.0877 0.97123,-0.1395 1.45943,-0.18657 0.56505,-0.0524 1.13385,-0.0643 1.70105,-0.0561 0.56745,0.009 1.13346,0.0554 1.69697,0.12069 0.56658,0.0496 1.11195,0.18904 1.63155,0.41702 0.47542,0.21676 0.83422,0.56457 1.11605,0.99684 0.25779,0.45678 0.32447,0.96529 0.3232,1.48087 -0.0154,0.59642 -0.19723,1.16137 -0.39694,1.71714 -0.24211,0.66306 -0.55632,1.29482 -0.88251,1.91954 -0.3683,0.70822 -0.7603,1.40352 -1.16113,2.09372 -0.39139,0.67089 -0.76921,1.3496 -1.15989,2.02088 -0.32915,0.57599 -0.65456,1.15507 -0.95613,1.74609 -0.2088,0.41346 -0.38068,0.84464 -0.46914,1.29999 -0.0408,0.23576 -0.0218,0.46564 0.0707,0.68541 0.11562,0.16786 0.29765,0.26737 0.47372,0.35993 0.41551,0.20191 0.86515,0.30626 1.3164,0.39063 0.61671,0.10744 1.23933,0.17504 1.86168,0.23971 0.60094,0.0652 1.20593,0.0791 1.80961,0.10042 0.081,0.003 0.16202,0.006 0.24303,0.009 2.83302,0.10098 2.78542,1.43648 -0.0476,1.33549 v 0 c -0.0809,-0.003 -0.16176,-0.006 -0.24264,-0.009 -0.63406,-0.0224 -1.26942,-0.038 -1.90059,-0.10675 -0.65912,-0.0686 -1.3185,-0.14076 -1.97146,-0.25576 -0.58825,-0.11203 -1.17255,-0.25722 -1.70936,-0.53115 -0.45799,-0.25586 -0.8693,-0.5678 -1.08431,-1.06402 -0.16441,-0.46116 -0.22328,-0.93447 -0.12868,-1.42017 0.11988,-0.57279 0.32009,-1.12146 0.58881,-1.64203 0.31351,-0.61228 0.64918,-1.21346 0.99114,-1.81022 0.39069,-0.67072 0.76781,-1.34932 1.1592,-2.01967 0.39092,-0.67291 0.77315,-1.35082 1.13226,-2.04136 0.29855,-0.57102 0.58751,-1.14778 0.80973,-1.75375 0.14991,-0.41466 0.2985,-0.83316 0.31788,-1.27846 0.006,-0.25589 -0.0118,-0.51229 -0.11518,-0.75036 -0.13015,-0.21719 -0.29978,-0.38505 -0.53362,-0.49319 -0.392,-0.18097 -0.81155,-0.26936 -1.24089,-0.30951 -0.5188,-0.0612 -1.04019,-0.10259 -1.56268,-0.11181 -0.51747,-0.009 -1.0366,0.004 -1.55215,0.0502 -0.44738,0.043 -0.89496,0.0898 -1.33762,0.16916 -0.2485,0.0469 -0.49935,0.0948 -0.73565,0.18738 -2.60562,1.11669 -3.13203,-0.11161 -0.52642,-1.2283 z"
       inkscape:connector-curvature="0" />
    <path
       style="opacity:1;fill:#000000;fill-opacity:1;fill-rule:nonzero;stroke:none;stroke-width:0.39700001;stroke-linecap:round;stroke-linejoin:round;stroke-miterlimit:4;stroke-dasharray:none;stroke-dashoffset:0;stroke-opacity:1;paint-order:markers fill stroke"
       id="path4511"
       d="m 216.00913,250.0942 c 0.27971,0.009 0.55827,-0.0133 0.83714,-0.0313 0.52863,-0.0317 1.05742,-0.0552 1.58565,-0.0933 0.7077,-0.0461 1.41442,-0.10683 2.11974,-0.18077 0.76718,-0.0879 1.53529,-0.1668 2.30411,-0.23886 0.11771,-0.011 0.23542,-0.022 0.35312,-0.033 2.82252,-0.26388 2.94691,1.06667 0.1244,1.33055 v 0 c -0.11762,0.011 -0.23524,0.022 -0.35285,0.033 -0.76403,0.0716 -1.52735,0.15012 -2.28975,0.23744 -0.71967,0.0751 -1.44068,0.13766 -2.16276,0.18456 -0.53155,0.0383 -1.06363,0.0624 -1.59559,0.094 -0.30747,0.0199 -0.61485,0.0424 -0.92321,0.0341 -2.83482,0 -2.83482,-1.33635 0,-1.33635 z"
       inkscape:connector-curvature="0" />
    <circle
       style="opacity:1;fill:#000000;fill-opacity:1;fill-rule:nonzero;stroke:none;stroke-width:0.39700001;stroke-linecap:round;stroke-linejoin:round;stroke-miterlimit:4;stroke-dasharray:none;stroke-dashoffset:0;stroke-opacity:1;paint-order:markers fill stroke"
       id="path4521"
       cx="64.946495"
       cy="216.81914"
       r="1.8708867" />
    <circle
       style="opacity:1;fill:#000000;fill-opacity:1;fill-rule:nonzero;stroke:none;stroke-width:0.39700001;stroke-linecap:round;stroke-linejoin:round;stroke-miterlimit:4;stroke-dasharray:none;stroke-dashoffset:0;stroke-opacity:1;paint-order:markers fill stroke"
       id="path4521-7"
       cx="142.18739"
       cy="199.17935"
       r="1.8708867" />
    <circle
       style="opacity:1;fill:#000000;fill-opacity:1;fill-rule:nonzero;stroke:none;stroke-width:0.39700001;stroke-linecap:round;stroke-linejoin:round;stroke-miterlimit:4;stroke-dasharray:none;stroke-dashoffset:0;stroke-opacity:1;paint-order:markers fill stroke"
       id="path4521-0"
       cx="225.04094"
       cy="204.52473"
       r="1.8708867" />
    <path
       style="opacity:1;fill:#000000;fill-opacity:1;fill-rule:nonzero;stroke:none;stroke-width:0.39700001;stroke-linecap:round;stroke-linejoin:round;stroke-miterlimit:4;stroke-dasharray:none;stroke-dashoffset:0;stroke-opacity:1;paint-order:markers fill stroke"
       id="path4544"
       d="m 62.126118,224.55599 c 0.241007,0.13157 0.478293,0.27033 0.716325,0.40735 0.321173,0.1749 0.64855,0.33853 0.976461,0.50043 0.377788,0.18268 0.760069,0.35656 1.130451,0.55404 2.499389,1.33764 1.868821,2.51586 -0.630568,1.17823 v 0 c -0.356907,-0.19191 -0.727853,-0.35635 -1.091843,-0.53418 -0.353206,-0.17463 -0.706083,-0.35066 -1.051396,-0.54047 -0.236696,-0.13637 -0.472419,-0.27485 -0.712444,-0.40512 -2.461313,-1.40647 -1.798298,-2.56674 0.663014,-1.16028 z"
       inkscape:connector-curvature="0" />
    <path
       style="opacity:1;fill:#000000;fill-opacity:1;fill-rule:nonzero;stroke:none;stroke-width:0.39700001;stroke-linecap:round;stroke-linejoin:round;stroke-miterlimit:4;stroke-dasharray:none;stroke-dashoffset:0;stroke-opacity:1;paint-order:markers fill stroke"
       id="path4546"
       d="m 65.269652,223.81944 c -0.104167,0.27318 -0.196387,0.55058 -0.289217,0.82783 -0.131394,0.41585 -0.277801,0.8267 -0.410561,1.2421 -0.159904,0.46026 -0.316199,0.9217 -0.486159,1.37838 -0.08304,0.23658 -0.180684,0.46763 -0.275122,0.69978 -1.068194,2.62587 -2.306039,2.12232 -1.237845,-0.50355 v 0 c 0.08947,-0.21993 0.18251,-0.43859 0.260744,-0.66288 0.163037,-0.43687 0.31165,-0.87877 0.465574,-1.31889 0.134824,-0.4211 0.282697,-0.83784 0.416211,-1.25936 0.104447,-0.31172 0.208481,-0.62351 0.328078,-0.92982 1.11669,-2.60562 2.344986,-2.0792 1.228297,0.52641 z"
       inkscape:connector-curvature="0" />
    <path
       style="opacity:1;fill:#000000;fill-opacity:1;fill-rule:nonzero;stroke:none;stroke-width:0.39700001;stroke-linecap:round;stroke-linejoin:round;stroke-miterlimit:4;stroke-dasharray:none;stroke-dashoffset:0;stroke-opacity:1;paint-order:markers fill stroke"
       id="path4550"
       d="m 69.008582,227.18673 c 0.05852,0.0812 0.146619,0.11659 0.236728,0.15208 0.0763,0.0147 0.16366,0.001 0.235982,-0.0291 0.0816,-0.0501 0.137025,-0.13109 0.190457,-0.20838 0.07536,-0.12804 0.12287,-0.26865 0.13829,-0.41621 7.94e-4,-0.0853 -0.0411,-0.15203 -0.0937,-0.21508 -0.06881,-0.0798 -0.163872,-0.12344 -0.260405,-0.15976 -0.06209,-0.0221 -0.08012,0.0114 -0.126402,0.0388 -0.03557,0.019 -0.04219,0.0389 -0.06388,0.0698 -1.978263,2.03044 -2.935422,1.09788 -0.957156,-0.93256 v 0 c 0.147923,-0.14396 0.297404,-0.28165 0.490749,-0.36385 0.384984,-0.15563 0.776914,-0.20228 1.172784,-0.0449 0.336799,0.14628 0.641077,0.34345 0.855128,0.64953 0.22452,0.35318 0.357465,0.73364 0.304091,1.15853 -0.06062,0.3613 -0.172305,0.7079 -0.38539,1.01071 -0.240083,0.3158 -0.522406,0.58278 -0.911082,0.70207 -0.376319,0.0934 -0.758343,0.11534 -1.125413,-0.0355 -0.320773,-0.14562 -0.613397,-0.33642 -0.812694,-0.63497 -1.572474,-2.35872 -0.460568,-3.09999 1.111909,-0.74128 z"
       inkscape:connector-curvature="0" />
    <path
       style="opacity:1;fill:#000000;fill-opacity:1;fill-rule:nonzero;stroke:none;stroke-width:0.39700001;stroke-linecap:round;stroke-linejoin:round;stroke-miterlimit:4;stroke-dasharray:none;stroke-dashoffset:0;stroke-opacity:1;paint-order:markers fill stroke"
       id="path4552"
       d="m 140.20004,206.67312 c 0.1867,0.10526 0.37121,0.21338 0.56565,0.30403 0.1382,0.0561 0.27866,0.10466 0.4271,0.0701 0.0986,-0.0321 0.16801,-0.1082 0.23381,-0.18447 0.11567,-0.1619 0.19741,-0.34423 0.30513,-0.51193 0.29783,-0.43029 0.77063,-0.48749 1.21075,-0.25081 0.28485,0.20052 0.44657,0.50716 0.60129,0.8096 0.19312,0.36112 0.36289,0.73372 0.53695,1.10417 0.21592,0.46618 0.41825,0.93843 0.63009,1.40644 0.22441,0.50551 0.44422,1.01303 0.64398,1.52884 0.21597,0.54047 0.37157,1.09677 0.45365,1.67249 0.0697,0.53442 -0.007,1.05927 -0.15641,1.57207 -0.1313,0.43231 -0.38709,0.79203 -0.69952,1.11081 -0.29987,0.29303 -0.67696,0.45523 -1.07674,0.55759 -0.39394,0.0852 -0.77257,0.0303 -1.14551,-0.10756 -0.3791,-0.1607 -0.6571,-0.44855 -0.89642,-0.77394 -0.23651,-0.3363 -0.35006,-0.71722 -0.40508,-1.1197 -0.052,-0.4673 0.0586,-0.91882 0.20562,-1.35811 0.14268,-0.43179 0.34903,-0.83806 0.55411,-1.24261 0.1461,-0.26636 0.0749,-0.1367 0.21356,-0.38899 1.36543,-2.48432 2.53655,-1.84065 1.17112,0.64367 v 0 c -0.13185,0.23989 -0.0676,0.12338 -0.19275,0.34957 -0.17657,0.34831 -0.35753,0.69677 -0.48079,1.06845 -0.0848,0.24386 -0.16305,0.49446 -0.14563,0.75611 0.0215,0.18308 0.0571,0.35402 0.16381,0.51006 0.0829,0.11984 0.17193,0.23876 0.30137,0.3118 0.11136,0.054 0.21982,0.0695 0.34388,0.052 0.16191,-0.0324 0.31992,-0.0918 0.44444,-0.20323 0.16099,-0.15459 0.29374,-0.3293 0.36299,-0.54472 0.0998,-0.32952 0.15723,-0.66502 0.11414,-1.01066 -0.0623,-0.47413 -0.20148,-0.92819 -0.3762,-1.37302 -0.19036,-0.4928 -0.4013,-0.9771 -0.61516,-1.46009 -0.20907,-0.46229 -0.40929,-0.92851 -0.6221,-1.38911 -0.16817,-0.3581 -0.33203,-0.71836 -0.51894,-1.0673 -0.0209,-0.0417 -0.2183,-0.34238 -0.12363,-0.28495 0.22671,0.0891 0.47139,0.055 0.6199,-0.14496 -0.15829,0.22567 -0.24534,0.50038 -0.44996,0.69515 -0.29113,0.29905 -0.62398,0.53036 -1.04661,0.59417 -0.40263,0.0385 -0.78744,-0.0143 -1.15653,-0.18843 -0.25272,-0.12024 -0.49642,-0.2573 -0.73663,-0.40068 -2.35871,-1.57247 -1.61744,-2.68438 0.74127,-1.1119 z"
       inkscape:connector-curvature="0" />
    <path
       style="opacity:1;fill:#000000;fill-opacity:1;fill-rule:nonzero;stroke:none;stroke-width:0.39700001;stroke-linecap:round;stroke-linejoin:round;stroke-miterlimit:4;stroke-dasharray:none;stroke-dashoffset:0;stroke-opacity:1;paint-order:markers fill stroke"
       id="path4556"
       d="m 147.10157,208.32593 c 0.0701,0.20497 0.17989,0.38894 0.29389,0.57141 0.0862,0.11892 0.19893,0.21365 0.33318,0.27305 0.073,0.0214 0.13431,0.0177 0.20607,-0.005 0.0449,-0.038 0.0786,-0.0902 0.11224,-0.13837 0.092,-0.13186 0.1362,-0.28154 0.14591,-0.44059 0.005,-0.14299 -0.0436,-0.26573 -0.12485,-0.37992 -0.0711,-0.10076 -0.17661,-0.13442 -0.28899,-0.16694 -0.0719,-0.008 -0.0363,-0.006 -0.1068,-0.006 -2.82524,-0.23289 -2.71545,-1.56472 0.10978,-1.33183 v 0 c 0.27893,0.0292 0.14039,0.006 0.41557,0.0687 0.40907,0.14123 0.766,0.36068 1.00623,0.73192 0.22569,0.38018 0.35765,0.78656 0.31688,1.2348 -0.0531,0.4029 -0.1699,0.78494 -0.42052,1.11239 -0.24621,0.30473 -0.53678,0.54947 -0.93115,0.63147 -0.36285,0.0562 -0.71832,0.0409 -1.05457,-0.12396 -0.3407,-0.18407 -0.63999,-0.42262 -0.8524,-0.75194 -0.15006,-0.2403 -0.2915,-0.48563 -0.38877,-0.75294 -1.11669,-2.60561 0.11161,-3.13203 1.2283,-0.52641 z"
       inkscape:connector-curvature="0" />
    <path
       style="opacity:1;fill:#000000;fill-opacity:1;fill-rule:nonzero;stroke:none;stroke-width:0.39700001;stroke-linecap:round;stroke-linejoin:round;stroke-miterlimit:4;stroke-dasharray:none;stroke-dashoffset:0;stroke-opacity:1;paint-order:markers fill stroke"
       id="path4558"
       d="m 222.69087,211.07285 c 0.29546,-0.0123 0.58575,0.025 0.87178,0.096 0.43699,0.12479 0.73059,0.4192 0.94414,0.8067 0.16435,0.37513 0.16359,0.77692 0.13645,1.17712 -0.0427,0.38133 -0.12021,0.75725 -0.21482,1.12873 -0.0975,0.34519 -0.18268,0.69292 -0.2172,1.05041 -0.0118,0.22761 0.0364,0.45321 0.12123,0.66359 0.0803,0.17843 0.22006,0.3101 0.37027,0.42986 0.18968,0.13675 0.4097,0.21865 0.62872,0.29487 0.18551,0.0486 0.37581,0.0859 0.56803,0.0879 2.83275,0.10848 2.78161,1.44385 -0.0511,1.33537 v 0 c -0.3257,-0.0162 -0.64903,-0.063 -0.96069,-0.16278 -0.3665,-0.13012 -0.72762,-0.28132 -1.03551,-0.52468 -0.32713,-0.27484 -0.61176,-0.58856 -0.77126,-0.99215 -0.14741,-0.40823 -0.23747,-0.83353 -0.19884,-1.27028 0.046,-0.42238 0.13318,-0.83665 0.25208,-1.2447 0.0761,-0.29287 0.13561,-0.5894 0.17603,-0.8894 0.0117,-0.16038 0.0215,-0.32397 0.003,-0.48222 -0.0163,-0.0596 -0.0204,-0.0931 -0.094,-0.1168 -0.17066,-0.0543 -0.35123,-0.0531 -0.5287,-0.0512 -2.83482,0 -2.83482,-1.33635 0,-1.33635 z"
       inkscape:connector-curvature="0" />
    <path
       style="opacity:1;fill:#000000;fill-opacity:1;fill-rule:nonzero;stroke:none;stroke-width:0.39700001;stroke-linecap:round;stroke-linejoin:round;stroke-miterlimit:4;stroke-dasharray:none;stroke-dashoffset:0;stroke-opacity:1;paint-order:markers fill stroke"
       id="path4560"
       d="m 221.89312,214.84493 c 0.27487,-0.10543 0.55543,-0.1967 0.83616,-0.28541 0.17385,-0.0489 0.34571,-0.10448 0.51826,-0.15773 2.70874,-0.83603 3.10284,0.44088 0.3941,1.27691 v 0 c -0.16996,0.0525 -0.33925,0.10722 -0.51052,0.15532 -0.23866,0.0751 -0.47648,0.15381 -0.71159,0.2392 -2.60561,1.11669 -3.13202,-0.1116 -0.52641,-1.22829 z"
       inkscape:connector-curvature="0" />
    <path
       style="opacity:1;fill:#000000;fill-opacity:1;fill-rule:nonzero;stroke:none;stroke-width:0.39700001;stroke-linecap:round;stroke-linejoin:round;stroke-miterlimit:4;stroke-dasharray:none;stroke-dashoffset:0;stroke-opacity:1;paint-order:markers fill stroke"
       id="path4570"
       d="m 230.50534,216.70172 c 5.3e-4,0.13705 0.0111,0.27472 0.0531,0.40599 0.0491,0.13814 0.11161,0.25014 0.22249,0.34418 0.0717,0.0542 0.15311,0.0935 0.24164,0.0952 0.0819,0.002 0.16577,-0.0259 0.23455,-0.0718 0.0838,-0.0713 0.14426,-0.16536 0.19287,-0.26303 0.0739,-0.14788 0.064,-0.31012 0.059,-0.47024 -0.0203,-0.20321 -0.0731,-0.40166 -0.17234,-0.58045 -0.0242,-0.0413 -0.0547,-0.0575 -0.0938,-0.0795 -2.19092,-1.79891 -1.3429,-2.83172 0.84802,-1.0328 v 0 c 0.17007,0.14779 0.33082,0.29931 0.43544,0.50354 0.17967,0.36341 0.29864,0.74907 0.31865,1.15676 0.008,0.39916 -0.031,0.79251 -0.22576,1.14991 -0.18915,0.32984 -0.42252,0.62646 -0.76362,0.81068 -0.31521,0.14883 -0.6477,0.24464 -1.00047,0.20275 -0.3735,-0.0592 -0.71447,-0.19615 -0.9974,-0.4549 -0.27612,-0.27357 -0.479,-0.58726 -0.58963,-0.96298 -0.0778,-0.30834 -0.12013,-0.62401 -0.0856,-0.9423 0.4009,-2.80633 1.72382,-2.61734 1.32291,0.18899 z"
       inkscape:connector-curvature="0" />
    <path
       style="opacity:1;fill:#000000;fill-opacity:1;fill-rule:nonzero;stroke:none;stroke-width:0.39700001;stroke-linecap:round;stroke-linejoin:round;stroke-miterlimit:4;stroke-dasharray:none;stroke-dashoffset:0;stroke-opacity:1;paint-order:markers fill stroke"
       id="path4574"
       d="m 65.223979,213.72837 c 0.174919,-0.24779 0.357214,-0.49041 0.547442,-0.72665 0.251587,-0.30151 0.494739,-0.61003 0.750739,-0.90784 0.297704,-0.33477 0.587026,-0.67685 0.882692,-1.01344 0.39002,-0.42656 0.799092,-0.83484 1.216197,-1.23472 0.484727,-0.46486 0.988677,-0.90911 1.495968,-1.34903 0.559175,-0.49188 1.13942,-0.95883 1.716291,-1.42957 0.63079,-0.51329 1.271479,-1.01342 1.934159,-1.48485 0.71333,-0.51135 1.448131,-0.99136 2.188917,-1.46166 0.841801,-0.51596 1.715272,-0.9778 2.585527,-1.44334 0.900276,-0.47737 1.811099,-0.93396 2.725745,-1.38297 0.92143,-0.46124 1.855388,-0.89658 2.79296,-1.32383 0.943721,-0.4308 1.900658,-0.83184 2.860421,-1.22529 1.011246,-0.39588 2.028161,-0.777 3.051313,-1.14096 1.032168,-0.36445 2.069163,-0.71517 3.106113,-1.06576 1.047837,-0.34753 2.098487,-0.68656 3.157077,-0.99992 1.050581,-0.31496 2.110293,-0.59861 3.172552,-0.87121 1.038388,-0.25557 2.081348,-0.4923 3.129048,-0.70647 1.02134,-0.21006 2.05149,-0.37159 3.08322,-0.52047 1.00322,-0.15878 2.00933,-0.29695 3.01726,-0.42194 0.99665,-0.13128 1.99816,-0.21004 3.00128,-0.26908 0.99231,-0.0643 1.98594,-0.0868 2.98002,-0.0957 0.9814,-0.006 1.96325,0.0172 2.94377,0.0584 0.96191,0.0344 1.92087,0.11258 2.87839,0.20767 0.91205,0.0898 1.82141,0.205 2.72902,0.33156 0.86055,0.13089 1.71968,0.27078 2.57441,0.43566 0.8086,0.15611 1.61258,0.33539 2.41611,0.51556 0.77042,0.18233 1.53849,0.37483 2.30368,0.57801 0.73228,0.18366 1.45393,0.40573 2.18029,0.61072 0.70401,0.19804 1.40127,0.41817 2.09682,0.64379 0.65474,0.20543 1.30236,0.43391 1.94586,0.67206 0.57191,0.21079 1.14298,0.42432 1.70873,0.65119 0.25619,0.0977 0.50713,0.20721 0.75644,0.32105 2.5768,1.18166 2.01975,2.39638 -0.55704,1.21472 v 0 c -0.22946,-0.10576 -0.46136,-0.2053 -0.69741,-0.29568 -0.55434,-0.22297 -1.11458,-0.43115 -1.67502,-0.63818 -0.62612,-0.23228 -1.25672,-0.45394 -1.89389,-0.65402 -0.67925,-0.22033 -1.36008,-0.43552 -2.04762,-0.62886 -0.71967,-0.20328 -1.43476,-0.42317 -2.16032,-0.60525 -0.74828,-0.19894 -1.49953,-0.38683 -2.25289,-0.56558 -0.79058,-0.17726 -1.58157,-0.35381 -2.37715,-0.50743 -0.83182,-0.16085 -1.66813,-0.29623 -2.50559,-0.42422 -0.89015,-0.12417 -1.78201,-0.23727 -2.67653,-0.3253 -0.93231,-0.0926 -1.86599,-0.16903 -2.8026,-0.20231 -0.95779,-0.0406 -1.91694,-0.0629 -2.87559,-0.0572 -0.97188,0.009 -1.9433,0.0304 -2.91344,0.0934 -0.9744,0.0572 -1.94722,0.13345 -2.91531,0.26124 -0.99912,0.12385 -1.99642,0.26102 -2.99087,0.4184 -1.00605,0.14509 -2.01058,0.3023 -3.00649,0.5071 -1.02609,0.20959 -2.04744,0.44166 -3.064461,0.6916 -1.046517,0.26847 -2.090508,0.5479 -3.125491,0.85821 -1.042279,0.3083 -2.07654,0.64253 -3.108249,0.98444 -1.030343,0.34836 -2.060741,0.69681 -3.086343,1.05891 -1.003332,0.35675 -2.00039,0.73072 -2.992207,1.11835 -0.943901,0.38694 -1.885085,0.78119 -2.813206,1.20486 -0.925928,0.42187 -1.848245,0.85181 -2.758168,1.30737 -0.90071,0.44217 -1.797706,0.89169 -2.684301,1.36172 -0.84105,0.4499 -1.685343,0.89595 -2.499683,1.39323 -0.721124,0.4577 -1.43646,0.9248 -2.130779,1.42257 -0.638863,0.45389 -1.255488,0.93681 -1.863598,1.43108 -0.566539,0.46231 -1.136552,0.9207 -1.685679,1.40382 -0.490535,0.42535 -0.978022,0.85469 -1.44675,1.30415 -0.389612,0.37337 -0.77172,0.75449 -1.136941,1.15194 -0.292923,0.33342 -0.579485,0.67235 -0.874432,1.00396 -0.247364,0.28604 -0.47975,0.58467 -0.722815,0.87434 -0.165283,0.20451 -0.322514,0.41525 -0.475692,0.62894 -1.572474,2.35871 -2.684383,1.61744 -1.111906,-0.74127 z"
       inkscape:connector-curvature="0" />
    <path
       style="opacity:1;fill:#000000;fill-opacity:1;fill-rule:nonzero;stroke:none;stroke-width:0.39700001;stroke-linecap:round;stroke-linejoin:round;stroke-miterlimit:4;stroke-dasharray:none;stroke-dashoffset:0;stroke-opacity:1;paint-order:markers fill stroke"
       id="path4576"
       d="m 139.99619,198.1662 c -0.16007,-0.2234 -0.3158,-0.44975 -0.47934,-0.67068 -0.24639,-0.33498 -0.51995,-0.64783 -0.79205,-0.9617 -0.30073,-0.34388 -0.6081,-0.68224 -0.92155,-1.0146 -0.19388,-0.19429 -0.36442,-0.42938 -0.59526,-0.58404 -2.27481,-1.69159 -1.47739,-2.76394 0.79742,-1.07236 v 0 c 0.28358,0.21722 0.53448,0.47247 0.77055,0.74007 0.32574,0.34613 0.64601,0.69765 0.95864,1.05564 0.29464,0.33997 0.59002,0.67956 0.85672,1.04242 0.17624,0.23853 0.3449,0.48234 0.51678,0.72398 1.57247,2.35871 0.46056,3.09998 -1.11191,0.74127 z"
       inkscape:connector-curvature="0" />
    <path
       style="opacity:1;fill:#000000;fill-opacity:1;fill-rule:nonzero;stroke:none;stroke-width:0.39700001;stroke-linecap:round;stroke-linejoin:round;stroke-miterlimit:4;stroke-dasharray:none;stroke-dashoffset:0;stroke-opacity:1;paint-order:markers fill stroke"
       id="path4578"
       d="m 140.79163,199.54996 c -0.26914,0.12859 -0.5431,0.24698 -0.81654,0.36611 -0.39519,0.17565 -0.79561,0.34024 -1.1972,0.50088 -0.21148,0.09 -0.42536,0.1739 -0.63971,0.2567 -2.64476,1.02052 -3.12584,-0.22624 -0.48108,-1.24675 v 0 c 0.20948,-0.0807 0.41826,-0.1631 0.62491,-0.25089 0.3891,-0.15531 0.77693,-0.31482 1.15962,-0.4852 0.27585,-0.12003 0.5518,-0.24011 0.82358,-0.36915 2.60562,-1.11669 3.13203,0.11161 0.52642,1.2283 z"
       inkscape:connector-curvature="0" />
    <path
       style="opacity:1;fill:#000000;fill-opacity:1;fill-rule:nonzero;stroke:none;stroke-width:0.39700001;stroke-linecap:round;stroke-linejoin:round;stroke-miterlimit:4;stroke-dasharray:none;stroke-dashoffset:0;stroke-opacity:1;paint-order:markers fill stroke"
       id="path4580"
       d="m 100.62578,183.18232 c -0.044,-0.12294 -0.11786,-0.23317 -0.19091,-0.34068 -0.0836,-0.10674 -0.17642,-0.21264 -0.31485,-0.23715 -0.0888,-0.0171 -0.153569,0.005 -0.217629,0.0576 -0.11678,0.14004 -0.17216,0.30754 -0.22949,0.47791 -0.12064,0.43377 -0.12277,0.88476 -0.11619,1.33125 0.007,0.65172 0.10069,1.2976 0.19402,1.94123 0.0966,0.68326 0.21897,1.36257 0.350239,2.0399 0.11942,0.60796 0.24354,1.2145 0.28668,1.83336 5.3e-4,0.33183 0.008,0.16851 -0.0199,0.49 -0.27488,2.82146 -1.604931,2.69188 -1.330047,-0.12958 v 0 c 0.0204,-0.16704 0.01341,-0.0763 0.01654,-0.27234 -0.0344,-0.56332 -0.162869,-1.11346 -0.265184,-1.66722 -0.135252,-0.69809 -0.261194,-1.39823 -0.360815,-2.1024 -0.101676,-0.70157 -0.201345,-1.40579 -0.207743,-2.11613 -0.0065,-0.60207 0.0094,-1.20892 0.190866,-1.78884 0.171868,-0.48098 0.399571,-0.927 0.84673,-1.2079 0.418424,-0.21414 0.850803,-0.28965 1.308733,-0.1463 0.403,0.15675 0.73896,0.39552 0.98265,0.75935 0.17875,0.27423 0.34632,0.56051 0.39926,0.88894 0.4009,2.80633 -0.92202,2.99532 -1.32292,0.18899 z"
       inkscape:connector-curvature="0" />
    <path
       style="opacity:1;fill:#000000;fill-opacity:1;fill-rule:nonzero;stroke:none;stroke-width:0.39700001;stroke-linecap:round;stroke-linejoin:round;stroke-miterlimit:4;stroke-dasharray:none;stroke-dashoffset:0;stroke-opacity:1;paint-order:markers fill stroke"
       id="path4582"
       d="m 94.514615,187.82453 c 0.334713,-0.0754 0.671475,-0.14141 1.007102,-0.21262 0.534704,-0.1014 1.06695,-0.21402 1.598527,-0.33057 0.613175,-0.1238 1.219584,-0.27709 1.827321,-0.4245 0.09836,-0.0256 0.196721,-0.0512 0.295082,-0.0768 2.743713,-0.71293 3.079793,0.58047 0.336084,1.2934 v 0 c -0.1054,0.0274 -0.210796,0.0547 -0.316192,0.0821 -0.617305,0.1497 -1.233303,0.30523 -1.85609,0.43114 -0.534651,0.11722 -1.069951,0.23068 -1.607764,0.33256 -0.319897,0.0677 -0.640688,0.13124 -0.959959,0.20174 -2.750179,0.68754 -3.074291,-0.6089 -0.324111,-1.29645 z"
       inkscape:connector-curvature="0" />
    <path
       style="opacity:1;fill:#000000;fill-opacity:1;fill-rule:nonzero;stroke:none;stroke-width:0.39700001;stroke-linecap:round;stroke-linejoin:round;stroke-miterlimit:4;stroke-dasharray:none;stroke-dashoffset:0;stroke-opacity:1;paint-order:markers fill stroke"
       id="path4584"
       d="m 144.53689,196.72089 c 0.23587,-0.14462 0.47078,-0.29096 0.70226,-0.44255 0.38861,-0.23448 0.77547,-0.47145 1.17008,-0.69577 0.5092,-0.30161 1.02765,-0.58623 1.54709,-0.86963 0.63486,-0.3476 1.28163,-0.67287 1.93444,-0.98526 0.7628,-0.36455 1.53926,-0.69984 2.32166,-1.01986 0.88542,-0.36428 1.7834,-0.69704 2.68605,-1.01586 0.9472,-0.3411 1.90665,-0.64539 2.86871,-0.94126 0.98929,-0.30261 1.98604,-0.57923 2.98546,-0.84613 1.01601,-0.27181 2.04071,-0.50704 3.06631,-0.7391 1.03402,-0.23605 2.07751,-0.42685 3.11979,-0.62206 1.0572,-0.19965 2.1217,-0.35554 3.18843,-0.49379 1.08411,-0.1377 2.17203,-0.24173 3.26061,-0.3365 1.08114,-0.0926 2.164,-0.16268 3.24716,-0.22646 1.08227,-0.0738 2.16689,-0.0909 3.25118,-0.10677 1.08259,-0.0142 2.16577,0.002 3.24787,0.0359 1.05906,0.0317 2.11663,0.092 3.17406,0.15683 1.05559,0.0784 2.11069,0.16236 3.16478,0.25887 1.06377,0.0878 2.12281,0.22148 3.18248,0.3476 1.05682,0.12617 2.10838,0.2897 3.15907,0.45834 1.00692,0.16554 2.00748,0.36533 3.00705,0.56983 0.94517,0.19344 1.88174,0.42373 2.81388,0.67176 0.87295,0.22667 1.73719,0.48364 2.59904,0.74879 0.82266,0.25984 1.63226,0.56032 2.43481,0.87636 0.75145,0.29231 1.49194,0.61233 2.22387,0.95033 0.67842,0.30836 1.34802,0.63509 2.01614,0.96495 0.62807,0.31005 1.23572,0.65884 1.84513,1.00347 0.56569,0.3278 1.12394,0.66911 1.67725,1.01744 0.50536,0.32253 0.99865,0.66329 1.50013,0.99171 0.47896,0.31637 0.94842,0.64648 1.4206,0.97273 0.4525,0.31622 0.89417,0.64718 1.3367,0.97705 0.38749,0.30756 0.79214,0.59232 1.18569,0.8919 0.36574,0.26688 0.73221,0.53279 1.09795,0.79973 0.36708,0.26258 0.73032,0.53029 1.09361,0.79808 0.35709,0.26436 0.7225,0.51735 1.06979,0.79468 2.21202,1.7729 1.37627,2.81565 -0.83575,1.04276 v 0 c -0.33217,-0.26747 -0.68582,-0.50645 -1.02712,-0.76187 -0.36152,-0.26665 -0.72312,-0.53304 -1.08854,-0.79435 -0.37306,-0.27246 -0.74717,-0.54341 -1.11997,-0.81617 -0.38944,-0.29719 -0.79101,-0.57823 -1.1744,-0.88339 -0.42966,-0.32038 -0.85844,-0.64186 -1.29773,-0.94907 -0.46305,-0.3201 -0.9235,-0.64387 -1.3932,-0.95429 -0.4947,-0.32425 -0.98172,-0.66006 -1.48005,-0.97881 -0.53521,-0.33741 -1.07572,-0.6672 -1.6228,-0.98492 -0.58766,-0.33235 -1.17338,-0.66919 -1.77892,-0.96843 -0.6578,-0.32478 -1.31703,-0.64657 -1.98503,-0.95009 -0.70854,-0.32758 -1.42572,-0.63703 -2.15327,-0.92013 -0.77055,-0.30383 -1.54806,-0.59226 -2.33784,-0.84241 -0.84556,-0.26013 -1.69338,-0.51245 -2.54986,-0.73468 -0.90696,-0.24156 -1.81829,-0.4656 -2.73797,-0.6539 -0.98094,-0.20069 -1.96282,-0.39702 -2.95097,-0.5596 -1.0328,-0.16577 -2.0664,-0.32678 -3.10523,-0.45082 -1.04766,-0.12469 -2.09467,-0.25707 -3.14639,-0.3438 -1.04073,-0.0953 -2.08246,-0.17809 -3.12465,-0.25581 -1.04429,-0.064 -2.08869,-0.12377 -3.13459,-0.15499 -1.06151,-0.0337 -2.12411,-0.0491 -3.18609,-0.0354 -1.06462,0.0156 -2.12955,0.0319 -3.19217,0.10461 -1.07071,0.063 -2.14112,0.13228 -3.20983,0.22374 -1.06994,0.0931 -2.13924,0.19523 -3.2048,0.33045 -1.04187,0.13491 -2.08156,0.28706 -3.11411,0.48203 -1.02591,0.19212 -2.05307,0.3797 -3.07088,0.61195 -1.00891,0.22828 -2.017,0.45937 -3.01647,0.72681 -0.98334,0.26252 -1.96402,0.53465 -2.93739,0.83233 -0.94458,0.29049 -1.88667,0.589 -2.81661,0.92406 -0.88225,0.31139 -1.75982,0.63673 -2.62518,0.99269 -0.75852,0.31006 -1.51121,0.63511 -2.25071,0.98841 -0.63149,0.30206 -1.25712,0.61662 -1.87117,0.9529 -0.51271,0.2797 -1.02441,0.56056 -1.52693,0.8584 -0.37053,0.21042 -0.73322,0.43352 -1.09884,0.65229 -0.22833,0.14915 -0.45923,0.29463 -0.69239,0.43603 -2.35872,1.57248 -3.09999,0.46057 -0.74128,-1.1119 z"
       inkscape:connector-curvature="0" />
    <path
       style="opacity:1;fill:#000000;fill-opacity:1;fill-rule:nonzero;stroke:none;stroke-width:0.39700001;stroke-linecap:round;stroke-linejoin:round;stroke-miterlimit:4;stroke-dasharray:none;stroke-dashoffset:0;stroke-opacity:1;paint-order:markers fill stroke"
       id="path4586"
       d="m 223.3601,201.86094 c -0.15151,-0.28659 -0.29717,-0.57641 -0.43895,-0.86794 -0.21049,-0.43585 -0.41093,-0.87688 -0.60415,-1.32068 -0.21345,-0.49231 -0.42682,-0.98478 -0.63343,-1.48003 -0.1861,-0.4278 -0.37782,-0.85331 -0.55992,-1.28279 -0.0792,-0.18421 -0.15571,-0.36972 -0.24805,-0.54764 -1.30483,-2.51666 -0.11846,-3.13177 1.18637,-0.6151 v 0 c 0.10829,0.20912 0.20051,0.4257 0.29257,0.64241 0.18192,0.43192 0.37664,0.85857 0.56247,1.28885 0.20381,0.48914 0.41479,0.97534 0.62553,1.4615 0.18538,0.42709 0.3788,0.85108 0.58105,1.27041 0.12793,0.26478 0.2614,0.52701 0.39678,0.78799 1.40647,2.46132 0.24619,3.12433 -1.16027,0.66302 z"
       inkscape:connector-curvature="0" />
    <path
       style="opacity:1;fill:#000000;fill-opacity:1;fill-rule:nonzero;stroke:none;stroke-width:0.39700001;stroke-linecap:round;stroke-linejoin:round;stroke-miterlimit:4;stroke-dasharray:none;stroke-dashoffset:0;stroke-opacity:1;paint-order:markers fill stroke"
       id="path4588"
       d="m 222.31289,203.32203 c -0.29312,-0.005 -0.58516,-0.0396 -0.8775,-0.0613 -0.4331,-0.0213 -0.86457,-0.0597 -1.29615,-0.10081 -0.49559,-0.0477 -0.99209,-0.0848 -1.48882,-0.11838 -0.31107,-0.0187 -0.62189,-0.008 -0.93272,0.008 -2.83157,0.13563 -2.89551,-1.19918 -0.0639,-1.33482 v 0 c 0.36214,-0.0171 0.72443,-0.0285 1.08676,-0.006 0.50899,0.0344 1.01776,0.0725 1.5256,0.12137 0.42234,0.0403 0.84449,0.0778 1.26834,0.0985 0.25937,0.0193 0.5187,0.0492 0.77843,0.0576 2.83483,0 2.83483,1.33635 0,1.33635 z"
       inkscape:connector-curvature="0" />
    <path
       style="opacity:1;fill:#000000;fill-opacity:1;fill-rule:nonzero;stroke:none;stroke-width:0.39700001;stroke-linecap:round;stroke-linejoin:round;stroke-miterlimit:4;stroke-dasharray:none;stroke-dashoffset:0;stroke-opacity:1;paint-order:markers fill stroke"
       id="path4590"
       d="m 181.87811,175.88776 c 0.0438,0.18504 0.13586,0.35155 0.23137,0.51397 0.12554,0.19439 0.27899,0.3727 0.47704,0.49501 0.16403,0.10332 0.35305,0.12021 0.54244,0.12101 0.20773,0.003 0.41348,-0.0412 0.60354,-0.12402 0.17254,-0.0907 0.32654,-0.21139 0.44255,-0.36848 0.13035,-0.17106 0.18078,-0.36795 0.20992,-0.57689 0.0352,-0.20242 0.0119,-0.39584 -0.0659,-0.58417 -0.0771,-0.15538 -0.19474,-0.28632 -0.33937,-0.3813 -0.17402,-0.11003 -0.37822,-0.1475 -0.57989,-0.16868 -0.17276,-0.011 -0.33711,0.0287 -0.49588,0.0926 -2.66346,0.97066 -3.12103,-0.28491 -0.45757,-1.25557 v 0 c 0.36147,-0.12602 0.73154,-0.20473 1.11711,-0.16328 0.4316,0.0574 0.85343,0.16508 1.21344,0.42245 0.34432,0.26636 0.63427,0.58364 0.7971,0.9945 0.14203,0.40768 0.20581,0.82543 0.13029,1.25573 -0.0753,0.4392 -0.21076,0.85663 -0.49402,1.20964 -0.27267,0.32237 -0.59027,0.59473 -0.98169,0.76431 -0.36436,0.14029 -0.74481,0.23214 -1.13834,0.21897 -0.44513,-0.018 -0.87942,-0.0985 -1.25635,-0.35249 -0.35421,-0.25022 -0.65862,-0.55355 -0.8809,-0.92959 -0.1786,-0.31156 -0.33862,-0.63677 -0.39786,-0.9947 -0.4009,-2.80633 0.92201,-2.99532 1.32292,-0.18899 z"
       inkscape:connector-curvature="0" />
    <path
       style="opacity:1;fill:#000000;fill-opacity:1;fill-rule:nonzero;stroke:none;stroke-width:0.39700001;stroke-linecap:round;stroke-linejoin:round;stroke-miterlimit:4;stroke-dasharray:none;stroke-dashoffset:0;stroke-opacity:1;paint-order:markers fill stroke"
       id="path4592"
       d="m 185.8887,172.70005 c 0.0379,0.29303 0.0936,0.58376 0.14893,0.87401 0.0819,0.48639 0.19336,0.96698 0.29288,1.44989 0.13812,0.59852 0.25236,1.20209 0.37478,1.80393 0.13944,0.68152 0.245,1.3691 0.34023,2.05797 0.1027,0.67306 0.21761,1.34427 0.29557,2.02077 0.075,0.6342 0.087,1.27174 0.0223,1.90671 -0.0561,0.56302 -0.27655,1.05908 -0.59742,1.5171 -0.30505,0.4008 -0.71026,0.67963 -1.16096,0.89113 -0.44205,0.19577 -0.91957,0.24718 -1.39764,0.24125 -0.49181,-0.0181 -0.94509,-0.17739 -1.36542,-0.42403 -0.41617,-0.26179 -0.66286,-0.63098 -0.78883,-1.09895 -0.0962,-0.52072 0.07,-1.00155 0.30214,-1.46002 0.28558,-0.54464 0.69358,-1.00655 1.10947,-1.45388 0.47323,-0.50537 0.99004,-0.96658 1.50497,-1.4284 0.0882,-0.0764 0.17629,-0.1528 0.26443,-0.22921 2.14259,-1.85621 3.01762,-0.84618 0.87502,1.01003 v 0 c -0.0824,0.0713 -0.16482,0.1427 -0.24722,0.21405 -0.48524,0.43516 -0.9731,0.86886 -1.41955,1.34458 -0.33491,0.35842 -0.6693,0.72517 -0.90221,1.16075 -0.0922,0.16729 -0.18091,0.34422 -0.18548,0.53924 -0.004,0.12383 0.0888,0.18978 0.18274,0.2607 0.20829,0.13949 0.44861,0.21037 0.69811,0.22909 0.2773,0.0101 0.55804,-0.0145 0.81669,-0.12186 0.24164,-0.10249 0.45613,-0.24866 0.62622,-0.45108 0.19559,-0.26487 0.32363,-0.54777 0.35597,-0.8807 0.0594,-0.53738 0.0395,-1.07779 -0.0211,-1.61469 -0.0755,-0.66627 -0.19251,-1.3267 -0.29165,-1.9897 -0.0913,-0.66092 -0.19225,-1.32062 -0.32599,-1.97449 -0.1222,-0.60078 -0.23629,-1.20328 -0.37413,-1.80076 -0.10071,-0.48943 -0.21374,-0.97647 -0.29674,-1.46941 -0.0606,-0.31819 -0.12063,-0.637 -0.16221,-0.95827 -0.35161,-2.81293 0.97442,-2.97868 1.32603,-0.16575 z"
       inkscape:connector-curvature="0" />
    <path
       style="opacity:1;fill:#000000;fill-opacity:1;fill-rule:nonzero;stroke:none;stroke-width:0.39700001;stroke-linecap:round;stroke-linejoin:round;stroke-miterlimit:4;stroke-dasharray:none;stroke-dashoffset:0;stroke-opacity:1;paint-order:markers fill stroke"
       id="path4764"
       d="m 62.181689,216.04569 c 0.05785,-0.24869 0.119142,-0.49657 0.17821,-0.74502 0.07901,-0.33653 0.132657,-0.67812 0.181136,-1.02014 0.03648,-0.26343 0.06408,-0.52795 0.0907,-0.79252 0.284202,-2.82054 1.613818,-2.68657 1.329614,0.13397 v 0 c -0.02851,0.2826 -0.05812,0.56513 -0.09725,0.84649 -0.05448,0.38282 -0.1153,0.76504 -0.204171,1.14163 -0.0638,0.26777 -0.128643,0.53522 -0.19331,0.80272 -0.778787,2.72574 -2.063715,2.35862 -1.28493,-0.36713 z"
       inkscape:connector-curvature="0" />
    <path
       style="opacity:1;fill:#000000;fill-opacity:1;fill-rule:nonzero;stroke:none;stroke-width:0.39700001;stroke-linecap:round;stroke-linejoin:round;stroke-miterlimit:4;stroke-dasharray:none;stroke-dashoffset:0;stroke-opacity:1;paint-order:markers fill stroke"
       id="path4766"
       d="m 63.785305,207.49307 c 0.07668,-0.23982 0.184642,-0.46773 0.290758,-0.6955 1.197171,-2.56963 2.408508,-2.00528 1.211334,0.56435 v 0 c -0.07655,0.1643 -0.154966,0.32782 -0.217162,0.49827 -0.778785,2.72575 -2.063715,2.35863 -1.28493,-0.36712 z"
       inkscape:connector-curvature="0" />
    <path
       style="opacity:1;fill:#000000;fill-opacity:1;fill-rule:nonzero;stroke:none;stroke-width:0.39700001;stroke-linecap:round;stroke-linejoin:round;stroke-miterlimit:4;stroke-dasharray:none;stroke-dashoffset:0;stroke-opacity:1;paint-order:markers fill stroke"
       id="path4768"
       d="m 65.896561,201.96948 c 0.05393,-0.31679 0.159078,-0.62048 0.276256,-0.91858 1.048393,-2.63384 2.289996,-2.13962 1.2416,0.49422 v 0 c -0.08078,0.19915 -0.151588,0.40251 -0.19494,0.61334 -0.400904,2.80633 -1.723821,2.61735 -1.322916,-0.18898 z"
       inkscape:connector-curvature="0" />
    <path
       style="opacity:1;fill:#000000;fill-opacity:1;fill-rule:nonzero;stroke:none;stroke-width:0.39700001;stroke-linecap:round;stroke-linejoin:round;stroke-miterlimit:4;stroke-dasharray:none;stroke-dashoffset:0;stroke-opacity:1;paint-order:markers fill stroke"
       id="path4770"
       d="m 68.034717,197.15862 c 0.06234,-0.31585 0.189931,-0.61314 0.329967,-0.90129 0.165486,-0.36426 0.384651,-0.69951 0.598858,-1.03618 1.522161,-2.39149 2.649521,-1.67394 1.12736,0.71755 v 0 c -0.187809,0.29494 -0.382302,0.58731 -0.526375,0.90702 -0.08088,0.16279 -0.151358,0.32867 -0.206894,0.50189 -0.400904,2.80633 -1.723821,2.61734 -1.322916,-0.18899 z"
       inkscape:connector-curvature="0" />
    <path
       style="opacity:1;fill:#000000;fill-opacity:1;fill-rule:nonzero;stroke:none;stroke-width:0.39700001;stroke-linecap:round;stroke-linejoin:round;stroke-miterlimit:4;stroke-dasharray:none;stroke-dashoffset:0;stroke-opacity:1;paint-order:markers fill stroke"
       id="path4772"
       d="m 72.707526,188.8723 c 0.0965,-0.13261 0.199905,-0.25973 0.30032,-0.38932 1.739059,-2.23873 2.794405,-1.41892 1.055346,0.8198 v 0 c -0.08088,0.10391 -0.163166,0.2068 -0.243758,0.3108 -1.572477,2.35871 -2.684385,1.61744 -1.111908,-0.74128 z"
       inkscape:connector-curvature="0" />
    <path
       style="opacity:1;fill:#000000;fill-opacity:1;fill-rule:nonzero;stroke:none;stroke-width:0.39700001;stroke-linecap:round;stroke-linejoin:round;stroke-miterlimit:4;stroke-dasharray:none;stroke-dashoffset:0;stroke-opacity:1;paint-order:markers fill stroke"
       id="path4774"
       d="m 77.494193,184.35994 c 0.172918,-0.29269 0.394739,-0.55263 0.612515,-0.81235 0.190175,-0.23124 0.395002,-0.4492 0.602337,-0.66492 1.965238,-2.04305 2.928343,-1.11663 0.963102,0.92642 v 0 c -0.18655,0.19377 -0.371036,0.3893 -0.541705,0.59745 -0.166695,0.19854 -0.338759,0.39583 -0.475975,0.61642 -1.406464,2.46131 -2.566739,1.7983 -1.160274,-0.66302 z"
       inkscape:connector-curvature="0" />
    <path
       style="opacity:1;fill:#000000;fill-opacity:1;fill-rule:nonzero;stroke:none;stroke-width:0.39700001;stroke-linecap:round;stroke-linejoin:round;stroke-miterlimit:4;stroke-dasharray:none;stroke-dashoffset:0;stroke-opacity:1;paint-order:markers fill stroke"
       id="path4776"
       d="m 83.131037,178.98333 c 0.185566,-0.27735 0.401852,-0.53083 0.626174,-0.77709 0.325728,-0.37011 0.693936,-0.69728 1.06163,-1.0243 0.420513,-0.36392 0.857591,-0.70826 1.29922,-1.04606 0.435452,-0.33319 0.883968,-0.64901 1.317189,-0.98511 0.286565,-0.2234 0.578,-0.44022 0.870122,-0.65625 2.279292,-1.68554 3.073863,-0.61107 0.79457,1.07447 v 0 c -0.284131,0.21011 -0.567669,0.42089 -0.846336,0.63825 -0.43598,0.33724 -0.885621,0.65628 -1.324012,0.99035 -0.415581,0.31742 -0.826498,0.64149 -1.22269,0.98293 -0.333026,0.29616 -0.668184,0.59062 -0.962573,0.92651 -0.17921,0.19598 -0.352975,0.39668 -0.501385,0.61757 -1.572477,2.35872 -2.684386,1.61744 -1.111909,-0.74127 z"
       inkscape:connector-curvature="0" />
    <path
       style="opacity:1;fill:#000000;fill-opacity:1;fill-rule:nonzero;stroke:none;stroke-width:0.39700001;stroke-linecap:round;stroke-linejoin:round;stroke-miterlimit:4;stroke-dasharray:none;stroke-dashoffset:0;stroke-opacity:1;paint-order:markers fill stroke"
       id="path4778"
       d="m 94.824758,170.2612 c 0.212214,-0.14423 0.423862,-0.28939 0.632351,-0.43908 0.302895,-0.2183 0.610495,-0.42892 0.927145,-0.62688 2.405166,-1.50046 3.112492,-0.36665 0.707327,1.13381 v 0 c -0.292714,0.18215 -0.57598,0.37748 -0.855623,0.57899 -0.221009,0.15836 -0.445254,0.31206 -0.669928,0.46507 -2.358712,1.57248 -3.099985,0.46057 -0.741272,-1.11191 z"
       inkscape:connector-curvature="0" />
    <path
       style="opacity:1;fill:#000000;fill-opacity:1;fill-rule:nonzero;stroke:none;stroke-width:0.39700001;stroke-linecap:round;stroke-linejoin:round;stroke-miterlimit:4;stroke-dasharray:none;stroke-dashoffset:0;stroke-opacity:1;paint-order:markers fill stroke"
       id="path4780"
       d="m 107.50312,165.56274 c 0.0314,-0.0338 0.0628,-0.0676 0.0941,-0.10137 1.94888,-2.05865 2.91934,-1.13994 0.97046,0.91871 v 0 c -0.0127,0.0127 -0.0253,0.0255 -0.038,0.0382 -1.81481,2.17776 -2.84142,1.32226 -1.02661,-0.85551 z"
       inkscape:connector-curvature="0" />
    <path
       style="opacity:1;fill:#000000;fill-opacity:1;fill-rule:nonzero;stroke:none;stroke-width:0.39700001;stroke-linecap:round;stroke-linejoin:round;stroke-miterlimit:4;stroke-dasharray:none;stroke-dashoffset:0;stroke-opacity:1;paint-order:markers fill stroke"
       id="path4782"
       d="m 115.59949,163.2415 c 0.24047,-0.0813 0.47573,-0.17663 0.7117,-0.26997 0.37638,-0.14839 0.75727,-0.28408 1.13922,-0.41736 0.39175,-0.13663 0.7888,-0.25637 1.18491,-0.3794 2.70734,-0.84055 3.10358,0.4357 0.39624,1.27626 v 0 c -0.38142,0.11837 -0.76378,0.23342 -1.141,0.36492 -0.36475,0.1272 -0.72858,0.25635 -1.0879,0.39827 -0.27666,0.1094 -0.5526,0.22117 -0.83604,0.31221 -2.72575,0.77878 -3.09287,-0.50615 -0.36713,-1.28493 z"
       inkscape:connector-curvature="0" />
    <path
       style="opacity:1;fill:#000000;fill-opacity:1;fill-rule:nonzero;stroke:none;stroke-width:0.39700001;stroke-linecap:round;stroke-linejoin:round;stroke-miterlimit:4;stroke-dasharray:none;stroke-dashoffset:0;stroke-opacity:1;paint-order:markers fill stroke"
       id="path4784"
       d="m 126.55754,160.56881 c 0.25436,-0.0697 0.50621,-0.14859 0.75793,-0.22734 0.35575,-0.12668 0.71688,-0.23706 1.0764,-0.35233 0.27822,-0.0852 0.13778,-0.0435 0.42136,-0.12495 2.72496,-0.78153 3.09338,0.50303 0.36841,1.28456 v 0 c -0.25545,0.0731 -0.12819,0.0355 -0.38179,0.11294 -0.36253,0.11621 -0.7265,0.22789 -1.08537,0.35517 -0.26231,0.0821 -0.52494,0.1636 -0.78981,0.23687 -2.72575,0.77879 -3.09287,-0.50614 -0.36713,-1.28492 z"
       inkscape:connector-curvature="0" />
    <path
       style="opacity:1;fill:#000000;fill-opacity:1;fill-rule:nonzero;stroke:none;stroke-width:0.39700001;stroke-linecap:round;stroke-linejoin:round;stroke-miterlimit:4;stroke-dasharray:none;stroke-dashoffset:0;stroke-opacity:1;paint-order:markers fill stroke"
       id="path4786"
       d="m 139.57411,157.91652 c 0.27566,-0.1179 0.56828,-0.18504 0.85569,-0.26647 0.22617,-0.0632 0.11072,-0.0317 0.34641,-0.0944 2.73983,-0.72768 3.08287,0.56389 0.34303,1.29157 v 0 c -0.21792,0.0578 -0.10903,0.0281 -0.32668,0.089 -0.23188,0.0652 -0.46812,0.11817 -0.69204,0.2086 -2.60561,1.11668 -3.13202,-0.11161 -0.52641,-1.2283 z"
       inkscape:connector-curvature="0" />
    <path
       style="opacity:1;fill:#000000;fill-opacity:1;fill-rule:nonzero;stroke:none;stroke-width:0.39700001;stroke-linecap:round;stroke-linejoin:round;stroke-miterlimit:4;stroke-dasharray:none;stroke-dashoffset:0;stroke-opacity:1;paint-order:markers fill stroke"
       id="path4788"
       d="m 153.37356,156.81594 c 0.16557,-0.0232 0.33198,-0.0393 0.49835,-0.0553 2.82199,-0.26944 2.94901,1.06086 0.12702,1.33029 v 0 c -0.14568,0.0139 -0.29139,0.0279 -0.43638,0.0479 -2.80633,0.40091 -2.99532,-0.92201 -0.18899,-1.32292 z"
       inkscape:connector-curvature="0" />
    <path
       style="opacity:1;fill:#000000;fill-opacity:1;fill-rule:nonzero;stroke:none;stroke-width:0.39700001;stroke-linecap:round;stroke-linejoin:round;stroke-miterlimit:4;stroke-dasharray:none;stroke-dashoffset:0;stroke-opacity:1;paint-order:markers fill stroke"
       id="path4790"
       d="m 163.89157,157.08441 c 0.27791,-0.007 0.55456,0.0249 0.831,0.0486 0.3666,0.0274 0.73294,0.0511 1.09833,0.092 0.20101,0.0238 0.40228,0.0452 0.60358,0.0662 2.81944,0.295 2.68037,1.62409 -0.13906,1.32909 v 0 c -0.20467,-0.0214 -0.40931,-0.0432 -0.61368,-0.0673 -0.35374,-0.0399 -0.70855,-0.0611 -1.06343,-0.0885 -0.2385,-0.0205 -0.477,-0.0505 -0.71674,-0.0437 -2.83482,0 -2.83482,-1.33634 0,-1.33634 z"
       inkscape:connector-curvature="0" />
    <path
       style="opacity:1;fill:#000000;fill-opacity:1;fill-rule:nonzero;stroke:none;stroke-width:0.39700001;stroke-linecap:round;stroke-linejoin:round;stroke-miterlimit:4;stroke-dasharray:none;stroke-dashoffset:0;stroke-opacity:1;paint-order:markers fill stroke"
       id="path4792"
       d="m 173.42957,158.46228 c 0.2273,0.0614 0.45992,0.0994 0.69236,0.13521 0.3529,0.0536 0.70905,0.0796 1.06305,0.12397 2.81221,0.35732 2.64376,1.68301 -0.16845,1.32569 v 0 c -0.3657,-0.0472 -0.73426,-0.0711 -1.09871,-0.12899 -0.28739,-0.0446 -0.57477,-0.0932 -0.85538,-0.17095 -2.72575,-0.77879 -2.35862,-2.06372 0.36713,-1.28493 z"
       inkscape:connector-curvature="0" />
    <path
       style="opacity:1;fill:#000000;fill-opacity:1;fill-rule:nonzero;stroke:none;stroke-width:0.39700001;stroke-linecap:round;stroke-linejoin:round;stroke-miterlimit:4;stroke-dasharray:none;stroke-dashoffset:0;stroke-opacity:1;paint-order:markers fill stroke"
       id="path4794"
       d="m 182.784,161.13497 c 0.24338,0.0546 0.48414,0.11887 0.72558,0.18151 0.3596,0.0964 0.71016,0.22049 1.05767,0.35316 0.0647,0.0277 0.12941,0.0555 0.19412,0.0832 2.6022,1.12463 2.07205,2.35132 -0.53015,1.22669 v 0 c -0.0469,-0.0205 -0.0938,-0.041 -0.14067,-0.0615 -0.30146,-0.11512 -0.60499,-0.22405 -0.91688,-0.30815 -0.2519,-0.0655 -0.50328,-0.13115 -0.75679,-0.19002 -2.72575,-0.77878 -2.35863,-2.06371 0.36712,-1.28493 z"
       inkscape:connector-curvature="0" />
    <path
       style="opacity:1;fill:#000000;fill-opacity:1;fill-rule:nonzero;stroke:none;stroke-width:0.39700001;stroke-linecap:round;stroke-linejoin:round;stroke-miterlimit:4;stroke-dasharray:none;stroke-dashoffset:0;stroke-opacity:1;paint-order:markers fill stroke"
       id="path4796"
       d="m 189.27811,164.11116 c 0.26593,0.10202 0.5249,0.22062 0.77807,0.35089 0.2063,0.10375 0.40497,0.22198 0.60088,0.34395 2.40211,1.50536 1.69248,2.63772 -0.70963,1.13237 v 0 c -0.16465,-0.10415 -0.33327,-0.20256 -0.50723,-0.29041 -0.22275,-0.11733 -0.45405,-0.21699 -0.6885,-0.3085 -2.60561,-1.11669 -2.0792,-2.34499 0.52641,-1.2283 z"
       inkscape:connector-curvature="0" />
    <path
       style="opacity:1;fill:#000000;fill-opacity:1;fill-rule:nonzero;stroke:none;stroke-width:0.39700001;stroke-linecap:round;stroke-linejoin:round;stroke-miterlimit:4;stroke-dasharray:none;stroke-dashoffset:0;stroke-opacity:1;paint-order:markers fill stroke"
       id="path4798"
       d="m 195.61294,168.88579 c 0.27954,0.0735 0.55282,0.16903 0.82365,0.26951 0.36377,0.13011 0.71504,0.29224 1.05748,0.47043 0.34263,0.17697 0.67243,0.37794 0.9939,0.59063 2.36112,1.56887 1.62155,2.68191 -0.73957,1.11304 v 0 c -0.28198,-0.18842 -0.57329,-0.36365 -0.87437,-0.51987 -0.29179,-0.15419 -0.59345,-0.29034 -0.90413,-0.40202 -0.23777,-0.0891 -0.47827,-0.17266 -0.72409,-0.23679 -2.72575,-0.77879 -2.35862,-2.06372 0.36713,-1.28493 z"
       inkscape:connector-curvature="0" />
    <path
       style="opacity:1;fill:#000000;fill-opacity:1;fill-rule:nonzero;stroke:none;stroke-width:0.39700001;stroke-linecap:round;stroke-linejoin:round;stroke-miterlimit:4;stroke-dasharray:none;stroke-dashoffset:0;stroke-opacity:1;paint-order:markers fill stroke"
       id="path4800"
       d="m 203.54292,174.60078 c 0.0895,0.0515 0.17419,0.11087 0.26106,0.16662 2.38432,1.53337 1.66149,2.65735 -0.72284,1.12398 v 0 c -0.093,-0.0599 -0.18383,-0.123 -0.27949,-0.1787 -2.35872,-1.57247 -1.61744,-2.68438 0.74127,-1.1119 z"
       inkscape:connector-curvature="0" />
    <path
       style="opacity:1;fill:#000000;fill-opacity:1;fill-rule:nonzero;stroke:none;stroke-width:0.39700001;stroke-linecap:round;stroke-linejoin:round;stroke-miterlimit:4;stroke-dasharray:none;stroke-dashoffset:0;stroke-opacity:1;paint-order:markers fill stroke"
       id="path4802"
       d="m 208.0865,178.07528 c 0.21737,0.15975 0.42755,0.32853 0.63022,0.50653 0.17352,0.16746 0.0889,0.0835 0.2541,0.2518 1.98364,2.02519 1.02896,2.96029 -0.95468,0.9351 v 0 c -0.1272,-0.1302 -0.0663,-0.069 -0.18248,-0.18389 -0.15755,-0.13912 -0.32162,-0.27002 -0.48843,-0.39763 -2.35872,-1.57248 -1.61744,-2.68439 0.74127,-1.11191 z"
       inkscape:connector-curvature="0" />
    <path
       style="opacity:1;fill:#000000;fill-opacity:1;fill-rule:nonzero;stroke:none;stroke-width:0.39700001;stroke-linecap:round;stroke-linejoin:round;stroke-miterlimit:4;stroke-dasharray:none;stroke-dashoffset:0;stroke-opacity:1;paint-order:markers fill stroke"
       id="path4804"
       d="m 213.25855,182.97752 c 0.1996,0.18741 0.39569,0.37823 0.58296,0.57816 0.27778,0.29576 0.51823,0.62307 0.76457,0.94465 1.72386,2.25045 0.66298,3.06308 -1.06087,0.81263 v 0 c -0.22014,-0.2874 -0.43373,-0.58103 -0.68119,-0.84605 -0.17554,-0.18954 -0.36329,-0.3666 -0.55041,-0.54445 -2.00452,-2.00452 -1.05958,-2.94946 0.94494,-0.94494 z"
       inkscape:connector-curvature="0" />
    <path
       style="opacity:1;fill:#000000;fill-opacity:1;fill-rule:nonzero;stroke:none;stroke-width:0.39700001;stroke-linecap:round;stroke-linejoin:round;stroke-miterlimit:4;stroke-dasharray:none;stroke-dashoffset:0;stroke-opacity:1;paint-order:markers fill stroke"
       id="path4808"
       d="m 217.04116,188.10827 c 0.189,0.22346 0.35504,0.46546 0.52541,0.70323 0.2228,0.30277 0.44923,0.60276 0.67441,0.90378 1.69801,2.27001 0.62791,3.07047 -1.0701,0.80045 v 0 c -0.23064,-0.30833 -0.46257,-0.61563 -0.6906,-0.92589 -0.15144,-0.21136 -0.29787,-0.42736 -0.46573,-0.62607 -1.81481,-2.17777 -0.7882,-3.03327 1.02661,-0.8555 z"
       inkscape:connector-curvature="0" />
    <path
       style="opacity:1;fill:#000000;fill-opacity:1;fill-rule:nonzero;stroke:none;stroke-width:0.39700001;stroke-linecap:round;stroke-linejoin:round;stroke-miterlimit:4;stroke-dasharray:none;stroke-dashoffset:0;stroke-opacity:1;paint-order:markers fill stroke"
       id="path4810"
       d="m 133.47083,143.91398 c 0.09,0.23713 0.19064,0.46845 0.31667,0.6886 0.16111,0.30796 0.36079,0.59207 0.57817,0.86238 0.23712,0.28615 0.51387,0.53105 0.81226,0.75067 0.27797,0.19567 0.59,0.34068 0.91801,0.42848 0.31711,0.0822 0.64322,0.0938 0.96728,0.0583 0.3476,-0.0453 0.67648,-0.15231 0.99464,-0.29553 0.33138,-0.15691 0.61995,-0.38097 0.89359,-0.62176 0.26924,-0.23159 0.45755,-0.52649 0.62685,-0.8342 0.15411,-0.30102 0.22226,-0.62956 0.27133,-0.96099 0.0351,-0.33433 0.0256,-0.6706 -0.029,-1.00194 -0.0687,-0.29921 -0.16296,-0.59645 -0.32364,-0.85953 -0.10758,-0.16003 -0.24338,-0.29529 -0.41389,-0.38597 -0.0823,-0.0191 -0.16332,-0.0217 -0.24365,0.006 -0.11333,0.063 -0.20172,0.16697 -0.28354,0.26588 -0.17676,0.24599 -0.31232,0.51394 -0.42989,0.79199 -0.13268,0.3938 -0.20605,0.80385 -0.27428,1.21271 -0.0683,0.51801 -0.0938,1.03978 -0.10043,1.56176 -0.0134,0.5835 0.0206,1.16621 0.0494,1.7487 0.0265,0.58497 0.0868,1.16781 0.13576,1.75121 0.0501,0.49836 0.0696,0.99822 0.0653,1.49883 -0.0281,2.83469 -1.36435,2.82146 -1.33628,-0.0132 v 0 c 0.005,-0.45892 -0.0152,-0.91698 -0.0607,-1.37382 -0.0503,-0.59867 -0.11189,-1.19679 -0.13882,-1.7971 -0.0301,-0.61028 -0.0647,-1.22082 -0.0509,-1.83214 0.008,-0.58998 0.0376,-1.17997 0.11868,-1.76498 0.0862,-0.51284 0.18107,-1.0275 0.36318,-1.51654 0.17339,-0.40337 0.37548,-0.79348 0.64742,-1.14065 0.28473,-0.32312 0.60908,-0.60447 1.0404,-0.70447 0.40804,-0.0685 0.80515,-0.0425 1.17754,0.15544 0.36138,0.22089 0.6697,0.50216 0.89134,0.86752 0.23255,0.41295 0.39998,0.85694 0.48755,1.32404 0.0694,0.46612 0.0891,0.93751 0.0297,1.40652 -0.0751,0.48869 -0.18984,0.97031 -0.42445,1.41015 -0.24673,0.44103 -0.5294,0.8593 -0.91601,1.1918 -0.37627,0.32674 -0.77493,0.62772 -1.23056,0.8367 -0.45,0.19768 -0.91605,0.34644 -1.40645,0.40405 -0.49139,0.0446 -0.98426,0.0284 -1.46314,-0.10295 -0.48078,-0.14137 -0.94205,-0.34366 -1.3488,-0.64073 -0.38912,-0.29056 -0.75202,-0.61251 -1.06013,-0.98991 -0.25978,-0.32705 -0.50215,-0.66797 -0.69711,-1.03838 -0.14796,-0.26381 -0.27608,-0.53645 -0.38178,-0.82007 -1.11669,-2.60561 0.1116,-3.13202 1.2283,-0.52641 z"
       inkscape:connector-curvature="0" />
    <path
       style="opacity:1;fill:#000000;fill-opacity:1;fill-rule:nonzero;stroke:none;stroke-width:0.39700001;stroke-linecap:round;stroke-linejoin:round;stroke-miterlimit:4;stroke-dasharray:none;stroke-dashoffset:0;stroke-opacity:1;paint-order:markers fill stroke"
       id="path4822"
       d="m 223.60126,202.32718 c -0.11048,-0.2408 -0.22817,-0.47783 -0.34861,-0.71376 -0.15465,-0.30042 -0.31643,-0.59662 -0.50028,-0.88022 -0.22187,-0.32948 -0.47312,-0.63805 -0.72084,-0.94823 -0.28001,-0.33688 -0.5724,-0.66298 -0.86054,-0.99284 -0.27105,-0.31416 -0.57654,-0.59482 -0.8854,-0.87086 -0.31195,-0.27194 -0.66067,-0.49508 -1.0033,-0.72514 -0.35433,-0.22679 -0.704,-0.46043 -1.05529,-0.69175 -0.0456,-0.0311 -0.0913,-0.0622 -0.13692,-0.0933 -2.34188,-1.59743 -1.58884,-2.70141 0.75304,-1.10397 v 0 c 0.0399,0.0273 0.0798,0.0545 0.11969,0.0817 0.3541,0.23391 0.70756,0.46858 1.06468,0.69799 0.39373,0.26465 0.79285,0.52367 1.14937,0.83872 0.34924,0.31303 0.69409,0.63187 1.0008,0.98768 0.30082,0.34475 0.60657,0.68519 0.89816,1.0379 0.27563,0.34527 0.55457,0.68924 0.79937,1.05742 0.20717,0.32215 0.39328,0.65632 0.56771,0.99729 0.13401,0.26254 0.26453,0.52659 0.38666,0.79491 1.11669,2.60561 -0.11161,3.13203 -1.2283,0.52642 z"
       inkscape:connector-curvature="0" />
    <path
       style="opacity:1;fill:#000000;fill-opacity:1;fill-rule:nonzero;stroke:none;stroke-width:0.39700001;stroke-linecap:round;stroke-linejoin:round;stroke-miterlimit:4;stroke-dasharray:none;stroke-dashoffset:0;stroke-opacity:1;paint-order:markers fill stroke"
       id="path4826"
       d="m 223.56977,201.35665 c -0.0374,-0.27118 -0.0601,-0.54405 -0.0813,-0.81688 -0.0264,-0.37652 -0.0513,-0.75327 -0.0534,-1.13077 -0.002,-0.43921 0.0323,-0.87644 0.0717,-1.31344 0.0554,-0.44846 0.12286,-0.89514 0.20711,-1.33906 0.0822,-0.4614 0.19814,-0.91582 0.32841,-1.36572 0.1057,-0.38313 0.23065,-0.7603 0.34941,-1.13947 0.84761,-2.70514 2.12282,-2.30557 1.27522,0.39957 v 0 c -0.11607,0.37029 -0.23835,0.73855 -0.34137,1.11281 -0.11934,0.40897 -0.22406,0.82257 -0.2988,1.24221 -0.0763,0.40117 -0.13678,0.80477 -0.18904,1.2098 -0.0358,0.39603 -0.0681,0.79205 -0.0663,1.19013 -5.3e-4,0.34417 0.0276,0.68765 0.0494,1.03098 0.0188,0.24407 0.0388,0.48821 0.0718,0.73086 0.40091,2.80633 -0.92201,2.99532 -1.32291,0.18898 z"
       inkscape:connector-curvature="0" />
  </g>
</svg>
