<svg xmlns="http://www.w3.org/2000/svg" xmlns:se="http://svg-edit.googlecode.com" xmlns:xlink="http://www.w3.org/1999/xlink" xmlns:dc="http://purl.org/dc/elements/1.1/" xmlns:cc="http://creativecommons.org/ns#" xmlns:rdf="http://www.w3.org/1999/02/22-rdf-syntax-ns#" xmlns:inkscape="http://www.inkscape.org/namespaces/inkscape" width="777" height="480" style="">
                                    <title>my vector image</title>
                                    <!-- Created with Vector Paint - http://www.vectorpaint.yaks.com/ https://chrome.google.com/webstore/detail/hnbpdiengicdefcjecjbnjnoifekhgdo -->
                                    <rect id="backgroundrect" width="100%" height="100%" x="0" y="0" fill="#FFFFFF" stroke="none"/>
                                <g style="" class="currentLayer"><title>Layer 1</title><polyline fill="none" stroke="#0404b8" stroke-width="3" stroke-linejoin="round" stroke-dashoffset="" fill-rule="nonzero" marker-start="" marker-mid="" marker-end="" id="svg_1" points="368.9814147949219,38.32784295082092 368.9814147949219,38.92784368991852 368.9814147949219,39.52784442901611 368.9814147949219,40.72784227132797 368.9814147949219,43.12784340977669 368.9814147949219,44.92784380912781 368.9814147949219,47.92784386873245 368.9814147949219,50.9278439283371 368.9814147949219,53.32784324884415 368.9814147949219,56.92784404754639 369.80108642578125,59.92784410715103 369.80108642578125,62.32784342765808 369.80108642578125,65.92784422636032 369.80108642578125,68.32783991098404 368.9814147949219,71.92784070968628 368.9814147949219,74.92784440517426 368.9814147949219,77.32784008979797 368.1617431640625,80.32783651351929 368.1617431640625,83.32784020900726 367.3420715332031,85.72784316539764 367.3420715332031,87.52783811092377 367.3420715332031,90.52784180641174 367.3420715332031,93.52784550189972 367.3420715332031,95.92784118652344 367.3420715332031,98.32783687114716 367.3420715332031,101.32784056663513 367.3420715332031,103.12784278392792 367.3420715332031,106.12783920764923 367.3420715332031,109.1278429031372 367.3420715332031,111.52783858776093 367.3420715332031,113.9278415441513 367.3420715332031,116.32783722877502 368.1617431640625,119.9278416633606 368.9814147949219,122.92783808708191 368.9814147949219,125.92783451080322 368.9814147949219,128.92784547805786 369.80108642578125,132.52784264087677 369.80108642578125,135.52783906459808 370.6207580566406,139.127836227417 370.6207580566406,142.72784066200256 370.6207580566406,145.12782907485962 370.6207580566406,147.52783203125 371.4404296875,151.12783646583557 371.4404296875,154.72784090042114 371.4404296875,156.52783584594727 372.2601013183594,159.52783226966858 372.2601013183594,163.12783670425415 372.2601013183594,164.92783164978027 372.2601013183594,167.9278426170349 372.2601013183594,170.3278455734253 372.2601013183594,172.72783398628235 372.2601013183594,175.727844953537 372.2601013183594,177.5278398990631 372.2601013183594,179.9278428554535 372.2601013183594,182.32783126831055 372.2601013183594,184.72783422470093 372.2601013183594,187.1278371810913 372.2601013183594,189.5278401374817 372.2601013183594,191.3278350830078 372.2601013183594,193.12784457206726 372.2601013183594,195.52783298492432 372.2601013183594,197.9278359413147 372.2601013183594,200.32783889770508 372.2601013183594,202.72782731056213 372.2601013183594,205.72783827781677 372.2601013183594,207.5278332233429 372.2601013183594,209.92783617973328 372.2601013183594,212.32783913612366 372.2601013183594,214.72784209251404 372.2601013183594,217.72783851623535 372.2601013183594,219.52783346176147 372.2601013183594,221.92783641815186 373.07977294921875,224.92783284187317 373.07977294921875,226.7278277873993 373.07977294921875,229.7278242111206 373.07977294921875,231.52783370018005 373.07977294921875,234.52783012390137 373.07977294921875,236.3278250694275 373.07977294921875,238.7278425693512 373.07977294921875,241.7278389930725 373.07977294921875,243.52784848213196 373.07977294921875,245.927836894989 373.07977294921875,248.92783331871033 373.07977294921875,250.72784280776978 373.07977294921875,253.12783122062683 373.07977294921875,255.5278341770172 373.07977294921875,257.32782912254333 373.07977294921875,259.1278386116028 373.07977294921875,261.52784156799316 373.07977294921875,263.92784452438354 373.07977294921875,265.1278314590454 373.07977294921875,267.5278344154358 373.07977294921875,269.9278373718262 373.07977294921875,272.3278112411499 373.07977294921875,273.5278272628784 373.07977294921875,275.9278302192688 373.07977294921875,277.7278251647949 373.07977294921875,279.5278491973877 373.07977294921875,281.3278441429138 373.07977294921875,283.12783908843994 372.2601013183594,285.5278420448303 372.2601013183594,286.7278289794922 372.2601013183594,289.12783193588257 372.2601013183594,290.9278268814087 372.2601013183594,292.7278218269348 372.2601013183594,293.92783784866333 372.2601013183594,296.3278408050537 372.2601013183594,298.12783575057983 372.2601013183594,299.3278226852417 372.2601013183594,301.1278176307678 372.2601013183594,303.5278205871582 372.2601013183594,304.7278366088867 372.2601013183594,307.1278395652771 372.2601013183594,308.9278345108032 372.2601013183594,310.72782945632935 372.2601013183594,311.9278163909912 372.2601013183594,313.72781133651733 372.2601013183594,315.5278353691101 372.2601013183594,317.32783031463623 372.2601013183594,318.52784633636475 372.2601013183594,320.32784128189087 373.07977294921875,322.127836227417 373.07977294921875,323.3278522491455 373.07977294921875,325.12784719467163 373.07977294921875,326.92784214019775 373.8994445800781,328.7278370857239 373.8994445800781,329.92782402038574 373.8994445800781,331.12784004211426 373.8994445800781,332.9278349876404 373.8994445800781,334.12782192230225 373.8994445800781,335.32783794403076 373.8994445800781,337.1278328895569 373.8994445800781,338.32781982421875 373.8994445800781,338.32781982421875 " style="color: rgb(218, 3, 255);" class=""/><polyline fill="none" stroke="#0404b8" stroke-width="3" stroke-linejoin="round" stroke-dashoffset="" fill-rule="nonzero" marker-start="" marker-mid="" marker-end="" id="svg_2" points="369.80108642578125,45.70488786697388 368.1617431640625,48.98357439041138 367.3420715332031,49.80324602127075 365.7027282714844,53.08193254470825 364.0633850097656,55.54095125198364 364.0633850097656,57.18029451370239 363.24371337890625,57.99996614456177 363.24371337890625,57.18029451370239 362.4240417480469,55.54095125198364 362.4240417480469,53.90160799026489 362.4240417480469,48.98357439041138 362.4240417480469,44.06554079055786 362.4240417480469,41.606525897979736 364.0633850097656,38.327839374542236 364.0633850097656,35.868820667266846 364.883056640625,35.868820667266846 365.7027282714844,35.868820667266846 367.3420715332031,36.68849229812622 370.6207580566406,39.14751100540161 373.07977294921875,42.42619752883911 375.5387878417969,44.06554079055786 377.997802734375,45.70488786697388 378.8174743652344,47.34423112869263 379.63714599609375,48.98357439041138 " style="color: rgb(218, 3, 255);" class=""/><polyline fill="none" stroke="#0404b8" stroke-width="3" stroke-linejoin="round" stroke-dashoffset="" fill-rule="nonzero" marker-start="" marker-mid="" marker-end="" id="svg_4" points="296.03057861328125,29.31144952774048 295.2109069824219,29.31144952774048 295.2109069824219,29.31144952774048 294.3912353515625,29.31144952774048 295.2109069824219,29.31144952774048 297.669921875,29.31144952774048 300.1289367675781,28.49177598953247 305.0469665527344,28.49177598953247 309.1453552246094,28.49177598953247 311.6043701171875,28.49177598953247 313.24371337890625,27.672104358673096 313.24371337890625,26.85243272781372 313.24371337890625,26.85243272781372 312.4240417480469,26.85243272781372 310.7846984863281,26.85243272781372 309.1453552246094,26.85243272781372 308.32568359375,27.672104358673096 306.68634033203125,28.49177598953247 305.8666687011719,31.770464420318604 306.68634033203125,33.409809589385986 306.68634033203125,37.50817155838013 307.5060119628906,39.96718645095825 308.32568359375,42.42620134353638 308.32568359375,44.06554460525513 307.5060119628906,44.88522005081177 306.68634033203125,45.70489168167114 " style="color: rgb(218, 3, 255);" class=""/><polyline fill="none" stroke="#0404b8" stroke-width="3" stroke-linejoin="round" stroke-dashoffset="" fill-rule="nonzero" marker-start="" marker-mid="" marker-end="" id="svg_5" points="302.58795166015625,47.34423494338989 300.1289367675781,47.34423494338989 300.1289367675781,47.34423494338989 300.1289367675781,47.34423494338989 300.9486083984375,47.34423494338989 303.4076232910156,47.34423494338989 306.68634033203125,48.16390657424927 309.1453552246094,48.16390657424927 311.6043701171875,47.34423494338989 314.0633850097656,46.52456331253052 314.883056640625,46.52456331253052 " style="color: rgb(218, 3, 255);" class=""/><polyline fill="none" stroke="#0404b8" stroke-width="3" stroke-linejoin="round" stroke-dashoffset="" fill-rule="nonzero" marker-start="" marker-mid="" marker-end="" id="svg_6" points="318.1617431640625,38.3278431892395 318.1617431640625,38.3278431892395 318.1617431640625,38.3278431892395 318.1617431640625,39.14751482009888 318.9814147949219,39.96718645095825 319.80108642578125,42.42620134353638 321.4404296875,44.06554460525513 321.4404296875,45.70489168167114 321.4404296875,46.52456331253052 321.4404296875,46.52456331253052 321.4404296875,45.70489168167114 321.4404296875,44.88522005081177 321.4404296875,43.24587297439575 322.2601013183594,39.96718645095825 323.07977294921875,38.3278431892395 323.8994445800781,36.68849992752075 324.7191162109375,36.68849992752075 325.5387878417969,36.68849992752075 326.35845947265625,38.3278431892395 327.997802734375,40.78685808181763 329.63714599609375,41.606529712677 330.4568176269531,43.24587297439575 331.2764892578125,44.06554460525513 332.0961608886719,44.06554460525513 332.91583251953125,43.24587297439575 332.91583251953125,41.606529712677 334.55517578125,39.14751482009888 334.55517578125,37.50817155838013 336.19451904296875,36.68849992752075 336.19451904296875,35.86882829666138 337.0141906738281,35.86882829666138 337.8338623046875,37.50817155838013 337.8338623046875,39.14751482009888 338.6535339355469,41.606529712677 339.47320556640625,44.06554460525513 339.47320556640625,45.70489168167114 339.47320556640625,48.16390657424927 339.47320556640625,49.80324983596802 " style="color: rgb(218, 3, 255);" class=""/><polyline fill="none" stroke="#0404b8" stroke-width="3" stroke-linejoin="round" stroke-dashoffset="" fill-rule="nonzero" marker-start="" marker-mid="" marker-end="" id="svg_7" points="594.388801574707,245.70487785339355 594.388801574707,248.98356437683105 593.5691604614258,251.44257926940918 593.5691604614258,254.72128105163574 594.388801574707,256.3606243133545 594.388801574707,257.99996757507324 594.388801574707,259.639310836792 595.2085037231445,260.45898246765137 595.2085037231445,261.27865409851074 595.2085037231445,260.45898246765137 595.2085037231445,259.639310836792 594.388801574707,259.639310836792 594.388801574707,258.8196392059326 594.388801574707,257.99996757507324 593.5691604614258,255.54095268249512 593.5691604614258,253.081937789917 592.7494583129883,249.80323600769043 591.929817199707,247.3442211151123 591.929817199707,244.0655345916748 591.929817199707,242.42619132995605 592.7494583129883,239.96717643737793 592.7494583129883,238.32783317565918 594.388801574707,237.5081615447998 596.0281448364258,236.68848991394043 597.6674880981445,235.86881828308105 599.3068313598633,235.04914665222168 600.946174621582,235.86881828308105 601.7658767700195,235.86881828308105 603.4052200317383,236.68848991394043 604.2248611450195,238.32783317565918 605.044563293457,239.96717643737793 605.044563293457,241.60651969909668 604.2248611450195,243.24586296081543 602.5855178833008,245.70487785339355 600.946174621582,246.52454948425293 598.487190246582,248.16389274597168 596.0281448364258,249.80323600769043 593.5691604614258,250.6229076385498 592.7494583129883,251.44257926940918 591.1101150512695,251.44257926940918 591.929817199707,251.44257926940918 592.7494583129883,252.26226615905762 594.388801574707,253.081937789917 597.6674880981445,254.72128105163574 600.1265335083008,255.54095268249512 602.5855178833008,256.3606243133545 605.044563293457,257.99996757507324 605.8642044067383,257.99996757507324 606.6839065551758,258.8196392059326 607.503547668457,258.8196392059326 " style="color: rgb(218, 3, 255);" class=""/><polyline fill="none" stroke="#0404b8" stroke-width="3" stroke-linejoin="round" stroke-dashoffset="" fill-rule="nonzero" marker-start="" marker-mid="" marker-end="" id="svg_8" points="615.700325012207,254.72128105163574 616.5199661254883,254.72128105163574 617.3396682739258,254.72128105163574 617.3396682739258,254.72128105163574 618.9790115356445,253.081937789917 620.6183547973633,251.44257926940918 621.4379959106445,249.80323600769043 622.257698059082,248.16389274597168 621.4379959106445,247.3442211151123 620.6183547973633,246.52454948425293 618.159309387207,246.52454948425293 616.5199661254883,246.52454948425293 614.8806228637695,248.98356437683105 613.2412796020508,251.44257926940918 612.4216384887695,253.081937789917 613.2412796020508,256.3606243133545 614.0609817504883,257.99996757507324 615.700325012207,261.27865409851074 617.3396682739258,262.0983257293701 619.7986526489258,262.9179973602295 623.0773391723633,262.9179973602295 625.5363845825195,262.9179973602295 627.9953689575195,261.27865409851074 628.815071105957,261.27865409851074 " style="color: rgb(218, 3, 255);" class=""/><polyline fill="none" stroke="#0404b8" stroke-width="3" stroke-linejoin="round" stroke-dashoffset="" fill-rule="nonzero" marker-start="" marker-mid="" marker-end="" id="svg_9" points="344.39124176861543,239.1475055163613 342.75189759362087,241.60652177885314 342.75189759362087,243.2458659538476 341.9322255061236,245.7048822163395 342.75189759362087,248.98357056632852 342.75189759362087,251.44258682882042 344.39124176861543,254.72127517880946 345.21091385611265,256.360619353804 347.6699301186045,258.8196356162958 349.30927429359906,259.63930770379307 350.1289463810963,259.63930770379307 351.76829055609085,258.8196356162958 354.2273068185827,256.360619353804 354.2273068185827,254.72127517880946 355.0469789060799,250.62291474132311 352.5879626435881,246.52455430383674 350.94861846859357,243.2458659538476 346.8502580311072,241.60652177885314 342.75189759362087,241.60652177885314 341.1125534186263,242.4261938663504 340.292881331129,244.8852101288422 340.292881331129,245.7048822163395 " style="color: rgb(218, 3, 255);"/><polyline fill="none" stroke="#0404b8" stroke-width="3" stroke-linejoin="round" stroke-dashoffset="" fill-rule="nonzero" marker-start="" marker-mid="" marker-end="" id="svg_10" points="370.6207485685281,221.93439167891862 371.44042065602537,221.93439167891862 372.26009274352265,221.93439167891862 373.8994369185172,221.93439167891862 374.7191090060145,221.93439167891862 376.358453181009,221.1147195914213 377.99779735600356,220.29504750392402 380.4568136184954,220.29504750392402 382.0961577934899,218.6557033289295 383.73550196848447,218.6557033289295 386.19451823097626,217.01635915393493 387.8338624059708,217.01635915393493 389.4732065809654,216.1966870664377 391.93222284345717,215.3770149789404 393.57156701845173,213.73767080394586 396.8502553684408,212.91799871644855 401.76828789342443,211.27865454145402 405.04697624341355,210.45898245395676 409.9650087683972,208.81963827896223 414.8830412933808,207.18029410396767 418.1617296433699,205.54094992897313 423.0797621683535,203.9016057539786 427.1781226058399,203.08193366648132 429.6371388683317,202.26226157898404 433.73549930581805,200.6229174039895 436.19451556830984,199.80324531649222 439.4732039182989,198.98357322899497 442.7518922682881,197.3442290540004 445.2109085307799,196.52455696650313 448.48959688076894,195.70488487900587 451.76828523075807,194.8852127915086 454.22730149324985,194.0655407040113 457.50598984323904,193.24586861651406 460.7846781932281,192.42619652901678 462.4240223682226,192.42619652901678 464.06336654321706,191.6065244415195 464.88303863071445,190.78685235402224 465.7027107182117,190.78685235402224 466.52238280570884,190.78685235402224 466.52238280570884,190.78685235402224 465.7027107182117,190.78685235402224 465.7027107182117,190.78685235402224 464.06336654321706,189.96718026652496 462.4240223682226,189.96718026652496 460.7846781932281,189.14750817902768 458.3256619307362,189.14750817902768 456.68631775574164,189.14750817902768 455.8666456682444,188.32783609153043 455.8666456682444,188.32783609153043 455.8666456682444,188.32783609153043 457.50598984323904,187.50816400403315 459.1453340182335,187.50816400403315 462.4240223682226,187.50816400403315 464.06336654321706,187.50816400403315 465.7027107182117,187.50816400403315 467.34205489320624,187.50816400403315 468.16172698070346,189.14750817902768 468.98139906820086,189.14750817902768 468.16172698070346,190.78685235402224 467.34205489320624,193.24586861651406 465.7027107182117,195.70488487900587 462.4240223682226,198.1639011414977 460.7846781932281,200.6229174039895 459.1453340182335,202.26226157898404 458.3256619307362,203.08193366648132 " style="color: rgb(218, 3, 255);"/><polyline fill="none" stroke="#0404b8" stroke-width="3" stroke-linejoin="round" stroke-dashoffset="" fill-rule="nonzero" marker-start="" marker-mid="" marker-end="" id="svg_11" points="482.0961524681571,188.32783609153043 482.0961524681571,187.50816400403315 482.0961524681571,187.50816400403315 483.73549664315163,187.50816400403315 485.37484081814625,186.68849191653587 487.0141849931407,186.68849191653587 488.6535291681353,186.68849191653587 490.2928733431299,187.50816400403315 490.2928733431299,188.32783609153043 491.1125454306271,190.78685235402224 491.1125454306271,192.42619652901678 490.2928733431299,194.0655407040113 489.4732012556325,197.3442290540004 488.6535291681353,198.98357322899497 487.83385708063804,200.6229174039895 487.0141849931407,202.26226157898404 487.83385708063804,203.08193366648132 488.6535291681353,203.9016057539786 488.6535291681353,203.9016057539786 490.2928733431299,204.72127784147585 491.9322175181245,204.72127784147585 492.75188960562167,203.9016057539786 494.3912337806163,203.9016057539786 495.21090586811346,203.08193366648132 495.21090586811346,202.26226157898404 " style="color: rgb(218, 3, 255);"/><polyline fill="none" stroke="#0404b8" stroke-width="3" stroke-linejoin="round" stroke-dashoffset="" fill-rule="nonzero" marker-start="" marker-mid="" marker-end="" id="svg_12" points="482.0961524681571,197.3442290540004 480.4568082931627,197.3442290540004 480.4568082931627,197.3442290540004 481.27648038065985,196.52455696650313 483.73549664315163,196.52455696650313 486.19451290564353,195.70488487900587 489.4732012556325,195.70488487900587 492.75188960562167,195.70488487900587 494.3912337806163,195.70488487900587 " style="color: rgb(218, 3, 255);"/><polyline fill="none" stroke="#0404b8" stroke-width="3" stroke-linejoin="round" stroke-dashoffset="" fill-rule="nonzero" marker-start="" marker-mid="" marker-end="" id="svg_13" points="505.0469709180807,194.0655407040113 505.866643005578,194.0655407040113 505.866643005578,194.8852127915086 506.6863150930753,196.52455696650313 506.6863150930753,197.3442290540004 506.6863150930753,200.6229174039895 506.6863150930753,202.26226157898404 506.6863150930753,204.72127784147585 507.5059871805726,205.54094992897313 507.5059871805726,206.36062201647042 " style="color: rgb(218, 3, 255);"/><polyline fill="none" stroke="#0404b8" stroke-width="3" stroke-linejoin="round" stroke-dashoffset="" fill-rule="nonzero" marker-start="" marker-mid="" marker-end="" id="svg_14" points="374.7191090060145,220.29504750392402 375.5387810935118,220.29504750392402 375.5387810935118,219.47537541642677 375.5387810935118,219.47537541642677 375.5387810935118,218.6557033289295 377.1781252685063,217.83603124143224 377.99779735600356,216.1966870664377 378.81746944350084,215.3770149789404 381.2764857059926,212.09832662895133 382.9158298809872,209.63931036645948 384.55517405598175,207.18029410396767 387.01419031847354,203.9016057539786 389.4732065809654,199.80324531649222 391.11255075595994,197.3442290540004 393.57156701845173,194.0655407040113 395.2109111934463,189.96718026652496 398.48959954343536,186.68849191653587 400.1289437184299,184.22947565404405 402.5879599809217,180.95078730405496 405.04697624341355,177.6720989540659 406.6863204184081,174.3934106040768 408.3256645934026,171.1147222540877 409.9650087683972,167.83603390409863 411.60435294339175,166.19668972910407 413.24369711838625,162.91800137911497 414.8830412933808,161.27865720412044 416.5223854683754,159.6393130291259 417.3420575558726,156.3606246791368 418.1617296433699,154.72128050414227 419.80107381836444,153.0819363291477 420.6207459058617,151.44259215415317 421.44041799335906,149.80324797915864 423.0797621683535,146.52455962916954 423.89943425585085,144.88521545417498 424.71910634334813,143.24587127918045 425.5387784308453,141.60652710418591 426.35845051834264,139.96718292919135 427.9977946933371,138.32783875419682 427.9977946933371,137.50816666669954 429.6371388683317,135.868822491705 430.456810955829,135.04915040420772 431.27648304332627,133.4098062292132 431.27648304332627,131.77046205421863 432.91582721832077,130.95078996672137 432.91582721832077,129.3114457917268 434.55517139331533,128.49177370422956 434.55517139331533,126.85242952923501 435.3748434808127,126.03275744173774 436.19451556830984,125.21308535424046 436.19451556830984,123.57374117924593 437.0141876558071,122.75406909174866 437.0141876558071,121.93439700425137 437.83385974330446,121.93439700425137 437.83385974330446,121.11472491675411 437.0141876558071,121.11472491675411 437.0141876558071,121.93439700425137 436.19451556830984,121.93439700425137 434.55517139331533,122.75406909174866 432.09615513082355,124.39341326674317 430.456810955829,126.03275744173774 427.9977946933371,126.85242952923501 426.35845051834264,128.49177370422956 425.5387784308453,128.49177370422956 424.71910634334813,128.49177370422956 424.71910634334813,127.67210161673228 426.35845051834264,126.85242952923501 427.1781226058399,125.21308535424046 428.8174667808344,123.57374117924593 431.27648304332627,120.29505282925682 432.91582721832077,118.65570865426231 434.55517139331533,117.01636447926775 436.19451556830984,116.19669239177045 437.0141876558071,116.19669239177045 437.83385974330446,116.19669239177045 438.6535318308016,117.01636447926775 439.4732039182989,118.65570865426231 439.4732039182989,121.11472491675411 440.29287600579624,123.57374117924593 441.1125480932935,126.85242952923501 441.1125480932935,129.3114457917268 441.1125480932935,131.77046205421863 439.4732039182989,134.22947831671047 " style="color: rgb(218, 3, 255);"/><polyline fill="none" stroke="#0404b8" stroke-width="3" stroke-linejoin="round" stroke-dashoffset="" fill-rule="nonzero" marker-start="" marker-mid="" marker-end="" id="svg_15" points="411.60435294339175,89.14751350436049 411.60435294339175,88.32784141686321 413.24369711838625,87.50816932936594 414.8830412933808,86.68849724186867 415.7027133808781,85.8688251543714 417.3420575558726,85.8688251543714 418.98140173086716,86.68849724186867 419.80107381836444,87.50816932936594 419.80107381836444,89.14751350436049 419.80107381836444,89.96718559185776 418.98140173086716,92.42620185434957 418.1617296433699,94.06554602934412 416.5223854683754,97.34423437933322 415.7027133808781,98.98357855432775 415.7027133808781,100.6229227293223 415.7027133808781,102.26226690431685 415.7027133808781,103.90161107931138 416.5223854683754,104.72128316680866 417.3420575558726,105.54095525430591 418.98140173086716,105.54095525430591 419.80107381836444,104.72128316680866 421.44041799335906,103.90161107931138 422.26009008085634,103.08193899181411 422.26009008085634,102.26226690431685 " style="color: rgb(218, 3, 255);"/><polyline fill="none" stroke="#0404b8" stroke-width="3" stroke-linejoin="round" stroke-dashoffset="" fill-rule="nonzero" marker-start="" marker-mid="" marker-end="" id="svg_16" points="408.3256645934026,97.34423437933322 408.3256645934026,97.34423437933322 409.9650087683972,96.52456229183593 412.42402503088897,95.70489020433867 414.8830412933808,95.70489020433867 418.98140173086716,94.88521811684139 422.26009008085634,94.06554602934412 424.71910634334813,94.06554602934412 424.71910634334813,94.06554602934412 " style="color: rgb(218, 3, 255);"/><polyline fill="none" stroke="#0404b8" stroke-width="3" stroke-linejoin="round" stroke-dashoffset="" fill-rule="nonzero" marker-start="" marker-mid="" marker-end="" id="svg_17" points="428.8174667808344,93.24587394184685 429.6371388683317,92.42620185434957 431.27648304332627,91.6065297668523 432.09615513082355,90.78685767935504 432.91582721832077,90.78685767935504 434.55517139331533,90.78685767935504 435.3748434808127,91.6065297668523 436.19451556830984,92.42620185434957 436.19451556830984,94.06554602934412 436.19451556830984,95.70489020433867 435.3748434808127,97.34423437933322 434.55517139331533,98.16390646683048 434.55517139331533,99.80325064182503 434.55517139331533,100.6229227293223 434.55517139331533,101.44259481681956 434.55517139331533,102.26226690431685 435.3748434808127,102.26226690431685 436.19451556830984,102.26226690431685 437.0141876558071,102.26226690431685 438.6535318308016,102.26226690431685 441.1125480932935,100.6229227293223 441.9322201807908,100.6229227293223 442.7518922682881,99.80325064182503 " style="color: rgb(218, 3, 255);"/><polyline fill="none" stroke="#0404b8" stroke-width="3" stroke-linejoin="round" stroke-dashoffset="" fill-rule="nonzero" marker-start="" marker-mid="" marker-end="" id="svg_18" points="442.7518922682881,114.5573482167759 442.7518922682881,113.73767612927864 443.5715643557853,113.73767612927864 444.3912364432826,113.73767612927864 446.03058061827716,112.0983319542841 447.66992479327166,112.0983319542841 449.3092689682663,111.27865986678682 450.94861314326073,110.45898777928959 452.58795731825523,109.63931569179229 " style="color: rgb(218, 3, 255);"/><polyline fill="none" stroke="#0404b8" stroke-width="3" stroke-linejoin="round" stroke-dashoffset="" fill-rule="nonzero" marker-start="" marker-mid="" marker-end="" id="svg_19" points="459.1453340182335,107.18029942930048 459.1453340182335,106.36062734180321 460.7846781932281,105.54095525430591 461.60435028072527,105.54095525430591 462.4240223682226,104.72128316680866 463.2436944557199,104.72128316680866 " style="color: rgb(218, 3, 255);"/><polyline fill="none" stroke="#0404b8" stroke-width="3" stroke-linejoin="round" stroke-dashoffset="" fill-rule="nonzero" marker-start="" marker-mid="" marker-end="" id="svg_20" points="472.2600874181898,99.80325064182503 473.0797595056871,98.98357855432775 473.89943159318443,98.16390646683048 474.7191036806817,97.34423437933322 475.5387757681789,96.52456229183593 477.1781199431735,95.70489020433867 477.1781199431735,95.70489020433867 " style="color: rgb(218, 3, 255);"/><polyline fill="none" stroke="#0404b8" stroke-width="3" stroke-linejoin="round" stroke-dashoffset="" fill-rule="nonzero" marker-start="" marker-mid="" marker-end="" id="svg_21" points="483.73549664315163,92.42620185434957 484.5551687306489,91.6065297668523 485.37484081814625,90.78685767935504 485.37484081814625,90.78685767935504 487.0141849931407,89.96718559185776 487.83385708063804,89.14751350436049 " style="color: rgb(218, 3, 255);"/><polyline fill="none" stroke="#0404b8" stroke-width="3" stroke-linejoin="round" stroke-dashoffset="" fill-rule="nonzero" marker-start="" marker-mid="" marker-end="" id="svg_22" points="492.75188960562167,87.50816932936594 493.5715616931189,86.68849724186867 493.5715616931189,85.8688251543714 495.21090586811346,85.8688251543714 495.21090586811346,85.04915306687413 " style="color: rgb(218, 3, 255);"/><polyline fill="none" stroke="#0404b8" stroke-width="3" stroke-linejoin="round" stroke-dashoffset="" fill-rule="nonzero" marker-start="" marker-mid="" marker-end="" id="svg_23" points="500.94861048059437,82.59013680438231 501.7682825680917,82.59013680438231 501.7682825680917,81.77046471688504 503.40762674308615,80.95079262938776 503.40762674308615,80.95079262938776 504.2272988305835,80.95079262938776 " style="color: rgb(218, 3, 255);"/><polyline fill="none" stroke="#0404b8" stroke-width="3" stroke-linejoin="round" stroke-dashoffset="" fill-rule="nonzero" marker-start="" marker-mid="" marker-end="" id="svg_24" points="508.3256592680698,77.67210427939868 509.14533135556707,77.67210427939868 509.14533135556707,77.67210427939868 509.9650034430644,77.67210427939868 510.78467553056157,76.03276010440413 511.60434761805897,76.03276010440413 512.4240197055561,76.03276010440413 " style="color: rgb(218, 3, 255);"/><polyline fill="none" stroke="#0404b8" stroke-width="3" stroke-linejoin="round" stroke-dashoffset="" fill-rule="nonzero" marker-start="" marker-mid="" marker-end="" id="svg_25" points="518.9813964055343,73.57374384191232 519.8010684930316,72.75407175441504 519.8010684930316,72.75407175441504 521.4404126680262,71.93439966691777 " style="color: rgb(218, 3, 255);"/><polyline fill="none" stroke="#0404b8" stroke-width="3" stroke-linejoin="round" stroke-dashoffset="" fill-rule="nonzero" marker-start="" marker-mid="" marker-end="" id="svg_26" points="524.7191010180152,70.29505549192322 525.5387731055125,70.29505549192322 526.3584451930097,69.47538340442595 " style="color: rgb(218, 3, 255);"/><polyline fill="none" stroke="#0404b8" stroke-width="3" stroke-linejoin="round" stroke-dashoffset="" fill-rule="nonzero" marker-start="" marker-mid="" marker-end="" id="svg_27" points="536.194510242977,67.8360392294314 536.194510242977,67.8360392294314 537.0141823304743,67.01636714193414 537.0141823304743,66.19669505443687 537.8338544179716,66.19669505443687 538.6535265054689,65.37702296693959 " style="color: rgb(218, 3, 255);"/><polyline fill="none" stroke="#0404b8" stroke-width="3" stroke-linejoin="round" stroke-dashoffset="" fill-rule="nonzero" marker-start="" marker-mid="" marker-end="" id="svg_28" points="537.0141823304743,71.93439966691777 536.194510242977,72.75407175441504 536.194510242977,72.75407175441504 534.5551660679824,73.57374384191232 534.5551660679824,74.39341592940958 533.7354939804852,75.21308801690687 532.915821892988,76.03276010440413 532.915821892988,77.67210427939868 " style="color: rgb(218, 3, 255);"/><polyline fill="none" stroke="#0404b8" stroke-width="3" stroke-linejoin="round" stroke-dashoffset="" fill-rule="nonzero" marker-start="" marker-mid="" marker-end="" id="svg_29" points="528.8174614555015,83.40980889187958 527.9977893680043,84.22948097937686 527.1781172805071,85.8688251543714 526.3584451930097,86.68849724186867 " style="color: rgb(218, 3, 255);"/><polyline fill="none" stroke="#0404b8" stroke-width="3" stroke-linejoin="round" stroke-dashoffset="" fill-rule="nonzero" marker-start="" marker-mid="" marker-end="" id="svg_30" points="518.161724318037,102.26226690431685 517.3420522305398,103.90161107931138 516.5223801430425,103.90161107931138 516.5223801430425,104.72128316680866 516.5223801430425,105.54095525430591 515.7027080555453,105.54095525430591 514.8830359680479,107.18029942930048 " style="color: rgb(218, 3, 255);"/><polyline fill="none" stroke="#0404b8" stroke-width="3" stroke-linejoin="round" stroke-dashoffset="" fill-rule="nonzero" marker-start="" marker-mid="" marker-end="" id="svg_31" points="512.4240197055561,111.27865986678682 511.60434761805897,112.91800404178139 509.9650034430644,113.73767612927864 509.9650034430644,114.5573482167759 509.9650034430644,115.3770203042732 509.14533135556707,115.3770203042732 " style="color: rgb(218, 3, 255);"/><polyline fill="none" stroke="#0404b8" stroke-width="3" stroke-linejoin="round" stroke-dashoffset="" fill-rule="nonzero" marker-start="" marker-mid="" marker-end="" id="svg_32" points="505.0469709180807,121.93439700425137 503.40762674308615,122.75406909174866 503.40762674308615,123.57374117924593 503.40762674308615,123.57374117924593 502.58795465558893,124.39341326674317 " style="color: rgb(218, 3, 255);"/><polyline fill="none" stroke="#0404b8" stroke-width="3" stroke-linejoin="round" stroke-dashoffset="" fill-rule="nonzero" marker-start="" marker-mid="" marker-end="" id="svg_33" points="499.30926630559986,131.77046205421863 498.4895942181026,131.77046205421863 498.4895942181026,133.4098062292132 497.66992213060524,133.4098062292132 496.8502500431081,135.04915040420772 " style="color: rgb(218, 3, 255);"/><polyline fill="none" stroke="#0404b8" stroke-width="3" stroke-linejoin="round" stroke-dashoffset="" fill-rule="nonzero" marker-start="" marker-mid="" marker-end="" id="svg_34" points="494.3912337806163,141.60652710418591 493.5715616931189,143.24587127918045 491.9322175181245,144.06554336667773 491.9322175181245,144.88521545417498 491.9322175181245,145.70488754167226 491.1125454306271,145.70488754167226 " style="color: rgb(218, 3, 255);"/><polyline fill="none" stroke="#0404b8" stroke-width="3" stroke-linejoin="round" stroke-dashoffset="" fill-rule="nonzero" marker-start="" marker-mid="" marker-end="" id="svg_35" points="488.6535291681353,151.44259215415317 487.83385708063804,153.0819363291477 487.0141849931407,153.901608416645 487.0141849931407,154.72128050414227 487.0141849931407,154.72128050414227 " style="color: rgb(218, 3, 255);"/><polyline fill="none" stroke="#0404b8" stroke-width="3" stroke-linejoin="round" stroke-dashoffset="" fill-rule="nonzero" marker-start="" marker-mid="" marker-end="" id="svg_36" points="482.0961524681571,162.09832929161772 481.27648038065985,162.91800137911497 480.4568082931627,164.55734555410953 480.4568082931627,164.55734555410953 480.4568082931627,165.37701764160678 " style="color: rgb(218, 3, 255);"/><polyline fill="none" stroke="#0404b8" stroke-width="3" stroke-linejoin="round" stroke-dashoffset="" fill-rule="nonzero" marker-start="" marker-mid="" marker-end="" id="svg_37" points="477.1781199431735,171.1147222540877 475.5387757681789,172.75406642908226 475.5387757681789,172.75406642908226 474.7191036806817,174.3934106040768 " style="color: rgb(218, 3, 255);"/><polyline fill="none" stroke="#0404b8" stroke-width="3" stroke-linejoin="round" stroke-dashoffset="" fill-rule="nonzero" marker-start="" marker-mid="" marker-end="" id="svg_38" points="472.2600874181898,180.1311152165577 471.44041533069264,180.95078730405496 470.6207432431953,182.59013147904952 470.6207432431953,183.4098035665468 469.801071155698,183.4098035665468 " style="color: rgb(218, 3, 255);"/><polyline fill="none" stroke="#0404b8" stroke-width="3" stroke-linejoin="round" stroke-dashoffset="" fill-rule="nonzero" marker-start="" marker-mid="" marker-end="" id="svg_39" points="376.358453181009,218.6557033289295 376.358453181009,217.83603124143224 377.1781252685063,217.83603124143224 377.99779735600356,217.01635915393493 378.81746944350084,216.1966870664377 380.4568136184954,215.3770149789404 382.0961577934899,213.73767080394586 382.9158298809872,213.73767080394586 384.55517405598175,212.09832662895133 385.37484614347903,211.27865454145402 387.01419031847354,209.63931036645948 388.6535344934681,208.81963827896223 390.29287866846266,207.18029410396767 391.93222284345717,205.54094992897313 393.57156701845173,203.9016057539786 396.0305832809436,202.26226157898404 397.6699274559381,201.44258949148679 400.1289437184299,199.80324531649222 401.76828789342443,197.3442290540004 403.407632068419,196.52455696650313 405.04697624341355,194.0655407040113 407.50599250590534,192.42619652901678 408.3256645934026,190.78685235402224 410.78468085589446,189.14750817902768 412.42402503088897,187.50816400403315 414.06336920588353,185.8688198290386 416.5223854683754,184.22947565404405 418.1617296433699,182.59013147904952 419.80107381836444,180.95078730405496 422.26009008085634,179.31144312906042 424.71910634334813,176.8524268665686 426.35845051834264,175.21308269157407 427.9977946933371,173.5737385165795 431.27648304332627,171.1147222540877 432.91582721832077,169.47537807909316 434.55517139331533,167.83603390409863 437.0141876558071,165.37701764160678 438.6535318308016,164.55734555410953 440.29287600579624,162.09832929161772 442.7518922682881,159.6393130291259 444.3912364432826,157.99996885413134 446.8502527057745,156.3606246791368 449.3092689682663,153.0819363291477 450.94861314326073,151.44259215415317 454.22730149324985,149.80324797915864 455.8666456682444,147.3442317166668 457.50598984323904,145.70488754167226 459.1453340182335,144.06554336667773 461.60435028072527,141.60652710418591 464.06336654321706,139.1475108416941 465.7027107182117,137.50816666669954 467.34205489320624,135.04915040420772 468.98139906820086,133.4098062292132 470.6207432431953,131.77046205421863 473.0797595056871,130.1311178792241 474.7191036806817,128.49177370422956 476.3584478556763,126.03275744173774 478.81746411816806,123.57374117924593 479.6371362056653,122.75406909174866 482.0961524681571,120.29505282925682 483.73549664315163,118.65570865426231 485.37484081814625,117.01636447926775 487.0141849931407,114.5573482167759 488.6535291681353,112.91800404178139 490.2928733431299,111.27865986678682 491.9322175181245,109.63931569179229 493.5715616931189,108.81964360429502 495.21090586811346,107.18029942930048 496.8502500431081,105.54095525430591 498.4895942181026,103.90161107931138 500.12893839309714,102.26226690431685 501.7682825680917,100.6229227293223 503.40762674308615,98.98357855432775 505.0469709180807,97.34423437933322 505.866643005578,96.52456229183593 507.5059871805726,94.88521811684139 509.9650034430644,93.24587394184685 511.60434761805897,92.42620185434957 513.2436917930534,90.78685767935504 514.8830359680479,89.14751350436049 516.5223801430425,87.50816932936594 518.161724318037,86.68849724186867 518.9813964055343,85.8688251543714 519.8010684930316,84.22948097937686 521.4404126680262,83.40980889187958 522.2600847555234,82.59013680438231 523.899428930518,80.95079262938776 524.7191010180152,80.1311205418905 526.3584451930097,79.31144845439322 527.9977893680043,78.49177636689595 528.8174614555015,76.8524321919014 529.6371335429989,76.03276010440413 531.2764777179934,75.21308801690687 531.2764777179934,74.39341592940958 532.0961498054907,73.57374384191232 532.915821892988,72.75407175441504 532.915821892988,71.93439966691777 532.915821892988,71.1147275794205 532.915821892988,71.1147275794205 532.0961498054907,71.1147275794205 531.2764777179934,71.93439966691777 529.6371335429989,72.75407175441504 527.1781172805071,73.57374384191232 523.0797568430207,75.21308801690687 518.161724318037,76.8524321919014 513.2436917930534,78.49177636689595 510.78467553056157,79.31144845439322 509.14533135556707,80.1311205418905 508.3256592680698,80.95079262938776 509.14533135556707,80.95079262938776 509.9650034430644,80.1311205418905 514.0633638805507,78.49177636689595 518.9813964055343,76.8524321919014 523.0797568430207,76.03276010440413 526.3584451930097,74.39341592940958 529.6371335429989,72.75407175441504 531.2764777179934,71.93439966691777 532.915821892988,71.93439966691777 532.915821892988,71.93439966691777 533.7354939804852,72.75407175441504 532.915821892988,74.39341592940958 532.915821892988,76.03276010440413 531.2764777179934,78.49177636689595 530.4568056304961,80.95079262938776 528.8174614555015,84.22948097937686 527.1781172805071,87.50816932936594 526.3584451930097,89.14751350436049 524.7191010180152,92.42620185434957 524.7191010180152,93.24587394184685 " style="color: rgb(218, 3, 255);"/><polyline fill="none" stroke="#0404b8" stroke-width="3" stroke-linejoin="round" stroke-dashoffset="" fill-rule="nonzero" marker-start="" marker-mid="" marker-end="" id="svg_40" points="546.8502473804416,73.57374384191232 546.0305752929443,73.57374384191232 546.8502473804416,73.57374384191232 547.6699194679388,72.75407175441504 549.3092636429334,72.75407175441504 550.1289357304306,72.75407175441504 550.948607817928,73.57374384191232 552.5879519929225,74.39341592940958 552.5879519929225,76.03276010440413 552.5879519929225,77.67210427939868 550.948607817928,80.95079262938776 550.948607817928,82.59013680438231 549.3092636429334,85.04915306687413 549.3092636429334,86.68849724186867 548.4895915554362,87.50816932936594 548.4895915554362,89.14751350436049 549.3092636429334,89.14751350436049 550.1289357304306,89.14751350436049 551.7682799054252,89.96718559185776 553.4076240804197,89.14751350436049 555.8666403429115,89.14751350436049 556.6863124304089,88.32784141686321 557.5059845179061,88.32784141686321 557.5059845179061,87.50816932936594 " style="color: rgb(218, 3, 255);"/><polyline fill="none" stroke="#0404b8" stroke-width="3" stroke-linejoin="round" stroke-dashoffset="" fill-rule="nonzero" marker-start="" marker-mid="" marker-end="" id="svg_41" points="541.1125427679607,82.59013680438231 541.1125427679607,81.77046471688504 540.2928706804634,81.77046471688504 541.1125427679607,81.77046471688504 544.3912311179497,80.95079262938776 546.0305752929443,80.95079262938776 550.1289357304306,80.95079262938776 553.4076240804197,80.95079262938776 555.0469682554143,80.95079262938776 " style="color: rgb(218, 3, 255);"/><polyline fill="none" stroke="#0404b8" stroke-width="3" stroke-linejoin="round" stroke-dashoffset="" fill-rule="nonzero" marker-start="" marker-mid="" marker-end="" id="svg_42" points="562.4240170428898,80.1311205418905 562.4240170428898,80.95079262938776 562.4240170428898,82.59013680438231 562.4240170428898,84.22948097937686 563.243689130387,85.8688251543714 564.0633612178843,87.50816932936594 564.0633612178843,89.14751350436049 564.0633612178843,90.78685767935504 565.7027053928788,91.6065297668523 565.7027053928788,92.42620185434957 " style="color: rgb(218, 3, 255);"/><polyline fill="none" stroke="#0404b8" stroke-width="3" stroke-linejoin="round" stroke-dashoffset="" fill-rule="nonzero" marker-start="" marker-mid="" marker-end="" id="svg_43" points="570.6207379178625,83.40980889187958 570.6207379178625,82.59013680438231 572.260082092857,82.59013680438231 573.8994262678516,82.59013680438231 576.3584425303434,82.59013680438231 577.997786705338,82.59013680438231 579.6371308803325,82.59013680438231 580.4568029678297,81.77046471688504 " style="color: rgb(218, 3, 255);"/><polyline fill="none" stroke="#0404b8" stroke-width="3" stroke-linejoin="round" stroke-dashoffset="" fill-rule="nonzero" marker-start="" marker-mid="" marker-end="" id="svg_44" points="575.538770442846,76.03276010440413 574.7190983553488,81.77046471688504 574.7190983553488,82.59013680438231 575.538770442846,84.22948097937686 576.3584425303434,86.68849724186867 577.1781146178406,87.50816932936594 577.1781146178406,88.32784141686321 " style="color: rgb(218, 3, 255);"/><polyline fill="none" stroke="#0404b8" stroke-width="3" stroke-linejoin="round" stroke-dashoffset="" fill-rule="nonzero" marker-start="" marker-mid="" marker-end="" id="svg_45" points="589.4731959302998,74.39341592940958 588.6535238428024,73.57374384191232 588.6535238428024,72.75407175441504 590.292868017797,71.93439966691777 591.1125401052942,71.1147275794205 592.7518842802888,71.1147275794205 594.3912284552833,71.93439966691777 595.2109005427807,72.75407175441504 595.2109005427807,74.39341592940958 595.2109005427807,76.8524321919014 595.2109005427807,78.49177636689595 593.5715563677861,80.95079262938776 591.9322121927916,84.22948097937686 590.292868017797,85.8688251543714 588.6535238428024,87.50816932936594 588.6535238428024,89.14751350436049 589.4731959302998,89.96718559185776 590.292868017797,90.78685767935504 591.9322121927916,91.6065297668523 593.5715563677861,91.6065297668523 595.2109005427807,91.6065297668523 596.8502447177751,91.6065297668523 596.8502447177751,90.78685767935504 597.6699168052725,90.78685767935504 " style="color: rgb(218, 3, 255);"/><polyline fill="none" stroke="#0404b8" stroke-width="3" stroke-linejoin="round" stroke-dashoffset="" fill-rule="nonzero" marker-start="" marker-mid="" marker-end="" id="svg_46" points="586.1945075803106,82.59013680438231 585.3748354928134,81.77046471688504 585.3748354928134,80.95079262938776 586.1945075803106,80.95079262938776 587.0141796678079,80.95079262938776 587.8338517553052,80.95079262938776 590.292868017797,81.77046471688504 592.7518842802888,81.77046471688504 595.2109005427807,82.59013680438231 597.6699168052725,82.59013680438231 " style="color: rgb(218, 3, 255);"/><polyline fill="none" stroke="#0404b8" stroke-width="3" stroke-linejoin="round" stroke-dashoffset="" fill-rule="nonzero" marker-start="" marker-mid="" marker-end="" id="svg_47" points="601.7682772427588,85.8688251543714 601.7682772427588,85.8688251543714 602.587949330256,85.8688251543714 603.4076214177534,85.8688251543714 605.0469655927479,86.68849724186867 605.8666376802452,86.68849724186867 607.5059818552397,87.50816932936594 608.325653942737,88.32784141686321 609.1453260302343,89.14751350436049 609.1453260302343,90.78685767935504 608.325653942737,91.6065297668523 608.325653942737,92.42620185434957 607.5059818552397,93.24587394184685 606.6863097677424,94.06554602934412 606.6863097677424,94.88521811684139 606.6863097677424,95.70489020433867 607.5059818552397,96.52456229183593 608.325653942737,97.34423437933322 609.9649981177315,97.34423437933322 612.4240143802233,97.34423437933322 614.0633585552179,96.52456229183593 614.8830306427152,95.70489020433867 " style="color: rgb(218, 3, 255);"/><polyline fill="none" stroke="#0404b8" stroke-width="3" stroke-linejoin="round" stroke-dashoffset="" fill-rule="nonzero" marker-start="" marker-mid="" marker-end="" id="svg_48" points="375.5387810935118,228.49176837889675 376.358453181009,228.49176837889675 377.1781252685063,229.311440466394 377.99779735600356,230.1311125538913 378.81746944350084,230.95078464138854 380.4568136184954,232.59012881638313 382.0961577934899,234.2294729913777 383.73550196848447,236.68848925386948 384.55517405598175,238.327833428864 387.01419031847354,241.60652177885314 388.6535344934681,244.06553804134492 389.4732065809654,246.52455430383674 391.11255075595994,249.80324265382583 391.93222284345717,251.44258682882042 394.391239105949,254.72127517880946 396.0305832809436,257.1802914413013 396.8502553684408,259.63930770379307 398.48959954343536,262.91799605378213 400.1289437184299,265.377012316274 401.76828789342443,268.65570066626304 403.407632068419,271.1147169287549 405.04697624341355,274.39340527874396 406.6863204184081,276.8524215412358 407.50599250590534,279.3114378037276 408.3256645934026,280.95078197872215 409.9650087683972,283.40979824121393 410.78468085589446,285.0491424162085 412.42402503088897,287.50815867870034 413.24369711838625,289.14750285369485 414.8830412933808,290.7868470286894 415.7027133808781,292.42619120368397 416.5223854683754,294.0655353786785 418.1617296433699,295.70487955367304 418.98140173086716,297.3442237286676 419.80107381836444,298.9835679036621 420.6207459058617,300.62291207865667 421.44041799335906,301.44258416615395 421.44041799335906,302.26225625365123 421.44041799335906,303.9016004286458 421.44041799335906,303.9016004286458 421.44041799335906,304.721272516143 421.44041799335906,304.721272516143 420.6207459058617,304.721272516143 419.80107381836444,304.721272516143 418.1617296433699,304.721272516143 417.3420575558726,303.9016004286458 415.7027133808781,303.9016004286458 414.8830412933808,303.0819283411485 413.24369711838625,302.26225625365123 411.60435294339175,300.62291207865667 410.78468085589446,300.62291207865667 410.78468085589446,300.62291207865667 410.78468085589446,300.62291207865667 411.60435294339175,300.62291207865667 411.60435294339175,301.44258416615395 413.24369711838625,302.26225625365123 414.06336920588353,303.0819283411485 415.7027133808781,303.9016004286458 417.3420575558726,305.5409446036403 418.1617296433699,305.5409446036403 419.80107381836444,306.3606166911376 419.80107381836444,305.5409446036403 420.6207459058617,305.5409446036403 421.44041799335906,303.9016004286458 421.44041799335906,301.44258416615395 421.44041799335906,298.9835679036621 422.26009008085634,295.70487955367304 423.0797621683535,291.6065191161867 423.0797621683535,289.9671749411921 " style="color: rgb(218, 3, 255);"/><polyline fill="none" stroke="#0404b8" stroke-width="3" stroke-linejoin="round" stroke-dashoffset="" fill-rule="nonzero" marker-start="" marker-mid="" marker-end="" id="svg_49" points="446.8502527057745,289.9671749411921 447.66992479327166,289.14750285369485 447.66992479327166,289.14750285369485 449.3092689682663,289.14750285369485 450.94861314326073,289.14750285369485 452.58795731825523,289.14750285369485 453.40762940575263,289.14750285369485 454.22730149324985,290.7868470286894 454.22730149324985,293.24586329118125 453.40762940575263,295.70487955367304 452.58795731825523,298.1638958161649 451.76828523075807,300.62291207865667 450.94861314326073,302.26225625365123 450.94861314326073,303.9016004286458 450.94861314326073,304.721272516143 450.94861314326073,305.5409446036403 452.58795731825523,306.3606166911376 453.40762940575263,307.18028877863486 455.04697358074725,307.18028877863486 456.68631775574164,306.3606166911376 457.50598984323904,305.5409446036403 459.1453340182335,305.5409446036403 459.1453340182335,305.5409446036403 " style="color: rgb(218, 3, 255);"/><polyline fill="none" stroke="#0404b8" stroke-width="3" stroke-linejoin="round" stroke-dashoffset="" fill-rule="nonzero" marker-start="" marker-mid="" marker-end="" id="svg_50" points="445.2109085307799,298.9835679036621 444.3912364432826,298.9835679036621 443.5715643557853,298.9835679036621 444.3912364432826,298.9835679036621 446.03058061827716,298.9835679036621 447.66992479327166,298.9835679036621 450.94861314326073,298.9835679036621 454.22730149324985,298.1638958161649 456.68631775574164,298.1638958161649 458.3256619307362,297.3442237286676 " style="color: rgb(218, 3, 255);"/><polyline fill="none" stroke="#0404b8" stroke-width="3" stroke-linejoin="round" stroke-dashoffset="" fill-rule="nonzero" marker-start="" marker-mid="" marker-end="" id="svg_51" points="464.88303863071445,298.9835679036621 465.7027107182117,298.9835679036621 465.7027107182117,298.1638958161649 466.52238280570884,298.1638958161649 468.16172698070346,298.1638958161649 468.98139906820086,298.9835679036621 468.98139906820086,298.9835679036621 468.98139906820086,300.62291207865667 468.16172698070346,302.26225625365123 467.34205489320624,303.0819283411485 467.34205489320624,303.9016004286458 467.34205489320624,304.721272516143 467.34205489320624,305.5409446036403 468.16172698070346,306.3606166911376 468.98139906820086,307.18028877863486 470.6207432431953,307.99996086613214 471.44041533069264,308.8196329536294 472.2600874181898,308.8196329536294 472.2600874181898,309.63930504112665 472.2600874181898,310.4589771286239 470.6207432431953,312.0983213036185 469.801071155698,312.9179933911158 468.16172698070346,313.73766547861305 466.52238280570884,313.73766547861305 465.7027107182117,312.9179933911158 464.88303863071445,312.9179933911158 " style="color: rgb(218, 3, 255);"/><polyline fill="none" stroke="#0404b8" stroke-width="3" stroke-linejoin="round" stroke-dashoffset="" fill-rule="nonzero" marker-start="" marker-mid="" marker-end="" id="svg_52" points="322.26009540618907,144.88521545417498 323.07976749368635,145.70488754167226 323.07976749368635,146.52455962916954 323.07976749368635,146.52455962916954 323.8994395811836,148.16390380416408 324.71911166868085,149.80324797915864 325.53878375617813,152.26226424165046 327.1781279311727,154.72128050414227 327.99780001867,156.3606246791368 329.6371441936645,158.81964094162862 329.6371441936645,160.45898511662315 331.27648836865905,162.91800137911497 332.9158325436536,164.55734555410953 332.9158325436536,166.19668972910407 334.5551767186481,168.65570599159588 335.3748488061454,171.1147222540877 336.1945208936427,172.75406642908226 337.01419298113996,174.3934106040768 338.6535371561345,176.03275477907133 339.47320924363174,178.49177104156314 341.1125534186263,179.31144312906042 341.9322255061236,181.77045939155224 343.57156968111815,183.4098035665468 344.39124176861543,185.04914774154133 346.03058594360994,187.50816400403315 346.03058594360994,188.32783609153043 347.6699301186045,190.78685235402224 349.30927429359906,192.42619652901678 350.1289463810963,194.0655407040113 350.94861846859357,195.70488487900587 352.5879626435881,198.1639011414977 352.5879626435881,198.98357322899497 353.4076347310854,201.44258949148679 354.2273068185827,203.08193366648132 355.0469789060799,203.9016057539786 355.8666509935772,205.54094992897313 357.50599516857176,206.36062201647042 358.32566725606904,207.99996619146495 359.1453393435663,208.81963827896223 360.7846835185608,210.45898245395676 362.4240276935554,212.09832662895133 362.4240276935554,212.91799871644855 364.06337186854995,214.55734289144314 364.88304395604723,215.3770149789404 365.70271604354446,217.01635915393493 366.52238813104174,217.83603124143224 367.342060218539,218.6557033289295 367.342060218539,220.29504750392402 368.9814043935336,221.93439167891862 368.9814043935336,222.75406376641584 " style="color: rgb(218, 3, 255);"/><polyline fill="none" stroke="#0404b8" stroke-width="3" stroke-linejoin="round" stroke-dashoffset="" fill-rule="nonzero" marker-start="" marker-mid="" marker-end="" id="svg_53" points="323.07976749368635,149.80324797915864 323.07976749368635,148.98357589166136 322.26009540618907,148.16390380416408 322.26009540618907,149.80324797915864 322.26009540618907,151.44259215415317 323.07976749368635,153.0819363291477 322.26009540618907,156.3606246791368 322.26009540618907,157.99996885413134 322.26009540618907,157.99996885413134 322.26009540618907,159.6393130291259 321.4404233186918,158.81964094162862 321.4404233186918,157.99996885413134 321.4404233186918,156.3606246791368 319.8010791436972,153.0819363291477 319.8010791436972,150.6229200666559 318.1617349687027,146.52455962916954 318.1617349687027,143.24587127918045 318.1617349687027,141.60652710418591 318.1617349687027,140.78685501668863 318.1617349687027,140.78685501668863 319.8010791436972,141.60652710418591 322.26009540618907,144.06554336667773 324.71911166868085,145.70488754167226 327.99780001867,148.16390380416408 330.45681628116176,148.98357589166136 332.9158325436536,149.80324797915864 334.5551767186481,149.80324797915864 " style="color: rgb(218, 3, 255);"/><polyline fill="none" stroke="#0404b8" stroke-width="3" stroke-linejoin="round" stroke-dashoffset="" fill-rule="nonzero" marker-start="" marker-mid="" marker-end="" id="svg_54" points="269.80108180636364,121.93439700425137 268.98140971886636,121.93439700425137 269.80108180636364,121.93439700425137 271.4404259813582,121.93439700425137 273.89944224385,122.75406909174866 276.35845850634183,121.93439700425137 278.8174747688336,121.93439700425137 282.09616311882274,121.93439700425137 283.73550729381725,121.93439700425137 283.73550729381725,121.93439700425137 " style="color: rgb(218, 3, 255);"/><polyline fill="none" stroke="#0404b8" stroke-width="3" stroke-linejoin="round" stroke-dashoffset="" fill-rule="nonzero" marker-start="" marker-mid="" marker-end="" id="svg_55" points="292.75190025628723,115.3770203042732 292.75190025628723,114.5573482167759 293.5715723437845,114.5573482167759 293.5715723437845,113.73767612927864 295.2109165187791,113.73767612927864 296.85026069377363,113.73767612927864 298.48960486876814,114.5573482167759 299.3092769562654,115.3770203042732 300.1289490437627,117.01636447926775 300.1289490437627,117.83603656676502 300.1289490437627,120.29505282925682 298.48960486876814,121.93439700425137 297.6699327812709,125.21308535424046 296.85026069377363,126.85242952923501 296.85026069377363,128.49177370422956 296.03058860627635,130.1311178792241 296.03058860627635,130.95078996672137 296.85026069377363,131.77046205421863 297.6699327812709,131.77046205421863 298.48960486876814,132.5901341417159 300.1289490437627,131.77046205421863 300.94862113126,131.77046205421863 301.76829321875726,131.77046205421863 " style="color: rgb(218, 3, 255);"/><polyline fill="none" stroke="#0404b8" stroke-width="3" stroke-linejoin="round" stroke-dashoffset="" fill-rule="nonzero" marker-start="" marker-mid="" marker-end="" id="svg_56" points="291.93222816879,125.21308535424046 290.29288399379544,124.39341326674317 290.29288399379544,124.39341326674317 290.29288399379544,123.57374117924593 291.1125560812927,123.57374117924593 293.5715723437845,123.57374117924593 296.03058860627635,123.57374117924593 299.3092769562654,123.57374117924593 300.94862113126,123.57374117924593 302.58796530625455,123.57374117924593 " style="color: rgb(218, 3, 255);"/><polyline fill="none" stroke="#0404b8" stroke-width="3" stroke-linejoin="round" stroke-dashoffset="" fill-rule="nonzero" marker-start="" marker-mid="" marker-end="" id="svg_57" points="306.6863257437409,121.93439700425137 306.6863257437409,121.11472491675411 307.5059978312382,121.11472491675411 308.3256699187354,120.29505282925682 309.1453420062327,120.29505282925682 309.96501409372996,121.11472491675411 311.6043582687245,121.11472491675411 311.6043582687245,121.93439700425137 312.4240303562218,122.75406909174866 311.6043582687245,124.39341326674317 311.6043582687245,125.21308535424046 311.6043582687245,126.03275744173774 310.78468618122724,126.85242952923501 311.6043582687245,127.67210161673228 311.6043582687245,128.49177370422956 312.4240303562218,129.3114457917268 313.2437024437191,130.1311178792241 314.8830466187136,130.1311178792241 314.8830466187136,131.77046205421863 314.8830466187136,131.77046205421863 314.8830466187136,133.4098062292132 314.0633745312163,133.4098062292132 312.4240303562218,135.04915040420772 311.6043582687245,135.04915040420772 309.96501409372996,135.04915040420772 309.1453420062327,133.4098062292132 309.1453420062327,133.4098062292132 " style="color: rgb(218, 3, 255);"/><polyline fill="none" stroke="#0404b8" stroke-width="3" stroke-linejoin="round" stroke-dashoffset="" fill-rule="nonzero" marker-start="" marker-mid="" marker-end="" id="svg_58" points="252.5879679689209,223.5737358539131 252.5879679689209,223.5737358539131 252.5879679689209,223.5737358539131 253.4076400564182,223.5737358539131 254.22731214391544,223.5737358539131 255.86665631891003,224.3934079414104 257.50600049390454,225.21308002890763 259.9650167563964,225.21308002890763 262.42403301888817,225.21308002890763 265.7027213688773,225.21308002890763 270.6207538938609,225.21308002890763 275.53878641884455,226.03275211640494 279.6371468563309,226.03275211640494 284.55517938131453,226.03275211640494 289.47321190629816,226.03275211640494 293.5715723437845,226.85242420390222 298.48960486876814,226.85242420390222 301.76829321875726,226.85242420390222 305.04698156874633,226.85242420390222 308.3256699187354,227.67209629139947 312.4240303562218,228.49176837889675 316.52239079370815,228.49176837889675 318.98140705619994,228.49176837889675 323.07976749368635,228.49176837889675 326.3584558436754,228.49176837889675 329.6371441936645,228.49176837889675 334.5551767186481,227.67209629139947 337.83386506863724,227.67209629139947 341.9322255061236,227.67209629139947 346.8502580311072,227.67209629139947 350.94861846859357,227.67209629139947 355.0469789060799,226.85242420390222 359.9650114310636,226.85242420390222 363.24369978105267,226.85242420390222 367.342060218539,226.85242420390222 370.6207485685281,226.85242420390222 373.8994369185172,226.85242420390222 378.81746944350084,226.85242420390222 381.2764857059926,226.85242420390222 385.37484614347903,226.85242420390222 387.8338624059708,226.85242420390222 391.93222284345717,226.85242420390222 395.2109111934463,226.03275211640494 398.48959954343536,226.03275211640494 401.76828789342443,226.03275211640494 405.86664833091083,226.03275211640494 408.3256645934026,226.03275211640494 412.42402503088897,226.03275211640494 414.8830412933808,226.03275211640494 418.98140173086716,226.03275211640494 423.0797621683535,226.03275211640494 425.5387784308453,226.03275211640494 428.8174667808344,226.03275211640494 432.09615513082355,226.03275211640494 434.55517139331533,226.03275211640494 437.83385974330446,226.03275211640494 441.1125480932935,225.21308002890763 442.7518922682881,225.21308002890763 446.03058061827716,225.21308002890763 447.66992479327166,225.21308002890763 450.94861314326073,225.21308002890763 452.58795731825523,225.21308002890763 455.8666456682444,225.21308002890763 459.1453340182335,225.21308002890763 461.60435028072527,225.21308002890763 464.88303863071445,225.21308002890763 467.34205489320624,225.21308002890763 470.6207432431953,225.21308002890763 473.89943159318443,224.3934079414104 476.3584478556763,224.3934079414104 479.6371362056653,223.5737358539131 482.0961524681571,223.5737358539131 485.37484081814625,223.5737358539131 489.4732012556325,223.5737358539131 492.75188960562167,223.5737358539131 495.21090586811346,223.5737358539131 498.4895942181026,223.5737358539131 500.94861048059437,222.75406376641584 504.2272988305835,222.75406376641584 506.6863150930753,222.75406376641584 509.9650034430644,222.75406376641584 513.2436917930534,221.93439167891862 514.8830359680479,221.93439167891862 518.161724318037,221.93439167891862 521.4404126680262,221.93439167891862 523.899428930518,221.93439167891862 527.1781172805071,221.1147195914213 529.6371335429989,221.1147195914213 532.915821892988,221.1147195914213 536.194510242977,220.29504750392402 537.8338544179716,220.29504750392402 541.1125427679607,220.29504750392402 544.3912311179497,220.29504750392402 546.8502473804416,220.29504750392402 550.1289357304306,219.47537541642677 552.5879519929225,219.47537541642677 555.8666403429115,219.47537541642677 557.5059845179061,219.47537541642677 560.7846728678952,218.6557033289295 564.0633612178843,218.6557033289295 565.7027053928788,218.6557033289295 568.1617216553707,218.6557033289295 570.6207379178625,218.6557033289295 572.260082092857,218.6557033289295 573.8994262678516,218.6557033289295 575.538770442846,218.6557033289295 577.1781146178406,218.6557033289295 578.8174587928352,218.6557033289295 579.6371308803325,218.6557033289295 581.276475055327,218.6557033289295 582.0961471428243,218.6557033289295 583.7354913178189,218.6557033289295 583.7354913178189,218.6557033289295 584.5551634053161,218.6557033289295 583.7354913178189,218.6557033289295 583.7354913178189,217.83603124143224 582.0961471428243,217.83603124143224 580.4568029678297,217.01635915393493 578.8174587928352,217.01635915393493 576.3584425303434,215.3770149789404 573.8994262678516,213.73767080394586 573.8994262678516,213.73767080394586 572.260082092857,212.09832662895133 573.0797541803543,212.09832662895133 573.8994262678516,212.09832662895133 575.538770442846,212.09832662895133 577.1781146178406,213.73767080394586 579.6371308803325,214.55734289144314 582.0961471428243,216.1966870664377 584.5551634053161,217.83603124143224 587.0141796678079,218.6557033289295 588.6535238428024,219.47537541642677 589.4731959302998,220.29504750392402 589.4731959302998,220.29504750392402 588.6535238428024,220.29504750392402 587.0141796678079,220.29504750392402 582.9158192303215,221.93439167891862 579.6371308803325,221.93439167891862 576.3584425303434,223.5737358539131 573.8994262678516,224.3934079414104 573.0797541803543,225.21308002890763 " style="color: rgb(218, 3, 174);"/></g></svg>