<svg xmlns="http://www.w3.org/2000/svg" xmlns:se="http://svg-edit.googlecode.com" xmlns:xlink="http://www.w3.org/1999/xlink" xmlns:dc="http://purl.org/dc/elements/1.1/" xmlns:cc="http://creativecommons.org/ns#" xmlns:rdf="http://www.w3.org/1999/02/22-rdf-syntax-ns#" xmlns:inkscape="http://www.inkscape.org/namespaces/inkscape" width="777" height="480">
                                    <title>my vector image</title>
                                    <!-- Created with Vector Paint - http://www.vectorpaint.yaks.com/ https://chrome.google.com/webstore/detail/hnbpdiengicdefcjecjbnjnoifekhgdo -->
                                    <rect id="backgroundrect" width="100%" height="100%" x="0" y="0" fill="#FFFFFF" stroke="none"/>
                                <g style="" class="currentLayer"><title>Layer 1</title><polyline fill="none" stroke="#0404b8" stroke-width="3" stroke-linejoin="round" stroke-dashoffset="" fill-rule="nonzero" marker-start="" marker-mid="" marker-end="" id="svg_1" points="339.47320924363174,41.606532429518694 339.47320924363174,41.606532429518694 339.47320924363174,43.24587660451324 339.47320924363174,44.88522077950779 339.47320924363174,46.52456495450234 339.47320924363174,48.98358121699415 340.292881331129,51.44259747948597 340.292881331129,54.72128582947505 340.292881331129,57.18030209196688 340.292881331129,60.45899044195596 340.292881331129,63.737678791945044 340.292881331129,66.19669505443687 340.292881331129,69.47538340442595 340.292881331129,73.57374384191232 340.292881331129,76.8524321919014 340.292881331129,80.1311205418905 340.292881331129,84.22948097937686 341.1125534186263,86.68849724186867 341.1125534186263,89.96718559185776 341.1125534186263,92.42620185434957 341.1125534186263,95.70489020433867 341.1125534186263,99.80325064182503 341.1125534186263,102.26226690431685 341.1125534186263,106.36062734180321 341.1125534186263,110.45898777928959 340.292881331129,112.91800404178139 340.292881331129,117.01636447926775 340.292881331129,120.29505282925682 340.292881331129,123.57374117924593 341.1125534186263,126.85242952923501 341.1125534186263,129.3114457917268 341.1125534186263,132.5901341417159 341.1125534186263,135.04915040420772 341.1125534186263,138.32783875419682 341.1125534186263,141.60652710418591 341.1125534186263,144.06554336667773 341.1125534186263,147.3442317166668 341.9322255061236,150.6229200666559 341.9322255061236,153.0819363291477 342.75189759362087,156.3606246791368 342.75189759362087,159.6393130291259 342.75189759362087,162.91800137911497 343.57156968111815,166.19668972910407 344.39124176861543,167.83603390409863 344.39124176861543,171.93439434158498 344.39124176861543,175.21308269157407 344.39124176861543,177.6720989540659 345.21091385611265,181.77045939155224 345.21091385611265,184.22947565404405 345.21091385611265,188.32783609153043 346.03058594360994,190.78685235402224 346.03058594360994,194.8852127915086 346.03058594360994,198.98357322899497 346.03058594360994,202.26226157898404 346.03058594360994,205.54094992897313 346.03058594360994,209.63931036645948 346.03058594360994,212.91799871644855 346.03058594360994,217.01635915393493 346.03058594360994,220.29504750392402 346.8502580311072,224.3934079414104 347.6699301186045,228.49176837889675 347.6699301186045,230.95078464138854 347.6699301186045,235.04914507887491 348.4896022061018,239.1475055163613 348.4896022061018,242.4261938663504 349.30927429359906,246.52455430383674 349.30927429359906,249.80324265382583 349.30927429359906,253.0819310038149 349.30927429359906,256.360619353804 349.30927429359906,259.63930770379307 349.30927429359906,263.7376681412794 349.30927429359906,266.19668440377126 349.30927429359906,270.2950448412576 349.30927429359906,274.39340527874396 349.30927429359906,276.8524215412358 349.30927429359906,280.13110989122487 349.30927429359906,282.5901261537167 349.30927429359906,285.8688145037058 349.30927429359906,289.14750285369485 348.4896022061018,292.42619120368397 348.4896022061018,295.70487955367304 347.6699301186045,299.8032399911594 347.6699301186045,302.26225625365123 347.6699301186045,306.3606166911376 347.6699301186045,310.4589771286239 347.6699301186045,313.73766547861305 347.6699301186045,317.0163538286021 347.6699301186045,320.2950421785912 347.6699301186045,325.2130747035748 347.6699301186045,328.49176305356394 347.6699301186045,331.770451403553 347.6699301186045,336.68848392853664 347.6699301186045,339.1475001910285 347.6699301186045,343.24586062851483 347.6699301186045,346.5245489785039 347.6699301186045,349.803237328493 347.6699301186045,352.2622535909848 347.6699301186045,355.54094194097394 347.6699301186045,358.819630290963 347.6699301186045,362.91799072844935 346.8502580311072,364.5573349034439 346.8502580311072,367.836023253433 347.6699301186045,371.1147116034221 347.6699301186045,373.5737278659139 347.6699301186045,376.03274412840574 347.6699301186045,378.4917603908975 347.6699301186045,380.95077665338937 347.6699301186045,383.40979291588116 347.6699301186045,385.868809178373 347.6699301186045,387.5081533533675 347.6699301186045,389.14749752836207 347.6699301186045,390.78684170335663 347.6699301186045,392.42618587835113 347.6699301186045,392.42618587835113 347.6699301186045,393.2458579658484 " style="color: rgb(218, 3, 174);"/><polyline fill="none" stroke="#0404b8" stroke-width="3" stroke-linejoin="round" stroke-dashoffset="" fill-rule="nonzero" marker-start="" marker-mid="" marker-end="" id="svg_2" points="341.1125534186263,46.52456495450234 340.292881331129,48.16390912949687 339.47320924363174,48.98358121699415 338.6535371561345,52.262269566983235 337.83386506863724,54.72128582947505 336.1945208936427,57.99997417946414 335.3748488061454,59.639318354458695 334.5551767186481,60.45899044195596 334.5551767186481,60.45899044195596 332.9158325436536,59.639318354458695 332.9158325436536,57.18030209196688 332.0961604561563,53.901613741977776 332.0961604561563,48.98358121699415 332.9158325436536,45.70489286700506 332.9158325436536,43.24587660451324 334.5551767186481,39.96718825452416 334.5551767186481,38.32784407952961 336.1945208936427,38.32784407952961 337.83386506863724,38.32784407952961 340.292881331129,40.78686034202143 341.9322255061236,43.24587660451324 344.39124176861543,46.52456495450234 346.03058594360994,48.16390912949687 347.6699301186045,51.44259747948597 349.30927429359906,53.081941654480524 " style="color: rgb(218, 3, 174);"/><polyline fill="none" stroke="#0404b8" stroke-width="3" stroke-linejoin="round" stroke-dashoffset="" fill-rule="nonzero" marker-start="" marker-mid="" marker-end="" id="svg_3" points="272.2600980688554,34.22948364204325 270.6207538938609,33.40981155454598 270.6207538938609,32.5901394670487 270.6207538938609,31.77046737955143 272.2600980688554,31.77046737955143 273.89944224385,31.77046737955143 277.1781305938391,31.77046737955143 281.27649103132546,32.5901394670487 283.73550729381725,32.5901394670487 287.0141956438064,32.5901394670487 287.8338677313036,32.5901394670487 288.6535398188009,31.77046737955143 288.6535398188009,31.77046737955143 287.0141956438064,31.77046737955143 285.3748514688118,31.77046737955143 283.73550729381725,31.77046737955143 282.09616311882274,32.5901394670487 281.27649103132546,33.40981155454598 280.4568189438282,35.049155729540516 280.4568189438282,38.32784407952961 280.4568189438282,39.96718825452416 280.4568189438282,43.24587660451324 282.09616311882274,46.52456495450234 282.09616311882274,47.344237041999605 " style="color: rgb(218, 3, 174);"/><polyline fill="none" stroke="#0404b8" stroke-width="3" stroke-linejoin="round" stroke-dashoffset="" fill-rule="nonzero" marker-start="" marker-mid="" marker-end="" id="svg_4" points="273.89944224385,49.80325330449142 273.89944224385,49.80325330449142 273.0797701563527,48.98358121699415 273.89944224385,48.98358121699415 274.71911433134727,48.98358121699415 276.35845850634183,48.16390912949687 278.8174747688336,48.16390912949687 282.91583520631997,48.16390912949687 285.3748514688118,48.16390912949687 288.6535398188009,48.16390912949687 289.47321190629816,48.16390912949687 " style="color: rgb(218, 3, 174);"/><polyline fill="none" stroke="#0404b8" stroke-width="3" stroke-linejoin="round" stroke-dashoffset="" fill-rule="nonzero" marker-start="" marker-mid="" marker-end="" id="svg_5" points="296.85026069377363,43.24587660451324 296.85026069377363,42.426204517015975 296.85026069377363,41.606532429518694 297.6699327812709,42.426204517015975 298.48960486876814,43.24587660451324 299.3092769562654,44.88522077950779 300.1289490437627,46.52456495450234 301.76829321875726,48.98358121699415 301.76829321875726,49.80325330449142 301.76829321875726,51.44259747948597 301.76829321875726,51.44259747948597 301.76829321875726,50.6229253919887 300.94862113126,49.80325330449142 300.94862113126,48.16390912949687 300.1289490437627,45.70489286700506 300.94862113126,44.06554869201051 301.76829321875726,42.426204517015975 301.76829321875726,41.606532429518694 303.40763739375177,41.606532429518694 305.04698156874633,41.606532429518694 305.8666536562436,43.24587660451324 306.6863257437409,44.88522077950779 308.3256699187354,46.52456495450234 308.3256699187354,47.344237041999605 309.1453420062327,48.16390912949687 309.96501409372996,48.16390912949687 309.96501409372996,48.16390912949687 309.96501409372996,47.344237041999605 310.78468618122724,46.52456495450234 312.4240303562218,44.88522077950779 313.2437024437191,43.24587660451324 314.8830466187136,41.606532429518694 314.8830466187136,41.606532429518694 315.7027187062109,40.78686034202143 316.52239079370815,41.606532429518694 316.52239079370815,42.426204517015975 317.34206288120544,43.24587660451324 317.34206288120544,46.52456495450234 318.1617349687027,48.98358121699415 318.1617349687027,51.44259747948597 318.98140705619994,53.901613741977776 318.98140705619994,54.72128582947505 " style="color: rgb(218, 3, 174);"/><polyline fill="none" stroke="#0404b8" stroke-width="3" stroke-linejoin="round" stroke-dashoffset="" fill-rule="nonzero" marker-start="" marker-mid="" marker-end="" id="svg_6" points="157.50600581923734,224.3934079414104 158.32567790673463,224.3934079414104 159.1453499942319,224.3934079414104 159.1453499942319,224.3934079414104 160.78469416922644,224.3934079414104 162.42403834422097,225.21308002890763 164.8830546067128,225.21308002890763 167.3420708692046,225.21308002890763 170.6207592191937,225.21308002890763 172.26010339418826,225.21308002890763 175.53879174417733,225.21308002890763 178.81748009416643,225.21308002890763 182.09616844415552,225.21308002890763 187.01420096913915,225.21308002890763 190.29288931912825,225.21308002890763 195.21092184411185,225.21308002890763 200.12895436909548,225.21308002890763 205.8666589815764,225.21308002890763 209.14534733156552,226.03275211640494 214.88305194404643,226.03275211640494 218.16174029403547,226.03275211640494 223.07977281901913,226.03275211640494 226.35846116900817,226.03275211640494 231.27649369399185,226.03275211640494 236.19452621897545,226.03275211640494 240.2928866564619,226.03275211640494 246.0305912689428,226.03275211640494 251.76829588142363,225.21308002890763 255.86665631891003,225.21308002890763 262.42403301888817,225.21308002890763 267.3420655438718,225.21308002890763 272.2600980688554,224.3934079414104 277.1781305938391,224.3934079414104 281.27649103132546,224.3934079414104 287.0141956438064,223.5737358539131 291.93222816879,223.5737358539131 296.03058860627635,223.5737358539131 300.94862113126,222.75406376641584 305.8666536562436,221.93439167891862 309.96501409372996,221.93439167891862 314.8830466187136,221.93439167891862 318.1617349687027,221.93439167891862 323.07976749368635,221.1147195914213 327.1781279311727,220.29504750392402 330.45681628116176,220.29504750392402 335.3748488061454,220.29504750392402 338.6535371561345,220.29504750392402 343.57156968111815,219.47537541642677 347.6699301186045,218.6557033289295 351.76829055609085,218.6557033289295 355.8666509935772,218.6557033289295 359.9650114310636,217.83603124143224 363.24369978105267,217.83603124143224 367.342060218539,217.83603124143224 370.6207485685281,217.83603124143224 373.8994369185172,217.01635915393493 378.81746944350084,217.01635915393493 381.2764857059926,217.01635915393493 384.55517405598175,217.01635915393493 388.6535344934681,217.01635915393493 390.29287866846266,217.01635915393493 393.57156701845173,217.01635915393493 396.8502553684408,217.01635915393493 400.1289437184299,217.01635915393493 402.5879599809217,217.01635915393493 405.86664833091083,217.01635915393493 408.3256645934026,217.01635915393493 410.78468085589446,217.01635915393493 414.06336920588353,217.01635915393493 416.5223854683754,217.01635915393493 418.98140173086716,216.1966870664377 421.44041799335906,216.1966870664377 423.89943425585085,216.1966870664377 427.1781226058399,216.1966870664377 429.6371388683317,216.1966870664377 432.09615513082355,216.1966870664377 434.55517139331533,216.1966870664377 437.0141876558071,216.1966870664377 439.4732039182989,216.1966870664377 441.1125480932935,216.1966870664377 444.3912364432826,216.1966870664377 446.03058061827716,216.1966870664377 447.66992479327166,216.1966870664377 450.12894105576345,216.1966870664377 452.58795731825523,216.1966870664377 453.40762940575263,217.01635915393493 455.8666456682444,217.01635915393493 457.50598984323904,217.01635915393493 458.3256619307362,217.01635915393493 459.9650061057308,217.01635915393493 460.7846781932281,217.01635915393493 463.2436944557199,217.01635915393493 464.88303863071445,217.01635915393493 465.7027107182117,217.01635915393493 467.34205489320624,217.01635915393493 468.98139906820086,217.01635915393493 470.6207432431953,217.01635915393493 473.0797595056871,216.1966870664377 474.7191036806817,216.1966870664377 477.1781199431735,216.1966870664377 478.81746411816806,216.1966870664377 480.4568082931627,216.1966870664377 483.73549664315163,215.3770149789404 485.37484081814625,215.3770149789404 487.83385708063804,215.3770149789404 490.2928733431299,215.3770149789404 491.9322175181245,216.1966870664377 494.3912337806163,216.1966870664377 496.8502500431081,216.1966870664377 499.30926630559986,216.1966870664377 501.7682825680917,216.1966870664377 503.40762674308615,216.1966870664377 505.0469709180807,217.01635915393493 506.6863150930753,217.01635915393493 508.3256592680698,217.01635915393493 509.9650034430644,217.01635915393493 510.78467553056157,217.01635915393493 512.4240197055561,217.01635915393493 513.2436917930534,217.01635915393493 514.8830359680479,217.01635915393493 514.8830359680479,217.83603124143224 515.7027080555453,217.83603124143224 516.5223801430425,217.83603124143224 516.5223801430425,217.83603124143224 517.3420522305398,217.83603124143224 518.161724318037,217.83603124143224 518.161724318037,217.83603124143224 518.9813964055343,217.83603124143224 519.8010684930316,217.83603124143224 519.8010684930316,217.83603124143224 520.6207405805288,217.83603124143224 521.4404126680262,217.83603124143224 521.4404126680262,217.83603124143224 522.2600847555234,217.83603124143224 523.0797568430207,217.83603124143224 523.899428930518,217.83603124143224 524.7191010180152,217.83603124143224 526.3584451930097,217.83603124143224 526.3584451930097,217.83603124143224 527.9977893680043,217.83603124143224 529.6371335429989,217.83603124143224 529.6371335429989,217.83603124143224 531.2764777179934,217.83603124143224 532.0961498054907,218.6557033289295 532.915821892988,218.6557033289295 534.5551660679824,217.83603124143224 535.3748381554798,217.83603124143224 536.194510242977,217.83603124143224 537.8338544179716,217.83603124143224 538.6535265054689,217.83603124143224 539.4731985929661,217.83603124143224 540.2928706804634,217.83603124143224 541.1125427679607,217.01635915393493 541.9322148554579,217.01635915393493 542.7518869429553,217.01635915393493 542.7518869429553,217.01635915393493 543.5715590304525,217.01635915393493 544.3912311179497,217.01635915393493 544.3912311179497,217.83603124143224 543.5715590304525,217.01635915393493 542.7518869429553,217.01635915393493 542.7518869429553,217.01635915393493 541.9322148554579,217.01635915393493 541.1125427679607,216.1966870664377 537.8338544179716,215.3770149789404 534.5551660679824,214.55734289144314 532.915821892988,213.73767080394586 529.6371335429989,212.09832662895133 527.9977893680043,212.09832662895133 526.3584451930097,210.45898245395676 525.5387731055125,210.45898245395676 526.3584451930097,210.45898245395676 527.9977893680043,210.45898245395676 532.915821892988,210.45898245395676 536.194510242977,211.27865454145402 539.4731985929661,211.27865454145402 543.5715590304525,212.09832662895133 546.0305752929443,213.73767080394586 547.6699194679388,213.73767080394586 547.6699194679388,215.3770149789404 546.0305752929443,217.01635915393493 544.3912311179497,218.6557033289295 541.1125427679607,220.29504750392402 537.8338544179716,221.93439167891862 536.194510242977,221.93439167891862 534.5551660679824,223.5737358539131 " style="color: rgb(218, 3, 174);"/><polyline fill="none" stroke="#0404b8" stroke-width="3" stroke-linejoin="round" stroke-dashoffset="" fill-rule="nonzero" marker-start="" marker-mid="" marker-end="" id="svg_7" points="559.9650007803979,225.21308002890763 560.7846728678952,226.03275211640494 560.7846728678952,226.85242420390222 560.7846728678952,228.49176837889675 561.6043449553924,230.1311125538913 562.4240170428898,233.40980090388038 562.4240170428898,235.04914507887491 563.243689130387,236.68848925386948 563.243689130387,238.327833428864 564.0633612178843,239.9671776038586 564.0633612178843,239.9671776038586 564.0633612178843,240.78684969135583 563.243689130387,240.78684969135583 562.4240170428898,239.9671776038586 562.4240170428898,238.327833428864 561.6043449553924,237.5081613413667 560.7846728678952,235.04914507887491 560.7846728678952,233.40980090388038 560.7846728678952,230.1311125538913 560.7846728678952,226.85242420390222 561.6043449553924,223.5737358539131 562.4240170428898,221.1147195914213 564.0633612178843,219.47537541642677 565.7027053928788,217.83603124143224 567.3420495678733,217.01635915393493 568.9813937428679,216.1966870664377 570.6207379178625,216.1966870664377 572.260082092857,217.01635915393493 573.0797541803543,217.01635915393493 573.8994262678516,218.6557033289295 574.7190983553488,221.1147195914213 574.7190983553488,221.93439167891862 573.8994262678516,224.3934079414104 572.260082092857,226.03275211640494 570.6207379178625,227.67209629139947 567.3420495678733,228.49176837889675 565.7027053928788,230.1311125538913 564.8830333053816,230.1311125538913 564.0633612178843,230.1311125538913 564.8830333053816,230.95078464138854 565.7027053928788,231.77045672888585 567.3420495678733,232.59012881638313 569.8010658303652,233.40980090388038 571.4404100053597,234.2294729913777 573.8994262678516,235.04914507887491 575.538770442846,235.04914507887491 577.1781146178406,235.04914507887491 577.1781146178406,235.04914507887491 " style="color: rgb(218, 3, 174);"/><polyline fill="none" stroke="#0404b8" stroke-width="3" stroke-linejoin="round" stroke-dashoffset="" fill-rule="nonzero" marker-start="" marker-mid="" marker-end="" id="svg_8" points="584.5551634053161,233.40980090388038 586.1945075803106,232.59012881638313 587.0141796678079,232.59012881638313 587.8338517553052,231.77045672888585 589.4731959302998,230.1311125538913 590.292868017797,228.49176837889675 591.1125401052942,227.67209629139947 591.1125401052942,226.85242420390222 590.292868017797,226.03275211640494 588.6535238428024,225.21308002890763 586.1945075803106,225.21308002890763 584.5551634053161,226.03275211640494 583.7354913178189,227.67209629139947 582.0961471428243,229.311440466394 582.0961471428243,231.77045672888585 582.0961471428243,233.40980090388038 583.7354913178189,236.68848925386948 585.3748354928134,238.327833428864 587.0141796678079,239.1475055163613 590.292868017797,239.9671776038586 593.5715563677861,239.9671776038586 596.0305726302779,238.327833428864 598.4895888927697,237.5081613413667 598.4895888927697,236.68848925386948 " style="color: rgb(218, 3, 174);"/><polyline fill="none" stroke="#0404b8" stroke-width="3" stroke-linejoin="round" stroke-dashoffset="" fill-rule="nonzero" marker-start="" marker-mid="" marker-end="" id="svg_9" points="266.5223934563746,197.3442290540004 265.7027213688773,198.98357322899497 264.88304928138,200.6229174039895 264.06337719388273,203.9016057539786 262.42403301888817,207.18029410396767 262.42403301888817,209.63931036645948 262.42403301888817,213.73767080394586 262.42403301888817,218.6557033289295 262.42403301888817,221.93439167891862 263.24370510638545,227.67209629139947 264.06337719388273,232.59012881638313 265.7027213688773,235.86881716637222 267.3420655438718,240.78684969135583 268.98140971886636,245.7048822163395 270.6207538938609,248.98357056632852 273.0797701563527,253.9016030913122 275.53878641884455,256.360619353804 277.99780268133634,261.2786518787876 281.27649103132546,264.5573402287767 283.73550729381725,267.83602857876576 287.0141956438064,271.93438901625217 291.1125560812927,275.21307736624124 294.3912444312818,277.6720936287331 298.48960486876814,280.95078197872215 303.40763739375177,283.40979824121393 307.5059978312382,285.8688145037058 312.4240303562218,288.3278307661976 318.1617349687027,290.7868470286894 323.07976749368635,291.6065191161867 327.1781279311727,292.42619120368397 332.9158325436536,294.0655353786785 338.6535371561345,294.88520746617576 342.75189759362087,295.70487955367304 349.30927429359906,295.70487955367304 355.8666509935772,295.70487955367304 359.9650114310636,295.70487955367304 365.70271604354446,294.88520746617576 369.80107648103086,294.0655353786785 375.5387810935118,292.42619120368397 380.4568136184954,290.7868470286894 383.73550196848447,289.14750285369485 388.6535344934681,285.8688145037058 393.57156701845173,282.5901261537167 396.8502553684408,280.13110989122487 401.76828789342443,276.8524215412358 405.04697624341355,272.75406110374945 408.3256645934026,269.4753727537603 412.42402503088897,264.5573402287767 416.5223854683754,259.63930770379307 418.1617296433699,254.72127517880946 421.44041799335906,249.80324265382583 423.0797621683535,243.2458659538476 424.71910634334813,239.1475055163613 426.35845051834264,234.2294729913777 427.1781226058399,227.67209629139947 427.9977946933371,220.29504750392402 427.1781226058399,215.3770149789404 426.35845051834264,208.81963827896223 424.71910634334813,201.44258949148679 423.0797621683535,196.52455696650313 421.44041799335906,189.96718026652496 418.98140173086716,185.04914774154133 415.7027133808781,179.31144312906042 411.60435294339175,173.5737385165795 408.3256645934026,169.47537807909316 403.407632068419,164.55734555410953 398.48959954343536,159.6393130291259 394.391239105949,156.3606246791368 387.8338624059708,153.0819363291477 381.2764857059926,149.80324797915864 375.5387810935118,147.3442317166668 368.1617323060363,144.88521545417498 360.7846835185608,144.06554336667773 354.2273068185827,143.24587127918045 346.03058594360994,143.24587127918045 337.83386506863724,143.24587127918045 331.27648836865905,144.06554336667773 323.07976749368635,145.70488754167226 316.52239079370815,147.3442317166668 308.3256699187354,149.80324797915864 301.76829321875726,152.26226424165046 294.3912444312818,156.3606246791368 287.0141956438064,160.45898511662315 282.09616311882274,164.55734555410953 276.35845850634183,170.29505016659044 271.4404259813582,176.03275477907133 268.98140971886636,180.95078730405496 265.7027213688773,187.50816400403315 264.06337719388273,194.8852127915086 263.24370510638545,198.1639011414977 " style="color: rgb(218, 3, 174);"/><polyline fill="none" stroke="#da03ae" stroke-width="3" stroke-linejoin="round" stroke-dashoffset="" fill-rule="nonzero" marker-start="" marker-mid="" marker-end="" id="svg_10" points="426.35845051834264,214.55734289144314 426.35845051834264,215.3770149789404 426.35845051834264,215.3770149789404 426.35845051834264,214.55734289144314 426.35845051834264,213.73767080394586 426.35845051834264,213.73767080394586 426.35845051834264,213.73767080394586 427.1781226058399,213.73767080394586 427.9977946933371,213.73767080394586 427.9977946933371,213.73767080394586 427.1781226058399,214.55734289144314 426.35845051834264,215.3770149789404 426.35845051834264,216.1966870664377 426.35845051834264,217.01635915393493 425.5387784308453,217.01635915393493 424.71910634334813,217.01635915393493 424.71910634334813,217.01635915393493 424.71910634334813,216.1966870664377 424.71910634334813,215.3770149789404 424.71910634334813,215.3770149789404 424.71910634334813,214.55734289144314 424.71910634334813,213.73767080394586 425.5387784308453,213.73767080394586 426.35845051834264,213.73767080394586 426.35845051834264,213.73767080394586 426.35845051834264,213.73767080394586 427.1781226058399,214.55734289144314 427.1781226058399,215.3770149789404 427.1781226058399,215.3770149789404 426.35845051834264,217.01635915393493 426.35845051834264,217.01635915393493 425.5387784308453,217.83603124143224 424.71910634334813,217.83603124143224 424.71910634334813,217.01635915393493 423.89943425585085,217.01635915393493 423.89943425585085,216.1966870664377 423.89943425585085,215.3770149789404 424.71910634334813,214.55734289144314 424.71910634334813,213.73767080394586 424.71910634334813,213.73767080394586 426.35845051834264,213.73767080394586 426.35845051834264,213.73767080394586 427.1781226058399,213.73767080394586 427.1781226058399,214.55734289144314 427.1781226058399,215.3770149789404 427.1781226058399,216.1966870664377 426.35845051834264,217.01635915393493 426.35845051834264,218.6557033289295 425.5387784308453,218.6557033289295 424.71910634334813,218.6557033289295 424.71910634334813,217.83603124143224 424.71910634334813,217.01635915393493 424.71910634334813,217.01635915393493 424.71910634334813,216.1966870664377 424.71910634334813,215.3770149789404 424.71910634334813,214.55734289144314 425.5387784308453,214.55734289144314 426.35845051834264,213.73767080394586 427.1781226058399,214.55734289144314 427.9977946933371,214.55734289144314 427.9977946933371,215.3770149789404 427.9977946933371,215.3770149789404 427.9977946933371,216.1966870664377 427.9977946933371,217.01635915393493 427.9977946933371,217.01635915393493 427.1781226058399,217.01635915393493 426.35845051834264,217.83603124143224 425.5387784308453,217.01635915393493 424.71910634334813,217.01635915393493 424.71910634334813,216.1966870664377 424.71910634334813,215.3770149789404 424.71910634334813,214.55734289144314 425.5387784308453,213.73767080394586 426.35845051834264,212.91799871644855 426.35845051834264,212.91799871644855 427.1781226058399,212.91799871644855 427.9977946933371,213.73767080394586 428.8174667808344,213.73767080394586 429.6371388683317,214.55734289144314 430.456810955829,215.3770149789404 430.456810955829,215.3770149789404 430.456810955829,216.1966870664377 429.6371388683317,217.01635915393493 428.8174667808344,217.01635915393493 427.9977946933371,217.01635915393493 427.1781226058399,217.01635915393493 426.35845051834264,216.1966870664377 425.5387784308453,215.3770149789404 424.71910634334813,215.3770149789404 424.71910634334813,214.55734289144314 424.71910634334813,213.73767080394586 425.5387784308453,213.73767080394586 426.35845051834264,212.91799871644855 426.35845051834264,212.91799871644855 427.9977946933371,212.91799871644855 427.9977946933371,213.73767080394586 427.9977946933371,214.55734289144314 428.8174667808344,215.3770149789404 428.8174667808344,216.1966870664377 428.8174667808344,217.01635915393493 427.9977946933371,217.83603124143224 427.9977946933371,217.83603124143224 426.35845051834264,218.6557033289295 426.35845051834264,218.6557033289295 424.71910634334813,217.83603124143224 424.71910634334813,217.01635915393493 424.71910634334813,217.01635915393493 424.71910634334813,215.3770149789404 425.5387784308453,214.55734289144314 426.35845051834264,213.73767080394586 426.35845051834264,213.73767080394586 427.1781226058399,212.91799871644855 427.9977946933371,212.91799871644855 427.9977946933371,213.73767080394586 428.8174667808344,213.73767080394586 429.6371388683317,214.55734289144314 429.6371388683317,215.3770149789404 428.8174667808344,215.3770149789404 427.9977946933371,217.01635915393493 427.1781226058399,217.01635915393493 426.35845051834264,217.01635915393493 426.35845051834264,216.1966870664377 426.35845051834264,215.3770149789404 426.35845051834264,215.3770149789404 426.35845051834264,214.55734289144314 426.35845051834264,213.73767080394586 427.9977946933371,213.73767080394586 " style="color: rgb(218, 3, 174);"/><polyline fill="none" stroke="#da03ae" stroke-width="3" stroke-linejoin="round" stroke-dashoffset="" fill-rule="nonzero" marker-start="" marker-mid="" marker-end="" id="svg_11" points="305.04698156874633,151.44259215415317 305.04698156874633,151.44259215415317 305.04698156874633,151.44259215415317 305.04698156874633,151.44259215415317 305.04698156874633,150.6229200666559 305.04698156874633,149.80324797915864 305.04698156874633,149.80324797915864 305.04698156874633,149.80324797915864 305.8666536562436,149.80324797915864 305.8666536562436,149.80324797915864 305.8666536562436,150.6229200666559 305.8666536562436,151.44259215415317 305.04698156874633,151.44259215415317 305.04698156874633,152.26226424165046 304.22730948124905,153.0819363291477 303.40763739375177,153.0819363291477 303.40763739375177,152.26226424165046 303.40763739375177,151.44259215415317 303.40763739375177,151.44259215415317 303.40763739375177,149.80324797915864 304.22730948124905,149.80324797915864 305.04698156874633,148.16390380416408 305.04698156874633,148.16390380416408 305.8666536562436,148.16390380416408 306.6863257437409,148.16390380416408 306.6863257437409,149.80324797915864 306.6863257437409,149.80324797915864 306.6863257437409,150.6229200666559 306.6863257437409,151.44259215415317 305.8666536562436,152.26226424165046 305.04698156874633,153.0819363291477 305.04698156874633,153.0819363291477 305.04698156874633,151.44259215415317 304.22730948124905,151.44259215415317 304.22730948124905,149.80324797915864 305.04698156874633,149.80324797915864 305.04698156874633,148.98357589166136 305.04698156874633,148.16390380416408 305.8666536562436,148.16390380416408 306.6863257437409,148.16390380416408 306.6863257437409,148.98357589166136 306.6863257437409,149.80324797915864 306.6863257437409,150.6229200666559 306.6863257437409,151.44259215415317 305.8666536562436,152.26226424165046 305.04698156874633,153.0819363291477 305.04698156874633,153.0819363291477 304.22730948124905,153.0819363291477 303.40763739375177,152.26226424165046 303.40763739375177,151.44259215415317 303.40763739375177,150.6229200666559 303.40763739375177,149.80324797915864 304.22730948124905,149.80324797915864 305.04698156874633,148.98357589166136 305.04698156874633,148.98357589166136 305.8666536562436,148.98357589166136 306.6863257437409,149.80324797915864 306.6863257437409,149.80324797915864 306.6863257437409,150.6229200666559 306.6863257437409,151.44259215415317 306.6863257437409,152.26226424165046 305.04698156874633,153.0819363291477 305.04698156874633,153.0819363291477 304.22730948124905,153.0819363291477 303.40763739375177,152.26226424165046 303.40763739375177,151.44259215415317 303.40763739375177,150.6229200666559 303.40763739375177,149.80324797915864 304.22730948124905,148.98357589166136 305.04698156874633,148.16390380416408 305.04698156874633,148.16390380416408 305.8666536562436,148.16390380416408 306.6863257437409,148.16390380416408 306.6863257437409,148.16390380416408 306.6863257437409,149.80324797915864 306.6863257437409,149.80324797915864 306.6863257437409,151.44259215415317 306.6863257437409,151.44259215415317 305.8666536562436,152.26226424165046 305.04698156874633,153.0819363291477 304.22730948124905,153.0819363291477 303.40763739375177,152.26226424165046 303.40763739375177,151.44259215415317 302.58796530625455,151.44259215415317 302.58796530625455,149.80324797915864 303.40763739375177,149.80324797915864 303.40763739375177,148.98357589166136 304.22730948124905,148.16390380416408 305.04698156874633,148.16390380416408 305.8666536562436,148.16390380416408 306.6863257437409,148.98357589166136 306.6863257437409,149.80324797915864 306.6863257437409,149.80324797915864 305.8666536562436,150.6229200666559 305.04698156874633,151.44259215415317 305.04698156874633,151.44259215415317 304.22730948124905,151.44259215415317 305.04698156874633,150.6229200666559 " style="color: rgb(218, 3, 174);"/><polyline fill="none" stroke="#da03ae" stroke-width="3" stroke-linejoin="round" stroke-dashoffset="" fill-rule="nonzero" marker-start="" marker-mid="" marker-end="" id="svg_12" points="305.04698156874633,156.3606246791368 305.04698156874633,157.99996885413134 304.22730948124905,157.99996885413134 304.22730948124905,158.81964094162862 305.04698156874633,159.6393130291259 305.04698156874633,160.45898511662315 305.04698156874633,161.27865720412044 305.04698156874633,161.27865720412044 " style="color: rgb(218, 3, 174);"/><polyline fill="none" stroke="#da03ae" stroke-width="3" stroke-linejoin="round" stroke-dashoffset="" fill-rule="nonzero" marker-start="" marker-mid="" marker-end="" id="svg_13" points="305.04698156874633,167.01636181660135 305.04698156874633,167.83603390409863 305.04698156874633,168.65570599159588 305.04698156874633,169.47537807909316 305.04698156874633,169.47537807909316 " style="color: rgb(218, 3, 174);"/><polyline fill="none" stroke="#da03ae" stroke-width="3" stroke-linejoin="round" stroke-dashoffset="" fill-rule="nonzero" marker-start="" marker-mid="" marker-end="" id="svg_14" points="305.8666536562436,177.6720989540659 305.04698156874633,177.6720989540659 305.04698156874633,179.31144312906042 305.04698156874633,179.31144312906042 305.04698156874633,180.95078730405496 " style="color: rgb(218, 3, 174);"/><polyline fill="none" stroke="#da03ae" stroke-width="3" stroke-linejoin="round" stroke-dashoffset="" fill-rule="nonzero" marker-start="" marker-mid="" marker-end="" id="svg_15" points="305.8666536562436,185.04914774154133 305.04698156874633,185.8688198290386 305.04698156874633,186.68849191653587 305.04698156874633,187.50816400403315 305.8666536562436,187.50816400403315 " style="color: rgb(218, 3, 174);"/><polyline fill="none" stroke="#da03ae" stroke-width="3" stroke-linejoin="round" stroke-dashoffset="" fill-rule="nonzero" marker-start="" marker-mid="" marker-end="" id="svg_16" points="306.6863257437409,193.24586861651406 305.8666536562436,194.0655407040113 305.8666536562436,194.0655407040113 305.8666536562436,194.8852127915086 306.6863257437409,195.70488487900587 " style="color: rgb(218, 3, 174);"/><polyline fill="none" stroke="#da03ae" stroke-width="3" stroke-linejoin="round" stroke-dashoffset="" fill-rule="nonzero" marker-start="" marker-mid="" marker-end="" id="svg_17" points="306.6863257437409,199.80324531649222 306.6863257437409,200.6229174039895 306.6863257437409,201.44258949148679 306.6863257437409,202.26226157898404 306.6863257437409,202.26226157898404 306.6863257437409,203.9016057539786 306.6863257437409,203.9016057539786 306.6863257437409,204.72127784147585 " style="color: rgb(218, 3, 174);"/><polyline fill="none" stroke="#da03ae" stroke-width="3" stroke-linejoin="round" stroke-dashoffset="" fill-rule="nonzero" marker-start="" marker-mid="" marker-end="" id="svg_18" points="307.5059978312382,212.09832662895133 307.5059978312382,212.09832662895133 306.6863257437409,212.91799871644855 306.6863257437409,213.73767080394586 307.5059978312382,214.55734289144314 307.5059978312382,215.3770149789404 307.5059978312382,215.3770149789404 " style="color: rgb(218, 3, 174);"/><polyline fill="none" stroke="#da03ae" stroke-width="3" stroke-linejoin="round" stroke-dashoffset="" fill-rule="nonzero" marker-start="" marker-mid="" marker-end="" id="svg_19" points="306.6863257437409,221.1147195914213 306.6863257437409,222.75406376641584 306.6863257437409,223.5737358539131 306.6863257437409,224.3934079414104 306.6863257437409,225.21308002890763 306.6863257437409,226.03275211640494 306.6863257437409,226.85242420390222 " style="color: rgb(218, 3, 174);"/><polyline fill="none" stroke="#da03ae" stroke-width="3" stroke-linejoin="round" stroke-dashoffset="" fill-rule="nonzero" marker-start="" marker-mid="" marker-end="" id="svg_20" points="306.6863257437409,230.95078464138854 306.6863257437409,231.77045672888585 306.6863257437409,232.59012881638313 306.6863257437409,233.40980090388038 306.6863257437409,233.40980090388038 " style="color: rgb(218, 3, 174);"/><polyline fill="none" stroke="#da03ae" stroke-width="3" stroke-linejoin="round" stroke-dashoffset="" fill-rule="nonzero" marker-start="" marker-mid="" marker-end="" id="svg_21" points="306.6863257437409,239.9671776038586 306.6863257437409,240.78684969135583 306.6863257437409,241.60652177885314 " style="color: rgb(218, 3, 174);"/><polyline fill="none" stroke="#da03ae" stroke-width="3" stroke-linejoin="round" stroke-dashoffset="" fill-rule="nonzero" marker-start="" marker-mid="" marker-end="" id="svg_22" points="306.6863257437409,248.1638984788313 306.6863257437409,248.98357056632852 306.6863257437409,249.80324265382583 306.6863257437409,249.80324265382583 " style="color: rgb(218, 3, 174);"/><polyline fill="none" stroke="#da03ae" stroke-width="3" stroke-linejoin="round" stroke-dashoffset="" fill-rule="nonzero" marker-start="" marker-mid="" marker-end="" id="svg_23" points="306.6863257437409,253.9016030913122 306.6863257437409,254.72127517880946 306.6863257437409,255.54094726630674 306.6863257437409,256.360619353804 306.6863257437409,256.360619353804 306.6863257437409,257.1802914413013 " style="color: rgb(218, 3, 174);"/><polyline fill="none" stroke="#da03ae" stroke-width="3" stroke-linejoin="round" stroke-dashoffset="" fill-rule="nonzero" marker-start="" marker-mid="" marker-end="" id="svg_24" points="306.6863257437409,262.91799605378213 306.6863257437409,262.91799605378213 306.6863257437409,263.7376681412794 306.6863257437409,264.5573402287767 306.6863257437409,264.5573402287767 306.6863257437409,265.377012316274 " style="color: rgb(218, 3, 174);"/><polyline fill="none" stroke="#da03ae" stroke-width="3" stroke-linejoin="round" stroke-dashoffset="" fill-rule="nonzero" marker-start="" marker-mid="" marker-end="" id="svg_25" points="306.6863257437409,269.4753727537603 306.6863257437409,269.4753727537603 306.6863257437409,270.2950448412576 306.6863257437409,271.1147169287549 306.6863257437409,271.1147169287549 306.6863257437409,271.93438901625217 " style="color: rgb(218, 3, 174);"/><polyline fill="none" stroke="#da03ae" stroke-width="3" stroke-linejoin="round" stroke-dashoffset="" fill-rule="nonzero" marker-start="" marker-mid="" marker-end="" id="svg_26" points="306.6863257437409,277.6720936287331 306.6863257437409,277.6720936287331 306.6863257437409,278.4917657162303 306.6863257437409,279.3114378037276 306.6863257437409,279.3114378037276 " style="color: rgb(218, 3, 174);"/><polyline fill="none" stroke="#da03ae" stroke-width="3" stroke-linejoin="round" stroke-dashoffset="" fill-rule="nonzero" marker-start="" marker-mid="" marker-end="" id="svg_27" points="306.6863257437409,285.0491424162085 306.6863257437409,285.8688145037058 306.6863257437409,285.0491424162085 307.5059978312382,285.0491424162085 308.3256699187354,285.0491424162085 308.3256699187354,285.8688145037058 307.5059978312382,285.8688145037058 307.5059978312382,285.0491424162085 307.5059978312382,284.2294703287112 307.5059978312382,284.2294703287112 307.5059978312382,283.40979824121393 308.3256699187354,283.40979824121393 308.3256699187354,282.5901261537167 308.3256699187354,282.5901261537167 308.3256699187354,283.40979824121393 309.1453420062327,283.40979824121393 309.1453420062327,284.2294703287112 309.1453420062327,284.2294703287112 309.1453420062327,285.8688145037058 308.3256699187354,285.8688145037058 308.3256699187354,286.68848659120306 308.3256699187354,286.68848659120306 307.5059978312382,286.68848659120306 307.5059978312382,285.8688145037058 307.5059978312382,285.8688145037058 306.6863257437409,285.0491424162085 306.6863257437409,284.2294703287112 306.6863257437409,283.40979824121393 306.6863257437409,282.5901261537167 306.6863257437409,282.5901261537167 307.5059978312382,282.5901261537167 308.3256699187354,282.5901261537167 308.3256699187354,282.5901261537167 309.1453420062327,283.40979824121393 309.1453420062327,284.2294703287112 309.1453420062327,285.0491424162085 308.3256699187354,285.0491424162085 308.3256699187354,285.8688145037058 308.3256699187354,285.8688145037058 307.5059978312382,285.8688145037058 306.6863257437409,285.0491424162085 306.6863257437409,284.2294703287112 306.6863257437409,284.2294703287112 305.8666536562436,282.5901261537167 306.6863257437409,282.5901261537167 306.6863257437409,281.77045406621943 307.5059978312382,281.77045406621943 307.5059978312382,282.5901261537167 308.3256699187354,282.5901261537167 308.3256699187354,282.5901261537167 309.1453420062327,284.2294703287112 309.1453420062327,284.2294703287112 309.1453420062327,285.0491424162085 309.1453420062327,285.8688145037058 308.3256699187354,286.68848659120306 308.3256699187354,287.50815867870034 307.5059978312382,287.50815867870034 307.5059978312382,286.68848659120306 306.6863257437409,286.68848659120306 306.6863257437409,285.8688145037058 306.6863257437409,285.8688145037058 306.6863257437409,284.2294703287112 306.6863257437409,284.2294703287112 306.6863257437409,283.40979824121393 307.5059978312382,283.40979824121393 308.3256699187354,283.40979824121393 308.3256699187354,283.40979824121393 309.1453420062327,284.2294703287112 309.1453420062327,284.2294703287112 309.96501409372996,285.0491424162085 309.1453420062327,285.8688145037058 309.1453420062327,285.8688145037058 308.3256699187354,286.68848659120306 308.3256699187354,287.50815867870034 307.5059978312382,287.50815867870034 306.6863257437409,287.50815867870034 306.6863257437409,286.68848659120306 306.6863257437409,285.8688145037058 306.6863257437409,285.0491424162085 306.6863257437409,284.2294703287112 306.6863257437409,283.40979824121393 306.6863257437409,282.5901261537167 307.5059978312382,282.5901261537167 308.3256699187354,282.5901261537167 308.3256699187354,283.40979824121393 308.3256699187354,284.2294703287112 308.3256699187354,285.0491424162085 308.3256699187354,285.8688145037058 308.3256699187354,285.8688145037058 307.5059978312382,285.8688145037058 306.6863257437409,285.8688145037058 306.6863257437409,285.8688145037058 306.6863257437409,285.0491424162085 306.6863257437409,284.2294703287112 306.6863257437409,283.40979824121393 306.6863257437409,282.5901261537167 306.6863257437409,282.5901261537167 306.6863257437409,282.5901261537167 307.5059978312382,282.5901261537167 308.3256699187354,282.5901261537167 308.3256699187354,282.5901261537167 308.3256699187354,283.40979824121393 308.3256699187354,284.2294703287112 308.3256699187354,284.2294703287112 308.3256699187354,285.0491424162085 307.5059978312382,285.0491424162085 306.6863257437409,284.2294703287112 306.6863257437409,284.2294703287112 306.6863257437409,283.40979824121393 306.6863257437409,282.5901261537167 307.5059978312382,282.5901261537167 307.5059978312382,282.5901261537167 308.3256699187354,282.5901261537167 308.3256699187354,282.5901261537167 308.3256699187354,283.40979824121393 308.3256699187354,284.2294703287112 308.3256699187354,284.2294703287112 308.3256699187354,283.40979824121393 307.5059978312382,283.40979824121393 307.5059978312382,282.5901261537167 306.6863257437409,281.77045406621943 " style="color: rgb(218, 3, 174);"/><polyline fill="none" stroke="#da03ae" stroke-width="3" stroke-linejoin="round" stroke-dashoffset="" fill-rule="nonzero" marker-start="" marker-mid="" marker-end="" id="svg_28" points="311.6043582687245,283.40979824121393 311.6043582687245,283.40979824121393 311.6043582687245,282.5901261537167 312.4240303562218,282.5901261537167 313.2437024437191,282.5901261537167 314.8830466187136,281.77045406621943 315.7027187062109,280.95078197872215 316.52239079370815,280.95078197872215 318.1617349687027,280.95078197872215 " style="color: rgb(218, 3, 174);"/><polyline fill="none" stroke="#da03ae" stroke-width="3" stroke-linejoin="round" stroke-dashoffset="" fill-rule="nonzero" marker-start="" marker-mid="" marker-end="" id="svg_29" points="320.6207512311945,279.3114378037276 323.8994395811836,277.6720936287331 324.71911166868085,277.6720936287331 325.53878375617813,276.8524215412358 326.3584558436754,276.0327494537385 " style="color: rgb(218, 3, 174);"/><polyline fill="none" stroke="#da03ae" stroke-width="3" stroke-linejoin="round" stroke-dashoffset="" fill-rule="nonzero" marker-start="" marker-mid="" marker-end="" id="svg_30" points="332.0961604561563,274.39340527874396 332.9158325436536,274.39340527874396 334.5551767186481,272.75406110374945 336.1945208936427,271.93438901625217 337.83386506863724,271.1147169287549 337.83386506863724,271.1147169287549 " style="color: rgb(218, 3, 174);"/><polyline fill="none" stroke="#da03ae" stroke-width="3" stroke-linejoin="round" stroke-dashoffset="" fill-rule="nonzero" marker-start="" marker-mid="" marker-end="" id="svg_31" points="343.57156968111815,269.4753727537603 344.39124176861543,268.65570066626304 345.21091385611265,268.65570066626304 346.03058594360994,267.83602857876576 347.6699301186045,267.01635649126854 347.6699301186045,266.19668440377126 " style="color: rgb(218, 3, 174);"/><polyline fill="none" stroke="#da03ae" stroke-width="3" stroke-linejoin="round" stroke-dashoffset="" fill-rule="nonzero" marker-start="" marker-mid="" marker-end="" id="svg_32" points="351.76829055609085,264.5573402287767 352.5879626435881,264.5573402287767 353.4076347310854,263.7376681412794 354.2273068185827,262.91799605378213 355.0469789060799,262.91799605378213 355.8666509935772,262.91799605378213 " style="color: rgb(218, 3, 174);"/><polyline fill="none" stroke="#da03ae" stroke-width="3" stroke-linejoin="round" stroke-dashoffset="" fill-rule="nonzero" marker-start="" marker-mid="" marker-end="" id="svg_33" points="359.9650114310636,261.2786518787876 360.7846835185608,261.2786518787876 360.7846835185608,260.45897979129035 362.4240276935554,259.63930770379307 362.4240276935554,259.63930770379307 364.06337186854995,257.9999635287985 " style="color: rgb(218, 3, 174);"/><polyline fill="none" stroke="#da03ae" stroke-width="3" stroke-linejoin="round" stroke-dashoffset="" fill-rule="nonzero" marker-start="" marker-mid="" marker-end="" id="svg_34" points="367.342060218539,255.54094726630674 368.9814043935336,254.72127517880946 369.80107648103086,254.72127517880946 370.6207485685281,253.9016030913122 370.6207485685281,253.0819310038149 372.26009274352265,253.0819310038149 373.07976483101993,253.0819310038149 373.8994369185172,252.26225891631762 375.5387810935118,251.44258682882042 375.5387810935118,251.44258682882042 " style="color: rgb(218, 3, 174);"/><polyline fill="none" stroke="#da03ae" stroke-width="3" stroke-linejoin="round" stroke-dashoffset="" fill-rule="nonzero" marker-start="" marker-mid="" marker-end="" id="svg_35" points="378.81746944350084,250.62291474132311 378.81746944350084,250.62291474132311 379.6371415309981,249.80324265382583 380.4568136184954,249.80324265382583 381.2764857059926,248.98357056632852 382.0961577934899,248.1638984788313 383.73550196848447,248.1638984788313 " style="color: rgb(218, 3, 174);"/><polyline fill="none" stroke="#da03ae" stroke-width="3" stroke-linejoin="round" stroke-dashoffset="" fill-rule="nonzero" marker-start="" marker-mid="" marker-end="" id="svg_36" points="387.8338624059708,246.52455430383674 388.6535344934681,246.52455430383674 388.6535344934681,246.52455430383674 388.6535344934681,245.7048822163395 390.29287866846266,244.8852101288422 390.29287866846266,244.8852101288422 391.11255075595994,243.2458659538476 391.93222284345717,243.2458659538476 " style="color: rgb(218, 3, 174);"/><polyline fill="none" stroke="#da03ae" stroke-width="3" stroke-linejoin="round" stroke-dashoffset="" fill-rule="nonzero" marker-start="" marker-mid="" marker-end="" id="svg_37" points="396.8502553684408,239.1475055163613 396.8502553684408,238.327833428864 397.6699274559381,238.327833428864 398.48959954343536,237.5081613413667 399.30927163093264,236.68848925386948 400.1289437184299,236.68848925386948 400.9486158059272,235.86881716637222 401.76828789342443,235.86881716637222 " style="color: rgb(218, 3, 174);"/><polyline fill="none" stroke="#da03ae" stroke-width="3" stroke-linejoin="round" stroke-dashoffset="" fill-rule="nonzero" marker-start="" marker-mid="" marker-end="" id="svg_38" points="401.76828789342443,235.04914507887491 402.5879599809217,235.04914507887491 402.5879599809217,235.04914507887491 403.407632068419,235.04914507887491 403.407632068419,234.2294729913777 405.04697624341355,233.40980090388038 405.04697624341355,232.59012881638313 " style="color: rgb(218, 3, 174);"/><polyline fill="none" stroke="#da03ae" stroke-width="3" stroke-linejoin="round" stroke-dashoffset="" fill-rule="nonzero" marker-start="" marker-mid="" marker-end="" id="svg_39" points="411.60435294339175,231.77045672888585 413.24369711838625,230.1311125538913 413.24369711838625,230.1311125538913 413.24369711838625,229.311440466394 414.06336920588353,228.49176837889675 414.8830412933808,228.49176837889675 " style="color: rgb(218, 3, 174);"/><polyline fill="none" stroke="#da03ae" stroke-width="3" stroke-linejoin="round" stroke-dashoffset="" fill-rule="nonzero" marker-start="" marker-mid="" marker-end="" id="svg_40" points="415.7027133808781,227.67209629139947 416.5223854683754,226.85242420390222 416.5223854683754,226.85242420390222 417.3420575558726,226.85242420390222 418.1617296433699,226.03275211640494 418.98140173086716,225.21308002890763 " style="color: rgb(218, 3, 174);"/><polyline fill="none" stroke="#da03ae" stroke-width="3" stroke-linejoin="round" stroke-dashoffset="" fill-rule="nonzero" marker-start="" marker-mid="" marker-end="" id="svg_41" points="422.26009008085634,222.75406376641584 423.0797621683535,221.93439167891862 423.0797621683535,221.93439167891862 " style="color: rgb(218, 3, 174);"/><polyline fill="none" stroke="#da03ae" stroke-width="3" stroke-linejoin="round" stroke-dashoffset="" fill-rule="nonzero" marker-start="" marker-mid="" marker-end="" id="svg_42" points="307.5059978312382,285.8688145037058 306.6863257437409,285.0491424162085 307.5059978312382,285.0491424162085 307.5059978312382,285.8688145037058 307.5059978312382,285.8688145037058 306.6863257437409,285.8688145037058 306.6863257437409,286.68848659120306 306.6863257437409,286.68848659120306 306.6863257437409,285.8688145037058 305.8666536562436,285.8688145037058 305.8666536562436,285.8688145037058 305.04698156874633,284.2294703287112 305.04698156874633,284.2294703287112 305.8666536562436,284.2294703287112 306.6863257437409,283.40979824121393 307.5059978312382,283.40979824121393 308.3256699187354,284.2294703287112 308.3256699187354,284.2294703287112 308.3256699187354,285.8688145037058 307.5059978312382,285.8688145037058 307.5059978312382,286.68848659120306 306.6863257437409,286.68848659120306 306.6863257437409,286.68848659120306 305.8666536562436,285.8688145037058 305.04698156874633,285.8688145037058 305.04698156874633,285.8688145037058 305.04698156874633,285.0491424162085 305.04698156874633,284.2294703287112 305.04698156874633,284.2294703287112 305.8666536562436,283.40979824121393 306.6863257437409,283.40979824121393 306.6863257437409,283.40979824121393 306.6863257437409,284.2294703287112 307.5059978312382,284.2294703287112 307.5059978312382,284.2294703287112 307.5059978312382,285.0491424162085 306.6863257437409,285.8688145037058 306.6863257437409,285.8688145037058 305.8666536562436,286.68848659120306 305.04698156874633,286.68848659120306 305.04698156874633,285.8688145037058 305.04698156874633,285.8688145037058 305.04698156874633,285.0491424162085 305.04698156874633,284.2294703287112 305.8666536562436,283.40979824121393 306.6863257437409,282.5901261537167 306.6863257437409,282.5901261537167 307.5059978312382,282.5901261537167 308.3256699187354,283.40979824121393 308.3256699187354,284.2294703287112 307.5059978312382,284.2294703287112 306.6863257437409,285.0491424162085 306.6863257437409,285.8688145037058 305.8666536562436,285.8688145037058 " style="color: rgb(218, 3, 174);"/><polyline fill="none" stroke="#da03ae" stroke-width="3" stroke-linejoin="round" stroke-dashoffset="" fill-rule="nonzero" marker-start="" marker-mid="" marker-end="" id="svg_43" points="309.96501409372996,153.901608416645 309.96501409372996,154.72128050414227 309.96501409372996,154.72128050414227 309.96501409372996,154.72128050414227 310.78468618122724,155.54095259163952 312.4240303562218,156.3606246791368 313.2437024437191,156.3606246791368 314.8830466187136,157.1802967666341 315.7027187062109,157.99996885413134 " style="color: rgb(218, 3, 174);"/><polyline fill="none" stroke="#da03ae" stroke-width="3" stroke-linejoin="round" stroke-dashoffset="" fill-rule="nonzero" marker-start="" marker-mid="" marker-end="" id="svg_44" points="318.98140705619994,159.6393130291259 319.8010791436972,160.45898511662315 320.6207512311945,161.27865720412044 321.4404233186918,161.27865720412044 323.07976749368635,161.27865720412044 323.8994395811836,162.09832929161772 " style="color: rgb(218, 3, 174);"/><polyline fill="none" stroke="#da03ae" stroke-width="3" stroke-linejoin="round" stroke-dashoffset="" fill-rule="nonzero" marker-start="" marker-mid="" marker-end="" id="svg_45" points="327.99780001867,163.73767346661225 327.99780001867,164.55734555410953 328.81747210616726,164.55734555410953 329.6371441936645,164.55734555410953 330.45681628116176,165.37701764160678 331.27648836865905,166.19668972910407 332.9158325436536,166.19668972910407 " style="color: rgb(218, 3, 174);"/><polyline fill="none" stroke="#da03ae" stroke-width="3" stroke-linejoin="round" stroke-dashoffset="" fill-rule="nonzero" marker-start="" marker-mid="" marker-end="" id="svg_46" points="336.1945208936427,170.29505016659044 336.1945208936427,171.1147222540877 337.01419298113996,171.1147222540877 337.83386506863724,171.93439434158498 338.6535371561345,172.75406642908226 339.47320924363174,172.75406642908226 340.292881331129,172.75406642908226 " style="color: rgb(218, 3, 174);"/><polyline fill="none" stroke="#da03ae" stroke-width="3" stroke-linejoin="round" stroke-dashoffset="" fill-rule="nonzero" marker-start="" marker-mid="" marker-end="" id="svg_47" points="343.57156968111815,175.21308269157407 344.39124176861543,176.03275477907133 344.39124176861543,176.03275477907133 346.03058594360994,176.03275477907133 346.03058594360994,176.03275477907133 347.6699301186045,176.03275477907133 " style="color: rgb(218, 3, 174);"/><polyline fill="none" stroke="#da03ae" stroke-width="3" stroke-linejoin="round" stroke-dashoffset="" fill-rule="nonzero" marker-start="" marker-mid="" marker-end="" id="svg_48" points="353.4076347310854,180.1311152165577 354.2273068185827,180.95078730405496 354.2273068185827,180.95078730405496 355.0469789060799,180.95078730405496 355.8666509935772,181.77045939155224 356.6863230810745,181.77045939155224 357.50599516857176,182.59013147904952 " style="color: rgb(218, 3, 174);"/><polyline fill="none" stroke="#da03ae" stroke-width="3" stroke-linejoin="round" stroke-dashoffset="" fill-rule="nonzero" marker-start="" marker-mid="" marker-end="" id="svg_49" points="361.6043556060581,184.22947565404405 362.4240276935554,185.04914774154133 362.4240276935554,185.04914774154133 363.24369978105267,185.8688198290386 364.06337186854995,185.8688198290386 364.06337186854995,185.8688198290386 " style="color: rgb(218, 3, 174);"/><polyline fill="none" stroke="#da03ae" stroke-width="3" stroke-linejoin="round" stroke-dashoffset="" fill-rule="nonzero" marker-start="" marker-mid="" marker-end="" id="svg_50" points="367.342060218539,187.50816400403315 367.342060218539,187.50816400403315 368.1617323060363,187.50816400403315 368.9814043935336,188.32783609153043 368.9814043935336,188.32783609153043 369.80107648103086,189.14750817902768 370.6207485685281,189.14750817902768 " style="color: rgb(218, 3, 174);"/><polyline fill="none" stroke="#da03ae" stroke-width="3" stroke-linejoin="round" stroke-dashoffset="" fill-rule="nonzero" marker-start="" marker-mid="" marker-end="" id="svg_51" points="374.7191090060145,191.6065244415195 375.5387810935118,192.42619652901678 375.5387810935118,192.42619652901678 376.358453181009,192.42619652901678 377.1781252685063,192.42619652901678 377.1781252685063,192.42619652901678 378.81746944350084,192.42619652901678 " style="color: rgb(218, 3, 174);"/><polyline fill="none" stroke="#da03ae" stroke-width="3" stroke-linejoin="round" stroke-dashoffset="" fill-rule="nonzero" marker-start="" marker-mid="" marker-end="" id="svg_52" points="380.4568136184954,195.70488487900587 381.2764857059926,195.70488487900587 382.0961577934899,196.52455696650313 382.9158298809872,197.3442290540004 383.73550196848447,197.3442290540004 385.37484614347903,197.3442290540004 385.37484614347903,197.3442290540004 " style="color: rgb(218, 3, 174);"/><polyline fill="none" stroke="#da03ae" stroke-width="3" stroke-linejoin="round" stroke-dashoffset="" fill-rule="nonzero" marker-start="" marker-mid="" marker-end="" id="svg_53" points="390.29287866846266,199.80324531649222 390.29287866846266,199.80324531649222 391.11255075595994,199.80324531649222 391.93222284345717,199.80324531649222 " style="color: rgb(218, 3, 174);"/><polyline fill="none" stroke="#da03ae" stroke-width="3" stroke-linejoin="round" stroke-dashoffset="" fill-rule="nonzero" marker-start="" marker-mid="" marker-end="" id="svg_54" points="396.0305832809436,202.26226157898404 396.8502553684408,202.26226157898404 396.8502553684408,202.26226157898404 397.6699274559381,202.26226157898404 " style="color: rgb(218, 3, 174);"/><polyline fill="none" stroke="#da03ae" stroke-width="3" stroke-linejoin="round" stroke-dashoffset="" fill-rule="nonzero" marker-start="" marker-mid="" marker-end="" id="svg_55" points="403.407632068419,205.54094992897313 403.407632068419,205.54094992897313 403.407632068419,206.36062201647042 404.2273041559163,206.36062201647042 405.04697624341355,206.36062201647042 405.86664833091083,206.36062201647042 406.6863204184081,207.18029410396767 406.6863204184081,207.18029410396767 408.3256645934026,207.18029410396767 408.3256645934026,207.18029410396767 409.9650087683972,207.99996619146495 409.9650087683972,207.99996619146495 410.78468085589446,207.99996619146495 411.60435294339175,208.81963827896223 411.60435294339175,208.81963827896223 412.42402503088897,208.81963827896223 " style="color: rgb(218, 3, 174);"/><polyline fill="none" stroke="#da03ae" stroke-width="3" stroke-linejoin="round" stroke-dashoffset="" fill-rule="nonzero" marker-start="" marker-mid="" marker-end="" id="svg_56" points="414.06336920588353,209.63931036645948 414.8830412933808,210.45898245395676 415.7027133808781,210.45898245395676 416.5223854683754,210.45898245395676 416.5223854683754,210.45898245395676 417.3420575558726,210.45898245395676 418.1617296433699,210.45898245395676 " style="color: rgb(218, 3, 174);"/><polyline fill="none" stroke="#da03ae" stroke-width="3" stroke-linejoin="round" stroke-dashoffset="" fill-rule="nonzero" marker-start="" marker-mid="" marker-end="" id="svg_57" points="420.6207459058617,212.09832662895133 421.44041799335906,212.91799871644855 422.26009008085634,212.91799871644855 423.0797621683535,213.73767080394586 424.71910634334813,213.73767080394586 424.71910634334813,213.73767080394586 " style="color: rgb(218, 3, 174);"/><polyline fill="none" stroke="#da03ae" stroke-width="3" stroke-linejoin="round" stroke-dashoffset="" fill-rule="nonzero" marker-start="" marker-mid="" marker-end="" id="svg_58" points="306.6863257437409,176.03275477907133 306.6863257437409,176.8524268665686 307.5059978312382,176.8524268665686 308.3256699187354,176.8524268665686 309.1453420062327,177.6720989540659 309.96501409372996,177.6720989540659 311.6043582687245,177.6720989540659 313.2437024437191,176.8524268665686 314.8830466187136,176.03275477907133 316.52239079370815,175.21308269157407 318.1617349687027,174.3934106040768 320.6207512311945,172.75406642908226 322.26009540618907,171.1147222540877 323.8994395811836,169.47537807909316 324.71911166868085,167.83603390409863 325.53878375617813,167.83603390409863 326.3584558436754,166.19668972910407 " style="color: rgb(218, 3, 174);"/><polyline fill="none" stroke="#da03ae" stroke-width="3" stroke-linejoin="round" stroke-dashoffset="" fill-rule="nonzero" marker-start="" marker-mid="" marker-end="" id="svg_59" points="309.1453420062327,261.2786518787876 308.3256699187354,261.2786518787876 309.1453420062327,261.2786518787876 309.96501409372996,261.2786518787876 311.6043582687245,261.2786518787876 313.2437024437191,261.2786518787876 314.8830466187136,261.2786518787876 315.7027187062109,261.2786518787876 318.1617349687027,261.2786518787876 319.8010791436972,261.2786518787876 321.4404233186918,262.0983239662849 323.07976749368635,262.91799605378213 324.71911166868085,264.5573402287767 325.53878375617813,266.19668440377126 327.1781279311727,267.83602857876576 327.99780001867,269.4753727537603 327.99780001867,271.1147169287549 328.81747210616726,273.5737331912467 329.6371441936645,274.39340527874396 329.6371441936645,275.21307736624124 329.6371441936645,276.0327494537385 " style="color: rgb(218, 3, 174);"/><polyline fill="none" stroke="#da03ae" stroke-width="3" stroke-linejoin="round" stroke-dashoffset="" fill-rule="nonzero" marker-start="" marker-mid="" marker-end="" id="svg_60" points="400.9486158059272,207.99996619146495 400.1289437184299,208.81963827896223 400.1289437184299,208.81963827896223 400.1289437184299,209.63931036645948 398.48959954343536,210.45898245395676 398.48959954343536,212.09832662895133 397.6699274559381,213.73767080394586 396.8502553684408,216.1966870664377 396.8502553684408,217.83603124143224 396.0305832809436,220.29504750392402 396.0305832809436,223.5737358539131 396.0305832809436,225.21308002890763 396.8502553684408,226.85242420390222 396.8502553684408,228.49176837889675 397.6699274559381,229.311440466394 398.48959954343536,230.1311125538913 398.48959954343536,230.95078464138854 399.30927163093264,230.95078464138854 400.1289437184299,231.77045672888585 " style="color: rgb(218, 3, 174);"/><polyline fill="none" stroke="#da03ae" stroke-width="3" stroke-linejoin="round" stroke-dashoffset="" fill-rule="nonzero" marker-start="" marker-mid="" marker-end="" id="svg_61" points="434.55517139331533,203.08193366648132 433.73549930581805,203.08193366648132 434.55517139331533,203.08193366648132 435.3748434808127,202.26226157898404 437.0141876558071,201.44258949148679 437.83385974330446,200.6229174039895 438.6535318308016,198.98357322899497 439.4732039182989,198.1639011414977 439.4732039182989,197.3442290540004 440.29287600579624,196.52455696650313 440.29287600579624,197.3442290540004 440.29287600579624,197.3442290540004 440.29287600579624,198.98357322899497 440.29287600579624,200.6229174039895 440.29287600579624,202.26226157898404 440.29287600579624,204.72127784147585 441.1125480932935,207.18029410396767 441.1125480932935,207.99996619146495 441.1125480932935,208.81963827896223 441.9322201807908,209.63931036645948 442.7518922682881,210.45898245395676 " style="color: rgb(218, 3, 174);"/><polyline fill="none" stroke="#da03ae" stroke-width="3" stroke-linejoin="round" stroke-dashoffset="" fill-rule="nonzero" marker-start="" marker-mid="" marker-end="" id="svg_62" points="303.40763739375177,149.80324797915864 302.58796530625455,149.80324797915864 301.76829321875726,149.80324797915864 301.76829321875726,149.80324797915864 302.58796530625455,148.98357589166136 302.58796530625455,148.16390380416408 303.40763739375177,148.16390380416408 303.40763739375177,148.16390380416408 303.40763739375177,148.98357589166136 303.40763739375177,149.80324797915864 303.40763739375177,149.80324797915864 303.40763739375177,149.80324797915864 303.40763739375177,150.6229200666559 302.58796530625455,149.80324797915864 301.76829321875726,149.80324797915864 301.76829321875726,148.98357589166136 301.76829321875726,148.16390380416408 302.58796530625455,148.16390380416408 302.58796530625455,148.16390380416408 303.40763739375177,148.16390380416408 303.40763739375177,148.16390380416408 304.22730948124905,148.16390380416408 304.22730948124905,148.98357589166136 305.04698156874633,149.80324797915864 305.04698156874633,149.80324797915864 305.04698156874633,150.6229200666559 305.04698156874633,151.44259215415317 304.22730948124905,151.44259215415317 303.40763739375177,151.44259215415317 303.40763739375177,151.44259215415317 303.40763739375177,151.44259215415317 302.58796530625455,150.6229200666559 302.58796530625455,149.80324797915864 302.58796530625455,149.80324797915864 303.40763739375177,148.98357589166136 303.40763739375177,148.98357589166136 304.22730948124905,148.98357589166136 305.04698156874633,148.98357589166136 305.04698156874633,149.80324797915864 305.8666536562436,149.80324797915864 305.8666536562436,150.6229200666559 305.8666536562436,151.44259215415317 305.04698156874633,151.44259215415317 305.04698156874633,152.26226424165046 303.40763739375177,153.0819363291477 303.40763739375177,153.0819363291477 303.40763739375177,152.26226424165046 302.58796530625455,152.26226424165046 302.58796530625455,151.44259215415317 302.58796530625455,150.6229200666559 302.58796530625455,149.80324797915864 303.40763739375177,149.80324797915864 303.40763739375177,149.80324797915864 304.22730948124905,149.80324797915864 305.04698156874633,149.80324797915864 305.04698156874633,149.80324797915864 " style="color: rgb(218, 3, 174);"/><polyline fill="none" stroke="#da03ae" stroke-width="3" stroke-linejoin="round" stroke-dashoffset="" fill-rule="nonzero" marker-start="" marker-mid="" marker-end="" id="svg_63" points="305.04698156874633,285.8688145037058 305.04698156874633,285.8688145037058 305.04698156874633,285.8688145037058 305.04698156874633,285.0491424162085 305.04698156874633,284.2294703287112 305.8666536562436,284.2294703287112 306.6863257437409,284.2294703287112 306.6863257437409,284.2294703287112 306.6863257437409,285.0491424162085 306.6863257437409,285.8688145037058 306.6863257437409,285.8688145037058 306.6863257437409,286.68848659120306 305.8666536562436,286.68848659120306 305.04698156874633,286.68848659120306 305.04698156874633,285.8688145037058 305.04698156874633,285.8688145037058 305.04698156874633,285.0491424162085 305.04698156874633,284.2294703287112 305.04698156874633,284.2294703287112 305.04698156874633,284.2294703287112 305.8666536562436,284.2294703287112 306.6863257437409,284.2294703287112 306.6863257437409,284.2294703287112 307.5059978312382,284.2294703287112 308.3256699187354,285.0491424162085 308.3256699187354,285.8688145037058 308.3256699187354,285.8688145037058 307.5059978312382,287.50815867870034 306.6863257437409,287.50815867870034 306.6863257437409,287.50815867870034 305.8666536562436,287.50815867870034 305.8666536562436,287.50815867870034 305.04698156874633,287.50815867870034 305.04698156874633,286.68848659120306 304.22730948124905,285.8688145037058 304.22730948124905,285.8688145037058 304.22730948124905,285.0491424162085 305.04698156874633,284.2294703287112 305.04698156874633,284.2294703287112 305.8666536562436,284.2294703287112 306.6863257437409,284.2294703287112 306.6863257437409,284.2294703287112 307.5059978312382,284.2294703287112 307.5059978312382,285.0491424162085 308.3256699187354,285.8688145037058 308.3256699187354,285.8688145037058 308.3256699187354,286.68848659120306 307.5059978312382,287.50815867870034 306.6863257437409,287.50815867870034 306.6863257437409,287.50815867870034 305.8666536562436,287.50815867870034 305.04698156874633,287.50815867870034 305.04698156874633,286.68848659120306 305.04698156874633,285.8688145037058 305.04698156874633,285.0491424162085 305.04698156874633,284.2294703287112 305.8666536562436,284.2294703287112 306.6863257437409,283.40979824121393 306.6863257437409,283.40979824121393 307.5059978312382,284.2294703287112 308.3256699187354,284.2294703287112 308.3256699187354,285.0491424162085 308.3256699187354,285.8688145037058 307.5059978312382,285.8688145037058 " style="color: rgb(218, 3, 174);"/><polyline fill="none" stroke="#da03ae" stroke-width="3" stroke-linejoin="round" stroke-dashoffset="" fill-rule="nonzero" marker-start="" marker-mid="" marker-end="" id="svg_64" points="303.40763739375177,148.98357589166136 303.40763739375177,148.16390380416408 303.40763739375177,148.16390380416408 304.22730948124905,148.16390380416408 304.22730948124905,148.98357589166136 305.04698156874633,149.80324797915864 305.04698156874633,150.6229200666559 304.22730948124905,151.44259215415317 303.40763739375177,151.44259215415317 303.40763739375177,152.26226424165046 302.58796530625455,152.26226424165046 301.76829321875726,151.44259215415317 300.94862113126,151.44259215415317 300.94862113126,150.6229200666559 300.94862113126,149.80324797915864 301.76829321875726,148.98357589166136 301.76829321875726,148.16390380416408 302.58796530625455,147.3442317166668 303.40763739375177,147.3442317166668 303.40763739375177,147.3442317166668 303.40763739375177,148.16390380416408 305.04698156874633,148.16390380416408 305.04698156874633,148.98357589166136 305.04698156874633,149.80324797915864 305.04698156874633,150.6229200666559 304.22730948124905,151.44259215415317 303.40763739375177,151.44259215415317 302.58796530625455,151.44259215415317 301.76829321875726,151.44259215415317 300.94862113126,151.44259215415317 300.94862113126,150.6229200666559 300.94862113126,149.80324797915864 301.76829321875726,149.80324797915864 301.76829321875726,148.98357589166136 301.76829321875726,148.16390380416408 303.40763739375177,148.16390380416408 304.22730948124905,148.16390380416408 305.04698156874633,148.98357589166136 305.8666536562436,149.80324797915864 306.6863257437409,149.80324797915864 306.6863257437409,150.6229200666559 306.6863257437409,151.44259215415317 306.6863257437409,151.44259215415317 305.04698156874633,153.0819363291477 304.22730948124905,153.0819363291477 303.40763739375177,153.0819363291477 302.58796530625455,153.0819363291477 301.76829321875726,153.0819363291477 301.76829321875726,152.26226424165046 301.76829321875726,151.44259215415317 301.76829321875726,150.6229200666559 302.58796530625455,149.80324797915864 303.40763739375177,148.98357589166136 304.22730948124905,148.16390380416408 305.04698156874633,148.16390380416408 305.8666536562436,148.16390380416408 306.6863257437409,148.16390380416408 306.6863257437409,149.80324797915864 306.6863257437409,150.6229200666559 306.6863257437409,151.44259215415317 306.6863257437409,152.26226424165046 305.04698156874633,153.0819363291477 304.22730948124905,153.901608416645 303.40763739375177,153.901608416645 302.58796530625455,153.901608416645 301.76829321875726,153.0819363291477 301.76829321875726,151.44259215415317 301.76829321875726,151.44259215415317 302.58796530625455,149.80324797915864 303.40763739375177,148.16390380416408 304.22730948124905,148.16390380416408 305.04698156874633,147.3442317166668 306.6863257437409,147.3442317166668 306.6863257437409,148.16390380416408 308.3256699187354,148.16390380416408 308.3256699187354,148.98357589166136 309.1453420062327,149.80324797915864 309.1453420062327,150.6229200666559 308.3256699187354,151.44259215415317 306.6863257437409,152.26226424165046 306.6863257437409,153.0819363291477 305.04698156874633,153.0819363291477 305.04698156874633,153.0819363291477 304.22730948124905,152.26226424165046 303.40763739375177,151.44259215415317 303.40763739375177,150.6229200666559 304.22730948124905,149.80324797915864 305.04698156874633,148.98357589166136 305.04698156874633,148.16390380416408 305.8666536562436,148.16390380416408 306.6863257437409,148.16390380416408 306.6863257437409,148.16390380416408 307.5059978312382,148.98357589166136 308.3256699187354,149.80324797915864 308.3256699187354,150.6229200666559 307.5059978312382,151.44259215415317 306.6863257437409,152.26226424165046 306.6863257437409,152.26226424165046 305.8666536562436,152.26226424165046 305.04698156874633,152.26226424165046 305.04698156874633,151.44259215415317 " style="color: rgb(218, 3, 174);"/><polyline fill="none" stroke="#da03ae" stroke-width="3" stroke-linejoin="round" stroke-dashoffset="" fill-rule="nonzero" marker-start="" marker-mid="" marker-end="" id="svg_65" points="306.6863257437409,287.50815867870034 306.6863257437409,287.50815867870034 306.6863257437409,287.50815867870034 306.6863257437409,286.68848659120306 307.5059978312382,285.8688145037058 308.3256699187354,285.8688145037058 308.3256699187354,285.8688145037058 308.3256699187354,287.50815867870034 308.3256699187354,287.50815867870034 308.3256699187354,288.3278307661976 307.5059978312382,288.3278307661976 306.6863257437409,288.3278307661976 306.6863257437409,288.3278307661976 305.8666536562436,287.50815867870034 305.04698156874633,286.68848659120306 305.04698156874633,285.8688145037058 305.04698156874633,285.0491424162085 305.04698156874633,284.2294703287112 305.8666536562436,284.2294703287112 306.6863257437409,284.2294703287112 307.5059978312382,284.2294703287112 308.3256699187354,285.0491424162085 308.3256699187354,285.8688145037058 308.3256699187354,286.68848659120306 308.3256699187354,287.50815867870034 308.3256699187354,288.3278307661976 306.6863257437409,289.14750285369485 306.6863257437409,289.14750285369485 305.04698156874633,289.14750285369485 305.04698156874633,289.14750285369485 304.22730948124905,288.3278307661976 304.22730948124905,287.50815867870034 304.22730948124905,285.8688145037058 304.22730948124905,285.8688145037058 305.04698156874633,284.2294703287112 305.8666536562436,284.2294703287112 306.6863257437409,284.2294703287112 307.5059978312382,284.2294703287112 308.3256699187354,284.2294703287112 309.1453420062327,285.0491424162085 309.96501409372996,285.8688145037058 309.96501409372996,287.50815867870034 309.1453420062327,287.50815867870034 308.3256699187354,288.3278307661976 307.5059978312382,289.14750285369485 306.6863257437409,289.14750285369485 306.6863257437409,288.3278307661976 305.8666536562436,287.50815867870034 305.04698156874633,286.68848659120306 305.04698156874633,285.8688145037058 305.04698156874633,284.2294703287112 305.8666536562436,283.40979824121393 306.6863257437409,282.5901261537167 306.6863257437409,282.5901261537167 308.3256699187354,282.5901261537167 308.3256699187354,282.5901261537167 309.1453420062327,284.2294703287112 309.1453420062327,284.2294703287112 309.1453420062327,285.8688145037058 309.1453420062327,286.68848659120306 308.3256699187354,287.50815867870034 307.5059978312382,287.50815867870034 305.8666536562436,287.50815867870034 305.04698156874633,287.50815867870034 304.22730948124905,287.50815867870034 303.40763739375177,286.68848659120306 303.40763739375177,285.8688145037058 303.40763739375177,285.0491424162085 303.40763739375177,283.40979824121393 304.22730948124905,282.5901261537167 305.04698156874633,282.5901261537167 305.8666536562436,281.77045406621943 307.5059978312382,282.5901261537167 308.3256699187354,282.5901261537167 309.1453420062327,282.5901261537167 309.96501409372996,284.2294703287112 309.96501409372996,284.2294703287112 309.96501409372996,285.8688145037058 309.1453420062327,285.8688145037058 308.3256699187354,287.50815867870034 307.5059978312382,287.50815867870034 306.6863257437409,287.50815867870034 305.8666536562436,286.68848659120306 305.04698156874633,285.8688145037058 305.04698156874633,285.0491424162085 305.04698156874633,284.2294703287112 305.8666536562436,283.40979824121393 306.6863257437409,283.40979824121393 307.5059978312382,283.40979824121393 308.3256699187354,283.40979824121393 309.1453420062327,284.2294703287112 309.96501409372996,284.2294703287112 309.1453420062327,285.8688145037058 308.3256699187354,285.8688145037058 307.5059978312382,285.8688145037058 306.6863257437409,285.8688145037058 " style="color: rgb(218, 3, 174);"/><polyline fill="none" stroke="#da03ae" stroke-width="3" stroke-linejoin="round" stroke-dashoffset="" fill-rule="nonzero" marker-start="" marker-mid="" marker-end="" id="svg_66" points="424.71910634334813,217.83603124143224 424.71910634334813,217.01635915393493 424.71910634334813,217.01635915393493 425.5387784308453,216.1966870664377 426.35845051834264,215.3770149789404 426.35845051834264,215.3770149789404 427.1781226058399,215.3770149789404 427.9977946933371,215.3770149789404 427.9977946933371,215.3770149789404 427.9977946933371,217.01635915393493 427.1781226058399,217.83603124143224 426.35845051834264,218.6557033289295 426.35845051834264,219.47537541642677 425.5387784308453,220.29504750392402 424.71910634334813,220.29504750392402 424.71910634334813,219.47537541642677 423.89943425585085,218.6557033289295 423.89943425585085,217.01635915393493 423.89943425585085,216.1966870664377 424.71910634334813,215.3770149789404 424.71910634334813,214.55734289144314 426.35845051834264,213.73767080394586 426.35845051834264,213.73767080394586 427.1781226058399,214.55734289144314 427.9977946933371,215.3770149789404 428.8174667808344,217.01635915393493 428.8174667808344,217.83603124143224 429.6371388683317,218.6557033289295 428.8174667808344,219.47537541642677 427.9977946933371,220.29504750392402 427.1781226058399,220.29504750392402 426.35845051834264,220.29504750392402 426.35845051834264,219.47537541642677 425.5387784308453,218.6557033289295 425.5387784308453,217.01635915393493 426.35845051834264,216.1966870664377 426.35845051834264,215.3770149789404 426.35845051834264,214.55734289144314 427.1781226058399,213.73767080394586 427.9977946933371,213.73767080394586 428.8174667808344,213.73767080394586 429.6371388683317,213.73767080394586 429.6371388683317,215.3770149789404 429.6371388683317,216.1966870664377 429.6371388683317,217.83603124143224 429.6371388683317,218.6557033289295 427.9977946933371,219.47537541642677 427.9977946933371,220.29504750392402 427.1781226058399,220.29504750392402 426.35845051834264,220.29504750392402 425.5387784308453,219.47537541642677 424.71910634334813,218.6557033289295 424.71910634334813,217.01635915393493 424.71910634334813,216.1966870664377 425.5387784308453,215.3770149789404 426.35845051834264,214.55734289144314 427.1781226058399,213.73767080394586 427.9977946933371,212.91799871644855 428.8174667808344,212.91799871644855 429.6371388683317,213.73767080394586 430.456810955829,214.55734289144314 430.456810955829,215.3770149789404 431.27648304332627,216.1966870664377 430.456810955829,217.83603124143224 430.456810955829,218.6557033289295 429.6371388683317,218.6557033289295 427.9977946933371,218.6557033289295 427.9977946933371,218.6557033289295 426.35845051834264,218.6557033289295 426.35845051834264,217.83603124143224 425.5387784308453,217.01635915393493 425.5387784308453,217.01635915393493 425.5387784308453,216.1966870664377 426.35845051834264,215.3770149789404 426.35845051834264,215.3770149789404 427.1781226058399,215.3770149789404 427.9977946933371,215.3770149789404 " style="color: rgb(218, 3, 174);"/><polyline fill="none" stroke="#0404b8" stroke-width="3" stroke-linejoin="round" stroke-dashoffset="" fill-rule="nonzero" marker-start="" marker-mid="" marker-end="" id="svg_67" points="327.99780001867,233.40980090388038 327.99780001867,234.2294729913777 327.99780001867,235.04914507887491 327.99780001867,235.04914507887491 327.99780001867,235.86881716637222 327.99780001867,236.68848925386948 327.99780001867,236.68848925386948 328.81747210616726,237.5081613413667 329.6371441936645,238.327833428864 329.6371441936645,238.327833428864 329.6371441936645,239.1475055163613 331.27648836865905,239.1475055163613 331.27648836865905,239.1475055163613 332.0961604561563,239.1475055163613 332.0961604561563,239.9671776038586 332.9158325436536,239.9671776038586 333.7355046311509,239.9671776038586 334.5551767186481,239.1475055163613 335.3748488061454,238.327833428864 336.1945208936427,237.5081613413667 337.01419298113996,236.68848925386948 337.01419298113996,236.68848925386948 337.01419298113996,235.86881716637222 337.01419298113996,235.04914507887491 337.83386506863724,235.04914507887491 337.83386506863724,234.2294729913777 337.83386506863724,233.40980090388038 337.83386506863724,231.77045672888585 337.83386506863724,231.77045672888585 337.83386506863724,230.1311125538913 337.01419298113996,230.1311125538913 336.1945208936427,229.311440466394 336.1945208936427,228.49176837889675 335.3748488061454,228.49176837889675 334.5551767186481,228.49176837889675 333.7355046311509,228.49176837889675 332.9158325436536,228.49176837889675 332.9158325436536,227.67209629139947 331.27648836865905,227.67209629139947 331.27648836865905,227.67209629139947 329.6371441936645,227.67209629139947 328.81747210616726,227.67209629139947 327.99780001867,227.67209629139947 327.99780001867,228.49176837889675 327.99780001867,228.49176837889675 327.99780001867,229.311440466394 327.1781279311727,230.1311125538913 327.1781279311727,231.77045672888585 327.1781279311727,233.40980090388038 327.1781279311727,233.40980090388038 327.1781279311727,235.04914507887491 " style="color: rgb(218, 3, 174);"/></g></svg>