<svg xmlns="http://www.w3.org/2000/svg" xmlns:se="http://svg-edit.googlecode.com" xmlns:xlink="http://www.w3.org/1999/xlink" xmlns:dc="http://purl.org/dc/elements/1.1/" xmlns:cc="http://creativecommons.org/ns#" xmlns:rdf="http://www.w3.org/1999/02/22-rdf-syntax-ns#" xmlns:inkscape="http://www.inkscape.org/namespaces/inkscape" width="777" height="480">
                                    <title>my vector image</title>
                                    <!-- Created with Vector Paint - http://www.vectorpaint.yaks.com/ https://chrome.google.com/webstore/detail/hnbpdiengicdefcjecjbnjnoifekhgdo -->
                                    <rect id="backgroundrect" width="100%" height="100%" x="0" y="0" fill="#FFFFFF" stroke="none"/>
                                <g style="" class="currentLayer"><title>Layer 1</title><polyline fill="none" stroke="#0404b8" stroke-width="3" stroke-linejoin="round" stroke-dashoffset="" fill-rule="nonzero" marker-start="" marker-mid="" marker-end="" id="svg_1" points="332.9158325436536,65.37702296693959 332.9158325436536,66.19669505443687 332.9158325436536,67.01636714193414 332.9158325436536,68.65571131692869 332.9158325436536,70.29505549192322 332.9158325436536,72.75407175441504 332.9158325436536,76.03276010440413 332.0961604561563,80.1311205418905 332.0961604561563,82.59013680438231 332.0961604561563,86.68849724186867 332.0961604561563,89.14751350436049 332.9158325436536,93.24587394184685 332.9158325436536,97.34423437933322 332.9158325436536,100.6229227293223 332.9158325436536,103.90161107931138 332.9158325436536,107.18029942930048 332.9158325436536,109.63931569179229 333.7355046311509,112.0983319542841 333.7355046311509,114.5573482167759 333.7355046311509,117.83603656676502 333.7355046311509,120.29505282925682 332.9158325436536,123.57374117924593 332.9158325436536,126.03275744173774 332.9158325436536,127.67210161673228 332.9158325436536,130.1311178792241 332.9158325436536,133.4098062292132 332.9158325436536,135.04915040420772 332.9158325436536,137.50816666669954 332.9158325436536,139.96718292919135 332.9158325436536,143.24587127918045 332.9158325436536,145.70488754167226 332.9158325436536,148.16390380416408 332.9158325436536,151.44259215415317 332.9158325436536,153.901608416645 333.7355046311509,156.3606246791368 333.7355046311509,157.99996885413134 333.7355046311509,160.45898511662315 333.7355046311509,162.91800137911497 333.7355046311509,164.55734555410953 334.5551767186481,167.83603390409863 334.5551767186481,170.29505016659044 334.5551767186481,172.75406642908226 334.5551767186481,174.3934106040768 334.5551767186481,177.6720989540659 334.5551767186481,179.31144312906042 334.5551767186481,182.59013147904952 334.5551767186481,184.22947565404405 334.5551767186481,187.50816400403315 334.5551767186481,189.96718026652496 334.5551767186481,192.42619652901678 334.5551767186481,194.8852127915086 335.3748488061454,197.3442290540004 335.3748488061454,198.98357322899497 335.3748488061454,202.26226157898404 335.3748488061454,203.9016057539786 336.1945208936427,206.36062201647042 336.1945208936427,208.81963827896223 336.1945208936427,211.27865454145402 336.1945208936427,214.55734289144314 336.1945208936427,216.1966870664377 336.1945208936427,219.47537541642677 337.01419298113996,221.93439167891862 337.01419298113996,225.21308002890763 337.83386506863724,227.67209629139947 337.83386506863724,230.1311125538913 337.83386506863724,232.59012881638313 337.83386506863724,235.04914507887491 338.6535371561345,236.68848925386948 338.6535371561345,239.9671776038586 338.6535371561345,243.2458659538476 338.6535371561345,244.8852101288422 338.6535371561345,247.344226391334 338.6535371561345,249.80324265382583 338.6535371561345,252.26225891631762 338.6535371561345,254.72127517880946 338.6535371561345,257.1802914413013 338.6535371561345,259.63930770379307 338.6535371561345,262.0983239662849 338.6535371561345,264.5573402287767 338.6535371561345,267.01635649126854 339.47320924363174,270.2950448412576 339.47320924363174,272.75406110374945 339.47320924363174,276.0327494537385 339.47320924363174,278.4917657162303 339.47320924363174,280.95078197872215 340.292881331129,283.40979824121393 340.292881331129,286.68848659120306 340.292881331129,289.14750285369485 340.292881331129,291.6065191161867 340.292881331129,294.0655353786785 340.292881331129,296.5245516411703 341.1125534186263,298.9835679036621 341.1125534186263,300.62291207865667 341.1125534186263,303.0819283411485 341.1125534186263,305.5409446036403 341.1125534186263,307.18028877863486 341.1125534186263,309.63930504112665 341.1125534186263,311.2786492161212 341.1125534186263,313.73766547861305 341.1125534186263,316.19668174110484 341.1125534186263,317.8360259160994 341.1125534186263,320.2950421785912 341.9322255061236,322.75405844108303 341.9322255061236,325.2130747035748 341.9322255061236,326.8524188785694 341.9322255061236,329.3114351410612 341.9322255061236,331.770451403553 341.1125534186263,333.4097955785476 341.1125534186263,335.86881184103936 341.1125534186263,337.5081560160339 341.1125534186263,338.3278281035312 " style="color: rgb(218, 3, 174);"/><polyline fill="none" stroke="#0404b8" stroke-width="3" stroke-linejoin="round" stroke-dashoffset="" fill-rule="nonzero" marker-start="" marker-mid="" marker-end="" id="svg_2" points="332.9158325436536,67.01636714193414 331.27648836865905,69.47538340442595 331.27648836865905,71.1147275794205 330.45681628116176,73.57374384191232 328.81747210616726,76.8524321919014 327.99780001867,79.31144845439322 327.1781279311727,80.1311205418905 326.3584558436754,80.95079262938776 326.3584558436754,80.1311205418905 325.53878375617813,79.31144845439322 325.53878375617813,76.03276010440413 326.3584558436754,71.93439966691777 326.3584558436754,69.47538340442595 327.1781279311727,66.19669505443687 327.99780001867,64.55735087944232 329.6371441936645,64.55735087944232 331.27648836865905,64.55735087944232 333.7355046311509,65.37702296693959 337.01419298113996,67.01636714193414 340.292881331129,69.47538340442595 342.75189759362087,70.29505549192322 344.39124176861543,71.1147275794205 346.03058594360994,72.75407175441504 " style="color: rgb(218, 3, 174);"/><polyline fill="none" stroke="#0404b8" stroke-width="3" stroke-linejoin="round" stroke-dashoffset="" fill-rule="nonzero" marker-start="" marker-mid="" marker-end="" id="svg_3" points="282.09616311882274,57.99997417946414 282.09616311882274,57.99997417946414 281.27649103132546,57.99997417946414 281.27649103132546,57.18030209196688 282.09616311882274,57.18030209196688 282.91583520631997,56.3606300044696 285.3748514688118,56.3606300044696 288.6535398188009,57.18030209196688 291.93222816879,57.99997417946414 295.2109165187791,57.99997417946414 296.85026069377363,57.99997417946414 297.6699327812709,57.99997417946414 298.48960486876814,57.99997417946414 296.85026069377363,57.99997417946414 296.03058860627635,57.99997417946414 293.5715723437845,58.81964626696141 291.93222816879,59.639318354458695 289.47321190629816,61.278662529453236 287.0141956438064,62.91800670444777 287.0141956438064,64.55735087944232 286.1945235563091,66.19669505443687 286.1945235563091,67.8360392294314 287.0141956438064,70.29505549192322 287.0141956438064,71.93439966691777 286.1945235563091,72.75407175441504 285.3748514688118,74.39341592940958 284.55517938131453,74.39341592940958 283.73550729381725,74.39341592940958 282.09616311882274,73.57374384191232 281.27649103132546,72.75407175441504 280.4568189438282,72.75407175441504 281.27649103132546,72.75407175441504 282.09616311882274,73.57374384191232 282.91583520631997,73.57374384191232 283.73550729381725,74.39341592940958 286.1945235563091,74.39341592940958 288.6535398188009,74.39341592940958 290.29288399379544,73.57374384191232 291.93222816879,72.75407175441504 293.5715723437845,72.75407175441504 " style="color: rgb(218, 3, 174);"/><polyline fill="none" stroke="#0404b8" stroke-width="3" stroke-linejoin="round" stroke-dashoffset="" fill-rule="nonzero" marker-start="" marker-mid="" marker-end="" id="svg_4" points="298.48960486876814,65.37702296693959 298.48960486876814,65.37702296693959 299.3092769562654,66.19669505443687 300.1289490437627,67.01636714193414 300.94862113126,67.8360392294314 301.76829321875726,69.47538340442595 302.58796530625455,71.1147275794205 302.58796530625455,71.1147275794205 302.58796530625455,71.93439966691777 301.76829321875726,71.1147275794205 300.94862113126,70.29505549192322 300.1289490437627,68.65571131692869 300.1289490437627,67.01636714193414 300.94862113126,65.37702296693959 301.76829321875726,64.55735087944232 301.76829321875726,64.55735087944232 303.40763739375177,65.37702296693959 304.22730948124905,66.19669505443687 305.8666536562436,67.8360392294314 306.6863257437409,68.65571131692869 306.6863257437409,69.47538340442595 307.5059978312382,69.47538340442595 308.3256699187354,69.47538340442595 308.3256699187354,67.8360392294314 309.1453420062327,66.19669505443687 309.96501409372996,64.55735087944232 310.78468618122724,62.91800670444777 310.78468618122724,62.91800670444777 311.6043582687245,62.91800670444777 312.4240303562218,62.91800670444777 313.2437024437191,64.55735087944232 313.2437024437191,67.8360392294314 313.2437024437191,70.29505549192322 314.0633745312163,73.57374384191232 314.8830466187136,75.21308801690687 " style="color: rgb(218, 3, 174);"/><polyline fill="none" stroke="#0404b8" stroke-width="3" stroke-linejoin="round" stroke-dashoffset="" fill-rule="nonzero" marker-start="" marker-mid="" marker-end="" id="svg_5" points="155.04698955674553,278.4917657162303 154.22731746924825,278.4917657162303 155.04698955674553,278.4917657162303 155.8666616442428,278.4917657162303 157.50600581923734,279.3114378037276 160.78469416922644,279.3114378037276 164.06338251921554,279.3114378037276 167.3420708692046,279.3114378037276 172.26010339418826,279.3114378037276 177.1781359191719,280.13110989122487 182.09616844415552,280.13110989122487 187.01420096913915,280.13110989122487 193.57157766911732,280.13110989122487 200.12895436909548,280.13110989122487 205.0469868940791,280.13110989122487 213.24370776905187,279.3114378037276 220.62075655652725,279.3114378037276 228.81747743150007,279.3114378037276 235.3748541314782,279.3114378037276 243.5715750064509,279.3114378037276 250.12895170642912,279.3114378037276 258.3256725814018,279.3114378037276 266.5223934563746,279.3114378037276 272.2600980688554,279.3114378037276 279.6371468563309,280.13110989122487 285.3748514688118,280.13110989122487 292.75190025628723,280.13110989122487 300.1289490437627,280.13110989122487 305.8666536562436,280.13110989122487 313.2437024437191,280.13110989122487 318.98140705619994,279.3114378037276 326.3584558436754,279.3114378037276 332.9158325436536,279.3114378037276 339.47320924363174,279.3114378037276 344.39124176861543,278.4917657162303 350.94861846859357,278.4917657162303 355.8666509935772,278.4917657162303 362.4240276935554,277.6720936287331 366.52238813104174,277.6720936287331 372.26009274352265,277.6720936287331 378.81746944350084,277.6720936287331 382.9158298809872,276.8524215412358 388.6535344934681,276.8524215412358 393.57156701845173,276.0327494537385 397.6699274559381,276.0327494537385 403.407632068419,276.0327494537385 406.6863204184081,276.0327494537385 411.60435294339175,276.0327494537385 417.3420575558726,276.0327494537385 420.6207459058617,276.0327494537385 425.5387784308453,276.0327494537385 430.456810955829,276.0327494537385 433.73549930581805,276.0327494537385 438.6535318308016,276.0327494537385 441.9322201807908,276.0327494537385 446.03058061827716,275.21307736624124 449.3092689682663,275.21307736624124 454.22730149324985,274.39340527874396 459.1453340182335,274.39340527874396 461.60435028072527,274.39340527874396 465.7027107182117,274.39340527874396 468.98139906820086,274.39340527874396 472.2600874181898,273.5737331912467 475.5387757681789,273.5737331912467 477.1781199431735,273.5737331912467 480.4568082931627,272.75406110374945 483.73549664315163,272.75406110374945 485.37484081814625,272.75406110374945 487.83385708063804,272.75406110374945 489.4732012556325,272.75406110374945 490.2928733431299,272.75406110374945 491.9322175181245,271.93438901625217 492.75188960562167,271.93438901625217 493.5715616931189,271.93438901625217 494.3912337806163,271.93438901625217 495.21090586811346,271.93438901625217 495.21090586811346,271.93438901625217 496.8502500431081,271.93438901625217 498.4895942181026,271.93438901625217 500.12893839309714,271.1147169287549 501.7682825680917,271.1147169287549 504.2272988305835,271.1147169287549 507.5059871805726,271.1147169287549 509.9650034430644,271.1147169287549 513.2436917930534,271.1147169287549 516.5223801430425,271.1147169287549 519.8010684930316,270.2950448412576 523.0797568430207,270.2950448412576 524.7191010180152,270.2950448412576 527.9977893680043,270.2950448412576 530.4568056304961,270.2950448412576 532.0961498054907,270.2950448412576 534.5551660679824,270.2950448412576 537.0141823304743,271.1147169287549 538.6535265054689,271.1147169287549 540.2928706804634,271.1147169287549 542.7518869429553,271.1147169287549 544.3912311179497,271.1147169287549 546.0305752929443,271.1147169287549 546.8502473804416,271.1147169287549 547.6699194679388,271.1147169287549 548.4895915554362,271.1147169287549 548.4895915554362,270.2950448412576 547.6699194679388,270.2950448412576 547.6699194679388,269.4753727537603 546.0305752929443,269.4753727537603 546.0305752929443,269.4753727537603 544.3912311179497,267.83602857876576 542.7518869429553,267.01635649126854 541.1125427679607,266.19668440377126 540.2928706804634,265.377012316274 539.4731985929661,265.377012316274 541.1125427679607,265.377012316274 541.9322148554579,266.19668440377126 544.3912311179497,266.19668440377126 546.0305752929443,267.01635649126854 548.4895915554362,267.01635649126854 549.3092636429334,267.83602857876576 549.3092636429334,267.83602857876576 549.3092636429334,269.4753727537603 547.6699194679388,271.1147169287549 546.8502473804416,272.75406110374945 545.210903205447,273.5737331912467 542.7518869429553,274.39340527874396 540.2928706804634,276.0327494537385 539.4731985929661,276.0327494537385 " style="color: rgb(218, 3, 174);" class=""/><polyline fill="none" stroke="#0404b8" stroke-width="3" stroke-linejoin="round" stroke-dashoffset="" fill-rule="nonzero" marker-start="" marker-mid="" marker-end="" points="155.0469970703125,278.49176025390625 154.22731018066406,278.49176025390625 155.0469970703125,278.49176025390625 155.86666870117188,278.49176025390625 157.50601196289062,279.3114318847656 160.78469848632812,279.3114318847656 164.06338500976562,279.3114318847656 167.34207153320312,279.3114318847656 172.26010131835938,279.3114318847656 177.17813110351562,280.131103515625 182.09616088867188,280.131103515625 187.0142059326172,280.131103515625 193.5715789794922,280.131103515625 200.1289520263672,280.131103515625 205.04698181152344,280.131103515625 213.24371337890625,279.3114318847656 220.62075805664062,279.3114318847656 228.81747436523438,279.3114318847656 235.37484741210938,279.3114318847656 243.5715789794922,279.3114318847656 250.1289520263672,279.3114318847656 258.32568359375,279.3114318847656 266.52239990234375,279.3114318847656 272.2601013183594,279.3114318847656 279.63714599609375,280.131103515625 285.3748474121094,280.131103515625 292.75189208984375,280.131103515625 300.1289367675781,280.131103515625 305.8666687011719,280.131103515625 313.24371337890625,280.131103515625 318.9814147949219,279.3114318847656 326.35845947265625,279.3114318847656 332.91583251953125,279.3114318847656 339.47320556640625,279.3114318847656 344.3912353515625,278.49176025390625 350.9486083984375,278.49176025390625 355.86663818359375,278.49176025390625 362.4240417480469,277.6720886230469 366.52239990234375,277.6720886230469 372.2601013183594,277.6720886230469 378.8174743652344,277.6720886230469 382.91583251953125,276.8524169921875 388.6535339355469,276.8524169921875 393.5715637207031,276.0327453613281 397.669921875,276.0327453613281 403.4076232910156,276.0327453613281 406.6863098144531,276.0327453613281 411.6043395996094,276.0327453613281 417.3420715332031,276.0327453613281 420.6207580566406,276.0327453613281 425.5387878417969,276.0327453613281 430.4568176269531,276.0327453613281 433.7355041503906,276.0327453613281 438.6535339355469,276.0327453613281 441.9322204589844,276.0327453613281 446.03057861328125,275.21307373046875 449.30926513671875,275.21307373046875 454.227294921875,274.3934020996094 459.14532470703125,274.3934020996094 461.6043395996094,274.3934020996094 465.70269775390625,274.3934020996094 468.98138427734375,274.3934020996094 472.2601013183594,273.57373046875 475.5387878417969,273.57373046875 477.1781311035156,273.57373046875 480.4568176269531,272.7540588378906 483.7355041503906,272.7540588378906 485.3748474121094,272.7540588378906 487.8338623046875,272.7540588378906 489.47320556640625,272.7540588378906 490.2928771972656,272.7540588378906 491.9322204589844,271.93438720703125 492.75189208984375,271.93438720703125 493.5715637207031,271.93438720703125 494.3912353515625,271.93438720703125 495.2109069824219,271.93438720703125 495.2109069824219,271.93438720703125 496.8502502441406,271.93438720703125 498.4895935058594,271.93438720703125 500.1289367675781,271.1147155761719 501.7682800292969,271.1147155761719 504.227294921875,271.1147155761719 507.5059814453125,271.1147155761719 509.9649963378906,271.1147155761719 513.2437133789062,271.1147155761719 516.5223999023438,271.1147155761719 519.8010864257812,270.2950439453125 523.0797729492188,270.2950439453125 524.7191162109375,270.2950439453125 527.997802734375,270.2950439453125 530.456787109375,270.2950439453125 532.0961303710938,270.2950439453125 534.55517578125,270.2950439453125 537.01416015625,271.1147155761719 538.6535034179688,271.1147155761719 540.2928466796875,271.1147155761719 542.7518920898438,271.1147155761719 544.3912353515625,271.1147155761719 546.0305786132812,271.1147155761719 546.8502197265625,271.1147155761719 547.669921875,271.1147155761719 548.4895629882812,271.1147155761719 548.4895629882812,270.2950439453125 547.669921875,270.2950439453125 547.669921875,269.4753723144531 546.0305786132812,269.4753723144531 546.0305786132812,269.4753723144531 544.3912353515625,267.8360290527344 542.7518920898438,267.016357421875 541.112548828125,266.1966857910156 540.2928466796875,265.37701416015625 539.4732055664062,265.37701416015625 541.112548828125,265.37701416015625 541.9321899414062,266.1966857910156 544.3912353515625,266.1966857910156 546.0305786132812,267.016357421875 548.4895629882812,267.016357421875 549.3092651367188,267.8360290527344 549.3092651367188,267.8360290527344 549.3092651367188,269.4753723144531 547.669921875,271.1147155761719 546.8502197265625,272.7540588378906 545.2108764648438,273.57373046875 542.7518920898438,274.3934020996094 540.2928466796875,276.0327453613281 539.4732055664062,276.0327453613281 " style="color: rgb(218, 3, 174);" class="" id="svg_20"/><polyline fill="none" stroke="#0404b8" stroke-width="3" stroke-linejoin="round" stroke-dashoffset="" fill-rule="nonzero" marker-start="" marker-mid="" marker-end="" points="194.39125061035156,307.1802978515625 193.5715789794922,307.1802978515625 195.21092224121094,307.1802978515625 196.8502655029297,307.1802978515625 198.48960876464844,307.1802978515625 200.1289520263672,307.1802978515625 201.76829528808594,307.1802978515625 203.4076385498047,307.1802978515625 205.04698181152344,307.1802978515625 205.04698181152344,307.1802978515625 " style="color: rgb(218, 3, 174);" class="" id="svg_22"/><polyline fill="none" stroke="#0404b8" stroke-width="3" stroke-linejoin="round" stroke-dashoffset="" fill-rule="nonzero" marker-start="" marker-mid="" marker-end="" points="209.96502685546875,301.4425964355469 209.96502685546875,300.6229248046875 210.78469848632812,300.6229248046875 210.78469848632812,300.6229248046875 211.6043701171875,301.4425964355469 211.6043701171875,303.0819396972656 211.6043701171875,305.54095458984375 211.6043701171875,307.1802978515625 212.42404174804688,310.458984375 212.42404174804688,312.09832763671875 212.42404174804688,313.7376708984375 212.42404174804688,313.7376708984375 " style="color: rgb(218, 3, 174);" class="" id="svg_23"/><polyline fill="none" stroke="#0404b8" stroke-width="3" stroke-linejoin="round" stroke-dashoffset="" fill-rule="nonzero" marker-start="" marker-mid="" marker-end="" id="svg_6" points="559.1453286929006,286.68848659120306 559.1453286929006,289.14750285369485 559.9650007803979,290.7868470286894 559.9650007803979,293.24586329118125 560.7846728678952,296.5245516411703 561.6043449553924,297.3442237286676 562.4240170428898,300.62291207865667 562.4240170428898,301.44258416615395 563.243689130387,302.26225625365123 562.4240170428898,302.26225625365123 562.4240170428898,301.44258416615395 560.7846728678952,300.62291207865667 559.9650007803979,298.9835679036621 559.1453286929006,296.5245516411703 559.1453286929006,294.0655353786785 559.1453286929006,290.7868470286894 559.9650007803979,287.50815867870034 560.7846728678952,285.8688145037058 561.6043449553924,284.2294703287112 563.243689130387,282.5901261537167 565.7027053928788,280.95078197872215 566.5223774803761,280.95078197872215 568.9813937428679,280.95078197872215 570.6207379178625,280.95078197872215 570.6207379178625,280.95078197872215 572.260082092857,282.5901261537167 572.260082092857,282.5901261537167 571.4404100053597,284.2294703287112 570.6207379178625,285.8688145037058 567.3420495678733,287.50815867870034 564.8830333053816,289.9671749411921 563.243689130387,290.7868470286894 561.6043449553924,291.6065191161867 560.7846728678952,292.42619120368397 561.6043449553924,292.42619120368397 562.4240170428898,292.42619120368397 564.0633612178843,294.0655353786785 565.7027053928788,294.88520746617576 568.9813937428679,295.70487955367304 571.4404100053597,297.3442237286676 573.0797541803543,298.1638958161649 575.538770442846,298.9835679036621 575.538770442846,298.9835679036621 576.3584425303434,298.9835679036621 " style="color: rgb(218, 3, 174);"/><polyline fill="none" stroke="#0404b8" stroke-width="3" stroke-linejoin="round" stroke-dashoffset="" fill-rule="nonzero" marker-start="" marker-mid="" marker-end="" id="svg_7" points="582.0961471428243,294.88520746617576 582.9158192303215,294.0655353786785 584.5551634053161,293.24586329118125 585.3748354928134,292.42619120368397 587.0141796678079,290.7868470286894 587.0141796678079,289.14750285369485 587.0141796678079,288.3278307661976 586.1945075803106,287.50815867870034 584.5551634053161,287.50815867870034 582.0961471428243,287.50815867870034 580.4568029678297,288.3278307661976 578.8174587928352,289.9671749411921 578.8174587928352,291.6065191161867 578.8174587928352,294.0655353786785 579.6371308803325,295.70487955367304 581.276475055327,297.3442237286676 583.7354913178189,298.9835679036621 587.0141796678079,299.8032399911594 590.292868017797,299.8032399911594 593.5715563677861,298.9835679036621 595.2109005427807,297.3442237286676 595.2109005427807,297.3442237286676 " style="color: rgb(218, 3, 174);"/><polyline fill="none" stroke="#0404b8" stroke-width="3" stroke-linejoin="round" stroke-dashoffset="" fill-rule="nonzero" marker-start="" marker-mid="" marker-end="" id="svg_8" points="328.81747210616726,148.16390380416408 327.99780001867,147.3442317166668 327.99780001867,147.3442317166668 327.1781279311727,147.3442317166668 327.99780001867,147.3442317166668 327.99780001867,147.3442317166668 329.6371441936645,147.3442317166668 331.27648836865905,146.52455962916954 333.7355046311509,146.52455962916954 336.1945208936427,146.52455962916954 338.6535371561345,145.70488754167226 341.1125534186263,146.52455962916954 341.1125534186263,146.52455962916954 " style="color: rgb(218, 3, 174);"/><polyline fill="none" stroke="#0404b8" stroke-width="3" stroke-linejoin="round" stroke-dashoffset="" fill-rule="nonzero" marker-start="" marker-mid="" marker-end="" id="svg_9" points="309.1453420062327,144.88521545417498 309.1453420062327,144.88521545417498 309.1453420062327,145.70488754167226 309.96501409372996,147.3442317166668 309.96501409372996,149.80324797915864 309.96501409372996,152.26226424165046 310.78468618122724,154.72128050414227 310.78468618122724,156.3606246791368 310.78468618122724,157.1802967666341 309.96501409372996,157.1802967666341 " style="color: rgb(218, 3, 174);"/><polyline fill="none" stroke="#0404b8" stroke-width="3" stroke-linejoin="round" stroke-dashoffset="" fill-rule="nonzero" marker-start="" marker-mid="" marker-end="" id="svg_10" points="307.5059978312382,131.77046205421863 307.5059978312382,131.77046205421863 308.3256699187354,131.77046205421863 308.3256699187354,131.77046205421863 307.5059978312382,132.5901341417159 306.6863257437409,133.4098062292132 305.8666536562436,133.4098062292132 305.04698156874633,132.5901341417159 305.04698156874633,131.77046205421863 304.22730948124905,131.77046205421863 305.04698156874633,130.95078996672137 305.04698156874633,130.1311178792241 305.8666536562436,130.1311178792241 306.6863257437409,130.1311178792241 306.6863257437409,130.95078996672137 306.6863257437409,131.77046205421863 306.6863257437409,132.5901341417159 306.6863257437409,133.4098062292132 305.8666536562436,133.4098062292132 305.04698156874633,133.4098062292132 305.04698156874633,132.5901341417159 305.04698156874633,131.77046205421863 305.04698156874633,131.77046205421863 " style="color: rgb(218, 3, 174);"/><polyline fill="none" stroke="#0404b8" stroke-width="3" stroke-linejoin="round" stroke-dashoffset="" fill-rule="nonzero" marker-start="" marker-mid="" marker-end="" id="svg_11" points="463.2436944557199,267.83602857876576 463.2436944557199,268.65570066626304 463.2436944557199,269.4753727537603 463.2436944557199,271.1147169287549 464.06336654321706,271.93438901625217 464.06336654321706,274.39340527874396 464.88303863071445,275.21307736624124 464.88303863071445,276.8524215412358 464.88303863071445,279.3114378037276 464.88303863071445,280.13110989122487 464.88303863071445,280.95078197872215 464.88303863071445,281.77045406621943 " style="color: rgb(218, 3, 174);"/><polyline fill="none" stroke="#0404b8" stroke-width="3" stroke-linejoin="round" stroke-dashoffset="" fill-rule="nonzero" marker-start="" marker-mid="" marker-end="" id="svg_12" points="460.7846781932281,302.26225625365123 460.7846781932281,302.26225625365123 459.9650061057308,302.26225625365123 459.9650061057308,303.0819283411485 460.7846781932281,302.26225625365123 460.7846781932281,302.26225625365123 460.7846781932281,302.26225625365123 461.60435028072527,301.44258416615395 462.4240223682226,300.62291207865667 464.06336654321706,298.9835679036621 464.06336654321706,297.3442237286676 464.88303863071445,295.70487955367304 465.7027107182117,295.70487955367304 465.7027107182117,294.88520746617576 465.7027107182117,294.88520746617576 465.7027107182117,295.70487955367304 466.52238280570884,296.5245516411703 466.52238280570884,298.1638958161649 467.34205489320624,300.62291207865667 467.34205489320624,303.0819283411485 467.34205489320624,305.5409446036403 468.16172698070346,307.18028877863486 468.16172698070346,308.8196329536294 468.16172698070346,310.4589771286239 468.98139906820086,311.2786492161212 " style="color: rgb(218, 3, 174);"/><polyline fill="none" stroke="#0404b8" stroke-width="3" stroke-linejoin="round" stroke-dashoffset="" fill-rule="nonzero" marker-start="" marker-mid="" marker-end="" id="svg_13" points="209.14534044265747,275.21307373046875 208.3256688117981,275.21307373046875 208.3256688117981,274.3934020996094 208.3256688117981,275.21307373046875 208.3256688117981,276.0327453613281 209.14534044265747,276.8524169921875 209.14534044265747,277.6720886230469 209.14534044265747,280.131103515625 209.14534044265747,281.77044677734375 209.96501207351685,284.2294616699219 209.96501207351685,285.8688049316406 210.78468370437622,287.5081481933594 210.78468370437622,289.1474914550781 " style="color: rgb(218, 3, 174);" class=""/><polyline fill="none" stroke="#0404b8" stroke-width="3" stroke-linejoin="round" stroke-dashoffset="" fill-rule="nonzero" marker-start="" marker-mid="" marker-end="" id="svg_14" points="194.39124975661457,307.18028877863486 193.57157766911732,307.18028877863486 195.21092184411185,307.18028877863486 196.8502660191064,307.18028877863486 198.48961019410098,307.18028877863486 200.12895436909548,307.18028877863486 201.76829854409004,307.18028877863486 203.4076427190846,307.18028877863486 205.0469868940791,307.18028877863486 205.0469868940791,307.18028877863486 " style="color: rgb(218, 3, 174);" class=""/><polyline fill="none" stroke="#0404b8" stroke-width="3" stroke-linejoin="round" stroke-dashoffset="" fill-rule="nonzero" marker-start="" marker-mid="" marker-end="" id="svg_15" points="209.96501941906274,301.44258416615395 209.96501941906274,300.62291207865667 210.78469150656002,300.62291207865667 210.78469150656002,300.62291207865667 211.6043635940573,301.44258416615395 211.6043635940573,303.0819283411485 211.6043635940573,305.5409446036403 211.6043635940573,307.18028877863486 212.4240356815546,310.4589771286239 212.4240356815546,312.0983213036185 212.4240356815546,313.73766547861305 212.4240356815546,313.73766547861305 " style="color: rgb(218, 3, 174);" class=""/><polyline fill="none" stroke="#da03ae" stroke-width="3" stroke-linejoin="round" stroke-dashoffset="" fill-rule="nonzero" marker-start="" marker-mid="" marker-end="" id="svg_16" points="336.1945208936427,149.80324797915864 336.1945208936427,149.80324797915864 336.1945208936427,149.80324797915864 336.1945208936427,148.98357589166136 336.1945208936427,149.80324797915864 336.1945208936427,149.80324797915864 336.1945208936427,151.44259215415317 336.1945208936427,152.26226424165046 336.1945208936427,153.0819363291477 336.1945208936427,154.72128050414227 336.1945208936427,156.3606246791368 337.01419298113996,157.99996885413134 337.01419298113996,160.45898511662315 337.83386506863724,162.91800137911497 337.83386506863724,164.55734555410953 337.83386506863724,166.19668972910407 337.83386506863724,169.47537807909316 337.83386506863724,171.1147222540877 337.83386506863724,174.3934106040768 338.6535371561345,176.8524268665686 338.6535371561345,178.49177104156314 338.6535371561345,180.95078730405496 338.6535371561345,182.59013147904952 339.47320924363174,185.04914774154133 339.47320924363174,187.50816400403315 339.47320924363174,189.14750817902768 339.47320924363174,191.6065244415195 339.47320924363174,194.0655407040113 339.47320924363174,195.70488487900587 339.47320924363174,198.1639011414977 340.292881331129,200.6229174039895 340.292881331129,202.26226157898404 340.292881331129,203.9016057539786 341.1125534186263,205.54094992897313 341.1125534186263,207.99996619146495 341.1125534186263,208.81963827896223 341.1125534186263,211.27865454145402 341.1125534186263,212.09832662895133 341.1125534186263,214.55734289144314 341.1125534186263,216.1966870664377 341.1125534186263,217.01635915393493 341.1125534186263,219.47537541642677 341.9322255061236,221.1147195914213 341.9322255061236,221.93439167891862 341.9322255061236,223.5737358539131 341.9322255061236,225.21308002890763 341.9322255061236,226.85242420390222 341.9322255061236,228.49176837889675 341.9322255061236,229.311440466394 342.75189759362087,230.95078464138854 342.75189759362087,231.77045672888585 342.75189759362087,233.40980090388038 342.75189759362087,235.04914507887491 342.75189759362087,236.68848925386948 342.75189759362087,238.327833428864 342.75189759362087,239.1475055163613 342.75189759362087,239.9671776038586 342.75189759362087,241.60652177885314 342.75189759362087,243.2458659538476 342.75189759362087,244.8852101288422 342.75189759362087,246.52455430383674 342.75189759362087,247.344226391334 342.75189759362087,248.1638984788313 342.75189759362087,249.80324265382583 342.75189759362087,251.44258682882042 342.75189759362087,252.26225891631762 342.75189759362087,253.9016030913122 342.75189759362087,254.72127517880946 342.75189759362087,256.360619353804 343.57156968111815,257.9999635287985 343.57156968111815,258.8196356162958 343.57156968111815,259.63930770379307 343.57156968111815,261.2786518787876 343.57156968111815,262.91799605378213 343.57156968111815,263.7376681412794 342.75189759362087,264.5573402287767 342.75189759362087,266.19668440377126 342.75189759362087,267.01635649126854 343.57156968111815,268.65570066626304 343.57156968111815,269.4753727537603 343.57156968111815,270.2950448412576 343.57156968111815,271.1147169287549 343.57156968111815,272.75406110374945 343.57156968111815,272.75406110374945 344.39124176861543,273.5737331912467 344.39124176861543,274.39340527874396 344.39124176861543,274.39340527874396 344.39124176861543,275.21307736624124 " style="color: rgb(218, 3, 174);"/><polyline fill="none" stroke="#da03ae" stroke-width="3" stroke-linejoin="round" stroke-dashoffset="" fill-rule="nonzero" marker-start="" marker-mid="" marker-end="" id="svg_17" points="335.3748488061454,149.80324797915864 335.3748488061454,150.6229200666559 335.3748488061454,151.44259215415317 334.5551767186481,152.26226424165046 334.5551767186481,154.72128050414227 334.5551767186481,156.3606246791368 332.9158325436536,159.6393130291259 332.9158325436536,161.27865720412044 332.9158325436536,162.91800137911497 332.0961604561563,164.55734555410953 332.0961604561563,164.55734555410953 332.0961604561563,164.55734555410953 332.0961604561563,163.73767346661225 332.0961604561563,162.09832929161772 332.0961604561563,159.6393130291259 332.9158325436536,157.99996885413134 332.9158325436536,154.72128050414227 332.9158325436536,153.0819363291477 333.7355046311509,151.44259215415317 334.5551767186481,149.80324797915864 334.5551767186481,148.98357589166136 334.5551767186481,148.98357589166136 335.3748488061454,149.80324797915864 336.1945208936427,150.6229200666559 337.83386506863724,152.26226424165046 338.6535371561345,153.901608416645 340.292881331129,155.54095259163952 341.9322255061236,157.99996885413134 342.75189759362087,159.6393130291259 344.39124176861543,162.09832929161772 344.39124176861543,164.55734555410953 344.39124176861543,164.55734555410953 " style="color: rgb(218, 3, 174);"/><polyline fill="none" stroke="#da03ae" stroke-width="3" stroke-linejoin="round" stroke-dashoffset="" fill-rule="nonzero" marker-start="" marker-mid="" marker-end="" id="svg_18" points="346.8502580311072,235.86881716637222 347.6699301186045,235.86881716637222 347.6699301186045,235.86881716637222 349.30927429359906,235.86881716637222 350.94861846859357,236.68848925386948 352.5879626435881,236.68848925386948 354.2273068185827,236.68848925386948 355.8666509935772,238.327833428864 357.50599516857176,238.327833428864 359.1453393435663,239.9671776038586 360.7846835185608,239.9671776038586 362.4240276935554,241.60652177885314 363.24369978105267,243.2458659538476 364.06337186854995,244.06553804134492 365.70271604354446,244.8852101288422 367.342060218539,247.344226391334 368.9814043935336,248.1638984788313 368.9814043935336,249.80324265382583 370.6207485685281,252.26225891631762 371.44042065602537,253.9016030913122 371.44042065602537,255.54094726630674 372.26009274352265,257.9999635287985 373.07976483101993,259.63930770379307 373.07976483101993,261.2786518787876 373.8994369185172,262.91799605378213 373.8994369185172,264.5573402287767 373.8994369185172,266.19668440377126 373.8994369185172,267.83602857876576 373.8994369185172,269.4753727537603 373.8994369185172,271.1147169287549 374.7191090060145,272.75406110374945 374.7191090060145,272.75406110374945 374.7191090060145,273.5737331912467 374.7191090060145,272.75406110374945 " style="color: rgb(218, 3, 174);"/><polyline fill="none" stroke="#da03ae" stroke-width="3" stroke-linejoin="round" stroke-dashoffset="" fill-rule="nonzero" marker-start="" marker-mid="" marker-end="" id="svg_19" points="350.94861846859357,236.68848925386948 350.94861846859357,237.5081613413667 351.76829055609085,237.5081613413667 352.5879626435881,239.1475055163613 353.4076347310854,240.78684969135583 354.2273068185827,241.60652177885314 355.0469789060799,243.2458659538476 355.8666509935772,244.06553804134492 355.8666509935772,244.06553804134492 355.8666509935772,244.06553804134492 355.0469789060799,244.06553804134492 355.0469789060799,243.2458659538476 354.2273068185827,243.2458659538476 353.4076347310854,241.60652177885314 351.76829055609085,239.9671776038586 350.94861846859357,238.327833428864 349.30927429359906,237.5081613413667 349.30927429359906,236.68848925386948 348.4896022061018,235.86881716637222 347.6699301186045,235.04914507887491 348.4896022061018,235.04914507887491 349.30927429359906,235.04914507887491 350.94861846859357,235.04914507887491 352.5879626435881,235.04914507887491 355.0469789060799,235.04914507887491 357.50599516857176,234.2294729913777 359.1453393435663,233.40980090388038 360.7846835185608,232.59012881638313 " style="color: rgb(218, 3, 174);"/><polyline fill="none" stroke="#0404b8" stroke-width="3" stroke-linejoin="round" stroke-dashoffset="" fill-rule="nonzero" marker-start="" marker-mid="" marker-end="" id="svg_24" points="205.8666589815764,286.68848659120306 205.8666589815764,286.68848659120306 " style="color: rgb(218, 3, 174);"/><polyline fill="none" stroke="#da03ae" stroke-width="3" stroke-linejoin="round" stroke-dashoffset="" fill-rule="nonzero" marker-start="" marker-mid="" marker-end="" id="svg_21" points="213.24370776905187,274.39340527874396 213.24370776905187,274.39340527874396 214.06337985654915,274.39340527874396 214.88305194404643,274.39340527874396 216.52239611904093,274.39340527874396 217.34206820653822,274.39340527874396 218.16174029403547,274.39340527874396 219.80108446903006,274.39340527874396 221.44042864402456,274.39340527874396 223.07977281901913,274.39340527874396 224.7191169940137,274.39340527874396 225.53878908151094,274.39340527874396 226.35846116900817,274.39340527874396 227.99780534400276,274.39340527874396 228.81747743150007,274.39340527874396 229.6371495189973,274.39340527874396 231.27649369399185,274.39340527874396 232.09616578148908,274.39340527874396 232.9158378689864,274.39340527874396 234.55518204398098,274.39340527874396 235.3748541314782,274.39340527874396 236.19452621897545,274.39340527874396 237.83387039397,274.39340527874396 240.2928866564619,274.39340527874396 241.11255874395908,274.39340527874396 242.75190291895368,274.39340527874396 244.3912470939482,274.39340527874396 246.0305912689428,274.39340527874396 246.85026335644,274.39340527874396 248.4896075314346,274.39340527874396 250.12895170642912,274.39340527874396 251.76829588142363,274.39340527874396 252.5879679689209,274.39340527874396 254.22731214391544,274.39340527874396 255.86665631891003,274.39340527874396 257.50600049390454,274.39340527874396 259.1453446688991,274.39340527874396 260.78468884389366,274.39340527874396 263.24370510638545,274.39340527874396 264.06337719388273,274.39340527874396 266.5223934563746,274.39340527874396 268.1617376313691,274.39340527874396 268.98140971886636,274.39340527874396 270.6207538938609,274.39340527874396 272.2600980688554,274.39340527874396 273.89944224385,274.39340527874396 275.53878641884455,274.39340527874396 276.35845850634183,274.39340527874396 277.99780268133634,274.39340527874396 278.8174747688336,274.39340527874396 280.4568189438282,274.39340527874396 282.09616311882274,275.21307736624124 282.91583520631997,275.21307736624124 283.73550729381725,275.21307736624124 285.3748514688118,275.21307736624124 287.0141956438064,275.21307736624124 288.6535398188009,275.21307736624124 289.47321190629816,275.21307736624124 290.29288399379544,275.21307736624124 291.93222816879,275.21307736624124 293.5715723437845,275.21307736624124 295.2109165187791,275.21307736624124 295.2109165187791,275.21307736624124 296.85026069377363,275.21307736624124 298.48960486876814,275.21307736624124 300.1289490437627,275.21307736624124 300.94862113126,275.21307736624124 302.58796530625455,275.21307736624124 303.40763739375177,275.21307736624124 305.04698156874633,275.21307736624124 305.8666536562436,275.21307736624124 307.5059978312382,274.39340527874396 308.3256699187354,274.39340527874396 309.96501409372996,274.39340527874396 311.6043582687245,274.39340527874396 312.4240303562218,274.39340527874396 314.8830466187136,274.39340527874396 315.7027187062109,274.39340527874396 317.34206288120544,274.39340527874396 318.98140705619994,274.39340527874396 319.8010791436972,274.39340527874396 321.4404233186918,274.39340527874396 323.07976749368635,273.5737331912467 323.8994395811836,273.5737331912467 324.71911166868085,273.5737331912467 326.3584558436754,273.5737331912467 327.1781279311727,273.5737331912467 327.99780001867,273.5737331912467 329.6371441936645,273.5737331912467 330.45681628116176,273.5737331912467 331.27648836865905,273.5737331912467 332.0961604561563,273.5737331912467 332.9158325436536,273.5737331912467 332.9158325436536,273.5737331912467 334.5551767186481,273.5737331912467 334.5551767186481,273.5737331912467 335.3748488061454,273.5737331912467 336.1945208936427,273.5737331912467 337.01419298113996,273.5737331912467 337.83386506863724,272.75406110374945 338.6535371561345,272.75406110374945 339.47320924363174,272.75406110374945 339.47320924363174,272.75406110374945 341.1125534186263,273.5737331912467 341.1125534186263,273.5737331912467 341.9322255061236,273.5737331912467 342.75189759362087,273.5737331912467 342.75189759362087,274.39340527874396 " style="color: rgb(218, 3, 174);"/><polyline fill="none" stroke="#da03ae" stroke-width="3" stroke-linejoin="round" stroke-dashoffset="" fill-rule="nonzero" marker-start="" marker-mid="" marker-end="" id="svg_25" points="212.4240356815546,276.0327494537385 211.6043635940573,276.0327494537385 212.4240356815546,276.0327494537385 213.24370776905187,276.0327494537385 213.24370776905187,276.0327494537385 214.88305194404643,277.6720936287331 217.34206820653822,278.4917657162303 218.98141238153278,279.3114378037276 221.44042864402456,280.95078197872215 223.07977281901913,281.77045406621943 223.89944490651638,282.5901261537167 224.7191169940137,282.5901261537167 224.7191169940137,282.5901261537167 224.7191169940137,281.77045406621943 223.89944490651638,281.77045406621943 223.07977281901913,280.95078197872215 221.44042864402456,280.13110989122487 219.80108446903006,279.3114378037276 218.16174029403547,278.4917657162303 215.70272403154365,277.6720936287331 214.06337985654915,277.6720936287331 211.6043635940573,276.8524215412358 210.78469150656002,276.8524215412358 209.96501941906274,276.0327494537385 209.14534733156552,276.0327494537385 209.14534733156552,275.21307736624124 209.14534733156552,274.39340527874396 209.14534733156552,274.39340527874396 209.96501941906274,274.39340527874396 210.78469150656002,273.5737331912467 212.4240356815546,272.75406110374945 214.88305194404643,271.1147169287549 217.34206820653822,270.2950448412576 221.44042864402456,268.65570066626304 223.89944490651638,267.83602857876576 225.53878908151094,267.01635649126854 226.35846116900817,266.19668440377126 " style="color: rgb(218, 3, 174);"/><polyline fill="none" stroke="#da03ae" stroke-width="3" stroke-linejoin="round" stroke-dashoffset="" fill-rule="nonzero" marker-start="" marker-mid="" marker-end="" id="svg_26" points="305.8666536562436,270.2950448412576 305.04698156874633,269.4753727537603 305.04698156874633,269.4753727537603 305.04698156874633,268.65570066626304 305.04698156874633,267.83602857876576 305.04698156874633,267.83602857876576 305.04698156874633,267.01635649126854 305.04698156874633,266.19668440377126 305.8666536562436,264.5573402287767 305.8666536562436,262.91799605378213 306.6863257437409,261.2786518787876 307.5059978312382,259.63930770379307 308.3256699187354,257.1802914413013 309.96501409372996,254.72127517880946 309.96501409372996,253.0819310038149 311.6043582687245,251.44258682882042 313.2437024437191,249.80324265382583 314.0633745312163,248.1638984788313 314.8830466187136,246.52455430383674 316.52239079370815,244.8852101288422 318.1617349687027,244.06553804134492 318.98140705619994,242.4261938663504 319.8010791436972,241.60652177885314 321.4404233186918,240.78684969135583 323.07976749368635,239.9671776038586 323.8994395811836,239.1475055163613 324.71911166868085,239.1475055163613 326.3584558436754,238.327833428864 327.99780001867,237.5081613413667 328.81747210616726,237.5081613413667 329.6371441936645,236.68848925386948 331.27648836865905,236.68848925386948 332.0961604561563,236.68848925386948 332.9158325436536,236.68848925386948 334.5551767186481,235.86881716637222 336.1945208936427,235.86881716637222 336.1945208936427,235.86881716637222 337.83386506863724,235.86881716637222 338.6535371561345,235.86881716637222 339.47320924363174,236.68848925386948 339.47320924363174,236.68848925386948 341.1125534186263,236.68848925386948 " style="color: rgb(218, 3, 174);"/><polyline fill="none" stroke="#da03ae" stroke-width="3" stroke-linejoin="round" stroke-dashoffset="" fill-rule="nonzero" marker-start="" marker-mid="" marker-end="" id="svg_27" points="303.40763739375177,267.83602857876576 303.40763739375177,267.83602857876576 303.40763739375177,267.01635649126854 303.40763739375177,266.19668440377126 303.40763739375177,265.377012316274 303.40763739375177,264.5573402287767 302.58796530625455,262.91799605378213 301.76829321875726,261.2786518787876 301.76829321875726,259.63930770379307 301.76829321875726,258.8196356162958 300.94862113126,258.8196356162958 300.94862113126,257.9999635287985 301.76829321875726,257.9999635287985 301.76829321875726,258.8196356162958 301.76829321875726,259.63930770379307 301.76829321875726,261.2786518787876 301.76829321875726,262.91799605378213 301.76829321875726,264.5573402287767 302.58796530625455,266.19668440377126 302.58796530625455,267.83602857876576 302.58796530625455,268.65570066626304 302.58796530625455,269.4753727537603 302.58796530625455,270.2950448412576 303.40763739375177,271.1147169287549 303.40763739375177,271.1147169287549 303.40763739375177,271.1147169287549 303.40763739375177,271.1147169287549 304.22730948124905,270.2950448412576 305.04698156874633,269.4753727537603 306.6863257437409,267.83602857876576 308.3256699187354,266.19668440377126 309.1453420062327,265.377012316274 310.78468618122724,264.5573402287767 312.4240303562218,262.91799605378213 313.2437024437191,262.0983239662849 314.8830466187136,261.2786518787876 314.8830466187136,261.2786518787876 " style="color: rgb(218, 3, 174);"/><polyline fill="none" stroke="#da03ae" stroke-width="3" stroke-linejoin="round" stroke-dashoffset="" fill-rule="nonzero" marker-start="" marker-mid="" marker-end="" id="svg_28" points="213.24370776905187,236.68848925386948 213.24370776905187,236.68848925386948 213.24370776905187,237.5081613413667 214.06337985654915,239.9671776038586 214.06337985654915,241.60652177885314 214.06337985654915,244.06553804134492 214.88305194404643,246.52455430383674 214.88305194404643,248.1638984788313 214.88305194404643,249.80324265382583 214.88305194404643,249.80324265382583 214.88305194404643,250.62291474132311 214.88305194404643,250.62291474132311 " style="color: rgb(218, 3, 174);"/><polyline fill="none" stroke="#da03ae" stroke-width="3" stroke-linejoin="round" stroke-dashoffset="" fill-rule="nonzero" marker-start="" marker-mid="" marker-end="" id="svg_29" points="212.4240356815546,225.21308002890763 211.6043635940573,224.3934079414104 211.6043635940573,223.5737358539131 212.4240356815546,223.5737358539131 212.4240356815546,224.3934079414104 213.24370776905187,224.3934079414104 213.24370776905187,225.21308002890763 213.24370776905187,225.21308002890763 212.4240356815546,226.85242420390222 211.6043635940573,226.85242420390222 211.6043635940573,226.85242420390222 210.78469150656002,226.85242420390222 210.78469150656002,226.85242420390222 210.78469150656002,225.21308002890763 210.78469150656002,225.21308002890763 211.6043635940573,223.5737358539131 211.6043635940573,223.5737358539131 212.4240356815546,223.5737358539131 213.24370776905187,223.5737358539131 213.24370776905187,225.21308002890763 213.24370776905187,225.21308002890763 213.24370776905187,226.03275211640494 " style="color: rgb(218, 3, 174);"/><polyline fill="none" stroke="#da03ae" stroke-width="3" stroke-linejoin="round" stroke-dashoffset="" fill-rule="nonzero" marker-start="" marker-mid="" marker-end="" id="svg_30" points="223.07977281901913,228.49176837889675 223.07977281901913,228.49176837889675 223.07977281901913,227.67209629139947 223.07977281901913,226.85242420390222 223.07977281901913,226.03275211640494 223.89944490651638,226.03275211640494 224.7191169940137,226.03275211640494 225.53878908151094,226.03275211640494 226.35846116900817,226.85242420390222 226.35846116900817,228.49176837889675 226.35846116900817,230.1311125538913 225.53878908151094,231.77045672888585 224.7191169940137,234.2294729913777 223.07977281901913,236.68848925386948 223.07977281901913,237.5081613413667 222.26010073152185,238.327833428864 221.44042864402456,238.327833428864 222.26010073152185,238.327833428864 223.07977281901913,237.5081613413667 223.07977281901913,236.68848925386948 224.7191169940137,235.86881716637222 225.53878908151094,235.86881716637222 226.35846116900817,236.68848925386948 227.99780534400276,236.68848925386948 229.6371495189973,238.327833428864 230.4568216064946,238.327833428864 231.27649369399185,238.327833428864 232.9158378689864,238.327833428864 232.9158378689864,237.5081613413667 233.73550995648367,236.68848925386948 233.73550995648367,235.04914507887491 233.73550995648367,233.40980090388038 233.73550995648367,233.40980090388038 " style="color: rgb(218, 3, 174);"/></g></svg>