<svg xmlns="http://www.w3.org/2000/svg" xmlns:se="http://svg-edit.googlecode.com" xmlns:xlink="http://www.w3.org/1999/xlink" xmlns:dc="http://purl.org/dc/elements/1.1/" xmlns:cc="http://creativecommons.org/ns#" xmlns:rdf="http://www.w3.org/1999/02/22-rdf-syntax-ns#" xmlns:inkscape="http://www.inkscape.org/namespaces/inkscape" width="777" height="480">
                                    <title>my vector image</title>
                                    <!-- Created with Vector Paint - http://www.vectorpaint.yaks.com/ https://chrome.google.com/webstore/detail/hnbpdiengicdefcjecjbnjnoifekhgdo -->
                                    <rect id="backgroundrect" width="100%" height="100%" x="0" y="0" fill="#FFFFFF" stroke="none"/>
                                <g style="" class="currentLayer"><title>Layer 1</title><polyline fill="none" stroke="#0404b8" stroke-width="3" stroke-linejoin="round" stroke-dashoffset="" fill-rule="nonzero" marker-start="" marker-mid="" marker-end="" id="svg_1" points="304.22730948124905,74.39341592940958 304.22730948124905,73.57374384191232 304.22730948124905,74.39341592940958 304.22730948124905,74.39341592940958 304.22730948124905,75.21308801690687 304.22730948124905,76.03276010440413 305.04698156874633,78.49177636689595 305.04698156874633,80.95079262938776 305.04698156874633,85.04915306687413 305.04698156874633,89.14751350436049 305.04698156874633,92.42620185434957 305.04698156874633,97.34423437933322 305.04698156874633,100.6229227293223 305.04698156874633,105.54095525430591 304.22730948124905,109.63931569179229 304.22730948124905,112.91800404178139 304.22730948124905,117.01636447926775 304.22730948124905,120.29505282925682 304.22730948124905,123.57374117924593 304.22730948124905,126.85242952923501 304.22730948124905,130.1311178792241 304.22730948124905,133.4098062292132 304.22730948124905,136.68849457920228 304.22730948124905,139.1475108416941 304.22730948124905,142.42619919168317 303.40763739375177,144.88521545417498 303.40763739375177,148.16390380416408 303.40763739375177,151.44259215415317 303.40763739375177,153.901608416645 303.40763739375177,157.1802967666341 304.22730948124905,160.45898511662315 304.22730948124905,162.91800137911497 304.22730948124905,165.37701764160678 305.04698156874633,168.65570599159588 305.04698156874633,171.1147222540877 305.04698156874633,173.5737385165795 305.04698156874633,176.03275477907133 305.04698156874633,178.49177104156314 305.04698156874633,180.1311152165577 305.04698156874633,182.59013147904952 305.04698156874633,184.22947565404405 305.04698156874633,185.8688198290386 305.04698156874633,188.32783609153043 305.04698156874633,190.78685235402224 305.04698156874633,192.42619652901678 305.04698156874633,194.8852127915086 305.04698156874633,197.3442290540004 305.04698156874633,198.98357322899497 305.04698156874633,201.44258949148679 305.04698156874633,203.9016057539786 305.04698156874633,206.36062201647042 305.04698156874633,207.99996619146495 304.22730948124905,210.45898245395676 303.40763739375177,212.91799871644855 303.40763739375177,216.1966870664377 303.40763739375177,218.6557033289295 302.58796530625455,220.29504750392402 302.58796530625455,223.5737358539131 302.58796530625455,225.21308002890763 302.58796530625455,226.85242420390222 302.58796530625455,229.311440466394 302.58796530625455,231.77045672888585 302.58796530625455,232.59012881638313 302.58796530625455,234.2294729913777 302.58796530625455,235.04914507887491 302.58796530625455,236.68848925386948 302.58796530625455,238.327833428864 303.40763739375177,239.1475055163613 303.40763739375177,239.9671776038586 303.40763739375177,241.60652177885314 303.40763739375177,242.4261938663504 303.40763739375177,244.06553804134492 303.40763739375177,244.8852101288422 303.40763739375177,246.52455430383674 303.40763739375177,247.344226391334 303.40763739375177,248.98357056632852 303.40763739375177,251.44258682882042 303.40763739375177,252.26225891631762 303.40763739375177,253.9016030913122 303.40763739375177,256.360619353804 303.40763739375177,257.9999635287985 303.40763739375177,259.63930770379307 303.40763739375177,261.2786518787876 303.40763739375177,263.7376681412794 303.40763739375177,266.19668440377126 303.40763739375177,267.83602857876576 303.40763739375177,269.4753727537603 303.40763739375177,271.93438901625217 303.40763739375177,272.75406110374945 303.40763739375177,275.21307736624124 303.40763739375177,276.8524215412358 303.40763739375177,278.4917657162303 304.22730948124905,279.3114378037276 304.22730948124905,280.95078197872215 304.22730948124905,282.5901261537167 304.22730948124905,284.2294703287112 304.22730948124905,285.8688145037058 304.22730948124905,287.50815867870034 305.04698156874633,288.3278307661976 305.04698156874633,289.9671749411921 305.04698156874633,291.6065191161867 305.04698156874633,292.42619120368397 305.04698156874633,294.0655353786785 305.04698156874633,295.70487955367304 305.04698156874633,297.3442237286676 305.04698156874633,298.9835679036621 305.04698156874633,299.8032399911594 305.8666536562436,301.44258416615395 305.8666536562436,302.26225625365123 305.8666536562436,303.9016004286458 305.8666536562436,304.721272516143 305.8666536562436,305.5409446036403 305.8666536562436,307.18028877863486 305.8666536562436,307.18028877863486 305.8666536562436,308.8196329536294 305.8666536562436,308.8196329536294 305.8666536562436,309.63930504112665 305.8666536562436,310.4589771286239 305.8666536562436,310.4589771286239 " style="color: rgb(218, 3, 174);"/><polyline fill="none" stroke="#0404b8" stroke-width="3" stroke-linejoin="round" stroke-dashoffset="" fill-rule="nonzero" marker-start="" marker-mid="" marker-end="" id="svg_2" points="301.76829321875726,76.8524321919014 300.1289490437627,81.77046471688504 299.3092769562654,82.59013680438231 297.6699327812709,85.04915306687413 296.85026069377363,85.8688251543714 296.85026069377363,85.8688251543714 296.85026069377363,84.22948097937686 296.85026069377363,81.77046471688504 298.48960486876814,77.67210427939868 298.48960486876814,72.75407175441504 300.1289490437627,67.8360392294314 300.94862113126,64.55735087944232 301.76829321875726,62.91800670444777 302.58796530625455,62.09833461695052 305.04698156874633,63.737678791945044 306.6863257437409,65.37702296693959 309.96501409372996,67.8360392294314 311.6043582687245,70.29505549192322 314.8830466187136,72.75407175441504 316.52239079370815,74.39341592940958 " style="color: rgb(218, 3, 174);"/><polyline fill="none" stroke="#0404b8" stroke-width="3" stroke-linejoin="round" stroke-dashoffset="" fill-rule="nonzero" marker-start="" marker-mid="" marker-end="" id="svg_3" points="258.3256725814018,281.77045406621943 259.1453446688991,281.77045406621943 259.1453446688991,281.77045406621943 260.78468884389366,282.5901261537167 264.06337719388273,282.5901261537167 267.3420655438718,282.5901261537167 270.6207538938609,282.5901261537167 275.53878641884455,282.5901261537167 280.4568189438282,282.5901261537167 286.1945235563091,281.77045406621943 291.1125560812927,281.77045406621943 297.6699327812709,281.77045406621943 302.58796530625455,280.95078197872215 308.3256699187354,280.95078197872215 314.8830466187136,280.95078197872215 319.8010791436972,280.95078197872215 324.71911166868085,280.95078197872215 329.6371441936645,280.95078197872215 333.7355046311509,280.13110989122487 338.6535371561345,280.13110989122487 344.39124176861543,280.13110989122487 348.4896022061018,280.13110989122487 354.2273068185827,280.13110989122487 359.1453393435663,280.13110989122487 364.88304395604723,280.95078197872215 370.6207485685281,280.95078197872215 375.5387810935118,280.95078197872215 381.2764857059926,280.95078197872215 387.01419031847354,280.95078197872215 390.29287866846266,280.95078197872215 396.0305832809436,281.77045406621943 400.1289437184299,281.77045406621943 405.04697624341355,281.77045406621943 409.9650087683972,281.77045406621943 413.24369711838625,281.77045406621943 418.1617296433699,281.77045406621943 423.0797621683535,281.77045406621943 426.35845051834264,281.77045406621943 431.27648304332627,281.77045406621943 435.3748434808127,281.77045406621943 440.29287600579624,281.77045406621943 446.03058061827716,281.77045406621943 449.3092689682663,281.77045406621943 454.22730149324985,280.95078197872215 459.1453340182335,280.95078197872215 462.4240223682226,280.95078197872215 466.52238280570884,280.95078197872215 469.801071155698,280.95078197872215 473.89943159318443,281.77045406621943 476.3584478556763,281.77045406621943 479.6371362056653,281.77045406621943 483.73549664315163,282.5901261537167 486.19451290564353,282.5901261537167 489.4732012556325,282.5901261537167 493.5715616931189,282.5901261537167 496.0305779556108,282.5901261537167 500.12893839309714,282.5901261537167 503.40762674308615,282.5901261537167 507.5059871805726,282.5901261537167 511.60434761805897,282.5901261537167 514.8830359680479,282.5901261537167 519.8010684930316,282.5901261537167 523.899428930518,282.5901261537167 527.1781172805071,282.5901261537167 531.2764777179934,282.5901261537167 534.5551660679824,282.5901261537167 537.8338544179716,282.5901261537167 541.1125427679607,282.5901261537167 544.3912311179497,282.5901261537167 546.8502473804416,282.5901261537167 549.3092636429334,282.5901261537167 550.948607817928,282.5901261537167 553.4076240804197,282.5901261537167 555.0469682554143,282.5901261537167 556.6863124304089,282.5901261537167 557.5059845179061,282.5901261537167 559.1453286929006,283.40979824121393 559.9650007803979,283.40979824121393 559.9650007803979,282.5901261537167 559.1453286929006,282.5901261537167 558.3256566054034,282.5901261537167 556.6863124304089,281.77045406621943 554.2272961679171,280.13110989122487 552.5879519929225,278.4917657162303 550.1289357304306,276.8524215412358 548.4895915554362,276.0327494537385 547.6699194679388,275.21307736624124 547.6699194679388,275.21307736624124 549.3092636429334,275.21307736624124 550.948607817928,276.0327494537385 555.8666403429115,276.0327494537385 560.7846728678952,277.6720936287331 564.8830333053816,278.4917657162303 568.9813937428679,279.3114378037276 569.8010658303652,280.13110989122487 570.6207379178625,280.95078197872215 568.9813937428679,283.40979824121393 565.7027053928788,285.0491424162085 560.7846728678952,287.50815867870034 556.6863124304089,289.9671749411921 554.2272961679171,291.6065191161867 550.948607817928,294.0655353786785 550.948607817928,294.0655353786785 " style="color: rgb(218, 3, 174);"/><polyline fill="none" stroke="#0404b8" stroke-width="3" stroke-linejoin="round" stroke-dashoffset="" fill-rule="nonzero" marker-start="" marker-mid="" marker-end="" id="svg_4" points="244.3912470939482,55.54095791697233 242.75190291895368,55.54095791697233 242.75190291895368,54.72128582947505 241.93223083145637,54.72128582947505 242.75190291895368,54.72128582947505 245.2109191814455,55.54095791697233 247.66993544393728,55.54095791697233 251.76829588142363,56.3606300044696 255.04698423141275,56.3606300044696 256.68632840640726,56.3606300044696 257.50600049390454,56.3606300044696 258.3256725814018,56.3606300044696 257.50600049390454,55.54095791697233 256.68632840640726,54.72128582947505 255.04698423141275,54.72128582947505 253.4076400564182,56.3606300044696 252.5879679689209,57.18030209196688 252.5879679689209,59.639318354458695 252.5879679689209,61.278662529453236 252.5879679689209,64.55735087944232 253.4076400564182,66.19669505443687 253.4076400564182,67.8360392294314 252.5879679689209,70.29505549192322 250.9486237939264,71.1147275794205 249.30927961893184,72.75407175441504 246.85026335644,72.75407175441504 245.2109191814455,72.75407175441504 243.5715750064509,72.75407175441504 244.3912470939482,73.57374384191232 244.3912470939482,73.57374384191232 246.0305912689428,74.39341592940958 247.66993544393728,74.39341592940958 250.9486237939264,75.21308801690687 253.4076400564182,74.39341592940958 255.86665631891003,74.39341592940958 257.50600049390454,74.39341592940958 258.3256725814018,72.75407175441504 259.1453446688991,72.75407175441504 " style="color: rgb(218, 3, 174);"/><polyline fill="none" stroke="#0404b8" stroke-width="3" stroke-linejoin="round" stroke-dashoffset="" fill-rule="nonzero" marker-start="" marker-mid="" marker-end="" id="svg_5" points="260.78468884389366,66.19669505443687 261.60436093139094,65.37702296693959 261.60436093139094,66.19669505443687 262.42403301888817,66.19669505443687 262.42403301888817,67.8360392294314 263.24370510638545,68.65571131692869 264.06337719388273,71.1147275794205 264.88304928138,71.93439966691777 265.7027213688773,73.57374384191232 265.7027213688773,74.39341592940958 265.7027213688773,73.57374384191232 265.7027213688773,72.75407175441504 265.7027213688773,71.1147275794205 266.5223934563746,69.47538340442595 267.3420655438718,67.8360392294314 268.1617376313691,66.19669505443687 268.98140971886636,66.19669505443687 270.6207538938609,66.19669505443687 271.4404259813582,67.01636714193414 273.0797701563527,68.65571131692869 273.89944224385,69.47538340442595 274.71911433134727,71.1147275794205 275.53878641884455,71.93439966691777 275.53878641884455,71.93439966691777 277.1781305938391,70.29505549192322 277.99780268133634,69.47538340442595 278.8174747688336,67.01636714193414 279.6371468563309,66.19669505443687 280.4568189438282,65.37702296693959 280.4568189438282,65.37702296693959 281.27649103132546,66.19669505443687 282.09616311882274,68.65571131692869 282.09616311882274,71.93439966691777 282.91583520631997,74.39341592940958 283.73550729381725,76.03276010440413 283.73550729381725,77.67210427939868 " style="color: rgb(218, 3, 174);"/><polyline fill="none" stroke="#0404b8" stroke-width="3" stroke-linejoin="round" stroke-dashoffset="" fill-rule="nonzero" marker-start="" marker-mid="" marker-end="" id="svg_6" points="570.6207379178625,306.3606166911376 570.6207379178625,307.18028877863486 570.6207379178625,308.8196329536294 570.6207379178625,311.2786492161212 570.6207379178625,314.5573375661103 572.260082092857,317.8360259160994 572.260082092857,320.2950421785912 573.0797541803543,321.93438635358575 573.8994262678516,322.75405844108303 573.8994262678516,323.5737305285803 573.8994262678516,324.3934026160776 573.0797541803543,323.5737305285803 572.260082092857,322.75405844108303 572.260082092857,321.93438635358575 571.4404100053597,320.2950421785912 570.6207379178625,317.0163538286021 570.6207379178625,313.73766547861305 570.6207379178625,310.4589771286239 569.8010658303652,308.8196329536294 570.6207379178625,306.3606166911376 572.260082092857,304.721272516143 573.0797541803543,303.0819283411485 575.538770442846,302.26225625365123 578.8174587928352,301.44258416615395 580.4568029678297,300.62291207865667 583.7354913178189,300.62291207865667 585.3748354928134,301.44258416615395 585.3748354928134,302.26225625365123 586.1945075803106,303.0819283411485 585.3748354928134,305.5409446036403 584.5551634053161,307.18028877863486 582.9158192303215,309.63930504112665 580.4568029678297,312.0983213036185 577.1781146178406,314.5573375661103 575.538770442846,315.37700965360756 573.8994262678516,316.19668174110484 573.8994262678516,316.19668174110484 573.8994262678516,317.0163538286021 574.7190983553488,317.0163538286021 575.538770442846,317.0163538286021 578.8174587928352,317.8360259160994 581.276475055327,318.6556980035967 583.7354913178189,319.47537009109396 586.1945075803106,320.2950421785912 587.8338517553052,321.11471426608847 588.6535238428024,321.11471426608847 588.6535238428024,321.93438635358575 588.6535238428024,321.11471426608847 " style="color: rgb(218, 3, 174);"/><polyline fill="none" stroke="#0404b8" stroke-width="3" stroke-linejoin="round" stroke-dashoffset="" fill-rule="nonzero" marker-start="" marker-mid="" marker-end="" id="svg_7" points="592.7518842802888,317.0163538286021 593.5715563677861,317.0163538286021 593.5715563677861,317.0163538286021 594.3912284552833,316.19668174110484 595.2109005427807,315.37700965360756 596.8502447177751,313.73766547861305 597.6699168052725,312.0983213036185 598.4895888927697,310.4589771286239 597.6699168052725,309.63930504112665 596.8502447177751,308.8196329536294 595.2109005427807,309.63930504112665 594.3912284552833,310.4589771286239 593.5715563677861,312.9179933911158 591.9322121927916,315.37700965360756 591.9322121927916,317.0163538286021 592.7518842802888,319.47537009109396 593.5715563677861,321.11471426608847 595.2109005427807,322.75405844108303 596.8502447177751,323.5737305285803 600.1289330677643,322.75405844108303 603.4076214177534,321.93438635358575 605.0469655927479,320.2950421785912 606.6863097677424,318.6556980035967 " style="color: rgb(218, 3, 174);"/><polyline fill="none" stroke="#0404b8" stroke-width="3" stroke-linejoin="round" stroke-dashoffset="" fill-rule="nonzero" marker-start="" marker-mid="" marker-end="" id="svg_8" points="305.8666536562436,276.0327494537385 306.6863257437409,276.0327494537385 306.6863257437409,276.0327494537385 306.6863257437409,275.21307736624124 308.3256699187354,274.39340527874396 309.1453420062327,274.39340527874396 310.78468618122724,272.75406110374945 313.2437024437191,271.1147169287549 316.52239079370815,269.4753727537603 318.98140705619994,267.83602857876576 323.07976749368635,264.5573402287767 326.3584558436754,262.91799605378213 330.45681628116176,259.63930770379307 336.1945208936427,255.54094726630674 340.292881331129,253.0819310038149 346.8502580311072,248.1638984788313 353.4076347310854,244.8852101288422 357.50599516857176,241.60652177885314 364.06337186854995,237.5081613413667 368.9814043935336,233.40980090388038 373.8994369185172,230.95078464138854 377.1781252685063,228.49176837889675 383.73550196848447,223.5737358539131 387.8338624059708,220.29504750392402 391.11255075595994,217.83603124143224 396.8502553684408,214.55734289144314 401.76828789342443,210.45898245395676 405.04697624341355,208.81963827896223 409.9650087683972,205.54094992897313 414.8830412933808,202.26226157898404 417.3420575558726,200.6229174039895 421.44041799335906,198.1639011414977 424.71910634334813,195.70488487900587 426.35845051834264,194.0655407040113 428.8174667808344,192.42619652901678 431.27648304332627,190.78685235402224 432.91582721832077,189.14750817902768 434.55517139331533,187.50816400403315 437.0141876558071,185.8688198290386 439.4732039182989,184.22947565404405 442.7518922682881,182.59013147904952 444.3912364432826,181.77045939155224 446.03058061827716,180.95078730405496 447.66992479327166,179.31144312906042 448.48959688076894,179.31144312906042 448.48959688076894,178.49177104156314 447.66992479327166,178.49177104156314 447.66992479327166,177.6720989540659 446.03058061827716,178.49177104156314 444.3912364432826,178.49177104156314 442.7518922682881,177.6720989540659 441.9322201807908,177.6720989540659 441.1125480932935,177.6720989540659 441.1125480932935,176.8524268665686 441.1125480932935,176.03275477907133 442.7518922682881,176.03275477907133 443.5715643557853,175.21308269157407 446.03058061827716,174.3934106040768 448.48959688076894,174.3934106040768 450.94861314326073,174.3934106040768 452.58795731825523,175.21308269157407 453.40762940575263,176.03275477907133 454.22730149324985,177.6720989540659 453.40762940575263,179.31144312906042 452.58795731825523,180.95078730405496 450.94861314326073,184.22947565404405 449.3092689682663,185.8688198290386 447.66992479327166,187.50816400403315 446.8502527057745,189.14750817902768 " style="color: rgb(218, 3, 174);"/><polyline fill="none" stroke="#0404b8" stroke-width="3" stroke-linejoin="round" stroke-dashoffset="" fill-rule="nonzero" marker-start="" marker-mid="" marker-end="" id="svg_9" points="455.04697358074725,154.72128050414227 454.22730149324985,154.72128050414227 454.22730149324985,154.72128050414227 454.22730149324985,153.901608416645 455.04697358074725,153.901608416645 455.8666456682444,153.0819363291477 457.50598984323904,153.0819363291477 457.50598984323904,153.0819363291477 459.1453340182335,153.901608416645 459.1453340182335,155.54095259163952 459.1453340182335,156.3606246791368 459.1453340182335,157.99996885413134 459.1453340182335,160.45898511662315 458.3256619307362,162.91800137911497 457.50598984323904,164.55734555410953 457.50598984323904,166.19668972910407 457.50598984323904,167.83603390409863 457.50598984323904,169.47537807909316 457.50598984323904,170.29505016659044 459.1453340182335,171.1147222540877 459.9650061057308,171.1147222540877 461.60435028072527,171.1147222540877 462.4240223682226,170.29505016659044 464.06336654321706,169.47537807909316 465.7027107182117,169.47537807909316 465.7027107182117,168.65570599159588 " style="color: rgb(218, 3, 174);"/><polyline fill="none" stroke="#0404b8" stroke-width="3" stroke-linejoin="round" stroke-dashoffset="" fill-rule="nonzero" marker-start="" marker-mid="" marker-end="" id="svg_10" points="452.58795731825523,162.09832929161772 451.76828523075807,162.09832929161772 451.76828523075807,161.27865720412044 452.58795731825523,161.27865720412044 452.58795731825523,161.27865720412044 455.8666456682444,161.27865720412044 458.3256619307362,160.45898511662315 460.7846781932281,160.45898511662315 463.2436944557199,160.45898511662315 464.06336654321706,160.45898511662315 " style="color: rgb(218, 3, 174);"/><polyline fill="none" stroke="#0404b8" stroke-width="3" stroke-linejoin="round" stroke-dashoffset="" fill-rule="nonzero" marker-start="" marker-mid="" marker-end="" id="svg_11" points="362.4240276935554,211.27865454145402 362.4240276935554,210.45898245395676 362.4240276935554,210.45898245395676 363.24369978105267,211.27865454145402 364.06337186854995,212.91799871644855 364.88304395604723,214.55734289144314 366.52238813104174,216.1966870664377 367.342060218539,217.83603124143224 368.9814043935336,219.47537541642677 369.80107648103086,220.29504750392402 370.6207485685281,221.1147195914213 370.6207485685281,221.93439167891862 370.6207485685281,220.29504750392402 369.80107648103086,218.6557033289295 368.9814043935336,217.01635915393493 368.1617323060363,215.3770149789404 367.342060218539,213.73767080394586 367.342060218539,212.09832662895133 367.342060218539,210.45898245395676 367.342060218539,209.63931036645948 368.9814043935336,207.99996619146495 370.6207485685281,207.18029410396767 372.26009274352265,205.54094992897313 375.5387810935118,203.9016057539786 377.1781252685063,202.26226157898404 377.99779735600356,200.6229174039895 " style="color: rgb(218, 3, 174);"/><polyline fill="none" stroke="#0404b8" stroke-width="3" stroke-linejoin="round" stroke-dashoffset="" fill-rule="nonzero" marker-start="" marker-mid="" marker-end="" id="svg_12" points="356.6863230810745,276.8524215412358 357.50599516857176,276.0327494537385 357.50599516857176,276.0327494537385 357.50599516857176,275.21307736624124 358.32566725606904,275.21307736624124 358.32566725606904,274.39340527874396 359.1453393435663,273.5737331912467 359.1453393435663,271.93438901625217 359.1453393435663,271.1147169287549 359.1453393435663,269.4753727537603 359.1453393435663,267.83602857876576 359.1453393435663,266.19668440377126 359.1453393435663,263.7376681412794 358.32566725606904,261.2786518787876 357.50599516857176,260.45897979129035 357.50599516857176,258.8196356162958 356.6863230810745,257.9999635287985 355.8666509935772,256.360619353804 355.8666509935772,256.360619353804 355.0469789060799,254.72127517880946 354.2273068185827,254.72127517880946 353.4076347310854,253.0819310038149 352.5879626435881,253.0819310038149 352.5879626435881,253.0819310038149 351.76829055609085,252.26225891631762 350.94861846859357,252.26225891631762 350.94861846859357,251.44258682882042 350.94861846859357,252.26225891631762 350.94861846859357,252.26225891631762 350.94861846859357,253.0819310038149 350.94861846859357,253.9016030913122 350.94861846859357,255.54094726630674 350.94861846859357,256.360619353804 350.94861846859357,257.9999635287985 350.94861846859357,259.63930770379307 350.94861846859357,259.63930770379307 350.94861846859357,260.45897979129035 350.94861846859357,261.2786518787876 350.94861846859357,260.45897979129035 350.94861846859357,259.63930770379307 350.1289463810963,259.63930770379307 349.30927429359906,257.9999635287985 349.30927429359906,256.360619353804 349.30927429359906,254.72127517880946 348.4896022061018,253.0819310038149 348.4896022061018,253.0819310038149 349.30927429359906,251.44258682882042 349.30927429359906,251.44258682882042 350.1289463810963,251.44258682882042 350.94861846859357,251.44258682882042 352.5879626435881,251.44258682882042 354.2273068185827,251.44258682882042 357.50599516857176,251.44258682882042 359.1453393435663,251.44258682882042 361.6043556060581,251.44258682882042 364.06337186854995,251.44258682882042 364.88304395604723,251.44258682882042 " style="color: rgb(218, 3, 174);"/><polyline fill="none" stroke="#0404b8" stroke-width="3" stroke-linejoin="round" stroke-dashoffset="" fill-rule="nonzero" marker-start="" marker-mid="" marker-end="" id="svg_13" points="372.26009274352265,254.72127517880946 372.26009274352265,253.9016030913122 371.44042065602537,253.9016030913122 372.26009274352265,254.72127517880946 372.26009274352265,256.360619353804 372.26009274352265,257.9999635287985 373.07976483101993,259.63930770379307 373.8994369185172,261.2786518787876 374.7191090060145,262.0983239662849 376.358453181009,262.91799605378213 377.99779735600356,264.5573402287767 378.81746944350084,264.5573402287767 380.4568136184954,263.7376681412794 382.0961577934899,262.91799605378213 383.73550196848447,261.2786518787876 385.37484614347903,259.63930770379307 387.01419031847354,257.9999635287985 387.8338624059708,256.360619353804 387.8338624059708,253.9016030913122 387.8338624059708,252.26225891631762 387.01419031847354,250.62291474132311 385.37484614347903,249.80324265382583 384.55517405598175,248.98357056632852 383.73550196848447,248.98357056632852 382.0961577934899,248.98357056632852 382.0961577934899,249.80324265382583 381.2764857059926,250.62291474132311 381.2764857059926,252.26225891631762 381.2764857059926,254.72127517880946 381.2764857059926,256.360619353804 382.0961577934899,259.63930770379307 382.0961577934899,262.91799605378213 382.0961577934899,264.5573402287767 382.9158298809872,267.83602857876576 382.9158298809872,269.4753727537603 382.9158298809872,271.1147169287549 382.9158298809872,271.93438901625217 382.9158298809872,272.75406110374945 " style="color: rgb(218, 3, 174);"/><polyline fill="none" stroke="#0404b8" stroke-width="3" stroke-linejoin="round" stroke-dashoffset="" fill-rule="nonzero" marker-start="" marker-mid="" marker-end="" id="svg_14" points="449.3092689682663,197.3442290540004 448.48959688076894,198.1639011414977 448.48959688076894,198.98357322899497 448.48959688076894,200.6229174039895 449.3092689682663,202.26226157898404 449.3092689682663,203.08193366648132 449.3092689682663,203.9016057539786 449.3092689682663,205.54094992897313 " style="color: rgb(218, 3, 174);"/><polyline fill="none" stroke="#0404b8" stroke-width="3" stroke-linejoin="round" stroke-dashoffset="" fill-rule="nonzero" marker-start="" marker-mid="" marker-end="" id="svg_15" points="449.3092689682663,208.81963827896223 449.3092689682663,209.63931036645948 448.48959688076894,210.45898245395676 448.48959688076894,210.45898245395676 448.48959688076894,212.09832662895133 448.48959688076894,212.91799871644855 448.48959688076894,213.73767080394586 448.48959688076894,214.55734289144314 " style="color: rgb(218, 3, 174);"/><polyline fill="none" stroke="#0404b8" stroke-width="3" stroke-linejoin="round" stroke-dashoffset="" fill-rule="nonzero" marker-start="" marker-mid="" marker-end="" id="svg_16" points="448.48959688076894,220.29504750392402 448.48959688076894,221.1147195914213 448.48959688076894,221.93439167891862 448.48959688076894,221.93439167891862 448.48959688076894,222.75406376641584 " style="color: rgb(218, 3, 174);"/><polyline fill="none" stroke="#0404b8" stroke-width="3" stroke-linejoin="round" stroke-dashoffset="" fill-rule="nonzero" marker-start="" marker-mid="" marker-end="" id="svg_17" points="449.3092689682663,230.1311125538913 449.3092689682663,231.77045672888585 448.48959688076894,231.77045672888585 447.66992479327166,232.59012881638313 447.66992479327166,233.40980090388038 447.66992479327166,234.2294729913777 448.48959688076894,235.04914507887491 448.48959688076894,235.86881716637222 " style="color: rgb(218, 3, 174);"/><polyline fill="none" stroke="#0404b8" stroke-width="3" stroke-linejoin="round" stroke-dashoffset="" fill-rule="nonzero" marker-start="" marker-mid="" marker-end="" id="svg_18" points="449.3092689682663,246.52455430383674 449.3092689682663,247.344226391334 449.3092689682663,248.1638984788313 " style="color: rgb(218, 3, 174);"/><polyline fill="none" stroke="#0404b8" stroke-width="3" stroke-linejoin="round" stroke-dashoffset="" fill-rule="nonzero" marker-start="" marker-mid="" marker-end="" id="svg_19" points="449.3092689682663,255.54094726630674 448.48959688076894,256.360619353804 447.66992479327166,257.1802914413013 447.66992479327166,257.9999635287985 447.66992479327166,257.9999635287985 " style="color: rgb(218, 3, 174);"/><polyline fill="none" stroke="#0404b8" stroke-width="3" stroke-linejoin="round" stroke-dashoffset="" fill-rule="nonzero" marker-start="" marker-mid="" marker-end="" id="svg_20" points="448.48959688076894,264.5573402287767 447.66992479327166,264.5573402287767 447.66992479327166,265.377012316274 447.66992479327166,266.19668440377126 447.66992479327166,266.19668440377126 447.66992479327166,267.01635649126854 " style="color: rgb(218, 3, 174);"/><polyline fill="none" stroke="#0404b8" stroke-width="3" stroke-linejoin="round" stroke-dashoffset="" fill-rule="nonzero" marker-start="" marker-mid="" marker-end="" id="svg_21" points="447.66992479327166,271.93438901625217 447.66992479327166,272.75406110374945 447.66992479327166,273.5737331912467 447.66992479327166,274.39340527874396 447.66992479327166,275.21307736624124 447.66992479327166,276.0327494537385 " style="color: rgb(218, 3, 174);"/><polyline fill="none" stroke="#0404b8" stroke-width="3" stroke-linejoin="round" stroke-dashoffset="" fill-rule="nonzero" marker-start="" marker-mid="" marker-end="" id="svg_22" points="309.96501409372996,174.3934106040768 309.96501409372996,174.3934106040768 310.78468618122724,174.3934106040768 311.6043582687245,174.3934106040768 311.6043582687245,174.3934106040768 313.2437024437191,175.21308269157407 314.0633745312163,175.21308269157407 " style="color: rgb(218, 3, 174);"/><polyline fill="none" stroke="#0404b8" stroke-width="3" stroke-linejoin="round" stroke-dashoffset="" fill-rule="nonzero" marker-start="" marker-mid="" marker-end="" id="svg_23" points="320.6207512311945,175.21308269157407 321.4404233186918,175.21308269157407 322.26009540618907,175.21308269157407 323.8994395811836,175.21308269157407 324.71911166868085,175.21308269157407 " style="color: rgb(218, 3, 174);"/><polyline fill="none" stroke="#0404b8" stroke-width="3" stroke-linejoin="round" stroke-dashoffset="" fill-rule="nonzero" marker-start="" marker-mid="" marker-end="" id="svg_24" points="331.27648836865905,175.21308269157407 332.0961604561563,175.21308269157407 332.9158325436536,175.21308269157407 333.7355046311509,174.3934106040768 334.5551767186481,174.3934106040768 " style="color: rgb(218, 3, 174);"/><polyline fill="none" stroke="#0404b8" stroke-width="3" stroke-linejoin="round" stroke-dashoffset="" fill-rule="nonzero" marker-start="" marker-mid="" marker-end="" id="svg_25" points="337.83386506863724,174.3934106040768 339.47320924363174,175.21308269157407 340.292881331129,175.21308269157407 341.1125534186263,175.21308269157407 341.9322255061236,175.21308269157407 " style="color: rgb(218, 3, 174);"/><polyline fill="none" stroke="#0404b8" stroke-width="3" stroke-linejoin="round" stroke-dashoffset="" fill-rule="nonzero" marker-start="" marker-mid="" marker-end="" id="svg_26" points="347.6699301186045,175.21308269157407 347.6699301186045,175.21308269157407 348.4896022061018,175.21308269157407 349.30927429359906,175.21308269157407 349.30927429359906,175.21308269157407 350.94861846859357,175.21308269157407 351.76829055609085,175.21308269157407 " style="color: rgb(218, 3, 174);"/><polyline fill="none" stroke="#0404b8" stroke-width="3" stroke-linejoin="round" stroke-dashoffset="" fill-rule="nonzero" marker-start="" marker-mid="" marker-end="" id="svg_27" points="360.7846835185608,176.03275477907133 362.4240276935554,176.03275477907133 362.4240276935554,175.21308269157407 363.24369978105267,174.3934106040768 364.06337186854995,174.3934106040768 364.88304395604723,174.3934106040768 " style="color: rgb(218, 3, 174);"/><polyline fill="none" stroke="#0404b8" stroke-width="3" stroke-linejoin="round" stroke-dashoffset="" fill-rule="nonzero" marker-start="" marker-mid="" marker-end="" id="svg_28" points="373.8994369185172,174.3934106040768 374.7191090060145,174.3934106040768 375.5387810935118,174.3934106040768 375.5387810935118,174.3934106040768 376.358453181009,174.3934106040768 " style="color: rgb(218, 3, 174);"/><polyline fill="none" stroke="#0404b8" stroke-width="3" stroke-linejoin="round" stroke-dashoffset="" fill-rule="nonzero" marker-start="" marker-mid="" marker-end="" id="svg_29" points="384.55517405598175,176.03275477907133 385.37484614347903,176.03275477907133 385.37484614347903,175.21308269157407 386.19451823097626,175.21308269157407 387.01419031847354,175.21308269157407 " style="color: rgb(218, 3, 174);"/><polyline fill="none" stroke="#0404b8" stroke-width="3" stroke-linejoin="round" stroke-dashoffset="" fill-rule="nonzero" marker-start="" marker-mid="" marker-end="" id="svg_30" points="394.391239105949,175.21308269157407 395.2109111934463,175.21308269157407 395.2109111934463,174.3934106040768 396.0305832809436,174.3934106040768 396.8502553684408,174.3934106040768 396.8502553684408,174.3934106040768 " style="color: rgb(218, 3, 174);"/><polyline fill="none" stroke="#0404b8" stroke-width="3" stroke-linejoin="round" stroke-dashoffset="" fill-rule="nonzero" marker-start="" marker-mid="" marker-end="" id="svg_31" points="406.6863204184081,174.3934106040768 408.3256645934026,174.3934106040768 408.3256645934026,174.3934106040768 409.1453366808999,174.3934106040768 409.9650087683972,174.3934106040768 409.9650087683972,174.3934106040768 410.78468085589446,174.3934106040768 " style="color: rgb(218, 3, 174);"/><polyline fill="none" stroke="#0404b8" stroke-width="3" stroke-linejoin="round" stroke-dashoffset="" fill-rule="nonzero" marker-start="" marker-mid="" marker-end="" id="svg_32" points="417.3420575558726,174.3934106040768 418.1617296433699,174.3934106040768 418.98140173086716,174.3934106040768 419.80107381836444,174.3934106040768 " style="color: rgb(218, 3, 174);"/><polyline fill="none" stroke="#0404b8" stroke-width="3" stroke-linejoin="round" stroke-dashoffset="" fill-rule="nonzero" marker-start="" marker-mid="" marker-end="" id="svg_33" points="427.9977946933371,174.3934106040768 429.6371388683317,174.3934106040768 431.27648304332627,174.3934106040768 431.27648304332627,174.3934106040768 432.09615513082355,173.5737385165795 432.91582721832077,173.5737385165795 " style="color: rgb(218, 3, 174);"/><polyline fill="none" stroke="#da03ae" stroke-width="3" stroke-linejoin="round" stroke-dashoffset="" fill-rule="nonzero" marker-start="" marker-mid="" marker-end="" id="svg_34" points="306.6863257437409,285.8688145037058 307.5059978312382,285.8688145037058 308.3256699187354,285.8688145037058 308.3256699187354,286.68848659120306 309.1453420062327,286.68848659120306 309.96501409372996,286.68848659120306 310.78468618122724,286.68848659120306 311.6043582687245,286.68848659120306 313.2437024437191,286.68848659120306 314.8830466187136,286.68848659120306 315.7027187062109,286.68848659120306 316.52239079370815,286.68848659120306 318.1617349687027,286.68848659120306 318.1617349687027,287.50815867870034 319.8010791436972,287.50815867870034 321.4404233186918,287.50815867870034 321.4404233186918,287.50815867870034 323.07976749368635,287.50815867870034 323.8994395811836,287.50815867870034 324.71911166868085,287.50815867870034 326.3584558436754,287.50815867870034 326.3584558436754,287.50815867870034 327.99780001867,287.50815867870034 328.81747210616726,287.50815867870034 329.6371441936645,287.50815867870034 330.45681628116176,286.68848659120306 331.27648836865905,286.68848659120306 332.0961604561563,286.68848659120306 332.9158325436536,286.68848659120306 334.5551767186481,286.68848659120306 334.5551767186481,286.68848659120306 336.1945208936427,286.68848659120306 336.1945208936427,286.68848659120306 337.83386506863724,286.68848659120306 337.83386506863724,286.68848659120306 338.6535371561345,286.68848659120306 339.47320924363174,286.68848659120306 341.1125534186263,285.8688145037058 341.1125534186263,285.8688145037058 342.75189759362087,286.68848659120306 344.39124176861543,286.68848659120306 345.21091385611265,286.68848659120306 346.03058594360994,286.68848659120306 346.8502580311072,286.68848659120306 347.6699301186045,286.68848659120306 348.4896022061018,286.68848659120306 349.30927429359906,286.68848659120306 350.94861846859357,286.68848659120306 351.76829055609085,286.68848659120306 352.5879626435881,287.50815867870034 354.2273068185827,286.68848659120306 355.0469789060799,286.68848659120306 355.8666509935772,286.68848659120306 357.50599516857176,286.68848659120306 357.50599516857176,286.68848659120306 359.1453393435663,286.68848659120306 359.9650114310636,286.68848659120306 360.7846835185608,286.68848659120306 362.4240276935554,286.68848659120306 363.24369978105267,286.68848659120306 364.06337186854995,286.68848659120306 364.88304395604723,286.68848659120306 365.70271604354446,286.68848659120306 366.52238813104174,286.68848659120306 367.342060218539,286.68848659120306 371.44042065602537,286.68848659120306 372.26009274352265,286.68848659120306 373.07976483101993,286.68848659120306 373.8994369185172,286.68848659120306 374.7191090060145,286.68848659120306 375.5387810935118,286.68848659120306 377.1781252685063,286.68848659120306 377.1781252685063,286.68848659120306 378.81746944350084,286.68848659120306 378.81746944350084,286.68848659120306 380.4568136184954,286.68848659120306 381.2764857059926,286.68848659120306 382.0961577934899,286.68848659120306 382.9158298809872,286.68848659120306 383.73550196848447,286.68848659120306 385.37484614347903,286.68848659120306 385.37484614347903,286.68848659120306 386.19451823097626,286.68848659120306 387.01419031847354,286.68848659120306 387.8338624059708,286.68848659120306 388.6535344934681,286.68848659120306 389.4732065809654,286.68848659120306 390.29287866846266,286.68848659120306 391.11255075595994,286.68848659120306 391.93222284345717,286.68848659120306 392.75189493095445,286.68848659120306 393.57156701845173,286.68848659120306 394.391239105949,286.68848659120306 395.2109111934463,286.68848659120306 396.0305832809436,286.68848659120306 396.8502553684408,286.68848659120306 397.6699274559381,286.68848659120306 398.48959954343536,286.68848659120306 399.30927163093264,286.68848659120306 400.1289437184299,286.68848659120306 400.9486158059272,286.68848659120306 401.76828789342443,287.50815867870034 402.5879599809217,287.50815867870034 403.407632068419,287.50815867870034 403.407632068419,287.50815867870034 404.2273041559163,287.50815867870034 405.04697624341355,287.50815867870034 405.86664833091083,287.50815867870034 406.6863204184081,287.50815867870034 407.50599250590534,287.50815867870034 408.3256645934026,287.50815867870034 409.1453366808999,287.50815867870034 409.9650087683972,287.50815867870034 410.78468085589446,287.50815867870034 411.60435294339175,287.50815867870034 411.60435294339175,287.50815867870034 413.24369711838625,287.50815867870034 414.06336920588353,287.50815867870034 414.8830412933808,287.50815867870034 415.7027133808781,287.50815867870034 416.5223854683754,287.50815867870034 416.5223854683754,287.50815867870034 418.1617296433699,287.50815867870034 418.1617296433699,287.50815867870034 418.98140173086716,287.50815867870034 419.80107381836444,287.50815867870034 420.6207459058617,287.50815867870034 421.44041799335906,287.50815867870034 421.44041799335906,287.50815867870034 423.0797621683535,287.50815867870034 423.0797621683535,287.50815867870034 423.89943425585085,287.50815867870034 424.71910634334813,287.50815867870034 425.5387784308453,287.50815867870034 426.35845051834264,287.50815867870034 427.1781226058399,287.50815867870034 427.9977946933371,287.50815867870034 429.6371388683317,288.3278307661976 430.456810955829,288.3278307661976 431.27648304332627,288.3278307661976 431.27648304332627,288.3278307661976 432.91582721832077,288.3278307661976 432.91582721832077,288.3278307661976 433.73549930581805,288.3278307661976 434.55517139331533,288.3278307661976 434.55517139331533,288.3278307661976 435.3748434808127,288.3278307661976 436.19451556830984,288.3278307661976 436.19451556830984,288.3278307661976 437.0141876558071,288.3278307661976 437.83385974330446,288.3278307661976 437.83385974330446,288.3278307661976 438.6535318308016,287.50815867870034 439.4732039182989,287.50815867870034 439.4732039182989,287.50815867870034 440.29287600579624,287.50815867870034 441.1125480932935,287.50815867870034 441.1125480932935,287.50815867870034 441.1125480932935,287.50815867870034 441.9322201807908,287.50815867870034 442.7518922682881,287.50815867870034 442.7518922682881,287.50815867870034 443.5715643557853,287.50815867870034 444.3912364432826,287.50815867870034 444.3912364432826,287.50815867870034 445.2109085307799,286.68848659120306 446.03058061827716,286.68848659120306 446.03058061827716,286.68848659120306 446.8502527057745,286.68848659120306 447.66992479327166,286.68848659120306 447.66992479327166,286.68848659120306 448.48959688076894,286.68848659120306 449.3092689682663,286.68848659120306 " style="color: rgb(218, 3, 174);"/><polyline fill="none" stroke="#da03ae" stroke-width="3" stroke-linejoin="round" stroke-dashoffset="" fill-rule="nonzero" marker-start="" marker-mid="" marker-end="" id="svg_35" points="335.3748488061454,298.1638958161649 336.1945208936427,298.9835679036621 336.1945208936427,301.44258416615395 336.1945208936427,303.9016004286458 337.01419298113996,306.3606166911376 337.83386506863724,309.63930504112665 338.6535371561345,312.9179933911158 338.6535371561345,315.37700965360756 339.47320924363174,316.19668174110484 339.47320924363174,317.0163538286021 339.47320924363174,317.0163538286021 338.6535371561345,317.0163538286021 338.6535371561345,317.0163538286021 337.83386506863724,315.37700965360756 337.83386506863724,313.73766547861305 337.83386506863724,312.0983213036185 337.83386506863724,308.8196329536294 337.83386506863724,307.18028877863486 337.83386506863724,305.5409446036403 337.83386506863724,304.721272516143 338.6535371561345,303.9016004286458 340.292881331129,303.9016004286458 341.1125534186263,303.9016004286458 342.75189759362087,303.9016004286458 345.21091385611265,303.9016004286458 346.03058594360994,303.9016004286458 347.6699301186045,303.9016004286458 348.4896022061018,303.9016004286458 " style="color: rgb(218, 3, 174);"/><polyline fill="none" stroke="#da03ae" stroke-width="3" stroke-linejoin="round" stroke-dashoffset="" fill-rule="nonzero" marker-start="" marker-mid="" marker-end="" id="svg_36" points="360.7846835185608,304.721272516143 361.6043556060581,303.9016004286458 361.6043556060581,303.9016004286458 361.6043556060581,303.0819283411485 360.7846835185608,302.26225625365123 359.9650114310636,303.0819283411485 359.1453393435663,303.9016004286458 357.50599516857176,305.5409446036403 357.50599516857176,307.18028877863486 356.6863230810745,308.8196329536294 357.50599516857176,310.4589771286239 357.50599516857176,313.73766547861305 359.1453393435663,315.37700965360756 359.9650114310636,315.37700965360756 361.6043556060581,315.37700965360756 363.24369978105267,315.37700965360756 364.06337186854995,313.73766547861305 364.88304395604723,312.0983213036185 365.70271604354446,311.2786492161212 366.52238813104174,310.4589771286239 366.52238813104174,310.4589771286239 367.342060218539,310.4589771286239 367.342060218539,310.4589771286239 367.342060218539,311.2786492161212 367.342060218539,312.0983213036185 368.9814043935336,313.73766547861305 368.9814043935336,315.37700965360756 370.6207485685281,316.19668174110484 371.44042065602537,317.0163538286021 372.26009274352265,317.0163538286021 373.8994369185172,317.0163538286021 374.7191090060145,317.0163538286021 375.5387810935118,315.37700965360756 375.5387810935118,314.5573375661103 375.5387810935118,313.73766547861305 373.07976483101993,312.0983213036185 371.44042065602537,310.4589771286239 368.9814043935336,310.4589771286239 367.342060218539,310.4589771286239 366.52238813104174,310.4589771286239 " style="color: rgb(218, 3, 174);"/><polyline fill="none" stroke="#da03ae" stroke-width="3" stroke-linejoin="round" stroke-dashoffset="" fill-rule="nonzero" marker-start="" marker-mid="" marker-end="" id="svg_37" points="385.37484614347903,306.3606166911376 385.37484614347903,305.5409446036403 385.37484614347903,303.9016004286458 384.55517405598175,303.9016004286458 383.73550196848447,304.721272516143 382.0961577934899,305.5409446036403 381.2764857059926,306.3606166911376 380.4568136184954,307.18028877863486 380.4568136184954,308.8196329536294 380.4568136184954,309.63930504112665 381.2764857059926,310.4589771286239 382.0961577934899,311.2786492161212 383.73550196848447,312.0983213036185 385.37484614347903,312.0983213036185 387.01419031847354,313.73766547861305 387.8338624059708,313.73766547861305 388.6535344934681,314.5573375661103 388.6535344934681,315.37700965360756 387.01419031847354,317.0163538286021 386.19451823097626,317.0163538286021 385.37484614347903,317.8360259160994 383.73550196848447,317.8360259160994 382.9158298809872,317.0163538286021 382.0961577934899,317.0163538286021 " style="color: rgb(218, 3, 174);"/><polyline fill="none" stroke="#da03ae" stroke-width="3" stroke-linejoin="round" stroke-dashoffset="" fill-rule="nonzero" marker-start="" marker-mid="" marker-end="" id="svg_38" points="396.8502553684408,304.721272516143 397.6699274559381,305.5409446036403 396.8502553684408,305.5409446036403 396.8502553684408,307.18028877863486 396.8502553684408,307.99996086613214 397.6699274559381,309.63930504112665 398.48959954343536,311.2786492161212 400.1289437184299,312.0983213036185 401.76828789342443,313.73766547861305 402.5879599809217,313.73766547861305 403.407632068419,313.73766547861305 405.86664833091083,313.73766547861305 406.6863204184081,312.9179933911158 408.3256645934026,311.2786492161212 409.9650087683972,309.63930504112665 410.78468085589446,307.99996086613214 410.78468085589446,306.3606166911376 409.9650087683972,303.9016004286458 409.1453366808999,302.26225625365123 408.3256645934026,302.26225625365123 406.6863204184081,301.44258416615395 405.86664833091083,301.44258416615395 405.04697624341355,302.26225625365123 404.2273041559163,303.9016004286458 403.407632068419,305.5409446036403 403.407632068419,308.8196329536294 403.407632068419,312.0983213036185 404.2273041559163,315.37700965360756 404.2273041559163,317.0163538286021 405.04697624341355,319.47537009109396 405.04697624341355,321.11471426608847 405.04697624341355,321.93438635358575 " style="color: rgb(218, 3, 174);"/><polyline fill="none" stroke="#da03ae" stroke-width="3" stroke-linejoin="round" stroke-dashoffset="" fill-rule="nonzero" marker-start="" marker-mid="" marker-end="" id="svg_39" points="298.48960486876814,176.03275477907133 298.48960486876814,176.03275477907133 298.48960486876814,176.8524268665686 298.48960486876814,177.6720989540659 298.48960486876814,178.49177104156314 298.48960486876814,179.31144312906042 298.48960486876814,180.1311152165577 298.48960486876814,180.95078730405496 298.48960486876814,182.59013147904952 298.48960486876814,184.22947565404405 298.48960486876814,184.22947565404405 298.48960486876814,185.8688198290386 298.48960486876814,187.50816400403315 298.48960486876814,188.32783609153043 298.48960486876814,189.96718026652496 298.48960486876814,190.78685235402224 298.48960486876814,192.42619652901678 298.48960486876814,194.0655407040113 298.48960486876814,194.8852127915086 298.48960486876814,195.70488487900587 298.48960486876814,197.3442290540004 298.48960486876814,198.1639011414977 298.48960486876814,199.80324531649222 298.48960486876814,200.6229174039895 298.48960486876814,202.26226157898404 298.48960486876814,203.08193366648132 298.48960486876814,203.9016057539786 298.48960486876814,205.54094992897313 298.48960486876814,206.36062201647042 298.48960486876814,207.18029410396767 298.48960486876814,208.81963827896223 298.48960486876814,209.63931036645948 298.48960486876814,210.45898245395676 298.48960486876814,211.27865454145402 298.48960486876814,212.09832662895133 298.48960486876814,213.73767080394586 298.48960486876814,213.73767080394586 298.48960486876814,215.3770149789404 298.48960486876814,216.1966870664377 298.48960486876814,217.01635915393493 298.48960486876814,218.6557033289295 298.48960486876814,219.47537541642677 298.48960486876814,220.29504750392402 298.48960486876814,221.93439167891862 298.48960486876814,221.93439167891862 298.48960486876814,223.5737358539131 298.48960486876814,224.3934079414104 298.48960486876814,225.21308002890763 298.48960486876814,226.85242420390222 298.48960486876814,226.85242420390222 298.48960486876814,228.49176837889675 298.48960486876814,228.49176837889675 298.48960486876814,230.1311125538913 298.48960486876814,230.1311125538913 298.48960486876814,231.77045672888585 298.48960486876814,232.59012881638313 298.48960486876814,233.40980090388038 298.48960486876814,234.2294729913777 298.48960486876814,235.04914507887491 298.48960486876814,235.86881716637222 298.48960486876814,236.68848925386948 298.48960486876814,238.327833428864 299.3092769562654,239.1475055163613 299.3092769562654,239.9671776038586 299.3092769562654,241.60652177885314 298.48960486876814,242.4261938663504 298.48960486876814,243.2458659538476 298.48960486876814,244.06553804134492 298.48960486876814,244.8852101288422 298.48960486876814,245.7048822163395 298.48960486876814,246.52455430383674 298.48960486876814,247.344226391334 298.48960486876814,248.1638984788313 298.48960486876814,248.98357056632852 298.48960486876814,249.80324265382583 298.48960486876814,250.62291474132311 298.48960486876814,251.44258682882042 298.48960486876814,252.26225891631762 298.48960486876814,253.0819310038149 298.48960486876814,253.9016030913122 298.48960486876814,254.72127517880946 297.6699327812709,255.54094726630674 297.6699327812709,256.360619353804 297.6699327812709,256.360619353804 297.6699327812709,257.9999635287985 297.6699327812709,257.9999635287985 298.48960486876814,258.8196356162958 298.48960486876814,259.63930770379307 298.48960486876814,260.45897979129035 298.48960486876814,261.2786518787876 298.48960486876814,261.2786518787876 298.48960486876814,262.0983239662849 298.48960486876814,262.91799605378213 298.48960486876814,263.7376681412794 298.48960486876814,264.5573402287767 298.48960486876814,265.377012316274 298.48960486876814,266.19668440377126 298.48960486876814,267.01635649126854 298.48960486876814,267.83602857876576 298.48960486876814,267.83602857876576 298.48960486876814,269.4753727537603 298.48960486876814,269.4753727537603 298.48960486876814,270.2950448412576 298.48960486876814,271.1147169287549 298.48960486876814,271.1147169287549 299.3092769562654,271.93438901625217 298.48960486876814,272.75406110374945 298.48960486876814,272.75406110374945 298.48960486876814,273.5737331912467 298.48960486876814,274.39340527874396 298.48960486876814,274.39340527874396 298.48960486876814,275.21307736624124 298.48960486876814,276.0327494537385 298.48960486876814,276.0327494537385 298.48960486876814,276.8524215412358 298.48960486876814,276.8524215412358 298.48960486876814,277.6720936287331 298.48960486876814,277.6720936287331 298.48960486876814,278.4917657162303 298.48960486876814,279.3114378037276 298.48960486876814,279.3114378037276 298.48960486876814,279.3114378037276 298.48960486876814,280.13110989122487 " style="color: rgb(218, 3, 174);"/><polyline fill="none" stroke="#da03ae" stroke-width="3" stroke-linejoin="round" stroke-dashoffset="" fill-rule="nonzero" marker-start="" marker-mid="" marker-end="" id="svg_40" points="232.09616578148908,218.6557033289295 232.09616578148908,219.47537541642677 232.9158378689864,221.1147195914213 232.9158378689864,223.5737358539131 234.55518204398098,226.85242420390222 236.19452621897545,229.311440466394 237.83387039397,231.77045672888585 237.83387039397,233.40980090388038 238.6535424814673,234.2294729913777 238.6535424814673,235.04914507887491 237.83387039397,234.2294729913777 237.83387039397,233.40980090388038 237.01419830647276,230.95078464138854 236.19452621897545,228.49176837889675 236.19452621897545,225.21308002890763 236.19452621897545,223.5737358539131 237.01419830647276,222.75406376641584 237.83387039397,221.93439167891862 239.47321456896458,220.29504750392402 241.11255874395908,220.29504750392402 242.75190291895368,220.29504750392402 243.5715750064509,219.47537541642677 244.3912470939482,219.47537541642677 " style="color: rgb(218, 3, 174);"/><polyline fill="none" stroke="#da03ae" stroke-width="3" stroke-linejoin="round" stroke-dashoffset="" fill-rule="nonzero" marker-start="" marker-mid="" marker-end="" id="svg_41" points="254.22731214391544,218.6557033289295 254.22731214391544,218.6557033289295 253.4076400564182,218.6557033289295 252.5879679689209,218.6557033289295 250.9486237939264,219.47537541642677 250.12895170642912,220.29504750392402 249.30927961893184,221.93439167891862 248.4896075314346,221.93439167891862 248.4896075314346,223.5737358539131 248.4896075314346,224.3934079414104 249.30927961893184,225.21308002890763 250.9486237939264,226.03275211640494 252.5879679689209,226.85242420390222 253.4076400564182,226.85242420390222 254.22731214391544,227.67209629139947 255.86665631891003,228.49176837889675 257.50600049390454,228.49176837889675 257.50600049390454,229.311440466394 258.3256725814018,230.1311125538913 257.50600049390454,230.1311125538913 257.50600049390454,230.95078464138854 255.86665631891003,231.77045672888585 255.86665631891003,231.77045672888585 254.22731214391544,231.77045672888585 254.22731214391544,231.77045672888585 253.4076400564182,231.77045672888585 252.5879679689209,231.77045672888585 252.5879679689209,230.95078464138854 " style="color: rgb(218, 3, 174);"/><polyline fill="none" stroke="#da03ae" stroke-width="3" stroke-linejoin="round" stroke-dashoffset="" fill-rule="nonzero" marker-start="" marker-mid="" marker-end="" id="svg_42" points="259.1453446688991,223.5737358539131 259.1453446688991,223.5737358539131 259.9650167563964,224.3934079414104 260.78468884389366,225.21308002890763 260.78468884389366,226.85242420390222 261.60436093139094,228.49176837889675 262.42403301888817,230.1311125538913 262.42403301888817,231.77045672888585 262.42403301888817,231.77045672888585 262.42403301888817,232.59012881638313 262.42403301888817,231.77045672888585 262.42403301888817,231.77045672888585 " style="color: rgb(218, 3, 174);"/><polyline fill="none" stroke="#da03ae" stroke-width="3" stroke-linejoin="round" stroke-dashoffset="" fill-rule="nonzero" marker-start="" marker-mid="" marker-end="" id="svg_43" points="257.50600049390454,217.01635915393493 257.50600049390454,216.1966870664377 257.50600049390454,215.3770149789404 257.50600049390454,214.55734289144314 257.50600049390454,215.3770149789404 258.3256725814018,215.3770149789404 259.1453446688991,215.3770149789404 " style="color: rgb(218, 3, 174);"/><polyline fill="none" stroke="#da03ae" stroke-width="3" stroke-linejoin="round" stroke-dashoffset="" fill-rule="nonzero" marker-start="" marker-mid="" marker-end="" id="svg_44" points="263.24370510638545,220.29504750392402 264.06337719388273,221.1147195914213 264.06337719388273,221.93439167891862 265.7027213688773,223.5737358539131 265.7027213688773,226.03275211640494 266.5223934563746,227.67209629139947 267.3420655438718,229.311440466394 267.3420655438718,230.1311125538913 268.1617376313691,230.95078464138854 268.1617376313691,230.1311125538913 268.98140971886636,228.49176837889675 268.98140971886636,226.85242420390222 268.98140971886636,225.21308002890763 270.6207538938609,223.5737358539131 270.6207538938609,223.5737358539131 271.4404259813582,223.5737358539131 272.2600980688554,223.5737358539131 273.0797701563527,225.21308002890763 273.89944224385,226.85242420390222 273.89944224385,228.49176837889675 275.53878641884455,229.311440466394 275.53878641884455,230.1311125538913 276.35845850634183,230.1311125538913 " style="color: rgb(218, 3, 174);"/><polyline fill="none" stroke="#da03ae" stroke-width="3" stroke-linejoin="round" stroke-dashoffset="" fill-rule="nonzero" marker-start="" marker-mid="" marker-end="" id="svg_45" points="278.8174747688336,223.5737358539131 278.8174747688336,223.5737358539131 279.6371468563309,224.3934079414104 280.4568189438282,225.21308002890763 281.27649103132546,225.21308002890763 282.91583520631997,225.21308002890763 284.55517938131453,225.21308002890763 285.3748514688118,224.3934079414104 287.0141956438064,222.75406376641584 288.6535398188009,221.1147195914213 288.6535398188009,219.47537541642677 288.6535398188009,217.83603124143224 288.6535398188009,215.3770149789404 287.0141956438064,213.73767080394586 287.0141956438064,212.91799871644855 285.3748514688118,212.09832662895133 284.55517938131453,212.09832662895133 283.73550729381725,212.91799871644855 283.73550729381725,214.55734289144314 283.73550729381725,217.01635915393493 283.73550729381725,219.47537541642677 283.73550729381725,222.75406376641584 284.55517938131453,225.21308002890763 285.3748514688118,228.49176837889675 286.1945235563091,230.95078464138854 287.0141956438064,232.59012881638313 287.0141956438064,233.40980090388038 287.0141956438064,234.2294729913777 " style="color: rgb(218, 3, 174);"/><polyline fill="none" stroke="#0404b8" stroke-width="3" stroke-linejoin="round" stroke-dashoffset="" fill-rule="nonzero" marker-start="" marker-mid="" marker-end="" id="svg_46" points="282.09616311882274,293.24586329118125 281.27649103132546,294.0655353786785 280.4568189438282,294.0655353786785 280.4568189438282,295.70487955367304 280.4568189438282,296.5245516411703 280.4568189438282,298.1638958161649 280.4568189438282,300.62291207865667 280.4568189438282,301.44258416615395 280.4568189438282,303.9016004286458 282.09616311882274,304.721272516143 282.91583520631997,306.3606166911376 284.55517938131453,307.18028877863486 285.3748514688118,307.18028877863486 287.0141956438064,307.18028877863486 288.6535398188009,307.18028877863486 289.47321190629816,306.3606166911376 290.29288399379544,305.5409446036403 291.1125560812927,303.9016004286458 291.93222816879,302.26225625365123 291.93222816879,301.44258416615395 291.93222816879,298.9835679036621 291.1125560812927,296.5245516411703 290.29288399379544,294.88520746617576 288.6535398188009,293.24586329118125 286.1945235563091,292.42619120368397 285.3748514688118,291.6065191161867 283.73550729381725,291.6065191161867 282.09616311882274,292.42619120368397 280.4568189438282,294.0655353786785 279.6371468563309,295.70487955367304 278.8174747688336,298.1638958161649 " style="color: rgb(218, 3, 174);"/></g></svg>