<svg version="1.1" xmlns="http://www.w3.org/2000/svg" xmlns:xlink="http://www.w3.org/1999/xlink" width="800" height="800"><defs/><g transform="scale(2,2)"><g id="background-867ebee9"><rect fill="white" stroke="none" x="0" y="0" width="400" height="400" class="dcg-svg-background"/></g><g id="graphpaper-867ebee9"><g id="grid-867ebee9"><g><path fill="none" stroke="rgb(0,0,0)" class="dcg-svg-minor-gridline" paint-order="fill stroke markers" d=" M 11.5 0 L 11.5 400" stroke-opacity="0.2" stroke-miterlimit="10" stroke-dasharray=""/><path fill="none" stroke="rgb(0,0,0)" class="dcg-svg-minor-gridline" paint-order="fill stroke markers" d=" M 35.5 0 L 35.5 400" stroke-opacity="0.2" stroke-miterlimit="10" stroke-dasharray=""/><path fill="none" stroke="rgb(0,0,0)" class="dcg-svg-minor-gridline" paint-order="fill stroke markers" d=" M 58.5 0 L 58.5 400" stroke-opacity="0.2" stroke-miterlimit="10" stroke-dasharray=""/><path fill="none" stroke="rgb(0,0,0)" class="dcg-svg-minor-gridline" paint-order="fill stroke markers" d=" M 81.5 0 L 81.5 400" stroke-opacity="0.2" stroke-miterlimit="10" stroke-dasharray=""/><path fill="none" stroke="rgb(0,0,0)" class="dcg-svg-minor-gridline" paint-order="fill stroke markers" d=" M 105.5 0 L 105.5 400" stroke-opacity="0.2" stroke-miterlimit="10" stroke-dasharray=""/><path fill="none" stroke="rgb(0,0,0)" class="dcg-svg-minor-gridline" paint-order="fill stroke markers" d=" M 128.5 0 L 128.5 400" stroke-opacity="0.2" stroke-miterlimit="10" stroke-dasharray=""/><path fill="none" stroke="rgb(0,0,0)" class="dcg-svg-minor-gridline" paint-order="fill stroke markers" d=" M 151.5 0 L 151.5 400" stroke-opacity="0.2" stroke-miterlimit="10" stroke-dasharray=""/><path fill="none" stroke="rgb(0,0,0)" class="dcg-svg-minor-gridline" paint-order="fill stroke markers" d=" M 175.5 0 L 175.5 400" stroke-opacity="0.2" stroke-miterlimit="10" stroke-dasharray=""/><path fill="none" stroke="rgb(0,0,0)" class="dcg-svg-minor-gridline" paint-order="fill stroke markers" d=" M 222.5 0 L 222.5 400" stroke-opacity="0.2" stroke-miterlimit="10" stroke-dasharray=""/><path fill="none" stroke="rgb(0,0,0)" class="dcg-svg-minor-gridline" paint-order="fill stroke markers" d=" M 245.5 0 L 245.5 400" stroke-opacity="0.2" stroke-miterlimit="10" stroke-dasharray=""/><path fill="none" stroke="rgb(0,0,0)" class="dcg-svg-minor-gridline" paint-order="fill stroke markers" d=" M 268.5 0 L 268.5 400" stroke-opacity="0.2" stroke-miterlimit="10" stroke-dasharray=""/><path fill="none" stroke="rgb(0,0,0)" class="dcg-svg-minor-gridline" paint-order="fill stroke markers" d=" M 292.5 0 L 292.5 400" stroke-opacity="0.2" stroke-miterlimit="10" stroke-dasharray=""/><path fill="none" stroke="rgb(0,0,0)" class="dcg-svg-minor-gridline" paint-order="fill stroke markers" d=" M 315.5 0 L 315.5 400" stroke-opacity="0.2" stroke-miterlimit="10" stroke-dasharray=""/><path fill="none" stroke="rgb(0,0,0)" class="dcg-svg-minor-gridline" paint-order="fill stroke markers" d=" M 338.5 0 L 338.5 400" stroke-opacity="0.2" stroke-miterlimit="10" stroke-dasharray=""/><path fill="none" stroke="rgb(0,0,0)" class="dcg-svg-minor-gridline" paint-order="fill stroke markers" d=" M 362.5 0 L 362.5 400" stroke-opacity="0.2" stroke-miterlimit="10" stroke-dasharray=""/><path fill="none" stroke="rgb(0,0,0)" class="dcg-svg-minor-gridline" paint-order="fill stroke markers" d=" M 385.5 0 L 385.5 400" stroke-opacity="0.2" stroke-miterlimit="10" stroke-dasharray=""/><path fill="none" stroke="rgb(0,0,0)" class="dcg-svg-minor-gridline" paint-order="fill stroke markers" d=" M 0 388.5 L 400 388.5" stroke-opacity="0.2" stroke-miterlimit="10" stroke-dasharray=""/><path fill="none" stroke="rgb(0,0,0)" class="dcg-svg-minor-gridline" paint-order="fill stroke markers" d=" M 0 365.5 L 400 365.5" stroke-opacity="0.2" stroke-miterlimit="10" stroke-dasharray=""/><path fill="none" stroke="rgb(0,0,0)" class="dcg-svg-minor-gridline" paint-order="fill stroke markers" d=" M 0 341.5 L 400 341.5" stroke-opacity="0.2" stroke-miterlimit="10" stroke-dasharray=""/><path fill="none" stroke="rgb(0,0,0)" class="dcg-svg-minor-gridline" paint-order="fill stroke markers" d=" M 0 318.5 L 400 318.5" stroke-opacity="0.2" stroke-miterlimit="10" stroke-dasharray=""/><path fill="none" stroke="rgb(0,0,0)" class="dcg-svg-minor-gridline" paint-order="fill stroke markers" d=" M 0 295.5 L 400 295.5" stroke-opacity="0.2" stroke-miterlimit="10" stroke-dasharray=""/><path fill="none" stroke="rgb(0,0,0)" class="dcg-svg-minor-gridline" paint-order="fill stroke markers" d=" M 0 271.5 L 400 271.5" stroke-opacity="0.2" stroke-miterlimit="10" stroke-dasharray=""/><path fill="none" stroke="rgb(0,0,0)" class="dcg-svg-minor-gridline" paint-order="fill stroke markers" d=" M 0 248.5 L 400 248.5" stroke-opacity="0.2" stroke-miterlimit="10" stroke-dasharray=""/><path fill="none" stroke="rgb(0,0,0)" class="dcg-svg-minor-gridline" paint-order="fill stroke markers" d=" M 0 201.5 L 400 201.5" stroke-opacity="0.2" stroke-miterlimit="10" stroke-dasharray=""/><path fill="none" stroke="rgb(0,0,0)" class="dcg-svg-minor-gridline" paint-order="fill stroke markers" d=" M 0 178.5 L 400 178.5" stroke-opacity="0.2" stroke-miterlimit="10" stroke-dasharray=""/><path fill="none" stroke="rgb(0,0,0)" class="dcg-svg-minor-gridline" paint-order="fill stroke markers" d=" M 0 154.5 L 400 154.5" stroke-opacity="0.2" stroke-miterlimit="10" stroke-dasharray=""/><path fill="none" stroke="rgb(0,0,0)" class="dcg-svg-minor-gridline" paint-order="fill stroke markers" d=" M 0 131.5 L 400 131.5" stroke-opacity="0.2" stroke-miterlimit="10" stroke-dasharray=""/><path fill="none" stroke="rgb(0,0,0)" class="dcg-svg-minor-gridline" paint-order="fill stroke markers" d=" M 0 108.5 L 400 108.5" stroke-opacity="0.2" stroke-miterlimit="10" stroke-dasharray=""/><path fill="none" stroke="rgb(0,0,0)" class="dcg-svg-minor-gridline" paint-order="fill stroke markers" d=" M 0 84.5 L 400 84.5" stroke-opacity="0.2" stroke-miterlimit="10" stroke-dasharray=""/><path fill="none" stroke="rgb(0,0,0)" class="dcg-svg-minor-gridline" paint-order="fill stroke markers" d=" M 0 61.5 L 400 61.5" stroke-opacity="0.2" stroke-miterlimit="10" stroke-dasharray=""/><path fill="none" stroke="rgb(0,0,0)" class="dcg-svg-minor-gridline" paint-order="fill stroke markers" d=" M 0 37.5 L 400 37.5" stroke-opacity="0.2" stroke-miterlimit="10" stroke-dasharray=""/><path fill="none" stroke="rgb(0,0,0)" class="dcg-svg-minor-gridline" paint-order="fill stroke markers" d=" M 0 14.5 L 400 14.5" stroke-opacity="0.2" stroke-miterlimit="10" stroke-dasharray=""/><path fill="none" stroke="rgb(0,0,0)" class="dcg-svg-major-gridline" paint-order="fill stroke markers" d=" M 11.5 0 L 11.5 400" stroke-opacity="0.2500000000000001" stroke-miterlimit="10" stroke-dasharray=""/><path fill="none" stroke="rgb(0,0,0)" class="dcg-svg-major-gridline" paint-order="fill stroke markers" d=" M 105.5 0 L 105.5 400" stroke-opacity="0.2500000000000001" stroke-miterlimit="10" stroke-dasharray=""/><path fill="none" stroke="rgb(0,0,0)" class="dcg-svg-major-gridline" paint-order="fill stroke markers" d=" M 292.5 0 L 292.5 400" stroke-opacity="0.2500000000000001" stroke-miterlimit="10" stroke-dasharray=""/><path fill="none" stroke="rgb(0,0,0)" class="dcg-svg-major-gridline" paint-order="fill stroke markers" d=" M 385.5 0 L 385.5 400" stroke-opacity="0.2500000000000001" stroke-miterlimit="10" stroke-dasharray=""/><path fill="none" stroke="rgb(0,0,0)" class="dcg-svg-major-gridline" paint-order="fill stroke markers" d=" M 0 318.5 L 400 318.5" stroke-opacity="0.2500000000000001" stroke-miterlimit="10" stroke-dasharray=""/><path fill="none" stroke="rgb(0,0,0)" class="dcg-svg-major-gridline" paint-order="fill stroke markers" d=" M 0 131.5 L 400 131.5" stroke-opacity="0.2500000000000001" stroke-miterlimit="10" stroke-dasharray=""/><path fill="none" stroke="rgb(0,0,0)" class="dcg-svg-major-gridline" paint-order="fill stroke markers" d=" M 0 37.5 L 400 37.5" stroke-opacity="0.2500000000000001" stroke-miterlimit="10" stroke-dasharray=""/></g></g><g id="axis-867ebee9"><g id="yaxis-867ebee9"><title>Y axis</title><g><path fill="none" stroke="rgb(0,0,0)" class="dcg-svg-axis-line" paint-order="fill stroke markers" d=" M 199 0 L 199 400" stroke-opacity="0.9" stroke-miterlimit="10" stroke-width="1.5" stroke-dasharray=""/></g></g><g id="xaxis-867ebee9"><title>X axis</title><g><path fill="none" stroke="rgb(0,0,0)" class="dcg-svg-axis-line" paint-order="fill stroke markers" d=" M 0 225 L 400 225" stroke-opacity="0.9" stroke-miterlimit="10" stroke-width="1.5" stroke-dasharray=""/></g></g><g><g class="dcg-svg-axis-value"><text fill="none" stroke="#ffffff" font-family="Arial" font-size="14px" font-style="normal" font-weight="normal" text-decoration="normal" x="189.83241881609635" y="240.71674720607137" text-anchor="middle" stroke-miterlimit="2" stroke-width="3" stroke-dasharray="">0</text><text fill="#000000" stroke="none" font-family="Arial" font-size="14px" font-style="normal" font-weight="normal" text-decoration="normal" x="189.83241881609635" y="240.71674720607137" text-anchor="middle">0</text></g><g class="dcg-svg-axis-value"><text fill="none" stroke="#ffffff" font-family="Arial" font-size="14px" font-style="normal" font-weight="normal" text-decoration="normal" x="9.45749065225823" y="240.71674720607137" text-anchor="middle" stroke-miterlimit="2" stroke-width="3" stroke-dasharray="">-4</text><text fill="#000000" stroke="none" font-family="Arial" font-size="14px" font-style="normal" font-weight="normal" text-decoration="normal" x="9.45749065225823" y="240.71674720607137" text-anchor="middle">-4</text></g><g class="dcg-svg-axis-value"><text fill="none" stroke="#ffffff" font-family="Arial" font-size="14px" font-style="normal" font-weight="normal" text-decoration="normal" x="102.92596059355229" y="240.71674720607137" text-anchor="middle" stroke-miterlimit="2" stroke-width="3" stroke-dasharray="">-2</text><text fill="#000000" stroke="none" font-family="Arial" font-size="14px" font-style="normal" font-weight="normal" text-decoration="normal" x="102.92596059355229" y="240.71674720607137" text-anchor="middle">-2</text></g><g class="dcg-svg-axis-value"><text fill="none" stroke="#ffffff" font-family="Arial" font-size="14px" font-style="normal" font-weight="normal" text-decoration="normal" x="292.1939551636404" y="240.71674720607137" text-anchor="middle" stroke-miterlimit="2" stroke-width="3" stroke-dasharray="">2</text><text fill="#000000" stroke="none" font-family="Arial" font-size="14px" font-style="normal" font-weight="normal" text-decoration="normal" x="292.1939551636404" y="240.71674720607137" text-anchor="middle">2</text></g><g class="dcg-svg-axis-value"><text fill="none" stroke="#ffffff" font-family="Arial" font-size="14px" font-style="normal" font-weight="normal" text-decoration="normal" x="385.66242510493447" y="240.71674720607137" text-anchor="middle" stroke-miterlimit="2" stroke-width="3" stroke-dasharray="">4</text><text fill="#000000" stroke="none" font-family="Arial" font-size="14px" font-style="normal" font-weight="normal" text-decoration="normal" x="385.66242510493447" y="240.71674720607137" text-anchor="middle">4</text></g><g class="dcg-svg-axis-value"><text fill="none" stroke="#ffffff" font-family="Arial" font-size="14px" font-style="normal" font-weight="normal" text-decoration="normal" x="187.50136412859635" y="322.1852171473653" text-anchor="middle" stroke-miterlimit="2" stroke-width="3" stroke-dasharray="">-2</text><text fill="#000000" stroke="none" font-family="Arial" font-size="14px" font-style="normal" font-weight="normal" text-decoration="normal" x="187.50136412859635" y="322.1852171473653" text-anchor="middle">-2</text></g><g class="dcg-svg-axis-value"><text fill="none" stroke="#ffffff" font-family="Arial" font-size="14px" font-style="normal" font-weight="normal" text-decoration="normal" x="189.83241881609635" y="135.24827726477744" text-anchor="middle" stroke-miterlimit="2" stroke-width="3" stroke-dasharray="">2</text><text fill="#000000" stroke="none" font-family="Arial" font-size="14px" font-style="normal" font-weight="normal" text-decoration="normal" x="189.83241881609635" y="135.24827726477744" text-anchor="middle">2</text></g><g class="dcg-svg-axis-value"><text fill="none" stroke="#ffffff" font-family="Arial" font-size="14px" font-style="normal" font-weight="normal" text-decoration="normal" x="189.83241881609635" y="41.77980732348352" text-anchor="middle" stroke-miterlimit="2" stroke-width="3" stroke-dasharray="">4</text><text fill="#000000" stroke="none" font-family="Arial" font-size="14px" font-style="normal" font-weight="normal" text-decoration="normal" x="189.83241881609635" y="41.77980732348352" text-anchor="middle">4</text></g></g></g></g><g id="expressions-867ebee9"><g id="sketch-867ebee9"><title>Выражение 1</title><path fill="#000000" stroke="none" paint-order="stroke fill markers" d="" fill-opacity="0.4"/><g><path fill="none" stroke="#000000" class="dcg-svg-curve" paint-order="fill stroke markers" d=" M 0 224.2436150194321 L 8.798387915555557 224.0751807966447 M 14.397362043636363 223.96799538214364 L 23.19574995919192 223.79956115935627 M 28.794000085271957 223.66374898018685 L 37.589653933179264 223.3872107589708 M 43.18688820002937 223.21123189092424 L 46.875 223.09527645492759 M 46.875 223.09527645492759 L 51.979516503709064 222.85719271816282 M 57.57343514835425 222.59628239431385 L 63.57421875000003 222.31639516457162 M 63.57421875000003 222.31639516457162 L 66.36108099532197 222.13603030550786 M 71.94938952406804 221.7743567129634 L 77.63671875000001 221.4062745316477 M 77.63671875000001 221.4062745316477 L 80.72618137411925 221.14168324383175 M 86.30575637087128 220.663830907205 L 89.84375 220.36082601460407 M 89.84375 220.36082601460407 L 95.0616687056655 219.78994770244194 M 100.62831404728753 219.1797871233789 L 109.3479850519358 217.99347452937323 M 114.87660708670448 217.10423967353327 L 119.04296875000001 216.41387119578715 M 119.04296875000001 216.41387119578715 L 123.53240417003684 215.52374308743765 M 129.0110423675826 214.36780310740556 L 134.47265625 213.0907768241815 M 134.47265625 213.0907768241815 L 137.55162030945414 212.2523557879379 M 142.9365245639522 210.71837919214485 L 147.75390625 209.20643416053295 M 147.75390625 209.20643416053295 L 151.28453510765402 207.9398999822775 M 156.51169197308263 205.93417326124222 L 159.5703125 204.6891833033088 M 159.5703125 204.6891833033088 L 164.56685558738428 202.3958657581273 M 169.55697622850644 199.85550863964778 L 170.21484375 199.51715861291913 M 170.21484375 199.51715861291913 L 175.1953125 196.66172651209064 M 175.1953125 196.66172651209064 L 177.15131733034255 195.4155126300381 M 181.81804455350718 192.32276257326845 L 184.765625 190.24239244520322 M 184.765625 190.24239244520322 L 188.8608352539497 187.05048604505643 M 193.12778915637767 183.42473912358653 L 193.84765625 182.80641253901348 M 193.84765625 182.80641253901348 L 198.2421875 178.65531956079062 M 198.2421875 178.65531956079062 L 199.49598691490073 177.3555842265177 M 203.34293688228675 173.28744106248203 L 206.8359375 169.31775865324357 M 206.8359375 169.31775865324357 L 209.03587349903816 166.5797377565501 M 212.46055763701017 162.1506220311289 L 215.234375 158.37379316799874 M 215.234375 158.37379316799874 L 217.52907897716304 154.9592046429458 M 220.57529219878904 150.26144234125888 L 223.2421875 145.93817154749837 M 223.2421875 145.93817154749837 L 225.0796390276054 142.70325869248302 M 227.79769180576483 137.8078683155306 L 230.76171875 132.15248929686396 M 230.76171875 132.15248929686396 L 231.81488605262368 129.9792754513238 M 234.25705609697513 124.93985033783393 L 234.375 124.69647274491767 M 234.375 124.69647274491767 L 237.86895723541707 116.91537518256965 M 240.02528679733138 111.74720060655167 L 241.30859375 108.66922867627414 M 241.30859375 108.66922867627414 L 243.2834157526457 103.57328341896392 M 245.2713763719175 98.33835959010213 L 248.046875 90.64100845641528 M 248.046875 90.64100845641528 L 248.24348427389265 90.05559936300006 M 250.0263762017747 84.74699348447668 L 251.3671875 80.75469387930383 M 251.3671875 80.75469387930383 L 252.7384213026659 76.3758131827671 M 254.41191148905594 71.03171077019525 L 254.58984375 70.46350413670623 M 254.58984375 70.46350413670623 L 256.8915865668916 62.588404143017335 M 258.42240960005574 57.20192974033716 L 260.7384605179077 48.7121766140138 M 262.13990432565674 43.29050326815942 L 264.16015625 35.36473669341444 M 264.16015625 35.36473669341444 L 264.304127711746 34.760854345014856 M 265.60282413242385 29.313525861536146 L 267.28515625 22.257053296562106 M 267.28515625 22.257053296562106 L 267.6215806046369 20.74835110255473 M 268.8403858880823 15.282592812889376 L 270.41015625 8.24292414303605 M 270.41015625 8.24292414303605 L 270.73426676011337 6.688929987796297 M 271.87763354307447 1.2068945629179426 L 273.1721813740454 -5" stroke-linecap="round" stroke-linejoin="round" stroke-miterlimit="10" stroke-width="2" stroke-dasharray=""/></g></g><g id="sketch-867ebee9"><title>Выражение 2</title><path fill="#000000" stroke="none" paint-order="stroke fill markers" d="" fill-opacity="0.4"/><g><path fill="none" stroke="#000000" class="dcg-svg-curve" paint-order="fill stroke markers" d=" M 124.29118080919784 -5 L 125.29296875 -0.013744355902417738 M 125.29296875 -0.013744355902417738 L 126.07297957323533 3.617531128061782 M 127.24905300212966 9.092643116856962 L 128.41796875 14.534433117225547 M 128.41796875 14.534433117225547 L 129.14256756417524 17.686296594031464 M 130.3972522861338 23.14393035313291 L 131.640625 28.55235908393712 M 131.640625 28.55235908393712 L 132.41801136871985 31.708519158836072 M 133.75730654316604 37.1460083253269 L 134.86328125 41.63622497178747 M 134.86328125 41.63622497178747 L 135.9287094976524 45.673595695988034 M 137.3575871189431 51.0882340720363 L 138.0859375 53.84827024708517 M 138.0859375 53.84827024708517 L 139.70349934810034 59.569476958844994 M 141.22706832720706 64.95823725838548 L 141.30859375 65.24658715771687 M 141.30859375 65.24658715771687 L 143.7752305400536 73.38117984172645 M 145.4517643866153 78.724026094821 L 147.94921875 86.39539706080441 M 147.94921875 86.39539706080441 L 148.19085427476236 87.0867200891784 M 150.03858523169433 92.3731073537283 L 151.26953125 95.89486322955364 M 151.26953125 95.89486322955364 L 153.05219090935236 100.64039835158935 M 155.04336021633924 105.87418680088241 L 158.10546875 113.45079179872272 M 158.10546875 113.45079179872272 L 158.35610702562525 114.02661694704547 M 160.59106926826882 119.16129744089876 L 161.62109375 121.52771174250263 M 161.62109375 121.52771174250263 L 164.2653598554271 127.15669831627142 M 166.73733300061198 132.1808715873738 L 168.84765625 136.3389850757004 M 168.84765625 136.3389850757004 L 170.8382477668 139.96562114691773 M 173.59366527939235 144.83994028943556 L 176.3671875 149.5024591664589 M 176.3671875 149.5024591664589 L 178.19988691030395 152.33641200358343 M 181.29424073287666 157.00274076205483 L 184.47265625 161.50942503864954 M 184.47265625 161.50942503864954 L 186.4794888951232 164.11047368750124 M 189.96500516440148 168.49193117177506 L 193.06640625 172.1585436754396 M 193.06640625 172.1585436754396 L 195.78611031487534 175.08843675472914 M 199.70161320050914 179.08990998755368 L 201.85546875 181.20198312110693 M 201.85546875 181.20198312110693 L 206.17204348588703 185.0509780311611 M 210.51816163284963 188.58203444774432 L 210.9375 188.921332227765 M 210.9375 188.921332227765 L 215.625 192.3557940870289 M 215.625 192.3557940870289 L 217.66745797498567 193.70806652909224 M 222.3946477959028 196.707543520953 L 225.390625 198.4944017757772 M 225.390625 198.4944017757772 L 230.07405263200476 201.00017383981148 M 235.11514783793191 203.4377039225902 L 235.9375 203.83075352350812 M 235.9375 203.83075352350812 L 241.50390625 206.1975548983562 M 241.50390625 206.1975548983562 L 243.22588471140972 206.8455224974296 M 248.48305319642435 208.77258751236616 L 253.61328125 210.46862751553897 M 253.61328125 210.46862751553897 L 256.87726843972354 211.4087711624172 M 262.2782427898767 212.88514961163392 L 267.28515625 214.13119743011487 M 267.28515625 214.13119743011487 L 270.8457952411949 214.88890346425512 M 276.33206338498496 216.0090561346579 L 283.10546875 217.22621900984768 M 283.10546875 217.22621900984768 L 285.0024750597065 217.5099201747534 M 290.5408820622841 218.3382002444156 L 292.08984375 218.56985062583541 M 292.08984375 218.56985062583541 L 299.27017360930137 219.44786094966713 M 304.8363986319612 220.0582749056435 L 312.890625 220.8469801152874 M 312.890625 220.8469801152874 L 313.5958223778273 220.90081175901742 M 319.1795774056441 221.32705088126022 L 325.29296875 221.79372009356698 M 325.29296875 221.79372009356698 L 327.9573987627388 221.94678163042192 M 333.54818136651784 222.267951176428 L 339.55078125 222.6127780845841 M 339.55078125 222.6127780845841 L 342.33590968385323 222.72782961752708 M 347.9311377215619 222.95896422341428 L 356.25 223.30261008399376 M 356.25 223.30261008399376 L 356.72385848317504 223.31583064035638 M 362.32168023817803 223.47200874130348 L 371.11825728175415 223.71743147136323 M 376.7161382365248 223.87100268469987 L 385.5147880594623 224.0251496707927 M 391.1139288558771 224.12324320739722 L 399.9125786788146 224.27739019349005" stroke-linecap="round" stroke-linejoin="round" stroke-miterlimit="10" stroke-width="2" stroke-dasharray=""/></g></g><g id="sketch-867ebee9"><title>Выражение 3</title><path fill="#c74440" stroke="none" paint-order="stroke fill markers" d="" fill-opacity="0.4"/><g><path fill="none" stroke="#c74440" class="dcg-svg-curve" paint-order="fill stroke markers" d=" M 102.40812147891778 405.5 L 102.40812147891778 405.5 L 105.2734375 394.34552057425856 L 108.59375000000001 382.2753851674494 L 111.9140625 370.9999127450285 L 115.33203125 360.16284536796536 L 118.75 350.049563540241 L 122.265625 340.34546008574466 L 125.78125 331.2949137632301 L 129.39453125 322.6201396780535 L 133.10546875 314.3187346741668 L 136.9140625 306.38492076648936 L 140.91796875 298.6270982047589 L 145.01953125 291.24100085129527 L 149.31640625 284.0506132363081 L 153.80859375 277.0673928770922 L 158.59375 270.1577783717287 L 163.76953125 263.216534108189 L 169.3359375 256.2740843925632 L 175.29296875 249.33550711987638 L 181.93359375 242.0642859106901 L 190.0390625 233.64527151800803 L 219.04296875 203.94517601015446 L 225.390625 196.77306847605746 L 231.15234375 189.81661800126318 L 236.52343749999997 182.85308180882086 L 241.6015625 175.75956797213732 L 246.2890625 168.69816105290977 L 250.68359375 161.56549732824058 L 254.8828125 154.22707759944035 L 258.88671875 146.6990671781964 L 262.79296875 138.80155606280502 L 266.6015625 130.52240982160637 L 270.21484375 122.08897027832126 L 273.828125 113.04059993572156 L 277.34375 103.59510639913891 L 280.76171875 93.75401057197789 L 284.08203125 83.52253833419482 L 287.40234375 72.57710036549827 L 290.72265625 60.86242488456077 L 293.9453125 48.70067671554577 L 297.16796875 35.700713269745364 L 300.390625 21.80069420166592 L 303.515625 7.399854161386514 L 306.1377613063204 -5.5" stroke-linecap="round" stroke-linejoin="round" stroke-miterlimit="10" stroke-width="2.5" stroke-dasharray=""/></g></g><g id="sketch-867ebee9"><title>Выражение 4</title><path fill="#2d70b3" stroke="none" paint-order="stroke fill markers" d="" fill-opacity="0.4"/><g><path fill="none" stroke="#2d70b3" class="dcg-svg-curve" paint-order="fill stroke markers" d=" M 92.27713867914707 -5.5 L 92.27713867914707 -5.5 L 94.82421874999999 6.532783524713778 L 97.94921875000001 20.318967164915108 L 101.07421875000001 33.19003613521417 L 104.19921875000003 45.20356175725618 L 107.42187500000001 56.75118749300742 L 110.64453125000001 67.49889393410865 L 113.8671875 77.49780752274964 L 117.08984375 86.79549272120471 L 120.41015625000001 95.6882029800158 L 123.73046875000001 103.92838113514055 L 127.05078125000001 111.5576380683356 L 130.46875 118.81376109283461 L 133.88671875 125.50213778765007 L 137.40234375 131.82697490692325 L 141.015625 137.77867178596682 L 144.7265625 143.34912498201894 L 148.53515625 148.5314610508158 L 152.34375 153.20626492681953 L 156.15234375 157.40460099554963 L 159.86328125 161.06361214047584 L 163.57421875 164.31985710698828 L 167.1875 167.1229847844207 L 170.80078125 169.58051508616614 L 174.4140625 171.7071456814664 L 177.9296875 173.47080409924666 L 181.4453125 174.94324117389164 L 184.9609375 176.13279326328538 L 188.4765625 177.0461951421152 L 191.9921875 177.68861813150926 L 195.5078125 178.06369937701672 L 199.0234375 178.1735624406913 L 202.5390625 178.01882932386187 L 206.0546875 177.59862398865846 L 209.5703125 176.91056739823168 L 213.0859375 175.95076404758436 L 216.6015625 174.71377990875888 L 220.1171875 173.19261166551468 L 223.6328125 171.378647063314 L 227.1484375 169.26161615013413 L 230.6640625 166.8295331320503 L 234.1796875 164.06862851439837 L 237.79296875 160.87192933451618 L 241.40625 157.29224730079076 L 245.01953125 153.30817352866634 L 248.73046875 148.77044489142438 L 252.44140624999997 143.75239879502635 L 256.15234375 138.2223789629639 L 259.765625 132.3127387519825 L 263.28125 126.03160782410411 L 266.69921875 119.38859485813622 L 270.1171875 112.18091167166186 L 273.4375 104.60190184252217 L 276.7578125 96.41537190608744 L 279.98046875 87.84951780237813 L 283.203125 78.63167801157294 L 286.42578125 68.71800361057714 L 289.55078125 58.395661177998335 L 292.67578125 47.328518258687865 L 295.80078125 35.467072356297365 L 298.92578125 22.758268117087994 L 302.05078125 9.145260017329548 L 305.17578125 -5.432841902442561 L 305.1892416417317 -5.5" stroke-linecap="round" stroke-linejoin="round" stroke-miterlimit="10" stroke-width="2.5" stroke-dasharray=""/></g></g></g><g id="labels-867ebee9"/><g id="labels-867ebee9"/></g></svg>