<?xml version="1.0" encoding="UTF-8" standalone="no"?>
<!-- Created with Inkscape (http://www.inkscape.org/) -->

<svg
   xmlns:dc="http://purl.org/dc/elements/1.1/"
   xmlns:cc="http://creativecommons.org/ns#"
   xmlns:rdf="http://www.w3.org/1999/02/22-rdf-syntax-ns#"
   xmlns:svg="http://www.w3.org/2000/svg"
   xmlns="http://www.w3.org/2000/svg"
   xmlns:sodipodi="http://sodipodi.sourceforge.net/DTD/sodipodi-0.dtd"
   xmlns:inkscape="http://www.inkscape.org/namespaces/inkscape"
   width="297mm"
   height="210mm"
   viewBox="0 0 297 210"
   version="1.1"
   id="svg6822"
   inkscape:version="0.92.1 r15371"
   sodipodi:docname="corner-point.svg">
  <defs
     id="defs6816" />
  <sodipodi:namedview
     id="base"
     pagecolor="#ffffff"
     bordercolor="#666666"
     borderopacity="1.0"
     inkscape:pageopacity="0.0"
     inkscape:pageshadow="2"
     inkscape:zoom="0.98994949"
     inkscape:cx="551.61385"
     inkscape:cy="407.62621"
     inkscape:document-units="mm"
     inkscape:current-layer="layer1"
     showgrid="false"
     inkscape:window-width="1920"
     inkscape:window-height="1046"
     inkscape:window-x="-11"
     inkscape:window-y="-11"
     inkscape:window-maximized="1" />
  <metadata
     id="metadata6819">
    <rdf:RDF>
      <cc:Work
         rdf:about="">
        <dc:format>image/svg+xml</dc:format>
        <dc:type
           rdf:resource="http://purl.org/dc/dcmitype/StillImage" />
        <dc:title></dc:title>
      </cc:Work>
    </rdf:RDF>
  </metadata>
  <g
     inkscape:label="Layer 1"
     inkscape:groupmode="layer"
     id="layer1"
     transform="translate(0,-87)">
    <path
       style="opacity:1;fill:#da03ae;fill-opacity:1;fill-rule:nonzero;stroke:#da03ae;stroke-width:0.1;stroke-linecap:round;stroke-linejoin:round;stroke-miterlimit:4;stroke-dasharray:none;stroke-dashoffset:0;stroke-opacity:1;paint-order:markers fill stroke"
       id="path7385"
       d="m 82.226903,167.13537 c 0.110736,-0.36482 0.311026,-0.68988 0.524185,-1.00237 0.329012,-0.48616 0.732962,-0.91385 1.149929,-1.32449 0.518046,-0.51884 1.093441,-0.97191 1.681305,-1.4077 0.663012,-0.4854 1.376791,-0.89104 2.113182,-1.25262 0.768192,-0.3741 1.576798,-0.64196 2.403748,-0.84932 0.850037,-0.19758 1.717252,-0.27009 2.587736,-0.2513 0.89739,0.0254 1.764239,0.2403 2.610231,0.52504 0.914802,0.31511 1.733561,0.82425 2.517214,1.38126 0.832162,0.60503 1.570908,1.32038 2.272607,2.06929 0.71877,0.77325 1.37626,1.59764 2.00576,2.44411 0.61851,0.84715 1.15884,1.74658 1.6915,2.64895 0.48556,0.83894 0.94168,1.69403 1.37902,2.55892 0.37816,0.7639 0.7281,1.54116 1.07676,2.3188 0.21013,0.47755 0.45,0.94097 0.71131,1.39231 0.19324,0.32112 0.28515,0.24617 -0.10273,0.10434 -0.41111,-0.0512 -0.56195,0.44101 -0.52378,0.0715 0.036,-0.43911 0.0477,-0.87982 0.0607,-1.32009 0.0349,-0.70359 0.0786,-1.40659 0.1332,-2.10891 0.0595,-0.84439 0.15509,-1.68566 0.27048,-2.52408 0.13286,-0.90016 0.32162,-1.78968 0.56339,-2.6665 0.25414,-0.919 0.60773,-1.80357 1.02493,-2.65947 0.42677,-0.91748 1.01099,-1.73799 1.63459,-2.52906 0.69384,-0.86998 1.51715,-1.61513 2.38157,-2.30993 0.92501,-0.74827 1.95058,-1.35083 2.9926,-1.91799 1.05598,-0.56912 2.16581,-1.02758 3.29622,-1.42485 1.08257,-0.37476 2.19971,-0.63084 3.32399,-0.84231 1.02563,-0.19383 2.06642,-0.28187 3.10857,-0.31056 0.92063,-0.0165 1.83717,0.0545 2.74636,0.194 0.82699,0.12811 1.6205,0.3876 2.39861,0.68767 0.70544,0.28609 1.3889,0.62365 2.06188,0.9786 0.41262,0.20629 0.81849,0.42461 1.20878,0.67063 2.39531,1.51615 1.68058,2.64531 -0.71472,1.12915 v 0 c -0.35975,-0.22891 -0.73763,-0.42584 -1.11804,-0.61805 -0.62657,-0.33125 -1.26331,-0.64556 -1.91965,-0.91384 -0.68814,-0.26658 -1.38913,-0.49936 -2.12096,-0.61349 -0.82961,-0.12921 -1.66618,-0.19216 -2.50642,-0.17881 -0.97154,0.0253 -1.9418,0.10814 -2.89795,0.28813 -1.05802,0.19802 -2.10932,0.43834 -3.12822,0.78994 -1.06329,0.372 -2.1065,0.80383 -3.09984,1.33767 -0.97257,0.52881 -1.93142,1.08816 -2.79479,1.78633 -0.78679,0.63035 -1.53686,1.30566 -2.16891,2.09551 -0.56554,0.71594 -1.09816,1.45613 -1.48316,2.2883 -0.38314,0.78073 -0.70406,1.58946 -0.93736,2.42834 -0.227,0.81964 -0.40231,1.65157 -0.52765,2.49308 -0.11214,0.81217 -0.2043,1.6272 -0.26198,2.44518 -0.053,0.68094 -0.0952,1.36251 -0.12975,2.04465 -0.0141,0.47928 -0.0267,0.95917 -0.0693,1.43696 -0.0709,0.56517 -0.26422,1.05251 -0.91618,1.10385 -0.5072,-0.14279 -0.67989,-0.31913 -0.94163,-0.76745 -0.2833,-0.4913 -0.54526,-0.99464 -0.77358,-1.51408 -0.34016,-0.75871 -0.68137,-1.51713 -1.04996,-2.2626 -0.42408,-0.83908 -0.86658,-1.66852 -1.33725,-2.48254 -0.50862,-0.86172 -1.0234,-1.72135 -1.61314,-2.53098 -0.59915,-0.80628 -1.224694,-1.59164 -1.908954,-2.32819 -0.640207,-0.68481 -1.313397,-1.33987 -2.072408,-1.89413 -0.67619,-0.48313 -1.380511,-0.92897 -2.170609,-1.20394 -0.717241,-0.24495 -1.452137,-0.4307 -2.214066,-0.45475 -0.75062,-0.021 -1.498121,0.0464 -2.231773,0.21201 -0.736306,0.18234 -1.455235,0.4211 -2.13922,0.75279 -0.664189,0.32439 -1.307166,0.68998 -1.905341,1.12617 -0.538332,0.39876 -1.066456,0.81177 -1.540386,1.28728 -0.357396,0.35018 -0.704844,0.71448 -0.986435,1.12999 -0.133893,0.19094 -0.261993,0.38909 -0.339305,0.61073 -0.778785,2.72575 -2.063715,2.35863 -1.28493,-0.36712 z"
       inkscape:connector-curvature="0" />
    <path
       style="opacity:1;fill:#000000;fill-opacity:1;fill-rule:nonzero;stroke:#000000;stroke-width:0.1;stroke-linecap:round;stroke-linejoin:round;stroke-miterlimit:4;stroke-dasharray:none;stroke-dashoffset:0;stroke-opacity:1;paint-order:markers fill stroke"
       id="path7387"
       d="m 36.467666,130.9082 c -0.02302,0.24597 -0.01191,0.49545 -0.01035,0.74255 -0.0058,0.44215 0.02812,0.88321 0.05282,1.32436 0.02477,0.6293 0.06604,1.25744 0.10854,1.88574 0.04563,0.81429 0.101597,1.62776 0.159287,2.44127 0.06892,0.96778 0.118359,1.93677 0.162782,2.90593 0.04733,1.04924 0.08093,2.09903 0.111818,3.14886 0.02053,1.08117 0.07357,2.16121 0.121055,3.24142 0.03714,1.09068 0.105627,2.17982 0.167243,3.26929 0.05993,1.09538 0.143672,2.18928 0.213064,3.2841 0.0663,1.10436 0.155771,2.20715 0.231214,3.31092 0.07111,1.09376 0.16424,2.18594 0.242935,3.27918 0.07229,1.0703 0.169048,2.13874 0.250748,3.20835 0.07815,1.03437 0.14064,2.0698 0.19771,3.10551 0.05298,0.96962 0.09532,1.93978 0.133893,2.91007 0.03579,0.90413 0.06426,1.80852 0.09028,2.71298 0.02098,0.85255 0.05153,1.70502 0.05311,2.55789 -0.0062,0.79193 -0.02244,1.58375 -0.03565,2.37559 -0.01569,0.74613 -0.01508,1.49258 -0.03983,2.23848 -0.03207,0.73232 -0.06782,1.46447 -0.09827,2.19687 -0.04051,0.71025 -0.03329,1.42153 -0.02707,2.1325 0.01085,0.70279 0.006,1.40589 0.02835,2.10843 0.02938,0.68638 0.0627,1.37258 0.09144,2.05898 0.02781,0.66643 0.05008,1.33306 0.06983,1.99977 0.01879,0.64546 0.03363,1.29102 0.04724,1.9366 0.01273,0.61086 0.02273,1.22176 0.03186,1.83268 0.0053,0.57664 0.04741,1.15221 0.07994,1.72778 0.0325,0.57188 0.05843,1.14409 0.08192,1.7164 0.02267,0.56029 0.04004,1.12079 0.05585,1.68132 0.01532,0.55201 0.02701,1.10412 0.03764,1.65625 0.01035,0.54637 0.0182,1.09278 0.02537,1.6392 -0.0043,0.53228 0.0309,1.06331 0.06216,1.59433 0.02561,0.49895 0.08891,0.99459 0.121902,1.49302 0.186502,2.82868 -1.14695,2.9166 -1.333453,0.0879 v 0 c -0.03293,-0.50155 -0.09816,-1.00021 -0.122486,-1.50239 -0.03246,-0.55135 -0.06831,-1.10275 -0.06436,-1.65538 -0.0071,-0.54368 -0.01495,-1.08735 -0.02524,-1.63098 -0.01056,-0.54814 -0.02215,-1.09626 -0.03736,-1.64429 -0.01564,-0.55483 -0.03283,-1.10961 -0.05526,-1.6642 -0.0232,-0.56544 -0.04881,-1.13078 -0.08092,-1.6958 -0.03357,-0.59403 -0.07666,-1.18807 -0.08192,-1.78321 -0.0091,-0.60818 -0.01905,-1.21635 -0.03171,-1.82448 -0.01352,-0.64178 -0.02828,-1.28354 -0.04695,-1.9252 -0.01958,-0.66126 -0.04167,-1.32245 -0.06925,-1.98344 -0.02893,-0.69108 -0.06261,-1.38195 -0.09195,-2.07301 -0.02201,-0.71263 -0.01865,-1.42575 -0.02895,-2.13862 -0.0064,-0.73338 -0.01318,-1.46706 0.02817,-2.1997 0.03031,-0.72883 0.06575,-1.45742 0.09786,-2.18617 0.02506,-0.73837 0.02307,-1.47737 0.03926,-2.21597 0.0131,-0.78373 0.02907,-1.56743 0.03546,-2.35124 -0.0011,-0.84074 -0.03246,-1.68108 -0.05256,-2.52151 -0.02588,-0.89957 -0.05419,-1.79908 -0.08978,-2.69833 -0.03829,-0.96347 -0.08033,-1.92681 -0.132921,-2.88963 -0.05654,-1.02628 -0.118436,-2.0523 -0.195855,-3.07725 -0.08183,-1.07155 -0.178808,-2.14193 -0.25118,-3.21418 -0.07879,-1.09485 -0.172109,-2.18863 -0.243271,-3.284 -0.07558,-1.10597 -0.165269,-2.21096 -0.231651,-3.31752 -0.06957,-1.09784 -0.15358,-2.19476 -0.213606,-3.29316 -0.06193,-1.09507 -0.130685,-2.18979 -0.168087,-3.28607 -0.04777,-1.08667 -0.10102,-2.17317 -0.121766,-3.26081 -0.03067,-1.04253 -0.06401,-2.08502 -0.110993,-3.12697 -0.0439,-0.95804 -0.09272,-1.91591 -0.16084,-2.87259 -0.05778,-0.81495 -0.113874,-1.62987 -0.159586,-2.44561 -0.04285,-0.63344 -0.08444,-1.26675 -0.109496,-1.9012 -0.02593,-0.4632 -0.06063,-0.92637 -0.05489,-1.39063 -0.0019,-0.31309 -0.01466,-0.62867 0.02376,-0.93999 0.400905,-2.80632 1.723821,-2.61734 1.322917,0.18899 z"
       inkscape:connector-curvature="0" />
    <path
       style="opacity:1;fill:#000000;fill-opacity:1;fill-rule:nonzero;stroke:#000000;stroke-width:0.1;stroke-linecap:round;stroke-linejoin:round;stroke-miterlimit:4;stroke-dasharray:none;stroke-dashoffset:0;stroke-opacity:1;paint-order:markers fill stroke"
       id="path7389"
       d="m 35.803903,127.70194 c -0.166452,0.23293 -0.312796,0.47933 -0.455353,0.72736 -0.205237,0.36674 -0.391755,0.7432 -0.573971,1.12176 -0.191149,0.39722 -0.379373,0.79518 -0.612773,1.16968 -0.35257,0.51923 -0.663733,0.70585 -1.299191,0.46829 -0.435854,-0.30954 -0.513199,-0.78758 -0.551365,-1.28496 -0.02066,-0.53904 0.03344,-1.0765 0.112516,-1.60886 0.09091,-0.60737 0.226608,-1.20611 0.408139,-1.79251 0.174686,-0.57532 0.476131,-1.07312 0.90593,-1.48941 0.466098,-0.38909 1.001848,-0.46714 1.58414,-0.37334 0.566537,0.13767 1.023104,0.49856 1.45297,0.87429 0.479346,0.43034 0.911767,0.9082 1.32302,1.40294 0.371343,0.4528 0.698614,0.93815 1.009827,1.43338 1.506667,2.40129 0.37469,3.11154 -1.131977,0.71025 v 0 c -0.279178,-0.44571 -0.572993,-0.88239 -0.906137,-1.29014 -0.366046,-0.44174 -0.751168,-0.86827 -1.177528,-1.25319 -0.244473,-0.21703 -0.499716,-0.44039 -0.807231,-0.56238 -0.157207,-0.0361 -0.288428,-0.0613 -0.433853,0.0338 -0.276797,0.23903 -0.429758,0.56857 -0.543362,0.91148 -0.163631,0.52052 -0.280111,1.0538 -0.362402,1.59322 -0.06608,0.4346 -0.110924,0.87311 -0.101238,1.31338 0.01474,0.21934 0.134274,0.42862 -0.131005,0.21467 -0.4821,-0.12438 -0.700056,0.26266 -0.482675,-0.012 0.210048,-0.33004 0.366422,-0.68881 0.540227,-1.03845 0.196588,-0.40789 0.39788,-0.81351 0.619694,-1.20842 0.157419,-0.27324 0.318836,-0.54487 0.501689,-0.80208 1.572475,-2.35871 2.684383,-1.61744 1.111909,0.74127 z"
       inkscape:connector-curvature="0" />
    <path
       style="opacity:1;fill:#000000;fill-opacity:1;fill-rule:nonzero;stroke:#000000;stroke-width:0.1;stroke-linecap:round;stroke-linejoin:round;stroke-miterlimit:4;stroke-dasharray:none;stroke-dashoffset:0;stroke-opacity:1;paint-order:markers fill stroke"
       id="path7393"
       d="m 41.042084,210.55293 c 0.271833,0.0319 0.54089,0.0828 0.811512,0.12346 0.410424,0.0607 0.824216,0.0939 1.237776,0.12438 0.649608,0.0438 1.300374,0.0665 1.951035,0.0876 0.914863,0.0277 1.830004,0.0446 2.745144,0.0599 1.122837,0.0181 2.245763,0.0297 3.368689,0.0405 1.252712,0.0118 2.505458,0.0199 3.758202,0.0273 1.322628,0.008 2.645267,0.0133 3.967909,0.0185 1.352616,0.005 2.705235,0.009 4.057856,0.0125 1.351013,0.003 2.702031,0.006 4.053046,0.008 1.331008,0.002 2.662018,0.004 3.993026,0.006 1.293264,0.004 2.586344,0.007 3.879442,-0.0156 1.263076,-0.0258 2.526157,-0.0512 3.789296,-0.0738 1.248664,-0.022 2.497413,-0.0388 3.746178,-0.0539 1.276702,-0.005 2.552842,-0.0332 3.828994,-0.0689 1.332349,-0.029 2.663949,-0.0769 3.99547,-0.13107 1.366978,-0.0568 2.734376,-0.10227 4.101912,-0.14309 1.383057,-0.0309 2.765473,-0.0773 4.147796,-0.13108 1.40484,-0.0461 2.808963,-0.10663 4.212963,-0.17309 1.40702,-0.0711 2.81528,-0.11344 4.22252,-0.17909 1.36644,-0.0704 2.73309,-0.13589 4.10009,-0.19438 1.31476,-0.0558 2.63,-0.0991 3.94532,-0.13906 1.26472,-0.052 2.52905,-0.11288 3.79373,-0.16581 1.21003,-0.0503 2.42044,-0.0903 3.63096,-0.12667 1.12925,-0.0225 2.25726,-0.0789 3.3854,-0.13137 1.05721,-0.0493 2.11474,-0.0912 3.17243,-0.12879 0.98787,-0.0348 1.97596,-0.0626 2.96411,-0.0881 0.91695,-0.0235 1.83402,-0.0422 2.75111,-0.0594 0.87662,-0.0161 1.7533,-0.0286 2.63,-0.0401 0.83693,-0.0109 1.6739,-0.0193 2.51087,-0.027 0.80179,-0.007 1.60359,-0.013 2.4054,-0.0182 0.75777,-0.005 1.51555,-0.009 2.27334,-0.0123 0.71038,-0.003 1.42077,-0.006 2.13116,-0.008 0.6666,-0.002 1.33319,-0.004 1.99979,-0.006 0.62405,-0.002 1.2481,-0.003 1.87216,-0.004 0.60585,-0.001 1.21171,-0.002 1.81757,-0.003 0.6,-7.9e-4 1.19999,-0.001 1.79999,-0.002 0.56958,0.003 1.13854,-0.0332 1.70729,-0.0599 0.56743,-0.0269 1.1351,-0.0485 1.70283,-0.0681 0.55727,-0.0189 1.11467,-0.0334 1.6721,-0.0465 0.54995,-0.0128 1.09995,-0.0225 1.64997,-0.0314 0.54497,-0.009 1.08996,-0.0152 1.63496,-0.0211 0.54159,-0.006 1.08319,-0.0102 1.62479,-0.0143 0.53931,-0.004 1.07861,-0.007 1.61792,-0.01 0.53775,-0.003 1.07551,-0.005 1.61327,-0.006 0.53671,-0.002 1.07342,-0.003 1.61014,-0.004 0.536,-0.001 1.072,-0.002 1.60801,-0.003 0.50897,0.0109 1.01696,-0.0196 1.52488,-0.0472 0.49105,-0.0268 0.98234,-0.0425 1.47197,-0.0895 0.22384,-0.0454 0.51167,-0.0233 0.70927,-0.15979 -0.0955,0.0132 -0.13082,0.12531 -0.15959,0.20544 -0.0772,-0.13552 -0.16016,-0.27209 -0.24324,-0.40575 -0.20628,-0.26334 -0.33543,-0.55516 -0.3914,-0.88307 -0.0223,-0.51039 0.27733,-0.84623 0.7385,-1.00824 0.35113,-0.10054 0.70752,-0.0619 1.05723,0.0187 0.43787,0.11333 0.78608,0.36552 1.07705,0.70313 0.31897,0.42314 0.33074,0.90622 0.22689,1.40359 -0.11417,0.46328 -0.37447,0.85827 -0.66009,1.23218 -0.31757,0.41326 -0.71727,0.74707 -1.13014,1.05996 -0.2964,0.21072 -0.14584,0.10649 -0.45178,0.31254 -2.35241,1.58189 -3.09812,0.47295 -0.74571,-1.10894 v 0 c 0.26727,-0.1794 0.13695,-0.0895 0.39118,-0.26929 0.31849,-0.24054 0.63212,-0.49191 0.87791,-0.80993 0.16996,-0.21782 0.33652,-0.44324 0.41536,-0.71201 0.0247,-0.0894 0.0669,-0.18122 0.041,-0.26319 -0.0811,-0.12969 -0.21559,-0.202 -0.35773,-0.2496 -0.11344,-0.031 -0.23167,-0.0578 -0.34915,-0.0396 0.1335,-0.10849 0.2324,-0.24137 0.1968,-0.42413 -0.0447,-0.11153 0.14146,0.33462 0.199,0.3324 0.18358,0.29535 0.37394,0.59346 0.43396,0.94266 0.0382,0.4956 -0.12501,0.90757 -0.5726,1.16047 -0.3713,0.17229 -0.76709,0.26215 -1.17562,0.29274 -0.5079,0.0483 -1.0173,0.0669 -1.52668,0.0936 -0.53134,0.0288 -1.06281,0.0599 -1.59523,0.0492 -0.53568,8e-4 -1.07135,0.002 -1.60702,0.003 -0.53622,0.001 -1.07244,0.003 -1.60867,0.004 -0.53703,0.002 -1.07406,0.004 -1.61109,0.006 -0.53825,0.003 -1.07648,0.006 -1.61472,0.01 -0.54003,0.004 -1.08006,0.008 -1.62008,0.0142 -0.5427,0.006 -1.0854,0.0125 -1.62806,0.0211 -0.54668,0.009 -1.09334,0.0185 -1.63994,0.0312 -0.55263,0.013 -1.10522,0.0274 -1.65769,0.0461 -0.56212,0.0193 -1.12418,0.0407 -1.68601,0.0674 -0.5893,0.0277 -1.17881,0.0644 -1.76898,0.0614 -0.59984,5.3e-4 -1.19968,0.001 -1.79951,0.002 -0.60561,7.9e-4 -1.21121,0.002 -1.81682,0.003 -0.62374,0.001 -1.24748,0.002 -1.87122,0.004 -0.6662,0.002 -1.33239,0.003 -1.99858,0.006 -0.70978,0.002 -1.41956,0.005 -2.12934,0.008 -0.75697,0.004 -1.51393,0.007 -2.27089,0.0123 -0.80059,0.005 -1.60117,0.0109 -2.40174,0.0182 -0.83528,0.008 -1.67057,0.0161 -2.50582,0.027 -0.87418,0.0114 -1.74835,0.0239 -2.62246,0.04 -0.91397,0.0171 -1.82791,0.0358 -2.74173,0.0592 -0.98379,0.0253 -1.96751,0.053 -2.95102,0.0877 -1.05282,0.0374 -2.10549,0.0791 -3.15784,0.12819 -1.13543,0.0528 -2.27075,0.10946 -3.4073,0.13221 -1.20527,0.0362 -2.41045,0.076 -3.61523,0.1261 -1.26977,0.0531 -2.53917,0.11436 -3.80899,0.16636 -1.30982,0.0398 -2.61956,0.0829 -3.92883,0.13846 -1.36529,0.0584 -2.73024,0.1239 -4.09498,0.19415 -1.40692,0.0655 -2.81485,0.10809 -4.22155,0.17904 -1.40775,0.0667 -2.815634,0.12733 -4.224228,0.17358 -1.38634,0.0539 -2.772775,0.10053 -4.159848,0.13149 -1.362723,0.0407 -2.725309,0.086 -4.087476,0.14259 -1.337162,0.0544 -2.674411,0.10243 -4.012404,0.13164 -1.283221,0.0359 -2.566434,0.0638 -3.850209,0.0694 -1.246179,0.0151 -2.492343,0.0319 -3.738424,0.0538 -1.263404,0.0226 -2.526753,0.0481 -3.790096,0.0738 -1.30134,0.0225 -2.602661,0.0199 -3.904168,0.0158 -1.331251,-0.002 -2.662502,-0.003 -3.99375,-0.006 -1.351389,-0.002 -2.702774,-0.005 -4.05416,-0.008 -1.353201,-0.003 -2.706402,-0.007 -4.0596,-0.0125 -1.323562,-0.005 -2.647122,-0.0108 -3.970674,-0.0185 -1.254379,-0.007 -2.508755,-0.0156 -3.763102,-0.0274 -1.126091,-0.0108 -2.252181,-0.0225 -3.378182,-0.0406 -0.922115,-0.0154 -1.84423,-0.0324 -2.766065,-0.0604 -0.669025,-0.0217 -1.338154,-0.0452 -2.006079,-0.0905 -0.447209,-0.0331 -0.894606,-0.0696 -1.338376,-0.13565 -0.267332,-0.0403 -0.533037,-0.0907 -0.801584,-0.122 -2.80633,-0.4009 -2.617343,-1.72382 0.188989,-1.32292 z"
       inkscape:connector-curvature="0" />
    <path
       style="opacity:1;fill:#000000;fill-opacity:1;fill-rule:nonzero;stroke:#000000;stroke-width:0.1;stroke-linecap:round;stroke-linejoin:round;stroke-miterlimit:4;stroke-dasharray:none;stroke-dashoffset:0;stroke-opacity:1;paint-order:markers fill stroke"
       id="path7395"
       d="m 171.90735,219.97046 c 0.17037,0.24722 0.37242,0.46968 0.56987,0.69502 0.36833,0.40155 0.74856,0.79177 1.14652,1.16396 0.51105,0.46809 1.04027,0.91591 1.56195,1.37206 0.51257,0.44991 1.05011,0.86941 1.58532,1.29161 0.30411,0.23131 0.15391,0.11616 0.45064,0.34539 2.24328,1.73318 1.42624,2.79068 -0.81703,1.05749 v 0 c -0.29519,-0.22809 -0.14148,-0.11011 -0.46131,-0.35372 -0.55285,-0.43619 -1.10784,-0.86993 -1.63727,-1.33477 -0.53315,-0.4662 -1.07411,-0.92376 -1.59587,-1.40275 -0.42942,-0.40279 -0.84133,-0.8235 -1.23807,-1.2586 -0.23602,-0.26939 -0.47534,-0.53726 -0.67666,-0.83442 -1.57247,-2.35871 -0.46057,-3.09999 1.11191,-0.74127 z"
       inkscape:connector-curvature="0" />
    <path
       style="opacity:1;fill:#000000;fill-opacity:1;fill-rule:nonzero;stroke:#000000;stroke-width:0.1;stroke-linecap:round;stroke-linejoin:round;stroke-miterlimit:4;stroke-dasharray:none;stroke-dashoffset:0;stroke-opacity:1;paint-order:markers fill stroke"
       id="path7397"
       d="m 176.79336,220.15012 c -0.24227,0.0665 -0.445,0.21604 -0.64442,0.36257 -0.43182,0.34283 -0.80382,0.75175 -1.17504,1.15722 -0.54672,0.61425 -1.05535,1.26097 -1.57893,1.89479 -0.633,0.75389 -1.25712,1.51521 -1.89207,2.26745 -1.82867,2.16615 -2.8498,1.3041 -1.02113,-0.86204 v 0 c 0.632,-0.74851 1.25287,-1.50637 1.88294,-2.25652 0.53808,-0.65131 1.0606,-1.31605 1.62366,-1.94621 0.43149,-0.47106 0.8669,-0.94346 1.37418,-1.33517 0.32765,-0.23681 0.66857,-0.46058 1.06369,-0.56702 2.72575,-0.77879 3.09287,0.50614 0.36712,1.28493 z"
       inkscape:connector-curvature="0" />
    <path
       style="opacity:1;fill:#000000;fill-opacity:1;fill-rule:nonzero;stroke:#000000;stroke-width:0.1;stroke-linecap:round;stroke-linejoin:round;stroke-miterlimit:4;stroke-dasharray:none;stroke-dashoffset:0;stroke-opacity:1;paint-order:markers fill stroke"
       id="path7399"
       d="m 14.345738,123.79345 c -0.138488,-0.31058 -0.165443,-0.65016 -0.173704,-0.98563 0.0067,-0.40725 0.113438,-0.79768 0.271386,-1.17006 0.183864,-0.41082 0.479054,-0.6864 0.889088,-0.85964 0.479007,-0.14378 0.924013,0.009 1.350584,0.22592 0.433401,0.24767 0.811551,0.57837 1.190295,0.90052 0.392789,0.34325 0.799191,0.67054 1.206838,0.99586 0.330444,0.26936 0.693833,0.48825 1.08074,0.66488 0.204676,0.0857 0.416034,0.15766 0.635438,0.1 0.147766,-0.0377 0.214169,-0.13633 0.298305,-0.25293 0.100929,-0.18523 0.156737,-0.39004 0.232341,-0.58619 0.338698,-0.7921 1.118386,-0.69665 1.461779,0.0827 0.1378,0.40583 0.204754,0.8294 0.282666,1.24934 0.108843,0.62341 0.206431,1.24889 0.300573,1.8747 0.101562,0.75244 0.147653,1.51011 0.155067,2.26888 0.02087,0.73719 -0.0625,1.46422 -0.241418,2.17804 -0.166669,0.67676 -0.516978,1.24939 -0.987279,1.75378 -0.449845,0.43597 -1.002808,0.70607 -1.596539,0.8827 -0.533061,0.14125 -1.072992,0.12167 -1.608054,0.0131 -0.317944,-0.0928 -0.161844,-0.0388 -0.468345,-0.16186 -2.615655,-1.09296 -2.10043,-2.32599 0.515226,-1.23303 v 0 c 0.142381,0.0648 0.06589,0.0347 0.230523,0.0877 0.318168,0.0728 0.640589,0.0867 0.960688,0.01 0.3666,-0.1 0.709666,-0.26227 0.99589,-0.51714 0.321148,-0.33166 0.551761,-0.71002 0.662669,-1.1642 0.155322,-0.60138 0.217359,-1.21535 0.200345,-1.83714 -0.0056,-0.69631 -0.04899,-1.39144 -0.140265,-2.0821 -0.0918,-0.61081 -0.187133,-1.22126 -0.293029,-1.82976 -0.0623,-0.33614 -0.11535,-0.6744 -0.21198,-1.00296 0.311032,0.2704 0.855619,0.28287 1.044927,-0.12509 0.0056,-0.0121 -0.01176,0.0239 -0.01764,0.0359 -0.122802,0.31317 -0.212437,0.64256 -0.418025,0.91628 -0.295508,0.37497 -0.646327,0.65989 -1.126825,0.75544 -0.496428,0.0753 -0.96851,0.0112 -1.426658,-0.20256 -0.483337,-0.22457 -0.940804,-0.49636 -1.354902,-0.83408 -0.41839,-0.33417 -0.835745,-0.67004 -1.239052,-1.02241 -0.303912,-0.25868 -0.605692,-0.52615 -0.946545,-0.73565 -0.08237,-0.0467 -0.227372,-0.0883 -0.274276,-0.15173 0.05893,-0.10526 -0.121951,0.10199 -0.116797,0.13374 -0.08811,0.19608 -0.147655,0.40247 -0.161555,0.6181 -2.54e-4,0.13284 0.01473,0.29469 0.03279,0.40902 1.26777,2.53554 0.07251,3.13318 -1.195266,0.59764 z"
       inkscape:connector-curvature="0" />
  </g>
</svg>
