<?xml version="1.0" encoding="UTF-8" standalone="no"?>
<svg
   xmlns:dc="http://purl.org/dc/elements/1.1/"
   xmlns:cc="http://creativecommons.org/ns#"
   xmlns:rdf="http://www.w3.org/1999/02/22-rdf-syntax-ns#"
   xmlns:svg="http://www.w3.org/2000/svg"
   xmlns="http://www.w3.org/2000/svg"
   xmlns:sodipodi="http://sodipodi.sourceforge.net/DTD/sodipodi-0.dtd"
   xmlns:inkscape="http://www.inkscape.org/namespaces/inkscape"
   version="1.1"
   width="1200"
   height="600"
   id="svg40"
   sodipodi:docname="func-with-any-diff-at-break3.svg"
   inkscape:version="0.92.1 r15371">
  <metadata
     id="metadata44">
    <rdf:RDF>
      <cc:Work
         rdf:about="">
        <dc:format>image/svg+xml</dc:format>
        <dc:type
           rdf:resource="http://purl.org/dc/dcmitype/StillImage" />
        <dc:title></dc:title>
      </cc:Work>
    </rdf:RDF>
  </metadata>
  <sodipodi:namedview
     pagecolor="#ffffff"
     bordercolor="#666666"
     borderopacity="1"
     objecttolerance="10"
     gridtolerance="10"
     guidetolerance="10"
     inkscape:pageopacity="0"
     inkscape:pageshadow="2"
     inkscape:window-width="1920"
     inkscape:window-height="1046"
     id="namedview42"
     showgrid="false"
     inkscape:zoom="0.514375"
     inkscape:cx="545.74132"
     inkscape:cy="518.13921"
     inkscape:window-x="-11"
     inkscape:window-y="-11"
     inkscape:window-maximized="1"
     inkscape:current-layer="svg40" />
  <defs
     id="defs2" />
  <g
     transform="matrix(1.9159397,-0.57373778,0.57373778,1.9159397,-89.529519,90.93293)"
     id="g38">
    <g
       id="background-adac00f7">
      <rect
         x="0"
         y="0"
         width="600"
         height="400"
         class="dcg-svg-background"
         id="rect4"
         style="fill:#ffffff;stroke:none" />
    </g>
    <g
       id="graphpaper-adac00f7">
      <g
         id="axis-adac00f7">
        <g
           id="g11">
          <g
             id="g9">
            <path
               class="dcg-svg-tickmark"
               d=""
               stroke-miterlimit="2"
               id="path7"
               inkscape:connector-curvature="0"
               style="fill:none;stroke:#000000;stroke-width:2;stroke-miterlimit:2;stroke-dasharray:none;stroke-opacity:0.9;paint-order:fill stroke markers" />
          </g>
        </g>
      </g>
    </g>
    <g
       id="expressions-adac00f7">
      <g
         id="sketch-adac00f7">
        <title
           id="title15">Выражение 1</title>
        <path
           d=""
           id="path17"
           inkscape:connector-curvature="0"
           style="fill:#2d70b3;fill-opacity:0.4;stroke:none;paint-order:stroke fill markers" />
        <g
           id="g21">
          <path
             class="dcg-svg-curve"
             d="m 0,197.50858 v 0 h 600"
             stroke-miterlimit="10"
             id="path19"
             inkscape:connector-curvature="0"
             style="fill:none;stroke:#2d70b3;stroke-width:2.79999995;stroke-linecap:round;stroke-linejoin:round;stroke-miterlimit:10;stroke-dasharray:none;paint-order:fill stroke markers" />
        </g>
      </g>
      <g
         id="g32">
        <title
           id="title24">Выражение 2</title>
        <path
           d=""
           id="path26"
           inkscape:connector-curvature="0"
           style="fill:#c74440;fill-opacity:0.4;stroke:none;paint-order:stroke fill markers" />
        <g
           id="g30">
          <path
             class="dcg-svg-curve"
             d="m 0,227.41649 v 0 l 3.9550781,1.77968 3.6621094,1.33016 3.5156255,0.97238 3.222656,0.61663 3.222656,0.34354 3.076172,0.0653 3.076172,-0.19735 3.076172,-0.46439 3.076171,-0.73391 3.222657,-1.05835 3.36914,-1.42055 3.515625,-1.81762 3.808594,-2.3412 4.101563,-2.92787 4.541015,-3.6856 5.419922,-4.91071 6.884766,-6.7963 14.0625,-14.02 4.833984,-4.18944 3.808594,-2.8358 3.222656,-1.99313 2.929688,-1.4342 2.636718,-0.94774 2.34375,-0.54759 2.197266,-0.24736 2.19727,0.0195 2.19726,0.29214 2.19727,0.5664 2.34375,0.90309 2.49023,1.28656 2.7832,1.81105 3.22266,2.53219 3.95508,3.60834 13.91601,13.1979 2.63672,1.76831 2.19727,1.10716 1.9043,0.6488 1.75781,0.31912 1.61133,0.0438 1.61132,-0.20045 1.75782,-0.49777 1.90429,-0.85889 2.05078,-1.27122 2.49024,-1.95965 3.36914,-3.16556 6.73828,-6.45031 2.34375,-1.6777 1.9043,-0.94961 1.61133,-0.45533 1.46484,-0.10927 1.31836,0.15999 1.46484,0.46431 1.61133,0.84213 1.9043,1.38792 2.63672,2.4245 5.12695,4.84141 1.9043,1.23469 1.46484,0.5608 1.17188,0.16373 1.17187,-0.10571 1.17188,-0.37542 1.31835,-0.72506 1.75782,-1.3823 3.51562,-3.4265 2.05078,-1.71748 1.46485,-0.79094 1.17187,-0.27537 1.02539,0.0503 1.02539,0.32538 1.17188,0.68348 1.61133,1.36166 4.10156,3.68279 1.17187,0.50387 0.87891,0.0934 0.87891,-0.16738 1.02539,-0.51059 1.31836,-1.05864 3.66211,-3.20928 0.8789,-0.30614 0.73242,-0.0149 0.87891,0.279 1.02539,0.6885 2.34375,2.22898 1.17188,0.81997 0.8789,0.2358 0.73242,-0.10313 0.87891,-0.46947 1.31836,-1.18811 1.75781,-1.49811 0.73242,-0.25297 0.58594,0.0298 0.73242,0.32716 1.02539,0.86724 1.75782,1.51868 0.7576,0.20401 0.56076,-0.11485 0.73242,-0.46302 2.49023,-1.92956 0.58594,0.0599 0.73242,0.45283 2.05078,1.6234 0.58594,-0.046 0.58594,-0.35852 1.90429,-1.45715 0.43946,0.0566 0.58594,0.37972 1.61132,1.21429 0.43946,-0.0801 0.58593,-0.43221 1.17188,-0.92917 0.43945,0.0204 0.58594,0.40712 1.02539,0.82789 0.43945,-0.0172 0.58594,-0.43452 0.87891,-0.67708 0.43945,0.0628 0.73242,0.6365 0.63319,0.34502 0.3922,-0.14598 1.11929,-0.81647 0.49204,0.24156 0.88492,0.63522 0.43344,-0.2066 0.8262,-0.59546 0.34568,0.14643 0.81103,0.59007 0.36084,-0.17007 0.70505,-0.5086 0.32034,0.14613 0.66504,0.48127 0.36035,-0.19207 0.5533,-0.38966 0.32561,0.16993 0.52388,0.37094 0.35502,-0.20779 0.43683,-0.29638 0.2956,0.15941 0.44429,0.31167 0.28813,-0.16012 0.40476,-0.28102 0.47414,0.34187 0.29297,0.0389 0.58594,-0.33424 0.58594,0.31665 0.58594,-0.25955 0.36971,0.26882 0.65568,-0.22354 0.29156,0.20745 0.58734,-0.20379 0.26632,0.19002 0.39596,-0.25209 0.5096,0.17292 0.22768,-0.16187 0.34378,0.21887 0.45393,-0.14142 0.29297,0.0823 0.29297,-0.0971 0.29296,0.0895 0.29297,-0.0603 0.29297,0.008 0.1138,-0.068 0.32565,0.11893 0.29297,-0.0198 0.0926,0.052 0.34685,-0.0525 0.58593,-0.0197 0.45686,-0.0551 0.34075,0.003 0.16246,0.10343 0.45847,-0.0974 0.48576,0.047 1.00209,-0.034 1.48815,0.0522 3.6621,-0.0149 16.25977,-9e-4 0.13309,-0.0859 0.2662,0.16948 0.27718,-0.17647 0.28885,0.1839 0.30128,-0.19181 0.31452,0.20024 0.46966,-0.12933 0.29297,0.10467 0.26979,-0.19489 0.46263,0.21189 0.43946,-0.16491 0.28721,0.20602 0.59169,-0.20365 0.43945,0.1641 0.43946,-0.23268 0.58594,0.23591 0.38546,-0.27737 0.78641,0.26151 0.40089,-0.28409 0.91747,0.26825 0.42563,-0.29541 0.30679,0.17623 0.43311,0.29485 0.29931,-0.16102 0.58594,-0.32665 0.87891,0.49796 1.02539,-0.46911 0.8789,0.51641 1.17188,-0.57948 1.02539,0.64844 0.43945,-0.30752 0.71743,-0.48089 0.45445,0.22171 0.92252,0.65507 0.39584,-0.15939 1.11564,-0.80306 0.49569,0.22281 1.17106,0.83852 0.44026,-0.16378 1.40698,-1.01252 0.49732,0.18766 1.56143,1.12337 0.48935,-0.1646 2.05078,-1.27176 0.58594,0.35291 1.61133,1.25558 0.43945,-0.0199 0.58594,-0.33378 2.12156,-1.51853 0.51516,0.12777 0.73242,0.54215 1.75781,1.4318 0.58594,0.0555 0.58594,-0.22783 0.8789,-0.72924 1.61133,-1.37204 0.69826,-0.17696 0.6201,0.13804 0.73242,0.47335 2.92969,2.30776 0.73242,-1e-5 0.73242,-0.31623 1.02539,-0.83677 2.34375,-2.04152 0.87891,-0.2825 0.73242,0.066 0.87891,0.41888 1.17187,0.9788 2.63672,2.34716 1.02539,0.41175 0.73243,0.0277 0.8789,-0.25892 1.02539,-0.64928 1.75781,-1.6344 2.19727,-1.9597 1.17188,-0.60538 0.8789,-0.16473 0.87891,0.096 1.02539,0.42209 1.31836,0.94447 2.34375,2.25609 2.19726,1.92977 1.31836,0.74364 1.17188,0.30252 1.02539,-0.0311 1.02539,-0.29938 1.17187,-0.63641 1.61133,-1.27525 6.73828,-5.8657 1.31836,-0.51202 1.17188,-0.17161 1.17187,0.0992 1.17188,0.35909 1.46484,0.77789 1.75781,1.32603 2.78321,2.63346 4.39453,4.15591 2.05078,1.44357 1.75781,0.833 1.46485,0.37274 1.31836,0.0763 1.31835,-0.16688 1.46485,-0.45761 1.61133,-0.8059 1.90429,-1.30245 2.63672,-2.27262 5.12696,-5.07864 3.6621,-3.34738 2.63672,-1.92634 2.19727,-1.18596 1.9043,-0.68006 1.75781,-0.32672 1.61133,-0.0432 1.75781,0.22738 1.75781,0.50184 1.9043,0.83214 2.19726,1.29485 2.63672,1.95396 3.36914,2.97465 5.41993,5.37354 6.29882,6.12892 3.8086,3.18626 3.07617,2.12858 2.7832,1.52205 2.49024,1.00872 2.34375,0.63211 2.19726,0.3093 2.19727,0.0365 2.19726,-0.2309 2.19727,-0.48924 2.34375,-0.79302 2.63672,-1.2049 2.92969,-1.69275 3.36914,-2.35129 3.95507,-3.21871 4.98047,-4.57945 7.17774,-7.18318 11.42578,-11.42216 5.71289,-5.14629 4.83398,-3.86155 4.24805,-2.94833 3.95508,-2.33158 3.66211,-1.78202 3.36914,-1.30853 3.22265,-0.94992 3.07618,-0.63029 3.07617,-0.36147 3.07617,-0.0959 3.07617,0.1646 3.22266,0.44468 3.22265,0.71427 3.36915,1.02363 3.51562,1.35582 3.80859,1.78178 4.10157,2.25841 4.54101,2.87763 0.58594,0.39824"
             stroke-miterlimit="10"
             id="path28"
             inkscape:connector-curvature="0"
             style="fill:none;stroke:#c74440;stroke-width:3.5;stroke-linecap:round;stroke-linejoin:round;stroke-miterlimit:10;stroke-dasharray:none;paint-order:fill stroke markers" />
        </g>
      </g>
    </g>
    <g
       id="labels-adac00f7" />
    <g
       id="g36" />
  </g>
</svg>
