<?xml version="1.0" encoding="UTF-8" standalone="no"?>
<!-- Created with Inkscape (http://www.inkscape.org/) -->

<svg
   xmlns:dc="http://purl.org/dc/elements/1.1/"
   xmlns:cc="http://creativecommons.org/ns#"
   xmlns:rdf="http://www.w3.org/1999/02/22-rdf-syntax-ns#"
   xmlns:svg="http://www.w3.org/2000/svg"
   xmlns="http://www.w3.org/2000/svg"
   xmlns:sodipodi="http://sodipodi.sourceforge.net/DTD/sodipodi-0.dtd"
   xmlns:inkscape="http://www.inkscape.org/namespaces/inkscape"
   width="297mm"
   height="210mm"
   viewBox="0 0 297 210"
   version="1.1"
   id="svg5171"
   inkscape:version="0.92.1 r15371"
   sodipodi:docname="function-circles.svg">
  <defs
     id="defs5165" />
  <sodipodi:namedview
     id="base"
     pagecolor="#ffffff"
     bordercolor="#666666"
     borderopacity="1.0"
     inkscape:pageopacity="0.0"
     inkscape:pageshadow="2"
     inkscape:zoom="0.98994949"
     inkscape:cx="538.32417"
     inkscape:cy="441.03886"
     inkscape:document-units="mm"
     inkscape:current-layer="layer1"
     showgrid="false"
     inkscape:window-width="1920"
     inkscape:window-height="1046"
     inkscape:window-x="-11"
     inkscape:window-y="-11"
     inkscape:window-maximized="1" />
  <metadata
     id="metadata5168">
    <rdf:RDF>
      <cc:Work
         rdf:about="">
        <dc:format>image/svg+xml</dc:format>
        <dc:type
           rdf:resource="http://purl.org/dc/dcmitype/StillImage" />
        <dc:title></dc:title>
      </cc:Work>
    </rdf:RDF>
  </metadata>
  <g
     inkscape:label="Layer 1"
     inkscape:groupmode="layer"
     id="layer1"
     transform="translate(0,-87)">
    <path
       style="opacity:1;fill:#000000;fill-opacity:1;fill-rule:nonzero;stroke:#000000;stroke-width:0.1;stroke-linecap:round;stroke-linejoin:round;stroke-miterlimit:4;stroke-dasharray:none;stroke-dashoffset:0;stroke-opacity:1;paint-order:markers fill stroke"
       id="path5718"
       d="m 62.257902,120.42166 c -0.248687,0.13614 -0.491392,0.28267 -0.730742,0.43452 -0.443375,0.27883 -0.864674,0.59152 -1.272421,0.9198 -0.619265,0.50968 -1.20904,1.05317 -1.789819,1.60583 -0.792763,0.75784 -1.514205,1.58451 -2.237121,2.40781 -0.916183,1.03229 -1.773552,2.11364 -2.598867,3.21927 -0.969481,1.28444 -1.846283,2.63326 -2.700163,3.99603 -0.960813,1.54962 -1.832387,3.15111 -2.653802,4.77813 -0.894212,1.78482 -1.66342,3.62727 -2.401205,5.48093 -0.779066,1.98793 -1.408396,4.02869 -2.002367,6.078 -0.625879,2.17347 -1.092996,4.38702 -1.517144,6.60719 -0.432808,2.30285 -0.724742,4.62886 -0.948539,6.96033 -0.235892,2.40176 -0.30375,4.8142 -0.31609,7.226 -0.0028,2.51825 0.151172,5.03329 0.353176,7.54233 0.21013,2.60112 0.571627,5.1864 0.985769,7.76186 0.422696,2.63577 1.026885,5.23635 1.672929,7.82479 0.661516,2.60146 1.46949,5.16167 2.345748,7.69779 0.872159,2.5458 1.894636,5.0353 2.973056,7.49951 1.068502,2.42259 2.284484,4.77417 3.559432,7.09324 1.26886,2.27489 2.67952,4.46445 4.13947,6.62004 1.456862,2.14682 3.047465,4.19751 4.683826,6.20925 1.615538,1.98227 3.322547,3.8868 5.072385,5.75067 1.730825,1.83373 3.540742,3.58942 5.383797,5.30939 1.813637,1.68008 3.697984,3.28001 5.607048,4.84982 1.883581,1.54189 3.832177,3.0017 5.808807,4.42148 1.92473,1.37874 3.911563,2.666 5.920751,3.9172 1.940115,1.22201 3.948975,2.32696 5.984573,3.38006 1.97081,1.01983 3.995521,1.92588 6.040251,2.78547 1.96933,0.82543 3.99345,1.50847 6.03293,2.13665 1.97808,0.59734 3.99796,1.03225 6.0312,1.39084 2.02163,0.33295 4.06348,0.51656 6.10916,0.60718 2.06362,0.0872 4.12578,-0.0251 6.18174,-0.195 2.1344,-0.18221 4.24387,-0.55854 6.33986,-0.99004 2.19726,-0.45633 4.35893,-1.05805 6.50425,-1.71218 2.24453,-0.69436 4.43872,-1.53368 6.60954,-2.42899 2.26738,-0.94251 4.46906,-2.02948 6.64092,-3.17223 2.22919,-1.16459 4.3776,-2.47119 6.49676,-3.82309 2.13756,-1.37239 4.18916,-2.86935 6.20818,-4.40884 2.06501,-1.582 4.02125,-3.29717 5.94235,-5.049 1.99496,-1.81918 3.87158,-3.7612 5.70532,-5.74101 1.85381,-2.00372 3.60256,-4.10022 5.29875,-6.23791 1.68254,-2.11737 3.23911,-4.32898 4.75355,-6.56823 1.48354,-2.21989 2.8475,-4.51482 4.16803,-6.83424 1.31464,-2.33131 2.50116,-4.73123 3.62507,-7.15925 1.13101,-2.4565 2.08569,-4.98791 2.96315,-7.54427 0.85922,-2.52995 1.52562,-5.11724 2.10197,-7.72426 0.56476,-2.59201 0.89571,-5.22378 1.09352,-7.86667 0.17265,-2.6504 0.0892,-5.30526 -0.10793,-7.95089 -0.20146,-2.64548 -0.65744,-5.25874 -1.18878,-7.85485 -0.542,-2.60972 -1.32395,-5.15822 -2.17541,-7.68091 -0.89065,-2.58204 -1.97675,-5.08855 -3.12235,-7.56581 -1.1751,-2.55776 -2.53987,-5.01897 -3.96258,-7.44529 -1.46103,-2.47215 -3.06201,-4.85649 -4.73444,-7.18945 -1.68823,-2.35796 -3.52518,-4.60156 -5.40532,-6.80744 -1.90228,-2.21551 -3.9259,-4.32043 -6.00613,-6.36811 -2.10975,-2.06371 -4.33755,-3.99957 -6.6076,-5.88349 -2.27935,-1.88616 -4.67843,-3.61724 -7.12234,-5.28173 -2.45876,-1.65823 -5.01075,-3.16869 -7.5943,-4.62216 -2.55985,-1.43923 -5.19136,-2.74413 -7.85613,-3.97615 -2.61301,-1.20003 -5.28796,-2.25475 -7.99407,-3.22374 -2.64606,-0.9394 -5.35758,-1.66947 -8.08387,-2.33223 -2.6704,-0.65 -5.38067,-1.10601 -8.10428,-1.460923 -2.70622,-0.3494 -5.43259,-0.460903 -8.15871,-0.464241 -2.71954,1.47e-4 -5.43097,0.217987 -8.12865,0.545574 -2.68572,0.33528 -5.332351,0.90294 -7.952398,1.57172 -2.575001,0.67163 -5.08227,1.56505 -7.553129,2.54659 -2.328489,0.93181 -4.566314,2.06373 -6.76529,3.26469 -2.038254,1.12468 -3.955139,2.44311 -5.799447,3.85905 -0.288258,0.23426 -0.576519,0.46853 -0.86478,0.70279 -2.200351,1.78737 -3.042922,0.75011 -0.842571,-1.03725 v 0 c 0.297935,-0.24191 0.595866,-0.48381 0.8938,-0.72571 1.899613,-1.45708 3.873463,-2.8145 5.972572,-3.97177 2.246804,-1.22655 4.533439,-2.38227 6.912504,-3.33381 2.52417,-1.00204 5.085469,-1.91416 7.715996,-2.59946 2.675938,-0.68232 5.378923,-1.261713 8.121853,-1.603467 2.75174,-0.333315 5.51739,-0.555716 8.29136,-0.555293 2.78327,0.0042 5.56681,0.118231 8.32972,0.475462 2.7716,0.361765 5.52972,0.825765 8.2472,1.487542 2.77183,0.674156 5.52854,1.417126 8.21872,2.372646 2.74336,0.98283 5.45536,2.05191 8.10434,3.26889 2.69672,1.24716 5.35996,2.56767 7.95053,4.02443 2.61664,1.47231 5.20121,3.00252 7.69134,4.68235 2.47863,1.68852 4.91177,3.44459 7.22349,5.35789 2.29898,1.90823 4.5551,3.86912 6.69166,5.95949 2.10774,2.07522 4.1583,4.2083 6.08568,6.45359 1.90426,2.23444 3.76448,4.50734 5.47441,6.89576 1.69585,2.36637 3.31967,4.78455 4.80111,7.29207 1.44436,2.46381 2.82957,4.96321 4.02272,7.56035 1.16539,2.52093 2.27,5.07173 3.17559,7.69938 0.86865,2.57501 1.66579,5.17652 2.21843,7.84032 0.54232,2.65187 1.00688,5.32138 1.21222,8.02359 0.20128,2.71193 0.28616,5.43332 0.10786,8.15001 -0.20363,2.70622 -0.54221,5.40119 -1.1213,8.05526 -0.58772,2.65608 -1.26698,5.29211 -2.14286,7.86962 -0.89279,2.59954 -1.86382,5.17378 -3.01439,7.67175 -1.13995,2.46182 -2.34304,4.89531 -3.67645,7.25902 -1.33763,2.34919 -2.71949,4.67346 -4.22241,6.92171 -1.53356,2.26725 -3.10998,4.50637 -4.81368,6.65023 -1.71753,2.16419 -3.48814,4.28677 -5.36518,6.31536 -1.85946,2.00719 -3.76243,3.97601 -5.7853,5.82037 -1.95018,1.77803 -3.9362,3.51865 -6.03249,5.12421 -2.04875,1.56192 -4.13072,3.08048 -6.29976,4.47279 -2.15061,1.37175 -4.33109,2.69725 -6.59324,3.87911 -2.20873,1.16183 -4.44783,2.26685 -6.75369,3.225 -2.21015,0.91116 -4.44409,1.76534 -6.72928,2.47182 -2.185,0.66598 -4.38673,1.27832 -6.6246,1.74284 -2.14868,0.44189 -4.31124,0.82672 -6.49925,1.01293 -2.11231,0.17417 -4.23104,0.2883 -6.35115,0.19821 -2.10357,-0.0942 -4.2033,-0.28239 -6.28201,-0.62621 -2.08758,-0.36888 -4.16154,-0.81563 -6.19238,-1.42973 -2.08155,-0.64157 -4.14743,-1.33903 -6.15737,-2.18187 -2.077288,-0.87348 -4.134198,-1.79431 -6.136422,-2.83048 -2.066927,-1.06962 -4.10678,-2.19175 -6.076915,-3.43259 -2.03404,-1.26685 -4.045427,-2.57026 -5.993961,-3.96622 -2.000089,-1.43695 -3.972007,-2.91412 -5.877928,-4.47463 -1.93058,-1.58762 -3.836051,-3.20582 -5.670047,-4.90502 -1.864479,-1.74017 -3.69543,-3.51647 -5.446329,-5.37174 -1.771316,-1.88709 -3.499424,-3.8152 -5.134819,-5.8221 -1.660726,-2.04218 -3.27502,-4.12386 -4.753565,-6.30311 -1.482902,-2.18989 -2.915531,-4.41443 -4.204054,-6.72563 -1.294077,-2.35438 -2.528184,-4.74182 -3.612629,-7.20128 -1.092441,-2.49691 -2.12825,-5.01941 -3.011897,-7.5989 -0.888717,-2.5733 -1.708476,-5.17094 -2.379224,-7.81055 -0.655039,-2.6253 -1.267219,-5.26298 -1.695751,-7.93625 -0.419481,-2.61029 -0.785644,-5.23052 -0.998406,-7.8668 -0.204761,-2.54701 -0.36077,-5.10007 -0.357462,-7.65641 0.01283,-2.45216 0.08228,-4.90496 0.322199,-7.3469 0.228206,-2.37267 0.525259,-4.73983 0.966166,-7.08335 0.432196,-2.26095 0.908515,-4.51507 1.546235,-6.72842 0.606137,-2.09063 1.24895,-4.17232 2.044277,-6.20017 0.752586,-1.89035 1.537652,-3.76907 2.449941,-5.58911 0.840335,-1.66343 1.731385,-3.30107 2.714278,-4.88531 0.873318,-1.39348 1.770497,-2.77243 2.761766,-4.08596 0.84673,-1.13367 1.725877,-2.24279 2.665479,-3.30149 0.749294,-0.85332 1.498023,-1.70922 2.320155,-2.49422 0.607888,-0.57828 1.225441,-1.14673 1.874041,-1.67949 0.447381,-0.35868 0.908267,-0.70175 1.394198,-1.00688 0.277532,-0.17557 0.558607,-0.34586 0.848243,-0.50088 2.535542,-1.26777 3.133175,-0.0725 0.597633,1.19526 z"
       inkscape:connector-curvature="0" />
    <path
       style="opacity:1;fill:#000000;fill-opacity:1;fill-rule:nonzero;stroke:#000000;stroke-width:0.1;stroke-linecap:round;stroke-linejoin:round;stroke-miterlimit:4;stroke-dasharray:none;stroke-dashoffset:0;stroke-opacity:1;paint-order:markers fill stroke"
       id="path5732"
       d="m 36.210885,101.52718 c 0.074,0.35244 0.15573,0.70316 0.24089,1.05309 0.14722,0.64338 0.30201,1.28514 0.46998,1.92342 0.19853,0.7884 0.42709,1.56872 0.65233,2.34976 0.20991,0.7524 0.43742,1.4997 0.65676,2.24934 0.14291,0.4799 0.26957,0.96444 0.39512,1.44909 0.21308,0.76755 0.17071,0.40774 -1.23005,0.61693 -0.0952,-0.29253 -0.19029,-0.58519 -0.29636,-0.87401 -0.13004,-0.37101 -0.27626,-0.73536 -0.38996,-1.11188 -0.13331,-0.43013 -0.11322,-0.86506 -0.0257,-1.30004 0.0805,-0.40443 0.30104,-0.73741 0.5519,-1.05449 0.22279,-0.25912 0.4734,-0.49238 0.70366,-0.74482 0.21395,-0.23787 0.37262,-0.51499 0.51494,-0.79951 0.16388,-0.31881 0.25883,-0.66096 0.33724,-1.00856 0.0686,-0.35208 0.0712,-0.71118 0.0778,-1.0684 0.0131,-0.90008 -0.025,-0.66531 1.1799,-0.92486 0.32096,0.31991 0.42787,0.76145 0.579,1.17455 0.18923,0.59249 0.40332,1.17634 0.60984,1.76286 0.25216,0.70505 0.50711,1.40923 0.77248,2.10944 0.22491,0.62101 0.4907,1.22579 0.74221,1.83611 0.12129,0.29303 0.0619,0.15281 0.1777,0.42091 1.12322,2.6028 -0.10375,3.13229 -1.22698,0.52949 v 0 c -0.12387,-0.2873 -0.0616,-0.14013 -0.18643,-0.44163 -0.25591,-0.62219 -0.52721,-1.23842 -0.75617,-1.87143 -0.26896,-0.71015 -0.52776,-1.42416 -0.78335,-2.13919 -0.2046,-0.58145 -0.41764,-1.15995 -0.60435,-1.74756 -0.0104,-0.0284 -0.38036,-0.87108 -0.1477,-0.58128 1.09064,-0.3702 0.98951,-0.68545 0.97997,-0.10263 -0.008,0.4485 -0.018,0.89901 -0.11082,1.33984 -0.10364,0.45311 -0.2343,0.89852 -0.44719,1.31418 -0.19936,0.39274 -0.42438,0.77295 -0.72257,1.10021 -0.20957,0.22811 -0.43162,0.44426 -0.64149,0.67183 -0.12106,0.15276 -0.24935,0.29634 -0.29054,0.49367 -0.0462,0.21835 -0.0754,0.42853 -0.003,0.6474 0.10453,0.35161 0.24602,0.68985 0.36495,1.03669 0.10843,0.29739 0.20792,0.59791 0.30525,0.89907 -1.41912,0.51968 -1.11513,0.90435 -1.32753,0.1521 -0.12198,-0.47125 -0.24511,-0.94237 -0.38407,-1.40897 -0.21961,-0.7513 -0.44793,-1.50011 -0.65815,-2.25416 -0.22815,-0.79115 -0.45951,-1.5816 -0.66072,-2.38018 -0.16986,-0.64637 -0.3272,-1.29606 -0.47609,-1.94758 -0.0843,-0.34715 -0.16651,-0.69486 -0.23882,-1.04468 -0.68755,-2.750177 0.6089,-3.074297 1.29645,-0.32412 z"
       inkscape:connector-curvature="0" />
    <path
       style="opacity:1;fill:#000000;fill-opacity:1;fill-rule:nonzero;stroke:#000000;stroke-width:0.1;stroke-linecap:round;stroke-linejoin:round;stroke-miterlimit:4;stroke-dasharray:none;stroke-dashoffset:0;stroke-opacity:1;paint-order:markers fill stroke"
       id="path5734"
       d="m 43.982045,105.51601 c 0.19286,0.003 0.38477,-0.006 0.57561,-0.0361 0.27938,-0.0327 0.53786,-0.13557 0.78763,-0.25945 0.25178,-0.12389 0.44515,-0.31111 0.61393,-0.53049 0.12158,-0.18599 0.18578,-0.39818 0.1976,-0.6187 -0.002,-0.16447 -0.0353,-0.332 -0.13923,-0.46322 -0.0537,-0.0649 -0.13068,-0.10016 -0.21012,-0.11043 -0.044,0.0378 -0.0451,0.0475 -0.11475,0.10249 -0.15624,0.16327 -0.24772,0.37045 -0.33695,0.57473 -0.13487,0.34485 -0.16598,0.71341 -0.18984,1.07921 -0.0156,0.44814 0.0503,0.89438 0.14376,1.33142 0.10609,0.4613 0.29656,0.89618 0.49657,1.32314 0.18655,0.37985 0.41866,0.73343 0.70906,1.04128 0.23131,0.23171 0.4958,0.4224 0.79761,0.54907 0.21636,0.0931 0.44174,0.11631 0.67231,0.079 0.13607,-0.0186 0.2431,-0.0869 0.35641,-0.15764 2.43687,-1.44842 3.11965,-0.29967 0.68279,1.14874 v 0 c -0.27394,0.15883 -0.55436,0.29499 -0.87323,0.3349 -0.47262,0.052 -0.93708,0.0128 -1.37718,-0.18213 -0.46551,-0.21049 -0.88612,-0.49425 -1.24062,-0.86548 -0.3777,-0.41483 -0.69664,-0.87474 -0.9382,-1.38276 -0.24181,-0.52015 -0.46899,-1.05049 -0.59322,-1.61292 -0.11582,-0.5572 -0.19675,-1.12501 -0.16944,-1.69573 0.0356,-0.52198 0.0972,-1.04459 0.30155,-1.53172 0.18945,-0.4229 0.41125,-0.83148 0.78414,-1.12215 0.36663,-0.25148 0.75799,-0.40606 1.20907,-0.31096 0.4161,0.11831 0.77438,0.32954 1.02137,0.69628 0.23671,0.39822 0.37065,0.82698 0.339,1.29592 -0.051,0.47877 -0.18929,0.9337 -0.47959,1.32572 -0.29834,0.37224 -0.64357,0.69204 -1.07673,0.90341 -0.37547,0.1812 -0.76524,0.32947 -1.18198,0.38099 -0.31689,0.0437 -0.63679,0.0657 -0.95632,0.0365 -2.80633,-0.40091 -2.61734,-1.72382 0.18899,-1.32292 z"
       inkscape:connector-curvature="0" />
    <path
       style="opacity:1;fill:#000000;fill-opacity:1;fill-rule:nonzero;stroke:#000000;stroke-width:0.1;stroke-linecap:round;stroke-linejoin:round;stroke-miterlimit:4;stroke-dasharray:none;stroke-dashoffset:0;stroke-opacity:1;paint-order:markers fill stroke"
       id="path5738"
       d="m 51.985115,102.38865 c 0.0652,0.29517 0.13604,0.58921 0.20412,0.8838 0.13309,0.53994 0.2616,1.08096 0.39387,1.62109 0.1471,0.62117 0.30279,1.24027 0.44622,1.86231 0.11818,0.50786 0.22309,1.01827 0.29372,1.53497 0.0743,0.99764 0.13762,0.72434 -1.25555,0.86878 -0.19872,-0.31436 -0.24262,-0.68553 -0.31332,-1.04286 -0.0804,-0.42328 -0.13573,-0.85067 -0.18627,-1.27835 -0.0688,-0.50195 -0.0667,-1.00646 -0.003,-1.50809 0.0698,-0.49668 0.27695,-0.93374 0.58919,-1.32065 0.31017,-0.36152 0.7111,-0.52587 1.17552,-0.56673 0.44657,-0.007 0.84238,0.1653 1.21193,0.39901 0.357,0.25531 0.64788,0.58672 0.926,0.9229 0.26587,0.34096 0.50392,0.70213 0.76019,1.05013 0.21942,0.2872 0.40922,0.60381 0.68441,0.84221 0.13976,0.1091 0.29271,0.15454 0.46737,0.14834 0.14812,-0.0115 0.27102,-0.0806 0.38464,-0.17109 0.0694,-0.0581 0.12466,-0.12923 0.18016,-0.19997 1.79511,-2.19404 2.82938,-1.34782 1.03428,0.84622 v 0 c -0.13143,0.15741 -0.26421,0.31332 -0.43057,0.43604 -0.36332,0.25419 -0.75894,0.42561 -1.21083,0.42448 -0.49391,-0.0258 -0.9446,-0.16768 -1.32533,-0.49644 -0.33097,-0.3093 -0.60117,-0.66818 -0.86097,-1.03843 -0.24102,-0.32856 -0.46791,-0.66721 -0.71462,-0.9916 -0.19146,-0.23347 -0.38983,-0.46536 -0.62651,-0.65462 -0.122,-0.0868 -0.25537,-0.15826 -0.40483,-0.18296 -0.0939,-0.0144 -0.15625,0.012 -0.22357,0.0872 -0.16351,0.18196 -0.25322,0.39979 -0.29175,0.64189 -0.0554,0.39054 -0.0462,0.78449 0.006,1.17549 0.0464,0.39328 0.0968,0.78633 0.17008,1.17566 0.009,0.0479 0.13934,0.57734 0.0778,0.50889 -1.30071,0.31937 -1.10191,0.66231 -1.14396,0.10488 -0.0646,-0.47653 -0.16333,-0.94678 -0.27181,-1.41517 -0.14198,-0.61622 -0.29641,-1.22946 -0.44205,-1.8448 -0.13349,-0.54582 -0.26365,-1.0924 -0.3979,-1.63803 -0.0765,-0.3315 -0.15901,-0.66171 -0.22497,-0.99553 -0.40091,-2.806327 0.92201,-2.995317 1.32291,-0.18899 z"
       inkscape:connector-curvature="0" />
    <path
       style="opacity:1;fill:#000000;fill-opacity:1;fill-rule:nonzero;stroke:#000000;stroke-width:0.1;stroke-linecap:round;stroke-linejoin:round;stroke-miterlimit:4;stroke-dasharray:none;stroke-dashoffset:0;stroke-opacity:1;paint-order:markers fill stroke"
       id="path5740"
       d="m 60.489725,101.10734 c 0.15472,0.28085 0.26156,0.58499 0.37196,0.8851 0.18431,0.525 0.34292,1.05834 0.50407,1.59074 0.19644,0.68429 0.39055,1.36891 0.60863,2.04668 0.23451,0.75418 0.49075,1.50146 0.76163,2.24329 0.25951,0.72904 0.5493,1.44672 0.81828,2.17221 0.18641,0.51296 0.34276,1.03388 0.43571,1.57182 0.0701,0.44533 -0.0181,0.93967 -0.51671,1.10912 -0.12823,0.0436 -0.2708,0.006 -0.40621,0.009 -0.44863,-0.17085 -0.65778,-0.54049 -0.86064,-0.94824 -0.2143,-0.46514 -0.38109,-0.94955 -0.53937,-1.43595 -0.18526,-0.6193 -0.36031,-1.24156 -0.54418,-1.86126 -0.18736,-0.65286 -0.38577,-1.30245 -0.56801,-1.95678 -0.17039,-0.59327 -0.28365,-1.20049 -0.35173,-1.81346 -0.0461,-0.48914 -0.002,-0.96738 0.17381,-1.42557 0.22451,-0.46197 0.62358,-0.69913 1.10437,-0.81966 0.41565,-0.0736 0.81952,-10e-4 1.21866,0.11439 0.38643,0.12343 0.73712,0.31892 1.04999,0.57478 0.3531,0.32174 0.51328,0.74141 0.57377,1.20426 0.0315,0.43755 -0.1042,0.85102 -0.26521,1.25069 -0.13665,0.31442 -0.31662,0.60197 -0.52565,0.8724 -1.75184,2.22874 -2.80248,1.40291 -1.05064,-0.82583 v 0 c 0.13742,-0.16961 0.24742,-0.35474 0.33957,-0.55289 0.0805,-0.19152 0.15966,-0.39018 0.17345,-0.59954 -0.004,-0.11853 -0.0284,-0.23388 -0.10641,-0.32717 -0.16148,-0.14671 -0.36109,-0.23784 -0.56402,-0.31409 -0.18408,-0.0544 -0.36336,-0.10679 -0.55817,-0.0915 -0.0573,0.002 -0.11681,0.005 -0.15887,0.0345 -0.14279,0.20325 -0.0601,0.53189 -0.0762,0.76051 0.0574,0.54106 0.16145,1.07624 0.31064,1.5997 0.18008,0.64713 0.37666,1.28944 0.56178,1.93513 0.18054,0.60874 0.35311,1.21979 0.53398,1.82844 0.13782,0.4251 0.2828,0.84838 0.46625,1.25639 0.12166,0.24796 0.35102,0.43461 -0.0482,0.23594 -0.3103,0.0299 -0.70907,0.12369 -0.6787,0.53271 0.003,0.0399 0.0315,-0.36261 -0.005,-0.11992 -0.0775,-0.45685 -0.21508,-0.89729 -0.37164,-1.33319 -0.26948,-0.72761 -0.56064,-1.44711 -0.82053,-2.17833 -0.27665,-0.75815 -0.5388,-1.52171 -0.77849,-2.29241 -0.2202,-0.68515 -0.41753,-1.37681 -0.61549,-2.06866 -0.15358,-0.50744 -0.30453,-1.01583 -0.47922,-1.51655 -0.0933,-0.25364 -0.18052,-0.51225 -0.31303,-0.74878 -1.26777,-2.535537 -0.0725,-3.133167 1.19527,-0.59763 z"
       inkscape:connector-curvature="0" />
    <path
       style="opacity:1;fill:#000000;fill-opacity:1;fill-rule:nonzero;stroke:#000000;stroke-width:0.1;stroke-linecap:round;stroke-linejoin:round;stroke-miterlimit:4;stroke-dasharray:none;stroke-dashoffset:0;stroke-opacity:1;paint-order:markers fill stroke"
       id="path5750"
       d="m 68.168945,106.01972 c 0.0476,-0.25254 0.17487,-0.46726 0.31486,-0.67768 1.60558,-2.3363 2.70693,-1.57942 1.10134,0.75688 v 0 c -0.0163,0.0217 -0.11176,0.19973 -0.0933,0.10979 -0.4009,2.80633 -1.72382,2.61734 -1.32291,-0.18899 z"
       inkscape:connector-curvature="0" />
    <path
       style="opacity:1;fill:#000000;fill-opacity:1;fill-rule:nonzero;stroke:#000000;stroke-width:0.1;stroke-linecap:round;stroke-linejoin:round;stroke-miterlimit:4;stroke-dasharray:none;stroke-dashoffset:0;stroke-opacity:1;paint-order:markers fill stroke"
       id="path5752"
       d="m 75.309234,161.43501 c -0.170341,0.21392 -0.306276,0.45005 -0.439428,0.6879 -0.211047,0.40486 -0.363196,0.83609 -0.497951,1.27121 -0.191436,0.61223 -0.286059,1.24519 -0.364966,1.8797 -0.08705,0.8223 -0.09615,1.64917 -0.102428,2.4751 -0.01521,1.01043 0.03848,2.0198 0.08733,3.0286 0.06196,1.17282 0.16606,2.34262 0.276664,3.51165 0.124463,1.28436 0.28656,2.56443 0.463804,3.84244 0.178467,1.36428 0.408596,2.72094 0.640948,4.07685 0.248409,1.46251 0.549579,2.91511 0.867841,4.36378 0.340667,1.53643 0.705895,3.06741 1.10798,4.58892 0.41108,1.5653 0.890201,3.11095 1.398783,4.64692 0.515993,1.54552 1.104212,3.06475 1.726065,4.57031 0.62887,1.49435 1.334714,2.95498 2.064496,4.40222 0.735851,1.4254 1.518626,2.82575 2.327537,4.21077 0.779222,1.35479 1.620732,2.6716 2.490819,3.96938 0.837909,1.26931 1.731487,2.49989 2.627726,3.7282 0.866444,1.18735 1.767249,2.3494 2.688759,3.49441 0.875183,1.08752 1.792218,2.13961 2.721086,3.18125 0.878419,0.98055 1.800124,1.92046 2.733368,2.84848 0.879591,0.88747 1.805929,1.72638 2.731483,2.56517 0.89524,0.80365 1.8133,1.58114 2.73483,2.35429 0.8852,0.74663 1.80551,1.44939 2.74248,2.12934 0.91143,0.65895 1.84987,1.27831 2.80611,1.86987 0.94803,0.58593 1.92835,1.11685 2.91669,1.63094 0.97818,0.51045 1.99069,0.94712 3.01377,1.35815 1.02833,0.40998 2.0899,0.72639 3.15874,1.01064 1.07367,0.28816 2.16613,0.48881 3.26404,0.65676 1.09621,0.16736 2.20224,0.25412 3.30874,0.31549 1.09886,0.0537 2.19866,0.0279 3.2973,-0.0134 1.11907,-0.0503 2.23314,-0.17719 3.34228,-0.33015 1.13817,-0.16212 2.26208,-0.40457 3.37913,-0.67328 1.12892,-0.27599 2.24111,-0.61372 3.34737,-0.96838 1.13898,-0.35416 2.25704,-0.76759 3.36717,-1.20252 1.13911,-0.46097 2.26282,-0.95762 3.37116,-1.48804 1.16702,-0.5501 2.30351,-1.16205 3.42901,-1.79192 1.1837,-0.67285 2.3304,-1.40753 3.46124,-2.16506 1.19187,-0.81576 2.34217,-1.68846 3.46418,-2.59727 1.18205,-0.97023 2.29872,-2.01523 3.3976,-3.07757 1.13854,-1.11229 2.18756,-2.30926 3.21557,-3.5228 1.07038,-1.27463 2.05115,-2.62002 2.98936,-3.9937 0.99362,-1.44131 1.86442,-2.95912 2.69575,-4.49794 0.8631,-1.61682 1.61994,-3.28668 2.35875,-4.96292 0.7379,-1.70431 1.37649,-3.44874 1.96072,-5.21091 0.59952,-1.76963 1.06914,-3.57785 1.48899,-5.39719 0.43008,-1.90406 0.74186,-3.83164 1.02338,-5.76234 0.29627,-2.00826 0.49046,-4.0288 0.61844,-6.05415 0.1212,-2.04802 0.0869,-4.09978 0.008,-6.1484 -0.0897,-2.08197 -0.34584,-4.15017 -0.64366,-6.21094 -0.30414,-2.09965 -0.77642,-4.16801 -1.30139,-6.22178 -0.53046,-2.05177 -1.25408,-4.04228 -2.06798,-5.99633 -0.81713,-1.95736 -1.86623,-3.80064 -2.9874,-5.59652 -1.14078,-1.83435 -2.47582,-3.53283 -3.87171,-5.17714 -1.43142,-1.68146 -3.01225,-3.22368 -4.63945,-4.71299 -1.61745,-1.47708 -3.35952,-2.8052 -5.14654,-4.06818 -1.80828,-1.26828 -3.71228,-2.38696 -5.64522,-3.45186 -1.94176,-1.05808 -3.96328,-1.95604 -6.00585,-2.79859 -2.01664,-0.82805 -4.09581,-1.48417 -6.19101,-2.07936 -2.03679,-0.58064 -4.11281,-0.99714 -6.19941,-1.34977 -2.0421,-0.34123 -4.10754,-0.48903 -6.17399,-0.57218 -2.0395,-0.0779 -4.07862,-7.9e-4 -6.11201,0.1576 -2.04439,0.1414 -4.05753,0.51538 -6.05238,0.96886 -2.07329,0.47984 -4.07498,1.20403 -6.04639,1.99533 -2.02792,0.82501 -3.97139,1.83241 -5.86836,2.92083 -1.983193,1.14356 -3.822684,2.50449 -5.593861,3.94906 -1.849503,1.51962 -3.510965,3.24135 -5.092888,5.03245 -1.290846,1.46771 -2.432719,3.05296 -3.517225,4.67611 -1.575477,2.35671 -2.686441,1.61402 -1.110964,-0.74269 v 0 c 1.118563,-1.67237 2.295792,-3.30599 3.626744,-4.81825 1.630765,-1.84497 3.34364,-3.61829 5.249984,-5.18342 1.828287,-1.48957 3.726654,-2.89334 5.773386,-4.0725 1.951174,-1.11849 3.949854,-2.15426 6.035604,-3.00185 2.03707,-0.81688 4.1057,-1.56343 6.24797,-2.05823 2.05835,-0.46716 4.13565,-0.85183 6.24486,-0.99804 2.0858,-0.16169 4.17742,-0.24096 6.26943,-0.16052 2.12302,0.0859 4.24495,0.23871 6.34289,0.58979 2.13457,0.36112 4.25828,0.78783 6.34191,1.38197 2.1441,0.60953 4.27172,1.28167 6.33539,2.12948 2.0887,0.86193 4.15567,1.78095 6.14111,2.8635 1.97635,1.08926 3.92295,2.2338 5.77172,3.53108 1.83245,1.29589 3.61888,2.65841 5.27746,4.1737 1.66819,1.52755 3.28859,3.10953 4.75601,4.83401 1.4373,1.69435 2.81174,3.44457 3.98652,5.33436 1.15893,1.85813 2.24284,3.76547 3.08739,5.79039 0.83778,2.01372 1.58309,4.06482 2.12901,6.17906 0.5364,2.09991 1.01857,4.21479 1.32926,6.36155 0.3043,2.10716 0.56521,4.222 0.65641,6.35082 0.0801,2.09382 0.11453,4.19085 -0.01,6.28401 -0.13072,2.0616 -0.32801,4.11838 -0.62976,6.16261 -0.28698,1.96685 -0.60505,3.93045 -1.04364,5.87008 -0.42956,1.85978 -0.90993,3.7082 -1.52269,5.51727 -0.59798,1.80214 -1.25099,3.58634 -2.00629,5.32922 -0.75332,1.7089 -1.52551,3.41106 -2.40589,5.05919 -0.8536,1.57941 -1.74817,3.13701 -2.76802,4.6165 -0.96459,1.41151 -1.97269,2.79408 -3.07316,4.10369 -1.0568,1.24724 -2.13576,2.47695 -3.30642,3.61982 -1.12715,1.08936 -2.27274,2.16071 -3.48541,3.15529 -1.15361,0.93382 -2.33591,1.8311 -3.56149,2.66902 -1.16057,0.77718 -2.33742,1.53092 -3.55238,2.22096 -1.15047,0.64356 -2.31205,1.26895 -3.50483,1.83122 -1.13777,0.54407 -2.29099,1.05426 -3.46043,1.52681 -1.13638,0.44508 -2.28093,0.86803 -3.4467,1.2308 -1.13779,0.36462 -2.28174,0.71161 -3.44287,0.99513 -1.16004,0.27874 -2.32723,0.52997 -3.50919,0.69781 -1.15301,0.15859 -2.31109,0.29019 -3.47442,0.34171 -1.14006,0.0428 -2.28137,0.0686 -3.42163,0.0123 -1.14937,-0.064 -2.29822,-0.15477 -3.43689,-0.32883 -1.14549,-0.1756 -2.28529,-0.38566 -3.40553,-0.68633 -1.12121,-0.29877 -2.23471,-0.63136 -3.31335,-1.06208 -1.06324,-0.42756 -2.11545,-0.88193 -3.13211,-1.41256 -1.01769,-0.52949 -2.02696,-1.0766 -3.00313,-1.68008 -0.98404,-0.60904 -1.94997,-1.24643 -2.88792,-1.92477 -0.96215,-0.6985 -1.90732,-1.42025 -2.81642,-2.18707 -0.93457,-0.7841 -1.86552,-1.57271 -2.773321,-2.38785 -0.940802,-0.8527 -1.882206,-1.70572 -2.776376,-2.6078 -0.95214,-0.9469 -1.892315,-1.90611 -2.788459,-2.90665 -0.943846,-1.0585 -1.875507,-2.12777 -2.764822,-3.23287 -0.934516,-1.16155 -1.848424,-2.34006 -2.727153,-3.5445 -0.906687,-1.24263 -1.810419,-2.48775 -2.658213,-3.77178 -0.885298,-1.32083 -1.741707,-2.66091 -2.534793,-4.0396 -0.82259,-1.40879 -1.618808,-2.83305 -2.366814,-4.28305 -0.744683,-1.47732 -1.465027,-2.96825 -2.106409,-4.49377 -0.633817,-1.53527 -1.233612,-3.08438 -1.759514,-4.66037 -0.517051,-1.56199 -1.004157,-3.13382 -1.42218,-4.7256 -0.406593,-1.53969 -0.77669,-3.08875 -1.121182,-4.64352 -0.322633,-1.46893 -0.627896,-2.94185 -0.879764,-4.42481 -0.234717,-1.36993 -0.467082,-2.74064 -0.647485,-4.11902 -0.179785,-1.29719 -0.344308,-2.59646 -0.470522,-3.90009 -0.11252,-1.18941 -0.218178,-2.37961 -0.281041,-3.57288 -0.05006,-1.03373 -0.104375,-2.06805 -0.08886,-3.10344 0.0067,-0.8778 0.01794,-1.75661 0.11267,-2.63033 0.0892,-0.71294 0.199607,-1.42368 0.415049,-2.11136 0.163597,-0.52351 0.34916,-1.04199 0.608007,-1.52713 0.173305,-0.30929 0.354952,-0.61417 0.578747,-0.89039 1.814809,-2.17777 2.841419,-1.32226 1.02661,0.85551 z"
       inkscape:connector-curvature="0" />
    <path
       style="opacity:1;fill:#000000;fill-opacity:1;fill-rule:nonzero;stroke:#000000;stroke-width:0.1;stroke-linecap:round;stroke-linejoin:round;stroke-miterlimit:4;stroke-dasharray:none;stroke-dashoffset:0;stroke-opacity:1;paint-order:markers fill stroke"
       id="path5754"
       d="m 64.242247,138.5197 c 0.09625,0.16648 0.226308,0.31217 0.353192,0.45585 0.147756,0.15374 0.315976,0.28982 0.518731,0.36074 0.144114,0.0475 0.281049,0.0232 0.420246,-0.0255 0.185309,-0.0707 0.328208,-0.2169 0.447641,-0.37088 0.183941,-0.2391 0.282384,-0.52375 0.358431,-0.81226 0.07685,-0.33447 0.073,-0.67133 0.02273,-1.00844 -0.0596,-0.29833 -0.153627,-0.60033 -0.347212,-0.83987 -0.136136,-0.16995 -0.311288,-0.25886 -0.521068,-0.2972 -0.2091,-0.0269 -0.407908,0.0597 -0.594207,0.14456 -0.247353,0.11408 -0.422619,0.31352 -0.587589,0.52331 -0.09866,0.1288 -0.178842,0.26961 -0.258844,0.41025 -1.412206,2.45803 -2.57093,1.79231 -1.158725,-0.66572 v 0 c 0.11533,-0.19928 0.231498,-0.3984 0.374418,-0.57979 0.303828,-0.37509 0.644868,-0.71309 1.093435,-0.91163 0.459105,-0.19732 0.938334,-0.32662 1.440291,-0.22116 0.517824,0.13357 0.966155,0.37828 1.294474,0.81335 0.301456,0.43428 0.508781,0.91388 0.588674,1.44012 0.06848,0.51769 0.0707,1.03628 -0.05783,1.54647 -0.13235,0.46921 -0.306631,0.92657 -0.617313,1.30985 -0.300633,0.35318 -0.64793,0.65944 -1.09977,0.80095 -0.437189,0.12052 -0.874212,0.14671 -1.305904,-0.0204 -0.387215,-0.16779 -0.73415,-0.39793 -1.015918,-0.71627 -0.200702,-0.23051 -0.40242,-0.46531 -0.543142,-0.73866 -1.267772,-2.53554 -0.07251,-3.13317 1.195266,-0.59763 z"
       inkscape:connector-curvature="0" />
    <path
       style="opacity:1;fill:#000000;fill-opacity:1;fill-rule:nonzero;stroke:#000000;stroke-width:0.1;stroke-linecap:round;stroke-linejoin:round;stroke-miterlimit:4;stroke-dasharray:none;stroke-dashoffset:0;stroke-opacity:1;paint-order:markers fill stroke"
       id="path5756"
       d="m 66.380403,133.17431 c 0.132961,0.22983 0.283974,0.44887 0.42927,0.67101 0.27568,0.41033 0.555504,0.81791 0.835345,1.22543 0.367745,0.54004 0.756987,1.06524 1.140598,1.59408 0.442354,0.62294 0.893217,1.23999 1.32647,1.8693 0.422479,0.61953 0.835655,1.24517 1.240033,1.87664 0.377622,0.57545 0.70349,1.17962 0.950545,1.82189 0.197231,0.56554 0.283014,1.15636 0.286655,1.75302 -0.0051,0.52198 -0.155721,1.00988 -0.38952,1.471 -0.217143,0.39918 -0.534236,0.71621 -0.892423,0.98854 -0.360964,0.26913 -0.772494,0.38948 -1.216168,0.41612 -0.455137,0.003 -0.850125,-0.16521 -1.203262,-0.44024 -0.369908,-0.33293 -0.514503,-0.78612 -0.599196,-1.26049 -0.06705,-0.53427 -0.0077,-1.07015 0.06444,-1.60021 0.08312,-0.61627 0.213762,-1.22451 0.331028,-1.8348 0.118991,-0.6221 0.215802,-1.24807 0.304435,-1.87512 0.01355,-0.10145 0.02712,-0.20289 0.04068,-0.30433 0.375732,-2.80981 1.700289,-2.63269 1.324557,0.17712 v 0 c -0.01402,0.10477 -0.02804,0.20955 -0.04205,0.31433 -0.09179,0.64883 -0.192079,1.29653 -0.31529,1.94024 -0.112869,0.58704 -0.238959,1.17205 -0.319485,1.76477 -0.05526,0.3965 -0.105066,0.79665 -0.07028,1.19751 0.02223,0.15296 0.04818,0.31239 0.128215,0.44738 0.08207,0.0849 0.185404,0.12786 0.303728,0.13853 0.17418,0.006 0.325279,-0.0494 0.467868,-0.15066 0.20111,-0.14639 0.380966,-0.31729 0.507188,-0.53447 0.144121,-0.26585 0.231642,-0.55015 0.239188,-0.85497 0.0038,-0.43453 -0.06409,-0.86482 -0.199453,-1.27846 -0.208868,-0.55839 -0.503169,-1.07619 -0.826778,-1.57604 -0.396449,-0.6191 -0.801452,-1.23251 -1.215644,-1.8399 -0.426471,-0.62047 -0.87176,-1.22786 -1.307208,-1.84204 -0.390361,-0.53816 -0.786284,-1.07273 -1.1605,-1.62228 -0.285504,-0.41581 -0.571098,-0.83161 -0.852114,-1.25045 -0.173377,-0.26513 -0.355114,-0.526 -0.506135,-0.80482 -1.267772,-2.53554 -0.07251,-3.13317 1.195266,-0.59763 z"
       inkscape:connector-curvature="0" />
    <path
       style="opacity:1;fill:#000000;fill-opacity:1;fill-rule:nonzero;stroke:#000000;stroke-width:0.1;stroke-linecap:round;stroke-linejoin:round;stroke-miterlimit:4;stroke-dasharray:none;stroke-dashoffset:0;stroke-opacity:1;paint-order:markers fill stroke"
       id="path5758"
       d="m 71.495447,132.76293 c 0.06877,0.22567 0.169058,0.43734 0.279791,0.64491 0.159052,0.33077 0.374957,0.62717 0.58869,0.92358 0.180787,0.24659 0.383154,0.47969 0.652156,0.63075 0.109185,0.0561 0.217858,0.0875 0.33506,0.0467 0.0093,-0.0158 0.05861,-0.0896 0.08962,-0.16365 0.09237,-0.18631 0.110194,-0.39032 0.124315,-0.59427 -0.0019,-0.27186 -0.02784,-0.54205 -0.02275,-0.81398 0.0029,-0.41703 0.209137,-0.76646 0.647692,-0.86868 0.103658,-0.0242 0.212513,0.0124 0.31877,0.0186 0.309554,0.094 0.525801,0.3253 0.74745,0.54666 0.246317,0.25382 0.500176,0.49987 0.752576,0.74752 0.238797,0.22439 0.471607,0.45501 0.709717,0.68012 2.058777,1.94876 1.140127,2.91927 -0.918647,0.97053 v 0 c -0.243799,-0.23101 -0.482895,-0.46686 -0.727375,-0.69714 -0.254945,-0.25055 -0.511874,-0.49899 -0.760778,-0.75566 -0.03199,-0.032 -0.366921,-0.30093 -0.117927,-0.19333 0.255,-0.002 0.306334,0.034 0.538813,-0.17039 0.06487,-0.057 0.09576,-0.14412 0.136284,-0.22039 0.01511,-0.0284 0.01704,-0.12756 0.01296,-0.0957 -0.0028,0.0222 -0.0024,0.0446 -0.0035,0.0669 -0.0079,0.29495 0.03678,0.58885 0.01939,0.88416 -0.03152,0.40369 -0.09996,0.80174 -0.298442,1.16108 -0.237818,0.38981 -0.544047,0.71231 -1.009409,0.81244 -0.44872,0.0688 -0.872456,0.0119 -1.270199,-0.22099 -0.411308,-0.25995 -0.760679,-0.58872 -1.039693,-0.9897 -0.249698,-0.34628 -0.497999,-0.69508 -0.685911,-1.08014 -0.152705,-0.29032 -0.289764,-0.58763 -0.383561,-0.90283 -0.778786,-2.72575 0.506145,-3.09287 1.28493,-0.36712 z"
       inkscape:connector-curvature="0" />
    <path
       style="opacity:1;fill:#000000;fill-opacity:1;fill-rule:nonzero;stroke:#000000;stroke-width:0.1;stroke-linecap:round;stroke-linejoin:round;stroke-miterlimit:4;stroke-dasharray:none;stroke-dashoffset:0;stroke-opacity:1;paint-order:markers fill stroke"
       id="path5760"
       d="m 79.367251,132.19094 c 0.15603,0.17259 0.31156,0.34555 0.4835,0.50261 0.16935,0.17139 0.35043,0.33006 0.5685,0.43521 0.12716,0.056 0.26307,0.0959 0.40167,0.0692 0.15285,-0.0369 0.28277,-0.12398 0.40145,-0.22364 0.13273,-0.11603 0.20388,-0.27271 0.24775,-0.44017 0.0703,-0.21588 0.0329,-0.42633 -0.007,-0.64265 -0.0392,-0.20411 -0.14156,-0.37488 -0.27464,-0.53039 -0.0672,-0.0596 -0.136,-0.0938 -0.22489,-0.0804 -0.0724,0.0101 -0.13831,0.0383 -0.20293,0.0709 -2.61166,1.10247 -3.13137,-0.12868 -0.51971,-1.23115 v 0 c 0.26712,-0.10656 0.53723,-0.1889 0.82945,-0.17186 0.45316,0.0509 0.84747,0.21714 1.15347,0.56766 0.26854,0.33644 0.4753,0.70737 0.55401,1.13597 0.0766,0.42779 0.10369,0.85572 -0.0308,1.2769 -0.13833,0.42224 -0.34272,0.80824 -0.69489,1.09293 -0.33096,0.25535 -0.69332,0.45657 -1.11561,0.50726 -0.39423,0.0249 -0.77406,-0.0323 -1.13006,-0.21313 -0.31954,-0.16978 -0.61113,-0.37964 -0.86275,-0.64149 -0.18297,-0.17055 -0.35695,-0.35015 -0.52114,-0.53882 -2.004517,-2.00452 -1.05958,-2.94946 0.94494,-0.94494 z"
       inkscape:connector-curvature="0" />
    <path
       style="opacity:1;fill:#000000;fill-opacity:1;fill-rule:nonzero;stroke:#000000;stroke-width:0.1;stroke-linecap:round;stroke-linejoin:round;stroke-miterlimit:4;stroke-dasharray:none;stroke-dashoffset:0;stroke-opacity:1;paint-order:markers fill stroke"
       id="path5762"
       d="m 82.348051,128.50179 c 0.21679,0.24177 0.42058,0.49356 0.61817,0.75116 0.2998,0.39135 0.59505,0.78619 0.89053,1.18081 0.35235,0.4617 0.68958,0.93466 1.03724,1.39984 0.3457,0.46464 0.6756,0.94065 0.95959,1.44563 0.18072,0.33064 0.35804,0.66605 0.47035,1.02677 0.19264,0.83109 -0.51797,1.29024 -1.25811,0.74698 -0.27747,-0.25423 -0.51,-0.5522 -0.73429,-0.85297 -0.28703,-0.37579 -0.54348,-0.77379 -0.78383,-1.18066 -0.25269,-0.43153 -0.46977,-0.8798 -0.65346,-1.34454 -0.18529,-0.48314 -0.26299,-0.98592 -0.25503,-1.50088 0.0192,-0.47746 0.19469,-0.9042 0.4519,-1.29901 0.27801,-0.38946 0.66513,-0.61655 1.11924,-0.73895 0.46691,-0.0938 0.86733,0.0322 1.22571,0.331 0.30229,0.33232 0.3593,0.73213 0.31307,1.16258 -0.0407,0.29679 -0.14584,0.57218 -0.27832,0.83856 -1.29457,2.52196 -2.48344,1.91169 -1.18886,-0.61027 v 0 c 0.0667,-0.12056 0.11335,-0.24633 0.13971,-0.38204 0.0138,-0.10357 0.0205,-0.10332 0.0955,-0.0385 0.0819,0.0387 0.10561,0.003 0.009,-0.003 -0.13382,0.0168 -0.23753,0.0805 -0.32471,0.18426 -0.12593,0.17664 -0.21157,0.3687 -0.22616,0.58841 -0.0141,0.33615 0.0471,0.66179 0.16257,0.97816 0.15668,0.40004 0.34462,0.78428 0.5613,1.15558 0.21507,0.36604 0.44631,0.72316 0.70416,1.06073 0.16127,0.21671 0.32664,0.43074 0.51662,0.62346 -0.39659,-0.15801 -1.01214,0.21206 -0.8783,0.65663 -0.0585,-0.26877 -0.24575,-0.50245 -0.35435,-0.7504 -0.25257,-0.45525 -0.55555,-0.87906 -0.8638,-1.29802 -0.3471,-0.46494 -0.68449,-0.93713 -1.0363,-1.39858 -0.29242,-0.39053 -0.58456,-0.7813 -0.88126,-1.16858 -0.18657,-0.24335 -0.37961,-0.48043 -0.58434,-0.70885 -1.81481,-2.17777 -0.7882,-3.03328 1.02661,-0.85551 z"
       inkscape:connector-curvature="0" />
    <path
       style="opacity:1;fill:#000000;fill-opacity:1;fill-rule:nonzero;stroke:#000000;stroke-width:0.1;stroke-linecap:round;stroke-linejoin:round;stroke-miterlimit:4;stroke-dasharray:none;stroke-dashoffset:0;stroke-opacity:1;paint-order:markers fill stroke"
       id="path5770"
       d="m 89.177151,127.25595 c -0.0946,0.10392 -0.13417,0.24181 -0.17941,0.37213 -0.0593,0.19874 -0.0656,0.40411 -0.0437,0.60887 0.0256,0.30002 0.11494,0.58633 0.21251,0.86914 0.0844,0.21678 0.18896,0.43625 0.37596,0.5821 0.10687,0.0846 0.21997,0.1335 0.35572,0.1195 0.12276,-0.0165 0.22051,-0.0829 0.31138,-0.16238 0.10883,-0.12225 0.13629,-0.2749 0.16597,-0.42972 0.0119,-0.27284 -0.0648,-0.53662 -0.15499,-0.79093 -0.12435,-0.33356 -0.315,-0.63293 -0.53735,-0.90862 -0.18591,-0.22174 -0.40742,-0.40569 -0.6617,-0.54276 -0.0655,-0.0298 -0.16283,-0.0759 -0.2084,-0.0306 -2.73396,0.74946 -3.08725,-0.53934 -0.3533,-1.2888 v 0 c 0.4246,-0.0982 0.82845,-0.0583 1.21592,0.15412 0.40082,0.22981 0.76134,0.51536 1.05357,0.87644 0.31299,0.39766 0.58336,0.82632 0.75492,1.30547 0.16315,0.4838 0.27945,0.98364 0.19986,1.49688 -0.10053,0.46559 -0.27669,0.89101 -0.64781,1.20846 -0.34468,0.2619 -0.72366,0.4432 -1.16575,0.44848 -0.45884,-0.0214 -0.87277,-0.15736 -1.2242,-0.46425 -0.33764,-0.31914 -0.59307,-0.69528 -0.74336,-1.13839 -0.13281,-0.38651 -0.24581,-0.78018 -0.28037,-1.18948 -0.03,-0.39597 -0.0126,-0.79144 0.11594,-1.17117 0.11435,-0.31704 0.24987,-0.62822 0.49362,-0.86945 2.00452,-2.00452 2.94946,-1.05958 0.94494,0.94494 z"
       inkscape:connector-curvature="0" />
    <path
       style="opacity:1;fill:#000000;fill-opacity:1;fill-rule:nonzero;stroke:#000000;stroke-width:0.1;stroke-linecap:round;stroke-linejoin:round;stroke-miterlimit:4;stroke-dasharray:none;stroke-dashoffset:0;stroke-opacity:1;paint-order:markers fill stroke"
       id="path5772"
       d="m 91.503731,125.15622 c 0.12579,0.29762 0.26071,0.59121 0.39031,0.88718 0.22356,0.50872 0.45426,1.0143 0.69465,1.51528 0.30716,0.62633 0.61948,1.25006 0.9329,1.87329 0.30891,0.60852 0.61708,1.2176 0.91506,1.83157 0.2184,0.43452 0.41752,0.87805 0.59675,1.33 0.003,0.0214 0.17219,0.45094 0.13374,0.46895 -1.21787,0.57059 -0.97588,0.78082 -1.35359,0.30675 -0.22298,-0.33116 -0.42991,-0.67377 -0.62875,-1.01996 -0.2634,-0.45579 -0.52785,-0.91089 -0.78327,-1.37123 -0.28322,-0.51006 -0.54323,-1.02986 -0.7559,-1.57321 -0.20503,-0.51688 -0.28106,-1.05834 -0.26101,-1.6107 0.0291,-0.45764 0.21025,-0.86288 0.47193,-1.23145 0.25978,-0.32279 0.60708,-0.5122 1.00073,-0.61781 0.42106,-0.0977 0.79027,0.004 1.13423,0.25018 0.36932,0.36305 0.37144,0.81648 0.24294,1.28362 -0.0925,0.23758 -0.0464,0.12671 -0.13662,0.33328 -1.13801,2.59638 -2.36195,2.05991 -1.22394,-0.53646 v 0 c 0.0593,-0.13465 0.0326,-0.0765 0.0788,-0.17493 0.0602,-0.16544 0.0714,0.0731 0.18411,0.12178 0.0928,0.0432 0.16372,0.0169 0.0286,0.0229 -0.0858,0.0142 -0.16298,0.0512 -0.23134,0.10791 -0.11743,0.14641 -0.1952,0.3134 -0.21448,0.50195 -0.0228,0.36566 0.0384,0.72221 0.17121,1.06457 0.18915,0.48806 0.42667,0.95207 0.67938,1.41024 0.25233,0.45517 0.51416,0.90481 0.77439,1.35547 0.16726,0.29337 0.34599,0.58029 0.52586,0.86605 0.24046,0.33747 -1.10195,1.1357 -1.07928,0.5347 -0.16701,-0.42125 -0.35291,-0.83446 -0.55682,-1.23929 -0.295,-0.60834 -0.60068,-1.21156 -0.9066,-1.81446 -0.31717,-0.6307 -0.63322,-1.26192 -0.94397,-1.8958 -0.24683,-0.51491 -0.48425,-1.03427 -0.71383,-1.55711 -0.12049,-0.27516 -0.2475,-0.54779 -0.36145,-0.8256 -1.26778,-2.53554 -0.0725,-3.13317 1.19526,-0.59763 z"
       inkscape:connector-curvature="0" />
    <path
       style="opacity:1;fill:#000000;fill-opacity:1;fill-rule:nonzero;stroke:#000000;stroke-width:0.1;stroke-linecap:round;stroke-linejoin:round;stroke-miterlimit:4;stroke-dasharray:none;stroke-dashoffset:0;stroke-opacity:1;paint-order:markers fill stroke"
       id="path5774"
       d="m 99.128361,129.07038 c 0.0184,-0.0338 0.0368,-0.0675 0.0552,-0.10127 1.367869,-2.48297 2.538359,-1.83814 1.170479,0.64483 v 0 c -0.0101,0.018 -0.0203,0.036 -0.0304,0.0541 -1.267769,2.53554 -2.463029,1.93791 -1.195259,-0.59763 z"
       inkscape:connector-curvature="0" />
    <path
       style="opacity:1;fill:#000000;fill-opacity:1;fill-rule:nonzero;stroke:#000000;stroke-width:0.1;stroke-linecap:round;stroke-linejoin:round;stroke-miterlimit:4;stroke-dasharray:none;stroke-dashoffset:0;stroke-opacity:1;paint-order:markers fill stroke"
       id="path5778"
       d="m 111.75803,187.49849 c -0.14319,0.24945 -0.26572,0.50943 -0.3703,0.77722 -0.18457,0.46842 -0.28654,0.95743 -0.37185,1.45158 -0.12817,0.72278 -0.16129,1.45547 -0.17891,2.18767 -0.008,0.93609 0.0415,1.87117 0.12077,2.80352 0.0985,1.08699 0.2904,2.16192 0.50409,3.23123 0.22451,1.17317 0.55388,2.32046 0.91342,3.45812 0.37269,1.18941 0.83395,2.34784 1.32899,3.49083 0.48686,1.13808 1.06549,2.23208 1.67093,3.31047 0.59124,1.03183 1.26617,2.0125 1.97955,2.9629 0.68955,0.91324 1.48012,1.74058 2.28299,2.55319 0.76876,0.78335 1.61319,1.48483 2.48209,2.15307 0.84089,0.63519 1.728,1.20271 2.63189,1.7428 0.87285,0.51163 1.77798,0.9627 2.69997,1.37785 0.87212,0.39109 1.77798,0.69427 2.69771,0.94998 0.87325,0.23925 1.76709,0.38722 2.66368,0.50456 0.84511,0.099 1.69565,0.12857 2.54569,0.10765 0.83209,-0.028 1.65626,-0.13648 2.47443,-0.28488 0.84159,-0.17109 1.67347,-0.38668 2.49728,-0.62851 0.84612,-0.25396 1.67242,-0.56814 2.49817,-0.88068 0.83814,-0.3055 1.64396,-0.68832 2.44295,-1.08283 0.8289,-0.41612 1.6407,-0.86764 2.43531,-1.34592 0.81013,-0.48776 1.6009,-1.00645 2.36911,-1.55772 0.78917,-0.55466 1.51624,-1.18659 2.22504,-1.83873 0.7579,-0.70968 1.46254,-1.47351 2.15138,-2.24958 0.72942,-0.81795 1.3831,-1.69785 2.02299,-2.58624 0.66772,-0.93492 1.27651,-1.90842 1.83571,-2.9115 0.57793,-1.01318 1.04186,-2.0823 1.45876,-3.16974 0.39887,-1.06071 0.66539,-2.15926 0.87516,-3.27053 0.18901,-1.07164 0.2651,-2.15726 0.28,-3.24393 0.0218,-1.09732 -0.0685,-2.19097 -0.19861,-3.2793 -0.13919,-1.11122 -0.37167,-2.20705 -0.62976,-3.29578 -0.25852,-1.10011 -0.61907,-2.17191 -1.02797,-3.22421 -0.42324,-1.07408 -0.9814,-2.08422 -1.57243,-3.07303 -0.63291,-1.019 -1.37637,-1.96107 -2.14342,-2.88091 -0.76835,-0.90231 -1.59502,-1.75202 -2.44841,-2.57348 -0.82218,-0.79742 -1.72969,-1.49703 -2.66495,-2.15511 -0.94441,-0.65901 -1.95408,-1.21142 -2.98696,-1.71684 -1.06386,-0.50405 -2.16405,-0.92449 -3.27489,-1.3117 -1.10381,-0.37389 -2.23215,-0.66717 -3.36669,-0.93043 -1.12442,-0.26293 -2.26248,-0.45354 -3.40868,-0.58928 -1.14337,-0.13231 -2.29452,-0.17143 -3.44462,-0.1782 -1.1542,-0.004 -2.30249,0.11505 -3.44478,0.26866 -1.184,0.16066 -2.33162,0.48472 -3.46708,0.84633 -1.20225,0.39039 -2.35522,0.90847 -3.48217,1.47693 -1.17182,0.58918 -2.25813,1.32367 -3.31211,2.09972 -1.10402,0.82295 -2.08434,1.78805 -3.01242,2.80083 -0.7684,0.85696 -1.43126,1.79664 -2.05669,2.76036 -1.54435,2.37722 -2.66498,1.64921 -1.12063,-0.72802 v 0 c 0.66664,-1.02517 1.3733,-2.02467 2.19251,-2.93565 0.98752,-1.07566 2.03088,-2.10032 3.20528,-2.97392 1.11466,-0.81949 2.2638,-1.59444 3.50264,-2.21669 1.1905,-0.59946 2.40843,-1.14575 3.67837,-1.55699 1.20976,-0.38468 2.4333,-0.72678 3.69453,-0.89738 1.20398,-0.1613 2.41431,-0.28496 3.63074,-0.2805 1.20005,0.008 2.40114,0.0488 3.59412,0.18751 1.19469,0.14241 2.38124,0.34011 3.55328,0.61458 1.18105,0.27448 2.35564,0.58022 3.50451,0.97034 1.16113,0.40524 2.31112,0.84527 3.42273,1.37344 1.09559,0.53739 2.16683,1.12414 3.16848,1.82432 0.99041,0.69811 1.95146,1.43996 2.82244,2.2851 0.88817,0.85561 1.74875,1.74038 2.54798,2.68046 0.8112,0.97371 1.59657,1.97163 2.26416,3.05124 0.6289,1.05355 1.22132,2.13058 1.67103,3.27496 0.42993,1.10984 0.81048,2.23955 1.08246,3.39952 0.26945,1.1382 0.5116,2.2839 0.65635,3.4456 0.13644,1.14724 0.23084,2.30004 0.20788,3.45665 -0.0173,1.16352 -0.0989,2.32597 -0.30316,3.47315 -0.22543,1.18968 -0.51268,2.3657 -0.94059,3.50099 -0.44041,1.14645 -0.93033,2.27362 -1.53947,3.34218 -0.58515,1.04739 -1.22011,2.06511 -1.91836,3.0414 -0.66657,0.92505 -1.34824,1.84065 -2.10797,2.69236 -0.71898,0.80952 -1.45456,1.60612 -2.24602,2.34589 -0.74888,0.68857 -1.51784,1.35494 -2.35101,1.94118 -0.79784,0.5716 -1.61793,1.11106 -2.45915,1.61694 -0.82667,0.49661 -1.67018,0.96701 -2.53248,1.39899 -0.83774,0.41335 -1.68296,0.81368 -2.56144,1.13435 -0.85768,0.32452 -1.71607,0.65025 -2.59513,0.91319 -0.86939,0.25466 -1.74711,0.48245 -2.63551,0.66118 -0.88631,0.15981 -1.77921,0.27671 -2.68047,0.30583 -0.91871,0.0211 -1.83799,-0.01 -2.7512,-0.11861 -0.95893,-0.12599 -1.9147,-0.28565 -2.84851,-0.54223 -0.98456,-0.27474 -1.95449,-0.59964 -2.88808,-1.01893 -0.96865,-0.43671 -1.91979,-0.91087 -2.83662,-1.44917 -0.94851,-0.56712 -1.87916,-1.16353 -2.76125,-1.83078 -0.91642,-0.70557 -1.80677,-1.44643 -2.61782,-2.27301 -0.84523,-0.85577 -1.67591,-1.7285 -2.40134,-2.6905 -0.74799,-0.99796 -1.45635,-2.02707 -2.07581,-3.11061 -0.62773,-1.11849 -1.22697,-2.25354 -1.73201,-3.43376 -0.51268,-1.18511 -0.99072,-2.38603 -1.37688,-3.61911 -0.37389,-1.184 -0.71562,-2.37827 -0.94962,-3.59902 -0.22317,-1.11853 -0.42293,-2.243 -0.52518,-3.38002 -0.0829,-0.9807 -0.13531,-1.96425 -0.12515,-2.94885 0.0196,-0.79786 0.0585,-1.59612 0.19818,-2.38361 0.10169,-0.58371 0.22768,-1.16126 0.44573,-1.71437 0.12077,-0.3029 0.25435,-0.60102 0.41784,-0.88366 1.26777,-2.53555 2.46303,-1.93791 1.19526,0.59763 z"
       inkscape:connector-curvature="0" />
    <path
       style="opacity:1;fill:#000000;fill-opacity:1;fill-rule:nonzero;stroke:#000000;stroke-width:0.1;stroke-linecap:round;stroke-linejoin:round;stroke-miterlimit:4;stroke-dasharray:none;stroke-dashoffset:0;stroke-opacity:1;paint-order:markers fill stroke"
       id="path5780"
       d="m 96.587629,159.41561 c 0.116618,0.25173 0.255201,0.49172 0.413118,0.71956 0.257476,0.38265 0.536905,0.7496 0.821764,1.11207 0.311896,0.40947 0.633232,0.81145 0.955968,1.21237 0.263353,0.31834 0.531487,0.63303 0.785763,0.95873 0.162184,0.17594 0.279934,0.36783 0.376594,0.58451 -1.013264,0.75319 -1.018151,1.0238 -1.55676,0.19509 -0.09077,-0.16818 -0.224341,-0.30598 -0.346864,-0.45085 -0.220128,-0.21567 -0.376441,-0.47267 -0.491178,-0.75633 -0.125425,-0.37417 -0.05028,-0.74118 0.09724,-1.0936 0.126307,-0.28878 0.324575,-0.53519 0.526047,-0.77425 0.155879,-0.16769 0.266076,-0.36233 0.353624,-0.57188 0.06981,-0.20335 0.07877,-0.41535 0.07717,-0.62794 -0.02265,-0.23556 -0.04127,-0.47131 -0.01995,-0.7074 0.18501,-0.9434 0.980818,-0.75877 1.458975,-0.21183 0.19579,0.23121 0.37042,0.47896 0.56865,0.70821 0.25879,0.31133 0.52384,0.61727 0.79229,0.92026 0.19557,0.22458 0.3977,0.44255 0.6117,0.64959 2.03237,1.97628 1.10074,2.93435 -0.93163,0.95806 v 0 c -0.23676,-0.23115 -0.46363,-0.47134 -0.68037,-0.72151 -0.27299,-0.3082 -0.542754,-0.61921 -0.805906,-0.93588 -0.195599,-0.22901 -0.374351,-0.47087 -0.564878,-0.70384 -0.120914,-0.14191 -0.01281,-0.008 0.04271,-0.023 0.798872,-0.22277 0.684633,-0.0544 0.83729,-0.49855 -0.03998,0.17948 0.04836,0.38095 0.02747,0.56205 -1.32e-4,0.39492 -0.03828,0.78772 -0.185322,1.15843 -0.143732,0.33008 -0.320289,0.64189 -0.563361,0.91042 -0.122026,0.14188 -0.247494,0.28666 -0.326126,0.45803 -0.02429,0.0439 -0.02882,0.13475 -0.06498,0.0737 0.03044,0.1495 0.172488,0.25286 0.261745,0.36527 0.158258,0.18795 0.3268,0.37051 0.447304,0.58635 0.214032,0.33134 -0.360965,0.26993 -0.8451,0.91461 0.183333,0.36983 -0.0743,-0.10476 -0.151217,-0.14731 -0.248351,-0.32087 -0.514848,-0.62745 -0.771949,-0.94126 -0.325982,-0.40506 -0.650673,-0.81111 -0.965797,-1.22474 -0.303001,-0.38583 -0.600105,-0.77649 -0.874218,-1.1836 -0.203925,-0.3013 -0.38944,-0.61443 -0.538104,-0.94715 -1.11669,-2.60562 0.111606,-3.13203 1.228296,-0.52642 z"
       inkscape:connector-curvature="0" />
    <path
       style="opacity:1;fill:#000000;fill-opacity:1;fill-rule:nonzero;stroke:#000000;stroke-width:0.1;stroke-linecap:round;stroke-linejoin:round;stroke-miterlimit:4;stroke-dasharray:none;stroke-dashoffset:0;stroke-opacity:1;paint-order:markers fill stroke"
       id="path5782"
       d="m 102.95818,158.9856 c 0.17253,-0.0782 0.31848,-0.19836 0.45081,-0.33177 0.13198,-0.15835 0.20834,-0.34492 0.2604,-0.54204 0.0288,-0.14233 0.0145,-0.27837 -0.0529,-0.40622 -0.0259,-0.074 -0.10535,-0.1121 -0.0315,-0.0315 -0.0542,0.0105 0.0357,0.018 0.051,0.0192 -0.0474,0.0744 -0.0762,0.15628 -0.10373,0.24001 -0.0419,0.1391 -0.009,0.2665 0.0189,0.40381 0.0515,0.19892 0.15892,0.37255 0.26503,0.5457 0.12586,0.19216 0.29585,0.35016 0.47652,0.48994 0.17059,0.12637 0.35458,0.2172 0.56553,0.24319 0.1106,0.01 0.21961,-0.007 0.32859,-0.023 2.81299,-0.35113 2.97851,0.97493 0.16552,1.32605 v 0 c -0.24021,0.0274 -0.47979,0.0523 -0.72105,0.0139 -0.4289,-0.0818 -0.82301,-0.2408 -1.169,-0.51311 -0.30014,-0.24144 -0.58077,-0.50967 -0.78578,-0.83911 -0.18903,-0.30894 -0.35946,-0.62947 -0.43684,-0.98696 -0.071,-0.37066 -0.0923,-0.73973 0.0318,-1.10322 0.1216,-0.33647 0.28759,-0.64864 0.57424,-0.87477 0.33442,-0.22557 0.69566,-0.33245 1.09741,-0.22911 0.41589,0.13811 0.73107,0.39157 0.90602,0.80279 0.16458,0.41918 0.2209,0.84881 0.10465,1.29123 -0.12476,0.41793 -0.30536,0.81093 -0.61151,1.12961 -0.25425,0.24389 -0.53145,0.46316 -0.85772,0.60365 -2.60561,1.11668 -3.13202,-0.11161 -0.52641,-1.2283 z"
       inkscape:connector-curvature="0" />
    <path
       style="opacity:1;fill:#000000;fill-opacity:1;fill-rule:nonzero;stroke:#000000;stroke-width:0.1;stroke-linecap:round;stroke-linejoin:round;stroke-miterlimit:4;stroke-dasharray:none;stroke-dashoffset:0;stroke-opacity:1;paint-order:markers fill stroke"
       id="path5786"
       d="m 108.33097,154.29397 c 0.11032,0.23853 0.23315,0.47139 0.35599,0.70372 0.20008,0.35526 0.40955,0.70513 0.63087,1.04758 0.27382,0.42785 0.54544,0.85704 0.79799,1.29786 0.20349,0.35131 0.41121,0.70085 0.60244,1.05906 0.14921,0.24679 0.2293,0.49331 0.22777,0.78162 -1.29715,0.42385 -1.15944,0.58559 -1.66439,-0.31169 -0.17501,-0.32449 -0.3229,-0.6611 -0.45148,-1.00632 -0.15789,-0.41729 -0.25671,-0.84697 -0.28712,-1.29149 -0.0179,-0.44457 0.0797,-0.84987 0.31134,-1.22756 0.2861,-0.36545 0.68696,-0.49014 1.13303,-0.50481 0.36609,0.004 0.70745,0.13731 1.04168,0.27242 0.29765,0.12705 0.57548,0.29689 0.87999,0.40746 0.20571,0.067 0.41308,0.0941 0.62567,0.0531 0.18053,-0.0455 0.32935,-0.14817 0.46552,-0.27083 0.0734,-0.0671 0.13058,-0.14743 0.18674,-0.22871 1.65977,-2.29812 2.74312,-1.5157 1.08334,0.78243 v 0 c -0.12132,0.16448 -0.24481,0.32683 -0.40073,0.46119 -0.33416,0.27962 -0.70322,0.5002 -1.13879,0.5778 -0.44079,0.0581 -0.87354,0.0282 -1.29472,-0.12511 -0.31171,-0.12071 -0.60747,-0.27315 -0.90818,-0.41849 -0.16701,-0.0676 -0.33488,-0.14277 -0.51297,-0.17517 -0.10535,-0.001 -0.0877,-0.004 -0.0533,-0.0831 -0.0913,0.0698 -0.0702,0.28402 -0.0845,0.40135 0.0124,0.31299 0.10115,0.61122 0.20612,0.90512 0.10357,0.28123 0.22414,0.5546 0.36521,0.81924 0.31742,0.57528 0.37834,0.25561 -0.82822,0.79565 0.009,0.39118 0.076,0.25748 -0.0826,0.0118 -0.18205,-0.34681 -0.38756,-0.68148 -0.58175,-1.0215 -0.24005,-0.42043 -0.50041,-0.82853 -0.76074,-1.23661 -0.24208,-0.37538 -0.47214,-0.7584 -0.68988,-1.14842 -0.12716,-0.24116 -0.25447,-0.48289 -0.3695,-0.73001 -1.26777,-2.53554 -0.0725,-3.13318 1.19526,-0.59763 z"
       inkscape:connector-curvature="0" />
    <path
       style="opacity:1;fill:#000000;fill-opacity:1;fill-rule:nonzero;stroke:#000000;stroke-width:0.1;stroke-linecap:round;stroke-linejoin:round;stroke-miterlimit:4;stroke-dasharray:none;stroke-dashoffset:0;stroke-opacity:1;paint-order:markers fill stroke"
       id="path5790"
       d="m 114.90336,151.97426 c 0.22991,0.22121 0.44535,0.45603 0.65405,0.69716 0.33103,0.38359 0.64752,0.77931 0.97092,1.16929 0.38388,0.48181 0.78055,0.95321 1.16837,1.4318 0.38207,0.45717 0.75579,0.92142 1.11878,1.39387 0.22923,0.2952 0.45757,0.59188 0.66563,0.90254 0.54888,0.54474 -0.29279,1.57621 -1.0356,0.97601 -0.26246,-0.23686 -0.4876,-0.51067 -0.72106,-0.77518 -0.32407,-0.38409 -0.65262,-0.7643 -0.96356,-1.15917 -0.35918,-0.45197 -0.70023,-0.91753 -1.03617,-1.38687 -0.34202,-0.48622 -0.65719,-0.99038 -0.94669,-1.50942 -0.26175,-0.46848 -0.43361,-0.97427 -0.53074,-1.50025 -0.0776,-0.46398 0.005,-0.89813 0.21685,-1.31214 0.21931,-0.36806 0.56584,-0.58339 0.95279,-0.73954 0.33579,-0.12624 0.68861,-0.15967 1.04422,-0.15619 0.41474,0.0106 0.76928,0.14827 1.08551,0.41072 0.30222,0.31596 0.36858,0.71053 0.33913,1.12943 -0.0432,0.30544 -0.15979,0.59188 -0.27544,0.87547 -1.07098,2.62473 -2.30829,2.11986 -1.23731,-0.50487 v 0 c 0.0671,-0.16438 0.13596,-0.32823 0.18267,-0.49991 0.0212,-0.0787 0.003,-0.0838 0.0733,-0.0286 0.14069,0.0671 -0.13178,-0.0765 -0.18619,-0.046 -0.18534,-0.004 -0.36889,0.003 -0.54566,0.067 -0.0945,0.0314 -0.19196,0.068 -0.26342,0.13879 -0.10433,0.11067 -0.078,0.29674 -0.0706,0.43295 0.0626,0.38117 0.19752,0.744 0.38243,1.08309 0.26415,0.47544 0.55362,0.93617 0.86578,1.38167 0.32424,0.45302 0.65318,0.90255 1.00001,1.33868 0.2947,0.37545 0.60814,0.73532 0.91495,1.10085 0.19094,0.21633 0.37521,0.43967 0.5832,0.64005 0.13304,0.14592 -0.87763,1.28622 -0.94192,0.78235 -0.18778,-0.28723 -0.40474,-0.55481 -0.6122,-0.82775 -0.35547,-0.46354 -0.72286,-0.91795 -1.09714,-1.36643 -0.38443,-0.47476 -0.7782,-0.94193 -1.15866,-1.41995 -0.3177,-0.38316 -0.62866,-0.77192 -0.9537,-1.14894 -0.18683,-0.21701 -0.38097,-0.42708 -0.58752,-0.62558 -2.00452,-2.00452 -1.05958,-2.94947 0.94494,-0.94494 z"
       inkscape:connector-curvature="0" />
    <path
       style="opacity:1;fill:#000000;fill-opacity:1;fill-rule:nonzero;stroke:#000000;stroke-width:0.1;stroke-linecap:round;stroke-linejoin:round;stroke-miterlimit:4;stroke-dasharray:none;stroke-dashoffset:0;stroke-opacity:1;paint-order:markers fill stroke"
       id="path5798"
       d="m 121.01721,153.42498 c 0.0983,-0.22645 0.21517,-0.44299 0.33507,-0.65851 1.37815,-2.47728 2.54595,-1.82762 1.1678,0.64966 v 0 c -0.0976,0.17554 -0.19515,0.3504 -0.27458,0.53526 -1.11669,2.60561 -2.34498,2.0792 -1.22829,-0.52641 z"
       inkscape:connector-curvature="0" />
    <path
       style="opacity:1;fill:#000000;fill-opacity:1;fill-rule:nonzero;stroke:#000000;stroke-width:0.1;stroke-linecap:round;stroke-linejoin:round;stroke-miterlimit:4;stroke-dasharray:none;stroke-dashoffset:0;stroke-opacity:1;paint-order:markers fill stroke"
       id="path5822"
       d="m 101.69063,169.10164 c -0.15752,0.0583 -0.30672,0.13373 -0.43847,0.2382 -0.19383,0.12839 -0.34329,0.29888 -0.47317,0.48905 -0.11602,0.20469 -0.17815,0.42876 -0.21061,0.6602 -0.0243,0.23787 0.0254,0.46657 0.11827,0.68414 0.0661,0.12838 0.14043,0.27021 0.29032,0.30687 0.0826,0.0202 0.1626,0.004 0.23487,-0.0379 0.10348,-0.071 0.17396,-0.17597 0.24088,-0.2797 0.0929,-0.19268 0.14462,-0.39905 0.18226,-0.60842 0.0447,-0.25696 0.0439,-0.51881 0.0262,-0.77816 -0.0336,-0.34096 0.0211,-0.63968 0.19769,-0.93334 0.36478,-0.36816 0.76102,-0.33404 1.17231,-0.0991 0.22818,0.14969 0.44458,0.31634 0.65112,0.49455 0.26447,0.21121 0.51035,0.44382 0.76501,0.66648 0.31991,0.28646 0.61517,0.59832 0.91909,0.90125 0.33515,0.34915 0.66342,0.70481 0.99515,1.05719 0.34644,0.3848 0.70466,0.75883 1.04162,1.15206 0.35364,0.40793 0.62618,0.86917 0.84593,1.36002 0.19281,0.43482 0.28463,0.89781 0.30469,1.37054 0.007,0.46911 -0.15288,0.87734 -0.43741,1.242 -0.29408,0.32576 -0.66809,0.47998 -1.09601,0.52982 -0.37485,0.0281 -0.73149,-0.0695 -1.0683,-0.22461 -0.3864,-0.20459 -0.60923,-0.5466 -0.76482,-0.94144 -0.13564,-0.40184 -0.12985,-0.8256 -0.12269,-1.24388 0.0205,-0.48536 0.0896,-0.96713 0.1662,-1.44634 0.0889,-0.50267 0.16603,-1.0071 0.23167,-1.5133 0.0754,-0.51863 0.10967,-1.0404 0.12975,-1.56359 0.0154,-0.48302 -0.0291,-0.96323 -0.0934,-1.44113 -0.0532,-0.35694 -0.1744,-0.69801 -0.2766,-1.04273 -0.12335,-0.31191 -0.12504,-0.59076 -0.009,-0.90451 0.78935,-0.47156 0.7983,-0.40977 1.39929,0.004 0.2174,0.13623 0.43502,0.27209 0.66478,0.38672 0.13808,0.0567 0.30074,0.15442 0.45607,0.10943 0.0478,-0.0236 0.0646,-0.0621 0.0865,-0.10441 0.0727,-0.13505 0.0782,-0.29587 0.0948,-0.44557 0.0104,-0.26799 -0.007,-0.53583 -1.4e-4,-0.80378 0.006,-0.5361 0.32972,-0.85771 0.84233,-0.95074 0.30037,-0.009 0.56864,0.11321 0.83414,0.23686 0.26049,0.1361 0.5142,0.28503 0.76672,0.43532 0.18908,0.10722 0.37961,0.23281 0.59921,0.26224 0.0483,0.004 0.069,-0.0157 0.0997,-0.0457 2.51577,-1.30658 3.13169,-0.12064 0.61593,1.18594 v 0 c -0.30985,0.15147 -0.62965,0.23216 -0.97632,0.17043 -0.36664,-0.0802 -0.70752,-0.22351 -1.02448,-0.42606 -0.21241,-0.12791 -0.42804,-0.2507 -0.64491,-0.37075 -0.0288,-0.0134 -0.33425,-0.12622 -0.1902,-0.11432 0.14386,-0.0412 0.1855,-0.036 0.30411,-0.15778 0.014,-0.0144 0.16078,-0.37716 0.10931,-0.17828 -0.0159,0.30238 0.026,0.60695 -0.008,0.90924 -0.0455,0.38748 -0.11805,0.77117 -0.35307,1.09437 -0.26753,0.3378 -0.59829,0.57622 -1.03588,0.63393 -0.41482,0.0254 -0.80764,-0.0512 -1.17782,-0.24717 -0.28282,-0.14369 -0.55421,-0.30753 -0.82085,-0.47921 -0.37515,-0.25855 -0.14381,-0.0787 -0.0513,-0.12135 0.20886,-0.0962 0.39358,-0.23791 0.59037,-0.35686 0.0877,-0.27267 0.009,-0.44309 0.10985,-0.10142 0.12179,0.41083 0.26245,0.81821 0.31984,1.24481 0.0741,0.55386 0.1229,1.11077 0.10431,1.67035 -0.0218,0.56348 -0.0595,1.12553 -0.13987,1.68416 -0.0675,0.51953 -0.1462,1.03738 -0.23748,1.55331 -0.0674,0.41674 -0.12748,0.83582 -0.14947,1.25774 -0.005,0.25615 -0.0216,0.51848 0.0442,0.76875 0.0118,0.0724 0.0468,0.14475 0.0988,0.19488 0.0997,0.0717 0.24293,0.0875 0.36229,0.0914 0.0729,0.0104 0.12791,-0.0108 0.1868,-0.0575 0.0919,-0.0907 0.12145,-0.20916 0.12531,-0.3403 -0.003,-0.30117 -0.0734,-0.59544 -0.19114,-0.87249 -0.16275,-0.37438 -0.37194,-0.72199 -0.63945,-1.03212 -0.32228,-0.37778 -0.66788,-0.73463 -0.99902,-1.10457 -0.32202,-0.34208 -0.641,-0.68704 -0.96555,-1.02674 -0.2833,-0.28243 -0.55847,-0.57317 -0.85531,-0.8417 -0.25308,-0.22133 -0.49745,-0.45242 -0.76028,-0.66237 -0.14073,-0.12252 -0.28907,-0.23357 -0.43914,-0.34434 -0.0232,-0.0132 -0.0481,-0.0239 -0.0696,-0.0398 -0.0297,-0.022 0.0715,0.02 0.10821,0.0244 0.22269,0.0267 0.38544,-0.0953 0.52578,-0.25032 0.13063,-0.25879 0.0347,-0.20771 0.0621,0.0506 0.0233,0.37023 0.0203,0.74332 -0.0458,1.10957 -0.0737,0.38821 -0.18163,0.77093 -0.38836,1.11169 -0.22774,0.33048 -0.49547,0.62302 -0.87403,0.78146 -0.42936,0.14967 -0.86244,0.17776 -1.28945,-0.007 -0.436992,-0.22868 -0.762228,-0.55572 -0.95248,-1.01793 -0.170524,-0.44545 -0.262032,-0.90772 -0.196003,-1.38619 0.07241,-0.43049 0.19526,-0.8481 0.435896,-1.21763 0.215431,-0.30321 0.459907,-0.58188 0.769047,-0.79383 0.26646,-0.19353 0.55413,-0.35335 0.87006,-0.45174 2.72575,-0.77879 3.09287,0.50614 0.36712,1.28493 z"
       inkscape:connector-curvature="0" />
    <path
       style="opacity:1;fill:#000000;fill-opacity:1;fill-rule:nonzero;stroke:#000000;stroke-width:0.1;stroke-linecap:round;stroke-linejoin:round;stroke-miterlimit:4;stroke-dasharray:none;stroke-dashoffset:0;stroke-opacity:1;paint-order:markers fill stroke"
       id="path5824"
       d="m 112.87456,163.91568 c 0.0905,0.16879 0.21362,0.3147 0.33396,0.46237 0.10115,0.10895 0.20826,0.24628 0.36148,0.2786 0.10076,0.0183 0.18758,-0.0316 0.27916,-0.065 0.0923,-0.0367 0.16501,-0.0802 0.20446,-0.16581 -0.004,-0.0446 -0.0223,-0.10891 -0.0374,-0.16819 -0.0381,-0.0935 -0.10968,-0.16502 -0.18814,-0.22581 -0.13854,-0.10125 -0.29819,-0.16818 -0.46565,-0.20311 -0.20968,-0.044 -0.4253,-0.0392 -0.63629,-0.008 -0.14649,0.0187 -0.26062,0.0924 -0.37289,0.18086 -0.0208,0.23397 -1.32719,-0.36273 -1.03111,-0.88918 0.0717,-0.13784 0.13566,-0.28056 0.19502,-0.42437 0.0909,-0.31922 0.25845,-0.56349 0.5069,-0.77964 0.36973,-0.23157 0.75225,-0.19982 1.14134,-0.0441 0.33965,0.16851 0.61649,0.43482 0.89577,0.68619 0.35401,0.34206 0.69918,0.69355 1.03618,1.05237 0.41592,0.43015 0.83707,0.85492 1.24636,1.29144 0.4229,0.4494 0.85244,0.89248 1.26706,1.34963 0.31873,0.34677 0.64833,0.68341 0.98691,1.0108 0.0336,0.0812 0.44154,0.31213 0.14115,0.15348 -0.99528,1.00542 -0.67843,1.03505 -1.12883,0.46332 -0.22843,-0.28301 -0.47154,-0.5537 -0.71504,-0.8237 -0.3175,-0.36039 -0.65472,-0.70175 -0.99639,-1.03897 -0.36388,-0.37373 -0.7379,-0.73748 -1.09011,-1.12235 -0.36721,-0.39049 -0.62439,-0.84902 -0.79187,-1.35481 -0.12549,-0.42817 -0.1231,-0.85714 -0.0189,-1.28726 0.12088,-0.40963 0.38884,-0.7211 0.70826,-0.99103 0.34976,-0.27101 0.74487,-0.37601 1.1804,-0.34795 0.49574,0.0836 0.7792,0.41408 0.9238,0.87326 0.0722,0.35972 -0.0112,0.70124 -0.14519,1.03382 -1.09909,2.61309 -2.33091,2.09496 -1.23182,-0.51812 v 0 c 0.0247,-0.0515 0.0686,-0.19554 0.0806,-0.19128 0.0523,0.0782 0.13126,0.14065 0.23092,0.13114 -0.038,-0.02 -0.12823,0.006 -0.18804,0.0497 -0.1072,0.0839 -0.21211,0.17392 -0.26701,0.30201 -0.0609,0.17691 -0.0401,0.35919 5e-5,0.53948 0.0964,0.3262 0.27415,0.61048 0.50563,0.85995 0.33569,0.36863 0.69541,0.71415 1.04204,1.07236 0.36005,0.35545 0.71512,0.7156 1.05004,1.09511 0.26381,0.2926 0.52698,0.58615 0.77373,0.89343 0.61667,0.78771 0.53524,0.52957 -0.38316,1.61623 -0.2314,-0.11002 -0.42986,-0.26313 -0.60938,-0.4473 -0.35953,-0.34784 -0.70961,-0.70544 -1.048,-1.07392 -0.40926,-0.45189 -0.83445,-0.88877 -1.25181,-1.33308 -0.40911,-0.43645 -0.83072,-0.86054 -1.24601,-1.29107 -0.31098,-0.33184 -0.63074,-0.65561 -0.95582,-0.97365 -0.17409,-0.15683 -0.34654,-0.3195 -0.53768,-0.45517 0.024,-0.0134 0.14513,-0.0577 0.18202,-0.10014 0.19606,-0.22952 -0.0704,0.0934 -0.0615,0.21596 -0.0824,0.19507 -0.16861,0.38969 -0.26991,0.57563 -0.23554,0.37861 -1.64724,-0.53127 -0.94034,-0.83829 0.30162,-0.22861 0.63706,-0.39444 1.01633,-0.44627 0.37737,-0.045 0.75887,-0.0521 1.13127,0.0374 0.37101,0.0989 0.7249,0.24446 1.02202,0.49467 0.29652,0.2698 0.53261,0.58379 0.62035,0.98347 0.068,0.40098 0.0638,0.79894 -0.16273,1.15472 -0.22236,0.31675 -0.50206,0.5533 -0.87037,0.68566 -0.39913,0.13962 -0.80222,0.19677 -1.21135,0.0509 -0.35991,-0.15236 -0.66879,-0.36983 -0.91248,-0.67969 -0.18218,-0.2236 -0.36074,-0.45117 -0.49325,-0.70889 -1.26777,-2.53554 -0.0725,-3.13318 1.19527,-0.59763 z"
       inkscape:connector-curvature="0" />
    <path
       style="opacity:1;fill:#000000;fill-opacity:1;fill-rule:nonzero;stroke:#000000;stroke-width:0.1;stroke-linecap:round;stroke-linejoin:round;stroke-miterlimit:4;stroke-dasharray:none;stroke-dashoffset:0;stroke-opacity:1;paint-order:markers fill stroke"
       id="path5826"
       d="m 118.98798,160.36935 c 0.0933,0.12858 0.19004,0.24912 0.31944,0.34238 0.0667,0.0157 0.14494,0.0213 0.21268,0.003 0.0735,-0.0343 0.13891,-0.0776 0.19072,-0.14025 0.0592,-0.0798 0.11603,-0.16831 0.11356,-0.27062 -0.0146,-0.13699 -0.0585,-0.27111 -0.12122,-0.39349 -0.0614,-0.0702 -0.13634,-0.14872 -0.23007,-0.1712 -0.10016,-0.0279 -0.21775,-0.0667 -0.3192,-0.0256 -0.095,0.08 0.0561,-0.0322 0.0824,-0.0665 0.18151,-0.39618 -0.14193,-0.5881 -0.47235,-0.71748 -0.15442,-0.0475 -0.35706,0.14453 -0.24622,-0.0302 0.14535,-0.17412 0.24237,-0.37949 0.36309,-0.57 0.21145,-0.3324 0.50585,-0.50988 0.88451,-0.58863 0.4278,-0.0247 0.74763,0.19999 1.05077,0.47185 0.30418,0.30404 0.55434,0.654 0.79811,1.00659 0.30695,0.42958 0.5868,0.87732 0.88103,1.31554 0.33049,0.50476 0.63193,1.0275 0.94739,1.54153 0.29092,0.47974 0.58098,0.95996 0.88143,1.43383 0.19428,0.26545 0.34509,0.56365 0.55434,0.81816 0.53953,0.38721 -0.67301,1.30887 -1.03811,0.84332 -0.20846,-0.27884 -0.4308,-0.54683 -0.64784,-0.81897 -0.31567,-0.39948 -0.65142,-0.78233 -0.97659,-1.17393 -0.37211,-0.44318 -0.71808,-0.90829 -1.0268,-1.39768 -0.30182,-0.47259 -0.49163,-0.99171 -0.58869,-1.54127 -0.0712,-0.47508 0.0176,-0.92358 0.22983,-1.34862 0.20174,-0.35506 0.50289,-0.59592 0.86727,-0.76554 0.423,-0.15526 0.83511,-0.0864 1.23525,0.0921 0.42999,0.22927 0.63257,0.60201 0.67178,1.07533 -0.001,0.31001 -0.1379,0.57641 -0.29579,0.83288 -1.50552,2.402 -2.63784,1.69229 -1.13231,-0.70971 v 0 c 0.0191,-0.0293 0.0694,-0.17975 0.0922,-0.0873 0.0126,0.03 0.10132,0.16802 0.0873,0.0943 -0.0428,-0.0294 -0.0888,-0.0487 -0.13666,-0.0673 -0.0851,0.0292 -0.15444,0.0832 -0.20813,0.16071 -0.0992,0.14929 -0.10925,0.32771 -0.0928,0.50266 0.057,0.37788 0.19978,0.72822 0.403,1.05213 0.27416,0.44116 0.59081,0.85488 0.92283,1.25395 0.33046,0.39847 0.67232,0.78751 0.99299,1.19409 0.22016,0.27606 0.44564,0.54799 0.65716,0.83079 0.38393,0.49487 -0.82047,1.45253 -1.06204,0.80971 -0.23256,-0.2973 -0.42414,-0.6232 -0.63705,-0.93444 -0.30376,-0.47953 -0.59771,-0.96505 -0.89183,-1.45052 -0.30562,-0.49865 -0.59854,-1.00515 -0.91779,-1.4954 -0.29084,-0.43342 -0.56761,-0.87612 -0.8711,-1.30095 -0.18493,-0.26816 -0.37277,-0.53409 -0.59404,-0.7741 -0.12662,-0.11548 -0.1811,-0.12864 0.004,-0.13686 0.0866,-0.0305 0.2,-0.13322 0.0797,-0.0144 -0.14005,0.21019 -0.24179,0.44598 -0.40983,0.63785 -0.24159,0.31682 -0.50552,0.54993 -0.92458,0.57156 -0.125,-0.041 -0.26091,-0.0576 -0.37501,-0.12307 -0.3743,-0.21487 -0.39323,-0.70692 -0.26798,-1.06066 0.19733,-0.36217 0.48655,-0.59615 0.89706,-0.68175 0.3841,-0.0558 0.76109,-0.0258 1.12002,0.13368 0.36879,0.18774 0.68024,0.44301 0.87224,0.81865 0.16405,0.3691 0.27507,0.75795 0.22768,1.16646 -0.0732,0.38371 -0.22119,0.7301 -0.49831,1.01364 -0.28306,0.26508 -0.6076,0.46176 -0.99902,0.5155 -0.41332,0.0282 -0.81403,-0.0308 -1.15937,-0.27859 -0.2363,-0.18887 -0.44073,-0.40528 -0.61101,-0.65603 -1.57248,-2.35872 -0.46057,-3.09999 1.11191,-0.74127 z"
       inkscape:connector-curvature="0" />
    <path
       style="opacity:1;fill:#000000;fill-opacity:1;fill-rule:nonzero;stroke:#000000;stroke-width:0.1;stroke-linecap:round;stroke-linejoin:round;stroke-miterlimit:4;stroke-dasharray:none;stroke-dashoffset:0;stroke-opacity:1;paint-order:markers fill stroke"
       id="path5828"
       d="m 127.71546,160.07901 c 0.008,-0.0175 0.0153,-0.0351 0.023,-0.0526 1.16137,-2.58601 2.38042,-2.03854 1.21906,0.54747 v 0 c -0.0156,0.0342 -0.0312,0.0685 -0.0468,0.10275 -1.26777,2.53554 -2.46303,1.93791 -1.19526,-0.59764 z"
       inkscape:connector-curvature="0" />
  </g>
</svg>
