<svg version="1.1" xmlns="http://www.w3.org/2000/svg" xmlns:xlink="http://www.w3.org/1999/xlink" width="1200" height="800"><defs/><g transform="scale(2,2)"><g id="background-a1c4cf66"><rect fill="white" stroke="none" x="0" y="0" width="600" height="400" class="dcg-svg-background"/></g><g id="graphpaper-a1c4cf66"><g id="grid-a1c4cf66"><g><path fill="none" stroke="rgb(0,0,0)" class="dcg-svg-minor-gridline" paint-order="fill stroke markers" d=" M 9.5 0 L 9.5 400" stroke-opacity="0.3" stroke-miterlimit="10" stroke-dasharray=""/><path fill="none" stroke="rgb(0,0,0)" class="dcg-svg-minor-gridline" paint-order="fill stroke markers" d=" M 31.5 0 L 31.5 400" stroke-opacity="0.3" stroke-miterlimit="10" stroke-dasharray=""/><path fill="none" stroke="rgb(0,0,0)" class="dcg-svg-minor-gridline" paint-order="fill stroke markers" d=" M 53.5 0 L 53.5 400" stroke-opacity="0.3" stroke-miterlimit="10" stroke-dasharray=""/><path fill="none" stroke="rgb(0,0,0)" class="dcg-svg-minor-gridline" paint-order="fill stroke markers" d=" M 75.5 0 L 75.5 400" stroke-opacity="0.3" stroke-miterlimit="10" stroke-dasharray=""/><path fill="none" stroke="rgb(0,0,0)" class="dcg-svg-minor-gridline" paint-order="fill stroke markers" d=" M 97.5 0 L 97.5 400" stroke-opacity="0.3" stroke-miterlimit="10" stroke-dasharray=""/><path fill="none" stroke="rgb(0,0,0)" class="dcg-svg-minor-gridline" paint-order="fill stroke markers" d=" M 119.5 0 L 119.5 400" stroke-opacity="0.3" stroke-miterlimit="10" stroke-dasharray=""/><path fill="none" stroke="rgb(0,0,0)" class="dcg-svg-minor-gridline" paint-order="fill stroke markers" d=" M 141.5 0 L 141.5 400" stroke-opacity="0.3" stroke-miterlimit="10" stroke-dasharray=""/><path fill="none" stroke="rgb(0,0,0)" class="dcg-svg-minor-gridline" paint-order="fill stroke markers" d=" M 163.5 0 L 163.5 400" stroke-opacity="0.3" stroke-miterlimit="10" stroke-dasharray=""/><path fill="none" stroke="rgb(0,0,0)" class="dcg-svg-minor-gridline" paint-order="fill stroke markers" d=" M 185.5 0 L 185.5 400" stroke-opacity="0.3" stroke-miterlimit="10" stroke-dasharray=""/><path fill="none" stroke="rgb(0,0,0)" class="dcg-svg-minor-gridline" paint-order="fill stroke markers" d=" M 207.5 0 L 207.5 400" stroke-opacity="0.3" stroke-miterlimit="10" stroke-dasharray=""/><path fill="none" stroke="rgb(0,0,0)" class="dcg-svg-minor-gridline" paint-order="fill stroke markers" d=" M 229.5 0 L 229.5 400" stroke-opacity="0.3" stroke-miterlimit="10" stroke-dasharray=""/><path fill="none" stroke="rgb(0,0,0)" class="dcg-svg-minor-gridline" paint-order="fill stroke markers" d=" M 251.5 0 L 251.5 400" stroke-opacity="0.3" stroke-miterlimit="10" stroke-dasharray=""/><path fill="none" stroke="rgb(0,0,0)" class="dcg-svg-minor-gridline" paint-order="fill stroke markers" d=" M 273.5 0 L 273.5 400" stroke-opacity="0.3" stroke-miterlimit="10" stroke-dasharray=""/><path fill="none" stroke="rgb(0,0,0)" class="dcg-svg-minor-gridline" paint-order="fill stroke markers" d=" M 317.5 0 L 317.5 400" stroke-opacity="0.3" stroke-miterlimit="10" stroke-dasharray=""/><path fill="none" stroke="rgb(0,0,0)" class="dcg-svg-minor-gridline" paint-order="fill stroke markers" d=" M 339.5 0 L 339.5 400" stroke-opacity="0.3" stroke-miterlimit="10" stroke-dasharray=""/><path fill="none" stroke="rgb(0,0,0)" class="dcg-svg-minor-gridline" paint-order="fill stroke markers" d=" M 362.5 0 L 362.5 400" stroke-opacity="0.3" stroke-miterlimit="10" stroke-dasharray=""/><path fill="none" stroke="rgb(0,0,0)" class="dcg-svg-minor-gridline" paint-order="fill stroke markers" d=" M 384.5 0 L 384.5 400" stroke-opacity="0.3" stroke-miterlimit="10" stroke-dasharray=""/><path fill="none" stroke="rgb(0,0,0)" class="dcg-svg-minor-gridline" paint-order="fill stroke markers" d=" M 406.5 0 L 406.5 400" stroke-opacity="0.3" stroke-miterlimit="10" stroke-dasharray=""/><path fill="none" stroke="rgb(0,0,0)" class="dcg-svg-minor-gridline" paint-order="fill stroke markers" d=" M 428.5 0 L 428.5 400" stroke-opacity="0.3" stroke-miterlimit="10" stroke-dasharray=""/><path fill="none" stroke="rgb(0,0,0)" class="dcg-svg-minor-gridline" paint-order="fill stroke markers" d=" M 450.5 0 L 450.5 400" stroke-opacity="0.3" stroke-miterlimit="10" stroke-dasharray=""/><path fill="none" stroke="rgb(0,0,0)" class="dcg-svg-minor-gridline" paint-order="fill stroke markers" d=" M 472.5 0 L 472.5 400" stroke-opacity="0.3" stroke-miterlimit="10" stroke-dasharray=""/><path fill="none" stroke="rgb(0,0,0)" class="dcg-svg-minor-gridline" paint-order="fill stroke markers" d=" M 494.5 0 L 494.5 400" stroke-opacity="0.3" stroke-miterlimit="10" stroke-dasharray=""/><path fill="none" stroke="rgb(0,0,0)" class="dcg-svg-minor-gridline" paint-order="fill stroke markers" d=" M 516.5 0 L 516.5 400" stroke-opacity="0.3" stroke-miterlimit="10" stroke-dasharray=""/><path fill="none" stroke="rgb(0,0,0)" class="dcg-svg-minor-gridline" paint-order="fill stroke markers" d=" M 538.5 0 L 538.5 400" stroke-opacity="0.3" stroke-miterlimit="10" stroke-dasharray=""/><path fill="none" stroke="rgb(0,0,0)" class="dcg-svg-minor-gridline" paint-order="fill stroke markers" d=" M 560.5 0 L 560.5 400" stroke-opacity="0.3" stroke-miterlimit="10" stroke-dasharray=""/><path fill="none" stroke="rgb(0,0,0)" class="dcg-svg-minor-gridline" paint-order="fill stroke markers" d=" M 582.5 0 L 582.5 400" stroke-opacity="0.3" stroke-miterlimit="10" stroke-dasharray=""/><path fill="none" stroke="rgb(0,0,0)" class="dcg-svg-minor-gridline" paint-order="fill stroke markers" d=" M 0 399.5 L 600 399.5" stroke-opacity="0.3" stroke-miterlimit="10" stroke-dasharray=""/><path fill="none" stroke="rgb(0,0,0)" class="dcg-svg-minor-gridline" paint-order="fill stroke markers" d=" M 0 377.5 L 600 377.5" stroke-opacity="0.3" stroke-miterlimit="10" stroke-dasharray=""/><path fill="none" stroke="rgb(0,0,0)" class="dcg-svg-minor-gridline" paint-order="fill stroke markers" d=" M 0 355.5 L 600 355.5" stroke-opacity="0.3" stroke-miterlimit="10" stroke-dasharray=""/><path fill="none" stroke="rgb(0,0,0)" class="dcg-svg-minor-gridline" paint-order="fill stroke markers" d=" M 0 333.5 L 600 333.5" stroke-opacity="0.3" stroke-miterlimit="10" stroke-dasharray=""/><path fill="none" stroke="rgb(0,0,0)" class="dcg-svg-minor-gridline" paint-order="fill stroke markers" d=" M 0 311.5 L 600 311.5" stroke-opacity="0.3" stroke-miterlimit="10" stroke-dasharray=""/><path fill="none" stroke="rgb(0,0,0)" class="dcg-svg-minor-gridline" paint-order="fill stroke markers" d=" M 0 289.5 L 600 289.5" stroke-opacity="0.3" stroke-miterlimit="10" stroke-dasharray=""/><path fill="none" stroke="rgb(0,0,0)" class="dcg-svg-minor-gridline" paint-order="fill stroke markers" d=" M 0 267.5 L 600 267.5" stroke-opacity="0.3" stroke-miterlimit="10" stroke-dasharray=""/><path fill="none" stroke="rgb(0,0,0)" class="dcg-svg-minor-gridline" paint-order="fill stroke markers" d=" M 0 245.5 L 600 245.5" stroke-opacity="0.3" stroke-miterlimit="10" stroke-dasharray=""/><path fill="none" stroke="rgb(0,0,0)" class="dcg-svg-minor-gridline" paint-order="fill stroke markers" d=" M 0 223.5 L 600 223.5" stroke-opacity="0.3" stroke-miterlimit="10" stroke-dasharray=""/><path fill="none" stroke="rgb(0,0,0)" class="dcg-svg-minor-gridline" paint-order="fill stroke markers" d=" M 0 179.5 L 600 179.5" stroke-opacity="0.3" stroke-miterlimit="10" stroke-dasharray=""/><path fill="none" stroke="rgb(0,0,0)" class="dcg-svg-minor-gridline" paint-order="fill stroke markers" d=" M 0 157.5 L 600 157.5" stroke-opacity="0.3" stroke-miterlimit="10" stroke-dasharray=""/><path fill="none" stroke="rgb(0,0,0)" class="dcg-svg-minor-gridline" paint-order="fill stroke markers" d=" M 0 135.5 L 600 135.5" stroke-opacity="0.3" stroke-miterlimit="10" stroke-dasharray=""/><path fill="none" stroke="rgb(0,0,0)" class="dcg-svg-minor-gridline" paint-order="fill stroke markers" d=" M 0 113.5 L 600 113.5" stroke-opacity="0.3" stroke-miterlimit="10" stroke-dasharray=""/><path fill="none" stroke="rgb(0,0,0)" class="dcg-svg-minor-gridline" paint-order="fill stroke markers" d=" M 0 91.5 L 600 91.5" stroke-opacity="0.3" stroke-miterlimit="10" stroke-dasharray=""/><path fill="none" stroke="rgb(0,0,0)" class="dcg-svg-minor-gridline" paint-order="fill stroke markers" d=" M 0 69.5 L 600 69.5" stroke-opacity="0.3" stroke-miterlimit="10" stroke-dasharray=""/><path fill="none" stroke="rgb(0,0,0)" class="dcg-svg-minor-gridline" paint-order="fill stroke markers" d=" M 0 47.5 L 600 47.5" stroke-opacity="0.3" stroke-miterlimit="10" stroke-dasharray=""/><path fill="none" stroke="rgb(0,0,0)" class="dcg-svg-minor-gridline" paint-order="fill stroke markers" d=" M 0 25.5 L 600 25.5" stroke-opacity="0.3" stroke-miterlimit="10" stroke-dasharray=""/><path fill="none" stroke="rgb(0,0,0)" class="dcg-svg-minor-gridline" paint-order="fill stroke markers" d=" M 0 3.5 L 600 3.5" stroke-opacity="0.3" stroke-miterlimit="10" stroke-dasharray=""/><path fill="none" stroke="rgb(0,0,0)" class="dcg-svg-major-gridline" paint-order="fill stroke markers" d=" M 31.5 0 L 31.5 400" stroke-opacity="0.4285714285714285" stroke-miterlimit="10" stroke-dasharray=""/><path fill="none" stroke="rgb(0,0,0)" class="dcg-svg-major-gridline" paint-order="fill stroke markers" d=" M 119.5 0 L 119.5 400" stroke-opacity="0.4285714285714285" stroke-miterlimit="10" stroke-dasharray=""/><path fill="none" stroke="rgb(0,0,0)" class="dcg-svg-major-gridline" paint-order="fill stroke markers" d=" M 207.5 0 L 207.5 400" stroke-opacity="0.4285714285714285" stroke-miterlimit="10" stroke-dasharray=""/><path fill="none" stroke="rgb(0,0,0)" class="dcg-svg-major-gridline" paint-order="fill stroke markers" d=" M 384.5 0 L 384.5 400" stroke-opacity="0.4285714285714285" stroke-miterlimit="10" stroke-dasharray=""/><path fill="none" stroke="rgb(0,0,0)" class="dcg-svg-major-gridline" paint-order="fill stroke markers" d=" M 472.5 0 L 472.5 400" stroke-opacity="0.4285714285714285" stroke-miterlimit="10" stroke-dasharray=""/><path fill="none" stroke="rgb(0,0,0)" class="dcg-svg-major-gridline" paint-order="fill stroke markers" d=" M 560.5 0 L 560.5 400" stroke-opacity="0.4285714285714285" stroke-miterlimit="10" stroke-dasharray=""/><path fill="none" stroke="rgb(0,0,0)" class="dcg-svg-major-gridline" paint-order="fill stroke markers" d=" M 0 377.5 L 600 377.5" stroke-opacity="0.4285714285714285" stroke-miterlimit="10" stroke-dasharray=""/><path fill="none" stroke="rgb(0,0,0)" class="dcg-svg-major-gridline" paint-order="fill stroke markers" d=" M 0 289.5 L 600 289.5" stroke-opacity="0.4285714285714285" stroke-miterlimit="10" stroke-dasharray=""/><path fill="none" stroke="rgb(0,0,0)" class="dcg-svg-major-gridline" paint-order="fill stroke markers" d=" M 0 113.5 L 600 113.5" stroke-opacity="0.4285714285714285" stroke-miterlimit="10" stroke-dasharray=""/><path fill="none" stroke="rgb(0,0,0)" class="dcg-svg-major-gridline" paint-order="fill stroke markers" d=" M 0 25.5 L 600 25.5" stroke-opacity="0.4285714285714285" stroke-miterlimit="10" stroke-dasharray=""/></g></g><g id="axis-a1c4cf66"><g id="yaxis-a1c4cf66"><title>Y axis</title><g><path fill="none" stroke="rgb(0,0,0)" class="dcg-svg-axis-line" paint-order="fill stroke markers" d=" M 296 0 L 296 400" stroke-opacity="0.9" stroke-miterlimit="10" stroke-width="2" stroke-dasharray=""/></g></g><g id="xaxis-a1c4cf66"><title>X axis</title><g><path fill="none" stroke="rgb(0,0,0)" class="dcg-svg-axis-line" paint-order="fill stroke markers" d=" M 0 202 L 600 202" stroke-opacity="0.9" stroke-miterlimit="10" stroke-width="2" stroke-dasharray=""/></g></g><g><g class="dcg-svg-axis-value"><text fill="none" stroke="#ffffff" font-family="Arial" font-size="17px" font-style="normal" font-weight="normal" text-decoration="normal" x="286.21241460297887" y="219.71004369704497" text-anchor="middle" stroke-miterlimit="2" stroke-width="3" stroke-dasharray="">0</text><text fill="#000000" stroke="none" font-family="Arial" font-size="17px" font-style="normal" font-weight="normal" text-decoration="normal" x="286.21241460297887" y="219.71004369704497" text-anchor="middle">0</text></g><g class="dcg-svg-axis-value"><text fill="none" stroke="#ffffff" font-family="Arial" font-size="17px" font-style="normal" font-weight="normal" text-decoration="normal" x="28.776042185952008" y="219.71004369704497" text-anchor="middle" stroke-miterlimit="2" stroke-width="3" stroke-dasharray="">-0.06</text><text fill="#000000" stroke="none" font-family="Arial" font-size="17px" font-style="normal" font-weight="normal" text-decoration="normal" x="28.776042185952008" y="219.71004369704497" text-anchor="middle">-0.06</text></g><g class="dcg-svg-axis-value"><text fill="none" stroke="#ffffff" font-family="Arial" font-size="17px" font-style="normal" font-weight="normal" text-decoration="normal" x="116.88707583016927" y="219.71004369704497" text-anchor="middle" stroke-miterlimit="2" stroke-width="3" stroke-dasharray="">-0.04</text><text fill="#000000" stroke="none" font-family="Arial" font-size="17px" font-style="normal" font-weight="normal" text-decoration="normal" x="116.88707583016927" y="219.71004369704497" text-anchor="middle">-0.04</text></g><g class="dcg-svg-axis-value"><text fill="none" stroke="#ffffff" font-family="Arial" font-size="17px" font-style="normal" font-weight="normal" text-decoration="normal" x="204.99810947438658" y="219.71004369704497" text-anchor="middle" stroke-miterlimit="2" stroke-width="3" stroke-dasharray="">-0.02</text><text fill="#000000" stroke="none" font-family="Arial" font-size="17px" font-style="normal" font-weight="normal" text-decoration="normal" x="204.99810947438658" y="219.71004369704497" text-anchor="middle">-0.02</text></g><g class="dcg-svg-axis-value"><text fill="none" stroke="#ffffff" font-family="Arial" font-size="17px" font-style="normal" font-weight="normal" text-decoration="normal" x="384.05074316907115" y="219.71004369704497" text-anchor="middle" stroke-miterlimit="2" stroke-width="3" stroke-dasharray="">0.02</text><text fill="#000000" stroke="none" font-family="Arial" font-size="17px" font-style="normal" font-weight="normal" text-decoration="normal" x="384.05074316907115" y="219.71004369704497" text-anchor="middle">0.02</text></g><g class="dcg-svg-axis-value"><text fill="none" stroke="#ffffff" font-family="Arial" font-size="17px" font-style="normal" font-weight="normal" text-decoration="normal" x="472.1617768132885" y="219.71004369704497" text-anchor="middle" stroke-miterlimit="2" stroke-width="3" stroke-dasharray="">0.04</text><text fill="#000000" stroke="none" font-family="Arial" font-size="17px" font-style="normal" font-weight="normal" text-decoration="normal" x="472.1617768132885" y="219.71004369704497" text-anchor="middle">0.04</text></g><g class="dcg-svg-axis-value"><text fill="none" stroke="#ffffff" font-family="Arial" font-size="17px" font-style="normal" font-weight="normal" text-decoration="normal" x="560.2728104575058" y="219.71004369704497" text-anchor="middle" stroke-miterlimit="2" stroke-width="3" stroke-dasharray="">0.06</text><text fill="#000000" stroke="none" font-family="Arial" font-size="17px" font-style="normal" font-weight="normal" text-decoration="normal" x="560.2728104575058" y="219.71004369704497" text-anchor="middle">0.06</text></g><g class="dcg-svg-axis-value"><text fill="none" stroke="#ffffff" font-family="Arial" font-size="17px" font-style="normal" font-weight="normal" text-decoration="normal" x="271.56568608735387" y="382.4321109854796" text-anchor="middle" stroke-miterlimit="2" stroke-width="3" stroke-dasharray="">-0.04</text><text fill="#000000" stroke="none" font-family="Arial" font-size="17px" font-style="normal" font-weight="normal" text-decoration="normal" x="271.56568608735387" y="382.4321109854796" text-anchor="middle">-0.04</text></g><g class="dcg-svg-axis-value"><text fill="none" stroke="#ffffff" font-family="Arial" font-size="17px" font-style="normal" font-weight="normal" text-decoration="normal" x="271.56568608735387" y="294.3210773412623" text-anchor="middle" stroke-miterlimit="2" stroke-width="3" stroke-dasharray="">-0.02</text><text fill="#000000" stroke="none" font-family="Arial" font-size="17px" font-style="normal" font-weight="normal" text-decoration="normal" x="271.56568608735387" y="294.3210773412623" text-anchor="middle">-0.02</text></g><g class="dcg-svg-axis-value"><text fill="none" stroke="#ffffff" font-family="Arial" font-size="17px" font-style="normal" font-weight="normal" text-decoration="normal" x="274.39625249360387" y="118.09901005282767" text-anchor="middle" stroke-miterlimit="2" stroke-width="3" stroke-dasharray="">0.02</text><text fill="#000000" stroke="none" font-family="Arial" font-size="17px" font-style="normal" font-weight="normal" text-decoration="normal" x="274.39625249360387" y="118.09901005282767" text-anchor="middle">0.02</text></g><g class="dcg-svg-axis-value"><text fill="none" stroke="#ffffff" font-family="Arial" font-size="17px" font-style="normal" font-weight="normal" text-decoration="normal" x="274.39625249360387" y="29.987976408610372" text-anchor="middle" stroke-miterlimit="2" stroke-width="3" stroke-dasharray="">0.04</text><text fill="#000000" stroke="none" font-family="Arial" font-size="17px" font-style="normal" font-weight="normal" text-decoration="normal" x="274.39625249360387" y="29.987976408610372" text-anchor="middle">0.04</text></g></g></g></g><g id="expressions-a1c4cf66"><g id="sketch-a1c4cf66"><title>Выражение 1</title><path fill="#c74440" stroke="none" paint-order="stroke fill markers" d="" fill-opacity="0.4"/><g><path fill="none" stroke="#c74440" class="dcg-svg-curve" paint-order="fill stroke markers" d=" M 0 216.13864307322243 L 0 216.13864307322243 L 3.955078125 212.824773946179 L 9.082031249999943 207.99060057288824 L 23.291015624999943 194.24082900632385 L 26.953124999999943 191.38264182149032 L 30.029296875 189.42446539869246 L 32.666015625 188.1324477441574 L 35.00976562499994 187.32016828835935 L 37.060546875 186.8888548469054 L 39.11132812499994 186.73080803083602 L 41.01562499999997 186.83511360149856 L 43.06640624999997 187.22001623061502 L 45.11718749999997 187.88457906631604 L 47.31445312499997 188.89673356683957 L 49.8046875 190.3953872437274 L 52.58789062499997 192.4635123288807 L 56.10351562499997 195.55038440712772 L 61.66992187499997 201.0369248469218 L 67.08984374999994 206.22939976413525 L 70.3125 208.81815749123544 L 72.80273437499997 210.39772776088435 L 74.99999999999997 211.4126356677703 L 76.90429687499997 211.96711702135553 L 78.662109375 212.190734446139 L 80.2734375 212.14333847182465 L 81.88476562499997 211.85185511004076 L 83.64257812499997 211.25945801662567 L 85.54687499999997 210.30904750501486 L 87.744140625 208.84978139200052 L 90.38085937499997 206.67325585607645 L 94.33593749999997 202.86083464258894 L 99.755859375 197.66778335453122 L 102.39257812499997 195.66059236830844 L 104.44335937499997 194.5161115421046 L 106.20117187499994 193.8900406389764 L 107.666015625 193.64570398767478 L 109.130859375 193.66656810789186 L 110.59570312499997 193.95602177840527 L 112.20703124999997 194.5773563135011 L 113.96484374999997 195.59185828455853 L 116.16210937499997 197.28071959325476 L 119.23828124999997 200.17411444438955 L 124.365234375 205.0469946840144 L 126.56249999999997 206.59488801767816 L 128.173828125 207.35681575728046 L 129.638671875 207.72289720350895 L 130.95703125 207.76444851024704 L 132.275390625 207.52653199797334 L 133.59375 207.01573698843077 L 135.20507812499997 206.05119315954178 L 137.25585937499997 204.3825668870581 L 141.21093749999997 200.5149238825801 L 143.84765625 198.23565375989182 L 145.60546874999997 197.1862417956663 L 146.92382812499997 196.74308641982543 L 148.095703125 196.62996911697843 L 149.26757812499994 196.79231116783112 L 150.43945312499997 197.22520581697205 L 151.90429687499994 198.11314808404626 L 153.80859375 199.71824162269507 L 159.37499999999997 204.74927537633374 L 160.69335937499997 205.38980793141252 L 161.86523437499997 205.6331001615897 L 162.89062499999997 205.57256450620903 L 163.91601562499997 205.25629558986742 L 165.087890625 204.60434968129675 L 166.69921874999997 203.30143263501392 L 171.82617187499994 198.76523167065255 L 172.99804687499997 198.30225983588264 L 174.0234375 198.21231135032036 L 174.90234374999997 198.38112550629313 L 175.92773437499997 198.85314014809958 L 177.24609374999997 199.8279319620546 L 180.17578125 202.64974113637152 L 181.78710937499994 203.8926806776538 L 182.95898437499997 204.37372774422388 L 183.83789062499997 204.43728597599426 L 184.716796875 204.23305667580104 L 185.74218749999997 203.67859938474456 L 187.20703124999994 202.4389532198099 L 190.28320312499997 199.67199237078745 L 191.30859374999997 199.21646460389988 L 192.18749999999997 199.14578970205153 L 193.06640624999994 199.38634403574255 L 194.09179687499997 200.02270519188258 L 195.70312499999997 201.51589649049382 L 197.607421875 203.19135008107273 L 198.63281249999997 203.65261112540844 L 199.365234375 203.69857864946164 L 200.09765625 203.49517985013114 L 200.9765625 202.95363839000623 L 202.58789062499997 201.44946149937235 L 204.19921874999997 200.09196331043958 L 205.078125 199.75258373347054 L 205.810546875 199.77388747302493 L 206.54296875 200.07488506896448 L 207.568359375 200.87495201203143 L 210.05859374999997 203.02368022234586 L 210.79101562499997 203.22406324867063 L 211.52343749999997 203.104316237468 L 212.25585937499994 202.68331804691013 L 213.72070312499997 201.31729546169507 L 215.0390625 200.29795149631443 L 215.75345917064402 200.1275251622034 L 216.35742187499994 200.25131838624955 L 217.08984375 200.7030514064535 L 219.873046875 202.87258660185654 L 220.45898437499997 202.83997689737907 L 221.19140625 202.45217410006538 L 223.9869652022881 200.41151709339695 L 224.56054687499994 200.5494379774084 L 225.29296875 201.0714059683298 L 227.19726562499997 202.6059442221106 L 227.78320312499997 202.61121200212853 L 228.369140625 202.310598848579 L 230.6864178282899 200.61996150228146 L 231.15234375 200.73061034678628 L 231.884765625 201.2777937493011 L 233.20312499999997 202.3854444038009 L 233.78906249999994 202.4454837437719 L 234.37499999999997 202.1382642524549 L 236.24415731197996 200.7774613990042 L 236.71874999999997 200.9134107751286 L 237.45117187499997 201.52794656836699 L 238.47656249999997 202.30172618166327 L 238.91601562499994 202.29347471331042 L 239.50195312499997 201.9195608852663 L 240.82031249999997 200.90796385774095 L 241.25976562499997 200.97767652395902 L 241.84570312499997 201.42887265223445 L 242.87109374999997 202.2075711124828 L 243.31054687499997 202.15020538192974 L 243.89648437499997 201.69079535813339 L 244.775390625 201.01629093783032 L 245.21484374999997 201.06222695600738 L 245.80078125 201.53037982023596 L 246.533203125 202.10343411341864 L 246.97265624999997 202.079773702465 L 247.55859375 201.61093369981873 L 248.29101562499997 201.08288727492572 L 248.73046874999997 201.18109269799925 L 250.04882812499997 202.05617431749965 L 250.48828124999994 201.79446498978 L 251.41218178891575 201.13608965935853 L 251.80664062499997 201.29897500032243 L 252.78279378380867 202.0087290156076 L 253.12499999999997 201.87703024438395 L 254.15039062499997 201.1960197417035 L 254.58984374999997 201.48221100261327 L 255.2855223289132 201.9611344111524 L 255.61523437499997 201.82472118592338 L 256.43108442135826 201.2317905729388 L 256.787109375 201.3968867394831 L 257.51384651608805 201.9211486842686 L 257.8125 201.7961230595006 L 258.5388356325919 201.26857522049534 L 258.837890625 201.39986751859232 L 259.51055612552733 201.8872322590238 L 259.86328125 201.70242852611804 L 260.43305589995913 201.29991410609995 L 260.74218749999994 201.45192388868693 L 261.3099828077521 201.8582161499302 L 261.62109375 201.69827319756234 L 262.1446328830156 201.32683148078928 L 262.49999999999994 201.5354234464238 L 262.9399917620738 201.83319984723627 L 263.232421875 201.67884504541672 L 263.69877038572815 201.35012163616645 L 263.96484375 201.48544309182617 L 264.42343588402787 201.81148058374245 L 264.697265625 201.66407660950264 L 265.11623838533154 201.37040818991218 L 265.4296875 201.56150636611656 L 265.86914062499994 201.77320015418505 L 266.6015625 201.47065219937113 L 267.023184229214 201.7758254674429 L 267.7734375 201.47459670761828 L 268.1685789254829 201.7610897447871 L 268.798828125 201.44174417273024 L 269.384765625 201.6765743093766 L 269.82421875 201.46002584818442 L 270.20711620620455 201.73633615290035 L 270.849609375 201.53839871042206 L 271.11812224527773 201.72588363716102 L 271.72851562499994 201.55326037503875 L 271.966825805528 201.71648482326268 L 272.46093749999994 201.49156290025402 L 272.900390625 201.63498833047373 L 273.13636329949037 201.46801881024606 L 273.63281249999994 201.63241354647795 L 273.8546522970962 201.47533673563441 L 274.1970899069545 201.6933443291872 L 274.658203125 201.5525401750941 L 274.951171875 201.641172506463 L 275.244140625 201.51948043837038 L 275.46684500025736 201.68117822514213 L 275.76144348905797 201.49362727167295 L 276.123046875 201.6459871087951 L 276.416015625 201.54132810968431 L 276.708984375 201.60657190382628 L 277.001953125 201.59864225126418 L 277.11579198366803 201.66647106682666 L 277.44140625 201.54210550210723 L 277.734375 201.57930335300102 L 277.84450992072857 201.51172265284666 L 278.173828125 201.60080999492587 L 278.29976463747886 201.51541515807105 L 278.61328124999994 201.59966627921816 L 278.73267346702704 201.51883916099248 L 279.052734375 201.57749816418155 L 279.53772672937913 201.52498038387367 L 279.7273553583781 201.64570326477522 L 279.9126492717989 201.5277400201945 L 280.2708141983362 201.53031672176544 L 280.51757812499994 201.59786086043192 L 280.9411730429144 201.53498292228386 L 281.4074694073229 201.6339789892456 L 281.8456456179482 201.54095545706537 L 282.25817095786704 201.6285311993255 L 282.5200283990361 201.6269204163893 L 283.30078124999994 201.5913456331364 L 284.03320312499994 201.56541685650615 L 296.84648661722946 201.58585705875655 L 316.259765625 201.5896187744596 L 316.552734375 201.57657854384956 L 316.845703125 201.6100882719992 L 317.138671875 201.53947390053185 L 317.431640625 201.65998710462912 L 317.68232914275325 201.47874306490274 L 318.1640625 201.62029628474966 L 318.45703125 201.49786097426994 L 318.74305575021737 201.70406858384388 L 319.1200119626107 201.46408469825326 L 319.62890624999994 201.65995863088634 L 319.91259324417973 201.45560257082727 L 320.5078125 201.61983312980132 L 320.76129680443 201.44620375692892 L 321.38671875 201.63490963721736 L 321.6723028435032 201.4357512411896 L 322.26562499999994 201.70341285614754 L 322.6527336288094 201.42408141791176 L 323.29101562499994 201.7137936769607 L 323.71084012422483 201.41099764930283 L 324.46289062499994 201.67733585971408 L 324.85623482049374 201.39626192664704 L 325.63476562499994 201.71573840174239 L 326.220703125 201.41368508816484 L 326.7631806643762 201.80167920417776 L 327.24609375 201.4517778905718 L 327.5390625 201.37571554063783 L 328.271484375 201.80472683253498 L 329.150390625 201.42327788315453 L 329.7347861666921 201.84525591330066 L 330.029296875 201.69582102498111 L 330.56943624195566 201.31387124415974 L 330.908203125 201.49804597648676 L 331.4463631497486 201.87217328799 L 331.787109375 201.69295367563268 L 332.3688629241804 201.28485513506615 L 332.666015625 201.41934166365832 L 333.34058341711585 201.9035121735946 L 333.69140625 201.7294233456669 L 334.3655725336197 201.25093870982136 L 334.71679687499994 201.41796514946097 L 335.44833462834947 201.94029682115115 L 335.74218749999994 201.8257480640068 L 336.59389672079453 201.21095298293756 L 336.9140625 201.33891610520112 L 337.807886583751 201.98386622247494 L 338.0859375 201.89097014374371 L 339.2578125 201.19364284739308 L 339.84375 201.66693366405082 L 340.467237260792 202.0359977347314 L 340.869140625 201.86898112775864 L 341.9277823786053 201.10609425048474 L 342.333984375 201.26714215650645 L 343.48741447906013 202.09909130434878 L 343.9453125 201.909002361432 L 345.15657367477297 201.03635196850743 L 345.55664062499994 201.17493030454426 L 347.021484375 202.17179207914754 L 347.4609375 201.96791613555556 L 348.87312345084626 200.95022374503787 L 349.365234375 201.13033442473275 L 350.9502136505278 202.27272554110854 L 351.416015625 202.1215136477014 L 352.44140625 201.19635249738025 L 353.1970274766697 200.84214288014326 L 353.61328124999994 200.955050402881 L 354.345703125 201.5616076472194 L 355.37109375 202.35174751245796 L 355.81054687499994 202.37574445333567 L 356.39648437499994 202.06435157981795 L 358.154296875 200.71446312606247 L 358.59375 200.75540164286397 L 359.1796875 201.1123370753501 L 361.083984375 202.54597730751084 L 361.669921875 202.43735350060606 L 362.40234375 201.89448908389176 L 364.013671875 200.58576210103834 L 364.599609375 200.54610339977853 L 365.185546875 200.8128625319931 L 366.21093749999994 201.74058635778326 L 367.3828125 202.65128395529644 L 367.96875 202.75809617309412 L 368.5546875 202.57988808771665 L 369.43359375 201.89436288025524 L 371.19140625 200.4148799130884 L 371.786283293756 200.28103219152106 L 372.36328125 200.40584966545194 L 373.095703125 200.87905201288643 L 375.732421875 202.9916550190834 L 376.31835937499994 203.03191896497668 L 376.904296875 202.8431079692636 L 377.783203125 202.20865894816475 L 380.419921875 200.04459195241495 L 381.15234375 199.9529801896341 L 381.884765625 200.18009588857618 L 382.763671875 200.80240012330975 L 385.83984375 203.3329619960176 L 386.57226562499994 203.44371688975082 L 387.30468749999994 203.27069046821236 L 388.18359375 202.73316591858716 L 389.794921875 201.22017789678574 L 391.40625 199.87226243556862 L 392.28515625 199.5106984768668 L 393.017578125 199.47826802695505 L 393.75 199.69221115477254 L 394.775390625 200.348349450592 L 396.67968749999994 202.15682200058077 L 398.291015625 203.50470916506262 L 399.31640625 203.96100188028464 L 400.1953125 204.02390523521183 L 401.07421875 203.77870592562218 L 402.099609375 203.15144181171658 L 403.7109375 201.6862869891807 L 406.201171875 199.44998254856864 L 407.373046875 198.86615354881715 L 408.27190978403695 198.72552850983993 L 409.130859375 198.8527286009989 L 410.15625 199.31740514771 L 411.474609375 200.31562240622685 L 416.455078125 204.58593301184553 L 417.48046875 204.91532434328604 L 418.505859375 204.93835315514724 L 419.53125 204.65780415743765 L 420.703125 204.00406146926957 L 422.314453125 202.66943068367175 L 427.1484375 198.3388245372647 L 428.466796875 197.729235631506 L 429.4921875 197.5374565220991 L 430.517578125 197.60350529169378 L 431.54296875 197.91949263413088 L 432.861328125 198.65502136904638 L 434.619140625 200.0811460373512 L 440.91796875 205.6718883293392 L 442.3828125 206.3160149578392 L 443.5546875 206.53211688520182 L 444.7265625 206.47248150230897 L 445.8984375 206.14454769675504 L 447.216796875 205.48194904230832 L 448.974609375 204.19764477904548 L 451.611328125 201.7287951866761 L 455.85937499999994 197.7330394300848 L 457.763671875 196.4300405551657 L 459.375 195.71509495329835 L 460.693359375 195.42892884872379 L 462.01171875 195.42202668589618 L 463.330078125 195.6903888501743 L 464.794921875 196.29192195789506 L 466.552734375 197.3845628989082 L 468.75 199.19285037748415 L 472.705078125 203.06161795245163 L 476.220703125 206.31379452471043 L 478.564453125 207.99376293671085 L 480.46874999999994 208.9405115098163 L 482.080078125 209.40661447830735 L 483.5939734045921 209.55032071228302 L 485.009765625 209.42587706235082 L 486.474609375 209.04182955435988 L 488.0859375 208.3386804812099 L 489.990234375 207.170213083823 L 492.333984375 205.3233203396903 L 495.703125 202.1535877063796 L 502.734375 195.42857614162645 L 505.517578125 193.36159490164474 L 507.71484375 192.14211287817125 L 509.619140625 191.42300740313306 L 511.376953125 191.05530966252257 L 512.98828125 190.97324311004448 L 514.599609375 191.13346735008375 L 516.357421875 191.57621043460802 L 518.26171875 192.35350124053625 L 520.458984375 193.5994612682158 L 522.94921875 195.39887548083763 L 526.171875 198.1951094949062 L 531.298828125 203.23013562952795 L 537.3046875 209.0187649919156 L 540.8203125 211.89210070558772 L 543.75 213.8244594531308 L 546.240234375 215.07463102278257 L 548.4375 215.85111970534294 L 550.48828125 216.2876223300856 L 552.5390625 216.4416043866421 L 554.58984375 216.31461182883936 L 556.640625 215.91331225676376 L 558.837890625 215.19184188385745 L 561.181640625 214.11100473402252 L 563.818359375 212.54628791375865 L 566.89453125 210.31620732537084 L 570.703125 207.07436261136212 L 575.830078125 202.1605240530737 L 588.134765625 190.1603518242146 L 592.529296875 186.53360419996264 L 596.044921875 184.0819178158157 L 599.267578125 182.24518107759496 L 600 181.88659721094342" stroke-linecap="round" stroke-linejoin="round" stroke-miterlimit="10" stroke-width="3.5" stroke-dasharray=""/></g></g><g id="sketch-a1c4cf66"><title>Выражение 3</title><path fill="#2d70b3" stroke="none" paint-order="stroke fill markers" d="" fill-opacity="0.4"/><g><path fill="none" stroke="#2d70b3" class="dcg-svg-curve" paint-order="fill stroke markers" d=" M 0 201.58604369704497 L 0 201.58604369704497 L 600 201.58604369704497" stroke-linecap="round" stroke-linejoin="round" stroke-miterlimit="10" stroke-width="2.8" stroke-dasharray=""/></g></g></g><g id="labels-a1c4cf66"/><g id="labels-a1c4cf66"/></g></svg>