<svg version="1.1" xmlns="http://www.w3.org/2000/svg" xmlns:xlink="http://www.w3.org/1999/xlink" width="1200" height="800"><defs/><g transform="scale(2,2)"><g id="background-c4541649"><rect fill="white" stroke="none" x="0" y="0" width="600" height="400" class="dcg-svg-background"/></g><g id="graphpaper-c4541649"><g id="grid-c4541649"><g><path fill="none" stroke="rgb(0,0,0)" class="dcg-svg-minor-gridline" paint-order="fill stroke markers" d=" M 9.5 0 L 9.5 400" stroke-opacity="0.3" stroke-miterlimit="10" stroke-dasharray=""/><path fill="none" stroke="rgb(0,0,0)" class="dcg-svg-minor-gridline" paint-order="fill stroke markers" d=" M 31.5 0 L 31.5 400" stroke-opacity="0.3" stroke-miterlimit="10" stroke-dasharray=""/><path fill="none" stroke="rgb(0,0,0)" class="dcg-svg-minor-gridline" paint-order="fill stroke markers" d=" M 53.5 0 L 53.5 400" stroke-opacity="0.3" stroke-miterlimit="10" stroke-dasharray=""/><path fill="none" stroke="rgb(0,0,0)" class="dcg-svg-minor-gridline" paint-order="fill stroke markers" d=" M 75.5 0 L 75.5 400" stroke-opacity="0.3" stroke-miterlimit="10" stroke-dasharray=""/><path fill="none" stroke="rgb(0,0,0)" class="dcg-svg-minor-gridline" paint-order="fill stroke markers" d=" M 97.5 0 L 97.5 400" stroke-opacity="0.3" stroke-miterlimit="10" stroke-dasharray=""/><path fill="none" stroke="rgb(0,0,0)" class="dcg-svg-minor-gridline" paint-order="fill stroke markers" d=" M 119.5 0 L 119.5 400" stroke-opacity="0.3" stroke-miterlimit="10" stroke-dasharray=""/><path fill="none" stroke="rgb(0,0,0)" class="dcg-svg-minor-gridline" paint-order="fill stroke markers" d=" M 141.5 0 L 141.5 400" stroke-opacity="0.3" stroke-miterlimit="10" stroke-dasharray=""/><path fill="none" stroke="rgb(0,0,0)" class="dcg-svg-minor-gridline" paint-order="fill stroke markers" d=" M 163.5 0 L 163.5 400" stroke-opacity="0.3" stroke-miterlimit="10" stroke-dasharray=""/><path fill="none" stroke="rgb(0,0,0)" class="dcg-svg-minor-gridline" paint-order="fill stroke markers" d=" M 185.5 0 L 185.5 400" stroke-opacity="0.3" stroke-miterlimit="10" stroke-dasharray=""/><path fill="none" stroke="rgb(0,0,0)" class="dcg-svg-minor-gridline" paint-order="fill stroke markers" d=" M 207.5 0 L 207.5 400" stroke-opacity="0.3" stroke-miterlimit="10" stroke-dasharray=""/><path fill="none" stroke="rgb(0,0,0)" class="dcg-svg-minor-gridline" paint-order="fill stroke markers" d=" M 229.5 0 L 229.5 400" stroke-opacity="0.3" stroke-miterlimit="10" stroke-dasharray=""/><path fill="none" stroke="rgb(0,0,0)" class="dcg-svg-minor-gridline" paint-order="fill stroke markers" d=" M 251.5 0 L 251.5 400" stroke-opacity="0.3" stroke-miterlimit="10" stroke-dasharray=""/><path fill="none" stroke="rgb(0,0,0)" class="dcg-svg-minor-gridline" paint-order="fill stroke markers" d=" M 273.5 0 L 273.5 400" stroke-opacity="0.3" stroke-miterlimit="10" stroke-dasharray=""/><path fill="none" stroke="rgb(0,0,0)" class="dcg-svg-minor-gridline" paint-order="fill stroke markers" d=" M 317.5 0 L 317.5 400" stroke-opacity="0.3" stroke-miterlimit="10" stroke-dasharray=""/><path fill="none" stroke="rgb(0,0,0)" class="dcg-svg-minor-gridline" paint-order="fill stroke markers" d=" M 339.5 0 L 339.5 400" stroke-opacity="0.3" stroke-miterlimit="10" stroke-dasharray=""/><path fill="none" stroke="rgb(0,0,0)" class="dcg-svg-minor-gridline" paint-order="fill stroke markers" d=" M 361.5 0 L 361.5 400" stroke-opacity="0.3" stroke-miterlimit="10" stroke-dasharray=""/><path fill="none" stroke="rgb(0,0,0)" class="dcg-svg-minor-gridline" paint-order="fill stroke markers" d=" M 383.5 0 L 383.5 400" stroke-opacity="0.3" stroke-miterlimit="10" stroke-dasharray=""/><path fill="none" stroke="rgb(0,0,0)" class="dcg-svg-minor-gridline" paint-order="fill stroke markers" d=" M 405.5 0 L 405.5 400" stroke-opacity="0.3" stroke-miterlimit="10" stroke-dasharray=""/><path fill="none" stroke="rgb(0,0,0)" class="dcg-svg-minor-gridline" paint-order="fill stroke markers" d=" M 427.5 0 L 427.5 400" stroke-opacity="0.3" stroke-miterlimit="10" stroke-dasharray=""/><path fill="none" stroke="rgb(0,0,0)" class="dcg-svg-minor-gridline" paint-order="fill stroke markers" d=" M 449.5 0 L 449.5 400" stroke-opacity="0.3" stroke-miterlimit="10" stroke-dasharray=""/><path fill="none" stroke="rgb(0,0,0)" class="dcg-svg-minor-gridline" paint-order="fill stroke markers" d=" M 471.5 0 L 471.5 400" stroke-opacity="0.3" stroke-miterlimit="10" stroke-dasharray=""/><path fill="none" stroke="rgb(0,0,0)" class="dcg-svg-minor-gridline" paint-order="fill stroke markers" d=" M 493.5 0 L 493.5 400" stroke-opacity="0.3" stroke-miterlimit="10" stroke-dasharray=""/><path fill="none" stroke="rgb(0,0,0)" class="dcg-svg-minor-gridline" paint-order="fill stroke markers" d=" M 515.5 0 L 515.5 400" stroke-opacity="0.3" stroke-miterlimit="10" stroke-dasharray=""/><path fill="none" stroke="rgb(0,0,0)" class="dcg-svg-minor-gridline" paint-order="fill stroke markers" d=" M 537.5 0 L 537.5 400" stroke-opacity="0.3" stroke-miterlimit="10" stroke-dasharray=""/><path fill="none" stroke="rgb(0,0,0)" class="dcg-svg-minor-gridline" paint-order="fill stroke markers" d=" M 559.5 0 L 559.5 400" stroke-opacity="0.3" stroke-miterlimit="10" stroke-dasharray=""/><path fill="none" stroke="rgb(0,0,0)" class="dcg-svg-minor-gridline" paint-order="fill stroke markers" d=" M 581.5 0 L 581.5 400" stroke-opacity="0.3" stroke-miterlimit="10" stroke-dasharray=""/><path fill="none" stroke="rgb(0,0,0)" class="dcg-svg-minor-gridline" paint-order="fill stroke markers" d=" M 0 398.5 L 600 398.5" stroke-opacity="0.3" stroke-miterlimit="10" stroke-dasharray=""/><path fill="none" stroke="rgb(0,0,0)" class="dcg-svg-minor-gridline" paint-order="fill stroke markers" d=" M 0 376.5 L 600 376.5" stroke-opacity="0.3" stroke-miterlimit="10" stroke-dasharray=""/><path fill="none" stroke="rgb(0,0,0)" class="dcg-svg-minor-gridline" paint-order="fill stroke markers" d=" M 0 354.5 L 600 354.5" stroke-opacity="0.3" stroke-miterlimit="10" stroke-dasharray=""/><path fill="none" stroke="rgb(0,0,0)" class="dcg-svg-minor-gridline" paint-order="fill stroke markers" d=" M 0 332.5 L 600 332.5" stroke-opacity="0.3" stroke-miterlimit="10" stroke-dasharray=""/><path fill="none" stroke="rgb(0,0,0)" class="dcg-svg-minor-gridline" paint-order="fill stroke markers" d=" M 0 310.5 L 600 310.5" stroke-opacity="0.3" stroke-miterlimit="10" stroke-dasharray=""/><path fill="none" stroke="rgb(0,0,0)" class="dcg-svg-minor-gridline" paint-order="fill stroke markers" d=" M 0 288.5 L 600 288.5" stroke-opacity="0.3" stroke-miterlimit="10" stroke-dasharray=""/><path fill="none" stroke="rgb(0,0,0)" class="dcg-svg-minor-gridline" paint-order="fill stroke markers" d=" M 0 266.5 L 600 266.5" stroke-opacity="0.3" stroke-miterlimit="10" stroke-dasharray=""/><path fill="none" stroke="rgb(0,0,0)" class="dcg-svg-minor-gridline" paint-order="fill stroke markers" d=" M 0 244.5 L 600 244.5" stroke-opacity="0.3" stroke-miterlimit="10" stroke-dasharray=""/><path fill="none" stroke="rgb(0,0,0)" class="dcg-svg-minor-gridline" paint-order="fill stroke markers" d=" M 0 222.5 L 600 222.5" stroke-opacity="0.3" stroke-miterlimit="10" stroke-dasharray=""/><path fill="none" stroke="rgb(0,0,0)" class="dcg-svg-minor-gridline" paint-order="fill stroke markers" d=" M 0 200.5 L 600 200.5" stroke-opacity="0.3" stroke-miterlimit="10" stroke-dasharray=""/><path fill="none" stroke="rgb(0,0,0)" class="dcg-svg-minor-gridline" paint-order="fill stroke markers" d=" M 0 156.5 L 600 156.5" stroke-opacity="0.3" stroke-miterlimit="10" stroke-dasharray=""/><path fill="none" stroke="rgb(0,0,0)" class="dcg-svg-minor-gridline" paint-order="fill stroke markers" d=" M 0 134.5 L 600 134.5" stroke-opacity="0.3" stroke-miterlimit="10" stroke-dasharray=""/><path fill="none" stroke="rgb(0,0,0)" class="dcg-svg-minor-gridline" paint-order="fill stroke markers" d=" M 0 112.5 L 600 112.5" stroke-opacity="0.3" stroke-miterlimit="10" stroke-dasharray=""/><path fill="none" stroke="rgb(0,0,0)" class="dcg-svg-minor-gridline" paint-order="fill stroke markers" d=" M 0 89.5 L 600 89.5" stroke-opacity="0.3" stroke-miterlimit="10" stroke-dasharray=""/><path fill="none" stroke="rgb(0,0,0)" class="dcg-svg-minor-gridline" paint-order="fill stroke markers" d=" M 0 67.5 L 600 67.5" stroke-opacity="0.3" stroke-miterlimit="10" stroke-dasharray=""/><path fill="none" stroke="rgb(0,0,0)" class="dcg-svg-minor-gridline" paint-order="fill stroke markers" d=" M 0 45.5 L 600 45.5" stroke-opacity="0.3" stroke-miterlimit="10" stroke-dasharray=""/><path fill="none" stroke="rgb(0,0,0)" class="dcg-svg-minor-gridline" paint-order="fill stroke markers" d=" M 0 23.5 L 600 23.5" stroke-opacity="0.3" stroke-miterlimit="10" stroke-dasharray=""/><path fill="none" stroke="rgb(0,0,0)" class="dcg-svg-minor-gridline" paint-order="fill stroke markers" d=" M 0 1.5 L 600 1.5" stroke-opacity="0.3" stroke-miterlimit="10" stroke-dasharray=""/><path fill="none" stroke="rgb(0,0,0)" class="dcg-svg-major-gridline" paint-order="fill stroke markers" d=" M 75.5 0 L 75.5 400" stroke-opacity="0.4285714285714285" stroke-miterlimit="10" stroke-dasharray=""/><path fill="none" stroke="rgb(0,0,0)" class="dcg-svg-major-gridline" paint-order="fill stroke markers" d=" M 185.5 0 L 185.5 400" stroke-opacity="0.4285714285714285" stroke-miterlimit="10" stroke-dasharray=""/><path fill="none" stroke="rgb(0,0,0)" class="dcg-svg-major-gridline" paint-order="fill stroke markers" d=" M 405.5 0 L 405.5 400" stroke-opacity="0.4285714285714285" stroke-miterlimit="10" stroke-dasharray=""/><path fill="none" stroke="rgb(0,0,0)" class="dcg-svg-major-gridline" paint-order="fill stroke markers" d=" M 515.5 0 L 515.5 400" stroke-opacity="0.4285714285714285" stroke-miterlimit="10" stroke-dasharray=""/><path fill="none" stroke="rgb(0,0,0)" class="dcg-svg-major-gridline" paint-order="fill stroke markers" d=" M 0 398.5 L 600 398.5" stroke-opacity="0.4285714285714285" stroke-miterlimit="10" stroke-dasharray=""/><path fill="none" stroke="rgb(0,0,0)" class="dcg-svg-major-gridline" paint-order="fill stroke markers" d=" M 0 288.5 L 600 288.5" stroke-opacity="0.4285714285714285" stroke-miterlimit="10" stroke-dasharray=""/><path fill="none" stroke="rgb(0,0,0)" class="dcg-svg-major-gridline" paint-order="fill stroke markers" d=" M 0 67.5 L 600 67.5" stroke-opacity="0.4285714285714285" stroke-miterlimit="10" stroke-dasharray=""/></g></g><g id="axis-c4541649"><g id="yaxis-c4541649"><title>Y axis</title><g><path fill="none" stroke="rgb(0,0,0)" class="dcg-svg-axis-line" paint-order="fill stroke markers" d=" M 295 0 L 295 400" stroke-opacity="0.9" stroke-miterlimit="10" stroke-width="2" stroke-dasharray=""/></g></g><g id="xaxis-c4541649"><title>X axis</title><g><path fill="none" stroke="rgb(0,0,0)" class="dcg-svg-axis-line" paint-order="fill stroke markers" d=" M 0 178 L 600 178" stroke-opacity="0.9" stroke-miterlimit="10" stroke-width="2" stroke-dasharray=""/></g></g><g><g class="dcg-svg-axis-value"><text fill="none" stroke="#ffffff" font-family="Arial" font-size="17px" font-style="normal" font-weight="normal" text-decoration="normal" x="285.66309157249333" y="196.21770108960757" text-anchor="middle" stroke-miterlimit="2" stroke-width="3" stroke-dasharray="">0</text><text fill="#000000" stroke="none" font-family="Arial" font-size="17px" font-style="normal" font-weight="normal" text-decoration="normal" x="285.66309157249333" y="196.21770108960757" text-anchor="middle">0</text></g><g class="dcg-svg-axis-value"><text fill="none" stroke="#ffffff" font-family="Arial" font-size="17px" font-style="normal" font-weight="normal" text-decoration="normal" x="72.28223597757508" y="196.21770108960757" text-anchor="middle" stroke-miterlimit="2" stroke-width="3" stroke-dasharray="">-0.1</text><text fill="#000000" stroke="none" font-family="Arial" font-size="17px" font-style="normal" font-weight="normal" text-decoration="normal" x="72.28223597757508" y="196.21770108960757" text-anchor="middle">-0.1</text></g><g class="dcg-svg-axis-value"><text fill="none" stroke="#ffffff" font-family="Arial" font-size="17px" font-style="normal" font-weight="normal" text-decoration="normal" x="182.42102803284672" y="196.21770108960757" text-anchor="middle" stroke-miterlimit="2" stroke-width="3" stroke-dasharray="">-0.05</text><text fill="#000000" stroke="none" font-family="Arial" font-size="17px" font-style="normal" font-weight="normal" text-decoration="normal" x="182.42102803284672" y="196.21770108960757" text-anchor="middle">-0.05</text></g><g class="dcg-svg-axis-value"><text fill="none" stroke="#ffffff" font-family="Arial" font-size="17px" font-style="normal" font-weight="normal" text-decoration="normal" x="405.52917854963994" y="196.21770108960757" text-anchor="middle" stroke-miterlimit="2" stroke-width="3" stroke-dasharray="">0.05</text><text fill="#000000" stroke="none" font-family="Arial" font-size="17px" font-style="normal" font-weight="normal" text-decoration="normal" x="405.52917854963994" y="196.21770108960757" text-anchor="middle">0.05</text></g><g class="dcg-svg-axis-value"><text fill="none" stroke="#ffffff" font-family="Arial" font-size="17px" font-style="normal" font-weight="normal" text-decoration="normal" x="515.6679706049116" y="196.21770108960757" text-anchor="middle" stroke-miterlimit="2" stroke-width="3" stroke-dasharray="">0.1</text><text fill="#000000" stroke="none" font-family="Arial" font-size="17px" font-style="normal" font-weight="normal" text-decoration="normal" x="515.6679706049116" y="196.21770108960757" text-anchor="middle">0.1</text></g><g class="dcg-svg-axis-value dcg-svg-offcenter-axis-value"><text fill="none" stroke="#ffffff" font-family="Arial" font-size="17px" font-style="normal" font-weight="normal" text-decoration="normal" x="275.74365797874333" y="393.124" text-anchor="middle" stroke-miterlimit="2" stroke-width="3" stroke-dasharray="">-0.1</text><text fill="#000000" stroke="none" font-family="Arial" font-size="17px" font-style="normal" font-weight="normal" text-decoration="normal" x="275.74365797874333" y="393.124" text-anchor="middle">-0.1</text></g><g class="dcg-svg-axis-value"><text fill="none" stroke="#ffffff" font-family="Arial" font-size="17px" font-style="normal" font-weight="normal" text-decoration="normal" x="271.01636305686833" y="292.8564931448792" text-anchor="middle" stroke-miterlimit="2" stroke-width="3" stroke-dasharray="">-0.05</text><text fill="#000000" stroke="none" font-family="Arial" font-size="17px" font-style="normal" font-weight="normal" text-decoration="normal" x="271.01636305686833" y="292.8564931448792" text-anchor="middle">-0.05</text></g><g class="dcg-svg-axis-value"><text fill="none" stroke="#ffffff" font-family="Arial" font-size="17px" font-style="normal" font-weight="normal" text-decoration="normal" x="273.84692946311833" y="72.57890903433595" text-anchor="middle" stroke-miterlimit="2" stroke-width="3" stroke-dasharray="">0.05</text><text fill="#000000" stroke="none" font-family="Arial" font-size="17px" font-style="normal" font-weight="normal" text-decoration="normal" x="273.84692946311833" y="72.57890903433595" text-anchor="middle">0.05</text></g></g></g></g><g id="expressions-c4541649"><g id="sketch-c4541649"><title>Выражение 1</title><path fill="#2d70b3" stroke="none" paint-order="stroke fill markers" d="" fill-opacity="0.4"/><g><path fill="none" stroke="#2d70b3" class="dcg-svg-curve" paint-order="fill stroke markers" d=" M -5.684341886080802e-14 178.09370108960758 L -5.684341886080802e-14 178.09370108960758 L 600 178.09370108960758" stroke-linecap="round" stroke-linejoin="round" stroke-miterlimit="10" stroke-width="2.8" stroke-dasharray=""/></g></g><g id="sketch-c4541649"><title>Выражение 2</title><path fill="#c74440" stroke="none" paint-order="stroke fill markers" d="" fill-opacity="0.4"/><g><path fill="none" stroke="#c74440" class="dcg-svg-curve" paint-order="fill stroke markers" d=" M -5.684341886080802e-14 214.62737412321783 L -5.684341886080802e-14 214.62737412321783 L 3.22265625 214.94425267913937 L 6.445312499999943 214.9933742667787 L 9.521484375 214.78485616825614 L 12.597656249999943 214.32291350239655 L 15.8203125 213.56470186671856 L 19.042968749999943 212.52538717140567 L 22.412109375 211.1404323171531 L 25.927734375 209.3759196285669 L 29.736328125 207.10834549608407 L 33.83789062499994 204.27428306672238 L 38.37890625 200.70237675708 L 43.65234374999997 196.06042760058418 L 50.09765625 189.84138798016406 L 69.87304687499997 170.3314760756253 L 74.41406249999997 166.6280720813805 L 78.07617187499997 164.09323188677232 L 81.29882812499994 162.26816247210502 L 84.08203124999997 161.0401849002327 L 86.57226562499994 160.24143037841816 L 88.91601562499997 159.76597512789508 L 91.11328124999997 159.57513035579953 L 93.31054687499997 159.63883830771212 L 95.5078125 159.9616781329948 L 97.70507812499997 160.54471523971364 L 100.04882812499997 161.4501003663917 L 102.53906249999997 162.7226929021066 L 105.32226562499997 164.5011600529157 L 108.54492187499997 166.98057554733796 L 112.49999999999997 170.5205843338452 L 118.50585937499997 176.489455904879 L 124.65820312499994 182.45140055444958 L 128.173828125 185.33240181656944 L 130.95703125 187.1498295114649 L 133.15429687499997 188.22010388787223 L 135.20507812499997 188.88637819915422 L 136.96289062499997 189.1797455530811 L 138.72070312499997 189.20347719236142 L 140.47851562499997 188.95105367509615 L 142.23632812499997 188.42267144418315 L 144.140625 187.54797744347974 L 146.33789062499997 186.175259053141 L 148.97460937499997 184.08595070536535 L 152.49023437499997 180.77274703377776 L 159.37499999999997 174.16272562856537 L 161.86523437499997 172.3492020273261 L 163.76953124999997 171.3602615622162 L 165.380859375 170.84843645270004 L 166.84570312499997 170.6684035821879 L 168.31054687499994 170.7734669607611 L 169.775390625 171.16598508033658 L 171.38671874999997 171.91817182948765 L 173.14453124999997 173.08592996727253 L 175.48828124999994 175.0908639006011 L 183.25195312499997 182.16417192889017 L 184.86328124999997 182.98536362477338 L 186.18164062499997 183.33967323078662 L 187.35351562499994 183.38986877153664 L 188.52539062499997 183.18251856553334 L 189.84375 182.64793912749528 L 191.30859375 181.7136502169427 L 193.359375 179.94223429024163 L 198.63281249999997 175.12050810025016 L 200.09765624999994 174.37466855809373 L 201.26953124999997 174.12232892327205 L 202.29492187499997 174.17869765782825 L 203.3203125 174.49625629185644 L 204.49218749999994 175.15711252638977 L 206.103515625 176.4806025656996 L 210.79101562499994 180.64886399407828 L 211.96289062499997 181.11223553791706 L 212.84179687499994 181.1866383086869 L 213.72070312499994 181.01339333239915 L 214.74609374999997 180.51164730662992 L 216.064453125 179.4774332457195 L 220.16601562499997 175.920454437554 L 221.04492187499997 175.64290239965197 L 221.92382812499997 175.66683744856815 L 222.80273437499994 175.99604068647352 L 223.82812499999997 176.71524818612346 L 227.9296875 180.04553911789134 L 228.662109375 180.1144862683933 L 229.39453125 179.92190814262145 L 230.27343749999997 179.3767038446894 L 231.88476562499997 177.8585496718592 L 233.34960937499997 176.67463396206645 L 234.08203124999997 176.42097550909898 L 234.81445312499997 176.47387870747642 L 235.54687499999997 176.83016502826024 L 236.71874999999997 177.8524812344161 L 238.33007812499997 179.25631335247536 L 239.06249999999994 179.51484727247063 L 239.64843749999997 179.46129537874555 L 240.38085937499997 179.076452505471 L 241.69921874999994 177.85158679797877 L 242.87109374999997 176.97688664151187 L 243.3943787073505 176.86771294843504 L 244.04296875 177.03646036412803 L 244.77539062499997 177.5752176807547 L 246.67968749999997 179.1122140996933 L 247.26562499999997 179.1199634136842 L 247.8515625 178.82070604198827 L 250.19531249999997 177.16734122621833 L 250.78124999999997 177.39397599937118 L 251.80664062499997 178.32848197949312 L 252.68554687499997 178.89486800022337 L 253.12499999999997 178.87275331856634 L 253.71093749999997 178.5103822229287 L 255.17578124999994 177.374509712172 L 255.61523437499997 177.43297718636586 L 256.20117187499994 177.8612294982782 L 257.22656249999994 178.7025749831932 L 257.666015625 178.71603511022977 L 258.251953125 178.32460990235845 L 259.27734375 177.52222168134446 L 259.71679687499994 177.58314703679162 L 260.44921875 178.209548041973 L 261.03515625 178.60789949275784 L 261.474609375 178.54003844970075 L 262.939453125 177.64236529681702 L 263.52539062499994 178.09985508818312 L 264.111328125 178.52264458061654 L 264.40429687499994 178.49459889855441 L 264.990234375 178.00922434483323 L 265.54261038793135 177.68940994058718 L 265.869140625 177.81500808049176 L 266.89453125 178.44213057617912 L 267.48046875 177.96100192249895 L 267.88513443153136 177.7503601675758 L 268.212890625 177.89616905471925 L 268.9236795313721 178.41161106561114 L 269.23828124999994 178.2673747548438 L 269.97070312499994 177.8104110825394 L 270.41015625 178.15446335231564 L 270.7819544194088 178.36854695387635 L 271.142578125 178.162799569006 L 271.6165340172652 177.83717728595568 L 271.875 177.9573967221495 L 272.3963500674926 178.3336758128877 L 272.90039062499994 177.97264126613825 L 273.1266226263993 177.86872407076436 L 274.072265625 178.16323439194622 L 274.45629796491977 177.8947898268926 L 275.24414062499994 178.20022961821698 L 275.6360739426205 177.9165745275545 L 276.26953124999994 178.23651376990222 L 276.68994954823734 177.93496685133277 L 277.29492187499994 178.19943083857402 L 277.734375 177.98257892032723 L 278.17382812499994 178.19568738975065 L 278.61328125 178.01633429582137 L 278.8905276129783 178.21727916470323 L 279.345703125 177.99932430289792 L 279.6322496739553 178.20641953295632 L 280.078125 178.02875428901442 L 280.31014891379397 178.1969309541424 L 280.6276852495378 177.99477237915096 L 280.9321238465484 178.18859197480654 L 281.2242587781378 178.00260576645854 L 281.50482119468285 178.18122411347863 L 281.7744854355936 178.00954427578057 L 282.12890625 178.12487225262532 L 282.421875 178.10959578885695 L 282.52408983504364 178.16884731753527 L 282.86132812499994 178.0854651462291 L 282.9795928545803 178.1636210596656 L 283.30078124999994 178.09315319337165 L 283.4039446347054 178.15892165271643 L 283.8002352757369 178.15468058900345 L 283.9887133813533 178.03468864620814 L 284.1711592343357 178.15084014481732 L 284.5190766853009 178.1473514056787 L 284.765625 178.0926566447405 L 285.97842772389356 178.13391477449844 L 286.22450927587306 178.1318395122697 L 286.52343749999994 178.08522949782179 L 287.0923364670733 178.12495968557627 L 289.013671875 178.09122325165814 L 289.8909820410289 178.0799715617208 L 291.41775256619417 178.10086555789945 L 293.7109466322692 178.09242065293367 L 300.8048559917941 178.10700980906228 L 301.75781249999994 178.08705754395504 L 302.49023437499994 178.07792092576474 L 310.69335937499994 178.1509766795242 L 310.8021220641295 178.20151884317397 L 311.279296875 178.0484401343047 L 311.5108560639312 178.21166212004684 L 312.01171875 178.02495398503297 L 312.28792481528745 178.22330719773544 L 312.890625 178.0650605726767 L 313.1437133068157 178.23676588508008 L 313.76953125 178.02405990593823 L 314.208984375 178.21060960444856 L 314.60331799875127 177.92614859599578 L 315.234375 178.24867431628047 L 315.8203125 177.93355777900337 L 316.40625 178.2760826757888 L 317.138671875 177.94669896853225 L 317.65415036233736 178.3186781084508 L 318.60351562499994 177.9464869181101 L 319.16423897147143 178.35022489325948 L 319.482421875 178.177967220326 L 319.99881856932785 177.8188552253388 L 320.361328125 178.02394923816865 L 320.89414200246324 178.38890463200255 L 321.240234375 178.20938664243099 L 321.85709345736456 177.77579111360401 L 322.11914062499994 177.8772204494434 L 322.998046875 178.42192360186786 L 323.4375 178.09320066603814 L 324.01904547027624 177.72175068115672 L 324.31640624999994 177.83372076482158 L 325.34179687499994 178.4848170110054 L 325.78124999999994 178.18720036629736 L 326.5657705146416 177.65265963742513 L 326.953125 177.81096671165696 L 328.125 178.56475737796012 L 328.564453125 178.3006502225696 L 329.61007639991175 177.56236132488908 L 330.029296875 177.71817895244834 L 331.494140625 178.66724265533372 L 331.93359375 178.43018534150357 L 333.31367337881943 177.44119533684562 L 333.69140625 177.5468044379464 L 334.423828125 178.17349886994808 L 335.302734375 178.8006164689048 L 335.74218749999994 178.77777947475747 L 336.328125 178.3905891633347 L 337.64648437499994 177.31762160311897 L 338.0859375 177.29059181034674 L 338.67187499999994 177.59357573728977 L 340.57617187499994 179.0192196572104 L 341.01562499999994 178.95853275436463 L 341.6015625 178.59520968032518 L 343.65234375 177.04048375319712 L 344.23828124999994 177.12234941083614 L 344.97070312499994 177.6121825547446 L 347.021484375 179.2655921472937 L 347.60742187499994 179.29989659864674 L 348.193359375 179.06617755986971 L 349.07226562499994 178.3448521308701 L 350.830078125 176.8452435820926 L 351.55648662395987 176.66344349600507 L 352.1484375 176.7832456922306 L 352.88085937499994 177.22631136002616 L 356.25 179.77149922357628 L 356.982421875 179.70283467152174 L 357.71484375 179.34155526209852 L 358.88671875 178.33799099181095 L 361.083984375 176.41767229158302 L 361.96289062499994 176.0921260172384 L 362.6953125 176.10551285445314 L 363.427734375 176.37212470571123 L 364.453125 177.09504164407838 L 368.5546875 180.4408179666343 L 369.3634825802882 180.57226403247554 L 370.16601562499994 180.44464773179104 L 371.044921875 180.03186095527013 L 372.36328124999994 178.9988407914154 L 376.46484374999994 175.42821953394173 L 377.490234375 175.05836038858365 L 378.369140625 175.00646363430934 L 379.248046875 175.1993016561696 L 380.2734375 175.70669907936036 L 381.73828125 176.8453345766911 L 387.158203125 181.54959774095673 L 388.330078125 181.97709754712935 L 389.35546874999994 182.07346130575039 L 390.380859375 181.9090534409887 L 391.552734375 181.42263653620367 L 393.017578125 180.43584908781494 L 395.068359375 178.57888062667857 L 399.462890625 174.48069138094436 L 401.220703125 173.39850150443 L 402.5390625 172.93110102077222 L 403.78268669301616 172.78566913697685 L 404.8828125 172.89798014210822 L 406.201171875 173.31724129171795 L 407.666015625 174.1107409592658 L 409.5703125 175.55893001389498 L 412.5 178.3428895263558 L 416.89453125 182.51464591936818 L 419.091796875 184.0928364724304 L 420.84960937499994 184.96304000821763 L 422.31445312499994 185.38579027610004 L 423.7366982979439 185.5216268852905 L 425.09765625 185.39897461226263 L 426.5625 185.0012964654421 L 428.173828125 184.26932905826897 L 430.078125 183.0561615675522 L 432.568359375 181.0216504284755 L 436.376953125 177.33704072285533 L 441.94335937499994 171.98260881282067 L 444.873046875 169.71475346251017 L 447.21679687499994 168.34234228178195 L 449.26757812499994 167.51426788887204 L 451.025390625 167.09892172942514 L 452.78523358625654 166.96048118663367 L 454.54101562499994 167.09627894023438 L 456.298828125 167.49728228358873 L 458.203125 168.2140428148519 L 460.400390625 169.37441292460926 L 462.890625 171.06563562845056 L 465.966796875 173.5973046879698 L 470.21484375 177.6281574050272 L 481.34765625 188.45406642604667 L 485.009765625 191.36658369744194 L 488.0859375 193.3748353427837 L 490.869140625 194.798234643219 L 493.359375 195.73252912971273 L 495.703125 196.3094304264915 L 497.900390625 196.5813391268413 L 500.09765625 196.59474927503294 L 502.294921875 196.35487765667696 L 504.638671875 195.82915048159336 L 507.12890625 194.9798911544465 L 509.765625 193.77531089780686 L 512.6953125 192.10000638786994 L 516.064453125 189.78524531173153 L 520.01953125 186.6221530167493 L 524.853515625 182.25346314768186 L 531.4453125 175.7406665215347 L 546.38671875 160.81617755801955 L 552.099609375 155.73764722276462 L 557.080078125 151.81206550735106 L 561.474609375 148.8049292285438 L 565.4296875 146.50007187792022 L 569.091796875 144.72421832737987 L 572.607421875 143.35393303371495 L 575.9765625 142.35327020659395 L 579.19921875 141.6836978922392 L 582.421875 141.29412658717004 L 585.498046875 141.18045616851916 L 588.720703125 141.32695779645735 L 591.943359375 141.73864233584965 L 595.3125 142.44383299860567 L 598.828125 143.46789090898423 L 600 143.87242206888686" stroke-linecap="round" stroke-linejoin="round" stroke-miterlimit="10" stroke-width="3.5" stroke-dasharray=""/></g></g></g><g id="labels-c4541649"/><g id="labels-c4541649"/></g></svg>