<?xml version="1.0" encoding="UTF-8" standalone="no"?>
<!-- Created with Inkscape (http://www.inkscape.org/) -->

<svg
   xmlns:dc="http://purl.org/dc/elements/1.1/"
   xmlns:cc="http://creativecommons.org/ns#"
   xmlns:rdf="http://www.w3.org/1999/02/22-rdf-syntax-ns#"
   xmlns:svg="http://www.w3.org/2000/svg"
   xmlns="http://www.w3.org/2000/svg"
   xmlns:sodipodi="http://sodipodi.sourceforge.net/DTD/sodipodi-0.dtd"
   xmlns:inkscape="http://www.inkscape.org/namespaces/inkscape"
   width="297mm"
   height="210mm"
   viewBox="0 0 297 210"
   version="1.1"
   id="svg5894"
   sodipodi:docname="largange.svg"
   inkscape:version="0.92.1 r15371">
  <defs
     id="defs5888" />
  <sodipodi:namedview
     id="base"
     pagecolor="#ffffff"
     bordercolor="#666666"
     borderopacity="1.0"
     inkscape:pageopacity="0.0"
     inkscape:pageshadow="2"
     inkscape:zoom="0.7"
     inkscape:cx="367.56563"
     inkscape:cy="597.25446"
     inkscape:document-units="mm"
     inkscape:current-layer="layer1"
     showgrid="false"
     inkscape:window-width="1920"
     inkscape:window-height="1046"
     inkscape:window-x="-11"
     inkscape:window-y="-11"
     inkscape:window-maximized="1" />
  <metadata
     id="metadata5891">
    <rdf:RDF>
      <cc:Work
         rdf:about="">
        <dc:format>image/svg+xml</dc:format>
        <dc:type
           rdf:resource="http://purl.org/dc/dcmitype/StillImage" />
        <dc:title></dc:title>
      </cc:Work>
    </rdf:RDF>
  </metadata>
  <g
     inkscape:label="Layer 1"
     inkscape:groupmode="layer"
     id="layer1"
     transform="translate(0,-87)">
    <path
       style="opacity:1;fill:#000000;fill-opacity:1;fill-rule:nonzero;stroke:#000000;stroke-width:0.09999999;stroke-linecap:round;stroke-linejoin:round;stroke-miterlimit:4;stroke-dasharray:none;stroke-dashoffset:0;stroke-opacity:1;paint-order:markers fill stroke"
       id="path6439"
       d="m 29.714599,103.63711 c 0,0.23823 0,0.47647 0,0.7147 0,0.3692 0,0.73841 0,1.1076 0,0.46089 0,0.92178 0,1.38268 0,0.53692 0,1.07385 0,1.61078 0,0.62577 0,1.25155 0,1.87733 0.01005,0.7233 -0.02066,1.44614 -0.04655,2.1689 -0.02818,0.77276 -0.05071,1.54569 -0.07055,2.31868 -0.02011,0.79294 -0.03518,1.58597 -0.04878,2.37903 -0.02843,0.8144 -0.07065,1.62834 -0.105726,2.44252 -0.03467,0.8166 -0.06097,1.63346 -0.08508,2.45035 -0.02382,0.82363 -0.04164,1.64737 -0.05779,2.47114 -0.01614,0.82717 -0.02808,1.65438 -0.03903,2.4816 -0.008,0.83754 -0.05206,1.6744 -0.08628,2.51128 -0.03481,0.8454 -0.06099,1.69105 -0.0845,2.53677 -0.02391,0.86134 -0.04147,1.72282 -0.05768,2.58431 -0.01593,0.86302 -0.028,1.72609 -0.03896,2.58916 -0.011,0.88427 -0.01911,1.76856 -0.0263,2.65285 -0.0074,0.93796 -0.01287,1.87595 -0.01775,2.81393 -0.0049,0.97483 -0.0086,1.94968 -0.01198,2.92453 0.0063,0.99316 -0.0127,1.98589 -0.04099,2.97866 -0.0319,1.04542 -0.05681,2.09101 -0.07944,3.13663 -0.0076,1.05131 0.0066,2.10265 0.01655,3.15392 0.0074,1.0286 0.014,2.05703 0.04467,3.08529 0.0374,1.01178 0.05753,2.02408 0.101479,3.03564 0.05297,0.98494 0.09145,1.97056 0.151354,2.95516 0.06639,0.97337 0.127635,1.94699 0.181579,2.921 0.06668,0.95388 0.139616,1.90737 0.202161,2.86151 0.07899,0.96765 0.156038,1.93539 0.223267,2.90381 0.06434,0.98305 0.151467,1.96471 0.224675,2.94724 0.06204,1.00408 0.147509,2.00671 0.224961,3.00985 0.06899,1.01775 0.144202,2.03499 0.224644,3.05203 0.07966,1.04085 0.143654,2.08253 0.224433,3.12331 0.08289,1.05725 0.150683,2.11533 0.236208,3.17242 0.08617,1.07277 0.158319,2.14635 0.246313,3.219 0.09275,1.0931 0.167505,2.18734 0.234457,3.28198 0.08129,1.10202 0.163082,2.20398 0.233984,3.3066 0.0713,1.11664 0.124673,2.23413 0.172989,3.35177 0.0383,1.12588 0.09028,2.25109 0.149065,3.37619 0.06069,1.13372 0.10936,2.26792 0.153123,3.40228 0.03198,1.13296 0.09476,2.26482 0.151172,3.3969 0.06078,1.14257 0.09418,2.28612 0.149736,3.42886 0.0639,1.16474 0.121821,2.32973 0.173486,3.49497 0.04752,1.16154 0.121871,2.32199 0.18389,3.48294 0.058,1.1548 0.140832,2.30844 0.210501,3.4627 0.08287,1.14569 0.167966,2.29121 0.241761,3.43744 0.07564,1.12625 0.119744,2.25399 0.186259,3.38067 0.07137,1.09543 0.137997,2.19109 0.197254,3.28712 0.05667,1.05742 0.100367,2.11535 0.14104,3.17336 0.03822,1.00392 0.06786,2.0081 0.09527,3.01232 0.0258,0.96391 0.04591,1.92794 0.06425,2.89197 0.01736,0.91672 0.03082,1.8335 0.04333,2.75028 0.008,0.85799 0.05275,1.71528 0.08826,2.57257 0.03408,0.8084 0.06148,1.61701 0.08686,2.42567 0.01874,0.74904 0.07361,1.49686 0.117875,2.2449 0.04107,0.69657 0.0755,1.39346 0.107234,2.09044 0.02623,0.62528 0.04642,1.25049 0.09138,1.8749 0.05138,0.56322 0.07396,1.12792 0.112477,1.69185 0.176404,2.58661 -1.157354,2.66263 -1.333758,0.0761 v 0 c -0.03831,-0.56256 -0.06096,-1.12588 -0.112189,-1.68774 -0.04553,-0.63419 -0.06681,-1.26915 -0.0931,-1.90422 -0.0315,-0.69193 -0.06567,-1.38375 -0.106438,-2.07527 -0.04487,-0.75835 -0.100327,-1.51646 -0.119277,-2.27583 -0.02527,-0.80493 -0.05253,-1.60981 -0.08645,-2.41448 -0.03594,-0.86763 -0.08111,-1.73524 -0.08912,-2.60357 -0.01248,-0.91478 -0.02592,-1.82955 -0.04323,-2.74426 -0.01829,-0.96097 -0.03833,-1.92193 -0.06404,-2.88276 -0.02729,-1.00007 -0.0568,-2.00011 -0.09486,-2.99989 -0.04045,-1.05221 -0.08389,-2.10433 -0.140236,-3.15595 -0.05915,-1.09422 -0.12572,-2.18806 -0.196945,-3.28166 -0.06625,-1.12468 -0.110582,-2.2504 -0.185888,-3.37467 -0.07388,-1.14772 -0.159257,-2.29471 -0.24204,-3.4419 -0.06982,-1.15684 -0.152846,-2.31303 -0.21094,-3.47042 -0.06219,-1.16431 -0.136751,-2.32814 -0.184384,-3.49305 -0.05159,-1.16369 -0.109471,-2.3271 -0.173267,-3.49028 -0.0554,-1.14227 -0.08908,-2.28535 -0.149667,-3.42743 -0.05662,-1.13626 -0.119566,-2.2723 -0.151726,-3.40944 -0.04356,-1.12928 -0.09201,-2.25841 -0.152431,-3.38705 -0.05896,-1.12846 -0.111122,-2.25702 -0.149545,-3.38624 -0.04797,-1.10982 -0.10094,-2.21949 -0.17173,-3.32833 -0.07096,-1.10379 -0.153017,-2.20689 -0.234201,-3.31009 -0.06646,-1.08691 -0.14069,-2.17342 -0.2328,-3.2588 -0.08802,-1.07307 -0.160293,-2.14707 -0.246414,-3.22026 -0.08561,-1.05831 -0.153595,-2.1176 -0.236497,-3.17608 -0.08073,-1.04022 -0.144813,-2.08134 -0.224305,-3.12166 -0.0805,-1.01773 -0.155799,-2.03567 -0.224807,-3.0541 -0.07752,-1.00415 -0.163067,-2.00778 -0.225189,-3.01286 -0.07333,-0.98442 -0.160659,-1.96796 -0.225081,-2.95289 -0.06731,-0.96985 -0.144718,-1.93901 -0.223557,-2.90812 -0.06278,-0.95789 -0.136224,-1.91514 -0.202844,-2.8728 -0.05382,-0.97203 -0.115014,-1.94366 -0.181233,-2.91505 -0.06008,-0.99106 -0.09929,-1.98311 -0.152362,-2.97452 -0.04394,-1.01659 -0.06468,-2.03391 -0.102031,-3.05074 -0.03084,-1.03583 -0.03773,-2.07184 -0.04512,-3.10801 -0.01003,-1.06284 -0.02452,-2.12575 -0.01634,-3.18864 0.02268,-1.04816 0.04766,-2.0963 0.07963,-3.14427 0.02803,-0.98345 0.04685,-1.96685 0.04054,-2.95069 0.0034,-0.9755 0.007,-1.95101 0.01199,-2.9265 0.0049,-0.93907 0.01037,-1.87814 0.01777,-2.81719 0.0072,-0.88599 0.01533,-1.77199 0.02635,-2.65795 0.01099,-0.86535 0.0231,-1.73071 0.03907,-2.596 0.01628,-0.86484 0.03391,-1.72965 0.05792,-2.59433 0.02365,-0.85058 0.04999,-1.70111 0.085,-2.55136 0.0338,-0.82662 0.07751,-1.65319 0.08544,-2.48043 0.01099,-0.8296 0.02296,-1.65918 0.03915,-2.48872 0.01623,-0.82745 0.03413,-1.65489 0.05806,-2.4822 0.02426,-0.82193 0.05075,-1.64383 0.08563,-2.46546 0.03466,-0.80455 0.07615,-1.60885 0.104855,-2.41359 0.01365,-0.79623 0.02879,-1.59244 0.04898,-2.38855 0.01994,-0.77677 0.04258,-1.55346 0.0709,-2.33 0.02541,-0.70944 0.05591,-1.41895 0.04583,-2.12892 0,-0.62579 0,-1.25156 0,-1.87734 0,-0.53692 0,-1.07385 0,-1.61077 0,-0.4609 0,-0.92179 0,-1.38269 0,-0.3692 0,-0.73839 0,-1.10759 0,-0.23824 0,-0.47647 0,-0.71471 0,-2.59164 1.336348,-2.59164 1.336348,0 z"
       inkscape:connector-curvature="0" />
    <path
       style="opacity:1;fill:#000000;fill-opacity:1;fill-rule:nonzero;stroke:#000000;stroke-width:0.1;stroke-linecap:round;stroke-linejoin:round;stroke-miterlimit:4;stroke-dasharray:none;stroke-dashoffset:0;stroke-opacity:1;paint-order:markers fill stroke"
       id="path6441"
       d="m 29.620336,102.23951 c -0.151882,0.30521 -0.308238,0.60815 -0.451243,0.91765 -0.239824,0.52601 -0.467716,1.05763 -0.677059,1.59651 -0.225294,0.55734 -0.416739,1.12748 -0.64901,1.68198 -0.211861,0.52623 -0.280424,0.73467 -0.806437,1.01107 -0.16262,-0.0139 -0.336008,0.0182 -0.487861,-0.0417 -0.46094,-0.18159 -0.510874,-0.73323 -0.559608,-1.14584 -0.05495,-0.52342 -0.03942,-1.05095 -0.01679,-1.57572 0.02103,-0.60804 0.09356,-1.21245 0.190567,-1.81257 0.09817,-0.58546 0.26588,-1.15046 0.506614,-1.69223 0.229448,-0.51554 0.590478,-0.9111 1.064659,-1.207198 0.521326,-0.285365 1.062088,-0.24318 1.608854,-0.07103 0.558215,0.207718 1.036534,0.566358 1.505465,0.924388 0.526731,0.42055 1.017346,0.88444 1.485725,1.36847 1.968556,2.03986 1.00696,2.96784 -0.961596,0.92799 v 0 c -0.420474,-0.43707 -0.863576,-0.8535 -1.335639,-1.23473 -0.349811,-0.26768 -0.70196,-0.54391 -1.110869,-0.71647 -0.167893,-0.0597 -0.334109,-0.12742 -0.508394,-0.0503 -0.251501,0.12958 -0.409338,0.35453 -0.52934,0.60679 -0.197961,0.43339 -0.324324,0.88943 -0.406452,1.3588 -0.08971,0.54812 -0.155142,1.10052 -0.174501,1.656 -0.01981,0.45414 -0.03595,0.91078 0.0092,1.36397 0.06251,0.55315 0.06758,0.14793 -0.263294,0.0623 -0.126912,-0.0329 -0.262186,-0.002 -0.393279,-0.003 -0.46964,0.29778 -0.193915,0.22832 -0.04894,-0.24665 0.22907,-0.54289 0.412654,-1.10343 0.635605,-1.64885 0.220147,-0.56481 0.458029,-1.12267 0.710057,-1.67399 0.149303,-0.32107 0.309868,-0.63654 0.468348,-0.95316 1.267771,-2.535545 2.463036,-1.937912 1.195266,0.59763 z"
       inkscape:connector-curvature="0" />
    <path
       style="opacity:1;fill:#000000;fill-opacity:1;fill-rule:nonzero;stroke:#000000;stroke-width:0.1;stroke-linecap:round;stroke-linejoin:round;stroke-miterlimit:4;stroke-dasharray:none;stroke-dashoffset:0;stroke-opacity:1;paint-order:markers fill stroke"
       id="path6449"
       d="m 21.350961,234.06458 c 0.288562,0 0.577125,0 0.865687,0 0.463009,5.3e-4 0.925255,0.0368 1.387528,0.0604 0.599393,0.0305 1.199274,0.0497 1.799185,0.0663 0.7747,0.0307 1.549872,0.0124 2.324717,-5.3e-4 0.935718,-0.0163 1.871491,-0.0289 2.807285,-0.0399 1.059365,-0.0121 2.118768,-0.0205 3.178174,-0.0281 1.164511,-0.008 2.329036,-0.0138 3.493563,-0.0189 1.233096,-0.005 2.466197,-0.009 3.699298,-0.0128 1.272482,-0.0147 2.544715,0.0132 3.816874,0.0377 1.300181,0.023 2.599478,0.0802 3.899051,0.12466 1.352272,0.0357 2.703449,0.10039 4.054882,0.15832 1.402218,0.0634 2.805496,0.0984 4.207965,0.15471 1.466945,0.066 2.934147,0.1254 4.401677,0.17669 1.543907,0.0531 3.088248,0.0917 4.632653,0.12674 1.603238,0.0357 3.206665,0.0618 4.810112,0.0858 1.641234,0.0143 3.281976,0.0481 4.922676,0.0908 1.630638,0.0439 3.261455,0.0804 4.892352,0.11307 1.621433,0.032 3.243001,0.0563 4.864592,0.0785 1.595848,0.0214 3.191756,0.038 4.787675,0.053 1.5894,0.0147 3.178829,0.0257 4.768263,0.0358 1.590124,0.021 3.180196,-0.002 4.770183,-0.022 1.573797,-0.021 3.147637,-0.0387 4.721497,-0.0544 1.54488,-0.004 3.08918,-0.046 4.63349,-0.0839 1.51488,-0.0378 3.02991,-0.0686 4.545,-0.0964 1.4595,-0.0264 2.9191,-0.0472 4.37871,-0.0662 1.38894,-0.008 2.77733,-0.0378 4.16568,-0.0771 1.35744,-0.0399 2.71503,-0.074 4.07271,-0.10432 1.32586,-0.0259 2.65083,-0.0845 3.97606,-0.13172 1.30442,-0.0465 2.60915,-0.0831 3.91397,-0.11612 1.28725,-0.0357 2.57503,-0.0487 3.8622,-0.0867 1.29164,-0.0451 2.58327,-0.0905 3.8751,-0.12972 1.2915,-0.0241 2.58331,-0.022 3.87498,-0.0232 1.28872,-7.9e-4 2.57744,-0.001 3.86616,-0.001 1.30357,-2.4e-4 2.60713,-5.3e-4 3.9107,-5.3e-4 1.3189,-0.003 2.63754,0.0328 3.95609,0.0593 1.32391,0.0269 2.64792,0.0478 3.97196,0.0666 1.34217,0.0188 2.6844,0.0327 4.02664,0.0456 1.34403,0.0127 2.68809,0.0222 4.03216,0.0308 1.34453,0.0111 2.6889,0.0186 4.03338,0.001 1.33319,-0.0212 2.66636,-0.0433 3.99958,-0.0624 1.30614,-0.004 2.61225,0.0133 3.91831,0.0261 1.25964,0.0126 2.5193,0.0226 3.77898,0.0318 1.22672,0.009 2.45347,0.0156 3.68021,0.0218 1.20442,0.006 2.40885,0.0106 3.61327,0.0147 1.20014,0.004 2.40028,0.007 3.60042,0.01 1.19419,0.006 2.38818,-0.0279 3.58203,-0.0526 1.19649,-0.0281 2.39339,-0.0366 3.58974,-0.0702 1.18445,-0.0404 2.36884,-0.0824 3.55341,-0.11922 1.14727,-0.05 2.2941,-0.10922 3.44133,-0.16009 1.12215,-0.0462 2.24292,-0.12031 3.3643,-0.18188 1.08541,-0.0766 2.17155,-0.14443 3.25635,-0.22926 1.06893,-0.094 2.13984,-0.16257 3.20931,-0.24929 1.04726,-0.0928 2.09533,-0.17525 3.14416,-0.24807 1.0328,-0.0667 2.06381,-0.1577 3.09592,-0.23409 1.03164,-0.0728 2.06169,-0.16603 3.09293,-0.24447 1.03698,-0.0668 2.07225,-0.15617 3.10807,-0.23847 1.01139,-0.0834 2.02494,-0.136 3.03701,-0.20948 0.97015,-0.077 1.94064,-0.14933 2.91171,-0.21376 0.91267,-0.06 1.82604,-0.10815 2.73958,-0.15239 0.83679,-0.0542 1.67295,-0.11749 2.50958,-0.17408 0.75483,-0.051 1.51018,-0.0936 2.26569,-0.1329 0.69256,-0.0397 1.38675,-0.0325 2.08014,-0.031 0.63386,0.002 1.26772,0.004 1.90159,0.007 0.60116,0.002 1.20233,0.004 1.80349,0.005 0.59929,0.001 1.19857,0.002 1.79786,0.003 0.5979,-0.003 1.19514,0.0344 1.79217,0.0625 0.52422,0.0178 1.04814,0.0566 1.57274,0.0599 0.23408,-0.0168 0.47739,0.0164 0.7079,-0.0368 -0.25789,0.0571 -0.43519,0.41702 -0.35173,0.74014 -0.0358,-0.008 -0.20723,-0.18002 -0.27292,-0.23757 -0.256,-0.20851 -0.53143,-0.39217 -0.80876,-0.57084 -0.35352,-0.2285 -0.71,-0.45192 -1.0706,-0.66908 -0.27527,-0.15415 -0.55367,-0.30188 -0.82151,-0.46875 -0.62451,-0.43045 -0.31648,-0.56312 0.34442,-1.32651 0.0143,-0.0165 0.32637,0.0441 0.32648,0.0441 0.35868,0.0765 0.712,0.17721 1.06265,0.2842 0.4354,0.127 0.86609,0.26847 1.29555,0.4141 0.47516,0.14752 0.94181,0.31364 1.38645,0.53758 0.48641,0.25198 0.77534,0.63218 0.902,1.15733 0.0448,0.55211 -0.2103,1.00432 -0.53555,1.4258 -0.34238,0.4259 -0.77161,0.76662 -1.20538,1.09376 -0.42893,0.3112 -0.85871,0.6212 -1.28745,0.9327 -0.0626,0.0476 -0.1253,0.0953 -0.18795,0.1429 -2.25773,1.71431 -3.06587,0.65 -0.80813,-1.0643 v 0 c 0.0702,-0.0533 0.14046,-0.10653 0.2107,-0.1598 0.42271,-0.307 0.84621,-0.61284 1.2693,-0.91929 0.34229,-0.25692 0.68541,-0.52063 0.95907,-0.85281 0.0729,-0.0892 0.21273,-0.34542 0.26916,-0.36796 0.0592,0.0543 -0.10298,-0.23118 -0.19114,-0.19696 -0.38596,-0.19855 -0.79773,-0.33096 -1.21025,-0.46339 -0.4169,-0.14138 -0.83492,-0.27885 -1.25767,-0.40189 -0.30479,-0.0937 -0.61227,-0.18078 -0.92369,-0.24966 -0.46666,-0.11035 0.0739,0.18641 0.41112,-1.01011 0.0236,-0.0838 -0.11865,-0.1276 -0.17521,-0.19382 -0.0142,-0.0167 0.065,0.0543 0.0523,0.0399 0.26202,0.1633 0.53624,0.30481 0.80418,0.45813 0.37253,0.22435 0.74074,0.45529 1.10605,0.69119 0.33199,0.21475 0.66183,0.43533 0.96551,0.68923 0.22405,0.197 0.45236,0.39896 0.59657,0.66465 0.18713,0.52284 -0.0224,1.03467 -0.59635,1.14844 -0.32211,0.0595 -0.64924,0.059 -0.97599,0.0617 -0.54192,-0.005 -1.08311,-0.0409 -1.6246,-0.0613 -0.57683,-0.0271 -1.15386,-0.0634 -1.73153,-0.061 -0.59964,-0.001 -1.19928,-0.002 -1.79892,-0.003 -0.60159,-10e-4 -1.20317,-0.003 -1.80475,-0.005 -0.63333,-0.002 -1.26666,-0.005 -1.89999,-0.007 -0.66931,-10e-4 -1.33943,-0.009 -2.00794,0.0292 -0.74856,0.0389 -1.49696,0.0812 -2.24485,0.13165 -0.84514,0.0572 -1.68979,0.1213 -2.53513,0.17556 -0.9056,0.0438 -1.81103,0.0916 -2.71576,0.15103 -0.96834,0.0642 -1.9361,0.1364 -2.90354,0.2132 -1.00901,0.0731 -2.01945,0.12592 -3.02779,0.20877 -1.03732,0.0824 -2.07409,0.17189 -3.11258,0.23882 -1.03214,0.0785 -2.06309,0.17186 -3.09565,0.24468 -1.03413,0.0765 -2.06717,0.16778 -3.102,0.23452 -1.0437,0.0724 -2.08665,0.1546 -3.12879,0.24692 -1.07076,0.0867 -2.14292,0.15567 -3.21313,0.24959 -1.09509,0.0855 -2.19147,0.1543 -3.28718,0.23131 -1.12607,0.0618 -2.25152,0.13628 -3.37836,0.18257 -1.15313,0.0511 -2.30584,0.11078 -3.45902,0.16076 -1.18591,0.0369 -2.37164,0.079 -3.55744,0.11935 -1.19963,0.0336 -2.3998,0.0425 -3.59958,0.0705 -1.2041,0.0249 -2.40833,0.0587 -3.61278,0.0529 -1.20065,-0.003 -2.4013,-0.006 -3.60194,-0.01 -1.20514,-0.004 -2.41027,-0.009 -3.6154,-0.0147 -1.22775,-0.006 -2.45549,-0.0129 -3.68323,-0.0218 -1.26078,-0.009 -2.52157,-0.0193 -3.78233,-0.0319 -1.2953,-0.0127 -2.59064,-0.0299 -3.88602,-0.0261 -1.33386,0.0191 -2.66767,0.0412 -4.0015,0.0624 -1.35308,0.0174 -2.70604,0.01 -4.05918,-0.001 -1.34548,-0.009 -2.69096,-0.0181 -4.03641,-0.0308 -1.34431,-0.0129 -2.68861,-0.0268 -4.03285,-0.0457 -1.32664,-0.0189 -2.65324,-0.0398 -3.97974,-0.0668 -1.30957,-0.0263 -2.61922,-0.0621 -3.92914,-0.059 -1.30353,1.5e-4 -2.60706,2.6e-4 -3.91059,5.3e-4 -1.28838,2.4e-4 -2.57676,5.3e-4 -3.86513,0.001 -1.27859,0.001 -2.55732,-7.9e-4 -3.83574,0.0226 -1.29223,0.0392 -2.58424,0.0847 -3.87627,0.12976 -1.28902,0.0379 -2.57864,0.0513 -3.86775,0.0868 -1.30023,0.0329 -2.60038,0.0694 -3.9002,0.11571 -1.33115,0.0474 -2.66204,0.10622 -3.99383,0.13223 -1.355,0.0302 -2.70991,0.0643 -4.06467,0.10411 -1.39517,0.0395 -2.79037,0.0691 -4.18613,0.0776 -1.45724,0.019 -2.91446,0.0397 -4.37159,0.0661 -1.51231,0.0278 -3.02458,0.0585 -4.53668,0.0962 -1.5508,0.0381 -3.10159,0.08 -4.65297,0.0842 -1.57266,0.0158 -3.14531,0.0334 -4.71791,0.0544 -1.598451,0.0203 -3.196987,0.0432 -4.795576,0.0221 -1.590802,-0.01 -3.181598,-0.0211 -4.772366,-0.0358 -1.597813,-0.015 -3.195614,-0.0316 -4.793356,-0.0531 -1.624441,-0.0222 -3.248855,-0.0465 -4.873135,-0.0786 -1.633543,-0.0327 -3.267006,-0.0693 -4.90029,-0.11326 -1.635786,-0.0425 -3.271612,-0.0763 -4.907928,-0.0904 -1.606902,-0.024 -3.213783,-0.0502 -4.820473,-0.086 -1.549857,-0.0352 -3.099652,-0.0739 -4.649012,-0.12721 -1.469858,-0.0514 -2.939391,-0.11087 -4.408665,-0.17695 -1.403651,-0.0565 -2.808128,-0.0912 -4.211526,-0.15486 -1.347589,-0.0578 -2.694924,-0.12233 -4.043349,-0.15788 -1.292895,-0.0442 -2.585516,-0.10113 -3.879014,-0.12413 -1.26233,-0.0242 -2.524728,-0.0521 -3.787381,-0.0374 -1.232408,0.004 -2.464816,0.007 -3.697218,0.0128 -1.163315,0.005 -2.326629,0.0109 -3.489928,0.0189 -1.057373,0.008 -2.114742,0.0159 -3.172075,0.028 -0.933589,0.0109 -1.867159,0.0235 -2.800673,0.0398 -0.794651,0.0132 -1.589637,0.0314 -2.384139,2.3e-4 -0.610217,-0.017 -1.220401,-0.0365 -1.83009,-0.0676 -0.439603,-0.0224 -0.879202,-0.0571 -1.319458,-0.0586 -0.288562,0 -0.577125,0 -0.865687,0 -2.834821,0 -2.834821,-1.33635 0,-1.33635 z"
       inkscape:connector-curvature="0" />
    <path
       style="opacity:1;fill:#000000;fill-opacity:1;fill-rule:nonzero;stroke:#000000;stroke-width:0.1;stroke-linecap:round;stroke-linejoin:round;stroke-miterlimit:4;stroke-dasharray:none;stroke-dashoffset:0;stroke-opacity:1;paint-order:markers fill stroke"
       id="path6451"
       d="m 269.37482,236.81499 c 0.19094,0.22297 0.3903,0.43849 0.59029,0.65335 0.40381,0.41383 0.83577,0.79847 1.26236,1.18831 0.52222,0.49023 1.06694,0.95541 1.60072,1.4328 0.25491,0.23636 0.51007,0.47226 0.7623,0.71148 2.05647,1.95119 1.13667,2.92062 -0.9198,0.96942 v 0 c -0.24261,-0.2303 -0.48839,-0.45706 -0.73338,-0.68483 -0.53734,-0.48063 -1.08573,-0.9489 -1.61141,-1.44247 -0.45308,-0.41418 -0.91179,-0.82302 -1.33905,-1.26431 -0.2487,-0.26727 -0.50146,-0.53256 -0.72394,-0.82248 -1.57247,-2.35871 -0.46057,-3.09998 1.11191,-0.74127 z"
       inkscape:connector-curvature="0" />
    <path
       style="opacity:1;fill:#000000;fill-opacity:1;fill-rule:nonzero;stroke:#000000;stroke-width:0.1;stroke-linecap:round;stroke-linejoin:round;stroke-miterlimit:4;stroke-dasharray:none;stroke-dashoffset:0;stroke-opacity:1;paint-order:markers fill stroke"
       id="path6453"
       d="m 274.72309,235.85488 c -0.17822,0.15462 -0.32663,0.3388 -0.47233,0.52328 -0.35018,0.45487 -0.67321,0.9292 -1.00029,1.40062 -0.45908,0.66518 -0.90537,1.33913 -1.36674,2.0027 -0.52989,0.76459 -1.0885,1.50866 -1.66677,2.23718 -0.38029,0.46828 -0.76021,0.93688 -1.14435,1.40201 -1.80534,2.18562 -2.83565,1.33458 -1.03031,-0.85105 v 0 c 0.37872,-0.45842 0.75305,-0.92046 1.12807,-1.38191 0.56091,-0.7063 1.10247,-1.42794 1.61632,-2.16933 0.46137,-0.66295 0.90673,-1.33693 1.36586,-2.00145 0.34344,-0.49491 0.683,-0.99263 1.05149,-1.46955 0.23257,-0.29185 0.47389,-0.58332 0.77777,-0.80441 2.35873,-1.57248 3.09999,-0.46057 0.74128,1.11191 z"
       inkscape:connector-curvature="0" />
    <path
       style="opacity:1;fill:#000000;fill-opacity:1;fill-rule:nonzero;stroke:#000000;stroke-width:0.1;stroke-linecap:round;stroke-linejoin:round;stroke-miterlimit:4;stroke-dasharray:none;stroke-dashoffset:0;stroke-opacity:1;paint-order:markers fill stroke"
       id="path6455"
       d="m 6.2954566,100.13979 c 0.056645,-0.319082 0.1601208,-0.626824 0.2661856,-0.932187 0.1406335,-0.417385 0.3159435,-0.822254 0.5036138,-1.220359 0.2176028,-0.461306 0.5261946,-0.863801 0.8791895,-1.228207 0.3522527,-0.349736 0.7775855,-0.54083 1.2618675,-0.616214 0.4812426,-0.04991 0.917622,0.113308 1.340424,0.322467 0.411729,0.222361 0.793365,0.496586 1.175161,0.76611 0.340472,0.241801 0.694875,0.463917 1.086506,0.611598 0.293276,0.101101 0.59377,0.149183 0.902395,0.121494 0.204376,-0.04483 0.372836,-0.16158 0.527753,-0.296591 0.185601,-0.172219 0.32072,-0.384786 0.432464,-0.609763 0.135881,-0.317221 0.313807,-0.581273 0.589254,-0.790633 0.619449,-0.293297 1.053365,0.07312 1.322776,0.604571 0.21662,0.506562 0.369845,1.036393 0.529367,1.562755 0.231384,0.817855 0.455648,1.637659 0.671435,2.459769 0.253292,0.92436 0.481161,1.85546 0.665572,2.796 0.181327,0.87734 0.279783,1.76471 0.29797,2.6596 0.0077,0.77009 -0.0991,1.53111 -0.313987,2.26917 -0.196466,0.65107 -0.576933,1.18518 -1.079547,1.6321 -0.457222,0.37843 -1.007663,0.56356 -1.579568,0.68136 -0.526174,0.0958 -1.054312,0.0377 -1.573613,-0.065 -0.284257,-0.0686 -0.142373,-0.0298 -0.425558,-0.11688 -2.704062,-0.85103 -2.302881,-2.12574 0.401181,-1.27471 v 0 c 0.181481,0.0592 0.08524,0.0313 0.2893,0.0818 0.34469,0.072 0.696135,0.12009 1.047393,0.0643 0.344816,-0.0653 0.682624,-0.16128 0.964771,-0.37992 0.321266,-0.26694 0.549415,-0.60183 0.674645,-1.00361 0.184472,-0.60377 0.258953,-1.23221 0.258876,-1.86322 -0.01421,-0.81741 -0.108429,-1.62716 -0.27337,-2.42846 -0.178024,-0.91296 -0.401458,-1.81607 -0.646643,-2.71325 -0.211461,-0.80593 -0.431506,-1.609515 -0.657766,-2.411411 -0.138181,-0.455977 -0.271573,-0.913863 -0.447883,-1.357039 -0.01382,-0.02923 -0.03451,-0.05611 -0.04146,-0.08769 -3.7e-4,-0.0017 0.09711,0.07984 0.188702,0.08947 0.291087,0.03062 0.241345,0.023 0.461882,-0.08323 0.202387,-0.205155 -0.144477,0.181463 -0.13277,0.280392 -0.198192,0.383719 -0.43868,0.743037 -0.766819,1.029292 -0.378897,0.309731 -0.797007,0.547467 -1.292556,0.604084 -0.506259,0.02942 -1.001893,-0.03238 -1.480023,-0.209776 -0.489435,-0.195093 -0.945254,-0.454627 -1.371608,-0.764952 -0.326906,-0.230997 -0.653378,-0.466281 -1.002471,-0.662703 -0.1800092,-0.09173 -0.3605813,-0.191738 -0.5681794,-0.192459 -0.1888834,0.008 -0.3424648,0.09969 -0.4809154,0.22606 -0.2529867,0.254344 -0.4704271,0.539338 -0.6259589,0.864448 -0.1683634,0.355105 -0.3245424,0.716885 -0.4500592,1.089563 -0.078499,0.223701 -0.1550649,0.448891 -0.2050119,0.680911 -0.400904,2.80633 -1.7238207,2.61735 -1.3229166,-0.18898 z"
       inkscape:connector-curvature="0" />
    <g
       id="g7418"
       transform="matrix(0.68435183,0.15290155,-0.17709213,0.59087009,78.671628,58.642766)"
       style="stroke-width:1.52243733">
      <path
         inkscape:connector-curvature="0"
         d="m 26.876798,187.30048 c 0.242649,0.033 0.486783,0.053 0.730856,0.0718 0.33642,0.0349 0.674402,0.0203 1.011682,0.0113 0.345567,-0.01 0.691168,-0.0184 1.036788,-0.0261 2.834116,-0.0632 2.863914,1.27281 0.0298,1.33602 v 0 c -0.343742,0.008 -0.687462,0.0161 -1.031148,0.026 -0.383415,0.0102 -0.76763,0.0236 -1.15008,-0.0149 -0.27283,-0.0211 -0.545703,-0.0439 -0.816885,-0.0813 -2.806329,-0.4009 -2.617341,-1.72382 0.188989,-1.32292 z"
         id="path6457"
         style="opacity:1;fill:#000000;fill-opacity:1;fill-rule:nonzero;stroke:#000000;stroke-width:0.15224376;stroke-linecap:round;stroke-linejoin:round;stroke-miterlimit:4;stroke-dasharray:none;stroke-dashoffset:0;stroke-opacity:1;paint-order:markers fill stroke" />
      <path
         inkscape:connector-curvature="0"
         d="m 37.645861,186.75013 c 0.254521,-0.0403 0.507092,-0.0929 0.76169,-0.13417 0.36694,-0.0609 0.740098,-0.0656 1.11107,-0.0751 2.833905,-0.0721 2.867901,1.2638 0.034,1.33592 v 0 c -0.31087,0.008 -0.624036,0.009 -0.931717,0.0584 -0.262732,0.0424 -0.523124,0.0976 -0.786054,0.13789 -2.806329,0.4009 -2.995316,-0.92202 -0.188986,-1.32292 z"
         id="path6459"
         style="opacity:1;fill:#000000;fill-opacity:1;fill-rule:nonzero;stroke:#000000;stroke-width:0.15224376;stroke-linecap:round;stroke-linejoin:round;stroke-miterlimit:4;stroke-dasharray:none;stroke-dashoffset:0;stroke-opacity:1;paint-order:markers fill stroke" />
      <path
         inkscape:connector-curvature="0"
         d="m 48.391683,185.99633 c 0.2649,-0.12851 0.548973,-0.2081 0.833334,-0.28002 0.360561,-0.0871 0.727609,-0.14219 1.094838,-0.19198 0.202091,-0.0268 0.404876,-0.0477 0.607639,-0.0687 2.819887,-0.29061 2.956883,1.03869 0.136999,1.32931 v 0 c -0.188701,0.0194 -0.37742,0.0388 -0.565507,0.0637 -0.317961,0.0429 -0.6359,0.0896 -0.948349,0.16376 -0.190632,0.0475 -0.381987,0.0974 -0.561322,0.17922 -2.535541,1.26777 -3.133174,0.0725 -0.597632,-1.19527 z"
         id="path6461"
         style="opacity:1;fill:#000000;fill-opacity:1;fill-rule:nonzero;stroke:#000000;stroke-width:0.15224376;stroke-linecap:round;stroke-linejoin:round;stroke-miterlimit:4;stroke-dasharray:none;stroke-dashoffset:0;stroke-opacity:1;paint-order:markers fill stroke" />
      <path
         inkscape:connector-curvature="0"
         d="m 59.829231,185.14651 c 0.26856,-0.0395 0.539872,-0.0537 0.809122,-0.0865 0.388977,-0.0533 0.778968,-0.0981 1.169609,-0.13718 0.291931,-0.0287 0.584438,-0.0508 0.876983,-0.072 2.827372,-0.20539 2.924191,1.12745 0.09682,1.33283 v 0 c -0.280503,0.0204 -0.56097,0.0415 -0.840891,0.0689 -0.382429,0.0382 -0.764159,0.0824 -1.144966,0.13449 -0.258971,0.0301 -0.519276,0.047 -0.777687,0.0824 -2.806332,0.40091 -2.995319,-0.92201 -0.188989,-1.32292 z"
         id="path6463"
         style="opacity:1;fill:#000000;fill-opacity:1;fill-rule:nonzero;stroke:#000000;stroke-width:0.15224376;stroke-linecap:round;stroke-linejoin:round;stroke-miterlimit:4;stroke-dasharray:none;stroke-dashoffset:0;stroke-opacity:1;paint-order:markers fill stroke" />
      <path
         inkscape:connector-curvature="0"
         d="m 71.416314,184.61317 c 0.264443,-0.008 0.527373,0.0244 0.79013,0.0491 0.327623,0.0306 0.656074,0.0507 0.984578,0.0688 2.830502,0.15642 2.756766,1.49073 -0.07374,1.33431 v 0 c -0.345577,-0.0191 -0.691092,-0.0404 -1.035738,-0.0726 -0.221311,-0.0208 -0.442502,-0.0511 -0.665231,-0.0433 -2.83482,0 -2.83482,-1.33634 0,-1.33634 z"
         id="path6473"
         style="opacity:1;fill:#000000;fill-opacity:1;fill-rule:nonzero;stroke:#000000;stroke-width:0.15224376;stroke-linecap:round;stroke-linejoin:round;stroke-miterlimit:4;stroke-dasharray:none;stroke-dashoffset:0;stroke-opacity:1;paint-order:markers fill stroke" />
      <path
         inkscape:connector-curvature="0"
         d="m 84.245251,184.61317 c 0.2468,-0.003 0.493868,0.007 0.740357,-0.007 0.373594,-0.0289 0.747403,-0.0543 1.121465,-0.0762 0.465675,-0.0266 0.931815,-0.0439 1.39795,-0.06 2.833119,-0.0983 2.879437,1.23729 0.04632,1.33555 v 0 c -0.455488,0.0158 -0.910984,0.0326 -1.366028,0.0585 -0.377804,0.0221 -0.755298,0.0484 -1.132676,0.0768 -0.269018,0.0123 -0.538117,0.009 -0.807386,0.009 -2.83482,0 -2.83482,-1.33635 0,-1.33635 z"
         id="path6475"
         style="opacity:1;fill:#000000;fill-opacity:1;fill-rule:nonzero;stroke:#000000;stroke-width:0.15224376;stroke-linecap:round;stroke-linejoin:round;stroke-miterlimit:4;stroke-dasharray:none;stroke-dashoffset:0;stroke-opacity:1;paint-order:markers fill stroke" />
      <path
         inkscape:connector-curvature="0"
         d="m 98.048772,184.34471 c 0.271182,-0.0374 0.544055,-0.0601 0.816885,-0.0813 0.378873,-0.0286 0.758468,-0.0454 1.138063,-0.0607 0.22491,-0.009 0.44991,-0.0156 0.6749,-0.0223 2.83358,-0.0842 2.87326,1.25158 0.0397,1.33576 v 0 c -0.22024,0.007 -0.44048,0.0129 -0.66064,0.0218 -0.363243,0.0147 -0.726495,0.0306 -1.089053,0.0579 -0.244073,0.0188 -0.488207,0.0388 -0.730856,0.0718 -2.806329,0.4009 -2.995319,-0.92201 -0.188989,-1.32292 z"
         id="path6477"
         style="opacity:1;fill:#000000;fill-opacity:1;fill-rule:nonzero;stroke:#000000;stroke-width:0.15224376;stroke-linecap:round;stroke-linejoin:round;stroke-miterlimit:4;stroke-dasharray:none;stroke-dashoffset:0;stroke-opacity:1;paint-order:markers fill stroke" />
      <path
         inkscape:connector-curvature="0"
         d="m 113.11036,183.27682 c 0.25796,0 0.51591,0 0.77387,0 0.3512,-0.004 0.70271,0.008 1.05366,-0.007 0.25308,-0.0149 0.12454,-0.007 0.38562,-0.0239 2.8289,-0.18319 2.91525,1.15037 0.0863,1.33355 v 0 c -0.27721,0.0179 -0.13803,0.009 -0.41753,0.0256 -0.36921,0.0141 -0.73866,0.007 -1.1081,0.008 -0.25796,0 -0.51591,0 -0.77387,0 -2.83482,0 -2.83482,-1.33635 0,-1.33635 z"
         id="path6479"
         style="opacity:1;fill:#000000;fill-opacity:1;fill-rule:nonzero;stroke:#000000;stroke-width:0.15224376;stroke-linecap:round;stroke-linejoin:round;stroke-miterlimit:4;stroke-dasharray:none;stroke-dashoffset:0;stroke-opacity:1;paint-order:markers fill stroke" />
      <path
         inkscape:connector-curvature="0"
         d="m 127.00838,183.00955 c 0.25795,0 0.51591,0 0.77387,0 0.36029,0 0.72058,0 1.08088,0 0.27317,0 0.54634,0 0.81951,0 2.83482,0 2.83482,1.33635 0,1.33635 v 0 c -0.27317,0 -0.54634,0 -0.81951,0 -0.3603,0 -0.72059,0 -1.08088,0 -0.25796,0 -0.51592,0 -0.77387,0 -2.83482,0 -2.83482,-1.33635 0,-1.33635 z"
         id="path6481"
         style="opacity:1;fill:#000000;fill-opacity:1;fill-rule:nonzero;stroke:#000000;stroke-width:0.15224376;stroke-linecap:round;stroke-linejoin:round;stroke-miterlimit:4;stroke-dasharray:none;stroke-dashoffset:0;stroke-opacity:1;paint-order:markers fill stroke" />
      <path
         inkscape:connector-curvature="0"
         d="m 140.90639,182.74228 c 0.2396,-0.007 0.47865,-0.0369 0.71764,-0.0571 0.36761,-0.0304 0.73595,-0.0504 1.10433,-0.0685 0.0671,-0.003 0.13425,-0.006 0.20138,-0.009 2.83195,-0.12734 2.89198,1.20766 0.06,1.33499 v 0 c -0.0653,0.003 -0.13056,0.006 -0.19584,0.009 -0.35273,0.0173 -0.70543,0.0364 -1.05743,0.0654 -0.27638,0.0233 -0.55264,0.0584 -0.8301,0.0619 -2.83482,0 -2.83482,-1.33635 0,-1.33635 z"
         id="path6483"
         style="opacity:1;fill:#000000;fill-opacity:1;fill-rule:nonzero;stroke:#000000;stroke-width:0.15224376;stroke-linecap:round;stroke-linejoin:round;stroke-miterlimit:4;stroke-dasharray:none;stroke-dashoffset:0;stroke-opacity:1;paint-order:markers fill stroke" />
      <path
         inkscape:connector-curvature="0"
         d="m 153.46806,182.47501 c 0.22499,-0.0344 0.45323,-0.0516 0.68026,-0.0701 0.39502,-0.0209 0.78847,-0.0571 1.18217,-0.0949 0.53342,-0.0519 1.06822,-0.0873 1.60317,-0.11887 0.0979,-0.005 0.19581,-0.0107 0.29371,-0.016 2.83064,-0.1539 2.90319,1.18047 0.0726,1.33438 v 0 c -0.0959,0.005 -0.19179,0.0104 -0.28768,0.0156 -0.51861,0.0305 -1.03707,0.0648 -1.5542,0.11508 -0.40019,0.0384 -0.8002,0.0752 -1.20172,0.0966 -0.26319,0.0213 -0.52532,0.0515 -0.78827,0.0745 -2.83482,0 -2.83482,-1.33635 0,-1.33635 z"
         id="path6485"
         style="opacity:1;fill:#000000;fill-opacity:1;fill-rule:nonzero;stroke:#000000;stroke-width:0.15224376;stroke-linecap:round;stroke-linejoin:round;stroke-miterlimit:4;stroke-dasharray:none;stroke-dashoffset:0;stroke-opacity:1;paint-order:markers fill stroke" />
      <path
         inkscape:connector-curvature="0"
         d="m 169.40973,181.93928 c 0.30849,-0.0397 0.61888,-0.0612 0.9291,-0.0818 0.45498,-0.0282 0.91056,-0.045 1.36612,-0.0604 0.24946,-0.002 0.4982,-0.0225 0.74688,-0.0403 2.82766,-0.20138 2.92259,1.13159 0.0949,1.33297 v 0 c -0.26529,0.0188 -0.53065,0.0396 -0.79673,0.0429 -0.44109,0.0149 -0.8822,0.0311 -1.32274,0.0582 -0.27661,0.0183 -0.55336,0.0371 -0.82857,0.0713 -2.80633,0.4009 -2.99531,-0.92202 -0.18899,-1.32292 z"
         id="path6487"
         style="opacity:1;fill:#000000;fill-opacity:1;fill-rule:nonzero;stroke:#000000;stroke-width:0.15224376;stroke-linecap:round;stroke-linejoin:round;stroke-miterlimit:4;stroke-dasharray:none;stroke-dashoffset:0;stroke-opacity:1;paint-order:markers fill stroke" />
      <path
         inkscape:connector-curvature="0"
         d="m 185.27313,180.87139 c 0.24213,0.004 0.48323,2.7e-4 0.72466,-0.0177 0.37037,-0.0316 0.74122,-0.0564 1.11233,-0.0772 0.23035,-0.0122 0.46084,-0.0216 0.69132,-0.031 2.83246,-0.11556 2.88694,1.21967 0.0545,1.33524 v 0 c -0.22378,0.009 -0.44756,0.0182 -0.67121,0.03 -0.36317,0.0203 -0.72606,0.0447 -1.0885,0.0756 -0.2742,0.02 -0.54817,0.0262 -0.82308,0.0214 -2.83482,0 -2.83482,-1.33635 0,-1.33635 z"
         id="path6489"
         style="opacity:1;fill:#000000;fill-opacity:1;fill-rule:nonzero;stroke:#000000;stroke-width:0.15224376;stroke-linecap:round;stroke-linejoin:round;stroke-miterlimit:4;stroke-dasharray:none;stroke-dashoffset:0;stroke-opacity:1;paint-order:markers fill stroke" />
      <path
         inkscape:connector-curvature="0"
         d="m 197.8348,181.13866 c 0.23974,0.007 0.47825,-0.0233 0.71674,-0.0437 0.30159,-0.0259 0.60371,-0.0446 0.90589,-0.0619 2.83019,-0.162 2.90655,1.17217 0.0764,1.33416 v 0 c -0.28953,0.0166 -0.57902,0.0344 -0.86799,0.0592 -0.27645,0.0237 -0.55309,0.0558 -0.831,0.0486 -2.83482,0 -2.83482,-1.33635 0,-1.33635 z"
         id="path6491"
         style="opacity:1;fill:#000000;fill-opacity:1;fill-rule:nonzero;stroke:#000000;stroke-width:0.15224376;stroke-linecap:round;stroke-linejoin:round;stroke-miterlimit:4;stroke-dasharray:none;stroke-dashoffset:0;stroke-opacity:1;paint-order:markers fill stroke" />
      <path
         inkscape:connector-curvature="0"
         d="m 211.46555,181.13866 c 0.24554,0.005 0.49002,-5.3e-4 0.73491,-0.0179 0.18757,-0.0145 0.37524,-0.0276 0.56296,-0.0401 2.82853,-0.18874 2.9175,1.14464 0.089,1.33339 v 0 c -0.18613,0.0124 -0.37221,0.0254 -0.5582,0.0398 -0.27608,0.0193 -0.55189,0.0262 -0.82864,0.0212 -2.83483,0 -2.83483,-1.33635 0,-1.33635 z"
         id="path6493"
         style="opacity:1;fill:#000000;fill-opacity:1;fill-rule:nonzero;stroke:#000000;stroke-width:0.15224376;stroke-linecap:round;stroke-linejoin:round;stroke-miterlimit:4;stroke-dasharray:none;stroke-dashoffset:0;stroke-opacity:1;paint-order:markers fill stroke" />
      <path
         inkscape:connector-curvature="0"
         d="m 224.82902,181.6732 c 0.27746,0.003 0.55372,0.0385 0.8301,0.0619 0.29854,0.0252 0.59774,0.0409 0.89693,0.0559 2.83125,0.14228 2.76417,1.47695 -0.0671,1.33466 v 0 c -0.31433,-0.0158 -0.62866,-0.0325 -0.94231,-0.059 -0.23898,-0.0202 -0.47804,-0.0506 -0.71764,-0.0571 -2.83482,0 -2.83482,-1.33635 0,-1.33635 z"
         id="path6495"
         style="opacity:1;fill:#000000;fill-opacity:1;fill-rule:nonzero;stroke:#000000;stroke-width:0.15224376;stroke-linecap:round;stroke-linejoin:round;stroke-miterlimit:4;stroke-dasharray:none;stroke-dashoffset:0;stroke-opacity:1;paint-order:markers fill stroke" />
      <path
         inkscape:connector-curvature="0"
         d="m 236.58888,181.6732 c 0.2843,0 0.56859,0 0.85289,0 0.43442,0 0.86884,0 1.30326,0 0.0814,0 0.16286,0 0.24429,0 2.83482,0 2.83482,1.33635 0,1.33635 v 0 c -0.0814,0 -0.16286,0 -0.24429,0 -0.43442,0 -0.86884,0 -1.30326,0 -0.2843,0 -0.56859,0 -0.85289,0 -2.83482,0 -2.83482,-1.33635 0,-1.33635 z"
         id="path6497"
         style="opacity:1;fill:#000000;fill-opacity:1;fill-rule:nonzero;stroke:#000000;stroke-width:0.15224376;stroke-linecap:round;stroke-linejoin:round;stroke-miterlimit:4;stroke-dasharray:none;stroke-dashoffset:0;stroke-opacity:1;paint-order:markers fill stroke" />
    </g>
    <path
       style="opacity:1;fill:#000000;fill-opacity:1;fill-rule:nonzero;stroke:#000000;stroke-width:0.1;stroke-linecap:round;stroke-linejoin:round;stroke-miterlimit:4;stroke-dasharray:none;stroke-dashoffset:0;stroke-opacity:1;paint-order:markers fill stroke"
       id="path6499"
       d="m 65.199506,233.08999 c 0.05049,0.3415 0.0393,0.68774 0.03706,1.03182 -0.0042,0.47063 -0.0081,0.94126 -0.01143,1.4119 -0.0085,0.3206 -7.94e-4,0.64066 0.01281,0.96093 0.119058,2.83232 -1.216112,2.88844 -1.335166,0.0561 v 0 c -0.01426,-0.34216 -0.0226,-0.68417 -0.01394,-1.02664 0.0034,-0.47037 0.0072,-0.94074 0.01143,-1.4111 0.0019,-0.27794 0.01466,-0.55797 -0.02365,-0.83405 -0.400904,-2.80633 0.922012,-2.99532 1.322917,-0.18899 z"
       inkscape:connector-curvature="0" />
    <path
       style="opacity:1;fill:#000000;fill-opacity:1;fill-rule:nonzero;stroke:#000000;stroke-width:0.1;stroke-linecap:round;stroke-linejoin:round;stroke-miterlimit:4;stroke-dasharray:none;stroke-dashoffset:0;stroke-opacity:1;paint-order:markers fill stroke"
       id="path6501"
       d="m 65.543866,247.42806 c -0.208978,-0.0124 -0.413149,0.0204 -0.6155,0.0696 -0.268123,0.0681 -0.513964,0.18405 -0.75034,0.32487 -0.26221,0.16874 -0.485759,0.38613 -0.68793,0.62166 -0.219091,0.28509 -0.375586,0.60964 -0.519528,0.93716 -0.15635,0.35456 -0.237328,0.73383 -0.296037,1.11485 -0.04155,0.34772 -0.04761,0.69894 0.0047,1.04546 0.04061,0.17755 0.09762,0.37787 0.244126,0.49933 0.03514,-0.0135 0.07868,-0.0291 0.122716,-0.0401 0.174514,-0.0883 0.32335,-0.21276 0.468278,-0.34418 0.258448,-0.24101 0.464109,-0.52614 0.665279,-0.81438 0.229793,-0.33532 0.409969,-0.70072 0.598239,-1.06008 0.176011,-0.38822 0.384738,-0.75371 0.666268,-1.07442 0.320421,-0.34707 0.731004,-0.45761 1.188091,-0.42417 0.368273,0.0624 0.694052,0.24093 0.998143,0.44951 0.318823,0.23161 0.600281,0.50876 0.872291,0.79251 0.229865,0.23421 0.452287,0.47555 0.681379,0.71051 1.977568,2.03112 1.020088,2.96335 -0.957479,0.93224 v 0 c -0.231773,-0.23835 -0.457679,-0.48228 -0.690314,-0.71978 -0.210161,-0.22111 -0.427739,-0.43729 -0.672245,-0.62072 -0.119312,-0.0871 -0.246105,-0.15638 -0.380805,-0.21626 0.0096,-0.0434 0.02228,-0.0767 -0.04657,-0.009 -0.217763,0.2264 -0.332703,0.52462 -0.475131,0.79992 -0.21463,0.40936 -0.42195,0.82444 -0.686271,1.20489 -0.260826,0.37324 -0.534292,0.73781 -0.871683,1.04679 -0.347223,0.30611 -0.719495,0.57952 -1.183862,0.67162 -0.479102,0.0506 -0.92424,-0.0307 -1.2808,-0.38128 -0.305039,-0.35089 -0.513734,-0.75336 -0.58319,-1.21841 -0.06321,-0.47718 -0.06752,-0.95852 -0.0016,-1.43633 0.07833,-0.49582 0.189539,-0.98775 0.394049,-1.44873 0.199271,-0.44895 0.421166,-0.89079 0.733285,-1.27372 0.299778,-0.3419 0.629679,-0.65729 1.019016,-0.89684 0.354867,-0.20686 0.726019,-0.37718 1.126892,-0.475 0.301231,-0.0675 0.606377,-0.1185 0.916424,-0.10394 2.834823,0 2.834823,1.33635 0,1.33635 z"
       inkscape:connector-curvature="0" />
    <path
       style="opacity:1;fill:#000000;fill-opacity:1;fill-rule:nonzero;stroke:#000000;stroke-width:0.1;stroke-linecap:round;stroke-linejoin:round;stroke-miterlimit:4;stroke-dasharray:none;stroke-dashoffset:0;stroke-opacity:1;paint-order:markers fill stroke"
       id="path6535"
       d="m 60.638617,108.36307 c 0,0.25796 0,0.51591 0,0.77387 0.01003,0.37659 -0.02167,0.75203 -0.0478,1.12732 -0.01905,0.26965 -0.03442,0.53952 -0.04913,0.80943 -0.15426,2.83062 -1.488628,2.7579 -1.334368,-0.0727 v 0 c 0.01508,-0.27663 0.03086,-0.55323 0.05038,-0.82959 0.024,-0.3444 0.05471,-0.68882 0.04457,-1.03444 0,-0.25796 0,-0.51591 0,-0.77387 0,-2.83482 1.336347,-2.83482 1.336347,0 z"
       inkscape:connector-curvature="0" />
    <path
       style="opacity:1;fill:#000000;fill-opacity:1;fill-rule:nonzero;stroke:#000000;stroke-width:0.1;stroke-linecap:round;stroke-linejoin:round;stroke-miterlimit:4;stroke-dasharray:none;stroke-dashoffset:0;stroke-opacity:1;paint-order:markers fill stroke"
       id="path6537"
       d="m 60.371348,117.7175 c 0,0.10937 0,0.21873 0,0.3281 0,2.83482 -1.33635,2.83482 -1.33635,0 v 0 c 0,-0.10937 0,-0.21873 0,-0.3281 0,-2.83482 1.33635,-2.83482 1.33635,0 z"
       inkscape:connector-curvature="0" />
    <path
       style="opacity:1;fill:#000000;fill-opacity:1;fill-rule:nonzero;stroke:#000000;stroke-width:0.1;stroke-linecap:round;stroke-linejoin:round;stroke-miterlimit:4;stroke-dasharray:none;stroke-dashoffset:0;stroke-opacity:1;paint-order:markers fill stroke"
       id="path6539"
       d="m 60.907079,126.71017 c 0.03736,0.27118 0.06015,0.54406 0.08127,0.81689 0.0273,0.36743 0.04476,0.73549 0.06065,1.10356 0.01339,0.28427 0.02252,0.56839 0.02119,0.85295 -0.01971,2.83476 -1.356032,2.82546 -1.336315,-0.009 v 0 c 0.0026,-0.26225 -0.0089,-0.52405 -0.01998,-0.78606 -0.01521,-0.35294 -0.03186,-0.70587 -0.05792,-1.05821 -0.01881,-0.24407 -0.03884,-0.4882 -0.07181,-0.73085 -0.400905,-2.80633 0.922012,-2.99532 1.322917,-0.18899 z"
       inkscape:connector-curvature="0" />
    <path
       style="opacity:1;fill:#000000;fill-opacity:1;fill-rule:nonzero;stroke:#000000;stroke-width:0.1;stroke-linecap:round;stroke-linejoin:round;stroke-miterlimit:4;stroke-dasharray:none;stroke-dashoffset:0;stroke-opacity:1;paint-order:markers fill stroke"
       id="path6541"
       d="m 61.693071,137.85721 c -0.03297,0.24265 -0.05299,0.48678 -0.07181,0.73086 -0.015,0.21558 -0.0078,0.10655 -0.02164,0.32708 -0.17826,2.82921 -1.511964,2.74517 -1.333704,-0.084 v 0 c 0.01469,-0.23275 0.007,-0.11741 0.02297,-0.346 0.02111,-0.27283 0.04391,-0.54571 0.08127,-0.81689 0.400905,-2.80633 1.723821,-2.61734 1.322917,0.18899 z"
       inkscape:connector-curvature="0" />
    <path
       style="opacity:1;fill:#000000;fill-opacity:1;fill-rule:nonzero;stroke:#000000;stroke-width:0.1;stroke-linecap:round;stroke-linejoin:round;stroke-miterlimit:4;stroke-dasharray:none;stroke-dashoffset:0;stroke-opacity:1;paint-order:markers fill stroke"
       id="path6543"
       d="m 61.96034,147.74618 c -0.03297,0.24265 -0.05299,0.48679 -0.07181,0.73086 -0.01696,0.22684 -0.02913,0.45398 -0.0409,0.68114 -0.146897,2.83101 -1.48145,2.76176 -1.334554,-0.0692 v 0 c 0.01238,-0.2384 0.02522,-0.47679 0.04308,-0.71485 0.02111,-0.27283 0.04391,-0.5457 0.08127,-0.81689 0.400905,-2.80632 1.723822,-2.61734 1.322917,0.18899 z"
       inkscape:connector-curvature="0" />
    <path
       style="opacity:1;fill:#000000;fill-opacity:1;fill-rule:nonzero;stroke:#000000;stroke-width:0.1;stroke-linecap:round;stroke-linejoin:round;stroke-miterlimit:4;stroke-dasharray:none;stroke-dashoffset:0;stroke-opacity:1;paint-order:markers fill stroke"
       id="path6545"
       d="m 61.707695,156.20432 c 0,0.25795 0,0.51591 0,0.77386 0,0.29565 0,0.5913 0,0.88695 0,2.83482 -1.336347,2.83482 -1.336347,0 v 0 c 0,-0.29565 0,-0.5913 0,-0.88695 0,-0.25795 0,-0.51591 0,-0.77386 0,-2.83483 1.336347,-2.83483 1.336347,0 z"
       inkscape:connector-curvature="0" />
    <path
       style="opacity:1;fill:#000000;fill-opacity:1;fill-rule:nonzero;stroke:#000000;stroke-width:0.1;stroke-linecap:round;stroke-linejoin:round;stroke-miterlimit:4;stroke-dasharray:none;stroke-dashoffset:0;stroke-opacity:1;paint-order:markers fill stroke"
       id="path6547"
       d="m 62.49488,166.98959 c -0.03297,0.24265 -0.05299,0.48678 -0.07181,0.73085 -0.02606,0.35234 -0.04271,0.70527 -0.05792,1.05821 -0.01037,0.26307 -0.0054,0.13076 -0.015,0.39693 -0.102479,2.83297 -1.437952,2.78466 -1.335474,-0.0483 v 0 c 0.0098,-0.27219 0.0047,-0.13679 0.01537,-0.40622 0.0159,-0.36808 0.03335,-0.73613 0.06065,-1.10356 0.02111,-0.27284 0.04391,-0.54571 0.08127,-0.81689 0.400905,-2.80633 1.723822,-2.61734 1.322917,0.18899 z"
       inkscape:connector-curvature="0" />
    <path
       style="opacity:1;fill:#000000;fill-opacity:1;fill-rule:nonzero;stroke:#000000;stroke-width:0.1;stroke-linecap:round;stroke-linejoin:round;stroke-miterlimit:4;stroke-dasharray:none;stroke-dashoffset:0;stroke-opacity:1;paint-order:markers fill stroke"
       id="path6549"
       d="m 62.509504,179.18949 c 0.0083,0.26445 -0.02445,0.52737 -0.04912,0.79014 -0.03058,0.32762 -0.05068,0.65607 -0.06882,0.98457 -0.0031,0.0619 -0.0062,0.12389 -0.0093,0.18583 -0.14265,2.83124 -1.477306,2.76399 -1.334656,-0.0672 v 0 c 0.0032,-0.0641 0.0065,-0.12822 0.0097,-0.19233 0.0191,-0.34557 0.0404,-0.69109 0.07263,-1.03574 0.02077,-0.22131 0.05114,-0.4425 0.04327,-0.66523 0,-2.83482 1.33635,-2.83482 1.33635,0 z"
       inkscape:connector-curvature="0" />
    <path
       style="opacity:1;fill:#000000;fill-opacity:1;fill-rule:nonzero;stroke:#000000;stroke-width:0.1;stroke-linecap:round;stroke-linejoin:round;stroke-miterlimit:4;stroke-dasharray:none;stroke-dashoffset:0;stroke-opacity:1;paint-order:markers fill stroke"
       id="path6551"
       d="m 62.776773,190.93862 c 0.03077,0.23897 0.05053,0.47955 0.07009,0.71974 0.02891,0.36763 0.0476,0.73594 0.06458,1.10427 0.130389,2.83182 -1.204545,2.89329 -1.334934,0.0615 v 0 c -0.01622,-0.35273 -0.03403,-0.70544 -0.0616,-1.05749 -0.02241,-0.27626 -0.05299,-0.55171 -0.07448,-0.82799 0,-2.83483 1.336347,-2.83483 1.336347,0 z"
       inkscape:connector-curvature="0" />
    <path
       style="opacity:1;fill:#000000;fill-opacity:1;fill-rule:nonzero;stroke:#000000;stroke-width:0.1;stroke-linecap:round;stroke-linejoin:round;stroke-miterlimit:4;stroke-dasharray:none;stroke-dashoffset:0;stroke-opacity:1;paint-order:markers fill stroke"
       id="path6553"
       d="m 63.578582,201.10023 c 0,0.25795 0,0.51591 0,0.77386 0,0.3603 0,0.72059 0,1.08089 0,0.0662 0,0.1324 0,0.1986 0,2.83483 -1.33635,2.83483 -1.33635,0 v 0 c 0,-0.0662 0,-0.1324 0,-0.1986 0,-0.3603 0,-0.72059 0,-1.08089 0,-0.25795 0,-0.51591 0,-0.77386 0,-2.83483 1.33635,-2.83483 1.33635,0 z"
       inkscape:connector-curvature="0" />
    <path
       style="opacity:1;fill:#000000;fill-opacity:1;fill-rule:nonzero;stroke:#000000;stroke-width:0.1;stroke-linecap:round;stroke-linejoin:round;stroke-miterlimit:4;stroke-dasharray:none;stroke-dashoffset:0;stroke-opacity:1;paint-order:markers fill stroke"
       id="path6555"
       d="m 63.845851,211.52374 c 0,0.25795 0,0.51591 0,0.77387 0,0.055 0,0.10993 0,0.16489 0,2.83482 -1.336347,2.83482 -1.336347,0 v 0 c 0,-0.055 0,-0.10993 0,-0.16489 0,-0.25796 0,-0.51592 0,-0.77387 0,-2.83483 1.336347,-2.83483 1.336347,0 z"
       inkscape:connector-curvature="0" />
    <path
       style="opacity:1;fill:#000000;fill-opacity:1;fill-rule:nonzero;stroke:#000000;stroke-width:0.1;stroke-linecap:round;stroke-linejoin:round;stroke-miterlimit:4;stroke-dasharray:none;stroke-dashoffset:0;stroke-opacity:1;paint-order:markers fill stroke"
       id="path6559"
       d="m 64.64766,222.56769 c -0.0041,0.24213 -2.65e-4,0.48323 0.01773,0.72466 0.03436,0.36985 0.05859,0.73959 0.05869,1.11105 -0.0021,2.83482 -1.338445,2.83383 -1.336347,-0.001 v 0 c 5.3e-4,-0.33831 -0.02469,-0.67477 -0.05506,-1.01165 -0.02003,-0.2742 -0.02617,-0.54817 -0.02135,-0.82308 0,-2.83482 1.336349,-2.83482 1.336349,0 z"
       inkscape:connector-curvature="0" />
    <path
       style="opacity:1;fill:#000000;fill-opacity:1;fill-rule:nonzero;stroke:#000000;stroke-width:0.1;stroke-linecap:round;stroke-linejoin:round;stroke-miterlimit:4;stroke-dasharray:none;stroke-dashoffset:0;stroke-opacity:1;paint-order:markers fill stroke"
       id="path6565"
       d="m 213.95463,233.8918 c 0.0452,0.3179 0.0624,0.63743 0.0637,0.9582 -0.003,0.41073 -0.0112,0.8214 -0.0172,1.2321 -0.01,0.26344 0.003,0.52681 0.0272,0.78908 0.24548,2.82418 -1.08585,2.9399 -1.33133,0.11572 v 0 c -0.0259,-0.30735 -0.0433,-0.61565 -0.0321,-0.92428 0.006,-0.40288 0.0134,-0.80574 0.017,-1.20865 -5.3e-4,-0.25893 -0.0139,-0.51647 -0.0503,-0.77318 -0.4009,-2.80633 0.92201,-2.99532 1.32292,-0.18899 z"
       inkscape:connector-curvature="0" />
    <path
       style="opacity:1;fill:#000000;fill-opacity:1;fill-rule:nonzero;stroke:#000000;stroke-width:0.1;stroke-linecap:round;stroke-linejoin:round;stroke-miterlimit:4;stroke-dasharray:none;stroke-dashoffset:0;stroke-opacity:1;paint-order:markers fill stroke"
       id="path6567"
       d="m 212.44409,250.1554 c 0.1217,-0.19925 0.19316,-0.42113 0.2614,-0.64281 0.0693,-0.33606 0.11184,-0.67762 0.13204,-1.02 0.0288,-0.39792 0.004,-0.79479 -0.0394,-1.19038 -0.0413,-0.26399 -0.0858,-0.53551 -0.20753,-0.77635 0.0566,0.058 -0.0692,-0.099 -0.052,-0.0743 0.12731,0.18274 0.2719,0.19609 0.48429,0.19175 0.24347,-0.11097 0.11265,0.0222 0.0415,0.19654 -0.14144,0.36332 -0.2178,0.74719 -0.29226,1.12856 -0.0953,0.51334 -0.12406,1.03638 -0.15774,1.55661 -0.0263,0.55579 -0.004,1.11256 0.0387,1.6669 0.0416,0.5506 0.13082,1.09612 0.24084,1.63676 0.11071,0.52161 0.29199,1.0229 0.51824,1.50456 0.18669,0.38545 0.43418,0.73105 0.75016,1.01942 0.21239,0.19222 0.45243,0.32586 0.73404,0.37646 0.16886,0.025 0.3262,-0.005 0.47419,-0.0865 0.0964,-0.0559 0.12322,-0.15644 0.13985,-0.26077 0.0264,-0.22461 -0.0289,-0.44299 -0.10268,-0.65315 -0.0886,-0.24232 -0.24425,-0.43547 -0.42887,-0.61047 -0.12879,-0.1164 -0.27693,-0.20353 -0.43889,-0.26404 -2.62318,-1.07477 -2.11653,-2.31135 0.50665,-1.23658 v 0 c 0.31708,0.13473 0.61496,0.30352 0.86551,0.54415 0.33218,0.32943 0.60956,0.69873 0.76397,1.14617 0.14872,0.46265 0.23317,0.93887 0.12458,1.4218 -0.14393,0.48239 -0.39675,0.88797 -0.86045,1.12173 -0.42415,0.18994 -0.86498,0.27355 -1.32824,0.18345 -0.51371,-0.12031 -0.97494,-0.34331 -1.36373,-0.70736 -0.43298,-0.41272 -0.79177,-0.88595 -1.04738,-1.42982 -0.26782,-0.57842 -0.48666,-1.17814 -0.6167,-1.80373 -0.12001,-0.59503 -0.21849,-1.19509 -0.26361,-1.80096 -0.0462,-0.61681 -0.0714,-1.23612 -0.0397,-1.85442 0.0375,-0.57741 0.0717,-1.15755 0.17985,-1.72697 0.0924,-0.47063 0.19158,-0.94301 0.37169,-1.3894 0.17358,-0.40616 0.37204,-0.79307 0.81138,-0.96033 0.59789,-0.0793 0.88121,0.0671 1.15969,0.60295 0.16942,0.37955 0.27533,0.78064 0.32328,1.19406 0.0505,0.471 0.0779,0.94386 0.0445,1.41741 -0.0294,0.44778 -0.0811,0.89625 -0.18949,1.33245 -0.0906,0.29008 -0.18727,0.58105 -0.34241,0.84424 -1.26777,2.53554 -2.46303,1.93791 -1.19526,-0.59763 z"
       inkscape:connector-curvature="0" />
    <path
       style="opacity:1;fill:#000000;fill-opacity:1;fill-rule:nonzero;stroke:#000000;stroke-width:0.1;stroke-linecap:round;stroke-linejoin:round;stroke-miterlimit:4;stroke-dasharray:none;stroke-dashoffset:0;stroke-opacity:1;paint-order:markers fill stroke"
       id="path6601"
       d="m 210.98274,103.37944 c -0.0302,0.24716 -0.0776,0.49058 -0.0991,0.73877 -0.0218,0.33905 -0.046,0.6786 -0.0431,1.01847 0.008,0.33768 0.0229,0.67518 0.0352,1.01274 0.10289,2.83295 -1.23257,2.88145 -1.33546,0.0485 v 0 c -0.0128,-0.3517 -0.0281,-0.70335 -0.0361,-1.0552 -5.3e-4,-0.38157 0.0209,-0.76275 0.0483,-1.1433 0.0247,-0.27164 0.0723,-0.53873 0.10727,-0.80897 0.4009,-2.80633 1.72382,-2.61734 1.32291,0.18899 z"
       inkscape:connector-curvature="0" />
    <path
       style="opacity:1;fill:#000000;fill-opacity:1;fill-rule:nonzero;stroke:#000000;stroke-width:0.1;stroke-linecap:round;stroke-linejoin:round;stroke-miterlimit:4;stroke-dasharray:none;stroke-dashoffset:0;stroke-opacity:1;paint-order:markers fill stroke"
       id="path6603"
       d="m 211.26583,114.68304 c 0.0374,0.27118 0.0602,0.54406 0.0813,0.81689 0.0273,0.36743 0.0448,0.73549 0.0606,1.10356 0.0176,0.42094 0.0297,0.84209 0.0406,1.26325 0.0735,2.83387 -1.2624,2.86852 -1.3359,0.0347 v 0 c -0.0107,-0.41351 -0.0225,-0.827 -0.0398,-1.2403 -0.0152,-0.35294 -0.0319,-0.70587 -0.0579,-1.0582 -0.0188,-0.24408 -0.0389,-0.48821 -0.0718,-0.73086 -0.4009,-2.80633 0.92202,-2.99532 1.32292,-0.18899 z"
       inkscape:connector-curvature="0" />
    <path
       style="opacity:1;fill:#000000;fill-opacity:1;fill-rule:nonzero;stroke:#000000;stroke-width:0.1;stroke-linecap:round;stroke-linejoin:round;stroke-miterlimit:4;stroke-dasharray:none;stroke-dashoffset:0;stroke-opacity:1;paint-order:markers fill stroke"
       id="path6605"
       d="m 211.78455,126.89916 c -0.033,0.24265 -0.053,0.48678 -0.0718,0.73086 -0.0261,0.35233 -0.0427,0.70526 -0.0579,1.0582 -0.0173,0.4133 -0.0291,0.82679 -0.0398,1.2403 -0.002,0.0732 -0.003,0.14642 -0.005,0.21962 -0.0679,2.83401 -1.40382,2.80202 -1.33596,-0.032 v 0 c 0.002,-0.0741 0.004,-0.14818 0.005,-0.22228 0.0109,-0.42116 0.023,-0.84231 0.0406,-1.26325 0.0159,-0.36807 0.0334,-0.73613 0.0607,-1.10356 0.0211,-0.27283 0.0439,-0.54571 0.0813,-0.81689 0.4009,-2.80633 1.72382,-2.61734 1.32291,0.18899 z"
       inkscape:connector-curvature="0" />
    <path
       style="opacity:1;fill:#000000;fill-opacity:1;fill-rule:nonzero;stroke:#000000;stroke-width:0.1;stroke-linecap:round;stroke-linejoin:round;stroke-miterlimit:4;stroke-dasharray:none;stroke-dashoffset:0;stroke-opacity:1;paint-order:markers fill stroke"
       id="path6607"
       d="m 210.99737,140.16814 c 0,0.25796 0,0.51592 0,0.77387 0.0218,0.33682 0.0397,0.67437 0.0764,1.00996 0.0527,0.41878 0.0996,0.83818 0.14029,1.25829 0.0226,0.29445 0.065,0.58692 0.10273,0.8797 0.3624,2.81156 -0.96298,2.9824 -1.32539,0.17084 v 0 c -0.0395,-0.30675 -0.0833,-0.61324 -0.10746,-0.92171 -0.0402,-0.41577 -0.0871,-0.83079 -0.13896,-1.24527 -0.0401,-0.38281 -0.0649,-0.76741 -0.084,-1.15181 0,-0.25795 0,-0.51591 0,-0.77387 0,-2.83482 1.33635,-2.83482 1.33635,0 z"
       inkscape:connector-curvature="0" />
    <path
       style="opacity:1;fill:#000000;fill-opacity:1;fill-rule:nonzero;stroke:#000000;stroke-width:0.1;stroke-linecap:round;stroke-linejoin:round;stroke-miterlimit:4;stroke-dasharray:none;stroke-dashoffset:0;stroke-opacity:1;paint-order:markers fill stroke"
       id="path6609"
       d="m 211.79918,151.12619 c 0,0.25796 0,0.51592 0,0.77387 0.01,0.3761 -0.009,0.75101 -0.0342,1.12606 -0.19167,2.82834 -1.52496,2.73798 -1.33329,-0.0904 v 0 c 0.0234,-0.34503 0.041,-0.68967 0.0311,-1.03571 0,-0.25795 0,-0.51591 0,-0.77387 0,-2.83482 1.33635,-2.83482 1.33635,0 z"
       inkscape:connector-curvature="0" />
    <path
       style="opacity:1;fill:#000000;fill-opacity:1;fill-rule:nonzero;stroke:#000000;stroke-width:0.1;stroke-linecap:round;stroke-linejoin:round;stroke-miterlimit:4;stroke-dasharray:none;stroke-dashoffset:0;stroke-opacity:1;paint-order:markers fill stroke"
       id="path6611"
       d="m 211.79918,161.54971 c 0,0.25795 0,0.51591 0,0.77386 -0.0101,0.34562 0.0206,0.69005 0.0446,1.03445 0.19703,2.82796 -1.13609,2.92084 -1.33312,0.0929 v 0 c -0.0261,-0.37529 -0.0578,-0.75073 -0.0478,-1.12733 0,-0.25795 0,-0.51591 0,-0.77386 0,-2.83483 1.33635,-2.83483 1.33635,0 z"
       inkscape:connector-curvature="0" />
    <path
       style="opacity:1;fill:#000000;fill-opacity:1;fill-rule:nonzero;stroke:#000000;stroke-width:0.1;stroke-linecap:round;stroke-linejoin:round;stroke-miterlimit:4;stroke-dasharray:none;stroke-dashoffset:0;stroke-opacity:1;paint-order:markers fill stroke"
       id="path6613"
       d="m 212.06645,173.8441 c 0,0.25796 0,0.51592 0,0.77387 0,0.3603 0,0.72059 0,1.08088 0.005,0.21562 -0.009,0.43097 -0.0206,0.6461 -0.15894,2.83036 -1.49318,2.75544 -1.33424,-0.0749 v 0 c 0.0108,-0.19017 0.0242,-0.38052 0.0185,-0.57117 0,-0.36029 0,-0.72058 0,-1.08088 0,-0.25795 0,-0.51591 0,-0.77387 0,-2.83482 1.33635,-2.83482 1.33635,0 z"
       inkscape:connector-curvature="0" />
    <path
       style="opacity:1;fill:#000000;fill-opacity:1;fill-rule:nonzero;stroke:#000000;stroke-width:0.1;stroke-linecap:round;stroke-linejoin:round;stroke-miterlimit:4;stroke-dasharray:none;stroke-dashoffset:0;stroke-opacity:1;paint-order:markers fill stroke"
       id="path6615"
       d="m 212.06645,186.94031 c 0,0.25796 0,0.51591 0,0.77387 0,0.36029 0,0.72059 0,1.08088 0,0.20288 0,0.40575 0,0.60863 0,2.83482 -1.33635,2.83482 -1.33635,0 v 0 c 0,-0.20288 0,-0.40575 0,-0.60863 0,-0.36029 0,-0.72059 0,-1.08088 0,-0.25796 0,-0.51591 0,-0.77387 0,-2.83482 1.33635,-2.83482 1.33635,0 z"
       inkscape:connector-curvature="0" />
    <path
       style="opacity:1;fill:#000000;fill-opacity:1;fill-rule:nonzero;stroke:#000000;stroke-width:0.1;stroke-linecap:round;stroke-linejoin:round;stroke-miterlimit:4;stroke-dasharray:none;stroke-dashoffset:0;stroke-opacity:1;paint-order:markers fill stroke"
       id="path6617"
       d="m 212.33372,197.09655 c 0,0.25796 0,0.51592 0,0.77387 0,0.055 0,0.10993 0,0.1649 0,2.83482 -1.33635,2.83482 -1.33635,0 v 0 c 0,-0.055 0,-0.10993 0,-0.1649 0,-0.25795 0,-0.51591 0,-0.77387 0,-2.83482 1.33635,-2.83482 1.33635,0 z"
       inkscape:connector-curvature="0" />
    <path
       style="opacity:1;fill:#000000;fill-opacity:1;fill-rule:nonzero;stroke:#000000;stroke-width:0.1;stroke-linecap:round;stroke-linejoin:round;stroke-miterlimit:4;stroke-dasharray:none;stroke-dashoffset:0;stroke-opacity:1;paint-order:markers fill stroke"
       id="path6619"
       d="m 212.85363,205.4764 c -0.033,0.24265 -0.053,0.48678 -0.0718,0.73086 -0.0189,0.27946 -0.0408,0.55888 -0.041,0.83907 -0.0153,2.83478 -1.35166,2.82755 -1.33632,-0.007 v 0 c 0.003,-0.31214 0.0217,-0.62353 0.045,-0.9348 0.0211,-0.27284 0.0439,-0.54571 0.0813,-0.81689 0.40091,-2.80633 1.72383,-2.61734 1.32292,0.18899 z"
       inkscape:connector-curvature="0" />
    <path
       style="opacity:1;fill:#000000;fill-opacity:1;fill-rule:nonzero;stroke:#000000;stroke-width:0.1;stroke-linecap:round;stroke-linejoin:round;stroke-miterlimit:4;stroke-dasharray:none;stroke-dashoffset:0;stroke-opacity:1;paint-order:markers fill stroke"
       id="path6621"
       d="m 212.86826,213.66726 c 0,0.25796 0,0.51591 0,0.77387 0,0.3603 0,0.72059 0,1.08088 0,0.0662 0,0.13241 0,0.19861 0,2.83482 -1.33635,2.83482 -1.33635,0 v 0 c 0,-0.0662 0,-0.1324 0,-0.19861 0,-0.36029 0,-0.72058 0,-1.08088 0,-0.25796 0,-0.51591 0,-0.77387 0,-2.83482 1.33635,-2.83482 1.33635,0 z"
       inkscape:connector-curvature="0" />
    <path
       style="opacity:1;fill:#000000;fill-opacity:1;fill-rule:nonzero;stroke:#000000;stroke-width:0.1;stroke-linecap:round;stroke-linejoin:round;stroke-miterlimit:4;stroke-dasharray:none;stroke-dashoffset:0;stroke-opacity:1;paint-order:markers fill stroke"
       id="path6625"
       d="m 213.4028,223.93088 c 0,0.25796 0,0.51592 0,0.77388 0,0.36029 0,0.72058 0,1.08088 0,0.0662 0,0.1324 0,0.1986 0,2.83482 -1.33635,2.83482 -1.33635,0 v 0 c 0,-0.0662 0,-0.1324 0,-0.1986 0,-0.3603 0,-0.72059 0,-1.08088 0,-0.25796 0,-0.51592 0,-0.77388 0,-2.83482 1.33635,-2.83482 1.33635,0 z"
       inkscape:connector-curvature="0" />
    <path
       style="opacity:1;fill:#000000;fill-opacity:1;fill-rule:nonzero;stroke:#000000;stroke-width:0.1;stroke-linecap:round;stroke-linejoin:round;stroke-miterlimit:4;stroke-dasharray:none;stroke-dashoffset:0;stroke-opacity:1;paint-order:markers fill stroke"
       id="path6677"
       d="m 64.206531,171.903 c 0.255671,0.0291 0.51077,0.0554 0.768665,0.0594 0.3629,0.0114 0.724429,-0.0363 1.084537,-0.0765 0.393004,-0.0546 0.781108,-0.13688 1.158871,-0.2561 0.403058,-0.11791 0.787277,-0.28638 1.165864,-0.46288 0.390277,-0.17597 0.743842,-0.41395 1.093233,-0.65425 0.378203,-0.26585 0.721737,-0.57191 1.061201,-0.881 0.353683,-0.33013 0.680135,-0.68629 0.995484,-1.04991 0.343816,-0.38152 0.656919,-0.78664 0.969971,-1.19119 0.324067,-0.41694 0.628209,-0.84684 0.933335,-1.27635 0.324103,-0.45196 0.639133,-0.90994 0.972834,-1.35554 0.360616,-0.47888 0.721288,-0.95748 1.105202,-1.41969 0.39765,-0.48692 0.823396,-0.9519 1.240949,-1.42312 0.418873,-0.47341 0.845733,-0.94009 1.277481,-1.40278 0.441498,-0.46019 0.900245,-0.90412 1.373925,-1.33384 0.474674,-0.44697 0.966842,-0.87529 1.478859,-1.28246 0.526075,-0.42008 1.08015,-0.8048 1.641675,-1.17942 0.552298,-0.36651 1.136381,-0.68414 1.72389,-0.99444 0.551922,-0.29339 1.139359,-0.51145 1.738293,-0.69506 0.577347,-0.1681 1.174025,-0.22581 1.772423,-0.24998 0.59487,-0.0174 1.179406,0.0739 1.757352,0.19143 0.607539,0.13295 1.185945,0.35343 1.746553,0.60785 0.606934,0.28691 1.162864,0.65759 1.703481,1.04385 0.578774,0.42009 1.118328,0.8851 1.651555,1.35609 0.57081,0.51431 1.130912,1.03971 1.663226,1.59067 0.551492,0.58714 1.087107,1.18753 1.612456,1.79623 0.542201,0.63557 1.060953,1.28903 1.574106,1.9463 0.531308,0.66281 1.032358,1.34731 1.531678,2.03248 0.48694,0.66493 0.95408,1.34297 1.43653,2.01086 0.46271,0.62365 0.90876,1.25829 1.35978,1.88972 0.40846,0.56844 0.81721,1.13691 1.24493,1.69221 0.3928,0.51147 0.81047,1.00479 1.24035,1.48783 0.40339,0.42973 0.81467,0.85301 1.24988,1.25341 0.39795,0.38033 0.82765,0.72691 1.2749,1.05254 0.42316,0.3004 0.86768,0.57272 1.33114,0.81291 0.39431,0.20282 0.80662,0.36959 1.24119,0.47591 0.38228,0.0928 0.7765,0.12567 1.17047,0.13532 0.38517,-0.005 0.76556,-0.065 1.14057,-0.14851 0.42208,-0.11151 0.83261,-0.25784 1.23729,-0.41799 0.48328,-0.18069 0.93188,-0.42951 1.37818,-0.68076 0.53456,-0.29857 1.05558,-0.61892 1.56811,-0.95116 0.56148,-0.36834 1.09404,-0.77326 1.6249,-1.18055 0.54395,-0.42099 1.06179,-0.87162 1.55456,-1.34669 0.51833,-0.51277 1.01286,-1.04704 1.49721,-1.58917 0.56624,-0.63982 1.12816,-1.2831 1.69095,-1.92568 0.6277,-0.73373 1.23571,-1.48248 1.84602,-2.22938 0.65134,-0.81327 1.29362,-1.63307 1.90728,-2.47267 0.64429,-0.88989 1.26515,-1.79494 1.87821,-2.70455 0.63486,-0.95295 1.25323,-1.9156 1.87676,-2.87529 0.63568,-0.99341 1.27084,-1.98714 1.8935,-2.98802 0.62726,-1.01338 1.23906,-2.03544 1.84354,-3.06124 0.60235,-1.01176 1.18585,-2.03349 1.78615,-3.04631 0.57961,-0.99759 1.19401,-1.97597 1.82621,-2.944 0.63205,-0.96303 1.30633,-1.90011 1.99602,-2.8262 0.67198,-0.9032 1.37989,-1.78099 2.09962,-2.64977 0.71636,-0.83604 1.46885,-1.64301 2.23383,-2.4384 0.71924,-0.76959 1.49445,-1.48723 2.2833,-2.19049 0.72396,-0.64602 1.47567,-1.26185 2.25305,-1.84775 0.67762,-0.50365 1.37772,-0.97785 2.09491,-1.42772 0.64327,-0.40871 1.33113,-0.73913 2.0445,-1.01587 0.65334,-0.25422 1.33531,-0.4123 2.0267,-0.52757 0.65053,-0.0993 1.30632,-0.0941 1.9569,-0.0226 0.63994,0.0688 1.24879,0.26595 1.8452,0.4854 0.63069,0.24103 1.2123,0.57606 1.77445,0.93578 0.58831,0.39154 1.13933,0.8318 1.66469,1.29717 0.55831,0.50806 1.07152,1.05834 1.57209,1.61811 0.5393,0.60201 1.02598,1.24458 1.4966,1.89676 0.48386,0.69869 0.94898,1.40925 1.38601,2.13594 0.45388,0.77059 0.85748,1.5668 1.24951,2.36789 0.42042,0.85935 0.75444,1.75458 1.08122,2.65022 0.33318,0.95593 0.61777,1.92661 0.87993,2.90296 0.27134,1.01541 0.49844,2.04153 0.70139,3.07194 0.20536,1.09845 0.3671,2.2038 0.50043,3.31289 0.14475,1.16909 0.22791,2.34445 0.3159,3.5189 0.0829,1.22813 0.14775,2.45756 0.20618,3.6872 0.0656,1.27247 0.11509,2.54564 0.15175,3.81945 0.0462,1.32149 0.0713,2.64374 0.0822,3.96625 0.008,1.34582 0.009,2.69172 0.0152,4.03757 0.009,1.3564 0.0204,2.71273 0.0336,4.06905 0.0106,1.36508 0.0378,2.72967 0.0639,4.09436 0.0331,1.34281 0.0663,2.6856 0.11839,4.02768 0.0569,1.32256 0.11846,2.64476 0.20401,3.96562 0.0897,1.30024 0.21286,2.59771 0.35155,3.89341 0.13336,1.26499 0.33946,2.5208 0.55782,3.77361 0.20204,1.19949 0.45798,2.38926 0.75258,3.56993 0.28349,1.14304 0.62127,2.27203 0.9854,3.39289 0.34924,1.07335 0.77274,2.12152 1.21939,3.15973 0.42685,0.99217 0.90987,1.96079 1.44133,2.90439 0.49379,0.87168 1.04546,1.71066 1.64069,2.521 0.55849,0.75066 1.18002,1.45375 1.83941,2.12382 0.59599,0.62478 1.25641,1.18623 1.93862,1.72238 0.61885,0.47651 1.26967,0.91546 1.95117,1.30642 0.61955,0.36058 1.28273,0.63782 1.95995,0.88318 0.63187,0.21771 1.28372,0.3745 1.94572,0.48463 0.64056,0.11686 1.29156,0.14124 1.94295,0.12264 0.67114,-0.0299 1.33561,-0.13379 1.99451,-0.25939 0.69226,-0.13763 1.3653,-0.35442 2.02505,-0.5977 0.70872,-0.265 1.39219,-0.58729 2.06425,-0.92869 0.71682,-0.36652 1.41369,-0.76774 2.10133,-1.1825 0.71601,-0.43284 1.41258,-0.89391 2.09427,-1.37493 0.69594,-0.49141 1.37845,-1.00019 2.05121,-1.52044 0.67453,-0.52579 1.32688,-1.0765 1.97321,-1.63365 0.63029,-0.54274 1.22657,-1.1195 1.8229,-1.69586 0.54752,-0.54447 1.06326,-1.11766 1.5668,-1.69939 0.44762,-0.53465 0.88256,-1.07901 1.29827,-1.63667 0.25297,-0.34073 0.48555,-0.69437 0.71391,-1.05032 1.55861,-2.42779 2.74623,-1.73618 1.18762,0.69161 v 0 c -0.24567,0.3824 -0.49585,0.7623 -0.76795,1.12834 -0.43581,0.58399 -0.89098,1.15463 -1.36064,1.71421 -0.53047,0.61231 -1.07355,1.21582 -1.651,1.78831 -0.61535,0.59476 -1.23117,1.18944 -1.8816,1.74944 -0.66525,0.57335 -1.33681,1.13995 -2.03114,1.68094 -0.68917,0.53265 -1.38801,1.05396 -2.10087,1.55713 -0.7096,0.50049 -1.43457,0.98039 -2.17982,1.43077 -0.71764,0.43243 -1.44465,0.85113 -2.19277,1.23318 -0.72272,0.36624 -1.45737,0.71241 -2.21949,0.9963 -0.7351,0.26934 -1.48414,0.51026 -2.25538,0.66142 -0.73592,0.13948 -1.47818,0.25394 -2.22779,0.28467 -0.74523,0.0196 -1.49018,-0.009 -2.22306,-0.14215 -0.74746,-0.12659 -1.48435,-0.3021 -2.19737,-0.55075 -0.75397,-0.27408 -1.49189,-0.58503 -2.18197,-0.98637 -0.73764,-0.4262 -1.44561,-0.89868 -2.11537,-1.41737 -0.72711,-0.57226 -1.43097,-1.17155 -2.06707,-1.83735 -0.70357,-0.71631 -1.36765,-1.46716 -1.96338,-2.26947 -0.62545,-0.85355 -1.2073,-1.73581 -1.72625,-2.65368 -0.55294,-0.98424 -1.05807,-1.99315 -1.50237,-3.02779 -0.46204,-1.07467 -0.89992,-2.15974 -1.26119,-3.27077 -0.37304,-1.14929 -0.71949,-2.30683 -1.01005,-3.4788 -0.30138,-1.21048 -0.56466,-2.42993 -0.77152,-3.65959 -0.22323,-1.28053 -0.43339,-2.56419 -0.56957,-3.85716 -0.14043,-1.31348 -0.26527,-2.62872 -0.35613,-3.94677 -0.0862,-1.33191 -0.1484,-2.66515 -0.20573,-3.99875 -0.0524,-1.35047 -0.0863,-2.70165 -0.11912,-4.05286 -0.0257,-1.36867 -0.0533,-2.73722 -0.064,-4.10625 -0.0132,-1.35864 -0.0245,-2.71729 -0.0337,-4.076 -0.006,-1.3442 -0.007,-2.68845 -0.0152,-4.03261 -0.0108,-1.31376 -0.0359,-2.62726 -0.0817,-3.94002 -0.0365,-1.26583 -0.0856,-2.531 -0.15075,-3.79548 -0.0578,-1.21806 -0.12219,-2.43587 -0.20406,-3.6524 -0.0865,-1.15544 -0.16738,-2.31188 -0.31026,-3.46197 -0.12885,-1.07752 -0.28665,-2.15122 -0.48547,-3.21842 -0.19714,-1.00205 -0.41804,-1.99987 -0.68174,-2.98732 -0.25227,-0.94024 -0.5261,-1.87503 -0.84607,-2.79584 -0.31113,-0.85319 -0.62806,-1.70647 -1.02802,-2.52526 -0.37546,-0.76767 -0.76178,-1.53078 -1.19601,-2.26951 -0.41767,-0.69561 -0.8636,-1.37497 -1.32548,-2.04416 -0.44346,-0.61496 -0.90154,-1.22123 -1.40983,-1.78887 -0.46612,-0.52162 -0.94348,-1.03482 -1.46266,-1.50904 -0.47098,-0.4197 -0.96768,-0.81415 -1.49466,-1.16846 -0.47666,-0.30651 -0.9691,-0.59354 -1.5035,-0.80099 -0.48793,-0.18116 -0.98532,-0.34812 -1.50951,-0.40569 -0.51605,-0.0613 -1.03702,-0.0622 -1.55382,0.0122 -0.59365,0.0977 -1.17905,0.23113 -1.74001,0.44936 -0.62842,0.24169 -1.2328,0.53358 -1.79893,0.89295 -0.68307,0.42814 -1.34965,0.87974 -1.99513,1.35904 -0.74691,0.56212 -1.46807,1.15431 -2.16355,1.77435 -0.76238,0.67943 -1.51182,1.37251 -2.20641,2.11653 -0.74153,0.77075 -1.47081,1.55279 -2.16594,2.36236 -0.70478,0.85061 -1.39807,1.70997 -2.05606,2.59436 -0.67324,0.90365 -1.33126,1.81811 -1.94827,2.75779 -0.62162,0.95159 -1.22555,1.91352 -1.79529,2.8943 -0.59976,1.01182 -1.18255,2.03265 -1.78439,3.04337 -0.61002,1.03505 -1.22729,2.06637 -1.86027,3.08886 -0.62741,1.00832 -1.26713,2.00955 -1.90769,3.01032 -0.62766,0.96603 -1.25016,1.93507 -1.88934,2.8943 -0.62274,0.92393 -1.25349,1.84319 -1.90804,2.74703 -0.62844,0.85899 -1.28495,1.69857 -1.95204,2.53053 -0.62018,0.75899 -1.23803,1.51984 -1.87628,2.26515 -0.5658,0.64604 -1.13074,1.29278 -1.70004,1.93598 -0.50747,0.56782 -1.0257,1.12739 -1.56928,1.66396 -0.53103,0.51055 -1.08743,0.99636 -1.67334,1.44884 -0.56065,0.43012 -1.12389,0.85686 -1.71705,1.24557 -0.5376,0.3479 -1.08352,0.6842 -1.64403,0.99705 -0.50333,0.28312 -1.01111,0.5603 -1.55535,0.76508 -0.47667,0.18799 -0.96073,0.3595 -1.45913,0.48571 -0.49131,0.1071 -0.99008,0.18272 -1.49431,0.18233 -0.49992,-0.0149 -0.99967,-0.0581 -1.48424,-0.17851 -0.54062,-0.13878 -1.05925,-0.33639 -1.55021,-0.5933 -0.52385,-0.27417 -1.02915,-0.5798 -1.50725,-0.92209 -0.48873,-0.35697 -0.95943,-0.7355 -1.39517,-1.15124 -0.46733,-0.43121 -0.91098,-0.88512 -1.34331,-1.34848 -0.45043,-0.50678 -0.88865,-1.02385 -1.30035,-1.56031 -0.43698,-0.56802 -0.8557,-1.14871 -1.27305,-1.73012 -0.4497,-0.62958 -0.89442,-1.26239 -1.35581,-1.88418 -0.48117,-0.66645 -0.94761,-1.34268 -1.433178,-2.00625 -0.490729,-0.67342 -0.983012,-1.34628 -1.505354,-1.99759 -0.499757,-0.64018 -1.004877,-1.27674 -1.532749,-1.89593 -0.509167,-0.59008 -1.028361,-1.17205 -1.562538,-1.74153 -0.506571,-0.52599 -1.042304,-1.0252 -1.585549,-1.51634 -0.498362,-0.44026 -1.001753,-0.87589 -1.542282,-1.26912 -0.467473,-0.33506 -0.947282,-0.65824 -1.471093,-0.90955 -0.462132,-0.21188 -0.939496,-0.3947 -1.440181,-0.50832 -0.463913,-0.0946 -0.931889,-0.17479 -1.409711,-0.16333 -0.473561,0.0179 -0.945861,0.0576 -1.403921,0.18761 -0.511923,0.1554 -1.013887,0.34074 -1.485452,0.59093 -0.544446,0.28713 -1.086009,0.58058 -1.598053,0.91954 -0.528932,0.35272 -1.051208,0.71444 -1.546639,1.11016 -0.488541,0.38789 -0.956695,0.79743 -1.409404,1.2235 -0.445306,0.40354 -0.876152,0.82076 -1.291558,1.25266 -0.423745,0.45396 -0.842581,0.91194 -1.253605,1.37651 -0.408049,0.4604 -0.824206,0.91463 -1.212819,1.39038 -0.369781,0.44417 -0.715265,0.90555 -1.062639,1.36578 -0.327286,0.43595 -0.634488,0.88528 -0.95235,1.32748 -0.315943,0.44458 -0.631148,0.88936 -0.966487,1.32103 -0.328889,0.42482 -0.65816,0.84995 -1.018932,1.2509 -0.35121,0.40386 -0.714276,0.79975 -1.108698,1.16578 -0.386628,0.35196 -0.779823,0.69845 -1.211389,1.00001 -0.415113,0.28516 -0.837656,0.56345 -1.300828,0.77266 -0.437442,0.20262 -0.881092,0.39602 -1.346112,0.53239 -0.466978,0.14351 -0.944493,0.24982 -1.430106,0.31284 -0.423786,0.0473 -0.849321,0.0988 -1.276263,0.0851 -0.288362,-0.007 -0.57486,-0.0291 -0.860661,-0.0642 -2.948338,-0.24727 -2.812075,-1.57938 0.136267,-1.33213 z"
       inkscape:connector-curvature="0" />
    <path
       style="opacity:1;fill:#000000;fill-opacity:1;fill-rule:nonzero;stroke:#000000;stroke-width:0.09999999;stroke-linecap:round;stroke-linejoin:round;stroke-miterlimit:4;stroke-dasharray:none;stroke-dashoffset:0;stroke-opacity:1;paint-order:markers fill stroke"
       id="path6693"
       d="m 158.68077,132.45599 c -0.006,0.31514 -0.135,0.58437 -0.3617,0.81822 -0.43507,0.33523 -0.93303,0.24187 -1.28331,-0.137 -0.19934,-0.30168 -0.1922,-0.61709 -0.0722,-0.94064 0.1646,-0.32393 0.45758,-0.50112 0.82609,-0.59303 0.37968,-0.0709 0.71693,0.0424 1.02617,0.23464 0.33509,0.23567 0.47475,0.55243 0.47969,0.9283 -0.0522,0.40854 -0.33287,0.67307 -0.72475,0.84751 -0.39365,0.1364 -0.76126,0.0852 -1.11829,-0.10369 -0.3174,-0.21572 -0.45063,-0.52874 -0.51089,-0.87168 -0.055,-0.40148 0.10454,-0.72883 0.42385,-0.99973 0.33478,-0.22895 0.70503,-0.25435 1.09723,-0.15496 0.36518,0.13628 0.58315,0.40188 0.72631,0.72329 0.13959,0.40842 -0.0176,0.75055 -0.3354,1.0406 -0.29567,0.2108 -0.63919,0.26904 -1.00598,0.24088 -0.39242,-0.0449 -0.67962,-0.23243 -0.91417,-0.50957 -0.20383,-0.30124 -0.23408,-0.62657 -0.16077,-0.96598 0.11944,-0.3704 0.41659,-0.59911 0.79434,-0.74754 0.36254,-0.12147 0.71639,-0.0886 1.07089,0.0324 0.35903,0.14841 0.59787,0.40496 0.77632,0.71487 0.17697,0.36962 0.12155,0.72624 -0.0832,1.07182 -0.23714,0.31086 -0.58149,0.45775 -0.98248,0.51202 -0.42268,0.0183 -0.74761,-0.16152 -1.00384,-0.44964 -0.22247,-0.28601 -0.26666,-0.60804 -0.22524,-0.94743 0.0526,-0.38114 0.26167,-0.67135 0.58484,-0.90896 0.37343,-0.20468 0.77262,-0.21441 1.18317,-0.11545 0.38708,0.1252 0.64228,0.37294 0.81943,0.699 0.12995,0.35584 0.0558,0.69473 -0.11903,1.02305 -0.19011,0.30053 -0.48965,0.49767 -0.82506,0.64913 -0.35214,0.14642 -0.71685,0.13875 -1.08334,0.0529 -0.36511,-0.11262 -0.62103,-0.34218 -0.80782,-0.63955 -0.0985,-0.16582 -0.1103,-0.33658 -0.11513,-0.51981 0.12071,-2.56487 1.45584,-2.51334 1.33513,0.0515 v 0 c -0.008,-0.0388 -0.009,-0.07 -0.0393,-0.0985 8e-4,0.0118 -0.007,0.0268 0.005,0.0456 0.0417,0.0245 0.0774,0.0294 0.12574,0.0174 0.0798,-0.0313 0.15398,-0.0686 0.22064,-0.11986 0.0493,-0.0523 0.0245,-0.0859 0.0703,0.005 0.0595,0.0665 0.0237,0.0187 0.021,-0.009 -0.0358,-0.028 -0.0795,-0.007 -0.0112,-0.0585 0.0667,-0.0964 -0.0705,0.0379 -0.0416,0.0974 -0.0177,0.0231 -0.0248,0.0341 -0.0238,0.0558 -0.0646,-0.0343 -0.13099,-0.0538 -0.20686,-0.0339 -0.0377,0.0293 0.0201,0.009 -0.0287,0.0723 -7e-5,0.0185 -0.001,0.10414 0.0253,0.0693 -0.0174,-0.0431 -0.0411,-0.0851 -0.0821,-0.11844 -0.0188,-0.0292 -0.006,-0.0273 -0.0584,-0.0284 0.002,-0.0291 -0.006,-0.0593 0.003,-0.0873 -0.0208,-0.0559 5.3e-4,-0.002 -0.0281,0.004 -0.0149,-0.0115 -0.0925,-0.0637 -0.063,-0.0198 0.0422,0.006 0.0215,0.0158 -0.003,0.0502 -0.0646,0.0831 -0.10361,0.18787 -0.0444,0.28445 0.0142,-9.1e-4 0.0489,-0.0222 0.0912,0.008 0.0819,0.007 0.14687,7.1e-4 0.20069,-0.0609 0.0203,-0.0289 0.0777,-0.18697 0.0397,-0.10224 0.01,0.0832 0.0147,0.0849 -0.0602,0.0455 -0.0827,-0.0285 -0.14179,-0.0397 -0.17348,-0.002 -0.041,0.0637 -0.0803,0.1171 -0.0692,0.19622 0.004,0.0166 0.0582,0.17514 0.0614,0.10849 0.0121,-0.007 0.0596,-0.0226 0.054,-0.0264 0.0654,-0.0283 0.11159,-0.0707 0.12686,-0.13703 0.0131,-0.0823 -2.7e-4,-0.12008 -0.0564,-0.18376 -0.21825,-0.19719 -0.53378,-0.26244 -0.76957,-0.0491 -0.0509,0.0647 -0.0794,0.15039 -0.0328,0.0403 0,-2.56719 1.33635,-2.56719 1.33635,0 z"
       inkscape:connector-curvature="0" />
    <path
       style="opacity:1;fill:#000000;fill-opacity:1;fill-rule:nonzero;stroke:#000000;stroke-width:0.1;stroke-linecap:round;stroke-linejoin:round;stroke-miterlimit:4;stroke-dasharray:none;stroke-dashoffset:0;stroke-opacity:1;paint-order:markers fill stroke"
       id="path6693-9"
       d="m 89.277125,156.48692 c -0.0053,0.26318 -0.118195,0.48801 -0.316676,0.6833 -0.380912,0.27996 -0.816886,0.202 -1.123564,-0.11441 -0.174526,-0.25194 -0.168275,-0.51534 -0.06321,-0.78554 0.14411,-0.27052 0.40062,-0.4185 0.723258,-0.49525 0.332418,-0.0592 0.627687,0.0354 0.898433,0.19595 0.293378,0.19681 0.415653,0.46135 0.419978,0.77524 -0.0457,0.34118 -0.291434,0.56209 -0.634533,0.70778 -0.344649,0.11391 -0.666499,0.0712 -0.979086,-0.0866 -0.27789,-0.18015 -0.394535,-0.44156 -0.447294,-0.72796 -0.04815,-0.33528 0.09153,-0.60866 0.371089,-0.83489 0.293107,-0.1912 0.617268,-0.21241 0.960647,-0.12941 0.319723,0.1138 0.51056,0.33561 0.635899,0.60403 0.122214,0.34108 -0.01541,0.6268 -0.293649,0.86903 -0.258865,0.17604 -0.559624,0.22468 -0.880756,0.20116 -0.343572,-0.0375 -0.595021,-0.19411 -0.800374,-0.42555 -0.178458,-0.25157 -0.204942,-0.52326 -0.140758,-0.80671 0.104572,-0.30933 0.364733,-0.50033 0.695461,-0.62428 0.317411,-0.10144 0.627214,-0.074 0.937586,0.0271 0.314338,0.12394 0.523447,0.33819 0.679684,0.597 0.154941,0.30868 0.106419,0.6065 -0.07284,0.8951 -0.207621,0.25961 -0.509107,0.38228 -0.860182,0.4276 -0.370065,0.0153 -0.654547,-0.13489 -0.878882,-0.37551 -0.194777,-0.23885 -0.233466,-0.50778 -0.197202,-0.79122 0.04605,-0.31829 0.229097,-0.56065 0.512039,-0.75909 0.326946,-0.17092 0.676445,-0.17905 1.035889,-0.0964 0.338897,0.10456 0.56233,0.31145 0.717428,0.58375 0.113774,0.29717 0.04885,0.58019 -0.104213,0.85437 -0.166445,0.25098 -0.428699,0.41561 -0.722357,0.5421 -0.308306,0.12228 -0.627617,0.11588 -0.948486,0.0442 -0.319661,-0.094 -0.543724,-0.28576 -0.707263,-0.5341 -0.08624,-0.13848 -0.09657,-0.28109 -0.100799,-0.4341 0.105685,-2.14197 1.274618,-2.09894 1.168934,0.043 v 0 c -0.007,-0.0325 -0.0079,-0.0585 -0.03441,-0.0823 7e-4,0.01 -0.0061,0.0224 0.0044,0.0381 0.03651,0.0205 0.06777,0.0246 0.110087,0.0145 0.06987,-0.0262 0.134813,-0.0573 0.193175,-0.10009 0.04316,-0.0437 0.02145,-0.0718 0.06155,0.005 0.05209,0.0555 0.02075,0.0156 0.01839,-0.008 -0.03134,-0.0234 -0.0696,-0.006 -0.0098,-0.0489 0.0584,-0.0805 -0.06172,0.0317 -0.03642,0.0814 -0.0155,0.0193 -0.02171,0.0284 -0.02084,0.0466 -0.05656,-0.0287 -0.114684,-0.0449 -0.18111,-0.0283 -0.03301,0.0244 0.0176,0.008 -0.02513,0.0603 -6.1e-5,0.0154 -8.76e-4,0.087 0.02215,0.0579 -0.01524,-0.036 -0.03598,-0.0711 -0.07188,-0.0989 -0.01646,-0.0243 -0.0053,-0.0228 -0.05113,-0.0237 0.0018,-0.0243 -0.0053,-0.0495 0.0026,-0.0729 -0.01821,-0.0467 4.65e-4,-0.002 -0.0246,0.003 -0.01305,-0.01 -0.08098,-0.0532 -0.05516,-0.0166 0.03695,0.005 0.01882,0.0132 -0.0026,0.0419 -0.05656,0.0694 -0.09071,0.15689 -0.03887,0.23755 0.01243,-7.6e-4 0.04281,-0.0185 0.07985,0.007 0.07171,0.006 0.128588,6.1e-4 0.175709,-0.0508 0.01777,-0.0241 0.06803,-0.15614 0.03476,-0.0854 0.0088,0.0695 0.01287,0.0709 -0.05271,0.038 -0.07241,-0.0238 -0.12414,-0.0332 -0.151885,-0.002 -0.0359,0.0532 -0.0703,0.0978 -0.06059,0.16386 0.0035,0.0138 0.05096,0.14626 0.05376,0.0906 0.01059,-0.006 0.05218,-0.0189 0.04728,-0.022 0.05726,-0.0237 0.0977,-0.0591 0.111069,-0.11444 0.01147,-0.0687 -2.37e-4,-0.10028 -0.04938,-0.15346 -0.191082,-0.16467 -0.467335,-0.21916 -0.673774,-0.041 -0.04456,0.054 -0.06952,0.12559 -0.02872,0.0336 0,-2.14391 1.170002,-2.14391 1.170002,0 z"
       inkscape:connector-curvature="0" />
    <path
       style="opacity:1;fill:#000000;fill-opacity:1;fill-rule:nonzero;stroke:#000000;stroke-width:0.1;stroke-linecap:round;stroke-linejoin:round;stroke-miterlimit:4;stroke-dasharray:none;stroke-dashoffset:0;stroke-opacity:1;paint-order:markers fill stroke"
       id="path6693-5"
       d="m 189.23666,217.78862 c 0.1987,-0.18974 0.44646,-0.27306 0.73327,-0.27314 0.48008,0.0695 0.7341,0.44165 0.7188,0.89554 -0.062,0.31109 -0.26182,0.50004 -0.53732,0.62263 -0.30371,0.0946 -0.59692,0.018 -0.88462,-0.15865 -0.28169,-0.1966 -0.42276,-0.47931 -0.49731,-0.79282 -0.0639,-0.35645 0.0448,-0.63905 0.27452,-0.87271 0.28575,-0.21754 0.62533,-0.20233 0.97878,-0.0615 0.331,0.16527 0.52953,0.42911 0.63609,0.77077 0.0651,0.33302 -0.0453,0.60926 -0.21993,0.85771 -0.21418,0.28107 -0.51683,0.38096 -0.8846,0.34517 -0.35145,-0.0713 -0.59904,-0.28983 -0.78311,-0.5988 -0.14429,-0.31451 -0.11629,-0.61525 -0.007,-0.90292 0.16554,-0.33878 0.47589,-0.4492 0.85452,-0.42616 0.31573,0.0576 0.56692,0.23917 0.77919,0.48839 0.21789,0.27574 0.28164,0.57233 0.25689,0.89062 -0.0589,0.31366 -0.24147,0.53234 -0.49759,0.69416 -0.30421,0.15167 -0.63194,0.10404 -0.96044,-0.0438 -0.30226,-0.15476 -0.50349,-0.39869 -0.65053,-0.6971 -0.13292,-0.31806 -0.1236,-0.62644 -0.0434,-0.92938 0.11811,-0.33861 0.37368,-0.52229 0.7159,-0.60482 0.34105,-0.0408 0.64766,0.0869 0.93238,0.30722 0.27601,0.25611 0.36816,0.57183 0.35016,0.91058 -0.0378,0.3161 -0.20957,0.54155 -0.44572,0.72354 -0.26898,0.20052 -0.57966,0.2463 -0.92921,0.18769 -0.36061,-0.11061 -0.61663,-0.35707 -0.81244,-0.67738 -0.16487,-0.32156 -0.17124,-0.63489 -0.0802,-0.94691 0.13899,-0.30043 0.3953,-0.46143 0.70814,-0.55222 0.30519,-0.0641 0.61487,0.004 0.91872,0.12362 0.31122,0.13287 0.53486,0.3682 0.71119,0.65262 0.15888,0.29998 0.17699,0.60259 0.10979,0.90311 -0.0409,0.16401 -0.13936,0.27622 -0.24984,0.39163 -1.66411,1.49683 -2.46832,0.62096 -0.80421,-0.87588 v 0 c -0.0192,0.0289 -0.0377,0.0486 -0.0364,0.0853 0.007,-0.008 0.0208,-0.0122 0.0255,-0.0308 -0.0109,-0.0414 -0.0303,-0.067 -0.068,-0.0901 -0.0694,-0.0313 -0.13892,-0.0553 -0.21241,-0.066 -0.0633,8.3e-4 -0.0686,0.0372 -0.0405,-0.048 0.004,-0.0784 -0.003,-0.0264 -0.0188,-0.008 0.005,0.0398 0.0456,0.0545 -0.0292,0.043 -0.10149,0.0169 0.0676,0.0212 0.0864,-0.0335 0.0253,-0.003 0.0367,-0.005 0.0495,-0.0191 0.0192,0.0619 0.0487,0.11583 0.10858,0.15156 0.0417,0.005 -0.007,-0.0184 0.0627,-0.0262 0.0115,-0.0113 0.0651,-0.0632 0.0271,-0.0585 -0.0158,0.0375 -0.027,0.0782 -0.0219,0.12458 -0.006,0.0297 -0.0134,0.0203 0.019,0.0544 -0.0194,0.0164 -0.0332,0.0399 -0.0562,0.0514 -0.0216,0.0474 -0.002,9.3e-4 0.0197,0.0157 0.002,0.0165 0.0185,0.0975 0.0272,0.0521 -0.0221,-0.031 -0.004,-0.0233 0.0332,-0.0286 0.092,-0.0102 0.18123,-0.0497 0.20396,-0.14641 -0.01,-0.008 -0.0443,-0.0173 -0.0522,-0.0626 -0.047,-0.056 -0.0916,-0.0933 -0.1634,-0.0896 -0.0307,0.005 -0.1645,0.0655 -0.0881,0.0376 0.0453,-0.0575 0.0433,-0.0614 0.0659,0.0103 0.0341,0.0698 0.0641,0.11407 0.10722,0.1111 0.0652,-0.0132 0.12283,-0.021 0.16486,-0.0766 0.007,-0.013 0.072,-0.14423 0.0288,-0.10535 -0.0119,-0.003 -0.0513,-0.0238 -0.0502,-0.018 -0.0585,-0.0239 -0.11372,-0.0271 -0.16432,0.003 -0.0593,0.0422 -0.0742,0.0738 -0.0785,0.14838 0.0146,0.25895 0.17175,0.4985 0.45153,0.51676 0.072,-0.008 0.1429,-0.042 0.0455,-0.004 -1.58996,1.57458 -2.42684,0.72954 -0.83688,-0.84505 z"
       inkscape:connector-curvature="0" />
    <path
       style="opacity:1;fill:#da03ae;fill-opacity:1;fill-rule:nonzero;stroke:#da03ae;stroke-width:0.10000001;stroke-linecap:round;stroke-linejoin:round;stroke-miterlimit:4;stroke-dasharray:none;stroke-dashoffset:0;stroke-opacity:1;paint-order:markers fill stroke"
       id="path6679"
       d="m 112.15256,121.22123 c 0.26602,0.0389 0.52958,0.0961 0.78934,0.16399 0.31112,0.0904 0.62201,0.1814 0.93423,0.26816 0.35381,0.0977 0.70951,0.18873 1.06559,0.2782 0.38095,0.0977 0.76284,0.18969 1.14989,0.26117 0.41579,0.07 0.82955,0.15239 1.24693,0.21305 0.46798,0.059 0.93401,0.13255 1.40242,0.18804 0.5312,0.0573 1.06163,0.12042 1.59122,0.19048 0.58526,0.0782 1.16857,0.16925 1.75134,0.26325 0.6354,0.10368 1.26942,0.21527 1.90296,0.32926 0.66693,0.12028 1.33286,0.2457 1.99855,0.37232 0.68924,0.13155 1.37782,0.26636 2.06622,0.40202 0.70399,0.13893 1.4075,0.28009 2.11091,0.42174 0.69909,0.14058 1.39773,0.2832 2.0964,0.42574 0.67214,0.13759 1.3443,0.27518 2.01627,0.41363 0.64468,0.13271 1.28917,0.26627 1.93367,0.39984 0.62699,0.11671 1.25662,0.21945 1.88522,0.3275 0.61579,0.11577 1.23663,0.20153 1.85689,0.29049 0.60622,0.0862 1.21117,0.18068 1.8157,0.27749 0.56931,0.0915 1.13767,0.18841 1.7057,0.28712 0.53625,0.0935 1.07177,0.19088 1.60704,0.28957 0.52288,0.0931 1.04252,0.20325 1.56652,0.29013 0.52015,0.08 1.04077,0.15702 1.56073,0.23816 0.52652,0.0824 1.05179,0.17207 1.57679,0.26316 0.51448,0.0896 1.02823,0.18316 1.54175,0.27791 0.49907,0.0923 0.99763,0.18733 1.49599,0.28326 0.48856,0.0937 0.97653,0.1901 1.46449,0.2867 0.48117,0.0957 0.96223,0.19201 1.44315,0.28899 0.47632,0.0965 0.95264,0.19294 1.42871,0.2906 0.4731,0.0967 0.94602,0.19422 1.41895,0.29175 0.46589,0.0925 0.92885,0.19951 1.39669,0.28226 0.47077,0.0767 0.94219,0.14951 1.41298,0.22602 0.4664,0.0785 0.93723,0.12894 1.40641,0.18892 0.47179,0.0624 0.94217,0.13248 1.41537,0.1841 0.48097,0.0496 0.9611,0.10628 1.44064,0.16762 0.47956,0.0618 0.95781,0.13283 1.43561,0.20644 0.47541,0.0737 0.94979,0.1534 1.42381,0.23505 0.47247,0.0816 0.94419,0.16728 1.41566,0.25418 0.47047,0.087 0.94039,0.17664 1.41015,0.26709 0.4691,0.0905 0.93782,0.18288 1.40642,0.27577 0.46817,0.093 0.93608,0.18713 1.40392,0.28164 0.46754,0.0946 0.93487,0.19009 1.40223,0.28557 0.46717,0.0954 0.93416,0.19173 1.40114,0.28801 0.47748,0.0958 0.94698,0.22551 1.41796,0.3474 0.45876,0.11896 0.91873,0.23337 1.37911,0.34617 0.46069,0.11261 0.92229,0.22157 1.38417,0.32943 0.46249,0.1079 0.92561,0.21318 1.38886,0.31786 0.46375,0.10451 0.92784,0.20759 1.39206,0.31007 0.46463,0.10202 0.92928,0.20406 1.39423,0.30472 0.46504,0.10122 0.93028,0.2016 1.3957,0.30112 0.46556,0.0996 0.93113,0.1991 1.39668,0.29865 0.46567,0.0996 0.93152,0.19831 1.39737,0.29702 0.46592,0.0987 0.93183,0.19748 1.39774,0.29621 0.46601,0.0986 0.93211,0.19664 1.39807,0.29538 0.46608,0.0984 0.93221,0.19647 1.39835,0.29455 0.4587,0.0928 0.91427,0.20091 1.37526,0.28257 0.44507,0.0727 0.89086,0.14113 1.33603,0.21333 0.45637,0.0742 0.91183,0.15345 1.36702,0.23425 0.45965,0.0819 0.91862,0.16718 1.3774,0.25355 0.43644,0.0925 0.87876,0.1515 1.3205,0.21345 0.28655,0.0406 0.57291,0.0824 0.85924,0.12441 2.50107,0.36711 2.32375,1.51788 -0.1773,1.15078 v 0 c -0.2838,-0.0417 -0.56765,-0.0831 -0.85166,-0.12327 -0.46045,-0.0646 -0.9215,-0.12654 -1.37651,-0.22263 -0.45462,-0.0856 -0.90945,-0.17014 -1.36493,-0.25128 -0.44922,-0.0798 -0.89872,-0.158 -1.34911,-0.23121 -0.45196,-0.0732 -0.90459,-0.14249 -1.35638,-0.21679 -0.47269,-0.0853 -0.94072,-0.1931 -1.41102,-0.29008 -0.46624,-0.0982 -0.93246,-0.19654 -1.39871,-0.29463 -0.46623,-0.0984 -0.93248,-0.19672 -1.39862,-0.2955 -0.46623,-0.0986 -0.93238,-0.19759 -1.39858,-0.29638 -0.46625,-0.0988 -0.93251,-0.19761 -1.39859,-0.29727 -0.46615,-0.0997 -0.93232,-0.19935 -1.39849,-0.29904 -0.46612,-0.10056 -0.93244,-0.20027 -1.39838,-0.30168 -0.46615,-0.10146 -0.93231,-0.20292 -1.39818,-0.30565 -0.4661,-0.10323 -0.93225,-0.20629 -1.39794,-0.3113 -0.46622,-0.10504 -0.93215,-0.21134 -1.39754,-0.31986 -0.46612,-0.10893 -0.93198,-0.21888 -1.39694,-0.33246 -0.4655,-0.11406 -0.93057,-0.22981 -1.39446,-0.35003 -0.45143,-0.1169 -0.90134,-0.24175 -1.35899,-0.33367 -0.46632,-0.0962 -0.93264,-0.1923 -1.39914,-0.28759 -0.46637,-0.0953 -0.93273,-0.19054 -1.39928,-0.28495 -0.46635,-0.0944 -0.93289,-0.1879 -1.39956,-0.28073 -0.46641,-0.0926 -0.93299,-0.18444 -1.39994,-0.27449 -0.46653,-0.09 -0.93326,-0.17897 -1.40051,-0.26534 -0.46673,-0.0859 -0.93366,-0.17095 -1.40137,-0.25172 -0.467,-0.0804 -0.93431,-0.15897 -1.40264,-0.23158 -0.46755,-0.072 -0.93552,-0.14151 -1.40479,-0.20209 -0.47208,-0.0603 -0.94475,-0.11619 -1.41824,-0.16497 -0.48059,-0.0525 -0.95845,-0.12289 -1.43756,-0.18673 -0.48289,-0.0617 -0.96742,-0.11386 -1.44743,-0.19487 -0.4767,-0.0775 -0.95407,-0.15102 -1.43069,-0.22902 -0.47873,-0.0855 -0.95294,-0.19299 -1.42965,-0.28857 -0.47222,-0.0974 -0.94446,-0.19477 -1.41688,-0.29131 -0.47513,-0.0971 -0.95026,-0.19422 -1.42569,-0.28995 -0.47935,-0.0971 -0.9589,-0.19336 -1.43874,-0.28817 -0.48591,-0.0958 -0.97177,-0.19178 -1.45812,-0.28546 -0.4954,-0.0951 -0.99087,-0.18982 -1.48694,-0.28152 -0.50924,-0.094 -1.01874,-0.18677 -1.52897,-0.27558 -0.51815,-0.0899 -1.03656,-0.17849 -1.55621,-0.25983 -0.52405,-0.0818 -1.04878,-0.15923 -1.57298,-0.24012 -0.53087,-0.0887 -1.05772,-0.19852 -1.58739,-0.29373 -0.53123,-0.0979 -1.06268,-0.19466 -1.59489,-0.28737 -0.56265,-0.0978 -1.12567,-0.19381 -1.68959,-0.28445 -0.59796,-0.0957 -1.1963,-0.18923 -1.79593,-0.2745 -0.63148,-0.0905 -1.26347,-0.17812 -1.89042,-0.29576 -0.6422,-0.11038 -1.28551,-0.2151 -1.92589,-0.33524 -0.64403,-0.13347 -1.28805,-0.26694 -1.93227,-0.39955 -0.67129,-0.13831 -1.34278,-0.27575 -2.01426,-0.4132 -0.69771,-0.14208 -1.39543,-0.28414 -2.09338,-0.4251 -0.70174,-0.14113 -1.40349,-0.28219 -2.10577,-0.42076 -0.68583,-0.13512 -1.37182,-0.26947 -2.05848,-0.40049 -0.66167,-0.12586 -1.32359,-0.25052 -1.98647,-0.37014 -0.62636,-0.11266 -1.25319,-0.223 -1.88137,-0.32553 -0.57138,-0.0922 -1.14329,-0.18148 -1.71708,-0.25821 -0.52433,-0.0694 -1.04955,-0.13169 -1.57546,-0.18851 -0.47923,-0.0575 -0.95625,-0.13124 -1.43502,-0.19236 -0.43233,-0.0639 -0.86144,-0.14679 -1.29212,-0.22049 -0.41221,-0.0765 -0.81938,-0.17297 -1.22504,-0.27757 -0.36584,-0.092 -0.7313,-0.18547 -1.09481,-0.28595 -0.30785,-0.0856 -0.61457,-0.17484 -0.92116,-0.26461 -0.18438,-0.0504 -0.37319,-0.0828 -0.55933,-0.12548 -2.52299,-0.17274 -2.43957,-1.3336 0.0834,-1.16086 z"
       inkscape:connector-curvature="0" />
    <path
       style="opacity:1;fill:#da03ae;fill-opacity:1;fill-rule:nonzero;stroke:#da03ae;stroke-width:0.1;stroke-linecap:round;stroke-linejoin:round;stroke-miterlimit:4;stroke-dasharray:none;stroke-dashoffset:0;stroke-opacity:1;paint-order:markers fill stroke"
       id="path6709"
       d="m 76.542918,151.12991 c 0.307196,-0.0136 0.612095,0.0134 0.91521,0.0609 0.366932,0.0643 0.731194,0.14284 1.095373,0.22101 0.410373,0.0886 0.819976,0.18069 1.22944,0.27337 0.445433,0.10113 0.890441,0.2041 1.33531,0.30766 0.469468,0.10903 0.938471,0.22001 1.407525,0.33079 0.474211,0.11478 0.956353,0.19327 1.43605,0.28132 0.526076,0.0966 1.050546,0.20156 1.574654,0.30824 0.55618,0.11416 1.11126,0.23361 1.66606,0.35424 0.55527,0.12083 1.10979,0.24499 1.66403,0.37042 0.56401,0.1279 1.1276,0.25766 1.69103,0.3881 0.56489,0.11433 1.1322,0.21638 1.69841,0.32392 0.56677,0.11757 1.1367,0.21562 1.70807,0.3076 0.57675,0.10126 1.15574,0.18547 1.7361,0.26282 0.57058,0.0708 1.13742,0.16844 1.70746,0.24279 0.56187,0.0666 1.12309,0.13805 1.6834,0.21669 0.54422,0.0883 1.09222,0.14826 1.63933,0.21499 0.55235,0.0671 1.10284,0.14809 1.65254,0.23385 0.543,0.0854 1.08423,0.18156 1.62484,0.28083 0.33775,0.0628 0.67504,0.12805 1.01259,0.19192 2.78533,0.52737 2.53673,1.84039 -0.24862,1.31302 v 0 c -0.3351,-0.0635 -0.66998,-0.12815 -1.00528,-0.19055 -0.52888,-0.0971 -1.05836,-0.19122 -1.58959,-0.27486 -0.53499,-0.0835 -1.07074,-0.16232 -1.6083,-0.22769 -0.55512,-0.0677 -1.11112,-0.12874 -1.66331,-0.21814 -0.55629,-0.0781 -1.11349,-0.14886 -1.67131,-0.21506 -0.57095,-0.0752 -1.13894,-0.17144 -1.71042,-0.24317 -0.59226,-0.079 -1.18317,-0.16497 -1.77181,-0.26808 -0.58372,-0.094 -1.16604,-0.19415 -1.74511,-0.31409 -0.58363,-0.11086 -1.16849,-0.21553 -1.75046,-0.33494 -0.56112,-0.13029 -1.12255,-0.25932 -1.68437,-0.38659 -0.5506,-0.12464 -1.10152,-0.24782 -1.65312,-0.36797 -0.549,-0.11931 -1.09824,-0.23755 -1.64859,-0.3505 -0.515801,-0.10497 -1.03195,-0.20837 -1.549689,-0.30341 -0.501788,-0.0922 -1.006012,-0.17488 -1.50204,-0.29521 -0.467473,-0.1106 -0.934944,-0.2212 -1.402923,-0.32966 -0.442431,-0.10245 -0.884858,-0.2049 -1.327614,-0.30589 -0.404714,-0.0912 -0.809375,-0.18264 -1.214908,-0.27015 -0.340773,-0.0736 -0.681819,-0.14667 -1.025084,-0.20793 -0.215917,-0.0352 -0.432608,-0.0551 -0.651812,-0.0453 -2.832582,0.1126 -2.885667,-1.22269 -0.05308,-1.33529 z"
       inkscape:connector-curvature="0" />
    <path
       style="opacity:1;fill:#da03ae;fill-opacity:1;fill-rule:nonzero;stroke:#da03ae;stroke-width:0.1;stroke-linecap:round;stroke-linejoin:round;stroke-miterlimit:4;stroke-dasharray:none;stroke-dashoffset:0;stroke-opacity:1;paint-order:markers fill stroke"
       id="path6711"
       d="m 170.56285,215.55005 c 0.25047,0.0617 0.50092,0.12351 0.75138,0.18518 0.33659,0.0861 0.67321,0.16901 1.01503,0.23132 0.42494,0.0733 0.84882,0.15224 1.27211,0.23443 0.47877,0.10306 0.9605,0.188 1.44382,0.26633 0.54316,0.083 1.08208,0.1911 1.62463,0.27735 0.58721,0.0855 1.17343,0.17729 1.75883,0.27443 0.62292,0.10483 1.24367,0.22195 1.86361,0.34306 0.65509,0.12839 1.30839,0.26571 1.96122,0.40509 0.67268,0.14395 1.3442,0.29328 2.01539,0.44398 0.67914,0.15275 1.35748,0.30902 2.03561,0.46616 0.65763,0.16414 1.3236,0.28986 1.98862,0.41946 0.64597,0.12513 1.29095,0.25514 1.93541,0.38771 0.59819,0.12551 1.19504,0.25581 1.79691,0.36253 0.58432,0.1 1.16801,0.20342 1.75093,0.3112 0.56688,0.10511 1.13231,0.21768 1.69729,0.33252 0.55157,0.11245 1.10206,0.2301 1.65221,0.34932 0.54108,0.11753 1.08138,0.2385 1.62144,0.36058 0.53394,0.12087 1.06732,0.24421 1.60055,0.36821 0.52909,0.12323 1.05783,0.24794 1.58642,0.37328 0.5259,0.12447 1.05133,0.25087 1.57689,0.37669 0.52358,0.12595 1.04714,0.2519 1.57048,0.37882 0.42659,0.10103 0.85065,0.21274 1.27968,0.30293 2.77357,0.58614 2.49728,1.89357 -0.27629,1.30746 v 0 c -0.44165,-0.0938 -0.87886,-0.2063 -1.31787,-0.31161 -0.52248,-0.12671 -1.04521,-0.25246 -1.56794,-0.3782 -0.52418,-0.12608 -1.04859,-0.25122 -1.57314,-0.37576 -0.52682,-0.12472 -1.05366,-0.24929 -1.58094,-0.37203 -0.53051,-0.1235 -1.06124,-0.2461 -1.59251,-0.36633 -0.53617,-0.12118 -1.07257,-0.24138 -1.60975,-0.35802 -0.54456,-0.118 -1.08944,-0.23451 -1.63542,-0.34579 -0.55722,-0.11324 -1.11489,-0.22431 -1.67396,-0.32801 -0.57977,-0.10717 -1.16029,-0.21006 -1.74143,-0.30948 -0.61385,-0.10898 -1.22276,-0.241 -1.83279,-0.36941 -0.63988,-0.13163 -1.28028,-0.26075 -1.92166,-0.38494 -0.68051,-0.13258 -1.3619,-0.2618 -2.03494,-0.42933 -0.67523,-0.15611 -1.35047,-0.31213 -2.02663,-0.46416 -0.66661,-0.14966 -1.3335,-0.29806 -2.0016,-0.44098 -0.64527,-0.13782 -1.29101,-0.27349 -1.93852,-0.40043 -0.60745,-0.11868 -1.21566,-0.23359 -1.82606,-0.33628 -0.58264,-0.0967 -1.16615,-0.18782 -1.75058,-0.27308 -0.5435,-0.0871 -1.08366,-0.19395 -1.62774,-0.27785 -0.49712,-0.0805 -0.99261,-0.16791 -1.48508,-0.27363 -0.41883,-0.0814 -0.8383,-0.15933 -1.25875,-0.23195 -0.36792,-0.0678 -0.73099,-0.15482 -1.09325,-0.24812 -0.25047,-0.0617 -0.50092,-0.12351 -0.75139,-0.18519 -2.75245,-0.67837 -2.43267,-1.9759 0.31979,-1.29752 z"
       inkscape:connector-curvature="0" />
  </g>
</svg>
