<?xml version="1.0" encoding="UTF-8" standalone="no"?>
<!-- Created with Inkscape (http://www.inkscape.org/) -->

<svg
   xmlns:dc="http://purl.org/dc/elements/1.1/"
   xmlns:cc="http://creativecommons.org/ns#"
   xmlns:rdf="http://www.w3.org/1999/02/22-rdf-syntax-ns#"
   xmlns:svg="http://www.w3.org/2000/svg"
   xmlns="http://www.w3.org/2000/svg"
   xmlns:sodipodi="http://sodipodi.sourceforge.net/DTD/sodipodi-0.dtd"
   xmlns:inkscape="http://www.inkscape.org/namespaces/inkscape"
   width="297mm"
   height="210mm"
   viewBox="0 0 297 210"
   version="1.1"
   id="svg9714"
   inkscape:version="0.92.1 r15371"
   sodipodi:docname="not-roll-a.svg">
  <defs
     id="defs9708" />
  <sodipodi:namedview
     id="base"
     pagecolor="#ffffff"
     bordercolor="#666666"
     borderopacity="1.0"
     inkscape:pageopacity="0.0"
     inkscape:pageshadow="2"
     inkscape:zoom="0.98994949"
     inkscape:cx="540.58987"
     inkscape:cy="400.50464"
     inkscape:document-units="mm"
     inkscape:current-layer="layer1"
     showgrid="false"
     inkscape:window-width="1920"
     inkscape:window-height="1046"
     inkscape:window-x="-11"
     inkscape:window-y="-11"
     inkscape:window-maximized="1" />
  <metadata
     id="metadata9711">
    <rdf:RDF>
      <cc:Work
         rdf:about="">
        <dc:format>image/svg+xml</dc:format>
        <dc:type
           rdf:resource="http://purl.org/dc/dcmitype/StillImage" />
        <dc:title></dc:title>
      </cc:Work>
    </rdf:RDF>
  </metadata>
  <g
     inkscape:label="Layer 1"
     inkscape:groupmode="layer"
     id="layer1"
     transform="translate(0,-87)">
    <path
       style="opacity:1;fill:#000000;fill-opacity:1;fill-rule:nonzero;stroke:#000000;stroke-width:0.1;stroke-linecap:round;stroke-linejoin:round;stroke-miterlimit:4;stroke-dasharray:none;stroke-dashoffset:0;stroke-opacity:1;paint-order:markers fill stroke"
       id="path10261"
       d="m 27.915042,111.39753 c -0.039,0.29271 -0.05439,0.58795 -0.07087,0.88259 -0.02904,0.5605 -0.04432,1.12158 -0.05845,1.68261 0.0011,0.79588 0.01955,1.59164 0.03223,2.3874 0.01611,1.02942 0.02647,2.05892 0.03603,3.08842 0.01069,1.18412 0.01794,2.36827 0.02463,3.55241 0.02347,1.29275 0.0596,2.58522 0.08873,3.87785 0.03073,1.36581 0.05357,2.73177 0.07438,4.09775 0.02384,1.39518 0.0034,2.79068 -0.009,4.18589 -0.01294,1.40498 -0.02344,2.80998 -0.03289,4.21499 -0.0353,1.41282 -0.0439,2.82593 -0.0489,4.23912 -0.004,1.40298 -0.0059,2.80596 -0.0078,4.20894 -0.01302,1.40551 0.01609,2.81074 0.04167,4.21592 0.02654,1.40853 0.04827,2.81714 0.06781,4.22579 0.01918,1.40344 0.03372,2.80694 0.04692,4.21045 0.01635,1.40666 0.01476,2.81351 0.03949,4.22005 0.03231,1.41311 0.06754,2.82614 0.09785,4.2393 0.02984,1.41473 0.05299,2.82958 0.07379,4.24447 0.03024,1.41748 0.02951,2.83497 0.01728,4.25262 -0.0114,1.44052 -0.06155,2.8804 -0.100105,4.32036 -0.0537,1.44385 -0.115954,2.88735 -0.168884,4.33123 -0.06728,1.43817 -0.139369,2.87609 -0.201247,4.31451 -0.0516,1.43459 -0.114602,2.86858 -0.183158,4.30244 -0.07835,1.41174 -0.118507,2.82465 -0.142507,4.23819 -0.02103,1.38026 -0.03422,2.76063 -0.04669,4.14099 -0.02318,1.35908 -0.0021,2.71816 0.01672,4.07713 0.02283,1.3446 0.028,2.6895 0.05872,4.03395 0.03755,1.32139 0.07748,2.64271 0.112009,3.96419 0.03407,1.31256 0.05975,2.62531 0.0834,3.9381 0.02318,1.30878 0.04057,2.61765 0.05643,3.92654 0.01551,1.29717 0.02731,2.59438 0.03807,3.8916 0.0073,1.28837 0.02633,2.57674 0.01775,3.86513 -0.01619,1.26456 -0.03949,2.52901 -0.05929,3.79351 -0.019,1.23253 -0.0339,2.46512 -0.04756,3.69772 -0.0096,1.18984 -0.0557,2.37903 -0.09205,3.56826 -0.03441,1.13019 -0.06292,2.26054 -0.08861,3.39096 -0.02405,1.08141 -0.04316,2.16293 -0.06041,3.24447 -0.01627,1.02625 -0.02898,2.05255 -0.0408,3.07885 -0.01098,0.97195 -0.01963,1.94392 -0.02753,2.91589 -0.0074,0.91726 -0.01318,1.83453 -0.01857,2.7518 -0.0026,0.85975 -0.0047,1.71924 -0.03241,2.57858 -0.02863,0.77712 -0.05829,1.5542 -0.08491,2.33139 -0.02376,0.69741 -0.04328,1.39495 -0.06117,2.09254 -0.0057,0.63846 -0.04436,1.27562 -0.0891,1.91232 -0.02882,0.29682 -0.03326,0.59514 -0.03684,0.89309 -0.03432,2.83461 -1.370571,2.81843 -1.336248,-0.0162 v 0 c 0.0039,-0.32382 0.0096,-0.648 0.04003,-0.97064 0.0434,-0.61691 0.08116,-1.23423 0.08625,-1.85287 0.018,-0.70141 0.03761,-1.40278 0.06151,-2.10401 0.0266,-0.77635 0.05619,-1.55258 0.08483,-2.32885 0.02747,-0.84756 0.029,-1.69526 0.03174,-2.54323 0.0054,-0.91828 0.01118,-1.83655 0.0186,-2.75481 0.0079,-0.97348 0.01658,-1.94695 0.02757,-2.9204 0.01184,-1.02829 0.02456,-2.05656 0.04088,-3.08479 0.01731,-1.08455 0.03647,-2.16908 0.06059,-3.25351 0.02577,-1.13391 0.05437,-2.26776 0.08889,-3.40143 0.03609,-1.18056 0.082,-2.36108 0.09151,-3.54224 0.01368,-1.23464 0.02863,-2.46926 0.04765,-3.70383 0.01974,-1.26052 0.04293,-2.52099 0.05916,-3.78156 0.0087,-1.28171 -0.01069,-2.5634 -0.01775,-3.84509 -0.01074,-1.29551 -0.02252,-2.59101 -0.03801,-3.88648 -0.01582,-1.30626 -0.03318,-2.61251 -0.05631,-3.91866 -0.02359,-1.30917 -0.04919,-2.61832 -0.08316,-3.92727 -0.03457,-1.32296 -0.07458,-2.64577 -0.112118,-3.96865 -0.03064,-1.34844 -0.03622,-2.69732 -0.05894,-4.04591 -0.01894,-1.36915 -0.04006,-2.73841 -0.01681,-4.10768 0.0125,-1.3839 0.02571,-2.76781 0.04683,-4.15162 0.02426,-1.42726 0.06485,-2.85387 0.14384,-4.27931 0.06845,-1.43174 0.131342,-2.86359 0.182867,-4.29606 0.06177,-1.43559 0.133585,-2.87069 0.200911,-4.30602 0.05277,-1.43949 0.114723,-2.8786 0.168466,-4.31805 0.03834,-1.43189 0.08827,-2.8637 0.09967,-4.29613 0.01217,-1.40725 0.01294,-2.81435 -0.01717,-4.22145 -0.02074,-1.41188 -0.04385,-2.82372 -0.07362,-4.23544 -0.03035,-1.4149 -0.06565,-2.82968 -0.09795,-4.24453 -0.02466,-1.41017 -0.02342,-2.82063 -0.03964,-4.23091 -0.01318,-1.40152 -0.0277,-2.80304 -0.04685,-4.20449 -0.0195,-1.40671 -0.04121,-2.81339 -0.06772,-4.21999 -0.02574,-1.41388 -0.05489,-2.82783 -0.04189,-4.24203 0.0019,-1.40397 0.0037,-2.80793 0.0078,-4.21189 0.005,-1.4146 0.01349,-2.82914 0.04893,-4.24337 0.0094,-1.40598 0.01995,-2.81195 0.03291,-4.2179 0.01233,-1.38446 0.03268,-2.76921 0.0091,-4.15363 -0.02077,-1.36274 -0.04355,-2.72546 -0.0742,-4.08801 -0.0293,-1.30016 -0.06576,-2.60015 -0.08905,-3.90043 -0.0067,-1.18252 -0.01392,-2.36504 -0.02458,-3.54754 -0.0095,-1.02654 -0.01984,-2.05308 -0.03592,-3.07955 -0.01297,-0.81406 -0.03242,-1.62814 -0.03198,-2.44234 0.01449,-0.57476 0.03023,-1.14957 0.06012,-1.72378 0.01871,-0.33281 0.03698,-0.66624 0.08221,-0.99674 0.400904,-2.80633 1.723821,-2.61734 1.322917,0.18899 z"
       inkscape:connector-curvature="0" />
    <path
       style="opacity:1;fill:#000000;fill-opacity:1;fill-rule:nonzero;stroke:#000000;stroke-width:0.1;stroke-linecap:round;stroke-linejoin:round;stroke-miterlimit:4;stroke-dasharray:none;stroke-dashoffset:0;stroke-opacity:1;paint-order:markers fill stroke"
       id="path10263"
       d="m 26.824823,109.06757 c -0.08033,0.36213 -0.164663,0.72344 -0.252039,1.08396 -0.12918,0.57896 -0.261397,1.15708 -0.402109,1.73337 -0.125425,0.56514 -0.26866,1.1254 -0.443001,1.67745 -0.131934,0.3794 -0.319806,0.86239 -0.779497,0.94493 -0.150697,0.0271 -0.305397,-0.0224 -0.458095,-0.0336 -0.550502,-0.32483 -0.651893,-0.90104 -0.77906,-1.4806 -0.115411,-0.68523 -0.172047,-1.3795 -0.207646,-2.073 -0.04491,-0.71997 -0.02917,-1.43828 0.06544,-2.15312 0.08551,-0.63473 0.314406,-1.1877 0.75523,-1.65199 0.516944,-0.4541 1.153479,-0.48906 1.804751,-0.4201 0.698606,0.0986 1.340832,0.3794 1.951342,0.72036 0.673338,0.37859 1.251815,0.89061 1.799696,1.42924 2.018135,1.99081 1.079658,2.94217 -0.93848,0.95136 v 0 c -0.461743,-0.45733 -0.948616,-0.89407 -1.517081,-1.21627 -0.453742,-0.25844 -0.930865,-0.47521 -1.451205,-0.55745 -0.228773,-0.0314 -0.492284,-0.0745 -0.70524,0.039 -0.260119,0.21718 -0.311279,0.56737 -0.374656,0.8845 -0.08734,0.63292 -0.09308,1.26943 -0.05515,1.90706 0.03082,0.62074 0.08302,1.24164 0.178726,1.856 0.01388,0.0643 0.184827,0.61888 0.174903,0.65968 -0.02424,0.0997 -0.379734,-0.82048 -0.264416,-0.15745 -0.11206,0.003 -0.22803,-0.0208 -0.336181,0.009 -0.285521,0.0778 -0.308847,0.42375 -0.137428,-0.0604 0.166076,-0.52337 0.299328,-1.05535 0.418843,-1.59117 0.140559,-0.57565 0.272292,-1.15319 0.401636,-1.73143 0.08827,-0.36351 0.17278,-0.72796 0.254272,-1.09303 0.687545,-2.75018 1.983992,-2.42607 1.296448,0.32411 z"
       inkscape:connector-curvature="0" />
    <path
       style="opacity:1;fill:#000000;fill-opacity:1;fill-rule:nonzero;stroke:#000000;stroke-width:0.1;stroke-linecap:round;stroke-linejoin:round;stroke-miterlimit:4;stroke-dasharray:none;stroke-dashoffset:0;stroke-opacity:1;paint-order:markers fill stroke"
       id="path10265"
       d="m 19.660521,256.52329 c 0.23941,0.0381 0.480017,0.0499 0.721981,0.0503 0.462585,-0.005 0.925143,-0.0119 1.387724,-0.0171 0.665486,-0.009 1.331122,-0.005 1.996447,-0.0232 0.876648,-0.0322 1.753359,-0.062 2.630241,-0.087 1.049027,-0.0463 2.097851,-0.0964 3.147067,-0.13841 1.156639,-0.0425 2.313479,-0.0749 3.469727,-0.12744 1.196115,-0.0568 2.392574,-0.10577 3.589221,-0.14988 1.175837,-0.042 2.351971,-0.0749 3.528158,-0.10529 1.105691,-0.0422 2.210895,-0.096 3.316396,-0.14289 1.027369,-0.0433 2.055042,-0.0787 3.082798,-0.11124 0.96793,-0.0205 1.934932,-0.0601 2.901857,-0.10743 0.964499,-0.0495 1.929426,-0.0896 2.894526,-0.12518 0.994296,-0.036 1.988894,-0.0626 2.983537,-0.0867 1.033957,-0.0248 2.068065,-0.0423 3.102186,-0.0585 1.099344,-0.0138 2.198667,-0.036 3.298121,-0.0315 1.161423,0.013 2.322754,0.0334 3.484132,0.05 1.208132,0.0171 2.416323,0.0298 3.624521,0.0413 1.2328,0.0148 2.46579,0.0125 3.69846,0.0361 1.226584,0.0313 2.453079,0.0657 3.6797,0.0956 1.223825,0.0181 2.446603,0.0711 3.669523,0.11857 1.222554,0.0381 2.444284,0.0922 3.665907,0.15252 1.218322,0.052 2.43581,0.11771 3.653137,0.1889 1.210315,0.0722 2.421437,0.12947 3.63279,0.18093 1.236609,0.0484 2.473457,0.0865 3.709678,0.14433 1.252707,0.0618 2.50585,0.11382 3.759208,0.16031 1.260181,0.0458 2.520716,0.0804 3.781316,0.11218 1.25681,0.031 2.51377,0.0544 3.77077,0.0758 1.24399,0.0177 2.48721,0.0694 3.73056,0.11101 1.20717,0.0408 2.41461,0.0724 3.62212,0.10135 1.16024,0.0272 2.32059,0.0491 3.48097,0.069 1.11669,0.0332 2.23293,0.0795 3.3494,0.11926 1.05901,0.0373 2.11825,0.0673 3.17756,0.0944 1.01698,0.0259 2.0341,0.0457 3.05125,0.064 1.00102,0.0177 2.00211,0.031 3.00321,0.0432 1.00056,0.0121 2.00114,0.021 3.00174,0.0292 1.02146,0.008 2.04294,0.0142 3.06442,0.0197 1.03142,0.008 2.06269,-0.0234 3.09378,-0.046 1.04238,-0.023 2.08485,-0.0413 3.12735,-0.0581 1.03029,-0.0163 2.06064,-0.0286 3.091,-0.0398 1.02613,-0.0108 2.05228,-0.0193 3.07844,-0.0268 1.02158,-0.005 2.04259,-0.046 3.06361,-0.0773 1.04177,-0.0321 2.08374,-0.0569 3.12575,-0.0793 1.05356,-0.0223 2.10722,-0.0391 3.1609,-0.0541 1.07805,-0.0152 2.15615,-0.0263 3.23426,-0.0365 1.07674,0.001 2.15277,-0.0367 3.2288,-0.0705 1.07906,-0.0346 2.15832,-0.0624 3.23764,-0.0875 1.07626,-0.0246 2.15265,-0.0432 3.22905,-0.0602 1.07396,-0.0166 2.14797,-0.0292 3.22199,-0.0406 1.07569,-0.008 2.15136,-0.0275 3.22707,-0.0195 1.07315,0.0159 2.14618,0.039 3.21928,0.0582 1.06896,0.019 2.13799,0.0336 3.20704,0.0468 1.08429,0.0133 2.16862,0.0229 3.25296,0.0318 1.12751,0.009 2.25505,0.0155 3.38259,0.0214 1.14866,0.0157 2.29701,0.004 3.44547,-0.0181 1.17854,-0.0244 2.35713,-0.0457 3.53577,-0.0644 1.19416,-0.0187 2.38838,-0.0328 3.58262,-0.0456 1.17379,-0.0124 2.34761,-0.022 3.52143,-0.0308 1.1467,-0.006 2.29288,-0.0478 3.43906,-0.08 1.13346,-0.0356 2.26753,-0.0489 3.40085,-0.0887 1.07456,-0.0446 2.14906,-0.0907 3.22377,-0.13172 1.01525,-0.0382 2.03075,-0.0688 3.04632,-0.0968 0.93673,-0.0396 1.87286,-0.0918 2.80932,-0.1371 0.84458,-0.0407 1.68942,-0.0754 2.53436,-0.10747 0.73213,-0.0261 1.46423,-0.0448 2.1954,-0.0913 0.45462,-0.0296 0.91124,-0.0709 1.35322,-0.1853 0.22853,-0.0683 0.1477,-0.10472 0.0383,0.055 -0.0578,0.35088 -0.14274,-0.0447 -0.21655,-0.18258 -0.18893,-0.30752 -0.40699,-0.59591 -0.61815,-0.88826 -0.26842,-0.32917 -0.50133,-0.68096 -0.68515,-1.0637 -0.206,-0.45084 -0.18418,-0.8674 0.0659,-1.29071 0.35417,-0.40258 0.84475,-0.4445 1.34646,-0.42726 0.52098,0.047 1.03489,0.1499 1.54272,0.27251 0.55173,0.13061 1.09227,0.29959 1.60698,0.5377 0.54902,0.26689 0.90549,0.67056 1.07323,1.25355 0.0842,0.63362 -0.2149,1.16233 -0.56943,1.65874 -0.37313,0.50435 -0.79693,0.96825 -1.22797,1.42307 -0.27572,0.27544 -0.53544,0.56526 -0.78402,0.86516 -1.812,2.18011 -2.83971,1.32592 -1.02771,-0.85419 v 0 c 0.26794,-0.3216 0.54559,-0.63446 0.84197,-0.93042 0.39082,-0.41203 0.77609,-0.83146 1.11552,-1.28761 0.13457,-0.1818 0.25696,-0.37345 0.34893,-0.57679 0.0559,-0.14541 -0.24534,-0.27558 -0.33842,-0.34183 -0.43058,-0.20654 -0.89199,-0.33389 -1.35436,-0.44876 -0.42379,-0.10357 -0.8526,-0.18853 -1.28661,-0.23609 -0.1672,-0.0106 -0.3887,0.0694 -0.20508,-0.12379 0.0589,-0.15212 0.005,-0.28312 0.06,-0.0645 0.14344,0.31155 0.34835,0.58443 0.56046,0.85261 0.24707,0.34227 0.50338,0.67965 0.71571,1.04519 0.21035,0.40023 0.40488,0.79864 0.29208,1.26294 -0.19663,0.42274 -0.50506,0.68115 -0.9664,0.78539 -0.52295,0.13067 -1.05919,0.19261 -1.59695,0.2236 -0.74248,0.0471 -1.48586,0.0669 -2.22933,0.093 -0.84034,0.0319 -1.68058,0.0664 -2.52056,0.10688 -0.94569,0.0457 -1.89104,0.0987 -2.83702,0.13815 -1.01087,0.0279 -2.02168,0.0584 -3.03223,0.0964 -1.0761,0.041 -2.15197,0.0873 -3.22793,0.13187 -1.13641,0.0397 -2.27356,0.0536 -3.41012,0.089 -1.15535,0.0324 -2.3107,0.0749 -3.46657,0.0805 -1.17237,0.009 -2.34473,0.0184 -3.51707,0.0308 -1.19196,0.0128 -2.38391,0.0269 -3.5758,0.0455 -1.17721,0.0187 -2.35437,0.0399 -3.53147,0.0643 -1.1593,0.0221 -2.3185,0.034 -3.47801,0.0183 -1.12881,-0.006 -2.25763,-0.0125 -3.38642,-0.0215 -1.08621,-0.009 -2.17242,-0.0185 -3.25859,-0.0318 -1.0715,-0.0133 -2.14299,-0.0279 -3.21441,-0.0469 -1.06851,-0.0191 -2.13696,-0.042 -3.20552,-0.058 -1.06759,-0.008 -2.13516,0.0118 -3.20272,0.0195 -1.07175,0.0114 -2.14349,0.0239 -3.21517,0.0405 -1.07308,0.0169 -2.14614,0.0355 -3.21907,0.06 -1.07566,0.025 -2.15126,0.0527 -3.22666,0.0872 -1.08581,0.0341 -2.17163,0.0721 -3.25815,0.0711 -1.07598,0.0102 -2.15197,0.0213 -3.2279,0.0364 -1.05043,0.0149 -2.10084,0.0318 -3.15114,0.054 -1.03795,0.0224 -2.07584,0.0471 -3.11354,0.079 -1.03137,0.0316 -2.06274,0.0733 -3.09469,0.0779 -1.02464,0.008 -2.04927,0.016 -3.07389,0.0268 -1.02801,0.0111 -2.05601,0.0234 -3.08396,0.0397 -1.03989,0.0167 -2.07977,0.0349 -3.11955,0.0579 -1.04324,0.0229 -2.08667,0.0548 -3.13026,0.0463 -1.0227,-0.006 -2.04541,-0.0116 -3.06809,-0.0197 -1.00243,-0.008 -2.00486,-0.0171 -3.00725,-0.0292 -1.00365,-0.0123 -2.0073,-0.0256 -3.01087,-0.0433 -1.02049,-0.0183 -2.04096,-0.0383 -3.0613,-0.0643 -1.0638,-0.0271 -2.12753,-0.0573 -3.19102,-0.0948 -1.10826,-0.0395 -2.2163,-0.0853 -3.32477,-0.11861 -1.16341,-0.02 -2.32679,-0.042 -3.49005,-0.0692 -1.21176,-0.029 -2.42346,-0.0607 -3.63488,-0.10171 -1.23603,-0.0414 -2.47193,-0.0928 -3.70859,-0.11046 -1.26062,-0.0215 -2.5212,-0.045 -3.78162,-0.0761 -1.26591,-0.0319 -2.531746,-0.0667 -3.797227,-0.11267 -1.257655,-0.0467 -2.515092,-0.0989 -3.772093,-0.16085 -1.234318,-0.0577 -2.469274,-0.0956 -3.703979,-0.14407 -1.218451,-0.0518 -2.436669,-0.10936 -3.654078,-0.18201 -1.2133,-0.0709 -2.426761,-0.13641 -3.641056,-0.18825 -1.216924,-0.0601 -2.433955,-0.11395 -3.651811,-0.1519 -1.216498,-0.0472 -2.432851,-0.10008 -3.650255,-0.11796 -1.224314,-0.0299 -2.448504,-0.0641 -3.672781,-0.0954 -1.228366,-0.0237 -2.457062,-0.021 -3.685556,-0.0359 -1.210334,-0.0115 -2.42066,-0.0243 -3.63093,-0.0414 -1.15687,-0.0166 -2.313689,-0.0368 -3.470601,-0.0499 -1.090631,-0.005 -2.181135,0.018 -3.271655,0.0314 -1.030282,0.0161 -2.060548,0.0336 -3.090664,0.0582 -0.989009,0.0239 -1.977972,0.0503 -2.966632,0.0861 -0.959731,0.0354 -1.919288,0.0753 -2.878421,0.12449 -0.974598,0.0477 -1.949283,0.0876 -2.924892,0.10835 -1.023003,0.0324 -2.045925,0.0677 -3.068542,0.11072 -1.112869,0.0472 -2.225432,0.10146 -3.338502,0.14364 -1.171273,0.0302 -2.342494,0.063 -3.513418,0.10483 -1.192845,0.044 -2.385502,0.0928 -3.57782,0.14941 -1.158637,0.0526 -2.317856,0.0853 -3.476892,0.12775 -1.054317,0.0422 -2.108234,0.0928 -3.16238,0.13893 -0.877799,0.025 -1.755423,0.055 -2.632991,0.0871 -0.672106,0.0176 -1.344477,0.0146 -2.016741,0.0236 -0.468963,0.005 -0.937901,0.0126 -1.406871,0.0172 -0.303773,-0.001 -0.606359,-0.0169 -0.906929,-0.0637 -2.80633,-0.40091 -2.617342,-1.72382 0.188988,-1.32292 z"
       inkscape:connector-curvature="0" />
    <path
       style="opacity:1;fill:#000000;fill-opacity:1;fill-rule:nonzero;stroke:#000000;stroke-width:0.1;stroke-linecap:round;stroke-linejoin:round;stroke-miterlimit:4;stroke-dasharray:none;stroke-dashoffset:0;stroke-opacity:1;paint-order:markers fill stroke"
       id="path10267"
       d="m 236.10232,257.7708 c 0.0989,0.26962 0.2345,0.52281 0.37003,0.77523 0.23229,0.42354 0.52,0.81284 0.80739,1.19988 0.37566,0.50829 0.77851,0.99541 1.1709,1.49063 0.27488,0.34238 0.54512,0.68791 0.8042,1.04238 1.67104,2.28995 0.59155,3.07768 -1.07948,0.78774 v 0 c -0.24815,-0.34067 -0.50886,-0.67133 -0.77224,-1.00035 -0.40091,-0.50624 -0.81272,-1.00404 -1.19634,-1.52379 -0.32614,-0.43934 -0.64987,-0.88302 -0.91194,-1.3646 -0.15384,-0.28682 -0.30683,-0.57513 -0.42082,-0.88071 -1.11669,-2.60561 0.11161,-3.13202 1.2283,-0.52641 z"
       inkscape:connector-curvature="0" />
    <path
       style="opacity:1;fill:#000000;fill-opacity:1;fill-rule:nonzero;stroke:#000000;stroke-width:0.1;stroke-linecap:round;stroke-linejoin:round;stroke-miterlimit:4;stroke-dasharray:none;stroke-dashoffset:0;stroke-opacity:1;paint-order:markers fill stroke"
       id="path10269"
       d="m 239.94862,257.28017 c -0.29272,0.11537 -0.54459,0.30392 -0.79296,0.4927 -0.53553,0.4057 -1.00674,0.88569 -1.46762,1.37221 -0.6377,0.69832 -1.24185,1.42653 -1.84226,2.15689 -0.55195,0.6827 -1.09537,1.3722 -1.633,2.06622 -1.73613,2.24099 -2.79255,1.42257 -1.05641,-0.81843 v 0 c 0.54558,-0.70418 1.09693,-1.40386 1.65715,-2.09647 0.6205,-0.75463 1.24485,-1.50707 1.90483,-2.22773 0.51171,-0.53913 1.03637,-1.06923 1.63096,-1.51835 0.33555,-0.25297 0.67994,-0.49833 1.07289,-0.65533 2.60562,-1.11669 3.13203,0.1116 0.52642,1.22829 z"
       inkscape:connector-curvature="0" />
    <path
       style="opacity:1;fill:#000000;fill-opacity:1;fill-rule:nonzero;stroke:#000000;stroke-width:0.1;stroke-linecap:round;stroke-linejoin:round;stroke-miterlimit:4;stroke-dasharray:none;stroke-dashoffset:0;stroke-opacity:1;paint-order:markers fill stroke"
       id="path10271"
       d="m 7.6171816,107.44265 c 0,-0.28347 0,-0.56694 0,-0.85041 -0.00858,-0.38959 0.030199,-0.77709 0.1201859,-1.15584 0.1083775,-0.38295 0.365456,-0.76439 0.8042219,-0.80226 0.1228394,-0.0106 0.2445761,0.0315 0.3668641,0.0472 0.4238567,0.19519 0.6502059,0.57543 0.8782069,0.96126 0.2332406,0.43348 0.4683286,0.86588 0.7082706,1.29572 0.241934,0.42469 0.503357,0.838 0.808199,1.22035 0.206362,0.25311 0.446213,0.47165 0.753485,0.58853 0.189818,0.043 0.368459,0.003 0.534955,-0.0916 0.286145,-0.15448 0.478142,-0.41683 0.657555,-0.67948 0.203497,-0.36392 0.352953,-0.75576 0.468913,-1.15543 0.09069,-0.3794 0.209969,-0.74867 0.388473,-1.09588 0.41102,-0.67599 1.08044,-0.56455 1.469127,0.0563 0.200547,0.45516 0.278591,0.95136 0.375489,1.43594 0.13822,0.73872 0.262393,1.47991 0.370839,2.22357 0.137753,0.86264 0.23568,1.73142 0.30441,2.60213 0.07595,0.84771 0.05776,1.69736 -0.05851,2.53966 -0.111057,0.77826 -0.40119,1.49123 -0.834998,2.14123 -0.416833,0.59059 -0.99277,0.98408 -1.644173,1.27252 -0.583466,0.23647 -1.20106,0.29587 -1.823878,0.27066 -0.275673,-0.0134 -0.5414,-0.0796 -0.806438,-0.15028 -2.7336603,-0.75054 -2.3798507,-2.0392 0.353809,-1.28865 v 0 c 0.168663,0.0485 0.337942,0.0931 0.51421,0.10401 0.418924,0.0228 0.835457,-0.0105 1.23111,-0.16198 0.422805,-0.17689 0.796282,-0.42073 1.070062,-0.79738 0.330281,-0.47296 0.530621,-1.00533 0.617105,-1.57718 0.108433,-0.74496 0.113822,-1.49806 0.04945,-2.24804 -0.06562,-0.8413 -0.161634,-1.68058 -0.294542,-2.51401 -0.104907,-0.72048 -0.22541,-1.43849 -0.358866,-2.15424 -0.07039,-0.35207 -0.135947,-0.70518 -0.234241,-1.05074 0.284211,0.19806 0.671003,0.24441 0.882931,-0.0817 -0.146382,0.26527 -0.209848,0.56323 -0.289824,0.8529 -0.160022,0.5342 -0.358927,1.06021 -0.651729,1.53733 -0.317912,0.45488 -0.679156,0.8773 -1.186685,1.12769 -0.52843,0.23294 -1.068086,0.31457 -1.625142,0.11349 -0.506741,-0.22396 -0.937092,-0.55041 -1.280469,-0.98959 -0.3469924,-0.44037 -0.6522684,-0.91034 -0.9275448,-1.39882 -0.2347667,-0.42074 -0.4659874,-0.84336 -0.692661,-1.26851 -0.043884,-0.0747 -0.4365064,-0.55452 -0.1376635,-0.36807 0.2244374,0.004 0.2422417,0.0365 0.438698,-0.0858 0.045604,-0.0284 0.099406,-0.0888 0.1189381,-0.14535 0.00304,-0.009 0.00691,-0.036 0.00246,-0.0278 -0.011502,0.0211 -0.016201,0.0452 -0.024299,0.0678 -0.076262,0.26867 -0.078341,0.55319 -0.079956,0.83041 0,0.28347 0,0.56694 0,0.85041 0,2.83482 -1.3363475,2.83482 -1.3363475,0 z"
       inkscape:connector-curvature="0" />
    <path
       style="opacity:1;fill:#000000;fill-opacity:1;fill-rule:nonzero;stroke:#000000;stroke-width:0.1;stroke-linecap:round;stroke-linejoin:round;stroke-miterlimit:4;stroke-dasharray:none;stroke-dashoffset:0;stroke-opacity:1;paint-order:markers fill stroke"
       id="path10273"
       d="m 57.062044,253.7656 c 0,0.29887 0,0.59773 0,0.8966 0.01934,0.42245 0.04849,0.84439 0.07131,1.26667 0.0316,0.42458 0.0285,0.84997 0.02238,1.27529 -0.04108,2.83453 -1.377288,2.81516 -1.336207,-0.0194 v 0 c 0.0058,-0.39486 0.0097,-0.7897 -0.02058,-1.18385 -0.0241,-0.44628 -0.0564,-0.89214 -0.07325,-1.33875 0,-0.29887 0,-0.59774 0,-0.89661 0,-2.83481 1.336347,-2.83481 1.336347,0 z"
       inkscape:connector-curvature="0" />
    <path
       style="opacity:1;fill:#000000;fill-opacity:1;fill-rule:nonzero;stroke:#000000;stroke-width:0.1;stroke-linecap:round;stroke-linejoin:round;stroke-miterlimit:4;stroke-dasharray:none;stroke-dashoffset:0;stroke-opacity:1;paint-order:markers fill stroke"
       id="path10275"
       d="m 59.451258,267.98664 c -0.133684,-0.008 -0.2588,0.0258 -0.382754,0.0727 -0.231611,0.091 -0.42227,0.24905 -0.606955,0.41117 -0.22529,0.23733 -0.418782,0.50622 -0.580908,0.79012 -0.171196,0.32512 -0.304573,0.66943 -0.400585,1.02381 -0.07279,0.31835 -0.09537,0.64073 -0.04257,0.96306 0.0208,0.0912 0.07715,0.24227 0.134551,0.25822 -0.03433,-0.0526 -0.138906,-0.0668 -0.09616,-0.0984 0.1749,-0.13349 0.298934,-0.32204 0.418031,-0.50413 0.197914,-0.33847 0.360307,-0.69495 0.559742,-1.03283 0.208487,-0.37275 0.502492,-0.61555 0.90279,-0.75171 0.431948,-0.0856 0.791671,0.0904 1.125009,0.34539 0.279371,0.25554 0.527529,0.54283 0.771932,0.8313 0.280464,0.32521 0.549286,0.66017 0.82912,0.98589 0.241104,0.26879 0.484777,0.53375 0.77425,0.75105 0.13811,0.0962 0.28399,0.19242 0.457962,0.17907 0.1377,-0.023 0.237678,-0.13766 0.353115,-0.23206 0.258033,-0.21427 0.459275,-0.48051 0.66547,-0.74197 1.755613,-2.22577 2.80485,-1.39816 1.049237,0.8276 v 0 c -0.268142,0.3399 -0.537938,0.67945 -0.875816,0.95461 -0.369639,0.29536 -0.763442,0.54207 -1.256173,0.52663 -0.446535,-0.0333 -0.848656,-0.17471 -1.205521,-0.45231 -0.35991,-0.27842 -0.677865,-0.59968 -0.976778,-0.94249 -0.281242,-0.32824 -0.552699,-0.66465 -0.834604,-0.99234 -0.189178,-0.22344 -0.382202,-0.44342 -0.587772,-0.65208 -0.104617,-0.10146 -0.07667,-0.0549 0.05215,-0.0963 0.168289,-0.0978 -0.09322,0.0386 -0.09508,0.14162 -0.212649,0.35599 -0.373399,0.73932 -0.595572,1.08991 -0.250703,0.37407 -0.528857,0.73769 -0.931222,0.95913 -0.441952,0.20697 -0.88736,0.24503 -1.313027,-0.0318 -0.357007,-0.29533 -0.567745,-0.67264 -0.648332,-1.1314 -0.0678,-0.50742 -0.04977,-1.01392 0.07791,-1.51215 0.131472,-0.46337 0.301027,-0.91638 0.533988,-1.33922 0.240448,-0.40586 0.514527,-0.79621 0.856787,-1.12354 0.316476,-0.2744 0.653732,-0.52487 1.052155,-0.66808 0.326226,-0.10688 0.659836,-0.17474 1.004607,-0.13136 2.80633,0.4009 2.61734,1.72382 -0.188989,1.32292 z"
       inkscape:connector-curvature="0" />
    <path
       style="opacity:1;fill:#000000;fill-opacity:1;fill-rule:nonzero;stroke:#000000;stroke-width:0.1;stroke-linecap:round;stroke-linejoin:round;stroke-miterlimit:4;stroke-dasharray:none;stroke-dashoffset:0;stroke-opacity:1;paint-order:markers fill stroke"
       id="path10277"
       d="m 185.35261,255.53408 c 0.0388,0.27876 0.0613,0.55935 0.0815,0.83994 0.0284,0.4082 0.0449,0.81708 0.0605,1.22592 0.0212,0.47545 0.0211,0.95167 0.0476,1.42683 0.0303,0.28658 0.0136,0.14084 0.0505,0.43721 0.34811,2.81337 -0.97813,2.97746 -1.32623,0.1641 v 0 c -0.0426,-0.34553 -0.0229,-0.16931 -0.0586,-0.52869 -0.0257,-0.48244 -0.0285,-0.9657 -0.0486,-1.44841 -0.0151,-0.39387 -0.0308,-0.78779 -0.0581,-1.18104 -0.0179,-0.24947 -0.0374,-0.49898 -0.0716,-0.74687 -0.4009,-2.80633 0.92201,-2.99532 1.32292,-0.18899 z"
       inkscape:connector-curvature="0" />
    <path
       style="opacity:1;fill:#000000;fill-opacity:1;fill-rule:nonzero;stroke:#000000;stroke-width:0.1;stroke-linecap:round;stroke-linejoin:round;stroke-miterlimit:4;stroke-dasharray:none;stroke-dashoffset:0;stroke-opacity:1;paint-order:markers fill stroke"
       id="path10279"
       d="m 184.91114,272.33221 c 0.11789,-0.21477 0.22208,-0.4371 0.31834,-0.66234 0.12375,-0.30729 0.1987,-0.62776 0.2494,-0.95398 0.0634,-0.39787 0.0605,-0.80153 0.0324,-1.20221 -0.0347,-0.40745 -0.13009,-0.80329 -0.25621,-1.19107 -0.0791,-0.20574 -0.1803,-0.41074 -0.36451,-0.54005 -0.11636,-0.008 0.0653,0.0331 0.10624,0.0308 -0.1328,0.15453 -0.21453,0.34095 -0.29302,0.52729 -0.14935,0.45664 -0.22773,0.93317 -0.28504,1.40899 -0.0729,0.63233 -0.0882,1.26949 -0.082,1.90543 -5.3e-4,0.64728 0.0705,1.28969 0.16466,1.92895 0.0792,0.56163 0.23609,1.10423 0.4591,1.6245 0.15953,0.3523 0.35878,0.68087 0.64309,0.94492 0.14794,0.13658 0.32048,0.20596 0.51923,0.21403 0.13807,5.3e-4 0.24971,-0.0558 0.34667,-0.15151 0.0928,-0.10232 0.11509,-0.25483 0.13013,-0.38872 0.0127,-0.195 -0.0537,-0.37025 -0.13778,-0.54159 -0.0802,-0.13935 -0.17428,-0.27571 -0.30641,-0.37 -2.17553,-1.81749 -1.31876,-2.84305 0.85678,-1.02556 v 0 c 0.27024,0.23589 0.50226,0.5037 0.66017,0.82951 0.18971,0.416 0.30597,0.85005 0.24792,1.31172 -0.0805,0.47116 -0.24252,0.91486 -0.62043,1.23168 -0.38764,0.29151 -0.81503,0.47226 -1.31049,0.43413 -0.49691,-0.0597 -0.9468,-0.23251 -1.31512,-0.58339 -0.40326,-0.39892 -0.71938,-0.86053 -0.94406,-1.38349 -0.26348,-0.62655 -0.45697,-1.27694 -0.55094,-1.95188 -0.10269,-0.69971 -0.17865,-1.4031 -0.17881,-2.11144 -0.006,-0.69434 0.011,-1.38992 0.0919,-2.08022 0.075,-0.60138 0.1749,-1.20491 0.38463,-1.77598 0.19638,-0.44734 0.42997,-0.87785 0.84982,-1.15363 0.48672,-0.2397 0.95831,-0.24322 1.40791,0.0895 0.37006,0.31441 0.63861,0.70354 0.79269,1.16742 0.15654,0.49215 0.27705,0.9942 0.31725,1.51071 0.0321,0.50024 0.0347,1.00355 -0.0458,1.49997 -0.0698,0.43547 -0.17285,0.86388 -0.34158,1.27284 -0.10724,0.24844 -0.22082,0.49491 -0.35084,0.73232 -1.26777,2.53554 -2.46303,1.93791 -1.19526,-0.59764 z"
       inkscape:connector-curvature="0" />
    <path
       style="opacity:1;fill:#000000;fill-opacity:1;fill-rule:nonzero;stroke:#000000;stroke-width:0.1;stroke-linecap:round;stroke-linejoin:round;stroke-miterlimit:4;stroke-dasharray:none;stroke-dashoffset:0;stroke-opacity:1;paint-order:markers fill stroke"
       id="path10281"
       d="m 51.16749,108.9921 c -0.03297,0.24265 -0.05299,0.48679 -0.07181,0.73086 -0.02606,0.35233 -0.04271,0.70526 -0.05792,1.0582 -0.01728,0.4133 -0.02906,0.82679 -0.03978,1.2403 -0.0077,0.21492 -0.0104,0.42955 -0.0068,0.64453 0.04086,2.83453 -1.29535,2.85379 -1.33621,0.0193 v 0 c -0.0029,-0.23297 -0.0019,-0.46558 0.0071,-0.69844 0.01093,-0.42117 0.02297,-0.84231 0.04058,-1.26326 0.0159,-0.36807 0.03335,-0.73613 0.06065,-1.10356 0.02111,-0.27283 0.04391,-0.5457 0.08127,-0.81688 0.400905,-2.80633 1.723821,-2.61735 1.322917,0.18898 z"
       inkscape:connector-curvature="0" />
    <path
       style="opacity:1;fill:#000000;fill-opacity:1;fill-rule:nonzero;stroke:#000000;stroke-width:0.1;stroke-linecap:round;stroke-linejoin:round;stroke-miterlimit:4;stroke-dasharray:none;stroke-dashoffset:0;stroke-opacity:1;paint-order:markers fill stroke"
       id="path10283"
       d="m 51.62239,122.28472 c -0.08191,0.18028 -0.18883,0.34908 -0.241969,0.54116 -0.07505,0.25692 -0.0914,0.5223 -0.105225,0.78783 -0.01834,0.3005 -0.01947,0.60064 -0.0087,0.90132 0.09947,2.83307 -1.236052,2.87997 -1.335525,0.0469 v 0 c -0.01172,-0.33984 -0.01072,-0.67925 0.0097,-1.01885 0.02032,-0.37864 0.05433,-0.75682 0.165968,-1.12145 0.08506,-0.25528 0.197678,-0.49564 0.320439,-0.73453 1.26777,-2.53554 2.463036,-1.93791 1.195266,0.59763 z"
       inkscape:connector-curvature="0" />
    <path
       style="opacity:1;fill:#000000;fill-opacity:1;fill-rule:nonzero;stroke:#000000;stroke-width:0.1;stroke-linecap:round;stroke-linejoin:round;stroke-miterlimit:4;stroke-dasharray:none;stroke-dashoffset:0;stroke-opacity:1;paint-order:markers fill stroke"
       id="path10285"
       d="m 52.23657,133.84817 c -0.02907,0.26416 -0.08204,0.52477 -0.124729,0.78693 -0.05483,0.3439 -0.09127,0.6903 -0.124326,1.03686 -0.01852,0.19784 -0.03308,0.396 -0.04766,0.59416 -0.208148,2.82717 -1.540889,2.72904 -1.332741,-0.0981 v 0 c 0.01532,-0.20781 0.03064,-0.41563 0.0501,-0.6231 0.03596,-0.37601 0.0759,-0.75182 0.135697,-1.12491 0.0414,-0.25348 0.09289,-0.50535 0.120735,-0.76081 0.400902,-2.80633 1.723818,-2.61734 1.322916,0.18899 z"
       inkscape:connector-curvature="0" />
    <path
       style="opacity:1;fill:#000000;fill-opacity:1;fill-rule:nonzero;stroke:#000000;stroke-width:0.1;stroke-linecap:round;stroke-linejoin:round;stroke-miterlimit:4;stroke-dasharray:none;stroke-dashoffset:0;stroke-opacity:1;paint-order:markers fill stroke"
       id="path10287"
       d="m 51.969299,144.80622 c -0.03297,0.24265 -0.05299,0.48678 -0.07181,0.73085 -0.01696,0.22684 -0.02913,0.45399 -0.0409,0.68114 -0.146896,2.83101 -1.481449,2.76177 -1.334553,-0.0693 v 0 c 0.01238,-0.23839 0.02522,-0.47678 0.04308,-0.71485 0.02111,-0.27283 0.04391,-0.5457 0.08127,-0.81688 0.400905,-2.80633 1.723822,-2.61734 1.322917,0.18899 z"
       inkscape:connector-curvature="0" />
    <path
       style="opacity:1;fill:#000000;fill-opacity:1;fill-rule:nonzero;stroke:#000000;stroke-width:0.1;stroke-linecap:round;stroke-linejoin:round;stroke-miterlimit:4;stroke-dasharray:none;stroke-dashoffset:0;stroke-opacity:1;paint-order:markers fill stroke"
       id="path10289"
       d="m 53.038377,156.56608 c -0.0365,0.22261 -0.02561,0.449 -0.02365,0.67367 0.0042,0.36013 0.0081,0.72027 0.01143,1.08042 5.29e-4,0.0664 0.0011,0.13273 0.0016,0.19909 0.0241,2.83472 -1.312204,2.84608 -1.3363,0.0113 v 0 c -5.29e-4,-0.066 -0.0011,-0.13208 -0.0016,-0.19812 -0.0033,-0.36045 -0.0073,-0.72089 -0.01143,-1.08133 -0.0024,-0.29167 -0.01037,-0.58512 0.03704,-0.87408 0.400904,-2.80633 1.723821,-2.61734 1.322916,0.18899 z"
       inkscape:connector-curvature="0" />
    <path
       style="opacity:1;fill:#000000;fill-opacity:1;fill-rule:nonzero;stroke:#000000;stroke-width:0.1;stroke-linecap:round;stroke-linejoin:round;stroke-miterlimit:4;stroke-dasharray:none;stroke-dashoffset:0;stroke-opacity:1;paint-order:markers fill stroke"
       id="path10291"
       d="m 53.572917,168.32594 c -0.03443,0.25394 -0.05147,0.50964 -0.0831,0.76388 -0.358524,2.81206 -1.684142,2.64305 -1.325615,-0.16901 v 0 c 0.03437,-0.2606 0.04719,-0.52367 0.0858,-0.78386 0.400904,-2.80633 1.723821,-2.61734 1.322915,0.18899 z"
       inkscape:connector-curvature="0" />
    <path
       style="opacity:1;fill:#000000;fill-opacity:1;fill-rule:nonzero;stroke:#000000;stroke-width:0.1;stroke-linecap:round;stroke-linejoin:round;stroke-miterlimit:4;stroke-dasharray:none;stroke-dashoffset:0;stroke-opacity:1;paint-order:markers fill stroke"
       id="path10293"
       d="m 53.305648,177.94764 c -0.03981,0.22358 -0.03867,0.44914 -0.03716,0.67523 0.0036,0.29402 0.0083,0.58802 0.0123,0.88203 0.03844,2.83456 -1.297784,2.85268 -1.336225,0.0181 v 0 c -0.004,-0.29729 -0.0088,-0.59457 -0.01238,-0.89186 -0.0016,-0.29191 0.0021,-0.58374 0.05057,-0.87251 0.400902,-2.80633 1.723818,-2.61734 1.322916,0.18899 z"
       inkscape:connector-curvature="0" />
    <path
       style="opacity:1;fill:#000000;fill-opacity:1;fill-rule:nonzero;stroke:#000000;stroke-width:0.1;stroke-linecap:round;stroke-linejoin:round;stroke-miterlimit:4;stroke-dasharray:none;stroke-dashoffset:0;stroke-opacity:1;paint-order:markers fill stroke"
       id="path10295"
       d="m 53.572917,188.10388 c -0.03297,0.24265 -0.05299,0.48678 -0.07181,0.73086 -0.218405,2.82639 -1.550781,2.72344 -1.332375,-0.10296 v 0 c 0.02111,-0.27283 0.04391,-0.54571 0.08127,-0.81689 0.400904,-2.80632 1.723821,-2.61734 1.322916,0.18899 z"
       inkscape:connector-curvature="0" />
    <path
       style="opacity:1;fill:#000000;fill-opacity:1;fill-rule:nonzero;stroke:#000000;stroke-width:0.1;stroke-linecap:round;stroke-linejoin:round;stroke-miterlimit:4;stroke-dasharray:none;stroke-dashoffset:0;stroke-opacity:1;paint-order:markers fill stroke"
       id="path10297"
       d="m 53.85481,198.4329 c 0,0.25796 0,0.51591 0,0.77387 0,0.36029 0,0.72059 0,1.08088 0,0.0662 0,0.13241 0,0.19861 0,2.83482 -1.336347,2.83482 -1.336347,0 v 0 c 0,-0.0662 0,-0.13241 0,-0.19861 0,-0.36029 0,-0.72059 0,-1.08088 0,-0.25796 0,-0.51591 0,-0.77387 0,-2.83482 1.336347,-2.83482 1.336347,0 z"
       inkscape:connector-curvature="0" />
    <path
       style="opacity:1;fill:#000000;fill-opacity:1;fill-rule:nonzero;stroke:#000000;stroke-width:0.1;stroke-linecap:round;stroke-linejoin:round;stroke-miterlimit:4;stroke-dasharray:none;stroke-dashoffset:0;stroke-opacity:1;paint-order:markers fill stroke"
       id="path10299"
       d="m 53.840186,209.48544 c -0.03297,0.24265 -0.05299,0.48679 -0.07181,0.73086 -0.01696,0.22684 -0.02912,0.45398 -0.0409,0.68114 -0.146894,2.83101 -1.481447,2.76176 -1.33455,-0.0692 v 0 c 0.01238,-0.2384 0.02521,-0.47679 0.04308,-0.71485 0.02111,-0.27283 0.04391,-0.54571 0.08127,-0.81688 0.400904,-2.80633 1.723821,-2.61734 1.322916,0.18898 z"
       inkscape:connector-curvature="0" />
    <path
       style="opacity:1;fill:#000000;fill-opacity:1;fill-rule:nonzero;stroke:#000000;stroke-width:0.1;stroke-linecap:round;stroke-linejoin:round;stroke-miterlimit:4;stroke-dasharray:none;stroke-dashoffset:0;stroke-opacity:1;paint-order:markers fill stroke"
       id="path10301"
       d="m 54.882364,218.92895 c -0.05994,0.23274 -0.124497,0.46265 -0.163105,0.70006 -0.02792,0.20107 -0.01455,0.0986 -0.03988,0.3076 -0.342866,2.81401 -1.669402,2.65238 -1.326536,-0.16163 v 0 c 0.02993,-0.24443 0.01384,-0.12261 0.04822,-0.36548 0.04858,-0.2869 0.121591,-0.56671 0.196371,-0.84768 0.778785,-2.72575 2.063715,-2.35862 1.28493,0.36713 z"
       inkscape:connector-curvature="0" />
    <path
       style="opacity:1;fill:#000000;fill-opacity:1;fill-rule:nonzero;stroke:#000000;stroke-width:0.1;stroke-linecap:round;stroke-linejoin:round;stroke-miterlimit:4;stroke-dasharray:none;stroke-dashoffset:0;stroke-opacity:1;paint-order:markers fill stroke"
       id="path10303"
       d="m 55.176533,228.72885 c -0.03297,0.24265 -0.05299,0.48678 -0.07181,0.73086 -0.02228,0.2126 -0.0232,0.42546 -0.02051,0.63886 0.03243,2.83464 -1.303832,2.84993 -1.336262,0.0153 v 0 c -0.0026,-0.25278 -5.29e-4,-0.50526 0.0244,-0.75712 0.02111,-0.27283 0.04391,-0.5457 0.08127,-0.81688 0.400905,-2.80633 1.723821,-2.61734 1.322917,0.18898 z"
       inkscape:connector-curvature="0" />
    <path
       style="opacity:1;fill:#000000;fill-opacity:1;fill-rule:nonzero;stroke:#000000;stroke-width:0.1;stroke-linecap:round;stroke-linejoin:round;stroke-miterlimit:4;stroke-dasharray:none;stroke-dashoffset:0;stroke-opacity:1;paint-order:markers fill stroke"
       id="path10305"
       d="m 55.978342,238.61782 c -0.03297,0.24265 -0.05299,0.48678 -0.07181,0.73086 -0.02819,0.33907 -0.04389,0.67804 -0.03786,1.01817 0.0016,0.064 0.0034,0.128 0.0052,0.192 0.07569,2.83381 -1.260184,2.86948 -1.33587,0.0357 v 0 c -0.0019,-0.0684 -0.0036,-0.13682 -0.0055,-0.20522 -0.0061,-0.38197 0.0097,-0.76284 0.04164,-1.14359 0.02111,-0.27283 0.04391,-0.54571 0.08127,-0.81689 0.400905,-2.80633 1.723821,-2.61734 1.322917,0.18899 z"
       inkscape:connector-curvature="0" />
    <path
       style="opacity:1;fill:#000000;fill-opacity:1;fill-rule:nonzero;stroke:#000000;stroke-width:0.1;stroke-linecap:round;stroke-linejoin:round;stroke-miterlimit:4;stroke-dasharray:none;stroke-dashoffset:0;stroke-opacity:1;paint-order:markers fill stroke"
       id="path10307"
       d="m 56.260235,247.34322 c -0.006,0.12455 -0.02281,0.24812 -0.03707,0.37187 -0.324339,2.8162 -1.651913,2.66331 -1.327571,-0.1529 v 0 c 0.0083,-0.0722 0.01392,-0.14767 0.02829,-0.21897 0,-2.83482 1.336347,-2.83482 1.336347,0 z"
       inkscape:connector-curvature="0" />
    <path
       style="opacity:1;fill:#000000;fill-opacity:1;fill-rule:nonzero;stroke:#000000;stroke-width:0.1;stroke-linecap:round;stroke-linejoin:round;stroke-miterlimit:4;stroke-dasharray:none;stroke-dashoffset:0;stroke-opacity:1;paint-order:markers fill stroke"
       id="path10323"
       d="m 179.47268,107.73404 c 0.0374,0.27118 0.0601,0.54405 0.0813,0.81688 0.0273,0.36744 0.0448,0.73549 0.0607,1.10356 0.0287,0.43471 0.01,0.86994 -0.006,1.30469 -0.0103,0.21543 -0.0159,0.43062 -0.015,0.64625 0.005,2.83482 -1.33158,2.83707 -1.33635,0.002 v 0 c 3e-5,-0.23245 0.004,-0.4645 0.0159,-0.69671 0.0144,-0.39951 0.0335,-0.79941 0.006,-1.19887 -0.0152,-0.35294 -0.0319,-0.70587 -0.0579,-1.05821 -0.0188,-0.24407 -0.0388,-0.4882 -0.0718,-0.73085 -0.4009,-2.80633 0.92201,-2.99532 1.32292,-0.18899 z"
       inkscape:connector-curvature="0" />
    <path
       style="opacity:1;fill:#000000;fill-opacity:1;fill-rule:nonzero;stroke:#000000;stroke-width:0.1;stroke-linecap:round;stroke-linejoin:round;stroke-miterlimit:4;stroke-dasharray:none;stroke-dashoffset:0;stroke-opacity:1;paint-order:markers fill stroke"
       id="path10325"
       d="m 180.54056,120.92474 c -0.01,0.24037 0.0104,0.47905 0.0304,0.71829 0.0277,0.35368 0.0506,0.70722 0.0915,1.05965 0.0479,0.3533 0.079,0.70757 0.0941,1.06367 0.117,2.8324 -1.21821,2.88756 -1.33521,0.0551 v 0 c -0.013,-0.32325 -0.043,-0.64451 -0.0863,-0.9652 -0.0423,-0.3666 -0.0676,-0.73421 -0.0957,-1.10211 -0.023,-0.2761 -0.0439,-0.55213 -0.035,-0.82945 0,-2.83482 1.33634,-2.83482 1.33634,0 z"
       inkscape:connector-curvature="0" />
    <path
       style="opacity:1;fill:#000000;fill-opacity:1;fill-rule:nonzero;stroke:#000000;stroke-width:0.1;stroke-linecap:round;stroke-linejoin:round;stroke-miterlimit:4;stroke-dasharray:none;stroke-dashoffset:0;stroke-opacity:1;paint-order:markers fill stroke"
       id="path10327"
       d="m 181.06048,132.51182 c -0.0582,0.25987 -0.1088,0.52096 -0.15035,0.78401 -0.0522,0.34358 -0.086,0.68956 -0.11677,1.03561 -0.0173,0.19816 -0.0309,0.39661 -0.0445,0.59505 -0.19422,2.82816 -1.52742,2.7366 -1.33321,-0.0916 v 0 c 0.0143,-0.2075 0.0285,-0.415 0.0467,-0.62221 0.0336,-0.37633 0.0707,-0.75255 0.12798,-1.12615 0.0407,-0.25604 0.0842,-0.51212 0.14729,-0.76374 0.40091,-2.80633 1.72382,-2.61734 1.32292,0.18899 z"
       inkscape:connector-curvature="0" />
    <path
       style="opacity:1;fill:#000000;fill-opacity:1;fill-rule:nonzero;stroke:#000000;stroke-width:0.1;stroke-linecap:round;stroke-linejoin:round;stroke-miterlimit:4;stroke-dasharray:none;stroke-dashoffset:0;stroke-opacity:1;paint-order:markers fill stroke"
       id="path10329"
       d="m 180.80783,142.84084 c 0,0.25795 0,0.51591 0,0.77387 0,0.36029 0,0.72058 0,1.08088 0,0.0662 0,0.1324 0,0.19861 0,2.83482 -1.33635,2.83482 -1.33635,0 v 0 c 0,-0.0662 0,-0.13241 0,-0.19861 0,-0.3603 0,-0.72059 0,-1.08088 0,-0.25796 0,-0.51592 0,-0.77387 0,-2.83482 1.33635,-2.83482 1.33635,0 z"
       inkscape:connector-curvature="0" />
    <path
       style="opacity:1;fill:#000000;fill-opacity:1;fill-rule:nonzero;stroke:#000000;stroke-width:0.1;stroke-linecap:round;stroke-linejoin:round;stroke-miterlimit:4;stroke-dasharray:none;stroke-dashoffset:0;stroke-opacity:1;paint-order:markers fill stroke"
       id="path10331"
       d="m 181.86229,153.89338 c -0.0291,0.26416 -0.082,0.52478 -0.12473,0.78693 -0.0478,0.3614 -0.10397,0.72124 -0.16271,1.08101 -0.01,0.0645 -0.02,0.12905 -0.0301,0.19358 -0.4355,2.80117 -1.75599,2.59587 -1.32049,-0.2053 v 0 c 0.0106,-0.0679 0.0211,-0.13576 0.0317,-0.20363 0.0587,-0.35971 0.11457,-0.71947 0.16267,-1.08076 0.0414,-0.25349 0.0929,-0.50536 0.12073,-0.76082 0.40091,-2.80633 1.72382,-2.61734 1.32292,0.18899 z"
       inkscape:connector-curvature="0" />
    <path
       style="opacity:1;fill:#000000;fill-opacity:1;fill-rule:nonzero;stroke:#000000;stroke-width:0.1;stroke-linecap:round;stroke-linejoin:round;stroke-miterlimit:4;stroke-dasharray:none;stroke-dashoffset:0;stroke-opacity:1;paint-order:markers fill stroke"
       id="path10333"
       d="m 181.59502,164.3169 c -0.033,0.24264 -0.053,0.48678 -0.0718,0.73085 -0.0125,0.16687 -0.022,0.33394 -0.0316,0.50101 -0.16162,2.83021 -1.49579,2.75402 -1.33417,-0.0762 v 0 c 0.0101,-0.17599 0.0201,-0.35199 0.0334,-0.52778 0.0211,-0.27283 0.0439,-0.5457 0.0813,-0.81688 0.40091,-2.80633 1.72382,-2.61735 1.32292,0.18899 z"
       inkscape:connector-curvature="0" />
    <path
       style="opacity:1;fill:#000000;fill-opacity:1;fill-rule:nonzero;stroke:#000000;stroke-width:0.1;stroke-linecap:round;stroke-linejoin:round;stroke-miterlimit:4;stroke-dasharray:none;stroke-dashoffset:0;stroke-opacity:1;paint-order:markers fill stroke"
       id="path10335"
       d="m 182.39683,173.9386 c -0.033,0.24264 -0.053,0.48678 -0.0718,0.73085 -0.005,0.33808 0.007,0.67618 0.0148,1.01415 0.005,0.20371 0.009,0.40745 0.0125,0.61118 0.0539,2.83431 -1.28219,2.85972 -1.3361,0.0254 v 0 c -0.004,-0.20203 -0.008,-0.40407 -0.0124,-0.60609 -0.009,-0.3824 -0.0238,-0.76516 -0.0112,-1.14761 0.0211,-0.27283 0.0439,-0.5457 0.0813,-0.81688 0.4009,-2.80633 1.72382,-2.61735 1.32292,0.18898 z"
       inkscape:connector-curvature="0" />
    <path
       style="opacity:1;fill:#000000;fill-opacity:1;fill-rule:nonzero;stroke:#000000;stroke-width:0.1;stroke-linecap:round;stroke-linejoin:round;stroke-miterlimit:4;stroke-dasharray:none;stroke-dashoffset:0;stroke-opacity:1;paint-order:markers fill stroke"
       id="path10337"
       d="m 182.94599,185.60396 c 0,0.25796 0,0.51592 0,0.77387 0,0.3603 0,0.72059 0,1.08088 0,0.0662 0,0.13241 0,0.19861 0,2.83482 -1.33635,2.83482 -1.33635,0 v 0 c 0,-0.0662 0,-0.13241 0,-0.19861 0,-0.36029 0,-0.72058 0,-1.08088 0,-0.25795 0,-0.51591 0,-0.77387 0,-2.83482 1.33635,-2.83482 1.33635,0 z"
       inkscape:connector-curvature="0" />
    <path
       style="opacity:1;fill:#000000;fill-opacity:1;fill-rule:nonzero;stroke:#000000;stroke-width:0.1;stroke-linecap:round;stroke-linejoin:round;stroke-miterlimit:4;stroke-dasharray:none;stroke-dashoffset:0;stroke-opacity:1;paint-order:markers fill stroke"
       id="path10339"
       d="m 183.48053,195.7602 c 0,0.25796 0,0.51592 0,0.77387 0,0.38013 0,0.76025 0,1.14037 0.002,0.4532 -0.0342,0.90557 -0.0606,1.35775 -0.16552,2.82998 -1.49959,2.75195 -1.33407,-0.078 v 0 c 0.0249,-0.4262 0.0601,-0.85259 0.0584,-1.27972 0,-0.38012 0,-0.76024 0,-1.14037 0,-0.25795 0,-0.51591 0,-0.77387 0,-2.83482 1.33635,-2.83482 1.33635,0 z"
       inkscape:connector-curvature="0" />
    <path
       style="opacity:1;fill:#000000;fill-opacity:1;fill-rule:nonzero;stroke:#000000;stroke-width:0.1;stroke-linecap:round;stroke-linejoin:round;stroke-miterlimit:4;stroke-dasharray:none;stroke-dashoffset:0;stroke-opacity:1;paint-order:markers fill stroke"
       id="path10341"
       d="m 184.00044,206.81275 c -0.0365,0.22261 -0.0256,0.449 -0.0237,0.67366 0.0259,0.33672 0.0475,0.67421 0.0872,1.00962 0.0359,0.27254 0.07,0.54529 0.10223,0.81828 0.33178,2.81534 -0.99538,2.97174 -1.32716,0.15641 v 0 c -0.0322,-0.27383 -0.0668,-0.54735 -0.10252,-0.82074 -0.0437,-0.38284 -0.0727,-0.76757 -0.096,-1.15215 -0.002,-0.29166 -0.0104,-0.58511 0.037,-0.87407 0.4009,-2.80633 1.72382,-2.61734 1.32291,0.18899 z"
       inkscape:connector-curvature="0" />
    <path
       style="opacity:1;fill:#000000;fill-opacity:1;fill-rule:nonzero;stroke:#000000;stroke-width:0.1;stroke-linecap:round;stroke-linejoin:round;stroke-miterlimit:4;stroke-dasharray:none;stroke-dashoffset:0;stroke-opacity:1;paint-order:markers fill stroke"
       id="path10345"
       d="m 184.54961,217.14177 c 0.007,0.2396 0.0369,0.47865 0.0571,0.71764 0.0304,0.36761 0.0504,0.73595 0.0685,1.10433 0.01,0.20531 0.0177,0.41072 0.0255,0.61613 0.10724,2.83279 -1.22815,2.88335 -1.33539,0.0505 v 0 c -0.008,-0.2004 -0.0152,-0.4008 -0.0248,-0.60112 -0.0173,-0.35274 -0.0364,-0.70543 -0.0654,-1.05743 -0.0233,-0.27638 -0.0584,-0.55264 -0.0619,-0.8301 0,-2.83483 1.33635,-2.83483 1.33635,0 z"
       inkscape:connector-curvature="0" />
    <path
       style="opacity:1;fill:#000000;fill-opacity:1;fill-rule:nonzero;stroke:#000000;stroke-width:0.1;stroke-linecap:round;stroke-linejoin:round;stroke-miterlimit:4;stroke-dasharray:none;stroke-dashoffset:0;stroke-opacity:1;paint-order:markers fill stroke"
       id="path10347"
       d="m 184.81688,228.63436 c -0.004,0.24212 -2.7e-4,0.48322 0.0177,0.72466 0.0307,0.36317 0.0555,0.72676 0.0771,1.09056 0.0147,0.27042 0.008,0.13452 0.0213,0.40771 0.14167,2.83128 -1.19301,2.89807 -1.33468,0.0668 v 0 c -0.0133,-0.26519 -0.006,-0.13337 -0.0206,-0.39545 -0.0212,-0.35735 -0.0457,-0.71448 -0.0758,-1.0712 -0.02,-0.2742 -0.0262,-0.54817 -0.0214,-0.82307 0,-2.83483 1.33634,-2.83483 1.33634,0 z"
       inkscape:connector-curvature="0" />
    <path
       style="opacity:1;fill:#000000;fill-opacity:1;fill-rule:nonzero;stroke:#000000;stroke-width:0.1;stroke-linecap:round;stroke-linejoin:round;stroke-miterlimit:4;stroke-dasharray:none;stroke-dashoffset:0;stroke-opacity:1;paint-order:markers fill stroke"
       id="path10349"
       d="m 185.60406,238.88509 c -0.033,0.24265 -0.053,0.48679 -0.0718,0.73086 -0.005,0.31363 0.007,0.62728 0.0148,0.94079 0.0693,2.83397 -1.26666,2.86663 -1.33595,0.0327 v 0 c -0.009,-0.35867 -0.0239,-0.71769 -0.0112,-1.07641 0.0211,-0.27283 0.0439,-0.54571 0.0813,-0.81689 0.4009,-2.80633 1.72381,-2.61734 1.32291,0.18899 z"
       inkscape:connector-curvature="0" />
    <path
       style="opacity:1;fill:#000000;fill-opacity:1;fill-rule:nonzero;stroke:#000000;stroke-width:0.1;stroke-linecap:round;stroke-linejoin:round;stroke-miterlimit:4;stroke-dasharray:none;stroke-dashoffset:0;stroke-opacity:1;paint-order:markers fill stroke"
       id="path10353"
       d="m 185.61868,247.87776 c 0,0.25796 0,0.51591 0,0.77387 0.002,0.0443 0.005,0.0886 0.007,0.13289 0.13578,2.83157 -1.19903,2.89558 -1.33482,0.064 v 0 c -0.003,-0.0656 -0.006,-0.13126 -0.009,-0.1969 0,-0.25796 0,-0.51591 0,-0.77387 0,-2.83482 1.33635,-2.83482 1.33635,0 z"
       inkscape:connector-curvature="0" />
    <path
       style="opacity:1;fill:#000000;fill-opacity:1;fill-rule:nonzero;stroke:#000000;stroke-width:0.1;stroke-linecap:round;stroke-linejoin:round;stroke-miterlimit:4;stroke-dasharray:none;stroke-dashoffset:0;stroke-opacity:1;paint-order:markers fill stroke"
       id="path10355"
       d="m 25.178687,200.38207 c 0.257957,0 0.515913,0 0.77387,0 0.366358,-0.01 0.731426,0.008 1.096649,0.0344 0.282588,0.0331 0.139901,0.0122 0.427955,0.0636 2.78782,0.51407 2.545485,1.82826 -0.242334,1.31419 v 0 c -0.185039,-0.0359 -0.09089,-0.0208 -0.282512,-0.0449 -0.333036,-0.0242 -0.665628,-0.0408 -0.999758,-0.0309 -0.257957,0 -0.515913,0 -0.77387,0 -2.834821,0 -2.834821,-1.33635 0,-1.33635 z"
       inkscape:connector-curvature="0" />
    <path
       style="opacity:1;fill:#000000;fill-opacity:1;fill-rule:nonzero;stroke:#000000;stroke-width:0.1;stroke-linecap:round;stroke-linejoin:round;stroke-miterlimit:4;stroke-dasharray:none;stroke-dashoffset:0;stroke-opacity:1;paint-order:markers fill stroke"
       id="path10381"
       d="m 34.800389,200.91661 c 0.264469,0 0.528936,0 0.793406,0 0.40115,-0.0102 0.801224,0.0213 1.201142,0.0476 0.210831,0.0141 0.421788,0.026 0.632751,0.0379 2.830359,0.159 2.755405,1.49324 -0.07495,1.33424 v 0 c -0.215215,-0.0121 -0.430424,-0.0243 -0.645504,-0.0386 -0.370742,-0.0244 -0.741529,-0.055 -1.113435,-0.0447 -0.26447,0 -0.528937,0 -0.793406,0 -2.83482,0 -2.83482,-1.33635 0,-1.33635 z"
       inkscape:connector-curvature="0" />
    <path
       style="opacity:1;fill:#000000;fill-opacity:1;fill-rule:nonzero;stroke:#000000;stroke-width:0.1;stroke-linecap:round;stroke-linejoin:round;stroke-miterlimit:4;stroke-dasharray:none;stroke-dashoffset:0;stroke-opacity:1;paint-order:markers fill stroke"
       id="path10383"
       d="m 45.396676,200.91542 c 0.271182,-0.0374 0.544052,-0.0602 0.816885,-0.0813 0.35872,-0.0127 0.717746,0.002 1.07641,0.0112 0.25695,0.006 0.513932,0.0113 0.770914,0.0161 2.834338,0.0525 2.809602,1.38859 -0.02474,1.33612 v 0 c -0.259625,-0.005 -0.519247,-0.01 -0.778841,-0.0162 -0.313512,-0.008 -0.62716,-0.0194 -0.940789,-0.0148 -0.244073,0.0188 -0.488207,0.0388 -0.730856,0.0718 -2.80633,0.4009 -2.995319,-0.92202 -0.188989,-1.32292 z"
       inkscape:connector-curvature="0" />
    <path
       style="opacity:1;fill:#000000;fill-opacity:1;fill-rule:nonzero;stroke:#000000;stroke-width:0.1;stroke-linecap:round;stroke-linejoin:round;stroke-miterlimit:4;stroke-dasharray:none;stroke-dashoffset:0;stroke-opacity:1;paint-order:markers fill stroke"
       id="path10385"
       d="m 58.671086,200.65923 c 0.266248,-0.0779 0.532196,-0.1552 0.802111,-0.21997 0.381855,-0.0884 0.769519,-0.14753 1.157904,-0.19825 0.222218,-0.028 0.445132,-0.0498 0.66802,-0.0717 2.821334,-0.27619 2.95153,1.05381 0.130196,1.32999 v 0 c -0.208796,0.0204 -0.417621,0.0408 -0.625806,0.0669 -0.34196,0.0443 -0.683318,0.0958 -1.019675,0.17281 -0.251095,0.0597 -0.498038,0.13275 -0.745627,0.20516 -2.725748,0.77879 -3.092871,-0.50614 -0.367123,-1.28493 z"
       inkscape:connector-curvature="0" />
    <path
       style="opacity:1;fill:#000000;fill-opacity:1;fill-rule:nonzero;stroke:#000000;stroke-width:0.1;stroke-linecap:round;stroke-linejoin:round;stroke-miterlimit:4;stroke-dasharray:none;stroke-dashoffset:0;stroke-opacity:1;paint-order:markers fill stroke"
       id="path10387"
       d="m 69.985474,199.84634 c 0.297833,-0.0411 0.597487,-0.0662 0.897911,-0.0751 0.393615,-8e-4 0.787156,0.01 1.180682,0.0172 2.83433,0.0528 2.809459,1.38888 -0.02487,1.33611 v 0 c -0.37415,-0.007 -0.748303,-0.0166 -1.122527,-0.0173 -0.24838,0.004 -0.495897,0.0305 -0.742209,0.0621 -2.806329,0.40091 -2.995316,-0.92201 -0.188986,-1.32291 z"
       inkscape:connector-curvature="0" />
    <path
       style="opacity:1;fill:#000000;fill-opacity:1;fill-rule:nonzero;stroke:#000000;stroke-width:0.1;stroke-linecap:round;stroke-linejoin:round;stroke-miterlimit:4;stroke-dasharray:none;stroke-dashoffset:0;stroke-opacity:1;paint-order:markers fill stroke"
       id="path10389"
       d="m 81.572557,199.31299 c 0.257955,0 0.515913,0 0.773869,0 0.37569,0 0.751382,0 1.127072,0 2.83482,0 2.83482,1.33635 0,1.33635 v 0 c -0.37569,0 -0.751382,0 -1.127072,0 -0.257956,0 -0.515914,0 -0.773869,0 -2.834823,0 -2.834823,-1.33635 0,-1.33635 z"
       inkscape:connector-curvature="0" />
    <path
       style="opacity:1;fill:#000000;fill-opacity:1;fill-rule:nonzero;stroke:#000000;stroke-width:0.1;stroke-linecap:round;stroke-linejoin:round;stroke-miterlimit:4;stroke-dasharray:none;stroke-dashoffset:0;stroke-opacity:1;paint-order:markers fill stroke"
       id="path10391"
       d="m 93.065146,199.04572 c 0.257956,0 0.515914,0 0.77387,0 0.366805,0 0.73361,0 1.100415,0 0.07058,0 0.141168,0 0.211751,0 2.83482,0 2.83482,1.33635 0,1.33635 v 0 c -0.07058,0 -0.141168,0 -0.211751,0 -0.366805,0 -0.73361,0 -1.100415,0 -0.257956,0 -0.515914,0 -0.77387,0 -2.834822,0 -2.834822,-1.33635 0,-1.33635 z"
       inkscape:connector-curvature="0" />
    <path
       style="opacity:1;fill:#000000;fill-opacity:1;fill-rule:nonzero;stroke:#000000;stroke-width:0.1;stroke-linecap:round;stroke-linejoin:round;stroke-miterlimit:4;stroke-dasharray:none;stroke-dashoffset:0;stroke-opacity:1;paint-order:markers fill stroke"
       id="path10393"
       d="m 106.6014,199.04453 c 0.27118,-0.0374 0.54405,-0.0602 0.81688,-0.0813 0.38245,-0.0126 0.76521,0.002 1.14762,0.0112 0.26526,0.006 0.13194,0.003 0.39998,0.008 2.83423,0.058 2.80691,1.39402 -0.0273,1.33607 v 0 c -0.2703,-0.006 -0.13592,-0.003 -0.40317,-0.009 -0.33797,-0.008 -0.67607,-0.0195 -1.01415,-0.0148 -0.24407,0.0188 -0.48821,0.0388 -0.73085,0.0718 -2.80633,0.40091 -2.99532,-0.92201 -0.18899,-1.32291 z"
       inkscape:connector-curvature="0" />
    <path
       style="opacity:1;fill:#000000;fill-opacity:1;fill-rule:nonzero;stroke:#000000;stroke-width:0.1;stroke-linecap:round;stroke-linejoin:round;stroke-miterlimit:4;stroke-dasharray:none;stroke-dashoffset:0;stroke-opacity:1;paint-order:markers fill stroke"
       id="path10395"
       d="m 118.8958,199.3118 c 0.24216,-0.0228 0.48089,-0.0639 0.72025,-0.10589 0.34878,-0.0615 0.70055,-0.10283 1.05263,-0.13978 2.81939,-0.29533 2.95861,1.03375 0.13921,1.32908 v 0 c -0.3214,0.0336 -0.64258,0.071 -0.96098,0.12696 -0.25317,0.0444 -0.5061,0.0879 -0.76213,0.11255 -2.80633,0.4009 -2.99531,-0.92202 -0.18898,-1.32292 z"
       inkscape:connector-curvature="0" />
    <path
       style="opacity:1;fill:#000000;fill-opacity:1;fill-rule:nonzero;stroke:#000000;stroke-width:0.1;stroke-linecap:round;stroke-linejoin:round;stroke-miterlimit:4;stroke-dasharray:none;stroke-dashoffset:0;stroke-opacity:1;paint-order:markers fill stroke"
       id="path10397"
       d="m 131.45746,198.77726 c 0.23745,-0.0238 0.47017,-0.0771 0.70483,-0.11906 0.35131,-0.0614 0.70582,-0.10122 1.0605,-0.13703 0.065,-0.006 0.12998,-0.012 0.19498,-0.0179 2.82294,-0.25926 2.94516,1.07149 0.12222,1.33075 v 0 c -0.0611,0.006 -0.12213,0.0112 -0.18319,0.0168 -0.32096,0.0323 -0.64183,0.0678 -0.95981,0.12299 -0.2498,0.0445 -0.49784,0.1005 -0.75054,0.1264 -2.80633,0.40091 -2.99532,-0.92201 -0.18899,-1.32291 z"
       inkscape:connector-curvature="0" />
    <path
       style="opacity:1;fill:#000000;fill-opacity:1;fill-rule:nonzero;stroke:#000000;stroke-width:0.1;stroke-linecap:round;stroke-linejoin:round;stroke-miterlimit:4;stroke-dasharray:none;stroke-dashoffset:0;stroke-opacity:1;paint-order:markers fill stroke"
       id="path10399"
       d="m 141.7082,198.51118 c 0.15579,0 0.31157,0 0.46736,0 2.83482,0 2.83482,1.33635 0,1.33635 v 0 c -0.15579,0 -0.31157,0 -0.46736,0 -2.83482,0 -2.83482,-1.33635 0,-1.33635 z"
       inkscape:connector-curvature="0" />
    <path
       style="opacity:1;fill:#000000;fill-opacity:1;fill-rule:nonzero;stroke:#000000;stroke-width:0.1;stroke-linecap:round;stroke-linejoin:round;stroke-miterlimit:4;stroke-dasharray:none;stroke-dashoffset:0;stroke-opacity:1;paint-order:markers fill stroke"
       id="path10401"
       d="m 150.70087,198.77726 c 0.27118,-0.0374 0.54405,-0.0602 0.81689,-0.0813 0.30197,-0.0226 0.60441,-0.0379 0.90687,-0.0522 2.83166,-0.13383 2.89475,1.20103 0.0631,1.33486 v 0 c -0.28916,0.0137 -0.5783,0.0282 -0.86701,0.0497 -0.24407,0.0188 -0.4882,0.0388 -0.73085,0.0718 -2.80633,0.4009 -2.99532,-0.92202 -0.18899,-1.32292 z"
       inkscape:connector-curvature="0" />
    <path
       style="opacity:1;fill:#000000;fill-opacity:1;fill-rule:nonzero;stroke:#000000;stroke-width:0.1;stroke-linecap:round;stroke-linejoin:round;stroke-miterlimit:4;stroke-dasharray:none;stroke-dashoffset:0;stroke-opacity:1;paint-order:markers fill stroke"
       id="path10403"
       d="m 161.75341,198.24391 c 0.25796,0 0.51592,0 0.77387,0 0.36944,0.002 0.73889,-0.006 1.10811,0.008 0.0701,0.004 0.14029,0.008 0.21043,0.0122 2.82998,0.16568 2.75188,1.49974 -0.0781,1.33407 v 0 c -0.0623,-0.004 -0.12452,-0.007 -0.18677,-0.011 -0.35095,-0.0155 -0.70246,-0.004 -1.05367,-0.007 -0.25795,0 -0.51591,0 -0.77387,0 -2.83482,0 -2.83482,-1.33635 0,-1.33635 z"
       inkscape:connector-curvature="0" />
    <path
       style="opacity:1;fill:#000000;fill-opacity:1;fill-rule:nonzero;stroke:#000000;stroke-width:0.1;stroke-linecap:round;stroke-linejoin:round;stroke-miterlimit:4;stroke-dasharray:none;stroke-dashoffset:0;stroke-opacity:1;paint-order:markers fill stroke"
       id="path10405"
       d="m 172.08243,198.50999 c 0.27118,-0.0374 0.54405,-0.0601 0.81689,-0.0813 0.38245,-0.0385 0.76666,-0.025 1.15008,-0.0148 0.0664,0.002 0.13283,0.004 0.19924,0.005 2.83375,0.0779 2.79704,1.41373 -0.0367,1.33585 v 0 c -0.066,-0.002 -0.13198,-0.004 -0.19797,-0.005 -0.33728,-0.009 -0.67527,-0.0235 -1.01169,0.0113 -0.24407,0.0188 -0.4882,0.0388 -0.73085,0.0718 -2.80633,0.40091 -2.99532,-0.92201 -0.18899,-1.32292 z"
       inkscape:connector-curvature="0" />
    <path
       style="opacity:1;fill:#000000;fill-opacity:1;fill-rule:nonzero;stroke:#000000;stroke-width:0.1;stroke-linecap:round;stroke-linejoin:round;stroke-miterlimit:4;stroke-dasharray:none;stroke-dashoffset:0;stroke-opacity:1;paint-order:markers fill stroke"
       id="path10407"
       d="m 184.73859,198.51118 c 0.15579,0 0.31158,0 0.46737,0 2.83482,0 2.83482,1.33635 0,1.33635 v 0 c -0.15579,0 -0.31158,0 -0.46737,0 -2.83482,0 -2.83482,-1.33635 0,-1.33635 z"
       inkscape:connector-curvature="0" />
    <path
       style="opacity:1;fill:#000000;fill-opacity:1;fill-rule:nonzero;stroke:#000000;stroke-width:0.1;stroke-linecap:round;stroke-linejoin:round;stroke-miterlimit:4;stroke-dasharray:none;stroke-dashoffset:0;stroke-opacity:1;paint-order:markers fill stroke"
       id="path10409"
       d="m 193.99853,198.50999 c 0.27118,-0.0374 0.54405,-0.0601 0.81689,-0.0813 0.36743,-0.0273 0.73549,-0.0448 1.10356,-0.0607 0.20504,-0.009 0.41014,-0.0155 0.61525,-0.0223 2.83326,-0.0941 2.87762,1.24151 0.0444,1.33561 v 0 c -0.20069,0.007 -0.40139,0.0133 -0.60201,0.0218 -0.35294,0.0152 -0.70587,0.0319 -1.0582,0.0579 -0.24408,0.0188 -0.48821,0.0388 -0.73086,0.0718 -2.80633,0.40091 -2.99532,-0.92201 -0.18899,-1.32292 z"
       inkscape:connector-curvature="0" />
    <path
       style="opacity:1;fill:#000000;fill-opacity:1;fill-rule:nonzero;stroke:#000000;stroke-width:0.1;stroke-linecap:round;stroke-linejoin:round;stroke-miterlimit:4;stroke-dasharray:none;stroke-dashoffset:0;stroke-opacity:1;paint-order:markers fill stroke"
       id="path10411"
       d="m 208.96563,199.04453 c 0.28318,-0.0397 0.56841,-0.0612 0.8535,-0.0816 0.38276,-0.0298 0.76699,-0.0355 1.14956,-0.0668 2.8259,-0.22462 2.93179,1.10753 0.10588,1.33214 v 0 c -0.38633,0.03 -0.77385,0.0395 -1.16037,0.0676 -0.25368,0.018 -0.50754,0.0366 -0.75959,0.0715 -2.80633,0.4009 -2.99531,-0.92202 -0.18898,-1.32292 z"
       inkscape:connector-curvature="0" />
    <path
       style="opacity:1;fill:#000000;fill-opacity:1;fill-rule:nonzero;stroke:#000000;stroke-width:0.09999999;stroke-linecap:round;stroke-linejoin:round;stroke-miterlimit:4;stroke-dasharray:none;stroke-dashoffset:0;stroke-opacity:1;paint-order:markers fill stroke"
       id="path10419"
       d="m 54.407398,136.14269 c 0.110996,0.16679 0.231805,0.32567 0.359006,0.48103 0.24213,0.26576 0.499651,0.51772 0.75469,0.77155 0.353562,0.3344 0.733074,0.64149 1.111375,0.94854 0.490851,0.401 1.021204,0.75099 1.555562,1.09328 0.683914,0.4327 1.385732,0.83735 2.089674,1.23787 0.845119,0.47361 1.688084,0.95071 2.537018,1.41778 0.996211,0.53797 1.993034,1.07484 2.994531,1.60337 1.142457,0.60101 2.288897,1.19474 3.43805,1.78342 1.2717,0.65443 2.540955,1.31337 3.809881,1.97293 1.354991,0.70944 2.711887,1.41538 4.067869,2.12302 1.425509,0.74817 2.854874,1.48935 4.288232,2.22304 1.507238,0.76985 3.013342,1.54179 4.517462,2.31745 1.552438,0.79784 3.109782,1.58645 4.666156,2.37691 1.581851,0.80387 3.171647,1.5925 4.76539,2.37355 1.579254,0.78606 3.16269,1.56397 4.740656,2.35253 1.55934,0.76979 3.11519,1.5462 4.66908,2.32645 1.52743,0.75989 3.05257,1.52421 4.57482,2.29397 1.4773,0.7416 2.94838,1.49493 4.42839,2.23138 1.43208,0.7116 2.86435,1.4227 4.30048,2.12644 1.40676,0.6765 2.8093,1.36132 4.21621,2.03749 1.37179,0.66412 2.75624,1.30266 4.14051,1.94139 1.35551,0.62547 2.72254,1.22676 4.07861,1.85101 1.33423,0.61562 2.66576,1.23673 4.00108,1.85008 1.30768,0.59908 2.61776,1.19321 3.92996,1.7828 1.277,0.55581 2.5584,1.10188 3.83578,1.65687 1.2206,0.51858 2.44273,1.03355 3.67045,1.5358 1.16247,0.47686 2.32789,0.9468 3.49759,1.40645 1.09451,0.43315 2.18771,0.8694 3.28083,1.3059 1.00564,0.41538 2.02083,0.80813 3.02695,1.22232 0.92462,0.37833 1.85224,0.7496 2.77775,1.12584 0.86148,0.34451 1.72016,0.69585 2.56912,1.06896 0.79792,0.3372 1.58696,0.69357 2.37834,1.04493 0.74903,0.33442 1.49595,0.67333 2.24857,0.99997 0.71493,0.31142 1.42706,0.62887 2.14017,0.94423 0.66527,0.28799 1.3315,0.57373 1.99835,0.85817 0.65107,0.26782 1.30106,0.53844 1.95472,0.80019 0.6417,0.25026 1.2867,0.4921 1.93214,0.73295 0.62239,0.24252 1.25025,0.47119 1.87272,0.71353 0.59454,0.23098 1.19343,0.45098 1.79062,0.67525 0.58607,0.2123 1.17072,0.42808 1.75427,0.64692 0.55567,0.20278 1.10716,0.41644 1.6564,0.63528 0.48329,0.18651 0.9559,0.39758 1.44845,0.56044 0.072,0.0214 0.14394,0.0428 0.21592,0.0642 2.81222,0.84067 2.40685,2.13668 -0.40538,1.29601 v 0 c -0.086,-0.0259 -0.17192,-0.0516 -0.25788,-0.0775 -0.51738,-0.17353 -1.01708,-0.38891 -1.52432,-0.58817 -0.54038,-0.21531 -1.08293,-0.42561 -1.62968,-0.62496 -0.58379,-0.21893 -1.16873,-0.43471 -1.75501,-0.64718 -0.60245,-0.22637 -1.20669,-0.44819 -1.80648,-0.68133 -0.61617,-0.24008 -1.23793,-0.46605 -1.854,-0.70639 -0.65592,-0.24478 -1.31141,-0.49056 -1.96346,-0.74506 -0.66318,-0.26583 -1.32292,-0.53999 -1.98343,-0.81207 -0.67252,-0.28689 -1.34444,-0.57502 -2.01535,-0.86554 -0.71016,-0.31409 -1.41938,-0.63023 -2.13137,-0.94037 -0.75615,-0.32831 -1.50676,-0.66857 -2.25929,-1.00469 -0.78978,-0.35078 -1.57733,-0.70625 -2.37364,-1.04285 -0.83681,-0.36808 -1.68364,-0.71377 -2.53282,-1.05361 -0.92741,-0.37706 -1.857,-0.74904 -2.78354,-1.1282 -1.00143,-0.41243 -2.01209,-0.80303 -3.01302,-1.21669 -1.09074,-0.43554 -2.18156,-0.87087 -3.2737,-1.30305 -1.17575,-0.46205 -2.3472,-0.93439 -3.51569,-1.41372 -1.23704,-0.50607 -2.46848,-1.02493 -3.6983,-1.54755 -1.28271,-0.5573 -2.56951,-1.10551 -3.85172,-1.66391 -1.31571,-0.59119 -2.62934,-1.1869 -3.94053,-1.7876 -1.3357,-0.61352 -2.66761,-1.2348 -4.0022,-1.8506 -1.35637,-0.62455 -2.72391,-1.22569 -4.0797,-1.85151 -1.39093,-0.6418 -2.782,-1.28346 -4.16039,-1.95076 -1.41013,-0.67772 -2.81587,-1.36406 -4.22581,-2.04214 -1.43869,-0.70499 -2.87351,-1.41736 -4.30812,-2.13022 -1.48269,-0.73782 -2.95649,-1.49243 -4.43645,-2.23542 -1.52108,-0.76917 -3.04504,-1.5329 -4.57129,-2.2922 -1.55309,-0.77984 -3.10816,-1.55584 -4.666698,-2.32525 -1.574721,-0.78694 -3.15493,-1.56323 -4.730934,-2.34771 -1.599699,-0.784 -3.195451,-1.57557 -4.783222,-2.38245 -1.558945,-0.79176 -3.118865,-1.58168 -4.673864,-2.38085 -1.502868,-0.77503 -3.007721,-1.54631 -4.513707,-2.31552 -1.436614,-0.7354 -2.869261,-1.47822 -4.298014,-2.22811 -1.355298,-0.70728 -2.71152,-1.41286 -4.065833,-2.12195 -1.266477,-0.65829 -2.533283,-1.31597 -3.802527,-1.96914 -1.154195,-0.59129 -2.305696,-1.18761 -3.453171,-1.79128 -1.008623,-0.53236 -2.012608,-1.07299 -3.015886,-1.61488 -0.854757,-0.4703 -1.703543,-0.95064 -2.554449,-1.42753 -0.725136,-0.41263 -1.44798,-0.8297 -2.152319,-1.27574 -0.577762,-0.3704 -1.150398,-0.75019 -1.681111,-1.18401 -0.414322,-0.33631 -0.829548,-0.67325 -1.214829,-1.04156 -0.288252,-0.2869 -0.580224,-0.57111 -0.849108,-0.87572 -0.186953,-0.22945 -0.366537,-0.46528 -0.515525,-0.72046 -1.31515,-2.5714 -0.07521,-3.1775 1.239935,-0.60608 z"
       inkscape:connector-curvature="0" />
    <circle
       style="opacity:1;fill:#000000;fill-opacity:1;fill-rule:nonzero;stroke:#000000;stroke-width:0.1;stroke-linecap:round;stroke-linejoin:round;stroke-miterlimit:4;stroke-dasharray:none;stroke-dashoffset:0;stroke-opacity:1;paint-order:markers fill stroke"
       id="path10427"
       cx="53.780678"
       cy="201.67513"
       r="2.613189" />
    <circle
       style="opacity:1;fill:#000000;fill-opacity:1;fill-rule:nonzero;stroke:#000000;stroke-width:0.1;stroke-linecap:round;stroke-linejoin:round;stroke-miterlimit:4;stroke-dasharray:none;stroke-dashoffset:0;stroke-opacity:1;paint-order:markers fill stroke"
       id="path10427-4"
       cx="182.54509"
       cy="198.91208"
       r="2.6131892" />
    <path
       style="opacity:1;fill:#000000;fill-opacity:1;fill-rule:nonzero;stroke:#000000;stroke-width:0.1;stroke-linecap:round;stroke-linejoin:round;stroke-miterlimit:4;stroke-dasharray:none;stroke-dashoffset:0;stroke-opacity:1;paint-order:markers fill stroke"
       id="path10444"
       d="m 55.181264,136.51008 c 0.09596,0.24079 0.202321,0.47769 0.316444,0.71046 0.20452,0.39675 0.43569,0.77883 0.664258,1.16198 0.276831,0.46038 0.565811,0.91341 0.849871,1.36938 0.294243,0.44707 0.589494,0.89358 0.89517,1.33294 0.251465,0.36535 0.510132,0.72797 0.795649,1.06777 0.103127,0.13838 0.221594,0.26287 0.340731,0.38686 1.958652,2.04936 0.992573,2.97268 -0.966081,0.92332 v 0 c -0.138774,-0.14651 -0.278723,-0.29193 -0.400389,-0.45363 -0.308875,-0.37162 -0.594775,-0.76268 -0.86722,-1.16161 -0.318074,-0.45801 -0.62652,-0.92264 -0.932127,-1.38906 -0.288596,-0.46329 -0.582178,-0.92359 -0.863311,-1.39143 -0.247568,-0.41516 -0.497748,-0.82932 -0.717405,-1.2602 -0.147529,-0.30318 -0.290057,-0.61087 -0.400521,-0.92966 -0.778785,-2.72575 0.506146,-3.09287 1.284931,-0.36712 z"
       inkscape:connector-curvature="0" />
    <path
       style="opacity:1;fill:#000000;fill-opacity:1;fill-rule:nonzero;stroke:#000000;stroke-width:0.1;stroke-linecap:round;stroke-linejoin:round;stroke-miterlimit:4;stroke-dasharray:none;stroke-dashoffset:0;stroke-opacity:1;paint-order:markers fill stroke"
       id="path10446"
       d="m 53.265628,134.19349 c 0.242821,0.13671 0.481922,0.27967 0.726625,0.41316 0.36417,0.19391 0.739891,0.36442 1.112065,0.5421 0.446518,0.21118 0.907063,0.39053 1.364504,0.5762 0.472699,0.20166 0.964475,0.35078 1.450498,0.51537 2.684614,0.91053 2.255385,2.17607 -0.429228,1.26554 v 0 c -0.510603,-0.17347 -1.027316,-0.3305 -1.523979,-0.54272 -0.482113,-0.19579 -0.967327,-0.38529 -1.43769,-0.6085 -0.393914,-0.18819 -0.791543,-0.36894 -1.176584,-0.57509 -0.230465,-0.12594 -0.457655,-0.25742 -0.683844,-0.39079 -2.535542,-1.26778 -1.937909,-2.46304 0.597633,-1.19527 z"
       inkscape:connector-curvature="0" />
  </g>
</svg>
