<?xml version="1.0" encoding="UTF-8" standalone="no"?>
<!-- Created with Inkscape (http://www.inkscape.org/) -->

<svg
   xmlns:dc="http://purl.org/dc/elements/1.1/"
   xmlns:cc="http://creativecommons.org/ns#"
   xmlns:rdf="http://www.w3.org/1999/02/22-rdf-syntax-ns#"
   xmlns:svg="http://www.w3.org/2000/svg"
   xmlns="http://www.w3.org/2000/svg"
   xmlns:sodipodi="http://sodipodi.sourceforge.net/DTD/sodipodi-0.dtd"
   xmlns:inkscape="http://www.inkscape.org/namespaces/inkscape"
   width="297mm"
   height="210mm"
   viewBox="0 0 297 210"
   version="1.1"
   id="svg9714"
   inkscape:version="0.92.1 r15371"
   sodipodi:docname="not-roll-c.svg">
  <defs
     id="defs9708" />
  <sodipodi:namedview
     id="base"
     pagecolor="#ffffff"
     bordercolor="#666666"
     borderopacity="1.0"
     inkscape:pageopacity="0.0"
     inkscape:pageshadow="2"
     inkscape:zoom="0.98994949"
     inkscape:cx="582.29674"
     inkscape:cy="431.60921"
     inkscape:document-units="mm"
     inkscape:current-layer="layer1"
     showgrid="false"
     inkscape:window-width="1920"
     inkscape:window-height="1046"
     inkscape:window-x="-11"
     inkscape:window-y="-11"
     inkscape:window-maximized="1" />
  <metadata
     id="metadata9711">
    <rdf:RDF>
      <cc:Work
         rdf:about="">
        <dc:format>image/svg+xml</dc:format>
        <dc:type
           rdf:resource="http://purl.org/dc/dcmitype/StillImage" />
        <dc:title></dc:title>
      </cc:Work>
    </rdf:RDF>
  </metadata>
  <g
     inkscape:label="Layer 1"
     inkscape:groupmode="layer"
     id="layer1"
     transform="translate(0,-87)">
    <path
       style="opacity:1;fill:#000000;fill-opacity:1;fill-rule:nonzero;stroke:#000000;stroke-width:0.1;stroke-linecap:round;stroke-linejoin:round;stroke-miterlimit:4;stroke-dasharray:none;stroke-dashoffset:0;stroke-opacity:1;paint-order:markers fill stroke"
       id="path10261"
       d="m 27.915042,111.39753 c -0.039,0.29271 -0.05439,0.58795 -0.07087,0.88259 -0.02904,0.5605 -0.04432,1.12158 -0.05845,1.68261 0.0011,0.79588 0.01955,1.59164 0.03223,2.3874 0.01611,1.02942 0.02647,2.05892 0.03603,3.08842 0.01069,1.18412 0.01794,2.36827 0.02463,3.55241 0.02347,1.29275 0.0596,2.58522 0.08873,3.87785 0.03073,1.36581 0.05357,2.73177 0.07438,4.09775 0.02384,1.39518 0.0034,2.79068 -0.009,4.18589 -0.01294,1.40498 -0.02344,2.80998 -0.03289,4.21499 -0.0353,1.41282 -0.0439,2.82593 -0.0489,4.23912 -0.004,1.40298 -0.0059,2.80596 -0.0078,4.20894 -0.01302,1.40551 0.01609,2.81074 0.04167,4.21592 0.02654,1.40853 0.04827,2.81714 0.06781,4.22579 0.01918,1.40344 0.03372,2.80694 0.04692,4.21045 0.01635,1.40666 0.01476,2.81351 0.03949,4.22005 0.03231,1.41311 0.06754,2.82614 0.09785,4.2393 0.02984,1.41473 0.05299,2.82958 0.07379,4.24447 0.03024,1.41748 0.02951,2.83497 0.01728,4.25262 -0.0114,1.44052 -0.06155,2.8804 -0.100105,4.32036 -0.0537,1.44385 -0.115954,2.88735 -0.168884,4.33123 -0.06728,1.43817 -0.139369,2.87609 -0.201247,4.31451 -0.0516,1.43459 -0.114602,2.86858 -0.183158,4.30244 -0.07835,1.41174 -0.118507,2.82465 -0.142507,4.23819 -0.02103,1.38026 -0.03422,2.76063 -0.04669,4.14099 -0.02318,1.35908 -0.0021,2.71816 0.01672,4.07713 0.02283,1.3446 0.028,2.6895 0.05872,4.03395 0.03755,1.32139 0.07748,2.64271 0.112009,3.96419 0.03407,1.31256 0.05975,2.62531 0.0834,3.9381 0.02318,1.30878 0.04057,2.61765 0.05643,3.92654 0.01551,1.29717 0.02731,2.59438 0.03807,3.8916 0.0073,1.28837 0.02633,2.57674 0.01775,3.86513 -0.01619,1.26456 -0.03949,2.52901 -0.05929,3.79351 -0.019,1.23253 -0.0339,2.46512 -0.04756,3.69772 -0.0096,1.18984 -0.0557,2.37903 -0.09205,3.56826 -0.03441,1.13019 -0.06292,2.26054 -0.08861,3.39096 -0.02405,1.08141 -0.04316,2.16293 -0.06041,3.24447 -0.01627,1.02625 -0.02898,2.05255 -0.0408,3.07885 -0.01098,0.97195 -0.01963,1.94392 -0.02753,2.91589 -0.0074,0.91726 -0.01318,1.83453 -0.01857,2.7518 -0.0026,0.85975 -0.0047,1.71924 -0.03241,2.57858 -0.02863,0.77712 -0.05829,1.5542 -0.08491,2.33139 -0.02376,0.69741 -0.04328,1.39495 -0.06117,2.09254 -0.0057,0.63846 -0.04436,1.27562 -0.0891,1.91232 -0.02882,0.29682 -0.03326,0.59514 -0.03684,0.89309 -0.03432,2.83461 -1.370571,2.81843 -1.336248,-0.0162 v 0 c 0.0039,-0.32382 0.0096,-0.648 0.04003,-0.97064 0.0434,-0.61691 0.08116,-1.23423 0.08625,-1.85287 0.018,-0.70141 0.03761,-1.40278 0.06151,-2.10401 0.0266,-0.77635 0.05619,-1.55258 0.08483,-2.32885 0.02747,-0.84756 0.029,-1.69526 0.03174,-2.54323 0.0054,-0.91828 0.01118,-1.83655 0.0186,-2.75481 0.0079,-0.97348 0.01658,-1.94695 0.02757,-2.9204 0.01184,-1.02829 0.02456,-2.05656 0.04088,-3.08479 0.01731,-1.08455 0.03647,-2.16908 0.06059,-3.25351 0.02577,-1.13391 0.05437,-2.26776 0.08889,-3.40143 0.03609,-1.18056 0.082,-2.36108 0.09151,-3.54224 0.01368,-1.23464 0.02863,-2.46926 0.04765,-3.70383 0.01974,-1.26052 0.04293,-2.52099 0.05916,-3.78156 0.0087,-1.28171 -0.01069,-2.5634 -0.01775,-3.84509 -0.01074,-1.29551 -0.02252,-2.59101 -0.03801,-3.88648 -0.01582,-1.30626 -0.03318,-2.61251 -0.05631,-3.91866 -0.02359,-1.30917 -0.04919,-2.61832 -0.08316,-3.92727 -0.03457,-1.32296 -0.07458,-2.64577 -0.112118,-3.96865 -0.03064,-1.34844 -0.03622,-2.69732 -0.05894,-4.04591 -0.01894,-1.36915 -0.04006,-2.73841 -0.01681,-4.10768 0.0125,-1.3839 0.02571,-2.76781 0.04683,-4.15162 0.02426,-1.42726 0.06485,-2.85387 0.14384,-4.27931 0.06845,-1.43174 0.131342,-2.86359 0.182867,-4.29606 0.06177,-1.43559 0.133585,-2.87069 0.200911,-4.30602 0.05277,-1.43949 0.114723,-2.8786 0.168466,-4.31805 0.03834,-1.43189 0.08827,-2.8637 0.09967,-4.29613 0.01217,-1.40725 0.01294,-2.81435 -0.01717,-4.22145 -0.02074,-1.41188 -0.04385,-2.82372 -0.07362,-4.23544 -0.03035,-1.4149 -0.06565,-2.82968 -0.09795,-4.24453 -0.02466,-1.41017 -0.02342,-2.82063 -0.03964,-4.23091 -0.01318,-1.40152 -0.0277,-2.80304 -0.04685,-4.20449 -0.0195,-1.40671 -0.04121,-2.81339 -0.06772,-4.21999 -0.02574,-1.41388 -0.05489,-2.82783 -0.04189,-4.24203 0.0019,-1.40397 0.0037,-2.80793 0.0078,-4.21189 0.005,-1.4146 0.01349,-2.82914 0.04893,-4.24337 0.0094,-1.40598 0.01995,-2.81195 0.03291,-4.2179 0.01233,-1.38446 0.03268,-2.76921 0.0091,-4.15363 -0.02077,-1.36274 -0.04355,-2.72546 -0.0742,-4.08801 -0.0293,-1.30016 -0.06576,-2.60015 -0.08905,-3.90043 -0.0067,-1.18252 -0.01392,-2.36504 -0.02458,-3.54754 -0.0095,-1.02654 -0.01984,-2.05308 -0.03592,-3.07955 -0.01297,-0.81406 -0.03242,-1.62814 -0.03198,-2.44234 0.01449,-0.57476 0.03023,-1.14957 0.06012,-1.72378 0.01871,-0.33281 0.03698,-0.66624 0.08221,-0.99674 0.400904,-2.80633 1.723821,-2.61734 1.322917,0.18899 z"
       inkscape:connector-curvature="0" />
    <path
       style="opacity:1;fill:#000000;fill-opacity:1;fill-rule:nonzero;stroke:#000000;stroke-width:0.1;stroke-linecap:round;stroke-linejoin:round;stroke-miterlimit:4;stroke-dasharray:none;stroke-dashoffset:0;stroke-opacity:1;paint-order:markers fill stroke"
       id="path10263"
       d="m 26.824823,109.06757 c -0.08033,0.36213 -0.164663,0.72344 -0.252039,1.08396 -0.12918,0.57896 -0.261397,1.15708 -0.402109,1.73337 -0.125425,0.56514 -0.26866,1.1254 -0.443001,1.67745 -0.131934,0.3794 -0.319806,0.86239 -0.779497,0.94493 -0.150697,0.0271 -0.305397,-0.0224 -0.458095,-0.0336 -0.550502,-0.32483 -0.651893,-0.90104 -0.77906,-1.4806 -0.115411,-0.68523 -0.172047,-1.3795 -0.207646,-2.073 -0.04491,-0.71997 -0.02917,-1.43828 0.06544,-2.15312 0.08551,-0.63473 0.314406,-1.1877 0.75523,-1.65199 0.516944,-0.4541 1.153479,-0.48906 1.804751,-0.4201 0.698606,0.0986 1.340832,0.3794 1.951342,0.72036 0.673338,0.37859 1.251815,0.89061 1.799696,1.42924 2.018135,1.99081 1.079658,2.94217 -0.93848,0.95136 v 0 c -0.461743,-0.45733 -0.948616,-0.89407 -1.517081,-1.21627 -0.453742,-0.25844 -0.930865,-0.47521 -1.451205,-0.55745 -0.228773,-0.0314 -0.492284,-0.0745 -0.70524,0.039 -0.260119,0.21718 -0.311279,0.56737 -0.374656,0.8845 -0.08734,0.63292 -0.09308,1.26943 -0.05515,1.90706 0.03082,0.62074 0.08302,1.24164 0.178726,1.856 0.01388,0.0643 0.184827,0.61888 0.174903,0.65968 -0.02424,0.0997 -0.379734,-0.82048 -0.264416,-0.15745 -0.11206,0.003 -0.22803,-0.0208 -0.336181,0.009 -0.285521,0.0778 -0.308847,0.42375 -0.137428,-0.0604 0.166076,-0.52337 0.299328,-1.05535 0.418843,-1.59117 0.140559,-0.57565 0.272292,-1.15319 0.401636,-1.73143 0.08827,-0.36351 0.17278,-0.72796 0.254272,-1.09303 0.687545,-2.75018 1.983992,-2.42607 1.296448,0.32411 z"
       inkscape:connector-curvature="0" />
    <path
       style="opacity:1;fill:#000000;fill-opacity:1;fill-rule:nonzero;stroke:#000000;stroke-width:0.1;stroke-linecap:round;stroke-linejoin:round;stroke-miterlimit:4;stroke-dasharray:none;stroke-dashoffset:0;stroke-opacity:1;paint-order:markers fill stroke"
       id="path10265"
       d="m 19.660521,256.52329 c 0.23941,0.0381 0.480017,0.0499 0.721981,0.0503 0.462585,-0.005 0.925143,-0.0119 1.387724,-0.0171 0.665486,-0.009 1.331122,-0.005 1.996447,-0.0232 0.876648,-0.0322 1.753359,-0.062 2.630241,-0.087 1.049027,-0.0463 2.097851,-0.0964 3.147067,-0.13841 1.156639,-0.0425 2.313479,-0.0749 3.469727,-0.12744 1.196115,-0.0568 2.392574,-0.10577 3.589221,-0.14988 1.175837,-0.042 2.351971,-0.0749 3.528158,-0.10529 1.105691,-0.0422 2.210895,-0.096 3.316396,-0.14289 1.027369,-0.0433 2.055042,-0.0787 3.082798,-0.11124 0.96793,-0.0205 1.934932,-0.0601 2.901857,-0.10743 0.964499,-0.0495 1.929426,-0.0896 2.894526,-0.12518 0.994296,-0.036 1.988894,-0.0626 2.983537,-0.0867 1.033957,-0.0248 2.068065,-0.0423 3.102186,-0.0585 1.099344,-0.0138 2.198667,-0.036 3.298121,-0.0315 1.161423,0.013 2.322754,0.0334 3.484132,0.05 1.208132,0.0171 2.416323,0.0298 3.624521,0.0413 1.2328,0.0148 2.46579,0.0125 3.69846,0.0361 1.226584,0.0313 2.453079,0.0657 3.6797,0.0956 1.223825,0.0181 2.446603,0.0711 3.669523,0.11857 1.222554,0.0381 2.444284,0.0922 3.665907,0.15252 1.218322,0.052 2.43581,0.11771 3.653137,0.1889 1.210315,0.0722 2.421437,0.12947 3.63279,0.18093 1.236609,0.0484 2.473457,0.0865 3.709678,0.14433 1.252707,0.0618 2.50585,0.11382 3.759208,0.16031 1.260181,0.0458 2.520716,0.0804 3.781316,0.11218 1.25681,0.031 2.51377,0.0544 3.77077,0.0758 1.24399,0.0177 2.48721,0.0694 3.73056,0.11101 1.20717,0.0408 2.41461,0.0724 3.62212,0.10135 1.16024,0.0272 2.32059,0.0491 3.48097,0.069 1.11669,0.0332 2.23293,0.0795 3.3494,0.11926 1.05901,0.0373 2.11825,0.0673 3.17756,0.0944 1.01698,0.0259 2.0341,0.0457 3.05125,0.064 1.00102,0.0177 2.00211,0.031 3.00321,0.0432 1.00056,0.0121 2.00114,0.021 3.00174,0.0292 1.02146,0.008 2.04294,0.0142 3.06442,0.0197 1.03142,0.008 2.06269,-0.0234 3.09378,-0.046 1.04238,-0.023 2.08485,-0.0413 3.12735,-0.0581 1.03029,-0.0163 2.06064,-0.0286 3.091,-0.0398 1.02613,-0.0108 2.05228,-0.0193 3.07844,-0.0268 1.02158,-0.005 2.04259,-0.046 3.06361,-0.0773 1.04177,-0.0321 2.08374,-0.0569 3.12575,-0.0793 1.05356,-0.0223 2.10722,-0.0391 3.1609,-0.0541 1.07805,-0.0152 2.15615,-0.0263 3.23426,-0.0365 1.07674,0.001 2.15277,-0.0367 3.2288,-0.0705 1.07906,-0.0346 2.15832,-0.0624 3.23764,-0.0875 1.07626,-0.0246 2.15265,-0.0432 3.22905,-0.0602 1.07396,-0.0166 2.14797,-0.0292 3.22199,-0.0406 1.07569,-0.008 2.15136,-0.0275 3.22707,-0.0195 1.07315,0.0159 2.14618,0.039 3.21928,0.0582 1.06896,0.019 2.13799,0.0336 3.20704,0.0468 1.08429,0.0133 2.16862,0.0229 3.25296,0.0318 1.12751,0.009 2.25505,0.0155 3.38259,0.0214 1.14866,0.0157 2.29701,0.004 3.44547,-0.0181 1.17854,-0.0244 2.35713,-0.0457 3.53577,-0.0644 1.19416,-0.0187 2.38838,-0.0328 3.58262,-0.0456 1.17379,-0.0124 2.34761,-0.022 3.52143,-0.0308 1.1467,-0.006 2.29288,-0.0478 3.43906,-0.08 1.13346,-0.0356 2.26753,-0.0489 3.40085,-0.0887 1.07456,-0.0446 2.14906,-0.0907 3.22377,-0.13172 1.01525,-0.0382 2.03075,-0.0688 3.04632,-0.0968 0.93673,-0.0396 1.87286,-0.0918 2.80932,-0.1371 0.84458,-0.0407 1.68942,-0.0754 2.53436,-0.10747 0.73213,-0.0261 1.46423,-0.0448 2.1954,-0.0913 0.45462,-0.0296 0.91124,-0.0709 1.35322,-0.1853 0.22853,-0.0683 0.1477,-0.10472 0.0383,0.055 -0.0578,0.35088 -0.14274,-0.0447 -0.21655,-0.18258 -0.18893,-0.30752 -0.40699,-0.59591 -0.61815,-0.88826 -0.26842,-0.32917 -0.50133,-0.68096 -0.68515,-1.0637 -0.206,-0.45084 -0.18418,-0.8674 0.0659,-1.29071 0.35417,-0.40258 0.84475,-0.4445 1.34646,-0.42726 0.52098,0.047 1.03489,0.1499 1.54272,0.27251 0.55173,0.13061 1.09227,0.29959 1.60698,0.5377 0.54902,0.26689 0.90549,0.67056 1.07323,1.25355 0.0842,0.63362 -0.2149,1.16233 -0.56943,1.65874 -0.37313,0.50435 -0.79693,0.96825 -1.22797,1.42307 -0.27572,0.27544 -0.53544,0.56526 -0.78402,0.86516 -1.812,2.18011 -2.83971,1.32592 -1.02771,-0.85419 v 0 c 0.26794,-0.3216 0.54559,-0.63446 0.84197,-0.93042 0.39082,-0.41203 0.77609,-0.83146 1.11552,-1.28761 0.13457,-0.1818 0.25696,-0.37345 0.34893,-0.57679 0.0559,-0.14541 -0.24534,-0.27558 -0.33842,-0.34183 -0.43058,-0.20654 -0.89199,-0.33389 -1.35436,-0.44876 -0.42379,-0.10357 -0.8526,-0.18853 -1.28661,-0.23609 -0.1672,-0.0106 -0.3887,0.0694 -0.20508,-0.12379 0.0589,-0.15212 0.005,-0.28312 0.06,-0.0645 0.14344,0.31155 0.34835,0.58443 0.56046,0.85261 0.24707,0.34227 0.50338,0.67965 0.71571,1.04519 0.21035,0.40023 0.40488,0.79864 0.29208,1.26294 -0.19663,0.42274 -0.50506,0.68115 -0.9664,0.78539 -0.52295,0.13067 -1.05919,0.19261 -1.59695,0.2236 -0.74248,0.0471 -1.48586,0.0669 -2.22933,0.093 -0.84034,0.0319 -1.68058,0.0664 -2.52056,0.10688 -0.94569,0.0457 -1.89104,0.0987 -2.83702,0.13815 -1.01087,0.0279 -2.02168,0.0584 -3.03223,0.0964 -1.0761,0.041 -2.15197,0.0873 -3.22793,0.13187 -1.13641,0.0397 -2.27356,0.0536 -3.41012,0.089 -1.15535,0.0324 -2.3107,0.0749 -3.46657,0.0805 -1.17237,0.009 -2.34473,0.0184 -3.51707,0.0308 -1.19196,0.0128 -2.38391,0.0269 -3.5758,0.0455 -1.17721,0.0187 -2.35437,0.0399 -3.53147,0.0643 -1.1593,0.0221 -2.3185,0.034 -3.47801,0.0183 -1.12881,-0.006 -2.25763,-0.0125 -3.38642,-0.0215 -1.08621,-0.009 -2.17242,-0.0185 -3.25859,-0.0318 -1.0715,-0.0133 -2.14299,-0.0279 -3.21441,-0.0469 -1.06851,-0.0191 -2.13696,-0.042 -3.20552,-0.058 -1.06759,-0.008 -2.13516,0.0118 -3.20272,0.0195 -1.07175,0.0114 -2.14349,0.0239 -3.21517,0.0405 -1.07308,0.0169 -2.14614,0.0355 -3.21907,0.06 -1.07566,0.025 -2.15126,0.0527 -3.22666,0.0872 -1.08581,0.0341 -2.17163,0.0721 -3.25815,0.0711 -1.07598,0.0102 -2.15197,0.0213 -3.2279,0.0364 -1.05043,0.0149 -2.10084,0.0318 -3.15114,0.054 -1.03795,0.0224 -2.07584,0.0471 -3.11354,0.079 -1.03137,0.0316 -2.06274,0.0733 -3.09469,0.0779 -1.02464,0.008 -2.04927,0.016 -3.07389,0.0268 -1.02801,0.0111 -2.05601,0.0234 -3.08396,0.0397 -1.03989,0.0167 -2.07977,0.0349 -3.11955,0.0579 -1.04324,0.0229 -2.08667,0.0548 -3.13026,0.0463 -1.0227,-0.006 -2.04541,-0.0116 -3.06809,-0.0197 -1.00243,-0.008 -2.00486,-0.0171 -3.00725,-0.0292 -1.00365,-0.0123 -2.0073,-0.0256 -3.01087,-0.0433 -1.02049,-0.0183 -2.04096,-0.0383 -3.0613,-0.0643 -1.0638,-0.0271 -2.12753,-0.0573 -3.19102,-0.0948 -1.10826,-0.0395 -2.2163,-0.0853 -3.32477,-0.11861 -1.16341,-0.02 -2.32679,-0.042 -3.49005,-0.0692 -1.21176,-0.029 -2.42346,-0.0607 -3.63488,-0.10171 -1.23603,-0.0414 -2.47193,-0.0928 -3.70859,-0.11046 -1.26062,-0.0215 -2.5212,-0.045 -3.78162,-0.0761 -1.26591,-0.0319 -2.531746,-0.0667 -3.797227,-0.11267 -1.257655,-0.0467 -2.515092,-0.0989 -3.772093,-0.16085 -1.234318,-0.0577 -2.469274,-0.0956 -3.703979,-0.14407 -1.218451,-0.0518 -2.436669,-0.10936 -3.654078,-0.18201 -1.2133,-0.0709 -2.426761,-0.13641 -3.641056,-0.18825 -1.216924,-0.0601 -2.433955,-0.11395 -3.651811,-0.1519 -1.216498,-0.0472 -2.432851,-0.10008 -3.650255,-0.11796 -1.224314,-0.0299 -2.448504,-0.0641 -3.672781,-0.0954 -1.228366,-0.0237 -2.457062,-0.021 -3.685556,-0.0359 -1.210334,-0.0115 -2.42066,-0.0243 -3.63093,-0.0414 -1.15687,-0.0166 -2.313689,-0.0368 -3.470601,-0.0499 -1.090631,-0.005 -2.181135,0.018 -3.271655,0.0314 -1.030282,0.0161 -2.060548,0.0336 -3.090664,0.0582 -0.989009,0.0239 -1.977972,0.0503 -2.966632,0.0861 -0.959731,0.0354 -1.919288,0.0753 -2.878421,0.12449 -0.974598,0.0477 -1.949283,0.0876 -2.924892,0.10835 -1.023003,0.0324 -2.045925,0.0677 -3.068542,0.11072 -1.112869,0.0472 -2.225432,0.10146 -3.338502,0.14364 -1.171273,0.0302 -2.342494,0.063 -3.513418,0.10483 -1.192845,0.044 -2.385502,0.0928 -3.57782,0.14941 -1.158637,0.0526 -2.317856,0.0853 -3.476892,0.12775 -1.054317,0.0422 -2.108234,0.0928 -3.16238,0.13893 -0.877799,0.025 -1.755423,0.055 -2.632991,0.0871 -0.672106,0.0176 -1.344477,0.0146 -2.016741,0.0236 -0.468963,0.005 -0.937901,0.0126 -1.406871,0.0172 -0.303773,-0.001 -0.606359,-0.0169 -0.906929,-0.0637 -2.80633,-0.40091 -2.617342,-1.72382 0.188988,-1.32292 z"
       inkscape:connector-curvature="0" />
    <path
       style="opacity:1;fill:#000000;fill-opacity:1;fill-rule:nonzero;stroke:#000000;stroke-width:0.1;stroke-linecap:round;stroke-linejoin:round;stroke-miterlimit:4;stroke-dasharray:none;stroke-dashoffset:0;stroke-opacity:1;paint-order:markers fill stroke"
       id="path10267"
       d="m 236.10232,257.7708 c 0.0989,0.26962 0.2345,0.52281 0.37003,0.77523 0.23229,0.42354 0.52,0.81284 0.80739,1.19988 0.37566,0.50829 0.77851,0.99541 1.1709,1.49063 0.27488,0.34238 0.54512,0.68791 0.8042,1.04238 1.67104,2.28995 0.59155,3.07768 -1.07948,0.78774 v 0 c -0.24815,-0.34067 -0.50886,-0.67133 -0.77224,-1.00035 -0.40091,-0.50624 -0.81272,-1.00404 -1.19634,-1.52379 -0.32614,-0.43934 -0.64987,-0.88302 -0.91194,-1.3646 -0.15384,-0.28682 -0.30683,-0.57513 -0.42082,-0.88071 -1.11669,-2.60561 0.11161,-3.13202 1.2283,-0.52641 z"
       inkscape:connector-curvature="0" />
    <path
       style="opacity:1;fill:#000000;fill-opacity:1;fill-rule:nonzero;stroke:#000000;stroke-width:0.1;stroke-linecap:round;stroke-linejoin:round;stroke-miterlimit:4;stroke-dasharray:none;stroke-dashoffset:0;stroke-opacity:1;paint-order:markers fill stroke"
       id="path10269"
       d="m 239.94862,257.28017 c -0.29272,0.11537 -0.54459,0.30392 -0.79296,0.4927 -0.53553,0.4057 -1.00674,0.88569 -1.46762,1.37221 -0.6377,0.69832 -1.24185,1.42653 -1.84226,2.15689 -0.55195,0.6827 -1.09537,1.3722 -1.633,2.06622 -1.73613,2.24099 -2.79255,1.42257 -1.05641,-0.81843 v 0 c 0.54558,-0.70418 1.09693,-1.40386 1.65715,-2.09647 0.6205,-0.75463 1.24485,-1.50707 1.90483,-2.22773 0.51171,-0.53913 1.03637,-1.06923 1.63096,-1.51835 0.33555,-0.25297 0.67994,-0.49833 1.07289,-0.65533 2.60562,-1.11669 3.13203,0.1116 0.52642,1.22829 z"
       inkscape:connector-curvature="0" />
    <path
       style="opacity:1;fill:#000000;fill-opacity:1;fill-rule:nonzero;stroke:#000000;stroke-width:0.1;stroke-linecap:round;stroke-linejoin:round;stroke-miterlimit:4;stroke-dasharray:none;stroke-dashoffset:0;stroke-opacity:1;paint-order:markers fill stroke"
       id="path10271"
       d="m 7.6171816,107.44265 c 0,-0.28347 0,-0.56694 0,-0.85041 -0.00858,-0.38959 0.030199,-0.77709 0.1201859,-1.15584 0.1083775,-0.38295 0.365456,-0.76439 0.8042219,-0.80226 0.1228394,-0.0106 0.2445761,0.0315 0.3668641,0.0472 0.4238567,0.19519 0.6502059,0.57543 0.8782069,0.96126 0.2332406,0.43348 0.4683286,0.86588 0.7082706,1.29572 0.241934,0.42469 0.503357,0.838 0.808199,1.22035 0.206362,0.25311 0.446213,0.47165 0.753485,0.58853 0.189818,0.043 0.368459,0.003 0.534955,-0.0916 0.286145,-0.15448 0.478142,-0.41683 0.657555,-0.67948 0.203497,-0.36392 0.352953,-0.75576 0.468913,-1.15543 0.09069,-0.3794 0.209969,-0.74867 0.388473,-1.09588 0.41102,-0.67599 1.08044,-0.56455 1.469127,0.0563 0.200547,0.45516 0.278591,0.95136 0.375489,1.43594 0.13822,0.73872 0.262393,1.47991 0.370839,2.22357 0.137753,0.86264 0.23568,1.73142 0.30441,2.60213 0.07595,0.84771 0.05776,1.69736 -0.05851,2.53966 -0.111057,0.77826 -0.40119,1.49123 -0.834998,2.14123 -0.416833,0.59059 -0.99277,0.98408 -1.644173,1.27252 -0.583466,0.23647 -1.20106,0.29587 -1.823878,0.27066 -0.275673,-0.0134 -0.5414,-0.0796 -0.806438,-0.15028 -2.7336603,-0.75054 -2.3798507,-2.0392 0.353809,-1.28865 v 0 c 0.168663,0.0485 0.337942,0.0931 0.51421,0.10401 0.418924,0.0228 0.835457,-0.0105 1.23111,-0.16198 0.422805,-0.17689 0.796282,-0.42073 1.070062,-0.79738 0.330281,-0.47296 0.530621,-1.00533 0.617105,-1.57718 0.108433,-0.74496 0.113822,-1.49806 0.04945,-2.24804 -0.06562,-0.8413 -0.161634,-1.68058 -0.294542,-2.51401 -0.104907,-0.72048 -0.22541,-1.43849 -0.358866,-2.15424 -0.07039,-0.35207 -0.135947,-0.70518 -0.234241,-1.05074 0.284211,0.19806 0.671003,0.24441 0.882931,-0.0817 -0.146382,0.26527 -0.209848,0.56323 -0.289824,0.8529 -0.160022,0.5342 -0.358927,1.06021 -0.651729,1.53733 -0.317912,0.45488 -0.679156,0.8773 -1.186685,1.12769 -0.52843,0.23294 -1.068086,0.31457 -1.625142,0.11349 -0.506741,-0.22396 -0.937092,-0.55041 -1.280469,-0.98959 -0.3469924,-0.44037 -0.6522684,-0.91034 -0.9275448,-1.39882 -0.2347667,-0.42074 -0.4659874,-0.84336 -0.692661,-1.26851 -0.043884,-0.0747 -0.4365064,-0.55452 -0.1376635,-0.36807 0.2244374,0.004 0.2422417,0.0365 0.438698,-0.0858 0.045604,-0.0284 0.099406,-0.0888 0.1189381,-0.14535 0.00304,-0.009 0.00691,-0.036 0.00246,-0.0278 -0.011502,0.0211 -0.016201,0.0452 -0.024299,0.0678 -0.076262,0.26867 -0.078341,0.55319 -0.079956,0.83041 0,0.28347 0,0.56694 0,0.85041 0,2.83482 -1.3363475,2.83482 -1.3363475,0 z"
       inkscape:connector-curvature="0" />
    <path
       style="opacity:1;fill:#000000;fill-opacity:1;fill-rule:nonzero;stroke:#000000;stroke-width:0.1;stroke-linecap:round;stroke-linejoin:round;stroke-miterlimit:4;stroke-dasharray:none;stroke-dashoffset:0;stroke-opacity:1;paint-order:markers fill stroke"
       id="path10273"
       d="m 57.062044,253.7656 c 0,0.29887 0,0.59773 0,0.8966 0.01934,0.42245 0.04849,0.84439 0.07131,1.26667 0.0316,0.42458 0.0285,0.84997 0.02238,1.27529 -0.04108,2.83453 -1.377288,2.81516 -1.336207,-0.0194 v 0 c 0.0058,-0.39486 0.0097,-0.7897 -0.02058,-1.18385 -0.0241,-0.44628 -0.0564,-0.89214 -0.07325,-1.33875 0,-0.29887 0,-0.59774 0,-0.89661 0,-2.83481 1.336347,-2.83481 1.336347,0 z"
       inkscape:connector-curvature="0" />
    <path
       style="opacity:1;fill:#000000;fill-opacity:1;fill-rule:nonzero;stroke:#000000;stroke-width:0.1;stroke-linecap:round;stroke-linejoin:round;stroke-miterlimit:4;stroke-dasharray:none;stroke-dashoffset:0;stroke-opacity:1;paint-order:markers fill stroke"
       id="path10275"
       d="m 59.451258,267.98664 c -0.133684,-0.008 -0.2588,0.0258 -0.382754,0.0727 -0.231611,0.091 -0.42227,0.24905 -0.606955,0.41117 -0.22529,0.23733 -0.418782,0.50622 -0.580908,0.79012 -0.171196,0.32512 -0.304573,0.66943 -0.400585,1.02381 -0.07279,0.31835 -0.09537,0.64073 -0.04257,0.96306 0.0208,0.0912 0.07715,0.24227 0.134551,0.25822 -0.03433,-0.0526 -0.138906,-0.0668 -0.09616,-0.0984 0.1749,-0.13349 0.298934,-0.32204 0.418031,-0.50413 0.197914,-0.33847 0.360307,-0.69495 0.559742,-1.03283 0.208487,-0.37275 0.502492,-0.61555 0.90279,-0.75171 0.431948,-0.0856 0.791671,0.0904 1.125009,0.34539 0.279371,0.25554 0.527529,0.54283 0.771932,0.8313 0.280464,0.32521 0.549286,0.66017 0.82912,0.98589 0.241104,0.26879 0.484777,0.53375 0.77425,0.75105 0.13811,0.0962 0.28399,0.19242 0.457962,0.17907 0.1377,-0.023 0.237678,-0.13766 0.353115,-0.23206 0.258033,-0.21427 0.459275,-0.48051 0.66547,-0.74197 1.755613,-2.22577 2.80485,-1.39816 1.049237,0.8276 v 0 c -0.268142,0.3399 -0.537938,0.67945 -0.875816,0.95461 -0.369639,0.29536 -0.763442,0.54207 -1.256173,0.52663 -0.446535,-0.0333 -0.848656,-0.17471 -1.205521,-0.45231 -0.35991,-0.27842 -0.677865,-0.59968 -0.976778,-0.94249 -0.281242,-0.32824 -0.552699,-0.66465 -0.834604,-0.99234 -0.189178,-0.22344 -0.382202,-0.44342 -0.587772,-0.65208 -0.104617,-0.10146 -0.07667,-0.0549 0.05215,-0.0963 0.168289,-0.0978 -0.09322,0.0386 -0.09508,0.14162 -0.212649,0.35599 -0.373399,0.73932 -0.595572,1.08991 -0.250703,0.37407 -0.528857,0.73769 -0.931222,0.95913 -0.441952,0.20697 -0.88736,0.24503 -1.313027,-0.0318 -0.357007,-0.29533 -0.567745,-0.67264 -0.648332,-1.1314 -0.0678,-0.50742 -0.04977,-1.01392 0.07791,-1.51215 0.131472,-0.46337 0.301027,-0.91638 0.533988,-1.33922 0.240448,-0.40586 0.514527,-0.79621 0.856787,-1.12354 0.316476,-0.2744 0.653732,-0.52487 1.052155,-0.66808 0.326226,-0.10688 0.659836,-0.17474 1.004607,-0.13136 2.80633,0.4009 2.61734,1.72382 -0.188989,1.32292 z"
       inkscape:connector-curvature="0" />
    <path
       style="opacity:1;fill:#000000;fill-opacity:1;fill-rule:nonzero;stroke:#000000;stroke-width:0.1;stroke-linecap:round;stroke-linejoin:round;stroke-miterlimit:4;stroke-dasharray:none;stroke-dashoffset:0;stroke-opacity:1;paint-order:markers fill stroke"
       id="path10277"
       d="m 185.35261,255.53408 c 0.0388,0.27876 0.0613,0.55935 0.0815,0.83994 0.0284,0.4082 0.0449,0.81708 0.0605,1.22592 0.0212,0.47545 0.0211,0.95167 0.0476,1.42683 0.0303,0.28658 0.0136,0.14084 0.0505,0.43721 0.34811,2.81337 -0.97813,2.97746 -1.32623,0.1641 v 0 c -0.0426,-0.34553 -0.0229,-0.16931 -0.0586,-0.52869 -0.0257,-0.48244 -0.0285,-0.9657 -0.0486,-1.44841 -0.0151,-0.39387 -0.0308,-0.78779 -0.0581,-1.18104 -0.0179,-0.24947 -0.0374,-0.49898 -0.0716,-0.74687 -0.4009,-2.80633 0.92201,-2.99532 1.32292,-0.18899 z"
       inkscape:connector-curvature="0" />
    <path
       style="opacity:1;fill:#000000;fill-opacity:1;fill-rule:nonzero;stroke:#000000;stroke-width:0.1;stroke-linecap:round;stroke-linejoin:round;stroke-miterlimit:4;stroke-dasharray:none;stroke-dashoffset:0;stroke-opacity:1;paint-order:markers fill stroke"
       id="path10279"
       d="m 184.91114,272.33221 c 0.11789,-0.21477 0.22208,-0.4371 0.31834,-0.66234 0.12375,-0.30729 0.1987,-0.62776 0.2494,-0.95398 0.0634,-0.39787 0.0605,-0.80153 0.0324,-1.20221 -0.0347,-0.40745 -0.13009,-0.80329 -0.25621,-1.19107 -0.0791,-0.20574 -0.1803,-0.41074 -0.36451,-0.54005 -0.11636,-0.008 0.0653,0.0331 0.10624,0.0308 -0.1328,0.15453 -0.21453,0.34095 -0.29302,0.52729 -0.14935,0.45664 -0.22773,0.93317 -0.28504,1.40899 -0.0729,0.63233 -0.0882,1.26949 -0.082,1.90543 -5.3e-4,0.64728 0.0705,1.28969 0.16466,1.92895 0.0792,0.56163 0.23609,1.10423 0.4591,1.6245 0.15953,0.3523 0.35878,0.68087 0.64309,0.94492 0.14794,0.13658 0.32048,0.20596 0.51923,0.21403 0.13807,5.3e-4 0.24971,-0.0558 0.34667,-0.15151 0.0928,-0.10232 0.11509,-0.25483 0.13013,-0.38872 0.0127,-0.195 -0.0537,-0.37025 -0.13778,-0.54159 -0.0802,-0.13935 -0.17428,-0.27571 -0.30641,-0.37 -2.17553,-1.81749 -1.31876,-2.84305 0.85678,-1.02556 v 0 c 0.27024,0.23589 0.50226,0.5037 0.66017,0.82951 0.18971,0.416 0.30597,0.85005 0.24792,1.31172 -0.0805,0.47116 -0.24252,0.91486 -0.62043,1.23168 -0.38764,0.29151 -0.81503,0.47226 -1.31049,0.43413 -0.49691,-0.0597 -0.9468,-0.23251 -1.31512,-0.58339 -0.40326,-0.39892 -0.71938,-0.86053 -0.94406,-1.38349 -0.26348,-0.62655 -0.45697,-1.27694 -0.55094,-1.95188 -0.10269,-0.69971 -0.17865,-1.4031 -0.17881,-2.11144 -0.006,-0.69434 0.011,-1.38992 0.0919,-2.08022 0.075,-0.60138 0.1749,-1.20491 0.38463,-1.77598 0.19638,-0.44734 0.42997,-0.87785 0.84982,-1.15363 0.48672,-0.2397 0.95831,-0.24322 1.40791,0.0895 0.37006,0.31441 0.63861,0.70354 0.79269,1.16742 0.15654,0.49215 0.27705,0.9942 0.31725,1.51071 0.0321,0.50024 0.0347,1.00355 -0.0458,1.49997 -0.0698,0.43547 -0.17285,0.86388 -0.34158,1.27284 -0.10724,0.24844 -0.22082,0.49491 -0.35084,0.73232 -1.26777,2.53554 -2.46303,1.93791 -1.19526,-0.59764 z"
       inkscape:connector-curvature="0" />
    <path
       style="opacity:1;fill:#000000;fill-opacity:1;fill-rule:nonzero;stroke:#000000;stroke-width:0.1;stroke-linecap:round;stroke-linejoin:round;stroke-miterlimit:4;stroke-dasharray:none;stroke-dashoffset:0;stroke-opacity:1;paint-order:markers fill stroke"
       id="path10281"
       d="m 51.16749,108.9921 c -0.03297,0.24265 -0.05299,0.48679 -0.07181,0.73086 -0.02606,0.35233 -0.04271,0.70526 -0.05792,1.0582 -0.01728,0.4133 -0.02906,0.82679 -0.03978,1.2403 -0.0077,0.21492 -0.0104,0.42955 -0.0068,0.64453 0.04086,2.83453 -1.29535,2.85379 -1.33621,0.0193 v 0 c -0.0029,-0.23297 -0.0019,-0.46558 0.0071,-0.69844 0.01093,-0.42117 0.02297,-0.84231 0.04058,-1.26326 0.0159,-0.36807 0.03335,-0.73613 0.06065,-1.10356 0.02111,-0.27283 0.04391,-0.5457 0.08127,-0.81688 0.400905,-2.80633 1.723821,-2.61735 1.322917,0.18898 z"
       inkscape:connector-curvature="0" />
    <path
       style="opacity:1;fill:#000000;fill-opacity:1;fill-rule:nonzero;stroke:#000000;stroke-width:0.1;stroke-linecap:round;stroke-linejoin:round;stroke-miterlimit:4;stroke-dasharray:none;stroke-dashoffset:0;stroke-opacity:1;paint-order:markers fill stroke"
       id="path10283"
       d="m 51.62239,122.28472 c -0.08191,0.18028 -0.18883,0.34908 -0.241969,0.54116 -0.07505,0.25692 -0.0914,0.5223 -0.105225,0.78783 -0.01834,0.3005 -0.01947,0.60064 -0.0087,0.90132 0.09947,2.83307 -1.236052,2.87997 -1.335525,0.0469 v 0 c -0.01172,-0.33984 -0.01072,-0.67925 0.0097,-1.01885 0.02032,-0.37864 0.05433,-0.75682 0.165968,-1.12145 0.08506,-0.25528 0.197678,-0.49564 0.320439,-0.73453 1.26777,-2.53554 2.463036,-1.93791 1.195266,0.59763 z"
       inkscape:connector-curvature="0" />
    <path
       style="opacity:1;fill:#000000;fill-opacity:1;fill-rule:nonzero;stroke:#000000;stroke-width:0.1;stroke-linecap:round;stroke-linejoin:round;stroke-miterlimit:4;stroke-dasharray:none;stroke-dashoffset:0;stroke-opacity:1;paint-order:markers fill stroke"
       id="path10285"
       d="m 52.23657,133.84817 c -0.02907,0.26416 -0.08204,0.52477 -0.124729,0.78693 -0.05483,0.3439 -0.09127,0.6903 -0.124326,1.03686 -0.01852,0.19784 -0.03308,0.396 -0.04766,0.59416 -0.208148,2.82717 -1.540889,2.72904 -1.332741,-0.0981 v 0 c 0.01532,-0.20781 0.03064,-0.41563 0.0501,-0.6231 0.03596,-0.37601 0.0759,-0.75182 0.135697,-1.12491 0.0414,-0.25348 0.09289,-0.50535 0.120735,-0.76081 0.400902,-2.80633 1.723818,-2.61734 1.322916,0.18899 z"
       inkscape:connector-curvature="0" />
    <path
       style="opacity:1;fill:#000000;fill-opacity:1;fill-rule:nonzero;stroke:#000000;stroke-width:0.1;stroke-linecap:round;stroke-linejoin:round;stroke-miterlimit:4;stroke-dasharray:none;stroke-dashoffset:0;stroke-opacity:1;paint-order:markers fill stroke"
       id="path10287"
       d="m 51.969299,144.80622 c -0.03297,0.24265 -0.05299,0.48678 -0.07181,0.73085 -0.01696,0.22684 -0.02913,0.45399 -0.0409,0.68114 -0.146896,2.83101 -1.481449,2.76177 -1.334553,-0.0693 v 0 c 0.01238,-0.23839 0.02522,-0.47678 0.04308,-0.71485 0.02111,-0.27283 0.04391,-0.5457 0.08127,-0.81688 0.400905,-2.80633 1.723822,-2.61734 1.322917,0.18899 z"
       inkscape:connector-curvature="0" />
    <path
       style="opacity:1;fill:#000000;fill-opacity:1;fill-rule:nonzero;stroke:#000000;stroke-width:0.1;stroke-linecap:round;stroke-linejoin:round;stroke-miterlimit:4;stroke-dasharray:none;stroke-dashoffset:0;stroke-opacity:1;paint-order:markers fill stroke"
       id="path10289"
       d="m 53.038377,156.56608 c -0.0365,0.22261 -0.02561,0.449 -0.02365,0.67367 0.0042,0.36013 0.0081,0.72027 0.01143,1.08042 5.29e-4,0.0664 0.0011,0.13273 0.0016,0.19909 0.0241,2.83472 -1.312204,2.84608 -1.3363,0.0113 v 0 c -5.29e-4,-0.066 -0.0011,-0.13208 -0.0016,-0.19812 -0.0033,-0.36045 -0.0073,-0.72089 -0.01143,-1.08133 -0.0024,-0.29167 -0.01037,-0.58512 0.03704,-0.87408 0.400904,-2.80633 1.723821,-2.61734 1.322916,0.18899 z"
       inkscape:connector-curvature="0" />
    <path
       style="opacity:1;fill:#000000;fill-opacity:1;fill-rule:nonzero;stroke:#000000;stroke-width:0.1;stroke-linecap:round;stroke-linejoin:round;stroke-miterlimit:4;stroke-dasharray:none;stroke-dashoffset:0;stroke-opacity:1;paint-order:markers fill stroke"
       id="path10291"
       d="m 53.572917,168.32594 c -0.03443,0.25394 -0.05147,0.50964 -0.0831,0.76388 -0.358524,2.81206 -1.684142,2.64305 -1.325615,-0.16901 v 0 c 0.03437,-0.2606 0.04719,-0.52367 0.0858,-0.78386 0.400904,-2.80633 1.723821,-2.61734 1.322915,0.18899 z"
       inkscape:connector-curvature="0" />
    <path
       style="opacity:1;fill:#000000;fill-opacity:1;fill-rule:nonzero;stroke:#000000;stroke-width:0.1;stroke-linecap:round;stroke-linejoin:round;stroke-miterlimit:4;stroke-dasharray:none;stroke-dashoffset:0;stroke-opacity:1;paint-order:markers fill stroke"
       id="path10293"
       d="m 53.305648,177.94764 c -0.03981,0.22358 -0.03867,0.44914 -0.03716,0.67523 0.0036,0.29402 0.0083,0.58802 0.0123,0.88203 0.03844,2.83456 -1.297784,2.85268 -1.336225,0.0181 v 0 c -0.004,-0.29729 -0.0088,-0.59457 -0.01238,-0.89186 -0.0016,-0.29191 0.0021,-0.58374 0.05057,-0.87251 0.400902,-2.80633 1.723818,-2.61734 1.322916,0.18899 z"
       inkscape:connector-curvature="0" />
    <path
       style="opacity:1;fill:#000000;fill-opacity:1;fill-rule:nonzero;stroke:#000000;stroke-width:0.1;stroke-linecap:round;stroke-linejoin:round;stroke-miterlimit:4;stroke-dasharray:none;stroke-dashoffset:0;stroke-opacity:1;paint-order:markers fill stroke"
       id="path10295"
       d="m 53.572917,188.10388 c -0.03297,0.24265 -0.05299,0.48678 -0.07181,0.73086 -0.218405,2.82639 -1.550781,2.72344 -1.332375,-0.10296 v 0 c 0.02111,-0.27283 0.04391,-0.54571 0.08127,-0.81689 0.400904,-2.80632 1.723821,-2.61734 1.322916,0.18899 z"
       inkscape:connector-curvature="0" />
    <path
       style="opacity:1;fill:#000000;fill-opacity:1;fill-rule:nonzero;stroke:#000000;stroke-width:0.1;stroke-linecap:round;stroke-linejoin:round;stroke-miterlimit:4;stroke-dasharray:none;stroke-dashoffset:0;stroke-opacity:1;paint-order:markers fill stroke"
       id="path10297"
       d="m 53.85481,198.4329 c 0,0.25796 0,0.51591 0,0.77387 0,0.36029 0,0.72059 0,1.08088 0,0.0662 0,0.13241 0,0.19861 0,2.83482 -1.336347,2.83482 -1.336347,0 v 0 c 0,-0.0662 0,-0.13241 0,-0.19861 0,-0.36029 0,-0.72059 0,-1.08088 0,-0.25796 0,-0.51591 0,-0.77387 0,-2.83482 1.336347,-2.83482 1.336347,0 z"
       inkscape:connector-curvature="0" />
    <path
       style="opacity:1;fill:#000000;fill-opacity:1;fill-rule:nonzero;stroke:#000000;stroke-width:0.1;stroke-linecap:round;stroke-linejoin:round;stroke-miterlimit:4;stroke-dasharray:none;stroke-dashoffset:0;stroke-opacity:1;paint-order:markers fill stroke"
       id="path10299"
       d="m 53.840186,209.48544 c -0.03297,0.24265 -0.05299,0.48679 -0.07181,0.73086 -0.01696,0.22684 -0.02912,0.45398 -0.0409,0.68114 -0.146894,2.83101 -1.481447,2.76176 -1.33455,-0.0692 v 0 c 0.01238,-0.2384 0.02521,-0.47679 0.04308,-0.71485 0.02111,-0.27283 0.04391,-0.54571 0.08127,-0.81688 0.400904,-2.80633 1.723821,-2.61734 1.322916,0.18898 z"
       inkscape:connector-curvature="0" />
    <path
       style="opacity:1;fill:#000000;fill-opacity:1;fill-rule:nonzero;stroke:#000000;stroke-width:0.1;stroke-linecap:round;stroke-linejoin:round;stroke-miterlimit:4;stroke-dasharray:none;stroke-dashoffset:0;stroke-opacity:1;paint-order:markers fill stroke"
       id="path10301"
       d="m 54.882364,218.92895 c -0.05994,0.23274 -0.124497,0.46265 -0.163105,0.70006 -0.02792,0.20107 -0.01455,0.0986 -0.03988,0.3076 -0.342866,2.81401 -1.669402,2.65238 -1.326536,-0.16163 v 0 c 0.02993,-0.24443 0.01384,-0.12261 0.04822,-0.36548 0.04858,-0.2869 0.121591,-0.56671 0.196371,-0.84768 0.778785,-2.72575 2.063715,-2.35862 1.28493,0.36713 z"
       inkscape:connector-curvature="0" />
    <path
       style="opacity:1;fill:#000000;fill-opacity:1;fill-rule:nonzero;stroke:#000000;stroke-width:0.1;stroke-linecap:round;stroke-linejoin:round;stroke-miterlimit:4;stroke-dasharray:none;stroke-dashoffset:0;stroke-opacity:1;paint-order:markers fill stroke"
       id="path10303"
       d="m 55.176533,228.72885 c -0.03297,0.24265 -0.05299,0.48678 -0.07181,0.73086 -0.02228,0.2126 -0.0232,0.42546 -0.02051,0.63886 0.03243,2.83464 -1.303832,2.84993 -1.336262,0.0153 v 0 c -0.0026,-0.25278 -5.29e-4,-0.50526 0.0244,-0.75712 0.02111,-0.27283 0.04391,-0.5457 0.08127,-0.81688 0.400905,-2.80633 1.723821,-2.61734 1.322917,0.18898 z"
       inkscape:connector-curvature="0" />
    <path
       style="opacity:1;fill:#000000;fill-opacity:1;fill-rule:nonzero;stroke:#000000;stroke-width:0.1;stroke-linecap:round;stroke-linejoin:round;stroke-miterlimit:4;stroke-dasharray:none;stroke-dashoffset:0;stroke-opacity:1;paint-order:markers fill stroke"
       id="path10305"
       d="m 55.978342,238.61782 c -0.03297,0.24265 -0.05299,0.48678 -0.07181,0.73086 -0.02819,0.33907 -0.04389,0.67804 -0.03786,1.01817 0.0016,0.064 0.0034,0.128 0.0052,0.192 0.07569,2.83381 -1.260184,2.86948 -1.33587,0.0357 v 0 c -0.0019,-0.0684 -0.0036,-0.13682 -0.0055,-0.20522 -0.0061,-0.38197 0.0097,-0.76284 0.04164,-1.14359 0.02111,-0.27283 0.04391,-0.54571 0.08127,-0.81689 0.400905,-2.80633 1.723821,-2.61734 1.322917,0.18899 z"
       inkscape:connector-curvature="0" />
    <path
       style="opacity:1;fill:#000000;fill-opacity:1;fill-rule:nonzero;stroke:#000000;stroke-width:0.1;stroke-linecap:round;stroke-linejoin:round;stroke-miterlimit:4;stroke-dasharray:none;stroke-dashoffset:0;stroke-opacity:1;paint-order:markers fill stroke"
       id="path10307"
       d="m 56.260235,247.34322 c -0.006,0.12455 -0.02281,0.24812 -0.03707,0.37187 -0.324339,2.8162 -1.651913,2.66331 -1.327571,-0.1529 v 0 c 0.0083,-0.0722 0.01392,-0.14767 0.02829,-0.21897 0,-2.83482 1.336347,-2.83482 1.336347,0 z"
       inkscape:connector-curvature="0" />
    <path
       style="opacity:1;fill:#000000;fill-opacity:1;fill-rule:nonzero;stroke:#000000;stroke-width:0.1;stroke-linecap:round;stroke-linejoin:round;stroke-miterlimit:4;stroke-dasharray:none;stroke-dashoffset:0;stroke-opacity:1;paint-order:markers fill stroke"
       id="path10323"
       d="m 179.47268,107.73404 c 0.0374,0.27118 0.0601,0.54405 0.0813,0.81688 0.0273,0.36744 0.0448,0.73549 0.0607,1.10356 0.0287,0.43471 0.01,0.86994 -0.006,1.30469 -0.0103,0.21543 -0.0159,0.43062 -0.015,0.64625 0.005,2.83482 -1.33158,2.83707 -1.33635,0.002 v 0 c 3e-5,-0.23245 0.004,-0.4645 0.0159,-0.69671 0.0144,-0.39951 0.0335,-0.79941 0.006,-1.19887 -0.0152,-0.35294 -0.0319,-0.70587 -0.0579,-1.05821 -0.0188,-0.24407 -0.0388,-0.4882 -0.0718,-0.73085 -0.4009,-2.80633 0.92201,-2.99532 1.32292,-0.18899 z"
       inkscape:connector-curvature="0" />
    <path
       style="opacity:1;fill:#000000;fill-opacity:1;fill-rule:nonzero;stroke:#000000;stroke-width:0.1;stroke-linecap:round;stroke-linejoin:round;stroke-miterlimit:4;stroke-dasharray:none;stroke-dashoffset:0;stroke-opacity:1;paint-order:markers fill stroke"
       id="path10325"
       d="m 180.54056,120.92474 c -0.01,0.24037 0.0104,0.47905 0.0304,0.71829 0.0277,0.35368 0.0506,0.70722 0.0915,1.05965 0.0479,0.3533 0.079,0.70757 0.0941,1.06367 0.117,2.8324 -1.21821,2.88756 -1.33521,0.0551 v 0 c -0.013,-0.32325 -0.043,-0.64451 -0.0863,-0.9652 -0.0423,-0.3666 -0.0676,-0.73421 -0.0957,-1.10211 -0.023,-0.2761 -0.0439,-0.55213 -0.035,-0.82945 0,-2.83482 1.33634,-2.83482 1.33634,0 z"
       inkscape:connector-curvature="0" />
    <path
       style="opacity:1;fill:#000000;fill-opacity:1;fill-rule:nonzero;stroke:#000000;stroke-width:0.1;stroke-linecap:round;stroke-linejoin:round;stroke-miterlimit:4;stroke-dasharray:none;stroke-dashoffset:0;stroke-opacity:1;paint-order:markers fill stroke"
       id="path10327"
       d="m 181.06048,132.51182 c -0.0582,0.25987 -0.1088,0.52096 -0.15035,0.78401 -0.0522,0.34358 -0.086,0.68956 -0.11677,1.03561 -0.0173,0.19816 -0.0309,0.39661 -0.0445,0.59505 -0.19422,2.82816 -1.52742,2.7366 -1.33321,-0.0916 v 0 c 0.0143,-0.2075 0.0285,-0.415 0.0467,-0.62221 0.0336,-0.37633 0.0707,-0.75255 0.12798,-1.12615 0.0407,-0.25604 0.0842,-0.51212 0.14729,-0.76374 0.40091,-2.80633 1.72382,-2.61734 1.32292,0.18899 z"
       inkscape:connector-curvature="0" />
    <path
       style="opacity:1;fill:#000000;fill-opacity:1;fill-rule:nonzero;stroke:#000000;stroke-width:0.1;stroke-linecap:round;stroke-linejoin:round;stroke-miterlimit:4;stroke-dasharray:none;stroke-dashoffset:0;stroke-opacity:1;paint-order:markers fill stroke"
       id="path10329"
       d="m 180.80783,142.84084 c 0,0.25795 0,0.51591 0,0.77387 0,0.36029 0,0.72058 0,1.08088 0,0.0662 0,0.1324 0,0.19861 0,2.83482 -1.33635,2.83482 -1.33635,0 v 0 c 0,-0.0662 0,-0.13241 0,-0.19861 0,-0.3603 0,-0.72059 0,-1.08088 0,-0.25796 0,-0.51592 0,-0.77387 0,-2.83482 1.33635,-2.83482 1.33635,0 z"
       inkscape:connector-curvature="0" />
    <path
       style="opacity:1;fill:#000000;fill-opacity:1;fill-rule:nonzero;stroke:#000000;stroke-width:0.1;stroke-linecap:round;stroke-linejoin:round;stroke-miterlimit:4;stroke-dasharray:none;stroke-dashoffset:0;stroke-opacity:1;paint-order:markers fill stroke"
       id="path10331"
       d="m 181.86229,153.89338 c -0.0291,0.26416 -0.082,0.52478 -0.12473,0.78693 -0.0478,0.3614 -0.10397,0.72124 -0.16271,1.08101 -0.01,0.0645 -0.02,0.12905 -0.0301,0.19358 -0.4355,2.80117 -1.75599,2.59587 -1.32049,-0.2053 v 0 c 0.0106,-0.0679 0.0211,-0.13576 0.0317,-0.20363 0.0587,-0.35971 0.11457,-0.71947 0.16267,-1.08076 0.0414,-0.25349 0.0929,-0.50536 0.12073,-0.76082 0.40091,-2.80633 1.72382,-2.61734 1.32292,0.18899 z"
       inkscape:connector-curvature="0" />
    <path
       style="opacity:1;fill:#000000;fill-opacity:1;fill-rule:nonzero;stroke:#000000;stroke-width:0.1;stroke-linecap:round;stroke-linejoin:round;stroke-miterlimit:4;stroke-dasharray:none;stroke-dashoffset:0;stroke-opacity:1;paint-order:markers fill stroke"
       id="path10333"
       d="m 181.59502,164.3169 c -0.033,0.24264 -0.053,0.48678 -0.0718,0.73085 -0.0125,0.16687 -0.022,0.33394 -0.0316,0.50101 -0.16162,2.83021 -1.49579,2.75402 -1.33417,-0.0762 v 0 c 0.0101,-0.17599 0.0201,-0.35199 0.0334,-0.52778 0.0211,-0.27283 0.0439,-0.5457 0.0813,-0.81688 0.40091,-2.80633 1.72382,-2.61735 1.32292,0.18899 z"
       inkscape:connector-curvature="0" />
    <path
       style="opacity:1;fill:#000000;fill-opacity:1;fill-rule:nonzero;stroke:#000000;stroke-width:0.1;stroke-linecap:round;stroke-linejoin:round;stroke-miterlimit:4;stroke-dasharray:none;stroke-dashoffset:0;stroke-opacity:1;paint-order:markers fill stroke"
       id="path10335"
       d="m 182.39683,173.9386 c -0.033,0.24264 -0.053,0.48678 -0.0718,0.73085 -0.005,0.33808 0.007,0.67618 0.0148,1.01415 0.005,0.20371 0.009,0.40745 0.0125,0.61118 0.0539,2.83431 -1.28219,2.85972 -1.3361,0.0254 v 0 c -0.004,-0.20203 -0.008,-0.40407 -0.0124,-0.60609 -0.009,-0.3824 -0.0238,-0.76516 -0.0112,-1.14761 0.0211,-0.27283 0.0439,-0.5457 0.0813,-0.81688 0.4009,-2.80633 1.72382,-2.61735 1.32292,0.18898 z"
       inkscape:connector-curvature="0" />
    <path
       style="opacity:1;fill:#000000;fill-opacity:1;fill-rule:nonzero;stroke:#000000;stroke-width:0.1;stroke-linecap:round;stroke-linejoin:round;stroke-miterlimit:4;stroke-dasharray:none;stroke-dashoffset:0;stroke-opacity:1;paint-order:markers fill stroke"
       id="path10337"
       d="m 182.94599,185.60396 c 0,0.25796 0,0.51592 0,0.77387 0,0.3603 0,0.72059 0,1.08088 0,0.0662 0,0.13241 0,0.19861 0,2.83482 -1.33635,2.83482 -1.33635,0 v 0 c 0,-0.0662 0,-0.13241 0,-0.19861 0,-0.36029 0,-0.72058 0,-1.08088 0,-0.25795 0,-0.51591 0,-0.77387 0,-2.83482 1.33635,-2.83482 1.33635,0 z"
       inkscape:connector-curvature="0" />
    <path
       style="opacity:1;fill:#000000;fill-opacity:1;fill-rule:nonzero;stroke:#000000;stroke-width:0.1;stroke-linecap:round;stroke-linejoin:round;stroke-miterlimit:4;stroke-dasharray:none;stroke-dashoffset:0;stroke-opacity:1;paint-order:markers fill stroke"
       id="path10339"
       d="m 183.48053,195.7602 c 0,0.25796 0,0.51592 0,0.77387 0,0.38013 0,0.76025 0,1.14037 0.002,0.4532 -0.0342,0.90557 -0.0606,1.35775 -0.16552,2.82998 -1.49959,2.75195 -1.33407,-0.078 v 0 c 0.0249,-0.4262 0.0601,-0.85259 0.0584,-1.27972 0,-0.38012 0,-0.76024 0,-1.14037 0,-0.25795 0,-0.51591 0,-0.77387 0,-2.83482 1.33635,-2.83482 1.33635,0 z"
       inkscape:connector-curvature="0" />
    <path
       style="opacity:1;fill:#000000;fill-opacity:1;fill-rule:nonzero;stroke:#000000;stroke-width:0.1;stroke-linecap:round;stroke-linejoin:round;stroke-miterlimit:4;stroke-dasharray:none;stroke-dashoffset:0;stroke-opacity:1;paint-order:markers fill stroke"
       id="path10341"
       d="m 184.00044,206.81275 c -0.0365,0.22261 -0.0256,0.449 -0.0237,0.67366 0.0259,0.33672 0.0475,0.67421 0.0872,1.00962 0.0359,0.27254 0.07,0.54529 0.10223,0.81828 0.33178,2.81534 -0.99538,2.97174 -1.32716,0.15641 v 0 c -0.0322,-0.27383 -0.0668,-0.54735 -0.10252,-0.82074 -0.0437,-0.38284 -0.0727,-0.76757 -0.096,-1.15215 -0.002,-0.29166 -0.0104,-0.58511 0.037,-0.87407 0.4009,-2.80633 1.72382,-2.61734 1.32291,0.18899 z"
       inkscape:connector-curvature="0" />
    <path
       style="opacity:1;fill:#000000;fill-opacity:1;fill-rule:nonzero;stroke:#000000;stroke-width:0.1;stroke-linecap:round;stroke-linejoin:round;stroke-miterlimit:4;stroke-dasharray:none;stroke-dashoffset:0;stroke-opacity:1;paint-order:markers fill stroke"
       id="path10345"
       d="m 184.54961,217.14177 c 0.007,0.2396 0.0369,0.47865 0.0571,0.71764 0.0304,0.36761 0.0504,0.73595 0.0685,1.10433 0.01,0.20531 0.0177,0.41072 0.0255,0.61613 0.10724,2.83279 -1.22815,2.88335 -1.33539,0.0505 v 0 c -0.008,-0.2004 -0.0152,-0.4008 -0.0248,-0.60112 -0.0173,-0.35274 -0.0364,-0.70543 -0.0654,-1.05743 -0.0233,-0.27638 -0.0584,-0.55264 -0.0619,-0.8301 0,-2.83483 1.33635,-2.83483 1.33635,0 z"
       inkscape:connector-curvature="0" />
    <path
       style="opacity:1;fill:#000000;fill-opacity:1;fill-rule:nonzero;stroke:#000000;stroke-width:0.1;stroke-linecap:round;stroke-linejoin:round;stroke-miterlimit:4;stroke-dasharray:none;stroke-dashoffset:0;stroke-opacity:1;paint-order:markers fill stroke"
       id="path10347"
       d="m 184.81688,228.63436 c -0.004,0.24212 -2.7e-4,0.48322 0.0177,0.72466 0.0307,0.36317 0.0555,0.72676 0.0771,1.09056 0.0147,0.27042 0.008,0.13452 0.0213,0.40771 0.14167,2.83128 -1.19301,2.89807 -1.33468,0.0668 v 0 c -0.0133,-0.26519 -0.006,-0.13337 -0.0206,-0.39545 -0.0212,-0.35735 -0.0457,-0.71448 -0.0758,-1.0712 -0.02,-0.2742 -0.0262,-0.54817 -0.0214,-0.82307 0,-2.83483 1.33634,-2.83483 1.33634,0 z"
       inkscape:connector-curvature="0" />
    <path
       style="opacity:1;fill:#000000;fill-opacity:1;fill-rule:nonzero;stroke:#000000;stroke-width:0.1;stroke-linecap:round;stroke-linejoin:round;stroke-miterlimit:4;stroke-dasharray:none;stroke-dashoffset:0;stroke-opacity:1;paint-order:markers fill stroke"
       id="path10349"
       d="m 185.60406,238.88509 c -0.033,0.24265 -0.053,0.48679 -0.0718,0.73086 -0.005,0.31363 0.007,0.62728 0.0148,0.94079 0.0693,2.83397 -1.26666,2.86663 -1.33595,0.0327 v 0 c -0.009,-0.35867 -0.0239,-0.71769 -0.0112,-1.07641 0.0211,-0.27283 0.0439,-0.54571 0.0813,-0.81689 0.4009,-2.80633 1.72381,-2.61734 1.32291,0.18899 z"
       inkscape:connector-curvature="0" />
    <path
       style="opacity:1;fill:#000000;fill-opacity:1;fill-rule:nonzero;stroke:#000000;stroke-width:0.1;stroke-linecap:round;stroke-linejoin:round;stroke-miterlimit:4;stroke-dasharray:none;stroke-dashoffset:0;stroke-opacity:1;paint-order:markers fill stroke"
       id="path10353"
       d="m 185.61868,247.87776 c 0,0.25796 0,0.51591 0,0.77387 0.002,0.0443 0.005,0.0886 0.007,0.13289 0.13578,2.83157 -1.19903,2.89558 -1.33482,0.064 v 0 c -0.003,-0.0656 -0.006,-0.13126 -0.009,-0.1969 0,-0.25796 0,-0.51591 0,-0.77387 0,-2.83482 1.33635,-2.83482 1.33635,0 z"
       inkscape:connector-curvature="0" />
    <circle
       style="opacity:1;fill:#000000;fill-opacity:1;fill-rule:nonzero;stroke:#000000;stroke-width:0.1;stroke-linecap:round;stroke-linejoin:round;stroke-miterlimit:4;stroke-dasharray:none;stroke-dashoffset:0;stroke-opacity:1;paint-order:markers fill stroke"
       id="path10427"
       cx="53.780678"
       cy="201.67513"
       r="2.613189" />
    <path
       style="opacity:1;fill:#000000;fill-opacity:1;fill-rule:nonzero;stroke:#000000;stroke-width:0.1;stroke-linecap:round;stroke-linejoin:round;stroke-miterlimit:4;stroke-dasharray:none;stroke-dashoffset:0;stroke-opacity:1;paint-order:markers fill stroke"
       id="path10450"
       d="m 54.467061,201.26447 c 0.225438,-0.14228 0.446511,-0.2905 0.67801,-0.42311 0.330748,-0.19395 0.658207,-0.39276 0.993439,-0.57912 0.457989,-0.25347 0.906855,-0.52272 1.367912,-0.77061 0.618453,-0.32041 1.233064,-0.64814 1.853891,-0.96395 0.781798,-0.38248 1.549037,-0.79334 2.318043,-1.20064 0.891805,-0.47514 1.79696,-0.92455 2.695697,-1.3863 1.008631,-0.52132 2.024465,-1.02846 3.034765,-1.54653 1.084324,-0.54934 2.166446,-1.10253 3.243504,-1.666 1.088199,-0.57087 2.177933,-1.13879 3.268694,-1.70474 1.082132,-0.56119 2.166231,-1.11859 3.250896,-1.67487 1.086514,-0.56193 2.179679,-1.11063 3.275226,-1.65467 1.112229,-0.55669 2.2327,-1.0966 3.352216,-1.63842 1.131294,-0.54291 2.258795,-1.09323 3.381316,-1.65405 1.146985,-0.57753 2.301343,-1.14022 3.458681,-1.69664 1.15442,-0.55554 2.308199,-1.11211 3.470868,-1.65021 1.114041,-0.50694 2.213544,-1.0449 3.323423,-1.5607 1.072584,-0.48645 2.132481,-1.00015 3.202188,-1.49275 1.04049,-0.46867 2.07063,-0.95976 3.1056,-1.44039 1.00832,-0.46607 2.01514,-0.93533 3.0254,-1.39719 0.97915,-0.45562 1.96051,-0.9063 2.94121,-1.35857 0.95803,-0.44028 1.91618,-0.8805 2.87607,-1.31675 0.93306,-0.42208 1.8664,-0.8437 2.80314,-1.25754 0.8908,-0.39931 1.78451,-0.79197 2.67183,-1.199 0.85946,-0.39327 1.72285,-0.77804 2.5793,-1.17786 0.83068,-0.3826 1.66384,-0.75991 2.49319,-1.14538 0.8193,-0.38525 1.6406,-0.76614 2.46212,-1.1466 0.79362,-0.37282 1.58666,-0.74678 2.37952,-1.12124 0.77405,-0.37301 1.54988,-0.7424 2.32807,-1.10672 0.77416,-0.36532 1.54919,-0.72878 2.32376,-1.09327 0.75541,-0.34578 1.5092,-0.69504 2.26439,-1.04125 0.71946,-0.33269 1.43153,-0.68099 2.14691,-1.0223 0.68085,-0.3327 1.36523,-0.65821 2.04039,-1.0024 0.64061,-0.32058 1.27471,-0.6536 1.90813,-0.98805 0.60314,-0.32662 1.20327,-0.65888 1.80331,-0.9912 0.5769,-0.33047 1.15972,-0.65049 1.73484,-0.98406 0.57083,-0.32719 1.13922,-0.65866 1.71876,-0.97029 0.55707,-0.29901 1.11669,-0.59337 1.67861,-0.88317 0.54527,-0.29128 1.10362,-0.55687 1.65775,-0.83061 0.54709,-0.26297 1.09776,-0.51857 1.64875,-0.77328 0.54205,-0.24294 1.08543,-0.48292 1.6253,-0.73066 0.5349,-0.25013 1.07786,-0.48256 1.61264,-0.73286 0.53771,-0.24303 1.07272,-0.49156 1.60326,-0.74994 0.53616,-0.25912 1.07222,-0.51856 1.60596,-0.78264 0.53719,-0.26487 1.08382,-0.50954 1.62992,-0.75521 0.52206,-0.2279 1.04512,-0.45347 1.56728,-0.68118 0.51294,-0.22397 1.02751,-0.44403 1.5438,-0.66019 0.48764,-0.22046 0.98031,-0.4295 1.4687,-0.64826 0.47527,-0.21114 0.94566,-0.43323 1.41523,-0.65674 0.45168,-0.20432 0.89185,-0.43265 1.34103,-0.64227 0.43719,-0.21171 0.87022,-0.4318 1.30567,-0.64704 0.4506,-0.22841 0.90782,-0.44309 1.35863,-0.67114 0.45166,-0.22159 0.89891,-0.45172 1.34193,-0.69011 0.43055,-0.22266 0.84873,-0.46801 1.26472,-0.71653 0.43283,-0.24777 0.8583,-0.50809 1.29212,-0.75407 0.41033,-0.24965 0.83101,-0.48115 1.2482,-0.71881 0.40567,-0.2191 0.80735,-0.4448 1.20602,-0.67636 0.38526,-0.2186 0.77081,-0.43656 1.15684,-0.65385 0.33292,-0.17467 0.6606,-0.35857 0.96931,-0.57353 0.10172,-0.081 0.0522,-0.0407 0.1486,-0.12076 2.18622,-1.80462 3.03693,-0.77402 0.8507,1.0306 v 0 c -0.1455,0.1196 -0.0661,0.0561 -0.2392,0.18929 -0.34374,0.23651 -0.70365,0.44681 -1.07401,0.63899 -0.38079,0.21425 -0.76111,0.42917 -1.14108,0.64484 -0.40207,0.23351 -0.80703,0.46142 -1.21623,0.68223 -0.4182,0.23776 -0.83922,0.47046 -1.25058,0.72016 -0.42514,0.24047 -0.84131,0.49641 -1.2655,0.73859 -0.43323,0.25865 -0.86873,0.51398 -1.31689,0.74612 -0.45305,0.24358 -0.91016,0.47926 -1.37198,0.70578 -0.45455,0.22971 -0.91525,0.44657 -1.36959,0.67662 -0.44457,0.21962 -0.88648,0.44459 -1.33305,0.66018 -0.44612,0.20772 -0.88267,0.43537 -1.33134,0.63771 -0.47894,0.22796 -0.9588,0.45429 -1.44348,0.66979 -0.49843,0.22305 -1.00091,0.43687 -1.49874,0.66127 -0.51029,0.21358 -1.01883,0.43109 -1.52576,0.65248 -0.51748,0.22555 -1.03574,0.44925 -1.55316,0.67492 -0.53122,0.23893 -1.063,0.47674 -1.58558,0.73428 -0.5363,0.26525 -1.07481,0.52605 -1.61353,0.78635 -0.53687,0.26129 -1.07801,0.51318 -1.62213,0.75896 -0.5379,0.25135 -1.08352,0.48576 -1.62152,0.73697 -0.53878,0.24708 -1.08082,0.48694 -1.62183,0.72906 -0.54058,0.24983 -1.08077,0.5007 -1.61762,0.7584 -0.54726,0.27027 -1.09866,0.53251 -1.63712,0.8202 -0.55524,0.28623 -1.10809,0.57721 -1.65852,0.87259 -0.56702,0.30445 -1.12244,0.62957 -1.68098,0.9492 -0.5828,0.33781 -1.17308,0.66244 -1.75773,0.99703 -0.60784,0.3366 -1.21571,0.67325 -1.82679,1.0039 -0.63914,0.33744 -1.27896,0.67345 -1.92531,0.99695 -0.68564,0.34928 -1.38027,0.68032 -2.07172,1.01786 -0.72156,0.34426 -1.43979,0.69559 -2.16553,1.03101 -0.75118,0.34422 -1.50079,0.69185 -2.25221,1.03559 -0.77537,0.36485 -1.55121,0.72866 -2.32614,1.09439 -0.77683,0.36367 -1.5513,0.73245 -2.32399,1.1048 -0.7959,0.37588 -1.59198,0.75125 -2.38864,1.1255 -0.82098,0.3802 -1.64174,0.76086 -2.46049,1.14585 -0.82873,0.38508 -1.66114,0.76225 -2.49119,1.14446 -0.85919,0.40094 -1.72513,0.7872 -2.58734,1.18157 -0.89305,0.40961 -1.79247,0.80493 -2.68904,1.20675 -0.93246,0.41182 -1.8614,0.83169 -2.79019,1.25173 -0.95767,0.4352 -1.91356,0.87441 -2.86934,1.31368 -0.98205,0.45285 -1.96474,0.90418 -2.94522,1.36041 -1.00786,0.46075 -2.01227,0.92892 -3.01819,1.39387 -1.03629,0.4812 -2.06772,0.97297 -3.10954,1.4422 -1.06836,0.49181 -2.12671,1.00514 -3.197944,1.49079 -1.110565,0.51596 -2.210549,1.05451 -3.325294,1.56157 -1.156734,0.53531 -2.304552,1.08918 -3.45309,1.64182 -1.151253,0.55349 -2.299534,1.11321 -3.440473,1.68772 -1.127537,0.56331 -2.260065,1.11612 -3.396405,1.66147 -1.115439,0.53984 -2.23184,1.07775 -3.34001,1.63244 -1.090377,0.54146 -2.178386,1.08756 -3.259754,1.64686 -1.082786,0.55532 -2.165012,1.11174 -3.245271,1.67196 -1.089425,0.56526 -2.177822,1.13249 -3.264688,1.70265 -1.080289,0.56516 -2.165636,1.12004 -3.253206,1.67103 -1.009999,0.51791 -2.02551,1.02493 -3.03385,1.54606 -0.893807,0.45918 -1.793954,0.90616 -2.680904,1.37859 -0.775539,0.41076 -1.54935,0.82501 -2.337731,1.21085 -0.612153,0.31125 -1.217949,0.63468 -1.827829,0.95034 -0.455835,0.24405 -0.898094,0.51211 -1.351068,0.76142 -0.331362,0.18373 -0.654053,0.38133 -0.981197,0.57223 -0.204949,0.11554 -0.398084,0.24939 -0.597673,0.37356 -2.358715,1.57247 -3.099988,0.46056 -0.741272,-1.11191 z"
       inkscape:connector-curvature="0" />
    <circle
       style="opacity:1;fill:#000000;fill-opacity:1;fill-rule:nonzero;stroke:#000000;stroke-width:0.1;stroke-linecap:round;stroke-linejoin:round;stroke-miterlimit:4;stroke-dasharray:none;stroke-dashoffset:0;stroke-opacity:1;paint-order:markers fill stroke"
       id="path10427-1"
       cx="180.11989"
       cy="139.98253"
       r="2.6131892" />
  </g>
</svg>
