<?xml version="1.0" encoding="UTF-8" standalone="no"?>
<!-- Created with Inkscape (http://www.inkscape.org/) -->

<svg
   xmlns:dc="http://purl.org/dc/elements/1.1/"
   xmlns:cc="http://creativecommons.org/ns#"
   xmlns:rdf="http://www.w3.org/1999/02/22-rdf-syntax-ns#"
   xmlns:svg="http://www.w3.org/2000/svg"
   xmlns="http://www.w3.org/2000/svg"
   xmlns:sodipodi="http://sodipodi.sourceforge.net/DTD/sodipodi-0.dtd"
   xmlns:inkscape="http://www.inkscape.org/namespaces/inkscape"
   width="297mm"
   height="210mm"
   viewBox="0 0 297 210"
   version="1.1"
   id="svg8958"
   inkscape:version="0.92.1 r15371"
   sodipodi:docname="unlimited-func.svg">
  <defs
     id="defs8952" />
  <sodipodi:namedview
     id="base"
     pagecolor="#ffffff"
     bordercolor="#666666"
     borderopacity="1.0"
     inkscape:pageopacity="0.0"
     inkscape:pageshadow="2"
     inkscape:zoom="0.98994949"
     inkscape:cx="409.66816"
     inkscape:cy="447.6841"
     inkscape:document-units="mm"
     inkscape:current-layer="layer1"
     showgrid="false"
     inkscape:window-width="1920"
     inkscape:window-height="1046"
     inkscape:window-x="-11"
     inkscape:window-y="-11"
     inkscape:window-maximized="1" />
  <metadata
     id="metadata8955">
    <rdf:RDF>
      <cc:Work
         rdf:about="">
        <dc:format>image/svg+xml</dc:format>
        <dc:type
           rdf:resource="http://purl.org/dc/dcmitype/StillImage" />
        <dc:title></dc:title>
      </cc:Work>
    </rdf:RDF>
  </metadata>
  <g
     inkscape:label="Layer 1"
     inkscape:groupmode="layer"
     id="layer1"
     transform="translate(0,-87)">
    <path
       style="opacity:1;fill:#000000;fill-opacity:1;fill-rule:nonzero;stroke:#000000;stroke-width:0.1;stroke-linecap:round;stroke-linejoin:round;stroke-miterlimit:4;stroke-dasharray:none;stroke-dashoffset:0;stroke-opacity:1;paint-order:markers fill stroke"
       id="path9503"
       d="m 49.002433,106.14121 c -0.05567,0.21676 -0.102682,0.43661 -0.123073,0.65964 -0.02776,0.34012 -0.03113,0.68068 -0.01929,1.02146 0.01111,0.4786 0.04736,0.95545 0.0862,1.4324 0.04996,0.6016 0.08544,1.20423 0.116957,1.80704 0.05174,0.67489 0.105569,1.34957 0.151942,2.02486 0.05015,0.74504 0.08577,1.49093 0.118269,2.23691 0.03329,0.78803 0.05767,1.57639 0.07986,2.3648 0.0254,0.81084 0.04249,1.62155 0.03434,2.43277 -0.0085,0.80508 -0.03557,1.60995 -0.03227,2.41509 0.01111,0.80992 0.02992,1.6197 0.04521,2.42954 7.94e-4,0.85559 -0.0195,1.71104 -0.03413,2.56647 -0.01516,0.87294 -0.02666,1.74594 -0.03713,2.61895 -0.01045,0.89493 -0.01834,1.78988 -0.0254,2.68484 0.0026,0.92382 -0.01934,1.84699 -0.05018,2.77019 -0.04386,0.92926 -0.0412,1.85946 -0.03909,2.78946 0.0033,0.94041 0.0073,1.88081 0.01074,2.82121 0.01312,0.94772 -5.29e-4,1.895 -0.02453,2.84239 -0.02567,0.95157 -0.04841,1.90322 -0.06834,2.85492 -0.01021,0.97109 -0.04131,1.94137 -0.08143,2.91161 -0.0413,0.96856 -0.07568,1.93738 -0.106508,2.90632 -0.03003,0.96692 -0.0532,1.93404 -0.07402,2.9012 -0.02048,0.95569 -0.03588,1.91148 -0.05003,2.86729 -0.01003,0.94255 -0.05713,1.88425 -0.09373,2.82603 -0.03563,0.90729 -0.06387,1.81484 -0.08953,2.72246 -0.01524,0.8911 -0.04996,1.78128 -0.09443,2.67133 -0.04351,0.84794 -0.08147,1.69614 -0.11507,2.54452 -0.02151,0.83433 -0.077,1.66704 -0.126886,2.49999 -0.04999,0.81956 -0.08898,1.63973 -0.12419,2.46004 -0.03539,0.83402 -0.06135,1.66838 -0.085,2.5028 -0.02379,0.85937 -0.04158,1.71888 -0.05746,2.57842 -0.01598,0.87673 -0.02799,1.75353 -0.03881,2.63033 -0.01355,0.89132 -0.02228,1.78239 -0.0067,2.6737 0.02035,0.91924 0.04103,1.83847 0.05869,2.75778 0.01807,0.93783 0.03144,1.87575 0.04376,2.81368 0.01222,0.94545 0.02127,1.89094 0.02961,2.83643 0.0082,0.95104 0.01437,1.90211 0.01998,2.85317 0.0055,0.95527 0.0097,1.91055 0.01347,2.86584 0.0037,0.94334 0.0065,1.88669 0.0091,2.83004 0.0024,0.93539 0.0044,1.87078 0.0061,2.80617 0.0016,0.92168 0.003,1.84336 0.0041,2.76503 0.0011,0.92 0.0021,1.83999 0.0028,2.75999 7.94e-4,0.91193 0.0013,1.82386 0.0019,2.73579 5.29e-4,0.90512 7.94e-4,1.81024 0.0013,2.71536 2.65e-4,0.90764 5.29e-4,1.81528 7.94e-4,2.72292 2.38e-4,0.91733 5.29e-4,1.83467 5.29e-4,2.75201 0.0097,0.92195 -0.006,1.84339 -0.03257,2.7649 -0.0279,0.90633 -0.05206,1.81277 -0.07373,2.71927 -0.02106,0.89207 -0.03722,1.78424 -0.05188,2.67643 -0.01434,0.89024 -0.02519,1.78052 -0.03508,2.67082 -0.0097,0.87467 -0.01699,1.74937 -0.02368,2.62407 -0.0065,0.84861 -0.01146,1.69724 -0.01598,2.54587 -0.0043,0.81688 -0.0077,1.63377 -0.0108,2.45066 -0.0029,0.7809 -0.0052,1.56179 -0.0073,2.34269 -0.0019,0.73941 -0.0035,1.47882 -0.0049,2.21823 -0.0045,0.72176 0.0053,1.44365 -0.0114,2.16527 -0.02397,0.71101 -0.05384,1.4218 -0.07901,2.13277 -0.02437,0.68689 -0.04335,1.37394 -0.06059,2.06105 -0.03169,0.68035 -0.07637,1.36002 -0.114308,2.04005 -0.02791,0.68256 -0.07225,1.36387 -0.124484,2.04495 -0.05374,0.69001 -0.09656,1.38079 -0.134797,2.07181 -0.03789,0.69232 -0.06681,1.38507 -0.09323,2.07791 -0.0405,0.69022 -0.09191,1.37974 -0.136504,2.0697 -0.04127,0.641 -0.07466,1.28247 -0.105172,1.92405 -0.02848,0.60613 -0.05089,1.21251 -0.07135,1.81895 -0.0067,0.55514 0.01968,1.10989 0.01635,1.66496 -0.0021,0.0899 -0.004,0.17975 -0.006,0.26963 -0.06376,2.8341 -1.399772,2.80404 -1.336008,-0.0301 v 0 c 0.0019,-0.0829 0.0038,-0.1659 0.0057,-0.24885 0.0046,-0.56697 -0.02619,-1.13369 -0.01561,-1.70074 0.02066,-0.61259 0.04332,-1.22511 0.0721,-1.83737 0.03088,-0.64916 0.06468,-1.2982 0.106445,-1.94676 0.04384,-0.67823 0.094,-1.35603 0.134694,-2.03445 0.02672,-0.70048 0.05599,-1.40087 0.0943,-2.10083 0.03878,-0.70047 0.08219,-1.40069 0.13667,-2.10014 0.05153,-0.67184 0.09521,-1.34388 0.122645,-2.0172 0.03718,-0.6664 0.08056,-1.33247 0.112652,-1.99913 0.01736,-0.69169 0.03646,-1.38334 0.06101,-2.07482 0.02498,-0.70573 0.05452,-1.41129 0.07855,-2.11706 0.01717,-0.71191 0.0059,-1.42415 0.01103,-2.13622 0.0013,-0.73977 0.0029,-1.47953 0.0049,-2.2193 0.0021,-0.78138 0.0044,-1.56275 0.0073,-2.34412 0.0031,-0.81759 0.0065,-1.63518 0.0108,-2.45276 0.0045,-0.84966 0.0096,-1.69932 0.01601,-2.54896 0.0067,-0.87624 0.01405,-1.75247 0.02373,-2.62868 0.0099,-0.89268 0.0208,-1.78534 0.03517,-2.67795 0.01471,-0.89552 0.03095,-1.79101 0.05208,-2.6864 0.02172,-0.90869 0.04593,-1.81731 0.0739,-2.72582 0.02619,-0.90861 0.04173,-1.81713 0.03201,-2.72619 -1.64e-4,-0.91729 -2.64e-4,-1.83459 -5.29e-4,-2.75189 -2.38e-4,-0.90758 -5.29e-4,-1.81516 -7.94e-4,-2.72274 -2.64e-4,-0.90503 -7.94e-4,-1.81007 -0.0013,-2.71511 -5.29e-4,-0.91181 -0.0011,-1.82362 -0.0019,-2.73543 -7.94e-4,-0.91981 -0.0016,-1.83962 -0.0028,-2.75943 -0.0011,-0.92141 -0.0024,-1.84283 -0.0041,-2.76424 -0.0019,-0.93501 -0.0037,-1.87002 -0.0061,-2.80503 -0.0026,-0.9428 -0.0054,-1.88559 -0.0091,-2.82839 -0.0038,-0.95441 -0.008,-1.90883 -0.01347,-2.86323 -0.0056,-0.94977 -0.01177,-1.89953 -0.01995,-2.84928 -0.0083,-0.94357 -0.01733,-1.88714 -0.02955,-2.83067 -0.01228,-0.93522 -0.02561,-1.87043 -0.04363,-2.80556 -0.01767,-0.92012 -0.03841,-1.84017 -0.05873,-2.76023 -0.01566,-0.90454 -0.0072,-1.80885 0.0066,-2.71341 0.01085,-0.87953 0.02289,-1.75905 0.03893,-2.63851 0.01595,-0.86394 0.03385,-1.72785 0.05777,-2.59161 0.02384,-0.8409 0.05002,-1.68174 0.08569,-2.52224 0.03554,-0.82785 0.07491,-1.65554 0.125349,-2.48264 0.04935,-0.82395 0.104433,-1.64765 0.125544,-2.47298 0.0338,-0.85298 0.07194,-1.70578 0.115687,-2.55832 0.044,-0.88041 0.07833,-1.76093 0.0933,-2.6424 0.0258,-0.91233 0.05419,-1.82459 0.09001,-2.73659 0.03619,-0.93109 0.08289,-1.86208 0.09287,-2.79392 0.01421,-0.9588 0.02966,-1.91758 0.0502,-2.87626 0.0209,-0.97174 0.04421,-1.94344 0.07438,-2.91494 0.03097,-0.97318 0.06549,-1.94625 0.106973,-2.91904 0.03975,-0.96117 0.07057,-1.92236 0.08059,-2.88438 0.01998,-0.95364 0.04275,-1.90723 0.06847,-2.86074 0.02365,-0.93449 0.0372,-1.86886 0.0241,-2.80369 -0.0034,-0.94103 -0.0075,-1.88205 -0.01074,-2.82308 -0.0021,-0.94588 -0.0045,-1.89197 0.03984,-2.8371 0.03047,-0.91185 0.05219,-1.82364 0.04948,-2.7361 0.0071,-0.89679 0.01495,-1.79358 0.02545,-2.69035 0.0105,-0.87527 0.02204,-1.75054 0.03723,-2.62575 0.01434,-0.83941 0.034,-1.67883 0.03417,-2.51839 -0.01543,-0.81659 -0.03447,-1.63312 -0.04544,-2.44978 -0.0028,-0.81134 0.02304,-1.62238 0.03233,-2.43363 0.0081,-0.79417 -0.0092,-1.58783 -0.03388,-2.38163 -0.02199,-0.78156 -0.04615,-1.56307 -0.07913,-2.34425 -0.032,-0.73484 -0.06704,-1.4696 -0.116396,-2.20352 -0.04686,-0.68256 -0.101803,-1.36446 -0.153259,-2.04666 -0.03081,-0.58989 -0.06547,-1.17962 -0.114372,-1.76833 -0.04053,-0.49788 -0.07779,-0.99575 -0.08983,-1.49532 -0.01347,-0.40221 -0.009,-0.80442 0.02572,-1.20566 0.03346,-0.29979 0.08693,-0.59702 0.167277,-0.8881 0.778786,-2.72575 2.063716,-2.35862 1.284931,0.36713 z"
       inkscape:connector-curvature="0" />
    <path
       style="opacity:1;fill:#000000;fill-opacity:1;fill-rule:nonzero;stroke:#000000;stroke-width:0.1;stroke-linecap:round;stroke-linejoin:round;stroke-miterlimit:4;stroke-dasharray:none;stroke-dashoffset:0;stroke-opacity:1;paint-order:markers fill stroke"
       id="path9505"
       d="m 46.597008,104.80486 c -0.08048,0.29583 -0.144518,0.59474 -0.196757,0.89676 -0.102383,0.52316 -0.18202,1.05015 -0.254055,1.57821 -0.07911,0.56397 -0.125651,1.13175 -0.196221,1.69668 -0.05604,0.44989 -0.147238,0.89661 -0.340296,1.30818 -0.479311,0.71058 -1.124493,0.53827 -1.501074,-0.13849 -0.202203,-0.44971 -0.26185,-0.93939 -0.313971,-1.42443 -0.0605,-0.60895 -0.0675,-1.222 -0.03491,-1.83265 0.02349,-0.62367 0.146259,-1.2322 0.340707,-1.82335 0.187235,-0.58505 0.5451,-1.04312 1.012333,-1.42906 0.493947,-0.37046 1.080624,-0.52478 1.68203,-0.6053 0.612711,-0.0658 1.218515,0.0298 1.812761,0.17195 0.580818,0.15795 1.143529,0.37292 1.690211,0.62329 0.273915,0.1253 0.52801,0.28568 0.780518,0.44833 2.378496,1.54239 1.651408,2.66363 -0.727091,1.12124 v 0 c -0.197509,-0.12919 -0.396544,-0.25612 -0.611465,-0.35531 -0.467839,-0.21589 -0.950068,-0.39933 -1.446525,-0.5387 -0.435435,-0.10697 -0.879321,-0.18609 -1.329756,-0.14514 -0.355436,0.0417 -0.711438,0.11574 -1.012579,0.32051 -0.278916,0.21387 -0.474588,0.47079 -0.582684,0.81083 -0.161864,0.47681 -0.254608,0.97018 -0.274142,1.47432 -0.0309,0.53877 -0.02204,1.07998 0.02941,1.61737 0.03457,0.32717 0.06505,0.65797 0.1806,0.96883 -0.270325,-0.15586 -0.715135,-0.24256 -0.883645,0.12628 0.115506,-0.26804 0.164647,-0.57286 0.203647,-0.86529 0.07202,-0.56953 0.117054,-1.14232 0.198078,-1.71085 0.07434,-0.5442 0.156215,-1.08738 0.261564,-1.62658 0.06096,-0.34843 0.135252,-0.69343 0.228383,-1.03475 0.778785,-2.72575 2.063716,-2.35863 1.284929,0.36712 z"
       inkscape:connector-curvature="0" />
    <path
       style="opacity:1;fill:#000000;fill-opacity:1;fill-rule:nonzero;stroke:#000000;stroke-width:0.1;stroke-linecap:round;stroke-linejoin:round;stroke-miterlimit:4;stroke-dasharray:none;stroke-dashoffset:0;stroke-opacity:1;paint-order:markers fill stroke"
       id="path9507"
       d="m 39.076701,257.84502 c 0.291314,0 0.582628,0 0.873942,0 0.482386,-0.002 0.964163,-0.0363 1.445954,-0.0588 0.676343,-0.0306 1.353116,-0.0502 2.029912,-0.0675 0.843158,-0.0106 1.685237,-0.0549 2.527522,-0.0916 0.996837,-0.0443 1.993432,-0.10041 2.988974,-0.16813 1.10611,-0.0745 2.211234,-0.16374 3.315113,-0.26602 1.161415,-0.10372 2.321801,-0.2174 3.482202,-0.33174 1.132825,-0.10874 2.263924,-0.23427 3.396602,-0.34466 1.041464,-0.10104 2.084441,-0.18526 3.127867,-0.26301 0.957951,-0.0705 1.916854,-0.12658 2.875979,-0.17813 0.914606,-0.0486 1.829736,-0.0861 2.744983,-0.12012 0.909095,-0.0333 1.818457,-0.0582 2.727867,-0.081 0.937964,-0.0234 1.876079,-0.0398 2.814212,-0.0546 1.01627,-0.0321 2.032188,-0.0742 3.048381,-0.10872 1.091782,-0.0399 2.183654,-0.0671 3.276158,-0.0687 1.137745,0.003 2.275472,0.0107 3.413202,0.0168 1.169299,0.006 2.338604,0.011 3.507912,0.0154 1.181565,0.002 2.36293,0.004 3.544223,0.0302 1.123161,0.0293 2.246328,0.0582 3.36959,0.0835 1.101887,0.0245 2.203882,0.0435 3.305908,0.0603 1.121294,0.0168 2.242646,0.0294 3.364006,0.0408 1.13968,0.0262 2.27896,0.0669 3.41844,0.1001 1.14362,0.0362 2.2878,0.0511 3.43132,0.0897 1.15921,0.0468 2.31845,0.0926 3.47794,0.132 1.19877,0.0402 2.39785,0.0698 3.59698,0.0965 1.23645,0.0423 2.47253,0.0942 3.70893,0.13796 1.2526,0.0435 2.50551,0.077 3.7585,0.10701 1.27131,0.03 2.54278,0.0522 3.81428,0.0726 1.27538,0.0105 2.55017,0.0415 3.8249,0.082 1.26201,0.0415 2.52423,0.076 3.78654,0.10703 1.24788,0.0304 2.49593,0.0535 3.744,0.0744 1.23439,0.0238 2.46911,0.0283 3.70335,0.0583 1.20196,0.0365 2.4038,0.0765 3.60583,0.11056 1.18319,0.033 2.36655,0.0589 3.54996,0.0821 1.17495,0.0225 2.34998,0.0399 3.52504,0.0556 1.14283,0.0151 2.28571,0.0268 3.4286,0.0375 1.11166,0.007 2.2227,0.0505 3.33374,0.0851 1.06398,0.033 2.12813,0.0597 3.19234,0.0839 1.02648,0.0205 2.05284,0.0369 3.07877,0.0772 0.99028,0.0422 1.98068,0.081 2.97128,0.11498 0.96455,0.0328 1.92932,0.0584 2.89415,0.0815 0.95343,0.0225 1.90697,0.0395 2.86054,0.0552 0.93952,0.0151 1.87909,0.0266 2.81867,0.0372 0.92392,0.0102 1.84786,0.018 2.7718,0.0251 0.90488,0.007 1.80976,0.0122 2.71465,0.017 0.87927,0.005 1.75855,0.008 2.63783,0.0115 0.85232,0.006 1.70436,0.009 2.55647,-0.0116 0.85691,-0.0251 1.71382,-0.0497 2.57083,-0.0712 0.8683,-0.0214 1.73671,-0.0376 2.60514,-0.0522 0.87565,-0.0145 1.75136,-0.0254 2.62707,-0.0353 0.89004,-0.007 1.77935,-0.0501 2.66871,-0.0829 0.91706,-0.0335 1.83438,-0.0595 2.75174,-0.0832 0.89559,-0.0228 1.79129,-0.0405 2.68701,-0.0567 0.88118,-0.0157 1.76243,-0.0275 2.64369,-0.0383 0.87992,-0.0105 1.75987,-0.0185 2.63983,-0.0258 0.85815,-0.007 1.71631,-0.0125 2.57448,-0.0174 0.86142,-0.008 1.72254,-0.012 2.58379,0.008 0.86145,0.0241 1.72289,0.048 2.58444,0.0685 0.85998,0.005 1.71994,-0.0107 2.57982,-0.0221 0.86303,-0.0115 1.72608,-0.0206 2.58915,-0.0291 0.83156,-0.008 1.66314,-0.0143 2.49473,-0.0199 0.79312,-0.005 1.58624,-0.01 2.37937,-0.0135 0.73733,0.008 1.47388,-0.0246 2.21036,-0.0547 0.68739,-0.029 1.37493,-0.0542 2.06255,-0.077 0.56557,-0.0112 1.12996,-0.033 1.69342,-0.0834 0.18036,-0.007 0.39566,-0.0478 0.54782,-0.10741 -0.20143,0.10219 -0.28385,0.32783 -0.23259,0.54191 -0.10747,-0.13532 -0.23912,-0.24844 -0.36396,-0.36721 -0.23363,-0.20801 -0.46564,-0.416 -0.66439,-0.65817 -0.29088,-0.38472 -0.30002,-0.7872 -0.0635,-1.19873 0.26604,-0.30104 0.6137,-0.38206 0.99711,-0.40787 0.36799,-0.004 0.7327,0.0466 1.09392,0.11169 0.42861,0.0724 0.84456,0.19874 1.26172,0.31771 0.44675,0.12282 0.86846,0.29733 1.25944,0.54558 0.46173,0.31654 0.66077,0.75911 0.67512,1.3056 -0.045,0.55721 -0.36903,0.99238 -0.71293,1.40757 -0.37318,0.41729 -0.77966,0.80247 -1.15483,1.21789 -1.90205,2.102 -2.89294,1.20537 -0.9909,-0.89664 v 0 c 0.36354,-0.40107 0.75216,-0.77758 1.11849,-1.176 0.15266,-0.18241 0.32559,-0.36568 0.40448,-0.59479 0.0937,0.0316 -0.0321,-0.14263 -0.0648,-0.14129 -0.27548,-0.18374 -0.58373,-0.29065 -0.90061,-0.38282 -0.37549,-0.10713 -0.74938,-0.22306 -1.13522,-0.2882 -0.2565,-0.0476 -0.51448,-0.0832 -0.77554,-0.0923 -0.19618,0.008 -0.11858,0.009 0.007,-0.14231 0.0566,-0.12572 0.0949,-0.37746 0.026,-0.41831 0.1485,0.20295 0.36631,0.34526 0.54113,0.52359 0.22691,0.21632 0.46314,0.42804 0.62034,0.70387 0.2199,0.4715 0.16354,0.95226 -0.29621,1.25727 -0.33605,0.17265 -0.70246,0.24396 -1.07835,0.27039 -0.58815,0.0523 -1.17727,0.0765 -1.76761,0.088 -0.6842,0.0228 -1.36832,0.0478 -2.05229,0.0767 -0.75251,0.0308 -1.50511,0.0634 -2.25847,0.0558 -0.79227,0.004 -1.58453,0.008 -2.37679,0.0134 -0.83027,0.006 -1.66053,0.0119 -2.49078,0.0199 -0.86154,0.008 -1.72307,0.0175 -2.58457,0.029 -0.8764,0.0116 -1.75287,0.0278 -2.62937,0.0219 -0.86126,-0.0205 -1.72243,-0.0444 -2.5836,-0.0685 -0.84834,-0.0198 -1.69657,-0.015 -2.54509,-0.008 -0.85703,0.005 -1.71405,0.0103 -2.57107,0.0174 -0.8782,0.007 -1.7564,0.0153 -2.63456,0.0258 -0.87863,0.0107 -1.75724,0.0225 -2.6358,0.0382 -0.89228,0.0162 -1.78453,0.0338 -2.67668,0.0565 -0.91249,0.0236 -1.82493,0.0494 -2.73712,0.0828 -0.90071,0.0332 -1.80137,0.0767 -2.70277,0.0837 -0.87323,0.01 -1.74645,0.0208 -2.61962,0.0352 -0.86481,0.0146 -1.72959,0.0307 -2.59427,0.052 -0.85719,0.0215 -1.7143,0.0462 -2.5714,0.0712 -0.86472,0.0212 -1.72937,0.0179 -2.5943,0.012 -0.87999,-0.003 -1.75998,-0.007 -2.63997,-0.0115 -0.90596,-0.005 -1.81192,-0.0101 -2.71787,-0.017 -0.92553,-0.007 -1.85106,-0.0149 -2.77656,-0.0252 -0.94185,-0.0106 -1.88369,-0.0222 -2.82549,-0.0373 -0.95694,-0.0157 -1.91387,-0.0328 -2.87069,-0.0553 -0.96941,-0.0233 -1.93877,-0.0489 -2.9079,-0.0819 -0.99284,-0.034 -1.98549,-0.0729 -2.978,-0.11523 -1.01856,-0.0401 -2.03755,-0.056 -3.05666,-0.0765 -1.06794,-0.0243 -2.13582,-0.051 -3.20351,-0.0842 -1.10135,-0.0343 -2.2027,-0.078 -3.30466,-0.0845 -1.14465,-0.0107 -2.28929,-0.0225 -3.43389,-0.0376 -1.17785,-0.0157 -2.35568,-0.0331 -3.53343,-0.0557 -1.18731,-0.0233 -2.37458,-0.0492 -3.56167,-0.0823 -1.20028,-0.034 -2.40039,-0.0739 -3.6006,-0.11042 -1.23083,-0.0302 -2.46214,-0.0342 -3.69311,-0.0581 -1.25157,-0.021 -2.50311,-0.0441 -3.75449,-0.0746 -1.26547,-0.0312 -2.53085,-0.0657 -3.79602,-0.10731 -1.26777,-0.0402 -2.53558,-0.0711 -3.804,-0.0815 -1.275,-0.0205 -2.54998,-0.0427 -3.8248,-0.0728 -1.25807,-0.0301 -2.51607,-0.0637 -3.77375,-0.10746 -1.23057,-0.0435 -2.46082,-0.0951 -3.69142,-0.13745 -1.20435,-0.0268 -2.40866,-0.0565 -3.61265,-0.0969 -1.15941,-0.0394 -2.31857,-0.0851 -3.4777,-0.13198 -1.14143,-0.0387 -2.28355,-0.0531 -3.42507,-0.0895 -1.13103,-0.033 -2.26185,-0.0732 -3.39305,-0.0996 -1.123674,-0.0114 -2.247333,-0.024 -3.370939,-0.0409 -1.10523,-0.0169 -2.210429,-0.0359 -3.31552,-0.0605 -1.123246,-0.0253 -2.246397,-0.0541 -3.36954,-0.0835 -1.172948,-0.0264 -2.345965,-0.0281 -3.519183,-0.0298 -1.170041,-0.004 -2.340084,-0.009 -3.510116,-0.0154 -1.134705,-0.006 -2.269405,-0.0139 -3.404124,-0.0168 -1.077992,0.002 -2.155349,0.0287 -3.232629,0.0679 -1.024308,0.0348 -2.048333,0.0774 -3.072736,0.10933 -0.934011,0.0147 -1.868003,0.0311 -2.801847,0.0543 -0.904002,0.0226 -1.807956,0.0474 -2.711646,0.0805 -0.907886,0.0338 -1.815658,0.0709 -2.722912,0.11911 -0.949933,0.0511 -1.89965,0.1066 -2.848419,0.17637 -1.033312,0.077 -2.066176,0.16036 -3.097541,0.26041 -1.132207,0.11031 -2.262825,0.23588 -3.395181,0.34452 -1.16301,0.11459 -2.326007,0.2285 -3.490031,0.33248 -1.114758,0.10314 -2.230744,0.19348 -3.347749,0.26864 -1.006351,0.0683 -2.013725,0.12522 -3.021375,0.16993 -0.850321,0.0371 -1.700437,0.0815 -2.551634,0.0924 -0.667416,0.017 -1.334807,0.0363 -2.001782,0.0664 -0.502502,0.0234 -1.004977,0.0595 -1.508138,0.0602 -0.291314,0 -0.582628,0 -0.873942,0 -2.83482,0 -2.83482,-1.33635 0,-1.33635 z"
       inkscape:connector-curvature="0" />
    <path
       style="opacity:1;fill:#000000;fill-opacity:1;fill-rule:nonzero;stroke:#000000;stroke-width:0.1;stroke-linecap:round;stroke-linejoin:round;stroke-miterlimit:4;stroke-dasharray:none;stroke-dashoffset:0;stroke-opacity:1;paint-order:markers fill stroke"
       id="path9509"
       d="m 244.60466,258.99181 c 0.14729,0.22376 0.33085,0.41869 0.51197,0.61478 0.33625,0.36251 0.68689,0.7121 1.05685,1.04016 0.44164,0.37918 0.87262,0.77048 1.31056,1.15388 0.28778,0.25977 0.14531,0.12743 0.42735,0.39708 2.04709,1.96103 1.12265,2.92604 -0.92444,0.96501 v 0 c -0.24823,-0.23833 -0.12056,-0.11931 -0.38332,-0.35675 -0.44061,-0.38598 -0.87457,-0.77951 -1.3189,-1.16124 -0.4012,-0.35855 -0.78517,-0.73624 -1.1501,-1.13178 -0.22851,-0.24772 -0.45634,-0.49727 -0.64188,-0.77987 -1.57247,-2.35871 -0.46057,-3.09999 1.11191,-0.74127 z"
       inkscape:connector-curvature="0" />
    <path
       style="opacity:1;fill:#000000;fill-opacity:1;fill-rule:nonzero;stroke:#000000;stroke-width:0.1;stroke-linecap:round;stroke-linejoin:round;stroke-miterlimit:4;stroke-dasharray:none;stroke-dashoffset:0;stroke-opacity:1;paint-order:markers fill stroke"
       id="path9511"
       d="m 248.86707,257.84621 c -0.20606,0.0482 -0.37752,0.18062 -0.54529,0.30288 -0.46261,0.34243 -0.85542,0.76276 -1.23455,1.19265 -0.54772,0.61848 -1.05022,1.2748 -1.55213,1.93041 -0.47868,0.64159 -0.96796,1.27523 -1.46063,1.90611 -1.74485,2.23422 -2.79807,1.41169 -1.05322,-0.82253 v 0 c 0.49007,-0.62749 0.97667,-1.25781 1.4528,-1.89597 0.52099,-0.68038 1.04303,-1.36111 1.61171,-2.00282 0.44662,-0.50469 0.91237,-0.99511 1.45842,-1.39467 0.34546,-0.24417 0.70724,-0.47409 1.1339,-0.53898 2.80633,-0.4009 2.99532,0.92201 0.18899,1.32292 z"
       inkscape:connector-curvature="0" />
    <path
       style="opacity:1;fill:#000000;fill-opacity:1;fill-rule:nonzero;stroke:#000000;stroke-width:0.1;stroke-linecap:round;stroke-linejoin:round;stroke-miterlimit:4;stroke-dasharray:none;stroke-dashoffset:0;stroke-opacity:1;paint-order:markers fill stroke"
       id="path9513"
       d="m 22.317005,102.63971 c 2.31e-4,-0.26722 -0.0039,-0.53429 0.0088,-0.80125 0.02771,-0.41625 0.182511,-0.78464 0.437977,-1.10903 0.369109,-0.39389 0.836143,-0.41792 1.322828,-0.27131 0.404986,0.17298 0.734805,0.4749 1.054329,0.77065 0.334819,0.32325 0.672896,0.64354 1.031405,0.9405 0.32039,0.26142 0.672106,0.47789 1.048164,0.64846 0.219437,0.0879 0.446333,0.1355 0.676973,0.0748 0.178046,-0.0568 0.290891,-0.20922 0.401505,-0.3508 0.168942,-0.22273 0.257125,-0.48926 0.342104,-0.75194 0.09309,-0.25533 0.169492,-0.62164 0.441026,-0.75852 0.147489,-0.0743 0.320199,-0.0812 0.480298,-0.12184 0.619461,0.16798 0.770893,0.68673 0.946526,1.234 0.204586,0.6616 0.380071,1.33161 0.539911,2.00527 0.218707,0.86245 0.37007,1.73938 0.484788,2.62109 0.110747,0.86065 0.09036,1.72438 -0.03374,2.58104 -0.120867,0.74366 -0.423164,1.41489 -0.854851,2.02567 -0.405617,0.52807 -0.945023,0.84853 -1.574106,1.03397 -0.484958,0.11892 -0.952032,0.0496 -1.415947,-0.10818 -2.663446,-0.97071 -2.20585,-2.22627 0.457597,-1.25556 v 0 c 0.191375,0.0829 0.389845,0.11268 0.597392,0.0771 0.340212,-0.0861 0.624699,-0.24995 0.84963,-0.52681 0.316783,-0.43054 0.526002,-0.91177 0.618233,-1.44111 0.110667,-0.73464 0.123489,-1.47588 0.03051,-2.21445 -0.107701,-0.83596 -0.252412,-1.66704 -0.45983,-2.48452 -0.151828,-0.64132 -0.319008,-1.27905 -0.513244,-1.90897 -0.199004,-0.63544 -0.345718,-0.47481 0.231976,-0.30555 0.132427,-0.0426 0.275908,-0.0598 0.39728,-0.12777 0.168622,-0.0944 0.193728,-0.37691 0.04757,0.0879 -0.136067,0.41774 -0.297217,0.83004 -0.572973,1.17822 -0.316939,0.38609 -0.681506,0.71122 -1.184093,0.82309 -0.514127,0.0898 -1.012589,0.0414 -1.493858,-0.17243 -0.4799,-0.22362 -0.933776,-0.49615 -1.342876,-0.83429 -0.3768,-0.3139 -0.735641,-0.64823 -1.087473,-0.9898 -0.185022,-0.17317 -0.376154,-0.34234 -0.584285,-0.48737 0.02224,-0.0287 0.110043,-0.0746 0.139646,-0.12999 -0.09344,0.0653 -0.105594,0.21584 -0.125908,0.31908 -0.01485,0.24319 -0.0036,0.48714 -0.007,0.73068 0,2.83482 -1.336348,2.83482 -1.336348,0 z"
       inkscape:connector-curvature="0" />
    <path
       style="opacity:1;fill:#000000;fill-opacity:1;fill-rule:nonzero;stroke:#000000;stroke-width:0.1;stroke-linecap:round;stroke-linejoin:round;stroke-miterlimit:4;stroke-dasharray:none;stroke-dashoffset:0;stroke-opacity:1;paint-order:markers fill stroke"
       id="path9515"
       d="m 85.125345,253.75769 c 0.03173,0.26736 0.04505,0.53645 0.07597,0.80387 0.04535,0.41022 0.107453,0.81797 0.16904,1.22595 0.06296,0.4815 0.148958,0.95939 0.222284,1.43933 0.42789,2.80234 -0.893148,3.00405 -1.321038,0.20171 v 0 c -0.07335,-0.4807 -0.159588,-0.95933 -0.222623,-1.44157 -0.06407,-0.42446 -0.128238,-0.84876 -0.175575,-1.2755 -0.03514,-0.3172 -0.05868,-0.63572 -0.08441,-0.95379 0,-2.83482 1.33635,-2.83482 1.33635,0 z"
       inkscape:connector-curvature="0" />
    <path
       style="opacity:1;fill:#000000;fill-opacity:1;fill-rule:nonzero;stroke:#000000;stroke-width:0.1;stroke-linecap:round;stroke-linejoin:round;stroke-miterlimit:4;stroke-dasharray:none;stroke-dashoffset:0;stroke-opacity:1;paint-order:markers fill stroke"
       id="path9517"
       d="m 86.980018,267.18483 c -0.169582,-0.0261 -0.342699,0.004 -0.50737,0.0457 -0.217548,0.0617 -0.392594,0.19507 -0.563684,0.33645 -0.2143,0.16851 -0.333928,0.39876 -0.447837,0.63964 -0.146423,0.30211 -0.195495,0.63321 -0.24081,0.96206 -0.03469,0.30263 -0.0378,0.60537 0.04282,0.9004 -0.0063,0.093 0.208539,0.27967 0.07371,0.13894 -0.119399,-0.064 -0.09052,-0.0525 0.03137,-0.13416 0.198737,-0.14197 0.357667,-0.32342 0.500034,-0.51979 0.174871,-0.26882 0.306493,-0.56133 0.476017,-0.83355 0.222546,-0.36035 0.528367,-0.56634 0.941916,-0.64101 0.478854,-7.9e-4 0.781135,0.28601 1.067419,0.62952 0.245092,0.30184 0.453867,0.63051 0.678972,0.94709 0.233743,0.34004 0.467928,0.67973 0.745299,0.98592 0.169241,0.17722 0.352444,0.34336 0.589828,0.41717 0.05049,0.0107 0.09935,0.005 0.149452,-0.003 2.832661,-0.11065 2.884821,1.22468 0.05216,1.33532 v 0 c -0.22688,0.003 -0.44804,-5.3e-4 -0.665207,-0.0788 -0.434549,-0.16961 -0.80913,-0.42779 -1.120754,-0.77792 -0.308605,-0.34617 -0.58053,-0.72028 -0.840068,-1.1044 -0.206809,-0.29115 -0.399283,-0.59287 -0.621832,-0.8724 -0.19282,-0.24015 -0.176985,-0.13334 0.09936,-0.14878 0.164479,-0.0542 0.209667,-0.17364 0.05313,0.0254 -0.191754,0.2957 -0.317511,0.63054 -0.530738,0.91356 -0.24316,0.32545 -0.516583,0.62521 -0.85666,0.85274 -0.400844,0.24967 -0.824161,0.40159 -1.291781,0.22875 -0.43457,-0.22443 -0.696859,-0.56969 -0.829273,-1.04112 -0.107934,-0.46293 -0.133715,-0.93135 -0.06877,-1.40386 0.06531,-0.46556 0.151236,-0.93012 0.359762,-1.35639 0.201506,-0.41522 0.440272,-0.80493 0.807325,-1.09629 0.330653,-0.26777 0.685623,-0.4975 1.103898,-0.60238 0.328057,-0.0735 0.665802,-0.12093 1.001299,-0.0675 2.80633,0.40091 2.617343,1.72382 -0.188989,1.32292 z"
       inkscape:connector-curvature="0" />
    <path
       style="opacity:1;fill:#000000;fill-opacity:1;fill-rule:nonzero;stroke:#000000;stroke-width:0.1;stroke-linecap:round;stroke-linejoin:round;stroke-miterlimit:4;stroke-dasharray:none;stroke-dashoffset:0;stroke-opacity:1;paint-order:markers fill stroke"
       id="path9519"
       d="m 192.0359,255.82088 c 0.0465,0.32108 0.0967,0.64148 0.13622,0.96367 0.0708,0.4836 0.13597,0.9678 0.21438,1.45024 0.0917,0.49359 0.19031,0.98574 0.3234,1.46999 0.74645,2.73478 -0.54274,3.08666 -1.28919,0.35188 v 0 c -0.14381,-0.52996 -0.2552,-1.06734 -0.35326,-1.60756 -0.0812,-0.49962 -0.14894,-1.00103 -0.22174,-1.50192 -0.0393,-0.32117 -0.0901,-0.64038 -0.13584,-0.96055 -0.35161,-2.81293 0.97442,-2.97868 1.32603,-0.16575 z"
       inkscape:connector-curvature="0" />
    <path
       style="opacity:1;fill:#000000;fill-opacity:1;fill-rule:nonzero;stroke:#000000;stroke-width:0.1;stroke-linecap:round;stroke-linejoin:round;stroke-miterlimit:4;stroke-dasharray:none;stroke-dashoffset:0;stroke-opacity:1;paint-order:markers fill stroke"
       id="path9521"
       d="m 193.9983,272.06495 c 0.10534,-0.2297 0.21479,-0.45751 0.32088,-0.6869 0.15811,-0.34219 0.30557,-0.68819 0.43242,-1.0432 0.13455,-0.36485 0.21738,-0.74305 0.28241,-1.12535 0.0241,-0.22405 0.0566,-0.47534 -0.0365,-0.68948 0.0605,0.0547 -0.0347,-0.0535 -0.0273,-0.0394 0.10221,0.19651 0.30482,0.23417 0.5099,0.23402 0.36601,-0.14577 0.21485,-0.11432 0.10145,0.22223 -0.12446,0.41978 -0.20368,0.85163 -0.25549,1.28589 -0.0687,0.59428 -0.0813,1.19175 -0.0866,1.78922 0.004,0.62641 0.0727,1.25011 0.16332,1.86922 0.0851,0.56553 0.25508,1.11128 0.47551,1.63742 0.16994,0.40971 0.42868,0.76217 0.73059,1.08267 0.18703,0.16716 0.40973,0.32987 0.66536,0.36141 0.15839,0.0216 0.27238,-0.0276 0.39647,-0.11587 0.0896,-0.1172 0.14796,-0.24602 0.17701,-0.39055 0.0226,-0.19491 -0.0532,-0.38517 -0.13419,-0.55883 -0.12515,-0.20072 -0.3027,-0.35589 -0.49368,-0.49136 -0.0358,-0.0223 -0.0716,-0.0446 -0.10741,-0.0669 -2.39077,-1.52328 -1.67269,-2.6503 0.71809,-1.12702 v 0 c 0.0589,0.038 0.11778,0.0761 0.17668,0.11413 0.37833,0.28021 0.71753,0.60674 0.93004,1.03414 0.19463,0.45756 0.3161,0.93655 0.20329,1.4341 -0.13338,0.47177 -0.35486,0.8926 -0.76221,1.18589 -0.43189,0.25801 -0.88758,0.38157 -1.39209,0.28719 -0.51694,-0.1287 -0.97985,-0.36932 -1.35504,-0.75533 -0.40677,-0.43996 -0.75684,-0.92334 -0.98699,-1.48098 -0.25998,-0.63002 -0.46426,-1.28151 -0.56385,-1.95774 -0.0994,-0.68688 -0.17493,-1.37868 -0.17719,-2.07358 0.006,-0.64772 0.0213,-1.29547 0.0964,-1.93961 0.0659,-0.52812 0.1605,-1.05413 0.31988,-1.56291 0.16374,-0.46108 0.35423,-0.89428 0.84402,-1.08116 0.58731,-0.0611 0.90392,0.15688 1.106,0.69389 0.12857,0.43261 0.16018,0.87768 0.0818,1.32459 -0.0789,0.45891 -0.18089,0.91291 -0.34171,1.35107 -0.14098,0.39198 -0.30233,0.77509 -0.47742,1.15307 -0.11179,0.24171 -0.227,0.48177 -0.33852,0.72358 -1.26777,2.53554 -2.46304,1.93791 -1.19527,-0.59763 z"
       inkscape:connector-curvature="0" />
    <path
       style="opacity:1;fill:#000000;fill-opacity:1;fill-rule:nonzero;stroke:#000000;stroke-width:0.1;stroke-linecap:round;stroke-linejoin:round;stroke-miterlimit:4;stroke-dasharray:none;stroke-dashoffset:0;stroke-opacity:1;paint-order:markers fill stroke"
       id="path9537"
       d="m 79.779952,106.76736 c 0,0.28998 0,0.57996 0,0.86995 0.0039,0.44737 0.0011,0.89415 -0.02032,1.34104 -0.01775,0.33994 -0.0088,0.16936 -0.02679,0.51174 -0.148516,2.83092 -1.483029,2.76091 -1.334511,-0.07 v 0 c 0.01786,-0.34039 0.009,-0.17161 0.02652,-0.50632 0.02072,-0.42536 0.02214,-0.85061 0.01876,-1.27644 0,-0.28999 0,-0.57997 0,-0.86995 0,-2.83482 1.336347,-2.83482 1.336347,0 z"
       inkscape:connector-curvature="0" />
    <path
       style="opacity:1;fill:#000000;fill-opacity:1;fill-rule:nonzero;stroke:#000000;stroke-width:0.1;stroke-linecap:round;stroke-linejoin:round;stroke-miterlimit:4;stroke-dasharray:none;stroke-dashoffset:0;stroke-opacity:1;paint-order:markers fill stroke"
       id="path9539"
       d="m 80.048414,119.22663 c 0.0096,0.0989 0.03262,0.19578 0.05187,0.2931 0.54937,2.78108 -0.761643,3.04005 -1.311013,0.25897 v 0 c -0.02379,-0.12049 -0.05031,-0.24087 -0.06377,-0.36309 -0.400904,-2.80633 0.922012,-2.99531 1.322917,-0.18898 z"
       inkscape:connector-curvature="0" />
    <path
       style="opacity:1;fill:#000000;fill-opacity:1;fill-rule:nonzero;stroke:#000000;stroke-width:0.1;stroke-linecap:round;stroke-linejoin:round;stroke-miterlimit:4;stroke-dasharray:none;stroke-dashoffset:0;stroke-opacity:1;paint-order:markers fill stroke"
       id="path9541"
       d="m 81.101678,126.89916 c -0.03297,0.24265 -0.05299,0.48678 -0.07181,0.73086 -0.02819,0.33907 -0.04389,0.67804 -0.03786,1.01817 0.0049,0.19974 0.01148,0.39944 0.01767,0.59915 0.08786,2.83346 -1.247849,2.87488 -1.335703,0.0414 v 0 c -0.0064,-0.20603 -0.01315,-0.41205 -0.01812,-0.61811 -0.0061,-0.38197 0.0097,-0.76285 0.04164,-1.14359 0.02111,-0.27283 0.04391,-0.54571 0.08127,-0.81689 0.400905,-2.80633 1.723822,-2.61734 1.322917,0.18899 z"
       inkscape:connector-curvature="0" />
    <path
       style="opacity:1;fill:#000000;fill-opacity:1;fill-rule:nonzero;stroke:#000000;stroke-width:0.1;stroke-linecap:round;stroke-linejoin:round;stroke-miterlimit:4;stroke-dasharray:none;stroke-dashoffset:0;stroke-opacity:1;paint-order:markers fill stroke"
       id="path9543"
       d="m 81.636218,137.85721 c -0.0582,0.25987 -0.108805,0.52096 -0.150352,0.78401 -0.02503,0.16214 -0.04413,0.32509 -0.06329,0.48801 -0.33197,2.81531 -1.659122,2.65882 -1.327152,-0.1565 v 0 c 0.02132,-0.18053 0.04264,-0.3611 0.07058,-0.54077 0.04073,-0.25604 0.08416,-0.51212 0.147298,-0.76374 0.400902,-2.80633 1.723819,-2.61734 1.322917,0.18899 z"
       inkscape:connector-curvature="0" />
    <path
       style="opacity:1;fill:#000000;fill-opacity:1;fill-rule:nonzero;stroke:#000000;stroke-width:0.1;stroke-linecap:round;stroke-linejoin:round;stroke-miterlimit:4;stroke-dasharray:none;stroke-dashoffset:0;stroke-opacity:1;paint-order:markers fill stroke"
       id="path9545"
       d="m 81.652032,147.28993 c 0.03736,0.27118 0.06015,0.54405 0.08127,0.81688 0.04536,0.35306 0.09096,0.70601 0.129614,1.05988 0.02758,0.27347 0.01426,0.13603 0.03992,0.41232 0.261927,2.8227 -1.068702,2.94617 -1.330632,0.12347 v 0 c -0.02429,-0.26215 -0.01169,-0.13187 -0.03776,-0.39083 -0.04009,-0.36786 -0.08964,-0.73448 -0.133527,-1.10188 -0.01881,-0.24407 -0.03884,-0.48821 -0.07181,-0.73085 -0.400905,-2.80634 0.922012,-2.99532 1.322916,-0.18899 z"
       inkscape:connector-curvature="0" />
    <path
       style="opacity:1;fill:#000000;fill-opacity:1;fill-rule:nonzero;stroke:#000000;stroke-width:0.1;stroke-linecap:round;stroke-linejoin:round;stroke-miterlimit:4;stroke-dasharray:none;stroke-dashoffset:0;stroke-opacity:1;paint-order:markers fill stroke"
       id="path9547"
       d="m 82.719917,159.14428 c 0,0.15579 0,0.31157 0,0.46736 0,2.83482 -1.336347,2.83482 -1.336347,0 v 0 c 0,-0.15579 0,-0.31157 0,-0.46736 0,-2.83482 1.336347,-2.83482 1.336347,0 z"
       inkscape:connector-curvature="0" />
    <path
       style="opacity:1;fill:#000000;fill-opacity:1;fill-rule:nonzero;stroke:#000000;stroke-width:0.1;stroke-linecap:round;stroke-linejoin:round;stroke-miterlimit:4;stroke-dasharray:none;stroke-dashoffset:0;stroke-opacity:1;paint-order:markers fill stroke"
       id="path9549"
       d="m 83.254457,167.42963 c 0,0.25796 0,0.51592 0,0.77388 0,0.23266 0,0.46532 0,0.69799 0,2.83482 -1.336347,2.83482 -1.336347,0 v 0 c 0,-0.23267 0,-0.46533 0,-0.69799 0,-0.25796 0,-0.51592 0,-0.77388 0,-2.83482 1.336347,-2.83482 1.336347,0 z"
       inkscape:connector-curvature="0" />
    <path
       style="opacity:1;fill:#000000;fill-opacity:1;fill-rule:nonzero;stroke:#000000;stroke-width:0.1;stroke-linecap:round;stroke-linejoin:round;stroke-miterlimit:4;stroke-dasharray:none;stroke-dashoffset:0;stroke-opacity:1;paint-order:markers fill stroke"
       id="path9551"
       d="m 84.308912,177.4131 c -0.03297,0.24265 -0.05299,0.48678 -0.07181,0.73086 -0.01254,0.16687 -0.02204,0.33394 -0.03156,0.501 -0.161624,2.83021 -1.495799,2.75403 -1.334175,-0.0762 v 0 c 0.01005,-0.17599 0.02008,-0.35199 0.03336,-0.52777 0.02111,-0.27283 0.04391,-0.54571 0.08127,-0.81689 0.400905,-2.80633 1.723821,-2.61734 1.322917,0.18899 z"
       inkscape:connector-curvature="0" />
    <path
       style="opacity:1;fill:#000000;fill-opacity:1;fill-rule:nonzero;stroke:#000000;stroke-width:0.1;stroke-linecap:round;stroke-linejoin:round;stroke-miterlimit:4;stroke-dasharray:none;stroke-dashoffset:0;stroke-opacity:1;paint-order:markers fill stroke"
       id="path9553"
       d="m 84.323535,186.40577 c 0.0064,0.31005 -0.02524,0.61908 -0.048,0.92793 -0.03359,0.42281 -0.05221,0.84575 -0.0494,1.26981 0.0063,0.25547 0.0079,0.51068 0.0052,0.7662 -0.03265,2.83463 -1.368904,2.81924 -1.33626,-0.0154 v 0 c 0.0031,-0.24765 2.28e-4,-0.49499 -0.0052,-0.74261 -0.0026,-0.45955 0.01646,-0.91802 0.05298,-1.37621 0.02035,-0.2762 0.05037,-0.55247 0.04438,-0.82973 0,-2.83482 1.336347,-2.83482 1.336347,0 z"
       inkscape:connector-curvature="0" />
    <path
       style="opacity:1;fill:#000000;fill-opacity:1;fill-rule:nonzero;stroke:#000000;stroke-width:0.1;stroke-linecap:round;stroke-linejoin:round;stroke-miterlimit:4;stroke-dasharray:none;stroke-dashoffset:0;stroke-opacity:1;paint-order:markers fill stroke"
       id="path9555"
       d="m 84.843452,201.73463 c -0.03117,0.30713 -0.08151,0.6118 -0.121727,0.91784 -0.0544,0.44235 -0.0926,0.88647 -0.126209,1.33081 -0.03069,0.41985 -0.05377,0.8402 -0.07552,1.26059 -0.146489,2.83103 -1.48105,2.76198 -1.33456,-0.0691 v 0 c 0.0223,-0.43102 0.04602,-0.86198 0.07755,-1.29244 0.03556,-0.46887 0.07598,-0.9375 0.133813,-1.40422 0.04096,-0.31095 0.09178,-0.62049 0.123738,-0.93251 0.400902,-2.80633 1.723818,-2.61734 1.322916,0.18899 z"
       inkscape:connector-curvature="0" />
    <path
       style="opacity:1;fill:#000000;fill-opacity:1;fill-rule:nonzero;stroke:#000000;stroke-width:0.1;stroke-linecap:round;stroke-linejoin:round;stroke-miterlimit:4;stroke-dasharray:none;stroke-dashoffset:0;stroke-opacity:1;paint-order:markers fill stroke"
       id="path9557"
       d="m 84.858073,214.73634 c 0,0.25796 0,0.51591 0,0.77387 0,0.36029 0,0.72059 0,1.08088 0,2.83482 -1.336347,2.83482 -1.336347,0 v 0 c 0,-0.36029 0,-0.72059 0,-1.08088 0,-0.25796 0,-0.51591 0,-0.77387 0,-2.83482 1.336347,-2.83482 1.336347,0 z"
       inkscape:connector-curvature="0" />
    <path
       style="opacity:1;fill:#000000;fill-opacity:1;fill-rule:nonzero;stroke:#000000;stroke-width:0.1;stroke-linecap:round;stroke-linejoin:round;stroke-miterlimit:4;stroke-dasharray:none;stroke-dashoffset:0;stroke-opacity:1;paint-order:markers fill stroke"
       id="path9559"
       d="m 85.37799,224.45254 c -0.03297,0.24265 -0.05299,0.48678 -0.07181,0.73085 -0.01696,0.22684 -0.02913,0.45399 -0.0409,0.68114 -0.146894,2.83101 -1.481447,2.76176 -1.334551,-0.0693 v 0 c 0.01238,-0.2384 0.02522,-0.47679 0.04308,-0.71485 0.02111,-0.27283 0.04391,-0.5457 0.08127,-0.81688 0.400905,-2.80633 1.723822,-2.61734 1.322917,0.18899 z"
       inkscape:connector-curvature="0" />
    <path
       style="opacity:1;fill:#000000;fill-opacity:1;fill-rule:nonzero;stroke:#000000;stroke-width:0.1;stroke-linecap:round;stroke-linejoin:round;stroke-miterlimit:4;stroke-dasharray:none;stroke-dashoffset:0;stroke-opacity:1;paint-order:markers fill stroke"
       id="path9561"
       d="m 85.125345,234.78156 c 0,0.28042 0,0.56084 0,0.84126 0,0.40812 0,0.81625 0,1.22437 0.01019,0.26542 0.004,0.12999 0.01863,0.40626 0.148167,2.83095 -1.186354,2.9008 -1.334521,0.0699 v 0 c -0.01632,-0.31395 -0.0094,-0.15526 -0.02045,-0.47611 0,-0.40812 0,-0.81625 0,-1.22437 0,-0.28042 0,-0.56084 0,-0.84126 0,-2.83483 1.336349,-2.83483 1.336349,0 z"
       inkscape:connector-curvature="0" />
    <path
       style="opacity:1;fill:#000000;fill-opacity:1;fill-rule:nonzero;stroke:#000000;stroke-width:0.1;stroke-linecap:round;stroke-linejoin:round;stroke-miterlimit:4;stroke-dasharray:none;stroke-dashoffset:0;stroke-opacity:1;paint-order:markers fill stroke"
       id="path9563"
       d="m 85.110721,245.29956 c 0.004,0.067 0.0013,0.13594 0.0011,0.20308 -0.0092,2.83481 -1.345509,2.83049 -1.336339,-0.004 v 0 c 5.3e-4,-0.12932 -0.0011,-0.25889 0.0123,-0.38775 0.400904,-2.80633 1.723821,-2.61734 1.322916,0.18899 z"
       inkscape:connector-curvature="0" />
    <path
       style="opacity:1;fill:#000000;fill-opacity:1;fill-rule:nonzero;stroke:#000000;stroke-width:0.1;stroke-linecap:round;stroke-linejoin:round;stroke-miterlimit:4;stroke-dasharray:none;stroke-dashoffset:0;stroke-opacity:1;paint-order:markers fill stroke"
       id="path9565"
       d="m 184.54961,101.14679 c 0,0.25796 0,0.51592 0,0.77387 0,0.3603 0,0.72059 0,1.08088 0,0.20288 0,0.40576 0,0.60863 0,2.83483 -1.33635,2.83483 -1.33635,0 v 0 c 0,-0.20287 0,-0.40575 0,-0.60863 0,-0.36029 0,-0.72058 0,-1.08088 0,-0.25795 0,-0.51591 0,-0.77387 0,-2.834819 1.33635,-2.834819 1.33635,0 z"
       inkscape:connector-curvature="0" />
    <path
       style="opacity:1;fill:#000000;fill-opacity:1;fill-rule:nonzero;stroke:#000000;stroke-width:0.1;stroke-linecap:round;stroke-linejoin:round;stroke-miterlimit:4;stroke-dasharray:none;stroke-dashoffset:0;stroke-opacity:1;paint-order:markers fill stroke"
       id="path9567"
       d="m 184.54961,110.7685 c 0.009,0.27732 -0.012,0.55335 -0.035,0.82945 -0.0298,0.33783 -0.0167,0.67802 -0.0123,1.01675 0.004,0.40511 0.0439,0.80902 0.0726,1.21295 0.0201,0.29907 0.0104,0.149 0.0293,0.45024 0.17809,2.82922 -1.15562,2.91318 -1.33371,0.084 v 0 c -0.0185,-0.29389 -0.009,-0.1474 -0.0286,-0.43945 -0.0305,-0.42978 -0.0721,-0.85952 -0.0759,-1.2906 -0.005,-0.38154 -0.0177,-0.7645 0.0169,-1.14502 0.02,-0.23923 0.0399,-0.47791 0.0304,-0.71828 0,-2.83483 1.33635,-2.83483 1.33635,0 z"
       inkscape:connector-curvature="0" />
    <path
       style="opacity:1;fill:#000000;fill-opacity:1;fill-rule:nonzero;stroke:#000000;stroke-width:0.1;stroke-linecap:round;stroke-linejoin:round;stroke-miterlimit:4;stroke-dasharray:none;stroke-dashoffset:0;stroke-opacity:1;paint-order:markers fill stroke"
       id="path9569"
       d="m 185.35142,123.33016 c -0.004,0.27747 -0.0385,0.55372 -0.0619,0.8301 -0.029,0.352 -0.0481,0.7047 -0.0654,1.05744 -0.0118,0.26265 -0.006,0.13054 -0.0171,0.39631 -0.11677,2.83242 -1.45198,2.77737 -1.33522,-0.055 v 0 c 0.0112,-0.2726 0.005,-0.13699 0.0175,-0.40684 0.0181,-0.36838 0.0382,-0.73672 0.0685,-1.10433 0.0202,-0.23898 0.0506,-0.47804 0.0571,-0.71764 0,-2.83482 1.33635,-2.83482 1.33635,0 z"
       inkscape:connector-curvature="0" />
    <path
       style="opacity:1;fill:#000000;fill-opacity:1;fill-rule:nonzero;stroke:#000000;stroke-width:0.1;stroke-linecap:round;stroke-linejoin:round;stroke-miterlimit:4;stroke-dasharray:none;stroke-dashoffset:0;stroke-opacity:1;paint-order:markers fill stroke"
       id="path9571"
       d="m 185.06952,134.11544 c -0.033,0.24265 -0.053,0.48678 -0.0718,0.73085 -0.0125,0.16687 -0.022,0.33395 -0.0316,0.50101 -0.16162,2.83021 -1.49579,2.75402 -1.33417,-0.0762 v 0 c 0.0101,-0.17599 0.0201,-0.35199 0.0334,-0.52778 0.0211,-0.27283 0.0439,-0.5457 0.0813,-0.81688 0.4009,-2.80633 1.72382,-2.61734 1.32291,0.18899 z"
       inkscape:connector-curvature="0" />
    <path
       style="opacity:1;fill:#000000;fill-opacity:1;fill-rule:nonzero;stroke:#000000;stroke-width:0.1;stroke-linecap:round;stroke-linejoin:round;stroke-miterlimit:4;stroke-dasharray:none;stroke-dashoffset:0;stroke-opacity:1;paint-order:markers fill stroke"
       id="path9573"
       d="m 185.8887,143.56768 c 0.0311,0.28885 0.0577,0.57776 0.0956,0.86585 0.0522,0.4021 0.0947,0.80504 0.15379,1.20619 0.0579,0.37781 0.1058,0.75698 0.14991,1.1366 0.32687,2.81592 -1.00056,2.97001 -1.32743,0.1541 v 0 c -0.0425,-0.36607 -0.0887,-0.73169 -0.14457,-1.09599 -0.06,-0.40809 -0.10413,-0.81787 -0.15667,-1.22696 -0.0381,-0.29082 -0.0662,-0.58236 -0.0966,-0.87404 -0.35161,-2.81293 0.97442,-2.97868 1.32603,-0.16575 z"
       inkscape:connector-curvature="0" />
    <path
       style="opacity:1;fill:#000000;fill-opacity:1;fill-rule:nonzero;stroke:#000000;stroke-width:0.1;stroke-linecap:round;stroke-linejoin:round;stroke-miterlimit:4;stroke-dasharray:none;stroke-dashoffset:0;stroke-opacity:1;paint-order:markers fill stroke"
       id="path9575"
       d="m 186.94041,154.69519 c -0.033,0.24265 -0.053,0.48678 -0.0718,0.73086 -0.0269,0.33234 -0.0442,0.66456 -0.0379,0.99792 0.007,0.24058 0.003,0.11888 0.0112,0.36512 0.0923,2.83332 -1.24337,2.87681 -1.33564,0.0435 v 0 c -0.008,-0.2563 -0.004,-0.12806 -0.0117,-0.38472 -0.006,-0.37569 0.0108,-0.75027 0.0416,-1.12477 0.0211,-0.27283 0.0439,-0.54571 0.0813,-0.81689 0.4009,-2.80633 1.72382,-2.61734 1.32291,0.18899 z"
       inkscape:connector-curvature="0" />
    <path
       style="opacity:1;fill:#000000;fill-opacity:1;fill-rule:nonzero;stroke:#000000;stroke-width:0.1;stroke-linecap:round;stroke-linejoin:round;stroke-miterlimit:4;stroke-dasharray:none;stroke-dashoffset:0;stroke-opacity:1;paint-order:markers fill stroke"
       id="path9577"
       d="m 187.20768,163.78235 c -0.033,0.24265 -0.053,0.48679 -0.0718,0.73086 -0.0126,0.16687 -0.022,0.33394 -0.0316,0.50101 -0.16162,2.83021 -1.49579,2.75402 -1.33417,-0.0762 v 0 c 0.0101,-0.17599 0.0201,-0.35199 0.0334,-0.52778 0.0211,-0.27283 0.0439,-0.5457 0.0813,-0.81688 0.40091,-2.80633 1.72382,-2.61734 1.32292,0.18898 z"
       inkscape:connector-curvature="0" />
    <path
       style="opacity:1;fill:#000000;fill-opacity:1;fill-rule:nonzero;stroke:#000000;stroke-width:0.1;stroke-linecap:round;stroke-linejoin:round;stroke-miterlimit:4;stroke-dasharray:none;stroke-dashoffset:0;stroke-opacity:1;paint-order:markers fill stroke"
       id="path9579"
       d="m 187.2223,173.30956 c 0,0.25796 0,0.51592 0,0.77387 -0.002,0.1618 -5.3e-4,0.32313 0.007,0.48472 0.12592,2.83202 -1.20911,2.89138 -1.33503,0.0594 v 0 c -0.007,-0.18141 -0.0118,-0.36248 -0.009,-0.54408 0,-0.25795 0,-0.51591 0,-0.77387 0,-2.83482 1.33635,-2.83482 1.33635,0 z"
       inkscape:connector-curvature="0" />
    <path
       style="opacity:1;fill:#000000;fill-opacity:1;fill-rule:nonzero;stroke:#000000;stroke-width:0.1;stroke-linecap:round;stroke-linejoin:round;stroke-miterlimit:4;stroke-dasharray:none;stroke-dashoffset:0;stroke-opacity:1;paint-order:markers fill stroke"
       id="path9581"
       d="m 187.74222,183.5603 c -0.0291,0.26416 -0.082,0.52478 -0.12473,0.78693 -0.0548,0.3439 -0.0913,0.6903 -0.12433,1.03686 -0.0226,0.25929 -0.0117,0.12881 -0.0327,0.39144 -0.22654,2.82575 -1.55862,2.71896 -1.33208,-0.10679 v 0 c 0.0221,-0.2758 0.0106,-0.13856 0.0345,-0.41171 0.036,-0.37601 0.0759,-0.75182 0.1357,-1.12491 0.0414,-0.25348 0.0929,-0.50535 0.12073,-0.76081 0.4009,-2.80633 1.72382,-2.61734 1.32292,0.18899 z"
       inkscape:connector-curvature="0" />
    <path
       style="opacity:1;fill:#000000;fill-opacity:1;fill-rule:nonzero;stroke:#000000;stroke-width:0.1;stroke-linecap:round;stroke-linejoin:round;stroke-miterlimit:4;stroke-dasharray:none;stroke-dashoffset:0;stroke-opacity:1;paint-order:markers fill stroke"
       id="path9583"
       d="m 187.47495,195.8547 c -0.033,0.24265 -0.053,0.48678 -0.0718,0.73085 -0.004,0.0533 -0.007,0.10658 -0.0111,0.15987 -0.19709,2.82797 -1.5302,2.73505 -1.33311,-0.0929 v 0 c 0.004,-0.0566 0.008,-0.11328 0.0119,-0.16992 0.0211,-0.27283 0.0439,-0.5457 0.0813,-0.81688 0.40091,-2.80633 1.72382,-2.61734 1.32292,0.18899 z"
       inkscape:connector-curvature="0" />
    <path
       style="opacity:1;fill:#000000;fill-opacity:1;fill-rule:nonzero;stroke:#000000;stroke-width:0.1;stroke-linecap:round;stroke-linejoin:round;stroke-miterlimit:4;stroke-dasharray:none;stroke-dashoffset:0;stroke-opacity:1;paint-order:markers fill stroke"
       id="path9585"
       d="m 187.75684,205.11464 c 0,0.25795 0,0.51591 0,0.77387 0,2.83482 -1.33635,2.83482 -1.33635,0 v 0 c 0,-0.25796 0,-0.51592 0,-0.77387 0,-2.83482 1.33635,-2.83482 1.33635,0 z"
       inkscape:connector-curvature="0" />
    <path
       style="opacity:1;fill:#000000;fill-opacity:1;fill-rule:nonzero;stroke:#000000;stroke-width:0.1;stroke-linecap:round;stroke-linejoin:round;stroke-miterlimit:4;stroke-dasharray:none;stroke-dashoffset:0;stroke-opacity:1;paint-order:markers fill stroke"
       id="path9587"
       d="m 188.00949,214.56357 c -0.0287,0.23164 -0.0581,0.46389 -0.0622,0.69744 -5.3e-4,0.2221 0.005,0.44416 0.01,0.66621 0.0582,2.83422 -1.27787,2.86165 -1.33607,0.0274 v 0 c -0.005,-0.24322 -0.0113,-0.48648 -0.009,-0.72978 0.009,-0.28464 0.0364,-0.56809 0.0751,-0.85029 0.4009,-2.80633 1.72382,-2.61735 1.32291,0.18899 z"
       inkscape:connector-curvature="0" />
    <path
       style="opacity:1;fill:#000000;fill-opacity:1;fill-rule:nonzero;stroke:#000000;stroke-width:0.1;stroke-linecap:round;stroke-linejoin:round;stroke-miterlimit:4;stroke-dasharray:none;stroke-dashoffset:0;stroke-opacity:1;paint-order:markers fill stroke"
       id="path9589"
       d="m 188.8113,224.45254 c -0.033,0.24265 -0.053,0.48678 -0.0718,0.73085 -0.015,0.21559 -0.008,0.10656 -0.0216,0.32708 -0.17826,2.82921 -1.51196,2.74518 -1.3337,-0.084 v 0 c 0.0147,-0.23275 0.007,-0.11742 0.023,-0.34601 0.0211,-0.27283 0.0439,-0.5457 0.0813,-0.81688 0.4009,-2.80633 1.72381,-2.61734 1.32291,0.18899 z"
       inkscape:connector-curvature="0" />
    <path
       style="opacity:1;fill:#000000;fill-opacity:1;fill-rule:nonzero;stroke:#000000;stroke-width:0.1;stroke-linecap:round;stroke-linejoin:round;stroke-miterlimit:4;stroke-dasharray:none;stroke-dashoffset:0;stroke-opacity:1;paint-order:markers fill stroke"
       id="path9591"
       d="m 189.62773,232.37613 c 0,0.25796 0,0.51591 0,0.77387 0,0.11218 0,0.22436 0,0.33654 0,2.83482 -1.33635,2.83482 -1.33635,0 v 0 c 0,-0.11218 0,-0.22436 0,-0.33654 0,-0.25796 0,-0.51591 0,-0.77387 0,-2.83482 1.33635,-2.83482 1.33635,0 z"
       inkscape:connector-curvature="0" />
    <path
       style="opacity:1;fill:#000000;fill-opacity:1;fill-rule:nonzero;stroke:#000000;stroke-width:0.1;stroke-linecap:round;stroke-linejoin:round;stroke-miterlimit:4;stroke-dasharray:none;stroke-dashoffset:0;stroke-opacity:1;paint-order:markers fill stroke"
       id="path9593"
       d="m 189.88038,241.82506 c -0.0264,0.19232 -0.0436,0.38571 -0.0601,0.57907 -0.24247,2.82444 -1.57392,2.71014 -1.33145,-0.1143 v 0 c 0.0188,-0.21832 0.0385,-0.43665 0.0686,-0.65376 0.4009,-2.80633 1.72382,-2.61734 1.32292,0.18899 z"
       inkscape:connector-curvature="0" />
    <path
       style="opacity:1;fill:#000000;fill-opacity:1;fill-rule:nonzero;stroke:#000000;stroke-width:0.1;stroke-linecap:round;stroke-linejoin:round;stroke-miterlimit:4;stroke-dasharray:none;stroke-dashoffset:0;stroke-opacity:1;paint-order:markers fill stroke"
       id="path9595"
       d="m 190.16227,249.21411 c 0.002,0.26446 -0.0448,0.52601 -0.052,0.79003 -0.001,0.18406 -0.001,0.0895 2.3e-4,0.28359 0.0175,2.83477 -1.31886,2.843 -1.33632,0.008 v 0 c -0.001,-0.22513 -0.002,-0.11181 5.3e-4,-0.33995 0.0103,-0.248 0.0435,-0.49415 0.0511,-0.7419 0,-2.83482 1.33635,-2.83482 1.33635,0 z"
       inkscape:connector-curvature="0" />
    <path
       style="opacity:1;fill:#000000;fill-opacity:1;fill-rule:nonzero;stroke:#000000;stroke-width:0.1;stroke-linecap:round;stroke-linejoin:round;stroke-miterlimit:4;stroke-dasharray:none;stroke-dashoffset:0;stroke-opacity:1;paint-order:markers fill stroke"
       id="path9603"
       d="m 83.830519,196.00048 c 0.07341,-0.29732 0.181337,-0.58319 0.305046,-0.86275 0.192757,-0.43405 0.443209,-0.83784 0.692787,-1.2406 0.301919,-0.48804 0.647359,-0.94748 1.008214,-1.39306 0.345061,-0.4358 0.717709,-0.84962 1.110043,-1.24318 0.397098,-0.38969 0.873773,-0.66892 1.378807,-0.89266 0.509953,-0.20457 1.051563,-0.26036 1.59589,-0.24871 0.5626,0.0204 1.084784,0.20763 1.591715,0.43666 0.513247,0.24338 0.991457,0.55135 1.479193,0.84064 0.512781,0.30895 1.018733,0.62901 1.538414,0.92636 0.486741,0.29159 0.993434,0.54584 1.511933,0.77529 0.376859,0.17067 0.775165,0.25878 1.18722,0.26666 0.26825,-0.002 0.515207,-0.0718 0.73474,-0.2247 0.257651,-0.21623 0.405098,-0.52265 0.543628,-0.82186 0.22886,-0.55715 0.39075,-1.13916 0.539544,-1.72193 0.190145,-0.7617 0.301829,-1.53937 0.428154,-2.31327 0.13889,-0.88072 0.301363,-1.75759 0.473332,-2.6324 0.185041,-0.93454 0.407401,-1.86025 0.665611,-2.77712 0.26778,-0.93702 0.59209,-1.8563 0.96305,-2.75711 0.35989,-0.86054 0.79813,-1.68355 1.26363,-2.49063 0.41365,-0.71482 0.89735,-1.38353 1.41322,-2.02712 0.45397,-0.56496 0.97757,-1.06302 1.54911,-1.5063 0.4946,-0.38329 1.04098,-0.67306 1.63295,-0.87045 0.55603,-0.17002 1.12727,-0.16563 1.69672,-0.0859 0.5832,0.097 1.11434,0.3542 1.61519,0.65755 0.58002,0.3537 1.0511,0.84408 1.51208,1.33569 0.54033,0.59326 0.98086,1.2655 1.3936,1.95087 0.46148,0.77239 0.81284,1.59858 1.14398,2.43269 0.37035,0.94104 0.63471,1.91734 0.87194,2.89882 0.25561,1.09311 0.43211,2.20214 0.58958,3.31293 0.15769,1.21064 0.30532,2.42264 0.43865,3.63622 0.12927,1.28044 0.27293,2.55938 0.43267,3.83637 0.15679,1.31924 0.34981,2.63349 0.55294,3.94625 0.20396,1.30149 0.45451,2.5953 0.72632,3.88416 0.26558,1.22651 0.57846,2.4425 0.94759,3.64184 0.34978,1.11532 0.76449,2.20773 1.23301,3.2781 0.41666,0.95151 0.92275,1.85869 1.47494,2.73712 0.46741,0.75162 1.02039,1.44025 1.61634,2.09245 0.48851,0.52317 1.02577,0.99762 1.60505,1.41737 0.44817,0.32094 0.94117,0.56563 1.46584,0.73122 0.41253,0.12342 0.82926,0.12134 1.24731,0.0373 0.48787,-0.12076 0.91091,-0.38076 1.31463,-0.67008 0.55094,-0.40763 0.98574,-0.93967 1.39534,-1.48297 0.55754,-0.74126 1.01206,-1.54938 1.44484,-2.36735 0.52535,-0.99234 0.9659,-2.02566 1.3885,-3.06488 0.4762,-1.15632 0.8544,-2.34898 1.21705,-3.54467 0.39581,-1.3271 0.73022,-2.67093 1.04815,-4.01842 0.34207,-1.43106 0.66607,-2.86622 0.98534,-4.3025 0.32857,-1.45631 0.65911,-2.91214 0.9958,-4.3666 0.3344,-1.40334 0.67827,-2.80434 1.05714,-4.19639 0.34621,-1.25929 0.71947,-2.51033 1.13876,-3.74721 0.36979,-1.06437 0.77748,-2.11548 1.22807,-3.14819 0.38178,-0.86878 0.83112,-1.70494 1.34953,-2.49931 0.42064,-0.64148 0.94361,-1.19506 1.55181,-1.65892 0.53693,-0.39176 1.1467,-0.59085 1.80054,-0.66093 0.67546,-0.0413 1.29059,0.16835 1.87581,0.48415 0.65212,0.40084 1.16905,0.9657 1.65485,1.54817 0.58463,0.72775 1.04092,1.54323 1.47648,2.36531 0.51848,1.01879 0.90706,2.09668 1.27027,3.1785 0.41155,1.28285 0.72807,2.59321 1.01074,3.90962 0.31362,1.50047 0.52834,3.01854 0.72317,4.53818 0.20739,1.6643 0.35368,3.33527 0.48618,5.00693 0.13776,1.78788 0.23696,3.57838 0.32706,5.36919 0.0859,1.86125 0.1879,3.72171 0.29852,5.58164 0.10572,1.88686 0.23801,3.77211 0.39075,5.65572 0.14285,1.82583 0.33256,3.64767 0.54968,5.46605 0.207,1.70814 0.49198,3.40504 0.81485,5.09466 0.28258,1.53388 0.67744,3.04278 1.10594,4.54134 0.38688,1.3054 0.85962,2.58291 1.36663,3.84577 0.42373,1.04943 0.91036,2.07106 1.44356,3.06882 0.42146,0.77874 0.90712,1.51866 1.44095,2.22429 0.3374,0.43213 0.71538,0.82729 1.19447,1.09898 0.24753,0.1411 0.50109,0.15814 0.76939,0.0796 0.39334,-0.14342 0.69452,-0.43603 0.98831,-0.72256 0.50544,-0.52946 0.90895,-1.14263 1.29495,-1.7613 0.53989,-0.88053 0.98852,-1.81127 1.42522,-2.74582 0.52785,-1.17774 0.9716,-2.3898 1.39099,-3.60952 0.50322,-1.45816 0.92369,-2.94257 1.3432,-4.42637 0.46824,-1.69095 0.87202,-3.39888 1.25607,-5.11063 0.40891,-1.88821 0.76892,-3.78653 1.09639,-5.69041 0.33775,-2.04163 0.60564,-4.09413 0.85824,-6.14778 0.25362,-2.17921 0.4788,-4.36162 0.68127,-6.54615 0.22237,-2.27516 0.40917,-4.55344 0.57408,-6.83341 0.16309,-2.33199 0.32334,-4.6641 0.46256,-6.99766 0.1382,-2.3466 0.24335,-4.69494 0.33901,-7.04359 0.10618,-2.33338 0.20762,-4.66693 0.32186,-6.99993 0.12325,-2.30378 0.26784,-4.60641 0.42162,-6.90834 0.14558,-2.26411 0.33203,-4.52526 0.50615,-6.78727 0.16598,-2.20331 0.33834,-4.40606 0.48833,-6.61054 0.16218,-2.13424 0.29549,-4.27047 0.43977,-6.40594 0.15018,-2.07615 0.26338,-4.15465 0.39058,-6.23225 0.13025,-2.02563 0.24225,-4.05233 0.34248,-6.07964 0.0946,-1.9442 0.1703,-3.88924 0.2388,-5.83452 0.06,-1.84949 0.14714,-3.69796 0.22118,-5.54693 0.0681,-1.71551 0.12378,-3.43147 0.17574,-5.14754 0.0456,-1.54145 0.0837,-3.08311 0.11922,-4.62483 0.0307,-1.3549 0.079,-2.70972 0.14865,-4.0632 0.0577,-1.16584 0.14054,-2.32993 0.23167,-3.49355 0.068,-1.02485 0.16546,-2.04694 0.28398,-3.06707 0.32724,-2.81587 1.65465,-2.6616 1.32741,0.15427 v 0 c -0.11665,1.00351 -0.21233,2.00896 -0.27912,3.01714 -0.0902,1.15177 -0.17229,2.304 -0.22936,3.45798 -0.0692,1.34081 -0.11667,2.68297 -0.14723,4.02518 -0.0356,1.54495 -0.0737,3.08985 -0.11948,4.63453 -0.0521,1.72041 -0.10796,3.44071 -0.1762,5.16056 -0.074,1.84682 -0.16104,3.69315 -0.22094,5.5405 -0.0687,1.95159 -0.14467,3.90296 -0.2396,5.85348 -0.10051,2.03253 -0.21277,4.06446 -0.34335,6.0953 -0.12739,2.08041 -0.24073,4.16172 -0.39112,6.24067 -0.14431,2.13569 -0.2776,4.27213 -0.43982,6.40658 -0.15028,2.20843 -0.32288,4.41513 -0.48918,6.62238 -0.17378,2.25752 -0.35989,4.51417 -0.50519,6.77379 -0.15327,2.29403 -0.29734,4.58875 -0.42024,6.88462 -0.11406,2.32934 -0.21534,4.65924 -0.32137,6.98895 -0.096,2.35706 -0.20156,4.71381 -0.34027,7.0688 -0.13958,2.33917 -0.30017,4.67689 -0.46367,7.01449 -0.1656,2.28895 -0.35308,4.57621 -0.57631,6.86033 -0.20374,2.19781 -0.43025,4.39352 -0.68556,6.58597 -0.25527,2.07485 -0.52604,4.14854 -0.86759,6.21119 -0.33142,1.92598 -0.69549,3.84638 -1.10947,5.75645 -0.38955,1.73553 -0.79896,3.46721 -1.27405,5.18159 -0.42629,1.50769 -0.85401,3.01584 -1.36545,4.49743 -0.43495,1.26427 -0.89558,2.5205 -1.44405,3.74076 -0.45977,0.98339 -0.93335,1.96213 -1.50256,2.8881 -0.44411,0.70975 -0.9115,1.41087 -1.49826,2.01282 -0.47066,0.45377 -0.97021,0.88135 -1.61308,1.06391 -0.61003,0.12945 -1.19917,0.092 -1.75082,-0.22795 -0.62366,-0.37349 -1.1454,-0.86583 -1.58464,-1.44622 -0.57467,-0.76208 -1.0997,-1.55957 -1.55338,-2.40024 -0.55536,-1.04087 -1.06354,-2.10596 -1.50496,-3.20057 -0.52372,-1.30569 -1.01225,-2.62641 -1.41129,-3.97618 -0.43921,-1.53704 -0.8437,-3.08472 -1.13367,-4.65787 -0.32851,-1.72026 -0.6186,-3.44791 -0.82917,-5.18702 -0.219,-1.83515 -0.41058,-3.67379 -0.55472,-5.51646 -0.15345,-1.89314 -0.28653,-3.78794 -0.39276,-5.68435 -0.11087,-1.864 -0.21314,-3.72852 -0.2992,-5.59384 -0.0894,-1.778 -0.18787,-3.55568 -0.32457,-5.33077 -0.13075,-1.65017 -0.27498,-3.29969 -0.47952,-4.94262 -0.18994,-1.4826 -0.39881,-2.96372 -0.70427,-4.42771 -0.27178,-1.26763 -0.57615,-2.52943 -0.97113,-3.76506 -0.33937,-1.0131 -0.70173,-2.02296 -1.18433,-2.97817 -0.39195,-0.74102 -0.79957,-1.47797 -1.32309,-2.13631 -0.37726,-0.45562 -0.77382,-0.90299 -1.27141,-1.2316 -0.34319,-0.1946 -0.7002,-0.33497 -1.10241,-0.32488 -0.40921,0.0327 -0.78697,0.15816 -1.12518,0.39789 -0.49054,0.36391 -0.89958,0.81508 -1.23827,1.32383 -0.47979,0.73024 -0.88959,1.50291 -1.24293,2.30214 -0.43612,0.99785 -0.82909,2.01419 -1.1872,3.04262 -0.41088,1.21095 -0.77559,2.4361 -1.11487,3.66902 -0.37455,1.37554 -0.71399,2.76007 -1.04465,4.14676 -0.33583,1.45065 -0.66548,2.90269 -0.99321,4.35518 -0.32053,1.44194 -0.64584,2.88276 -0.98923,4.31946 -0.32449,1.37469 -0.66588,2.74561 -1.06997,4.09943 -0.37468,1.2348 -0.7662,2.46615 -1.25802,3.66031 -0.43977,1.08057 -0.89864,2.15476 -1.44526,3.18652 -0.46663,0.88104 -0.95882,1.7502 -1.56007,2.54823 -0.49357,0.65082 -1.02201,1.28217 -1.68721,1.76628 -0.56464,0.39844 -1.16215,0.74436 -1.84499,0.89462 -0.63854,0.11229 -1.27579,0.11628 -1.90145,-0.0795 -0.65725,-0.2156 -1.28025,-0.51524 -1.84207,-0.92275 -0.64993,-0.47541 -1.25764,-1.00564 -1.80553,-1.59692 -0.64857,-0.71196 -1.25133,-1.46297 -1.76077,-2.28236 -0.58666,-0.93488 -1.12479,-1.90003 -1.56763,-2.91236 -0.48827,-1.11722 -0.92167,-2.25696 -1.28604,-3.42102 -0.38,-1.23812 -0.70457,-2.49263 -0.9778,-3.75874 -0.27663,-1.31255 -0.53183,-2.63009 -0.73935,-3.9555 -0.20511,-1.32556 -0.39991,-2.65266 -0.55833,-3.98477 -0.16048,-1.28363 -0.30513,-2.56919 -0.43501,-3.85628 -0.13175,-1.19972 -0.2778,-2.39785 -0.43343,-3.59469 -0.15125,-1.0684 -0.32036,-2.13518 -0.56546,-3.18673 -0.22203,-0.92058 -0.46839,-1.83665 -0.81502,-2.71951 -0.30411,-0.76653 -0.62363,-1.52703 -1.04725,-2.2372 -0.36299,-0.60521 -0.74947,-1.19983 -1.22334,-1.72553 -0.37875,-0.40445 -0.75961,-0.81605 -1.23491,-1.10986 -0.34354,-0.21368 -0.70972,-0.39917 -1.11077,-0.4749 -0.36452,-0.0568 -0.73072,-0.0681 -1.0896,0.0343 -0.44934,0.14073 -0.85489,0.37263 -1.22973,0.65737 -0.48989,0.37636 -0.93508,0.80359 -1.32377,1.28513 -0.47409,0.58977 -0.9179,1.20313 -1.29794,1.85858 -0.4365,0.75591 -0.84797,1.52644 -1.18576,2.33242 -0.35247,0.85226 -0.6576,1.72329 -0.91215,2.60998 -0.24898,0.88217 -0.46222,1.77313 -0.64059,2.67238 -0.16932,0.86064 -0.32904,1.72336 -0.46568,2.58985 -0.13273,0.81287 -0.25122,1.62948 -0.4524,2.4292 -0.17021,0.66397 -0.356152,1.32718 -0.624749,1.95909 -0.252174,0.53076 -0.5476,1.04174 -1.0414,1.38454 -0.457375,0.27598 -0.946862,0.44048 -1.487755,0.42932 -0.58411,-0.0224 -1.152662,-0.13645 -1.687502,-0.38071 -0.560038,-0.24872 -1.108202,-0.52256 -1.634474,-0.83734 -0.525335,-0.30116 -1.037905,-0.62336 -1.556033,-0.93663 -0.446191,-0.26471 -0.883377,-0.54687 -1.350793,-0.7736 -0.343397,-0.15763 -0.692505,-0.29867 -1.075399,-0.31721 -0.347882,-0.0131 -0.695775,0.0174 -1.025263,0.1381 -0.354444,0.15025 -0.687181,0.34485 -0.967229,0.6122 -0.360866,0.35982 -0.700744,0.74119 -1.017477,1.14045 -0.326107,0.40097 -0.637249,0.81549 -0.909994,1.25497 -0.217959,0.35168 -0.439293,0.70285 -0.608479,1.08154 -0.100023,0.22114 -0.182832,0.44886 -0.240334,0.68499 -0.778785,2.72575 -2.063715,2.35863 -1.28493,-0.36712 z"
       inkscape:connector-curvature="0" />
    <path
       style="opacity:1;fill:#000000;fill-opacity:1;fill-rule:nonzero;stroke:#000000;stroke-width:0.1;stroke-linecap:round;stroke-linejoin:round;stroke-miterlimit:4;stroke-dasharray:none;stroke-dashoffset:0;stroke-opacity:1;paint-order:markers fill stroke"
       id="path9611"
       d="m 85.37799,192.38019 c -0.0314,0.27515 -0.08157,0.5479 -0.138626,0.81877 -0.07935,0.37399 -0.169995,0.74558 -0.268835,1.11487 -0.108207,0.41709 -0.232011,0.8298 -0.340484,1.24681 -0.0829,0.32058 -0.165995,0.64232 -0.171212,0.97509 -0.0029,0.087 0.07944,0.17598 0.0054,0.0431 -0.140488,-0.11212 -0.01185,-0.0709 0.115382,-0.0872 0.252408,-0.0314 0.498801,-0.0994 0.742837,-0.16947 0.05326,-0.0148 0.106513,-0.0296 0.159768,-0.0444 2.73145,-0.75855 3.089034,0.52907 0.357587,1.28762 v 0 c -0.0497,0.0138 -0.0994,0.0276 -0.149106,0.0414 -0.323545,0.0927 -0.651176,0.17844 -0.986464,0.21538 -0.407165,0.0328 -0.805201,0.0115 -1.139452,-0.25502 -0.295585,-0.29903 -0.445259,-0.65046 -0.441571,-1.07554 0.01807,-0.43109 0.09687,-0.85244 0.213624,-1.26778 0.109586,-0.42027 0.233723,-0.83643 0.34312,-1.25675 0.09355,-0.34658 0.17757,-0.69582 0.252463,-1.04689 0.05227,-0.24086 0.09457,-0.4841 0.122653,-0.72897 0.400904,-2.80633 1.723821,-2.61735 1.322916,0.18898 z"
       inkscape:connector-curvature="0" />
    <circle
       style="opacity:1;fill:#000000;fill-opacity:1;fill-rule:nonzero;stroke:#000000;stroke-width:0.1;stroke-linecap:round;stroke-linejoin:round;stroke-miterlimit:4;stroke-dasharray:none;stroke-dashoffset:0;stroke-opacity:1;paint-order:markers fill stroke"
       id="path9679"
       cx="166.108"
       cy="237.26526"
       r="1.7372519" />
    <circle
       style="opacity:1;fill:#000000;fill-opacity:1;fill-rule:nonzero;stroke:#000000;stroke-width:0.1;stroke-linecap:round;stroke-linejoin:round;stroke-miterlimit:4;stroke-dasharray:none;stroke-dashoffset:0;stroke-opacity:1;paint-order:markers fill stroke"
       id="path9679-3"
       cx="173.45793"
       cy="214.41371"
       r="1.7372519" />
    <circle
       style="opacity:1;fill:#000000;fill-opacity:1;fill-rule:nonzero;stroke:#000000;stroke-width:0.1;stroke-linecap:round;stroke-linejoin:round;stroke-miterlimit:4;stroke-dasharray:none;stroke-dashoffset:0;stroke-opacity:1;paint-order:markers fill stroke"
       id="path9679-7"
       cx="178.80331"
       cy="144.12184"
       r="1.7372519" />
    <path
       style="opacity:1;fill:#da03ae;fill-opacity:1;fill-rule:nonzero;stroke:#da03ae;stroke-width:0.1;stroke-linecap:round;stroke-linejoin:round;stroke-miterlimit:4;stroke-dasharray:none;stroke-dashoffset:0;stroke-opacity:1;paint-order:markers fill stroke"
       id="path9617"
       d="m 154.7808,250.01151 c 0.19541,-0.13441 0.3737,-0.28874 0.55336,-0.44044 0.26628,-0.2513 0.54643,-0.48946 0.81547,-0.73816 0.36072,-0.34045 0.71881,-0.68328 1.07832,-1.02483 0.42139,-0.40605 0.82547,-0.82679 1.2292,-1.24779 0.4444,-0.47936 0.88997,-0.95774 1.34091,-1.43186 0.47811,-0.50652 0.94514,-1.02177 1.41267,-1.53665 0.47352,-0.53474 0.94915,-1.06783 1.43102,-1.59614 0.47338,-0.5181 0.95706,-1.028 1.44391,-1.53526 0.45556,-0.48761 0.90976,-0.97627 1.36912,-1.46081 0.44592,-0.46234 0.89662,-0.92081 1.34704,-1.37941 0.44143,-0.43631 0.86134,-0.89058 1.29657,-1.33207 0.409,-0.41308 0.80572,-0.8361 1.20071,-1.26062 0.38977,-0.40271 0.77449,-0.80948 1.15148,-1.22248 0.37043,-0.40344 0.73749,-0.80948 1.10172,-1.21772 0.34219,-0.38586 0.68663,-0.77015 1.01758,-1.16438 0.31495,-0.36714 0.62917,-0.73481 0.94543,-1.101 0.3026,-0.35141 0.59616,-0.70928 0.89338,-1.06456 0.28354,-0.33677 0.5611,-0.67778 0.84206,-1.01638 0.17712,-0.2133 0.34871,-0.43002 0.51215,-0.65245 1.43624,-1.94985 2.42882,-1.32288 0.99259,0.62697 v 0 c -0.17679,0.23952 -0.36092,0.47388 -0.55224,0.70368 -0.28215,0.33956 -0.56038,0.68193 -0.84492,1.0198 -0.30116,0.3596 -0.59822,0.72212 -0.90471,1.07789 -0.31291,0.36229 -0.62379,0.72604 -0.93542,1.08926 -0.33848,0.40261 -0.68975,0.79577 -1.03964,1.18985 -0.36712,0.41147 -0.73709,0.8207 -1.1104,1.22735 -0.37944,0.41563 -0.76635,0.82527 -1.15882,1.23042 -0.40256,0.43267 -0.80702,0.86369 -1.2238,1.28474 -0.43491,0.4407 -0.85375,0.8948 -1.29487,1.33032 -0.44569,0.4538 -0.89167,0.90744 -1.33298,1.36486 -0.46098,0.48622 -0.91662,0.97673 -1.37397,1.46588 -0.48015,0.50027 -0.9572,1.00312 -1.42408,1.51407 -0.48131,0.52768 -0.95622,1.06025 -1.42931,1.59426 -0.47344,0.52139 -0.94642,1.0431 -1.43064,1.55599 -0.45203,0.47524 -0.89845,0.95493 -1.34416,1.43526 -0.41607,0.43387 -0.83272,0.86731 -1.2672,1.28562 -0.36354,0.34536 -0.72559,0.69211 -1.0905,1.03623 -0.28207,0.26001 -0.57401,0.51062 -0.85424,0.77238 -0.19281,0.16273 -0.38448,0.32813 -0.59361,0.47293 -1.95802,1.51099 -2.7272,0.65625 -0.76918,-0.85475 z"
       inkscape:connector-curvature="0" />
    <path
       style="opacity:1;fill:#da03ae;fill-opacity:1;fill-rule:nonzero;stroke:#da03ae;stroke-width:0.1;stroke-linecap:round;stroke-linejoin:round;stroke-miterlimit:4;stroke-dasharray:none;stroke-dashoffset:0;stroke-opacity:1;paint-order:markers fill stroke"
       id="path9621"
       d="m 178.27269,199.06324 c -0.0558,0.2298 -0.0886,0.4642 -0.11669,0.69871 -0.0617,0.39024 -0.11688,0.78117 -0.15987,1.17393 -0.053,0.48198 -0.1104,0.9639 -0.17689,1.44425 -0.0728,0.54365 -0.16676,1.08402 -0.24615,1.6267 -0.0937,0.59396 -0.19998,1.18568 -0.30467,1.77776 -0.10412,0.62419 -0.21663,1.24701 -0.33444,1.86877 -0.11557,0.64191 -0.2357,1.28296 -0.34351,1.92625 -0.10686,0.668 -0.22028,1.33471 -0.31678,2.00435 -0.0901,0.67431 -0.19492,1.3465 -0.28498,2.02084 -0.10568,0.65824 -0.18829,1.31984 -0.28675,1.9791 -0.0899,0.63278 -0.20744,1.26103 -0.31252,1.89136 -0.10603,0.60792 -0.23089,1.2121 -0.35289,1.81693 -0.12912,0.57947 -0.25026,1.16051 -0.38667,1.73832 -0.12518,0.52846 -0.22586,1.06203 -0.34433,1.59197 -0.11815,0.50033 -0.19818,1.0082 -0.29291,1.51312 -0.10126,0.50621 -0.18501,1.01553 -0.25813,1.52649 -0.0918,0.50508 -0.16626,1.01321 -0.25815,1.51821 -0.0615,0.32342 -0.0312,0.16292 -0.0908,0.48151 -0.52065,2.7866 -1.83426,2.54117 -1.31362,-0.24543 v 0 c 0.0598,-0.31978 0.0298,-0.16096 0.0898,-0.47644 0.0897,-0.48792 0.1595,-0.97945 0.24986,-1.46735 0.076,-0.53014 0.16267,-1.05865 0.26763,-1.58391 0.0979,-0.51978 0.18006,-1.04275 0.3021,-1.55779 0.11965,-0.53509 0.22094,-1.07396 0.34789,-1.60745 0.13308,-0.56358 0.25098,-1.13039 0.3773,-1.69553 0.11905,-0.59002 0.24099,-1.17941 0.34471,-1.77243 0.1039,-0.623 0.22015,-1.24392 0.30902,-1.86933 0.0978,-0.65228 0.17867,-1.30706 0.2838,-1.9583 0.0907,-0.67892 0.19604,-1.3557 0.28691,-2.03457 0.098,-0.67973 0.2129,-1.35656 0.32149,-2.03461 0.10944,-0.65257 0.23113,-1.30295 0.34848,-1.95413 0.11681,-0.61639 0.22834,-1.23381 0.33149,-1.85264 0.10241,-0.57906 0.20644,-1.15775 0.29835,-1.73862 0.0791,-0.53952 0.17222,-1.07675 0.24479,-1.61722 0.0653,-0.46749 0.12026,-0.93676 0.17212,-1.4059 0.0438,-0.39772 0.0978,-0.79393 0.16161,-1.18894 0.0358,-0.29288 0.0779,-0.58555 0.14944,-0.87217 0.70893,-2.74475 2.00281,-2.41055 1.29389,0.33419 z"
       inkscape:connector-curvature="0" />
    <path
       style="opacity:1;fill:#da03ae;fill-opacity:1;fill-rule:nonzero;stroke:#da03ae;stroke-width:0.1;stroke-linecap:round;stroke-linejoin:round;stroke-miterlimit:4;stroke-dasharray:none;stroke-dashoffset:0;stroke-opacity:1;paint-order:markers fill stroke"
       id="path9677"
       d="m 182.13493,132.51182 c -0.033,0.24265 -0.053,0.48678 -0.0718,0.73086 -0.0261,0.35233 -0.0427,0.70526 -0.0579,1.0582 -0.008,0.43401 -0.052,0.86587 -0.0881,1.29812 -0.0418,0.49952 -0.0706,0.99999 -0.0964,1.50055 -0.0444,0.57542 -0.0971,1.15013 -0.14046,1.72564 -0.046,0.61668 -0.0778,1.23429 -0.10731,1.85194 -0.0193,0.66081 -0.073,1.31966 -0.12067,1.97882 -0.0515,0.6579 -0.0783,1.31742 -0.12843,1.97537 -0.0561,0.63792 -0.11143,1.27586 -0.15877,1.9145 -0.0454,0.62111 -0.0812,1.24286 -0.11397,1.86475 -0.0208,0.62919 -0.0751,1.2563 -0.12506,1.88363 -0.0478,0.59337 -0.0868,1.18738 -0.12221,1.7816 -0.0232,0.58562 -0.08,1.16886 -0.13188,1.75242 -0.0375,0.55702 -0.1099,1.11048 -0.17585,1.66459 -0.0532,0.36079 -0.0252,0.18475 -0.0833,0.52821 -0.47441,2.79484 -1.79192,2.5712 -1.3175,-0.22364 v 0 c 0.0517,-0.30328 0.027,-0.14913 0.0738,-0.46251 0.0644,-0.54091 0.13549,-1.08112 0.17172,-1.62491 0.0507,-0.57064 0.10664,-1.14094 0.129,-1.71362 0.0359,-0.60311 0.0756,-1.206 0.12407,-1.80824 0.049,-0.61545 0.10258,-1.23065 0.1227,-1.84793 0.0333,-0.63136 0.0697,-1.26258 0.11577,-1.89316 0.0474,-0.63971 0.10265,-1.27874 0.15901,-1.91772 0.0505,-0.65601 0.0759,-1.31375 0.12802,-1.96971 0.0469,-0.64834 0.0999,-1.29636 0.11871,-1.94633 0.0301,-0.62989 0.0626,-1.25972 0.10957,-1.88861 0.0427,-0.56498 0.0936,-1.12925 0.13845,-1.69405 0.0266,-0.51466 0.0562,-1.02922 0.0993,-1.54281 0.0346,-0.41441 0.0776,-0.82837 0.0847,-1.2445 0.0159,-0.36807 0.0333,-0.73613 0.0606,-1.10356 0.0211,-0.27283 0.0439,-0.54571 0.0813,-0.81689 0.40091,-2.80633 1.72382,-2.61734 1.32292,0.18899 z"
       inkscape:connector-curvature="0" />
  </g>
</svg>
