<svg version="1.1" xmlns="http://www.w3.org/2000/svg" xmlns:xlink="http://www.w3.org/1999/xlink" width="1200" height="800"><defs/><g transform="scale(2,2)"><g id="background-06e3b848"><rect fill="white" stroke="none" x="0" y="0" width="600" height="400" class="dcg-svg-background"/></g><g id="graphpaper-06e3b848"><g id="grid-06e3b848"><g><path fill="none" stroke="rgb(0,0,0)" class="dcg-svg-minor-gridline" paint-order="fill stroke markers" d=" M 32.5 0 L 32.5 400" stroke-opacity="0.3" stroke-miterlimit="10" stroke-dasharray=""/><path fill="none" stroke="rgb(0,0,0)" class="dcg-svg-minor-gridline" paint-order="fill stroke markers" d=" M 65.5 0 L 65.5 400" stroke-opacity="0.3" stroke-miterlimit="10" stroke-dasharray=""/><path fill="none" stroke="rgb(0,0,0)" class="dcg-svg-minor-gridline" paint-order="fill stroke markers" d=" M 98.5 0 L 98.5 400" stroke-opacity="0.3" stroke-miterlimit="10" stroke-dasharray=""/><path fill="none" stroke="rgb(0,0,0)" class="dcg-svg-minor-gridline" paint-order="fill stroke markers" d=" M 131.5 0 L 131.5 400" stroke-opacity="0.3" stroke-miterlimit="10" stroke-dasharray=""/><path fill="none" stroke="rgb(0,0,0)" class="dcg-svg-minor-gridline" paint-order="fill stroke markers" d=" M 164.5 0 L 164.5 400" stroke-opacity="0.3" stroke-miterlimit="10" stroke-dasharray=""/><path fill="none" stroke="rgb(0,0,0)" class="dcg-svg-minor-gridline" paint-order="fill stroke markers" d=" M 197.5 0 L 197.5 400" stroke-opacity="0.3" stroke-miterlimit="10" stroke-dasharray=""/><path fill="none" stroke="rgb(0,0,0)" class="dcg-svg-minor-gridline" paint-order="fill stroke markers" d=" M 231.5 0 L 231.5 400" stroke-opacity="0.3" stroke-miterlimit="10" stroke-dasharray=""/><path fill="none" stroke="rgb(0,0,0)" class="dcg-svg-minor-gridline" paint-order="fill stroke markers" d=" M 264.5 0 L 264.5 400" stroke-opacity="0.3" stroke-miterlimit="10" stroke-dasharray=""/><path fill="none" stroke="rgb(0,0,0)" class="dcg-svg-minor-gridline" paint-order="fill stroke markers" d=" M 330.5 0 L 330.5 400" stroke-opacity="0.3" stroke-miterlimit="10" stroke-dasharray=""/><path fill="none" stroke="rgb(0,0,0)" class="dcg-svg-minor-gridline" paint-order="fill stroke markers" d=" M 363.5 0 L 363.5 400" stroke-opacity="0.3" stroke-miterlimit="10" stroke-dasharray=""/><path fill="none" stroke="rgb(0,0,0)" class="dcg-svg-minor-gridline" paint-order="fill stroke markers" d=" M 396.5 0 L 396.5 400" stroke-opacity="0.3" stroke-miterlimit="10" stroke-dasharray=""/><path fill="none" stroke="rgb(0,0,0)" class="dcg-svg-minor-gridline" paint-order="fill stroke markers" d=" M 429.5 0 L 429.5 400" stroke-opacity="0.3" stroke-miterlimit="10" stroke-dasharray=""/><path fill="none" stroke="rgb(0,0,0)" class="dcg-svg-minor-gridline" paint-order="fill stroke markers" d=" M 462.5 0 L 462.5 400" stroke-opacity="0.3" stroke-miterlimit="10" stroke-dasharray=""/><path fill="none" stroke="rgb(0,0,0)" class="dcg-svg-minor-gridline" paint-order="fill stroke markers" d=" M 495.5 0 L 495.5 400" stroke-opacity="0.3" stroke-miterlimit="10" stroke-dasharray=""/><path fill="none" stroke="rgb(0,0,0)" class="dcg-svg-minor-gridline" paint-order="fill stroke markers" d=" M 528.5 0 L 528.5 400" stroke-opacity="0.3" stroke-miterlimit="10" stroke-dasharray=""/><path fill="none" stroke="rgb(0,0,0)" class="dcg-svg-minor-gridline" paint-order="fill stroke markers" d=" M 561.5 0 L 561.5 400" stroke-opacity="0.3" stroke-miterlimit="10" stroke-dasharray=""/><path fill="none" stroke="rgb(0,0,0)" class="dcg-svg-minor-gridline" paint-order="fill stroke markers" d=" M 594.5 0 L 594.5 400" stroke-opacity="0.3" stroke-miterlimit="10" stroke-dasharray=""/><path fill="none" stroke="rgb(0,0,0)" class="dcg-svg-minor-gridline" paint-order="fill stroke markers" d=" M 0 376.5 L 600 376.5" stroke-opacity="0.3" stroke-miterlimit="10" stroke-dasharray=""/><path fill="none" stroke="rgb(0,0,0)" class="dcg-svg-minor-gridline" paint-order="fill stroke markers" d=" M 0 343.5 L 600 343.5" stroke-opacity="0.3" stroke-miterlimit="10" stroke-dasharray=""/><path fill="none" stroke="rgb(0,0,0)" class="dcg-svg-minor-gridline" paint-order="fill stroke markers" d=" M 0 310.5 L 600 310.5" stroke-opacity="0.3" stroke-miterlimit="10" stroke-dasharray=""/><path fill="none" stroke="rgb(0,0,0)" class="dcg-svg-minor-gridline" paint-order="fill stroke markers" d=" M 0 277.5 L 600 277.5" stroke-opacity="0.3" stroke-miterlimit="10" stroke-dasharray=""/><path fill="none" stroke="rgb(0,0,0)" class="dcg-svg-minor-gridline" paint-order="fill stroke markers" d=" M 0 244.5 L 600 244.5" stroke-opacity="0.3" stroke-miterlimit="10" stroke-dasharray=""/><path fill="none" stroke="rgb(0,0,0)" class="dcg-svg-minor-gridline" paint-order="fill stroke markers" d=" M 0 178.5 L 600 178.5" stroke-opacity="0.3" stroke-miterlimit="10" stroke-dasharray=""/><path fill="none" stroke="rgb(0,0,0)" class="dcg-svg-minor-gridline" paint-order="fill stroke markers" d=" M 0 145.5 L 600 145.5" stroke-opacity="0.3" stroke-miterlimit="10" stroke-dasharray=""/><path fill="none" stroke="rgb(0,0,0)" class="dcg-svg-minor-gridline" paint-order="fill stroke markers" d=" M 0 112.5 L 600 112.5" stroke-opacity="0.3" stroke-miterlimit="10" stroke-dasharray=""/><path fill="none" stroke="rgb(0,0,0)" class="dcg-svg-minor-gridline" paint-order="fill stroke markers" d=" M 0 79.5 L 600 79.5" stroke-opacity="0.3" stroke-miterlimit="10" stroke-dasharray=""/><path fill="none" stroke="rgb(0,0,0)" class="dcg-svg-minor-gridline" paint-order="fill stroke markers" d=" M 0 46.5 L 600 46.5" stroke-opacity="0.3" stroke-miterlimit="10" stroke-dasharray=""/><path fill="none" stroke="rgb(0,0,0)" class="dcg-svg-minor-gridline" paint-order="fill stroke markers" d=" M 0 13.5 L 600 13.5" stroke-opacity="0.3" stroke-miterlimit="10" stroke-dasharray=""/><path fill="none" stroke="rgb(0,0,0)" class="dcg-svg-major-gridline" paint-order="fill stroke markers" d=" M 32.5 0 L 32.5 400" stroke-opacity="0.4285714285714285" stroke-miterlimit="10" stroke-dasharray=""/><path fill="none" stroke="rgb(0,0,0)" class="dcg-svg-major-gridline" paint-order="fill stroke markers" d=" M 164.5 0 L 164.5 400" stroke-opacity="0.4285714285714285" stroke-miterlimit="10" stroke-dasharray=""/><path fill="none" stroke="rgb(0,0,0)" class="dcg-svg-major-gridline" paint-order="fill stroke markers" d=" M 429.5 0 L 429.5 400" stroke-opacity="0.4285714285714285" stroke-miterlimit="10" stroke-dasharray=""/><path fill="none" stroke="rgb(0,0,0)" class="dcg-svg-major-gridline" paint-order="fill stroke markers" d=" M 561.5 0 L 561.5 400" stroke-opacity="0.4285714285714285" stroke-miterlimit="10" stroke-dasharray=""/><path fill="none" stroke="rgb(0,0,0)" class="dcg-svg-major-gridline" paint-order="fill stroke markers" d=" M 0 343.5 L 600 343.5" stroke-opacity="0.4285714285714285" stroke-miterlimit="10" stroke-dasharray=""/><path fill="none" stroke="rgb(0,0,0)" class="dcg-svg-major-gridline" paint-order="fill stroke markers" d=" M 0 79.5 L 600 79.5" stroke-opacity="0.4285714285714285" stroke-miterlimit="10" stroke-dasharray=""/></g></g><g id="axis-06e3b848"><g id="yaxis-06e3b848"><title>Y axis</title><g><path fill="none" stroke="rgb(0,0,0)" class="dcg-svg-axis-line" paint-order="fill stroke markers" d=" M 297 0 L 297 400" stroke-opacity="0.9" stroke-miterlimit="10" stroke-width="2" stroke-dasharray=""/></g></g><g id="xaxis-06e3b848"><title>X axis</title><g><path fill="none" stroke="rgb(0,0,0)" class="dcg-svg-axis-line" paint-order="fill stroke markers" d=" M 0 212 L 600 212" stroke-opacity="0.9" stroke-miterlimit="10" stroke-width="2" stroke-dasharray=""/></g></g><g><g class="dcg-svg-axis-value"><text fill="none" stroke="#ffffff" font-family="Arial" font-size="17px" font-style="normal" font-weight="normal" text-decoration="normal" x="287.3324600499411" y="229.92126268765762" text-anchor="middle" stroke-miterlimit="2" stroke-width="3" stroke-dasharray="">0</text><text fill="#000000" stroke="none" font-family="Arial" font-size="17px" font-style="normal" font-weight="normal" text-decoration="normal" x="287.3324600499411" y="229.92126268765762" text-anchor="middle">0</text></g><g class="dcg-svg-axis-value"><text fill="none" stroke="#ffffff" font-family="Arial" font-size="17px" font-style="normal" font-weight="normal" text-decoration="normal" x="30.014400788442344" y="229.92126268765762" text-anchor="middle" stroke-miterlimit="2" stroke-width="3" stroke-dasharray="">-0.4</text><text fill="#000000" stroke="none" font-family="Arial" font-size="17px" font-style="normal" font-weight="normal" text-decoration="normal" x="30.014400788442344" y="229.92126268765762" text-anchor="middle">-0.4</text></g><g class="dcg-svg-axis-value"><text fill="none" stroke="#ffffff" font-family="Arial" font-size="17px" font-style="normal" font-weight="normal" text-decoration="normal" x="162.12179467700423" y="229.92126268765762" text-anchor="middle" stroke-miterlimit="2" stroke-width="3" stroke-dasharray="">-0.2</text><text fill="#000000" stroke="none" font-family="Arial" font-size="17px" font-style="normal" font-weight="normal" text-decoration="normal" x="162.12179467700423" y="229.92126268765762" text-anchor="middle">-0.2</text></g><g class="dcg-svg-axis-value"><text fill="none" stroke="#ffffff" font-family="Arial" font-size="17px" font-style="normal" font-weight="normal" text-decoration="normal" x="429.167148860378" y="229.92126268765762" text-anchor="middle" stroke-miterlimit="2" stroke-width="3" stroke-dasharray="">0.2</text><text fill="#000000" stroke="none" font-family="Arial" font-size="17px" font-style="normal" font-weight="normal" text-decoration="normal" x="429.167148860378" y="229.92126268765762" text-anchor="middle">0.2</text></g><g class="dcg-svg-axis-value"><text fill="none" stroke="#ffffff" font-family="Arial" font-size="17px" font-style="normal" font-weight="normal" text-decoration="normal" x="561.2745427489399" y="229.92126268765762" text-anchor="middle" stroke-miterlimit="2" stroke-width="3" stroke-dasharray="">0.4</text><text fill="#000000" stroke="none" font-family="Arial" font-size="17px" font-style="normal" font-weight="normal" text-decoration="normal" x="561.2745427489399" y="229.92126268765762" text-anchor="middle">0.4</text></g><g class="dcg-svg-axis-value"><text fill="none" stroke="#ffffff" font-family="Arial" font-size="17px" font-style="normal" font-weight="normal" text-decoration="normal" x="277.4130264561911" y="348.52865657621953" text-anchor="middle" stroke-miterlimit="2" stroke-width="3" stroke-dasharray="">-0.2</text><text fill="#000000" stroke="none" font-family="Arial" font-size="17px" font-style="normal" font-weight="normal" text-decoration="normal" x="277.4130264561911" y="348.52865657621953" text-anchor="middle">-0.2</text></g><g class="dcg-svg-axis-value"><text fill="none" stroke="#ffffff" font-family="Arial" font-size="17px" font-style="normal" font-weight="normal" text-decoration="normal" x="280.2435928624411" y="84.31386879909573" text-anchor="middle" stroke-miterlimit="2" stroke-width="3" stroke-dasharray="">0.2</text><text fill="#000000" stroke="none" font-family="Arial" font-size="17px" font-style="normal" font-weight="normal" text-decoration="normal" x="280.2435928624411" y="84.31386879909573" text-anchor="middle">0.2</text></g></g></g></g><g id="expressions-06e3b848"><g id="sketch-06e3b848"><title>Выражение 1</title><path fill="#c74440" stroke="none" paint-order="stroke fill markers" d="" fill-opacity="0.4"/><g><path fill="none" stroke="#c74440" class="dcg-svg-curve" paint-order="fill stroke markers" d=" M -5.684341886080802e-14 317.92445110873143 L -5.684341886080802e-14 317.92445110873143 L 25.1953125 284.89793302999254 L 41.60156249999997 263.9328871741659 L 54.49218749999997 247.99651704857678 L 65.33203124999997 235.1295628449506 L 74.70703124999997 224.52836926424126 L 83.05664062499997 215.60980522695877 L 90.52734374999997 208.14210541208615 L 97.41210937499997 201.77135507075153 L 103.857421875 196.3273152912408 L 109.57031249999997 191.98510379780433 L 114.69726562499997 188.52495690716538 L 119.38476562499997 185.76310286161183 L 123.63281249999997 183.62344124748546 L 127.587890625 181.9678009752375 L 131.24999999999997 180.74513695883996 L 134.76562499999997 179.87012198481474 L 137.98828124999997 179.33944131427373 L 141.21093749999997 179.0811225654159 L 144.287109375 179.099383462874 L 147.36328124999994 179.38581452897103 L 150.43945312499994 179.9485698185254 L 153.51562499999997 180.79421317107767 L 156.59179687499997 181.92722602741193 L 159.81445312499994 183.424350831958 L 163.18359374999994 185.32674956267584 L 166.84570312499997 187.77601857620317 L 170.80078124999997 190.84400249083106 L 175.34179687499994 194.8522827032762 L 180.76171874999994 200.17660325473287 L 196.87499999999994 216.4327322965637 L 200.24414062499994 219.08626383183238 L 203.02734374999997 220.83707969034666 L 205.37109374999994 221.93034706326924 L 207.421875 222.5585020838297 L 209.32617187499994 222.83983574942204 L 211.08398437499994 222.82439611449797 L 212.841796875 222.53436198805292 L 214.599609375 221.96578531459735 L 216.50390625 221.04005208738232 L 218.70117187499994 219.5945534389816 L 221.337890625 217.3998729223505 L 225.14648437499997 213.6551746441476 L 229.68749999999997 209.25153256673747 L 231.88476562499997 207.6052331773177 L 233.64257812499997 206.70382472464638 L 234.96093749999997 206.33077102481417 L 236.27929687499997 206.2501872796779 L 237.451171875 206.43775394309492 L 238.76953124999997 206.9414779195063 L 240.23437499999994 207.84251923143302 L 242.13867187499997 209.45201795843516 L 247.70507812499997 214.48623138701234 L 248.87695312499997 214.9946433621156 L 249.8624354062371 215.13573371935382 L 250.78124999999997 215.0097222269492 L 251.80664062499997 214.576190073394 L 253.12499999999997 213.61987425997972 L 257.8125 209.69605173311567 L 258.69140625 209.57300908367614 L 259.423828125 209.73165683815623 L 260.30273437499994 210.22182557425617 L 261.62109375 211.39965563225505 L 263.525390625 213.07378545102972 L 264.404296875 213.3817338142827 L 264.990234375 213.3300213068404 L 265.72265624999994 212.97348258060202 L 266.89453125 211.92635592806246 L 268.212890625 210.80504916935823 L 268.92421424790393 210.60315584635316 L 269.53125 210.75572738474293 L 270.263671875 211.29313497449184 L 272.021484375 212.69744886515605 L 272.4609375 212.70320866801907 L 273.046875 212.40289949109854 L 274.951171875 211.05764918467767 L 275.390625 211.22611864567364 L 277.1484375 212.38698346220866 L 277.587890625 212.13769727019766 L 278.7486006503042 211.29042623870166 L 279.19921875 211.48024999097444 L 280.2174667676729 212.22614791454782 L 280.517578125 212.12439243550546 L 281.54296875 211.4372775511414 L 281.982421875 211.73823666158597 L 282.5453855966004 212.11588796681147 L 282.861328125 211.9701065738302 L 283.59374999999994 211.5400954348611 L 284.47265624999994 211.9895052076559 L 285.03720101703607 211.57858283042873 L 285.3515625 211.76994396851117 L 285.791015625 211.96622173448543 L 286.376953125 211.65187605014083 L 286.7984429292176 211.95659327018095 L 287.40234374999994 211.7043573515847 L 287.84179687499994 211.869792284975 L 288.1094300199774 211.6760296300931 L 288.57421875 211.867248150187 L 288.81187268515123 211.6943065139551 L 289.12329676202603 211.89259299235155 L 289.4120528959329 211.70874126408665 L 289.68052970422116 211.87967954136565 L 290.0390625 211.78511823630654 L 290.1646316218869 211.86922288147323 L 290.478515625 211.78653688283595 L 290.58911510866443 211.8606371069111 L 290.9643563605811 211.85350111168137 L 291.21093749999994 211.78889905463598 L 291.796875 211.7907869037535 L 295.166015625 211.79680945002235 L 299.4090372820056 211.80561799251444 L 301.17187499999994 211.80747889141014 L 302.38336914589536 211.84016291593866 L 302.8210545617708 211.74701943807787 L 303.076171875 211.78817265608416 L 304.1015625 211.82961744386324 L 304.18871842518575 211.87418538341822 L 304.541015625 211.7699974850941 L 304.83398437499994 211.8102067814302 L 305.126953125 211.7778872287267 L 305.419921875 211.84520263691542 L 305.6445084843061 211.68572750963523 L 306.15234374999994 211.84473416899027 L 306.40818403014146 211.66500947387757 L 306.84336770696075 211.94211015539668 L 307.470703125 211.70265273108268 L 307.8478358085094 211.97336282204859 L 308.64257812499994 211.70371964217097 L 309.08230892659617 212.0159425448865 L 309.375 211.84930421464057 L 309.8120035373785 211.5512526019396 L 310.10742187499994 211.70660826576264 L 310.6360769239945 212.07606765426837 L 310.986328125 211.88573887583996 L 311.57412434703184 211.47863740850377 L 311.865234375 211.60119990474536 L 312.744140625 212.15336012153446 L 313.18359375 211.84663698789117 L 313.90204317595936 211.36837746076742 L 314.35546874999994 211.58345705790921 L 315.37090929332805 212.3040991366136 L 315.8203125 212.1202770948402 L 317.12097897046 211.18910246629844 L 317.57812499999994 211.35058641960416 L 319.3359375 212.53456883231595 L 319.775390625 212.35992001459832 L 320.80078125 211.42477133561394 L 321.6796875 210.8868676129179 L 322.119140625 210.90247649921358 L 322.70507812499994 211.21559552287536 L 325.048828125 212.98239925256934 L 325.63476562499994 212.9124775760198 L 326.36718749999994 212.47367180952358 L 329.296875 210.22775780088764 L 329.88281249999994 210.237252431692 L 330.615234375 210.53320957837636 L 331.64062499999994 211.34643574581258 L 334.27734375 213.66762642544478 L 335.15625 213.99055675664093 L 335.88867187499994 213.99872540211857 L 336.767578125 213.70640759743037 L 337.79296875 213.01958936207407 L 339.69726562499994 211.20727825036224 L 341.74804687499994 209.37914676233152 L 343.06640624999994 208.67029507795982 L 344.091796875 208.4628505003166 L 344.970703125 208.53328983902588 L 345.99609374999994 208.88772916705452 L 347.31445312499994 209.7101916116972 L 349.21875 211.39615103282796 L 353.90625 215.76732593988592 L 355.517578125 216.73388877223712 L 356.8359375 217.19872880394507 L 358.0078125 217.35103368126673 L 359.17968749999994 217.26002149133768 L 360.49804687499994 216.88248993819232 L 361.962890625 216.15588290290262 L 363.720703125 214.92842303472537 L 366.2109375 212.71629653834393 L 375.5859375 203.8764153344991 L 377.92968749999994 202.38013844379105 L 379.98046874999994 201.45289414749246 L 381.884765625 200.92856947201392 L 383.642578125 200.73415382356512 L 385.400390625 200.81146962454656 L 387.158203125 201.1486534261928 L 389.0625 201.7883962090172 L 391.259765625 202.849728852096 L 393.75 204.41998572591024 L 396.6796875 206.6823738445139 L 400.48828125 210.12849683513437 L 405.76171875 215.4667885360758 L 417.919921875 227.93396668145294 L 422.90039062499994 232.40187414052426 L 427.14843749999994 235.72782927958355 L 430.95703125 238.28075897822777 L 434.47265625 240.2558473188903 L 437.84179687499994 241.79623200034916 L 441.064453125 242.9451324103772 L 444.140625 243.74807925307874 L 447.216796875 244.26900120872187 L 450.29296875 244.51472945827462 L 453.369140625 244.49361887107108 L 456.4453125 244.21514723061668 L 459.66796875 243.6585750316797 L 463.037109375 242.80022781696394 L 466.552734375 241.61878991626634 L 470.361328125 240.0286767546328 L 474.462890625 237.97902260798807 L 478.857421875 235.42346474011794 L 483.69140625 232.21843058191388 L 488.96484375 228.29528893225023 L 494.82421874999994 223.46922816553757 L 501.26953125 217.66063518919302 L 508.30078125 210.80709949942943 L 516.064453125 202.70784071116282 L 524.70703125 193.14709345670778 L 534.375 181.90390578617723 L 545.5078125 168.40097264776088 L 558.69140625 151.845803476863 L 575.244140625 130.48140475637862 L 599.12109375 99.05221128075601 L 600 97.88817044572585" stroke-linecap="round" stroke-linejoin="round" stroke-miterlimit="10" stroke-width="3.5" stroke-dasharray=""/></g></g></g><g id="labels-06e3b848"/><g id="labels-06e3b848"/></g></svg>