<?xml version="1.0" encoding="UTF-8" standalone="no"?>
<svg
   xmlns:dc="http://purl.org/dc/elements/1.1/"
   xmlns:cc="http://creativecommons.org/ns#"
   xmlns:rdf="http://www.w3.org/1999/02/22-rdf-syntax-ns#"
   xmlns:svg="http://www.w3.org/2000/svg"
   xmlns="http://www.w3.org/2000/svg"
   xmlns:sodipodi="http://sodipodi.sourceforge.net/DTD/sodipodi-0.dtd"
   xmlns:inkscape="http://www.inkscape.org/namespaces/inkscape"
   version="1.1"
   width="1165"
   height="408"
   id="svg239"
   sodipodi:docname="x2sinx-1_zoom.svg"
   inkscape:export-filename="D:\Document &amp; Files\Documents\MEGA\MEGAsync Uploads\Myspace\Study\workspace-11c1s\Матан\Mathematichalys\Seminar1New\images\g237.png"
   inkscape:export-xdpi="509"
   inkscape:export-ydpi="509"
   inkscape:version="0.92.1 r15371">
  <metadata
     id="metadata243">
    <rdf:RDF>
      <cc:Work
         rdf:about="">
        <dc:format>image/svg+xml</dc:format>
        <dc:type
           rdf:resource="http://purl.org/dc/dcmitype/StillImage" />
        <dc:title></dc:title>
      </cc:Work>
    </rdf:RDF>
  </metadata>
  <sodipodi:namedview
     pagecolor="#ffffff"
     bordercolor="#666666"
     borderopacity="1"
     objecttolerance="10"
     gridtolerance="10"
     guidetolerance="10"
     inkscape:pageopacity="0"
     inkscape:pageshadow="2"
     inkscape:window-width="1920"
     inkscape:window-height="1046"
     id="namedview241"
     showgrid="false"
     inkscape:zoom="0.59"
     inkscape:cx="610.53107"
     inkscape:cy="428.29102"
     inkscape:window-x="-11"
     inkscape:window-y="-11"
     inkscape:window-maximized="1"
     inkscape:current-layer="svg239" />
  <defs
     id="defs2" />
  <g
     transform="matrix(2,0,0,2,0,-202)"
     id="g237">
    <g
       id="background-f486c5ee">
      <rect
         x="0"
         y="0"
         width="600"
         height="400"
         class="dcg-svg-background"
         id="rect4"
         style="fill:#ffffff;stroke:none" />
    </g>
    <g
       id="graphpaper-f486c5ee">
      <g
         id="grid-f486c5ee">
        <g
           id="g137">
          <path
             class="dcg-svg-minor-gridline"
             d="M 9.5,0 V 400"
             stroke-miterlimit="10"
             id="path7"
             inkscape:connector-curvature="0"
             style="fill:none;stroke:#000000;stroke-miterlimit:10;stroke-dasharray:none;stroke-opacity:0.3;paint-order:fill stroke markers" />
          <path
             class="dcg-svg-minor-gridline"
             d="M 27.5,0 V 400"
             stroke-miterlimit="10"
             id="path9"
             inkscape:connector-curvature="0"
             style="fill:none;stroke:#000000;stroke-miterlimit:10;stroke-dasharray:none;stroke-opacity:0.3;paint-order:fill stroke markers" />
          <path
             class="dcg-svg-minor-gridline"
             d="M 45.5,0 V 400"
             stroke-miterlimit="10"
             id="path11"
             inkscape:connector-curvature="0"
             style="fill:none;stroke:#000000;stroke-miterlimit:10;stroke-dasharray:none;stroke-opacity:0.3;paint-order:fill stroke markers" />
          <path
             class="dcg-svg-minor-gridline"
             d="M 62.5,0 V 400"
             stroke-miterlimit="10"
             id="path13"
             inkscape:connector-curvature="0"
             style="fill:none;stroke:#000000;stroke-miterlimit:10;stroke-dasharray:none;stroke-opacity:0.3;paint-order:fill stroke markers" />
          <path
             class="dcg-svg-minor-gridline"
             d="M 80.5,0 V 400"
             stroke-miterlimit="10"
             id="path15"
             inkscape:connector-curvature="0"
             style="fill:none;stroke:#000000;stroke-miterlimit:10;stroke-dasharray:none;stroke-opacity:0.3;paint-order:fill stroke markers" />
          <path
             class="dcg-svg-minor-gridline"
             d="M 98.5,0 V 400"
             stroke-miterlimit="10"
             id="path17"
             inkscape:connector-curvature="0"
             style="fill:none;stroke:#000000;stroke-miterlimit:10;stroke-dasharray:none;stroke-opacity:0.3;paint-order:fill stroke markers" />
          <path
             class="dcg-svg-minor-gridline"
             d="M 115.5,0 V 400"
             stroke-miterlimit="10"
             id="path19"
             inkscape:connector-curvature="0"
             style="fill:none;stroke:#000000;stroke-miterlimit:10;stroke-dasharray:none;stroke-opacity:0.3;paint-order:fill stroke markers" />
          <path
             class="dcg-svg-minor-gridline"
             d="M 133.5,0 V 400"
             stroke-miterlimit="10"
             id="path21"
             inkscape:connector-curvature="0"
             style="fill:none;stroke:#000000;stroke-miterlimit:10;stroke-dasharray:none;stroke-opacity:0.3;paint-order:fill stroke markers" />
          <path
             class="dcg-svg-minor-gridline"
             d="M 150.5,0 V 400"
             stroke-miterlimit="10"
             id="path23"
             inkscape:connector-curvature="0"
             style="fill:none;stroke:#000000;stroke-miterlimit:10;stroke-dasharray:none;stroke-opacity:0.3;paint-order:fill stroke markers" />
          <path
             class="dcg-svg-minor-gridline"
             d="M 168.5,0 V 400"
             stroke-miterlimit="10"
             id="path25"
             inkscape:connector-curvature="0"
             style="fill:none;stroke:#000000;stroke-miterlimit:10;stroke-dasharray:none;stroke-opacity:0.3;paint-order:fill stroke markers" />
          <path
             class="dcg-svg-minor-gridline"
             d="M 186.5,0 V 400"
             stroke-miterlimit="10"
             id="path27"
             inkscape:connector-curvature="0"
             style="fill:none;stroke:#000000;stroke-miterlimit:10;stroke-dasharray:none;stroke-opacity:0.3;paint-order:fill stroke markers" />
          <path
             class="dcg-svg-minor-gridline"
             d="M 203.5,0 V 400"
             stroke-miterlimit="10"
             id="path29"
             inkscape:connector-curvature="0"
             style="fill:none;stroke:#000000;stroke-miterlimit:10;stroke-dasharray:none;stroke-opacity:0.3;paint-order:fill stroke markers" />
          <path
             class="dcg-svg-minor-gridline"
             d="M 221.5,0 V 400"
             stroke-miterlimit="10"
             id="path31"
             inkscape:connector-curvature="0"
             style="fill:none;stroke:#000000;stroke-miterlimit:10;stroke-dasharray:none;stroke-opacity:0.3;paint-order:fill stroke markers" />
          <path
             class="dcg-svg-minor-gridline"
             d="M 239.5,0 V 400"
             stroke-miterlimit="10"
             id="path33"
             inkscape:connector-curvature="0"
             style="fill:none;stroke:#000000;stroke-miterlimit:10;stroke-dasharray:none;stroke-opacity:0.3;paint-order:fill stroke markers" />
          <path
             class="dcg-svg-minor-gridline"
             d="M 256.5,0 V 400"
             stroke-miterlimit="10"
             id="path35"
             inkscape:connector-curvature="0"
             style="fill:none;stroke:#000000;stroke-miterlimit:10;stroke-dasharray:none;stroke-opacity:0.3;paint-order:fill stroke markers" />
          <path
             class="dcg-svg-minor-gridline"
             d="M 274.5,0 V 400"
             stroke-miterlimit="10"
             id="path37"
             inkscape:connector-curvature="0"
             style="fill:none;stroke:#000000;stroke-miterlimit:10;stroke-dasharray:none;stroke-opacity:0.3;paint-order:fill stroke markers" />
          <path
             class="dcg-svg-minor-gridline"
             d="M 309.5,0 V 400"
             stroke-miterlimit="10"
             id="path39"
             inkscape:connector-curvature="0"
             style="fill:none;stroke:#000000;stroke-miterlimit:10;stroke-dasharray:none;stroke-opacity:0.3;paint-order:fill stroke markers" />
          <path
             class="dcg-svg-minor-gridline"
             d="M 327.5,0 V 400"
             stroke-miterlimit="10"
             id="path41"
             inkscape:connector-curvature="0"
             style="fill:none;stroke:#000000;stroke-miterlimit:10;stroke-dasharray:none;stroke-opacity:0.3;paint-order:fill stroke markers" />
          <path
             class="dcg-svg-minor-gridline"
             d="M 344.5,0 V 400"
             stroke-miterlimit="10"
             id="path43"
             inkscape:connector-curvature="0"
             style="fill:none;stroke:#000000;stroke-miterlimit:10;stroke-dasharray:none;stroke-opacity:0.3;paint-order:fill stroke markers" />
          <path
             class="dcg-svg-minor-gridline"
             d="M 362.5,0 V 400"
             stroke-miterlimit="10"
             id="path45"
             inkscape:connector-curvature="0"
             style="fill:none;stroke:#000000;stroke-miterlimit:10;stroke-dasharray:none;stroke-opacity:0.3;paint-order:fill stroke markers" />
          <path
             class="dcg-svg-minor-gridline"
             d="M 379.5,0 V 400"
             stroke-miterlimit="10"
             id="path47"
             inkscape:connector-curvature="0"
             style="fill:none;stroke:#000000;stroke-miterlimit:10;stroke-dasharray:none;stroke-opacity:0.3;paint-order:fill stroke markers" />
          <path
             class="dcg-svg-minor-gridline"
             d="M 397.5,0 V 400"
             stroke-miterlimit="10"
             id="path49"
             inkscape:connector-curvature="0"
             style="fill:none;stroke:#000000;stroke-miterlimit:10;stroke-dasharray:none;stroke-opacity:0.3;paint-order:fill stroke markers" />
          <path
             class="dcg-svg-minor-gridline"
             d="M 415.5,0 V 400"
             stroke-miterlimit="10"
             id="path51"
             inkscape:connector-curvature="0"
             style="fill:none;stroke:#000000;stroke-miterlimit:10;stroke-dasharray:none;stroke-opacity:0.3;paint-order:fill stroke markers" />
          <path
             class="dcg-svg-minor-gridline"
             d="M 432.5,0 V 400"
             stroke-miterlimit="10"
             id="path53"
             inkscape:connector-curvature="0"
             style="fill:none;stroke:#000000;stroke-miterlimit:10;stroke-dasharray:none;stroke-opacity:0.3;paint-order:fill stroke markers" />
          <path
             class="dcg-svg-minor-gridline"
             d="M 450.5,0 V 400"
             stroke-miterlimit="10"
             id="path55"
             inkscape:connector-curvature="0"
             style="fill:none;stroke:#000000;stroke-miterlimit:10;stroke-dasharray:none;stroke-opacity:0.3;paint-order:fill stroke markers" />
          <path
             class="dcg-svg-minor-gridline"
             d="M 468.5,0 V 400"
             stroke-miterlimit="10"
             id="path57"
             inkscape:connector-curvature="0"
             style="fill:none;stroke:#000000;stroke-miterlimit:10;stroke-dasharray:none;stroke-opacity:0.3;paint-order:fill stroke markers" />
          <path
             class="dcg-svg-minor-gridline"
             d="M 485.5,0 V 400"
             stroke-miterlimit="10"
             id="path59"
             inkscape:connector-curvature="0"
             style="fill:none;stroke:#000000;stroke-miterlimit:10;stroke-dasharray:none;stroke-opacity:0.3;paint-order:fill stroke markers" />
          <path
             class="dcg-svg-minor-gridline"
             d="M 503.5,0 V 400"
             stroke-miterlimit="10"
             id="path61"
             inkscape:connector-curvature="0"
             style="fill:none;stroke:#000000;stroke-miterlimit:10;stroke-dasharray:none;stroke-opacity:0.3;paint-order:fill stroke markers" />
          <path
             class="dcg-svg-minor-gridline"
             d="M 520.5,0 V 400"
             stroke-miterlimit="10"
             id="path63"
             inkscape:connector-curvature="0"
             style="fill:none;stroke:#000000;stroke-miterlimit:10;stroke-dasharray:none;stroke-opacity:0.3;paint-order:fill stroke markers" />
          <path
             class="dcg-svg-minor-gridline"
             d="M 538.5,0 V 400"
             stroke-miterlimit="10"
             id="path65"
             inkscape:connector-curvature="0"
             style="fill:none;stroke:#000000;stroke-miterlimit:10;stroke-dasharray:none;stroke-opacity:0.3;paint-order:fill stroke markers" />
          <path
             class="dcg-svg-minor-gridline"
             d="M 556.5,0 V 400"
             stroke-miterlimit="10"
             id="path67"
             inkscape:connector-curvature="0"
             style="fill:none;stroke:#000000;stroke-miterlimit:10;stroke-dasharray:none;stroke-opacity:0.3;paint-order:fill stroke markers" />
          <path
             class="dcg-svg-minor-gridline"
             d="M 573.5,0 V 400"
             stroke-miterlimit="10"
             id="path69"
             inkscape:connector-curvature="0"
             style="fill:none;stroke:#000000;stroke-miterlimit:10;stroke-dasharray:none;stroke-opacity:0.3;paint-order:fill stroke markers" />
          <path
             class="dcg-svg-minor-gridline"
             d="M 591.5,0 V 400"
             stroke-miterlimit="10"
             id="path71"
             inkscape:connector-curvature="0"
             style="fill:none;stroke:#000000;stroke-miterlimit:10;stroke-dasharray:none;stroke-opacity:0.3;paint-order:fill stroke markers" />
          <path
             class="dcg-svg-minor-gridline"
             d="M 0,397.5 H 600"
             stroke-miterlimit="10"
             id="path73"
             inkscape:connector-curvature="0"
             style="fill:none;stroke:#000000;stroke-miterlimit:10;stroke-dasharray:none;stroke-opacity:0.3;paint-order:fill stroke markers" />
          <path
             class="dcg-svg-minor-gridline"
             d="M 0,379.5 H 600"
             stroke-miterlimit="10"
             id="path75"
             inkscape:connector-curvature="0"
             style="fill:none;stroke:#000000;stroke-miterlimit:10;stroke-dasharray:none;stroke-opacity:0.3;paint-order:fill stroke markers" />
          <path
             class="dcg-svg-minor-gridline"
             d="M 0,361.5 H 600"
             stroke-miterlimit="10"
             id="path77"
             inkscape:connector-curvature="0"
             style="fill:none;stroke:#000000;stroke-miterlimit:10;stroke-dasharray:none;stroke-opacity:0.3;paint-order:fill stroke markers" />
          <path
             class="dcg-svg-minor-gridline"
             d="M 0,344.5 H 600"
             stroke-miterlimit="10"
             id="path79"
             inkscape:connector-curvature="0"
             style="fill:none;stroke:#000000;stroke-miterlimit:10;stroke-dasharray:none;stroke-opacity:0.3;paint-order:fill stroke markers" />
          <path
             class="dcg-svg-minor-gridline"
             d="M 0,326.5 H 600"
             stroke-miterlimit="10"
             id="path81"
             inkscape:connector-curvature="0"
             style="fill:none;stroke:#000000;stroke-miterlimit:10;stroke-dasharray:none;stroke-opacity:0.3;paint-order:fill stroke markers" />
          <path
             class="dcg-svg-minor-gridline"
             d="M 0,308.5 H 600"
             stroke-miterlimit="10"
             id="path83"
             inkscape:connector-curvature="0"
             style="fill:none;stroke:#000000;stroke-miterlimit:10;stroke-dasharray:none;stroke-opacity:0.3;paint-order:fill stroke markers" />
          <path
             class="dcg-svg-minor-gridline"
             d="M 0,291.5 H 600"
             stroke-miterlimit="10"
             id="path85"
             inkscape:connector-curvature="0"
             style="fill:none;stroke:#000000;stroke-miterlimit:10;stroke-dasharray:none;stroke-opacity:0.3;paint-order:fill stroke markers" />
          <path
             class="dcg-svg-minor-gridline"
             d="M 0,273.5 H 600"
             stroke-miterlimit="10"
             id="path87"
             inkscape:connector-curvature="0"
             style="fill:none;stroke:#000000;stroke-miterlimit:10;stroke-dasharray:none;stroke-opacity:0.3;paint-order:fill stroke markers" />
          <path
             class="dcg-svg-minor-gridline"
             d="M 0,256.5 H 600"
             stroke-miterlimit="10"
             id="path89"
             inkscape:connector-curvature="0"
             style="fill:none;stroke:#000000;stroke-miterlimit:10;stroke-dasharray:none;stroke-opacity:0.3;paint-order:fill stroke markers" />
          <path
             class="dcg-svg-minor-gridline"
             d="M 0,238.5 H 600"
             stroke-miterlimit="10"
             id="path91"
             inkscape:connector-curvature="0"
             style="fill:none;stroke:#000000;stroke-miterlimit:10;stroke-dasharray:none;stroke-opacity:0.3;paint-order:fill stroke markers" />
          <path
             class="dcg-svg-minor-gridline"
             d="M 0,220.5 H 600"
             stroke-miterlimit="10"
             id="path93"
             inkscape:connector-curvature="0"
             style="fill:none;stroke:#000000;stroke-miterlimit:10;stroke-dasharray:none;stroke-opacity:0.3;paint-order:fill stroke markers" />
          <path
             class="dcg-svg-minor-gridline"
             d="M 0,185.5 H 600"
             stroke-miterlimit="10"
             id="path95"
             inkscape:connector-curvature="0"
             style="fill:none;stroke:#000000;stroke-miterlimit:10;stroke-dasharray:none;stroke-opacity:0.3;paint-order:fill stroke markers" />
          <path
             class="dcg-svg-minor-gridline"
             d="M 0,167.5 H 600"
             stroke-miterlimit="10"
             id="path97"
             inkscape:connector-curvature="0"
             style="fill:none;stroke:#000000;stroke-miterlimit:10;stroke-dasharray:none;stroke-opacity:0.3;paint-order:fill stroke markers" />
          <path
             class="dcg-svg-minor-gridline"
             d="M 0,150.5 H 600"
             stroke-miterlimit="10"
             id="path99"
             inkscape:connector-curvature="0"
             style="fill:none;stroke:#000000;stroke-miterlimit:10;stroke-dasharray:none;stroke-opacity:0.3;paint-order:fill stroke markers" />
          <path
             class="dcg-svg-minor-gridline"
             d="M 0,132.5 H 600"
             stroke-miterlimit="10"
             id="path101"
             inkscape:connector-curvature="0"
             style="fill:none;stroke:#000000;stroke-miterlimit:10;stroke-dasharray:none;stroke-opacity:0.3;paint-order:fill stroke markers" />
          <path
             class="dcg-svg-minor-gridline"
             d="M 0,115.5 H 600"
             stroke-miterlimit="10"
             id="path103"
             inkscape:connector-curvature="0"
             style="fill:none;stroke:#000000;stroke-miterlimit:10;stroke-dasharray:none;stroke-opacity:0.3;paint-order:fill stroke markers" />
          <path
             class="dcg-svg-minor-gridline"
             d="M 0,97.5 H 600"
             stroke-miterlimit="10"
             id="path105"
             inkscape:connector-curvature="0"
             style="fill:none;stroke:#000000;stroke-miterlimit:10;stroke-dasharray:none;stroke-opacity:0.3;paint-order:fill stroke markers" />
          <path
             class="dcg-svg-minor-gridline"
             d="M 0,79.5 H 600"
             stroke-miterlimit="10"
             id="path107"
             inkscape:connector-curvature="0"
             style="fill:none;stroke:#000000;stroke-miterlimit:10;stroke-dasharray:none;stroke-opacity:0.3;paint-order:fill stroke markers" />
          <path
             class="dcg-svg-minor-gridline"
             d="M 0,62.5 H 600"
             stroke-miterlimit="10"
             id="path109"
             inkscape:connector-curvature="0"
             style="fill:none;stroke:#000000;stroke-miterlimit:10;stroke-dasharray:none;stroke-opacity:0.3;paint-order:fill stroke markers" />
          <path
             class="dcg-svg-minor-gridline"
             d="M 0,44.5 H 600"
             stroke-miterlimit="10"
             id="path111"
             inkscape:connector-curvature="0"
             style="fill:none;stroke:#000000;stroke-miterlimit:10;stroke-dasharray:none;stroke-opacity:0.3;paint-order:fill stroke markers" />
          <path
             class="dcg-svg-minor-gridline"
             d="M 0,26.5 H 600"
             stroke-miterlimit="10"
             id="path113"
             inkscape:connector-curvature="0"
             style="fill:none;stroke:#000000;stroke-miterlimit:10;stroke-dasharray:none;stroke-opacity:0.3;paint-order:fill stroke markers" />
          <path
             class="dcg-svg-minor-gridline"
             d="M 0,9.5 H 600"
             stroke-miterlimit="10"
             id="path115"
             inkscape:connector-curvature="0"
             style="fill:none;stroke:#000000;stroke-miterlimit:10;stroke-dasharray:none;stroke-opacity:0.3;paint-order:fill stroke markers" />
          <path
             class="dcg-svg-major-gridline"
             d="M 27.5,0 V 400"
             stroke-miterlimit="10"
             id="path117"
             inkscape:connector-curvature="0"
             style="fill:none;stroke:#000000;stroke-miterlimit:10;stroke-dasharray:none;stroke-opacity:0.42857145;paint-order:fill stroke markers" />
          <path
             class="dcg-svg-major-gridline"
             d="M 115.5,0 V 400"
             stroke-miterlimit="10"
             id="path119"
             inkscape:connector-curvature="0"
             style="fill:none;stroke:#000000;stroke-miterlimit:10;stroke-dasharray:none;stroke-opacity:0.42857145;paint-order:fill stroke markers" />
          <path
             class="dcg-svg-major-gridline"
             d="M 203.5,0 V 400"
             stroke-miterlimit="10"
             id="path121"
             inkscape:connector-curvature="0"
             style="fill:none;stroke:#000000;stroke-miterlimit:10;stroke-dasharray:none;stroke-opacity:0.42857145;paint-order:fill stroke markers" />
          <path
             class="dcg-svg-major-gridline"
             d="M 379.5,0 V 400"
             stroke-miterlimit="10"
             id="path123"
             inkscape:connector-curvature="0"
             style="fill:none;stroke:#000000;stroke-miterlimit:10;stroke-dasharray:none;stroke-opacity:0.42857145;paint-order:fill stroke markers" />
          <path
             class="dcg-svg-major-gridline"
             d="M 468.5,0 V 400"
             stroke-miterlimit="10"
             id="path125"
             inkscape:connector-curvature="0"
             style="fill:none;stroke:#000000;stroke-miterlimit:10;stroke-dasharray:none;stroke-opacity:0.42857145;paint-order:fill stroke markers" />
          <path
             class="dcg-svg-major-gridline"
             d="M 556.5,0 V 400"
             stroke-miterlimit="10"
             id="path127"
             inkscape:connector-curvature="0"
             style="fill:none;stroke:#000000;stroke-miterlimit:10;stroke-dasharray:none;stroke-opacity:0.42857145;paint-order:fill stroke markers" />
          <path
             class="dcg-svg-major-gridline"
             d="M 0,379.5 H 600"
             stroke-miterlimit="10"
             id="path129"
             inkscape:connector-curvature="0"
             style="fill:none;stroke:#000000;stroke-miterlimit:10;stroke-dasharray:none;stroke-opacity:0.42857145;paint-order:fill stroke markers" />
          <path
             class="dcg-svg-major-gridline"
             d="M 0,291.5 H 600"
             stroke-miterlimit="10"
             id="path131"
             inkscape:connector-curvature="0"
             style="fill:none;stroke:#000000;stroke-miterlimit:10;stroke-dasharray:none;stroke-opacity:0.42857145;paint-order:fill stroke markers" />
          <path
             class="dcg-svg-major-gridline"
             d="M 0,115.5 H 600"
             stroke-miterlimit="10"
             id="path133"
             inkscape:connector-curvature="0"
             style="fill:none;stroke:#000000;stroke-miterlimit:10;stroke-dasharray:none;stroke-opacity:0.42857145;paint-order:fill stroke markers" />
          <path
             class="dcg-svg-major-gridline"
             d="M 0,26.5 H 600"
             stroke-miterlimit="10"
             id="path135"
             inkscape:connector-curvature="0"
             style="fill:none;stroke:#000000;stroke-miterlimit:10;stroke-dasharray:none;stroke-opacity:0.42857145;paint-order:fill stroke markers" />
        </g>
      </g>
      <g
         id="axis-f486c5ee">
        <g
           id="yaxis-f486c5ee">
          <title
             id="title140">Y axis</title>
          <g
             id="g144">
            <path
               class="dcg-svg-axis-line"
               d="M 292,0 V 400"
               stroke-miterlimit="10"
               id="path142"
               inkscape:connector-curvature="0"
               style="fill:none;stroke:#000000;stroke-width:2;stroke-miterlimit:10;stroke-dasharray:none;stroke-opacity:0.9;paint-order:fill stroke markers" />
          </g>
        </g>
        <g
           id="xaxis-f486c5ee">
          <title
             id="title147">X axis</title>
          <g
             id="g151">
            <path
               class="dcg-svg-axis-line"
               d="M 0,203 H 600"
               stroke-miterlimit="10"
               id="path149"
               inkscape:connector-curvature="0"
               style="fill:none;stroke:#000000;stroke-width:2;stroke-miterlimit:10;stroke-dasharray:none;stroke-opacity:0.9;paint-order:fill stroke markers" />
          </g>
        </g>
        <g
           id="g220">
          <g
             class="dcg-svg-axis-value"
             id="g158">
            <text
               font-size="17px"
               font-style="normal"
               font-weight="normal"
               text-decoration="normal"
               x="282.15213"
               y="221.29608"
               stroke-miterlimit="2"
               id="text154"
               style="font-style:normal;font-weight:normal;font-size:17px;font-family:Arial;text-anchor:middle;fill:none;stroke:#ffffff;stroke-width:3;stroke-miterlimit:2;stroke-dasharray:none">0</text>
            <text
               font-size="17px"
               font-style="normal"
               font-weight="normal"
               text-decoration="normal"
               x="282.15213"
               y="221.29608"
               id="text156"
               style="font-style:normal;font-weight:normal;font-size:17px;font-family:Arial;text-anchor:middle;fill:#000000;stroke:none">0</text>
          </g>
          <g
             class="dcg-svg-axis-value"
             id="g164">
            <text
               font-size="17px"
               font-style="normal"
               font-weight="normal"
               text-decoration="normal"
               x="24.715752"
               y="221.29608"
               stroke-miterlimit="2"
               id="text160"
               style="font-style:normal;font-weight:normal;font-size:17px;font-family:Arial;text-anchor:middle;fill:none;stroke:#ffffff;stroke-width:3;stroke-miterlimit:2;stroke-dasharray:none">-0.03</text>
            <text
               font-size="17px"
               font-style="normal"
               font-weight="normal"
               text-decoration="normal"
               x="24.715752"
               y="221.29608"
               id="text162"
               style="font-style:normal;font-weight:normal;font-size:17px;font-family:Arial;text-anchor:middle;fill:#000000;stroke:none">-0.03</text>
          </g>
          <g
             class="dcg-svg-axis-value"
             id="g170">
            <text
               font-size="17px"
               font-style="normal"
               font-weight="normal"
               text-decoration="normal"
               x="112.82678"
               y="221.29608"
               stroke-miterlimit="2"
               id="text166"
               style="font-style:normal;font-weight:normal;font-size:17px;font-family:Arial;text-anchor:middle;fill:none;stroke:#ffffff;stroke-width:3;stroke-miterlimit:2;stroke-dasharray:none">-0.02</text>
            <text
               font-size="17px"
               font-style="normal"
               font-weight="normal"
               text-decoration="normal"
               x="112.82678"
               y="221.29608"
               id="text168"
               style="font-style:normal;font-weight:normal;font-size:17px;font-family:Arial;text-anchor:middle;fill:#000000;stroke:none">-0.02</text>
          </g>
          <g
             class="dcg-svg-axis-value"
             id="g176">
            <text
               font-size="17px"
               font-style="normal"
               font-weight="normal"
               text-decoration="normal"
               x="200.93782"
               y="221.29608"
               stroke-miterlimit="2"
               id="text172"
               style="font-style:normal;font-weight:normal;font-size:17px;font-family:Arial;text-anchor:middle;fill:none;stroke:#ffffff;stroke-width:3;stroke-miterlimit:2;stroke-dasharray:none">-0.01</text>
            <text
               font-size="17px"
               font-style="normal"
               font-weight="normal"
               text-decoration="normal"
               x="200.93782"
               y="221.29608"
               id="text174"
               style="font-style:normal;font-weight:normal;font-size:17px;font-family:Arial;text-anchor:middle;fill:#000000;stroke:none">-0.01</text>
          </g>
          <g
             class="dcg-svg-axis-value"
             id="g182">
            <text
               font-size="17px"
               font-style="normal"
               font-weight="normal"
               text-decoration="normal"
               x="379.99045"
               y="221.29608"
               stroke-miterlimit="2"
               id="text178"
               style="font-style:normal;font-weight:normal;font-size:17px;font-family:Arial;text-anchor:middle;fill:none;stroke:#ffffff;stroke-width:3;stroke-miterlimit:2;stroke-dasharray:none">0.01</text>
            <text
               font-size="17px"
               font-style="normal"
               font-weight="normal"
               text-decoration="normal"
               x="379.99045"
               y="221.29608"
               id="text180"
               style="font-style:normal;font-weight:normal;font-size:17px;font-family:Arial;text-anchor:middle;fill:#000000;stroke:none">0.01</text>
          </g>
          <g
             class="dcg-svg-axis-value"
             id="g188">
            <text
               font-size="17px"
               font-style="normal"
               font-weight="normal"
               text-decoration="normal"
               x="468.1015"
               y="221.29608"
               stroke-miterlimit="2"
               id="text184"
               style="font-style:normal;font-weight:normal;font-size:17px;font-family:Arial;text-anchor:middle;fill:none;stroke:#ffffff;stroke-width:3;stroke-miterlimit:2;stroke-dasharray:none">0.02</text>
            <text
               font-size="17px"
               font-style="normal"
               font-weight="normal"
               text-decoration="normal"
               x="468.1015"
               y="221.29608"
               id="text186"
               style="font-style:normal;font-weight:normal;font-size:17px;font-family:Arial;text-anchor:middle;fill:#000000;stroke:none">0.02</text>
          </g>
          <g
             class="dcg-svg-axis-value"
             id="g194">
            <text
               font-size="17px"
               font-style="normal"
               font-weight="normal"
               text-decoration="normal"
               x="556.21252"
               y="221.29608"
               stroke-miterlimit="2"
               id="text190"
               style="font-style:normal;font-weight:normal;font-size:17px;font-family:Arial;text-anchor:middle;fill:none;stroke:#ffffff;stroke-width:3;stroke-miterlimit:2;stroke-dasharray:none">0.03</text>
            <text
               font-size="17px"
               font-style="normal"
               font-weight="normal"
               text-decoration="normal"
               x="556.21252"
               y="221.29608"
               id="text192"
               style="font-style:normal;font-weight:normal;font-size:17px;font-family:Arial;text-anchor:middle;fill:#000000;stroke:none">0.03</text>
          </g>
          <g
             class="dcg-svg-axis-value"
             id="g200">
            <text
               font-size="17px"
               font-style="normal"
               font-weight="normal"
               text-decoration="normal"
               x="267.5054"
               y="384.01816"
               stroke-miterlimit="2"
               id="text196"
               style="font-style:normal;font-weight:normal;font-size:17px;font-family:Arial;text-anchor:middle;fill:none;stroke:#ffffff;stroke-width:3;stroke-miterlimit:2;stroke-dasharray:none">-0.02</text>
            <text
               font-size="17px"
               font-style="normal"
               font-weight="normal"
               text-decoration="normal"
               x="267.5054"
               y="384.01816"
               id="text198"
               style="font-style:normal;font-weight:normal;font-size:17px;font-family:Arial;text-anchor:middle;fill:#000000;stroke:none">-0.02</text>
          </g>
          <g
             class="dcg-svg-axis-value"
             id="g206">
            <text
               font-size="17px"
               font-style="normal"
               font-weight="normal"
               text-decoration="normal"
               x="267.5054"
               y="295.90714"
               stroke-miterlimit="2"
               id="text202"
               style="font-style:normal;font-weight:normal;font-size:17px;font-family:Arial;text-anchor:middle;fill:none;stroke:#ffffff;stroke-width:3;stroke-miterlimit:2;stroke-dasharray:none">-0.01</text>
            <text
               font-size="17px"
               font-style="normal"
               font-weight="normal"
               text-decoration="normal"
               x="267.5054"
               y="295.90714"
               id="text204"
               style="font-style:normal;font-weight:normal;font-size:17px;font-family:Arial;text-anchor:middle;fill:#000000;stroke:none">-0.01</text>
          </g>
          <g
             class="dcg-svg-axis-value"
             id="g212">
            <text
               font-size="17px"
               font-style="normal"
               font-weight="normal"
               text-decoration="normal"
               x="270.33597"
               y="119.68505"
               stroke-miterlimit="2"
               id="text208"
               style="font-style:normal;font-weight:normal;font-size:17px;font-family:Arial;text-anchor:middle;fill:none;stroke:#ffffff;stroke-width:3;stroke-miterlimit:2;stroke-dasharray:none">0.01</text>
            <text
               font-size="17px"
               font-style="normal"
               font-weight="normal"
               text-decoration="normal"
               x="270.33597"
               y="119.68505"
               id="text210"
               style="font-style:normal;font-weight:normal;font-size:17px;font-family:Arial;text-anchor:middle;fill:#000000;stroke:none">0.01</text>
          </g>
          <g
             class="dcg-svg-axis-value"
             id="g218">
            <text
               font-size="17px"
               font-style="normal"
               font-weight="normal"
               text-decoration="normal"
               x="270.33597"
               y="31.57402"
               stroke-miterlimit="2"
               id="text214"
               style="font-style:normal;font-weight:normal;font-size:17px;font-family:Arial;text-anchor:middle;fill:none;stroke:#ffffff;stroke-width:3;stroke-miterlimit:2;stroke-dasharray:none">0.02</text>
            <text
               font-size="17px"
               font-style="normal"
               font-weight="normal"
               text-decoration="normal"
               x="270.33597"
               y="31.57402"
               id="text216"
               style="font-style:normal;font-weight:normal;font-size:17px;font-family:Arial;text-anchor:middle;fill:#000000;stroke:none">0.02</text>
          </g>
        </g>
      </g>
    </g>
    <g
       id="expressions-f486c5ee">
      <g
         id="sketch-f486c5ee">
        <title
           id="title224">Выражение 1</title>
        <path
           d=""
           id="path226"
           inkscape:connector-curvature="0"
           style="fill:#c74440;fill-opacity:0.4;stroke:none;paint-order:stroke fill markers" />
        <g
           id="g230">
          <path
             class="dcg-svg-curve"
             d="m 0,194.06429 v 0 l 1.9042969,0.92547 2.1972656,1.45164 2.6367187,2.18515 4.1015628,3.97131 4.980469,4.73243 2.636718,1.98319 2.050781,1.12028 1.757813,0.60443 1.464844,0.22801 1.464843,-0.0337 1.464844,-0.29706 1.611328,-0.62236 1.757813,-1.0064 2.197265,-1.66789 3.076172,-2.86174 5.859375,-5.55074 2.197266,-1.53099 1.757812,-0.82931 1.464844,-0.37542 1.31836,-0.0736 1.318359,0.18261 1.464844,0.49787 1.611328,0.8817 1.904297,1.42676 2.783203,2.59202 4.833984,4.56371 2.050781,1.38929 1.464844,0.63712 1.31836,0.27729 1.171875,-0.004 1.171875,-0.24327 1.318359,-0.54888 1.611328,-1.02668 2.050781,-1.74593 6.445313,-5.85982 1.611328,-0.8205 1.318359,-0.31743 1.171875,0.01 1.171875,0.28747 1.31836,0.63775 1.611328,1.16661 2.490234,2.3387 3.369141,3.12444 1.611328,1.01954 1.318359,0.45421 1.025391,0.0821 1.025391,-0.16404 1.171879,-0.47914 1.46484,-0.98334 2.05078,-1.87017 3.51563,-3.25202 1.46484,-0.85957 1.17187,-0.32704 1.02539,0.01 1.0254,0.28895 1.17187,0.64644 1.61133,1.32123 4.6875,4.14609 1.17187,0.46644 1.02539,0.0819 0.87891,-0.18297 1.02539,-0.49344 1.31836,-1.00132 4.98047,-4.23577 1.02539,-0.26447 0.87891,0.0549 0.8789,0.3135 1.17188,0.77136 1.90429,1.78507 2.19727,1.93124 1.17187,0.55779 0.87891,0.0978 0.87891,-0.19525 1.02539,-0.57088 1.46484,-1.27804 2.63672,-2.3677 1.02539,-0.46447 0.87891,-0.0634 0.8789,0.26053 1.02539,0.66655 1.9043,1.8077 1.61133,1.31914 0.87891,0.3558 0.73242,0.0319 0.73242,-0.2168 1.02539,-0.671 3.95508,-3.11379 0.73242,-0.008 0.73242,0.26365 1.02539,0.74992 3.07617,2.54262 0.73243,0.10595 0.73242,-0.1936 0.8789,-0.58154 3.22266,-2.56107 0.73242,-0.001 0.73242,0.31837 1.02539,0.85224 1.9043,1.65795 0.73242,0.23099 0.58594,-0.0682 0.73242,-0.38772 1.31836,-1.21611 1.31836,-1.03074 0.73242,-0.1516 0.58594,0.15457 0.73242,0.49589 2.49024,1.9639 0.58593,-0.0104 0.58594,-0.26884 1.02539,-0.90016 1.31836,-1.09265 0.60659,-0.1518 0.56529,0.13318 0.73242,0.51489 1.9043,1.56753 0.58593,0.0452 0.58594,-0.2554 1.02539,-0.92107 1.02539,-0.81295 0.58594,-0.11263 0.58594,0.21216 0.8789,0.75903 1.17188,0.93224 0.58594,0.0589 0.58593,-0.28185 2.14077,-1.55832 0.49595,0.13368 0.73242,0.58613 1.17188,0.95781 0.43945,0.0619 0.43946,-0.16032 0.8789,-0.77176 0.87891,-0.65396 0.43945,-0.0336 0.58594,0.30887 1.68432,1.22136 0.36646,-0.088 0.73242,-0.58595 1.02539,-0.76523 0.43946,0.0324 0.58593,0.40986 1.17188,0.90339 0.43945,-0.0545 0.58594,-0.44359 1.02539,-0.77935 0.43945,0.058 0.58594,0.45939 0.87891,0.68106 0.43945,-0.0331 0.58594,-0.45275 0.8789,-0.65265 0.43946,0.0789 0.73242,0.64036 0.58594,0.3749 0.43945,-0.0857 1.61133,-0.89638 0.73242,0.63501 0.58701,0.30819 0.43838,-0.18263 1.17187,-0.77444 0.43946,0.26156 0.91718,0.65207 0.40118,-0.16758 0.98443,-0.71456 0.33393,0.12332 0.99206,0.72087 0.3263,-0.12273 1.02539,-0.67753 0.43945,0.28889 0.69676,0.47801 0.32863,-0.13401 0.83991,-0.60993 0.33196,0.14148 0.87891,0.56182 0.43945,-0.3181 0.55058,-0.35745 0.32833,0.14828 0.70923,0.51227 0.31616,-0.14286 0.6826,-0.49299 0.34279,0.17068 0.61931,0.44183 0.2596,-0.10559 0.66783,-0.48484 0.35756,0.19456 0.53702,0.37497 0.34188,-0.18476 0.52159,-0.36496 0.35732,0.20447 0.47662,0.32645 0.2558,-0.116 0.55011,-0.39707 0.3288,0.18619 0.45045,0.30992 0.28197,-0.14603 0.47195,-0.33394 0.26047,0.13007 0.46931,0.33453 0.26311,-0.13581 0.44368,-0.31416 0.28875,0.1635 0.39613,0.27252 0.92223,-0.28161 0.38572,0.26889 0.78615,-0.33501 0.58594,0.27372 0.58594,-0.27666 0.43521,0.31569 0.73666,-0.26905 0.43945,0.24142 0.58594,-0.26273 0.37416,0.27159 0.65123,-0.24873 0.43946,0.20477 0.36675,-0.26553 0.46105,0.29352 0.44946,-0.28614 0.43829,0.27903 0.42753,-0.27218 0.49363,0.24388 0.43946,-0.19397 0.28878,0.20953 0.38823,-0.24716 0.49486,0.1896 0.25499,-0.18408 0.47743,0.17705 0.2389,-0.1719 0.49353,0.13509 0.29296,-0.0854 0.22992,0.16614 0.32431,-0.20646 0.31744,0.20209 0.44669,-0.1176 0.29297,0.0433 0.29297,-0.0532 0.29297,0.0515 0.29297,-0.0382 0.29297,0.0135 0.13541,-0.0858 0.2696,0.17163 0.26439,-0.16831 0.35599,0.11422 0.29297,-0.0216 0.11441,0.0694 0.32504,-0.11801 0.29297,0.0258 0.10353,-0.061 0.33592,0.0851 0.12354,-0.0824 0.31592,0.09 0.12734,-0.0875 0.31211,0.0798 0.1158,-0.0775 0.32365,0.055 0.58594,0.0105 0.098,0.0629 0.19157,-0.12196 0.29633,0.0461 1.12974,-0.0389 0.49038,0.10409 0.31477,-0.001 0.30554,-10e-4 0.44188,-0.0938 0.42328,0.0898 0.40582,-0.0861 0.26138,0.001 0.62345,0.0794 0.29126,-0.0329 1.05038,0.0275 0.26798,-0.0453 0.42794,-0.0181 1.76932,0.0501 8.20301,-0.0243 8.05676,0.004 21.03484,0.0587 0.18539,-0.11803 0.38002,-0.002 0.19478,0.124 0.32411,-0.0371 1.46484,-0.0175 0.12272,-0.0811 0.31673,0.10424 0.29297,-0.009 0.0987,0.055 0.3408,-0.10459 0.29297,0.0144 0.11526,-0.0688 0.25933,0.1651 0.35783,-0.12199 0.29297,0.0579 0.29296,-0.0234 0.29297,-0.001 0.13889,-0.0865 0.29206,0.18593 0.44796,-0.0948 0.29297,0.0163 0.29297,-0.0511 0.29297,0.0959 0.22814,-0.1645 0.3314,0.21097 0.46585,-0.14966 0.29297,0.13096 0.28031,-0.20192 0.45211,0.19768 0.28069,-0.20301 0.37925,0.24144 0.51193,-0.19091 0.27384,0.19683 0.40718,-0.25921 0.49086,0.2459 0.43945,-0.22678 0.43945,0.22751 0.43946,-0.24049 0.38427,0.27367 0.64112,-0.21785 0.43945,0.18088 0.37686,-0.27253 0.64853,0.27316 0.39011,-0.28215 0.63528,0.31974 0.58594,-0.2887 0.58594,0.27518 0.58593,-0.28157 0.58594,0.30945 0.58594,-0.35269 0.73242,0.33632 0.58594,-0.34606 0.73242,0.38141 0.73242,-0.3596 0.57205,0.41242 0.30686,-0.17241 0.44705,-0.30756 0.28537,0.14831 0.58594,0.3312 0.8789,-0.44609 0.6689,0.48053 0.35649,-0.20245 0.58594,-0.3362 1.02539,0.486 0.71766,-0.51797 0.30773,0.1438 0.73243,0.45901 0.43945,-0.32887 0.48125,-0.29728 0.25117,0.0923 0.87891,0.55559 0.43945,-0.32622 0.54668,-0.34787 0.33223,0.14568 0.8789,0.55801 0.43946,-0.30861 0.6402,-0.42456 0.38519,0.17862 0.83256,0.59666 0.33931,-0.13632 1.02539,-0.66155 0.43945,0.28789 0.79199,0.54554 0.37989,-0.15623 1.00572,-0.72592 0.45912,0.21344 0.99021,0.70928 0.47464,-0.21841 1.04291,-0.74774 0.42193,0.16878 1.16879,0.84395 0.44254,-0.17702 1.31836,-0.87807 0.43945,0.23047 1.22281,0.87846 0.38852,-0.12648 1.61133,-1.0284 0.43945,0.24921 1.34914,0.96834 0.40867,-0.1266 0.87891,-0.78789 0.7624,-0.39065 0.40947,0.12083 0.73243,0.63562 0.8789,0.60752 0.43946,-0.0455 0.58593,-0.41774 1.17188,-0.94299 0.43945,-0.011 0.58594,0.3476 1.46484,1.15206 0.43946,-0.0235 0.58593,-0.3665 1.61133,-1.22339 0.43945,0.0525 0.58594,0.37986 1.61133,1.27766 0.43945,9.9e-4 0.58594,-0.30784 2.11728,-1.52577 0.51944,0.13664 0.73242,0.56628 1.46485,1.20492 0.58593,0.0618 0.58594,-0.25748 1.02539,-0.92946 1.02539,-0.80196 0.51823,-0.12027 0.65365,0.18785 0.8789,0.71278 1.46485,1.23765 0.58389,0.14192 0.58798,-0.14284 0.73242,-0.51738 2.05078,-1.70224 0.58594,-0.0856 0.58594,0.17816 0.87891,0.66411 1.90429,1.63298 0.67973,0.1654 0.63863,-0.14525 0.73242,-0.47995 2.78321,-2.19736 0.58593,-0.0183 0.73243,0.28861 1.02539,0.84075 2.05078,1.75033 0.73242,0.20249 0.58594,-0.0731 0.73242,-0.36695 1.17187,-1.0257 1.75782,-1.54871 0.8789,-0.34341 0.73243,0.0385 0.73242,0.32609 1.02539,0.82475 2.49023,2.18144 0.87891,0.29227 0.73242,-0.0556 0.73242,-0.31827 1.02539,-0.79304 3.07617,-2.63545 0.87891,-0.23796 0.73242,0.0755 0.87891,0.40243 1.17187,0.94244 3.07618,2.69016 0.8789,0.31904 0.73242,0.0209 0.87891,-0.26862 1.02539,-0.66398 1.75781,-1.65039 1.9043,-1.67598 1.17188,-0.57374 0.8789,-0.10422 0.87891,0.18796 1.02539,0.55521 1.46484,1.24789 3.22266,2.89509 1.17187,0.53193 0.87891,0.10437 0.87891,-0.15786 1.02539,-0.49221 1.31836,-1.02029 4.83398,-4.14941 1.02539,-0.32973 0.87891,-0.0322 0.8789,0.19967 1.02539,0.50363 1.46485,1.12462 5.5664,4.75643 1.17188,0.3578 1.02539,0.0148 1.02539,-0.26245 1.17188,-0.61004 1.61132,-1.2657 6.00586,-5.2229 1.31836,-0.4804 1.02539,-0.0983 1.02539,0.14735 1.17188,0.45465 1.46484,0.94175 2.05078,1.81144 4.6875,4.33582 1.61133,0.94903 1.31836,0.42332 1.17188,0.084 1.17187,-0.19352 1.31836,-0.53175 1.46484,-0.93215 2.05079,-1.75356 6.44531,-5.85648 1.61133,-0.85976 1.31836,-0.3931 1.31835,-0.0935 1.17188,0.17 1.31836,0.46392 1.46484,0.82197 1.9043,1.46259 2.92969,2.78171 4.24804,4.00889 2.19727,1.54717 1.61133,0.76255 1.46484,0.37908 1.31836,0.0723 1.31836,-0.18278 1.46484,-0.49047 1.61133,-0.85899 2.05078,-1.49979 2.78321,-2.53918 6.73828,-6.35104 2.19726,-1.49997 1.75782,-0.84336 1.61132,-0.45871 1.5232,-0.14286 1.40649,0.12098 1.46485,0.37754 1.61132,0.69437 1.9043,1.15835 2.34375,1.83759 3.36914,3.1631 6.73828,6.43512 2.63672,1.9612 2.19727,1.21411 1.90429,0.69397 1.75782,0.32437 1.61132,0.0244 1.61133,-0.23465 1.75781,-0.54098 1.9043,-0.89936 2.19727,-1.39793 2.63672,-2.09551 1.46484,-1.3164"
             stroke-miterlimit="10"
             id="path228"
             inkscape:connector-curvature="0"
             style="fill:none;stroke:#c74440;stroke-width:3.5;stroke-linecap:round;stroke-linejoin:round;stroke-miterlimit:10;stroke-dasharray:none;paint-order:fill stroke markers" />
        </g>
      </g>
    </g>
    <g
       id="labels-f486c5ee" />
    <g
       id="g235" />
  </g>
</svg>
